%TF.GenerationSoftware,KiCad,Pcbnew,7.0.8*%
%TF.CreationDate,2024-01-29T14:11:28+05:30*%
%TF.ProjectId,stm32_ble,73746d33-325f-4626-9c65-2e6b69636164,Version : 1*%
%TF.SameCoordinates,PX6eac850PY632ea00*%
%TF.FileFunction,Copper,L4,Bot*%
%TF.FilePolarity,Positive*%
%FSLAX46Y46*%
G04 Gerber Fmt 4.6, Leading zero omitted, Abs format (unit mm)*
G04 Created by KiCad (PCBNEW 7.0.8) date 2024-01-29 14:11:28*
%MOMM*%
%LPD*%
G01*
G04 APERTURE LIST*
G04 Aperture macros list*
%AMRoundRect*
0 Rectangle with rounded corners*
0 $1 Rounding radius*
0 $2 $3 $4 $5 $6 $7 $8 $9 X,Y pos of 4 corners*
0 Add a 4 corners polygon primitive as box body*
4,1,4,$2,$3,$4,$5,$6,$7,$8,$9,$2,$3,0*
0 Add four circle primitives for the rounded corners*
1,1,$1+$1,$2,$3*
1,1,$1+$1,$4,$5*
1,1,$1+$1,$6,$7*
1,1,$1+$1,$8,$9*
0 Add four rect primitives between the rounded corners*
20,1,$1+$1,$2,$3,$4,$5,0*
20,1,$1+$1,$4,$5,$6,$7,0*
20,1,$1+$1,$6,$7,$8,$9,0*
20,1,$1+$1,$8,$9,$2,$3,0*%
G04 Aperture macros list end*
%TA.AperFunction,ComponentPad*%
%ADD10O,2.100000X1.000000*%
%TD*%
%TA.AperFunction,ComponentPad*%
%ADD11O,1.800000X1.000000*%
%TD*%
%TA.AperFunction,ComponentPad*%
%ADD12C,0.700000*%
%TD*%
%TA.AperFunction,ComponentPad*%
%ADD13C,4.400000*%
%TD*%
%TA.AperFunction,ComponentPad*%
%ADD14RoundRect,0.200000X-0.450000X0.200000X-0.450000X-0.200000X0.450000X-0.200000X0.450000X0.200000X0*%
%TD*%
%TA.AperFunction,ComponentPad*%
%ADD15O,1.300000X0.800000*%
%TD*%
%TA.AperFunction,ViaPad*%
%ADD16C,0.700000*%
%TD*%
%TA.AperFunction,ViaPad*%
%ADD17C,0.800000*%
%TD*%
%TA.AperFunction,Conductor*%
%ADD18C,0.250000*%
%TD*%
G04 APERTURE END LIST*
D10*
%TO.P,J3,S1,SHIELD*%
%TO.N,GND*%
X6815000Y20500000D03*
D11*
X2635000Y20500000D03*
D10*
X6815000Y11860000D03*
D11*
X2635000Y11860000D03*
%TD*%
D12*
%TO.P,H1,1,1*%
%TO.N,GND*%
X9260000Y24500000D03*
X9743274Y25666726D03*
X9743274Y23333274D03*
X10910000Y26150000D03*
D13*
X10910000Y24500000D03*
D12*
X10910000Y22850000D03*
X12076726Y25666726D03*
X12076726Y23333274D03*
X12560000Y24500000D03*
%TD*%
%TO.P,H2,1,1*%
%TO.N,GND*%
X9550000Y3370000D03*
X10033274Y4536726D03*
X10033274Y2203274D03*
X11200000Y5020000D03*
D13*
X11200000Y3370000D03*
D12*
X11200000Y1720000D03*
X12366726Y4536726D03*
X12366726Y2203274D03*
X12850000Y3370000D03*
%TD*%
%TO.P,H4,1,1*%
%TO.N,GND*%
X45743274Y3476726D03*
X46226548Y4643452D03*
X46226548Y2310000D03*
X47393274Y5126726D03*
D13*
X47393274Y3476726D03*
D12*
X47393274Y1826726D03*
X48560000Y4643452D03*
X48560000Y2310000D03*
X49043274Y3476726D03*
%TD*%
%TO.P,H3,1,1*%
%TO.N,GND*%
X45980000Y24330000D03*
X46463274Y25496726D03*
X46463274Y23163274D03*
X47630000Y25980000D03*
D13*
X47630000Y24330000D03*
D12*
X47630000Y22680000D03*
X48796726Y25496726D03*
X48796726Y23163274D03*
X49280000Y24330000D03*
%TD*%
D14*
%TO.P,J4,1,Pin_1*%
%TO.N,+3.3V*%
X5370000Y7330000D03*
D15*
%TO.P,J4,2,Pin_2*%
%TO.N,/UART_TX*%
X5370000Y6080000D03*
%TO.P,J4,3,Pin_3*%
%TO.N,/UART_RX*%
X5370000Y4830000D03*
%TO.P,J4,4,Pin_4*%
%TO.N,GND*%
X5370000Y3580000D03*
%TD*%
D16*
%TO.N,+3.3V*%
X28920000Y24530000D03*
X18420000Y19730000D03*
X25110000Y18430000D03*
X33540000Y8460000D03*
X23420000Y12000000D03*
X37715000Y19300000D03*
X26320000Y4030000D03*
X13990000Y9080000D03*
X14040000Y8210000D03*
X36820000Y16630000D03*
%TO.N,GND*%
X32020000Y17530000D03*
X23265000Y17430000D03*
X26975000Y21830000D03*
X26975000Y20830000D03*
X16020000Y12330000D03*
X31820000Y15430000D03*
X38120000Y24675000D03*
X24720000Y13430000D03*
X28820000Y16430000D03*
X30620000Y9930000D03*
X24670000Y9330000D03*
X48123701Y14299029D03*
X26075000Y23230000D03*
X20060000Y9010000D03*
X28820000Y14430000D03*
X37460000Y18200000D03*
X44520000Y16230000D03*
X42920000Y19275000D03*
X48120000Y20230000D03*
X44420000Y18230000D03*
X9450000Y14500000D03*
X40720000Y6330000D03*
X25670000Y9290000D03*
X34265000Y21765000D03*
X9030000Y9960000D03*
X8920000Y11530000D03*
X30620000Y16530000D03*
X33320000Y18530000D03*
X39860000Y14705000D03*
X39220000Y19475000D03*
X11520000Y15130000D03*
X26820000Y9630000D03*
X33120000Y14530000D03*
X3475000Y10030000D03*
X33220000Y16530000D03*
X29620000Y15430000D03*
X38250000Y16150000D03*
X38820000Y3130000D03*
D17*
X16985000Y8210000D03*
D16*
X3175000Y22430000D03*
X28820000Y18530000D03*
X31120000Y18530000D03*
X34620000Y9930000D03*
X9020000Y20875000D03*
X30620000Y14530000D03*
X37020000Y20985000D03*
X29720000Y17530000D03*
D17*
%TO.N,/BOOT0*%
X31630000Y8630000D03*
X38320000Y8030000D03*
%TD*%
D18*
%TO.N,/BOOT0*%
X37480000Y8030000D02*
X38320000Y8030000D01*
X36450000Y7000000D02*
X37480000Y8030000D01*
X31950000Y7000000D02*
X36450000Y7000000D01*
X31630000Y8630000D02*
X31630000Y7320000D01*
X31630000Y7320000D02*
X31950000Y7000000D01*
%TD*%
%TA.AperFunction,Conductor*%
%TO.N,+3.3V*%
G36*
X10168854Y27012187D02*
G01*
X10194164Y26968350D01*
X10185374Y26918500D01*
X10146597Y26885963D01*
X10139692Y26883825D01*
X10135778Y26882821D01*
X10135760Y26882815D01*
X9843240Y26766997D01*
X9843233Y26766994D01*
X9567510Y26615413D01*
X9312971Y26430479D01*
X9083606Y26215091D01*
X8883052Y25972663D01*
X8714463Y25707009D01*
X8580494Y25422309D01*
X8580492Y25422305D01*
X8483272Y25123093D01*
X8483268Y25123077D01*
X8424314Y24814029D01*
X8424311Y24814006D01*
X8404556Y24500001D01*
X8404556Y24500000D01*
X8424311Y24185995D01*
X8424314Y24185972D01*
X8483268Y23876924D01*
X8483272Y23876908D01*
X8580492Y23577696D01*
X8580494Y23577692D01*
X8714463Y23292992D01*
X8883052Y23027338D01*
X9083606Y22784910D01*
X9083609Y22784908D01*
X9083610Y22784906D01*
X9312970Y22569522D01*
X9435499Y22480500D01*
X9546955Y22399522D01*
X9567516Y22384584D01*
X9843234Y22233006D01*
X9889753Y22214588D01*
X10135760Y22117186D01*
X10135772Y22117183D01*
X10135775Y22117181D01*
X10135778Y22117181D01*
X10135782Y22117179D01*
X10201085Y22100413D01*
X10440527Y22038934D01*
X10752682Y21999500D01*
X10752683Y21999500D01*
X11067317Y21999500D01*
X11067318Y21999500D01*
X11379473Y22038934D01*
X11684225Y22117181D01*
X11684232Y22117184D01*
X11684239Y22117186D01*
X11805073Y22165029D01*
X11976766Y22233006D01*
X12252484Y22384584D01*
X12507030Y22569522D01*
X12736390Y22784906D01*
X12936947Y23027337D01*
X13065559Y23229997D01*
X25419722Y23229997D01*
X25438761Y23073192D01*
X25438764Y23073178D01*
X25494778Y22925479D01*
X25541813Y22857337D01*
X25584517Y22795470D01*
X25702760Y22690717D01*
X25842635Y22617304D01*
X25996015Y22579500D01*
X25996019Y22579500D01*
X26153981Y22579500D01*
X26153985Y22579500D01*
X26307365Y22617304D01*
X26447240Y22690717D01*
X26565483Y22795470D01*
X26655220Y22925477D01*
X26711237Y23073182D01*
X26730278Y23230000D01*
X26722629Y23292992D01*
X26711238Y23386809D01*
X26711237Y23386818D01*
X26703213Y23407975D01*
X26655221Y23534522D01*
X26565483Y23664530D01*
X26447240Y23769283D01*
X26435139Y23775634D01*
X26307366Y23842696D01*
X26153987Y23880500D01*
X26153985Y23880500D01*
X25996015Y23880500D01*
X25996012Y23880500D01*
X25842633Y23842696D01*
X25702761Y23769284D01*
X25584516Y23664530D01*
X25494779Y23534522D01*
X25494778Y23534522D01*
X25438764Y23386823D01*
X25438761Y23386809D01*
X25419722Y23230004D01*
X25419722Y23229997D01*
X13065559Y23229997D01*
X13105537Y23292993D01*
X13239503Y23577685D01*
X13281491Y23706908D01*
X13336727Y23876908D01*
X13336727Y23876911D01*
X13336731Y23876921D01*
X13395688Y24185985D01*
X13415444Y24500000D01*
X13404434Y24674997D01*
X37464722Y24674997D01*
X37483761Y24518192D01*
X37483764Y24518178D01*
X37539778Y24370479D01*
X37567718Y24330001D01*
X37629517Y24240470D01*
X37747760Y24135717D01*
X37887635Y24062304D01*
X38041015Y24024500D01*
X38041019Y24024500D01*
X38198981Y24024500D01*
X38198985Y24024500D01*
X38352365Y24062304D01*
X38492240Y24135717D01*
X38610483Y24240470D01*
X38672281Y24330000D01*
X45124556Y24330000D01*
X45144311Y24015995D01*
X45144314Y24015972D01*
X45203268Y23706924D01*
X45203272Y23706908D01*
X45300492Y23407696D01*
X45300494Y23407692D01*
X45300496Y23407688D01*
X45300497Y23407685D01*
X45310321Y23386809D01*
X45434463Y23122992D01*
X45603052Y22857338D01*
X45803606Y22614910D01*
X45803609Y22614908D01*
X45803610Y22614906D01*
X46032970Y22399522D01*
X46287516Y22214584D01*
X46563234Y22063006D01*
X46624033Y22038934D01*
X46855760Y21947186D01*
X46855772Y21947183D01*
X46855775Y21947181D01*
X46855778Y21947181D01*
X46855782Y21947179D01*
X46921085Y21930413D01*
X47160527Y21868934D01*
X47472682Y21829500D01*
X47472683Y21829500D01*
X47787317Y21829500D01*
X47787318Y21829500D01*
X48099473Y21868934D01*
X48404225Y21947181D01*
X48404232Y21947184D01*
X48404239Y21947186D01*
X48536370Y21999501D01*
X48696766Y22063006D01*
X48972484Y22214584D01*
X49227030Y22399522D01*
X49456390Y22614906D01*
X49656947Y22857337D01*
X49825537Y23122993D01*
X49959503Y23407685D01*
X50000716Y23534523D01*
X50056727Y23706908D01*
X50056727Y23706911D01*
X50056731Y23706921D01*
X50115688Y24015985D01*
X50135444Y24330000D01*
X50115688Y24644015D01*
X50056731Y24953079D01*
X50056728Y24953086D01*
X50056727Y24953093D01*
X49959507Y25252305D01*
X49959505Y25252309D01*
X49959504Y25252310D01*
X49959503Y25252315D01*
X49825537Y25537007D01*
X49656947Y25802663D01*
X49456393Y26045091D01*
X49456390Y26045094D01*
X49227030Y26260478D01*
X49093017Y26357844D01*
X48972489Y26445413D01*
X48947385Y26459214D01*
X48696766Y26596994D01*
X48696759Y26596997D01*
X48404239Y26712815D01*
X48404217Y26712822D01*
X48099473Y26791066D01*
X48099462Y26791068D01*
X47787325Y26830500D01*
X47787318Y26830500D01*
X47472682Y26830500D01*
X47472674Y26830500D01*
X47160537Y26791068D01*
X47160526Y26791066D01*
X46855782Y26712822D01*
X46855760Y26712815D01*
X46563240Y26596997D01*
X46563233Y26596994D01*
X46287510Y26445413D01*
X46032971Y26260479D01*
X45803606Y26045091D01*
X45603052Y25802663D01*
X45434463Y25537009D01*
X45300494Y25252309D01*
X45300492Y25252305D01*
X45203272Y24953093D01*
X45203268Y24953077D01*
X45144314Y24644029D01*
X45144311Y24644006D01*
X45124556Y24330001D01*
X45124556Y24330000D01*
X38672281Y24330000D01*
X38700220Y24370477D01*
X38756237Y24518182D01*
X38771516Y24644015D01*
X38775278Y24674997D01*
X38775278Y24675004D01*
X38756238Y24831809D01*
X38756237Y24831818D01*
X38710244Y24953093D01*
X38700221Y24979522D01*
X38610483Y25109530D01*
X38595173Y25123093D01*
X38492240Y25214283D01*
X38480139Y25220634D01*
X38352366Y25287696D01*
X38198987Y25325500D01*
X38198985Y25325500D01*
X38041015Y25325500D01*
X38041012Y25325500D01*
X37887633Y25287696D01*
X37747761Y25214284D01*
X37629516Y25109530D01*
X37539779Y24979522D01*
X37539778Y24979522D01*
X37483764Y24831823D01*
X37483761Y24831809D01*
X37464722Y24675004D01*
X37464722Y24674997D01*
X13404434Y24674997D01*
X13395688Y24814015D01*
X13336731Y25123079D01*
X13336728Y25123086D01*
X13336727Y25123093D01*
X13239507Y25422305D01*
X13239505Y25422309D01*
X13239504Y25422310D01*
X13239503Y25422315D01*
X13105537Y25707007D01*
X12936947Y25972663D01*
X12877027Y26045094D01*
X12736393Y26215091D01*
X12688060Y26260479D01*
X12507030Y26430478D01*
X12400812Y26507650D01*
X12252489Y26615413D01*
X12217708Y26634534D01*
X11976766Y26766994D01*
X11976759Y26766997D01*
X11684239Y26882815D01*
X11684221Y26882821D01*
X11680308Y26883825D01*
X11638542Y26912424D01*
X11624930Y26961178D01*
X11645842Y27007276D01*
X11691492Y27029147D01*
X11698712Y27029500D01*
X30763827Y27029500D01*
X49772405Y27029500D01*
X49818178Y27029500D01*
X49821806Y27029322D01*
X49845514Y27026987D01*
X49949217Y27016773D01*
X49963435Y27013945D01*
X50080717Y26978369D01*
X50094112Y26972820D01*
X50202193Y26915049D01*
X50214254Y26906990D01*
X50308986Y26829245D01*
X50319244Y26818987D01*
X50396989Y26724255D01*
X50405048Y26712194D01*
X50462817Y26604117D01*
X50468369Y26590714D01*
X50503943Y26473441D01*
X50506773Y26459214D01*
X50519322Y26331808D01*
X50519500Y26328179D01*
X50519500Y1331822D01*
X50519322Y1328193D01*
X50506773Y1200787D01*
X50503943Y1186560D01*
X50468369Y1069287D01*
X50462817Y1055884D01*
X50405048Y947807D01*
X50396989Y935746D01*
X50319244Y841014D01*
X50308986Y830756D01*
X50214254Y753011D01*
X50202193Y744952D01*
X50094116Y687183D01*
X50080713Y681631D01*
X49963440Y646057D01*
X49949213Y643227D01*
X49821807Y630678D01*
X49818178Y630500D01*
X821822Y630500D01*
X818193Y630678D01*
X690786Y643227D01*
X676559Y646057D01*
X559286Y681631D01*
X545883Y687183D01*
X437806Y744952D01*
X425745Y753011D01*
X331013Y830756D01*
X320755Y841014D01*
X243010Y935746D01*
X234951Y947807D01*
X198683Y1015659D01*
X177180Y1055888D01*
X171630Y1069287D01*
X136055Y1186565D01*
X133227Y1200783D01*
X120678Y1328194D01*
X120500Y1331822D01*
X120500Y7455000D01*
X4320000Y7455000D01*
X5152850Y7455000D01*
X5134505Y7427545D01*
X5115102Y7330000D01*
X5134505Y7232455D01*
X5152850Y7205000D01*
X4320001Y7205000D01*
X4320001Y7090679D01*
X4335443Y6973372D01*
X4335444Y6973368D01*
X4395900Y6827413D01*
X4492075Y6702076D01*
X4573842Y6639333D01*
X4601039Y6596641D01*
X4594432Y6546455D01*
X4584184Y6531555D01*
X4539265Y6480851D01*
X4460209Y6330223D01*
X4419500Y6165059D01*
X4419500Y5994942D01*
X4452872Y5859545D01*
X4460210Y5829775D01*
X4539266Y5679148D01*
X4539267Y5679147D01*
X4539269Y5679144D01*
X4652071Y5551817D01*
X4704104Y5515901D01*
X4733415Y5474632D01*
X4729342Y5424177D01*
X4704104Y5394099D01*
X4652071Y5358184D01*
X4539269Y5230857D01*
X4539267Y5230854D01*
X4539266Y5230852D01*
X4462766Y5085094D01*
X4460209Y5080223D01*
X4419500Y4915059D01*
X4419500Y4915056D01*
X4419500Y4744944D01*
X4460210Y4579775D01*
X4461662Y4577009D01*
X4539267Y4429147D01*
X4539269Y4429144D01*
X4652071Y4301817D01*
X4704104Y4265901D01*
X4733415Y4224632D01*
X4729342Y4174177D01*
X4704104Y4144099D01*
X4652071Y4108184D01*
X4539269Y3980857D01*
X4539267Y3980854D01*
X4460209Y3830223D01*
X4419500Y3665059D01*
X4419500Y3494942D01*
X4460209Y3329778D01*
X4460210Y3329775D01*
X4482756Y3286818D01*
X4539267Y3179147D01*
X4539269Y3179144D01*
X4648370Y3055995D01*
X4652071Y3051817D01*
X4792070Y2955182D01*
X4951128Y2894860D01*
X5077628Y2879500D01*
X5662372Y2879500D01*
X5788872Y2894860D01*
X5947930Y2955182D01*
X6087929Y3051817D01*
X6200734Y3179148D01*
X6279790Y3329775D01*
X6289704Y3370000D01*
X8694556Y3370000D01*
X8714311Y3055995D01*
X8714314Y3055972D01*
X8773268Y2746924D01*
X8773272Y2746908D01*
X8870492Y2447696D01*
X8870494Y2447692D01*
X9004463Y2162992D01*
X9173052Y1897338D01*
X9373606Y1654910D01*
X9373609Y1654908D01*
X9373610Y1654906D01*
X9602970Y1439522D01*
X9857516Y1254584D01*
X10133234Y1103006D01*
X10156221Y1093905D01*
X10425760Y987186D01*
X10425772Y987183D01*
X10425775Y987181D01*
X10425778Y987181D01*
X10425782Y987179D01*
X10468438Y976227D01*
X10730527Y908934D01*
X11042682Y869500D01*
X11042683Y869500D01*
X11357317Y869500D01*
X11357318Y869500D01*
X11669473Y908934D01*
X11974225Y987181D01*
X11974232Y987184D01*
X11974239Y987186D01*
X12147749Y1055884D01*
X12266766Y1103006D01*
X12542484Y1254584D01*
X12797030Y1439522D01*
X13026390Y1654906D01*
X13226947Y1897337D01*
X13395537Y2162993D01*
X13529503Y2447685D01*
X13539841Y2479500D01*
X13626727Y2746908D01*
X13626727Y2746911D01*
X13626731Y2746921D01*
X13685688Y3055985D01*
X13690344Y3129997D01*
X38164722Y3129997D01*
X38183761Y2973192D01*
X38183764Y2973178D01*
X38239778Y2825479D01*
X38294001Y2746924D01*
X38329517Y2695470D01*
X38447760Y2590717D01*
X38587635Y2517304D01*
X38741015Y2479500D01*
X38741019Y2479500D01*
X38898981Y2479500D01*
X38898985Y2479500D01*
X39052365Y2517304D01*
X39192240Y2590717D01*
X39310483Y2695470D01*
X39400220Y2825477D01*
X39410904Y2853647D01*
X39426533Y2894860D01*
X39456237Y2973182D01*
X39465785Y3051817D01*
X39475278Y3129997D01*
X39475278Y3130004D01*
X39456238Y3286809D01*
X39456237Y3286818D01*
X39439946Y3329775D01*
X39400221Y3434522D01*
X39371090Y3476726D01*
X44887830Y3476726D01*
X44907585Y3162721D01*
X44907588Y3162698D01*
X44966542Y2853650D01*
X44966546Y2853634D01*
X45063766Y2554422D01*
X45063768Y2554418D01*
X45063770Y2554414D01*
X45063771Y2554411D01*
X45113987Y2447696D01*
X45197737Y2269718D01*
X45366326Y2004064D01*
X45566880Y1761636D01*
X45566883Y1761634D01*
X45566884Y1761632D01*
X45796244Y1546248D01*
X45943140Y1439522D01*
X46028375Y1377595D01*
X46050790Y1361310D01*
X46326508Y1209732D01*
X46349101Y1200787D01*
X46619034Y1093912D01*
X46619046Y1093909D01*
X46619049Y1093907D01*
X46619052Y1093907D01*
X46619056Y1093905D01*
X46684359Y1077139D01*
X46923801Y1015660D01*
X47235956Y976226D01*
X47235957Y976226D01*
X47550591Y976226D01*
X47550592Y976226D01*
X47862747Y1015660D01*
X48167499Y1093907D01*
X48167506Y1093910D01*
X48167513Y1093912D01*
X48288347Y1141755D01*
X48460040Y1209732D01*
X48735758Y1361310D01*
X48990304Y1546248D01*
X49219664Y1761632D01*
X49420221Y2004063D01*
X49588811Y2269719D01*
X49722777Y2554411D01*
X49768611Y2695471D01*
X49820001Y2853634D01*
X49820001Y2853637D01*
X49820005Y2853647D01*
X49878962Y3162711D01*
X49898718Y3476726D01*
X49878962Y3790741D01*
X49820005Y4099805D01*
X49820002Y4099812D01*
X49820001Y4099819D01*
X49722781Y4399031D01*
X49722779Y4399035D01*
X49722778Y4399036D01*
X49722777Y4399041D01*
X49588811Y4683733D01*
X49549965Y4744944D01*
X49420221Y4949389D01*
X49219667Y5191817D01*
X49103954Y5300479D01*
X48990304Y5407204D01*
X48791261Y5551817D01*
X48735763Y5592139D01*
X48460040Y5743720D01*
X48460033Y5743723D01*
X48167513Y5859541D01*
X48167491Y5859548D01*
X47862747Y5937792D01*
X47862736Y5937794D01*
X47550599Y5977226D01*
X47550592Y5977226D01*
X47235956Y5977226D01*
X47235948Y5977226D01*
X46923811Y5937794D01*
X46923800Y5937792D01*
X46619056Y5859548D01*
X46619034Y5859541D01*
X46326514Y5743723D01*
X46326507Y5743720D01*
X46050784Y5592139D01*
X45796245Y5407205D01*
X45566880Y5191817D01*
X45366326Y4949389D01*
X45197737Y4683735D01*
X45063768Y4399035D01*
X45063766Y4399031D01*
X44966546Y4099819D01*
X44966542Y4099803D01*
X44907588Y3790755D01*
X44907585Y3790732D01*
X44887830Y3476727D01*
X44887830Y3476726D01*
X39371090Y3476726D01*
X39310483Y3564530D01*
X39192240Y3669283D01*
X39164144Y3684029D01*
X39052366Y3742696D01*
X38898987Y3780500D01*
X38898985Y3780500D01*
X38741015Y3780500D01*
X38741012Y3780500D01*
X38587633Y3742696D01*
X38447761Y3669284D01*
X38329516Y3564530D01*
X38239779Y3434522D01*
X38239778Y3434522D01*
X38183764Y3286823D01*
X38183761Y3286809D01*
X38164722Y3130004D01*
X38164722Y3129997D01*
X13690344Y3129997D01*
X13705444Y3370000D01*
X13685688Y3684015D01*
X13626731Y3993079D01*
X13626728Y3993086D01*
X13626727Y3993093D01*
X13529507Y4292305D01*
X13529505Y4292309D01*
X13529504Y4292310D01*
X13529503Y4292315D01*
X13395537Y4577007D01*
X13393780Y4579775D01*
X13226947Y4842663D01*
X13026393Y5085091D01*
X13026390Y5085094D01*
X12797030Y5300478D01*
X12690812Y5377650D01*
X12542489Y5485413D01*
X12541743Y5485823D01*
X12266766Y5636994D01*
X12266759Y5636997D01*
X11974239Y5752815D01*
X11974217Y5752822D01*
X11669473Y5831066D01*
X11669462Y5831068D01*
X11357325Y5870500D01*
X11357318Y5870500D01*
X11042682Y5870500D01*
X11042674Y5870500D01*
X10730537Y5831068D01*
X10730526Y5831066D01*
X10425782Y5752822D01*
X10425760Y5752815D01*
X10133240Y5636997D01*
X10133233Y5636994D01*
X9857510Y5485413D01*
X9602971Y5300479D01*
X9373606Y5085091D01*
X9173052Y4842663D01*
X9004463Y4577009D01*
X8870494Y4292309D01*
X8870492Y4292305D01*
X8773272Y3993093D01*
X8773268Y3993077D01*
X8714314Y3684029D01*
X8714311Y3684006D01*
X8694556Y3370001D01*
X8694556Y3370000D01*
X6289704Y3370000D01*
X6320500Y3494944D01*
X6320500Y3665056D01*
X6279790Y3830225D01*
X6200734Y3980852D01*
X6189889Y3993093D01*
X6166832Y4019119D01*
X6087929Y4108183D01*
X6035893Y4144101D01*
X6006584Y4185368D01*
X6010657Y4235823D01*
X6035893Y4265900D01*
X6087929Y4301817D01*
X6200734Y4429148D01*
X6279790Y4579775D01*
X6320500Y4744944D01*
X6320500Y4915056D01*
X6279790Y5080225D01*
X6200734Y5230852D01*
X6087929Y5358183D01*
X6035893Y5394101D01*
X6006584Y5435368D01*
X6010657Y5485823D01*
X6035893Y5515900D01*
X6087929Y5551817D01*
X6200734Y5679148D01*
X6279790Y5829775D01*
X6320500Y5994944D01*
X6320500Y6165056D01*
X6279846Y6329997D01*
X40064722Y6329997D01*
X40083761Y6173192D01*
X40083764Y6173178D01*
X40139778Y6025479D01*
X40173085Y5977226D01*
X40229517Y5895470D01*
X40347760Y5790717D01*
X40487635Y5717304D01*
X40641015Y5679500D01*
X40641019Y5679500D01*
X40798981Y5679500D01*
X40798985Y5679500D01*
X40952365Y5717304D01*
X41092240Y5790717D01*
X41210483Y5895470D01*
X41300220Y6025477D01*
X41356237Y6173182D01*
X41375278Y6330000D01*
X41356237Y6486818D01*
X41319693Y6583178D01*
X41300221Y6634522D01*
X41210483Y6764530D01*
X41192456Y6780500D01*
X41092240Y6869283D01*
X41080139Y6875634D01*
X40952366Y6942696D01*
X40798987Y6980500D01*
X40798985Y6980500D01*
X40641015Y6980500D01*
X40641012Y6980500D01*
X40487633Y6942696D01*
X40347761Y6869284D01*
X40229516Y6764530D01*
X40139779Y6634522D01*
X40139778Y6634522D01*
X40083764Y6486823D01*
X40083761Y6486809D01*
X40064722Y6330004D01*
X40064722Y6329997D01*
X6279846Y6329997D01*
X6279790Y6330225D01*
X6200734Y6480852D01*
X6155815Y6531555D01*
X6137233Y6578639D01*
X6153262Y6626653D01*
X6166158Y6639333D01*
X6247922Y6702074D01*
X6247923Y6702075D01*
X6344099Y6827413D01*
X6404556Y6973370D01*
X6420000Y7090679D01*
X6420000Y7205000D01*
X5587150Y7205000D01*
X5605495Y7232455D01*
X5624898Y7330000D01*
X5605495Y7427545D01*
X5587150Y7455000D01*
X6419999Y7455000D01*
X6419999Y7569322D01*
X6404556Y7686629D01*
X6404555Y7686633D01*
X6344099Y7832588D01*
X6247924Y7957925D01*
X6122587Y8054100D01*
X5976630Y8114557D01*
X5859321Y8130000D01*
X5495000Y8130000D01*
X5495000Y7547151D01*
X5467545Y7565495D01*
X5394624Y7580000D01*
X5345376Y7580000D01*
X5272455Y7565495D01*
X5245000Y7547151D01*
X5245000Y8130000D01*
X4880678Y8130000D01*
X4763371Y8114557D01*
X4763367Y8114556D01*
X4617412Y8054100D01*
X4492075Y7957925D01*
X4395900Y7832588D01*
X4335443Y7686631D01*
X4320000Y7569322D01*
X4320000Y7455000D01*
X120500Y7455000D01*
X120500Y8209997D01*
X16279355Y8209997D01*
X16299859Y8041129D01*
X16360181Y7882071D01*
X16374637Y7861129D01*
X16456817Y7742071D01*
X16584148Y7629266D01*
X16734775Y7550210D01*
X16899944Y7509500D01*
X16899948Y7509500D01*
X17070052Y7509500D01*
X17070056Y7509500D01*
X17235225Y7550210D01*
X17385852Y7629266D01*
X17513183Y7742071D01*
X17609818Y7882070D01*
X17670140Y8041128D01*
X17680931Y8130000D01*
X17690645Y8209997D01*
X17690645Y8210004D01*
X17670140Y8378872D01*
X17609818Y8537930D01*
X17513183Y8677929D01*
X17385856Y8790731D01*
X17385853Y8790733D01*
X17385852Y8790734D01*
X17235225Y8869790D01*
X17235222Y8869791D01*
X17070058Y8910500D01*
X17070056Y8910500D01*
X16899944Y8910500D01*
X16899941Y8910500D01*
X16734777Y8869791D01*
X16734775Y8869791D01*
X16734775Y8869790D01*
X16703131Y8853182D01*
X16584146Y8790733D01*
X16584143Y8790731D01*
X16456816Y8677929D01*
X16360181Y8537930D01*
X16299859Y8378872D01*
X16279355Y8210004D01*
X16279355Y8209997D01*
X120500Y8209997D01*
X120500Y9009997D01*
X19404722Y9009997D01*
X19423761Y8853192D01*
X19423764Y8853178D01*
X19479778Y8705479D01*
X19545178Y8610731D01*
X19569517Y8575470D01*
X19687760Y8470717D01*
X19815534Y8403655D01*
X19827564Y8397341D01*
X19827635Y8397304D01*
X19981015Y8359500D01*
X19981019Y8359500D01*
X20138981Y8359500D01*
X20138985Y8359500D01*
X20292365Y8397304D01*
X20432240Y8470717D01*
X20550483Y8575470D01*
X20588120Y8629997D01*
X30924355Y8629997D01*
X30944859Y8461129D01*
X31005181Y8302071D01*
X31101816Y8162072D01*
X31179571Y8093188D01*
X31203694Y8048687D01*
X31204500Y8037798D01*
X31204500Y7252607D01*
X31213177Y7225903D01*
X31215888Y7214611D01*
X31220280Y7186876D01*
X31233030Y7161854D01*
X31237474Y7151125D01*
X31246151Y7124418D01*
X31262655Y7101703D01*
X31268722Y7091804D01*
X31281472Y7066780D01*
X31305446Y7042806D01*
X31601472Y6746780D01*
X31696780Y6651472D01*
X31721806Y6638721D01*
X31731693Y6632662D01*
X31754419Y6616151D01*
X31754420Y6616151D01*
X31754421Y6616150D01*
X31781123Y6607474D01*
X31791853Y6603030D01*
X31803657Y6597016D01*
X31816874Y6590281D01*
X31844596Y6585891D01*
X31844603Y6585890D01*
X31855898Y6583179D01*
X31882607Y6574500D01*
X36517391Y6574500D01*
X36517393Y6574500D01*
X36544108Y6583182D01*
X36555374Y6585887D01*
X36583126Y6590281D01*
X36608156Y6603036D01*
X36618873Y6607474D01*
X36645581Y6616151D01*
X36668294Y6632654D01*
X36678199Y6638724D01*
X36682613Y6640974D01*
X36703220Y6651472D01*
X36798528Y6746780D01*
X37634574Y7582826D01*
X37680450Y7604218D01*
X37686900Y7604500D01*
X37723692Y7604500D01*
X37771258Y7587187D01*
X37784591Y7572539D01*
X37791817Y7562071D01*
X37851158Y7509500D01*
X37912675Y7455000D01*
X37919148Y7449266D01*
X38069775Y7370210D01*
X38234944Y7329500D01*
X38234948Y7329500D01*
X38405052Y7329500D01*
X38405056Y7329500D01*
X38570225Y7370210D01*
X38720852Y7449266D01*
X38848183Y7562071D01*
X38944818Y7702070D01*
X39005140Y7861128D01*
X39010266Y7903346D01*
X39025645Y8029997D01*
X39025645Y8030004D01*
X39005140Y8198872D01*
X38944818Y8357930D01*
X38848183Y8497929D01*
X38720856Y8610731D01*
X38720853Y8610733D01*
X38720852Y8610734D01*
X38570225Y8689790D01*
X38570222Y8689791D01*
X38405058Y8730500D01*
X38405056Y8730500D01*
X38234944Y8730500D01*
X38234941Y8730500D01*
X38069777Y8689791D01*
X37919146Y8610733D01*
X37919143Y8610731D01*
X37791817Y8497929D01*
X37784593Y8487463D01*
X37743324Y8458152D01*
X37723692Y8455500D01*
X37547393Y8455500D01*
X37412607Y8455500D01*
X37398165Y8450808D01*
X37385901Y8446823D01*
X37374613Y8444113D01*
X37346872Y8439719D01*
X37346870Y8439719D01*
X37321848Y8426969D01*
X37311124Y8422527D01*
X37284421Y8413850D01*
X37284415Y8413847D01*
X37261696Y8397341D01*
X37251799Y8391276D01*
X37226779Y8378528D01*
X36295426Y7447174D01*
X36249550Y7425782D01*
X36243100Y7425500D01*
X32156900Y7425500D01*
X32109334Y7442813D01*
X32104574Y7447174D01*
X32077174Y7474574D01*
X32055782Y7520450D01*
X32055500Y7526900D01*
X32055500Y8037798D01*
X32072813Y8085364D01*
X32080429Y8093188D01*
X32158183Y8162071D01*
X32254818Y8302070D01*
X32315140Y8461128D01*
X32329024Y8575471D01*
X32335645Y8629997D01*
X32335645Y8630004D01*
X32315140Y8798872D01*
X32254818Y8957930D01*
X32158183Y9097929D01*
X32030856Y9210731D01*
X32030853Y9210733D01*
X32030852Y9210734D01*
X31880225Y9289790D01*
X31880222Y9289791D01*
X31715058Y9330500D01*
X31715056Y9330500D01*
X31544944Y9330500D01*
X31544941Y9330500D01*
X31379777Y9289791D01*
X31229146Y9210733D01*
X31229143Y9210731D01*
X31101816Y9097929D01*
X31005181Y8957930D01*
X30944859Y8798872D01*
X30924355Y8630004D01*
X30924355Y8629997D01*
X20588120Y8629997D01*
X20640220Y8705477D01*
X20644706Y8717304D01*
X20672549Y8790721D01*
X20696237Y8853182D01*
X20711575Y8979501D01*
X20715278Y9009997D01*
X20715278Y9010004D01*
X20696238Y9166809D01*
X20696237Y9166818D01*
X20678027Y9214834D01*
X20640221Y9314522D01*
X20629539Y9329997D01*
X24014722Y9329997D01*
X24033761Y9173192D01*
X24033764Y9173178D01*
X24089778Y9025479D01*
X24179516Y8895471D01*
X24179517Y8895470D01*
X24297760Y8790717D01*
X24437635Y8717304D01*
X24591015Y8679500D01*
X24591019Y8679500D01*
X24748981Y8679500D01*
X24748985Y8679500D01*
X24902365Y8717304D01*
X25042240Y8790717D01*
X25098353Y8840430D01*
X25145437Y8859012D01*
X25193451Y8842983D01*
X25196494Y8840430D01*
X25297760Y8750717D01*
X25437635Y8677304D01*
X25591015Y8639500D01*
X25591019Y8639500D01*
X25748981Y8639500D01*
X25748985Y8639500D01*
X25902365Y8677304D01*
X26042240Y8750717D01*
X26160483Y8855470D01*
X26250220Y8985477D01*
X26291757Y9095003D01*
X26324811Y9133339D01*
X26374775Y9141459D01*
X26410018Y9124153D01*
X26447761Y9090716D01*
X26572059Y9025479D01*
X26587635Y9017304D01*
X26741015Y8979500D01*
X26741019Y8979500D01*
X26898981Y8979500D01*
X26898985Y8979500D01*
X27052365Y9017304D01*
X27192240Y9090717D01*
X27310483Y9195470D01*
X27400220Y9325477D01*
X27401936Y9330000D01*
X27435045Y9417304D01*
X27456237Y9473182D01*
X27465477Y9549284D01*
X27475278Y9629997D01*
X27475278Y9630004D01*
X27456238Y9786809D01*
X27456237Y9786818D01*
X27440132Y9829284D01*
X27401937Y9929997D01*
X29964722Y9929997D01*
X29983761Y9773192D01*
X29983764Y9773178D01*
X30039778Y9625479D01*
X30129516Y9495471D01*
X30129517Y9495470D01*
X30247760Y9390717D01*
X30387635Y9317304D01*
X30541015Y9279500D01*
X30541019Y9279500D01*
X30698981Y9279500D01*
X30698985Y9279500D01*
X30852365Y9317304D01*
X30992240Y9390717D01*
X31110483Y9495470D01*
X31200220Y9625477D01*
X31201936Y9630000D01*
X31238145Y9725477D01*
X31256237Y9773182D01*
X31275278Y9929997D01*
X33964722Y9929997D01*
X33983761Y9773192D01*
X33983764Y9773178D01*
X34039778Y9625479D01*
X34129516Y9495471D01*
X34129517Y9495470D01*
X34247760Y9390717D01*
X34387635Y9317304D01*
X34541015Y9279500D01*
X34541019Y9279500D01*
X34698981Y9279500D01*
X34698985Y9279500D01*
X34852365Y9317304D01*
X34992240Y9390717D01*
X35110483Y9495470D01*
X35200220Y9625477D01*
X35201936Y9630000D01*
X35238145Y9725477D01*
X35256237Y9773182D01*
X35275278Y9930000D01*
X35274003Y9940500D01*
X35256238Y10086809D01*
X35256237Y10086818D01*
X35244858Y10116823D01*
X35200221Y10234522D01*
X35110483Y10364530D01*
X34992240Y10469283D01*
X34935079Y10499284D01*
X34852366Y10542696D01*
X34698987Y10580500D01*
X34698985Y10580500D01*
X34541015Y10580500D01*
X34541012Y10580500D01*
X34387633Y10542696D01*
X34247761Y10469284D01*
X34129516Y10364530D01*
X34039779Y10234522D01*
X34039778Y10234522D01*
X33983764Y10086823D01*
X33983761Y10086809D01*
X33964722Y9930004D01*
X33964722Y9929997D01*
X31275278Y9929997D01*
X31275278Y9930000D01*
X31274003Y9940500D01*
X31256238Y10086809D01*
X31256237Y10086818D01*
X31244858Y10116823D01*
X31200221Y10234522D01*
X31110483Y10364530D01*
X30992240Y10469283D01*
X30935079Y10499284D01*
X30852366Y10542696D01*
X30698987Y10580500D01*
X30698985Y10580500D01*
X30541015Y10580500D01*
X30541012Y10580500D01*
X30387633Y10542696D01*
X30247761Y10469284D01*
X30129516Y10364530D01*
X30039779Y10234522D01*
X30039778Y10234522D01*
X29983764Y10086823D01*
X29983761Y10086809D01*
X29964722Y9930004D01*
X29964722Y9929997D01*
X27401937Y9929997D01*
X27400221Y9934522D01*
X27310483Y10064530D01*
X27285319Y10086823D01*
X27192240Y10169283D01*
X27180139Y10175634D01*
X27052366Y10242696D01*
X26898987Y10280500D01*
X26898985Y10280500D01*
X26741015Y10280500D01*
X26741012Y10280500D01*
X26587633Y10242696D01*
X26447761Y10169284D01*
X26329516Y10064530D01*
X26239779Y9934523D01*
X26198242Y9824997D01*
X26165187Y9786661D01*
X26115224Y9778541D01*
X26079981Y9795848D01*
X26042240Y9829283D01*
X26030139Y9835634D01*
X25902366Y9902696D01*
X25748987Y9940500D01*
X25748985Y9940500D01*
X25591015Y9940500D01*
X25591012Y9940500D01*
X25437633Y9902696D01*
X25297761Y9829284D01*
X25241645Y9779571D01*
X25194560Y9760989D01*
X25146546Y9777019D01*
X25143504Y9779572D01*
X25087390Y9829284D01*
X25042240Y9869283D01*
X24926561Y9929997D01*
X24902366Y9942696D01*
X24748987Y9980500D01*
X24748985Y9980500D01*
X24591015Y9980500D01*
X24591012Y9980500D01*
X24437633Y9942696D01*
X24297761Y9869284D01*
X24179516Y9764530D01*
X24089779Y9634522D01*
X24089778Y9634522D01*
X24033764Y9486823D01*
X24033761Y9486809D01*
X24014722Y9330004D01*
X24014722Y9329997D01*
X20629539Y9329997D01*
X20550483Y9444530D01*
X20432240Y9549283D01*
X20420139Y9555634D01*
X20292366Y9622696D01*
X20138987Y9660500D01*
X20138985Y9660500D01*
X19981015Y9660500D01*
X19981012Y9660500D01*
X19827633Y9622696D01*
X19687761Y9549284D01*
X19569516Y9444530D01*
X19479779Y9314522D01*
X19479778Y9314522D01*
X19423764Y9166823D01*
X19423761Y9166809D01*
X19404722Y9010004D01*
X19404722Y9009997D01*
X120500Y9009997D01*
X120500Y10029997D01*
X2819722Y10029997D01*
X2838761Y9873192D01*
X2838764Y9873178D01*
X2894778Y9725479D01*
X2965724Y9622696D01*
X2984517Y9595470D01*
X3102760Y9490717D01*
X3242635Y9417304D01*
X3396015Y9379500D01*
X3396019Y9379500D01*
X3553981Y9379500D01*
X3553985Y9379500D01*
X3707365Y9417304D01*
X3847240Y9490717D01*
X3965483Y9595470D01*
X4055220Y9725477D01*
X4111237Y9873182D01*
X4119411Y9940500D01*
X4121778Y9959997D01*
X8374722Y9959997D01*
X8393761Y9803192D01*
X8393764Y9803178D01*
X8449778Y9655479D01*
X8523079Y9549284D01*
X8539517Y9525470D01*
X8657760Y9420717D01*
X8797635Y9347304D01*
X8951015Y9309500D01*
X8951019Y9309500D01*
X9108981Y9309500D01*
X9108985Y9309500D01*
X9262365Y9347304D01*
X9402240Y9420717D01*
X9520483Y9525470D01*
X9610220Y9655477D01*
X9666237Y9803182D01*
X9674736Y9873178D01*
X9685278Y9959997D01*
X9685278Y9960004D01*
X9666238Y10116809D01*
X9666237Y10116818D01*
X9621598Y10234522D01*
X9610221Y10264522D01*
X9520483Y10394530D01*
X9436102Y10469284D01*
X9402240Y10499283D01*
X9390139Y10505634D01*
X9262366Y10572696D01*
X9108987Y10610500D01*
X9108985Y10610500D01*
X8951015Y10610500D01*
X8951012Y10610500D01*
X8797633Y10572696D01*
X8657761Y10499284D01*
X8539516Y10394530D01*
X8449779Y10264522D01*
X8449778Y10264522D01*
X8393764Y10116823D01*
X8393761Y10116809D01*
X8374722Y9960004D01*
X8374722Y9959997D01*
X4121778Y9959997D01*
X4130278Y10029997D01*
X4130278Y10030004D01*
X4111238Y10186809D01*
X4111237Y10186818D01*
X4081768Y10264522D01*
X4055221Y10334522D01*
X3965483Y10464530D01*
X3960117Y10469284D01*
X3847240Y10569283D01*
X3768709Y10610500D01*
X3707366Y10642696D01*
X3553987Y10680500D01*
X3553985Y10680500D01*
X3396015Y10680500D01*
X3396012Y10680500D01*
X3242633Y10642696D01*
X3102761Y10569284D01*
X2984516Y10464530D01*
X2894779Y10334522D01*
X2894778Y10334522D01*
X2838764Y10186823D01*
X2838761Y10186809D01*
X2819722Y10030004D01*
X2819722Y10029997D01*
X120500Y10029997D01*
X120500Y11860000D01*
X1429435Y11860000D01*
X1448111Y11694240D01*
X1449632Y11680746D01*
X1449634Y11680737D01*
X1509209Y11510480D01*
X1580547Y11396946D01*
X1605184Y11357738D01*
X1732738Y11230184D01*
X1828712Y11169880D01*
X1885479Y11134210D01*
X2055736Y11074635D01*
X2055745Y11074632D01*
X2190046Y11059500D01*
X2190050Y11059500D01*
X3079950Y11059500D01*
X3079954Y11059500D01*
X3214255Y11074632D01*
X3282481Y11098506D01*
X3384520Y11134210D01*
X3384522Y11134211D01*
X3537262Y11230184D01*
X3664816Y11357738D01*
X3760789Y11510478D01*
X3760791Y11510482D01*
X3820365Y11680737D01*
X3820368Y11680745D01*
X3840565Y11860000D01*
X5459435Y11860000D01*
X5478111Y11694240D01*
X5479632Y11680746D01*
X5479634Y11680737D01*
X5539209Y11510480D01*
X5610547Y11396946D01*
X5635184Y11357738D01*
X5762738Y11230184D01*
X5858712Y11169880D01*
X5915479Y11134210D01*
X6085736Y11074635D01*
X6085745Y11074632D01*
X6220046Y11059500D01*
X6220050Y11059500D01*
X7409950Y11059500D01*
X7409954Y11059500D01*
X7544255Y11074632D01*
X7612481Y11098506D01*
X7714520Y11134210D01*
X7714522Y11134211D01*
X7867262Y11230184D01*
X7994816Y11357738D01*
X8090789Y11510478D01*
X8127855Y11616406D01*
X8159906Y11655585D01*
X8209642Y11664996D01*
X8253792Y11640236D01*
X8271696Y11592889D01*
X8271162Y11583047D01*
X8264723Y11530004D01*
X8264722Y11529997D01*
X8283761Y11373192D01*
X8283764Y11373178D01*
X8339778Y11225479D01*
X8429516Y11095471D01*
X8429517Y11095470D01*
X8547760Y10990717D01*
X8687635Y10917304D01*
X8841015Y10879500D01*
X8841019Y10879500D01*
X8998981Y10879500D01*
X8998985Y10879500D01*
X9152365Y10917304D01*
X9292240Y10990717D01*
X9410483Y11095470D01*
X9500220Y11225477D01*
X9556237Y11373182D01*
X9575278Y11530000D01*
X9569911Y11574200D01*
X9558887Y11664996D01*
X9556237Y11686818D01*
X9544253Y11718418D01*
X9500221Y11834522D01*
X9410483Y11964530D01*
X9338154Y12028607D01*
X9292240Y12069283D01*
X9280139Y12075634D01*
X9152366Y12142696D01*
X8998987Y12180500D01*
X8998985Y12180500D01*
X8841015Y12180500D01*
X8841012Y12180500D01*
X8687633Y12142696D01*
X8547761Y12069284D01*
X8429516Y11964530D01*
X8339779Y11834523D01*
X8303544Y11738978D01*
X8270489Y11700642D01*
X8220526Y11692522D01*
X8177032Y11718418D01*
X8160360Y11766213D01*
X8160816Y11773477D01*
X8170565Y11860000D01*
X8150368Y12039255D01*
X8139861Y12069283D01*
X8090790Y12209521D01*
X8042889Y12285754D01*
X7994816Y12362262D01*
X7867262Y12489816D01*
X7814194Y12523161D01*
X7714520Y12585791D01*
X7544263Y12645366D01*
X7544256Y12645368D01*
X7544255Y12645368D01*
X7409954Y12660500D01*
X6674405Y12660500D01*
X6626839Y12677813D01*
X6601529Y12721650D01*
X6610319Y12771500D01*
X6629356Y12793208D01*
X6640690Y12801905D01*
X6732583Y12872417D01*
X6826433Y12994724D01*
X6885429Y13137154D01*
X6905552Y13290000D01*
X6885429Y13442846D01*
X6826433Y13585276D01*
X6732583Y13707583D01*
X6610276Y13801433D01*
X6610275Y13801434D01*
X6467845Y13860430D01*
X6380006Y13871994D01*
X6353373Y13875500D01*
X6276627Y13875500D01*
X6252769Y13872359D01*
X6162154Y13860430D01*
X6019724Y13801434D01*
X5897417Y13707583D01*
X5803566Y13585276D01*
X5744570Y13442846D01*
X5724448Y13290000D01*
X5744570Y13137155D01*
X5803566Y12994725D01*
X5803567Y12994724D01*
X5897417Y12872417D01*
X5950002Y12832067D01*
X6019722Y12778568D01*
X6019723Y12778568D01*
X6019724Y12778567D01*
X6045168Y12768028D01*
X6082488Y12733832D01*
X6089096Y12683646D01*
X6061900Y12640954D01*
X6041291Y12629814D01*
X5915479Y12585791D01*
X5762739Y12489817D01*
X5635183Y12362261D01*
X5539209Y12209521D01*
X5479634Y12039264D01*
X5479632Y12039255D01*
X5459435Y11860000D01*
X3840565Y11860000D01*
X3820368Y12039255D01*
X3809861Y12069283D01*
X3760790Y12209521D01*
X3712889Y12285754D01*
X3664816Y12362262D01*
X3537262Y12489816D01*
X3484194Y12523161D01*
X3384520Y12585791D01*
X3214263Y12645366D01*
X3214256Y12645368D01*
X3214255Y12645368D01*
X3079954Y12660500D01*
X2190046Y12660500D01*
X2055745Y12645368D01*
X2055736Y12645366D01*
X1885479Y12585791D01*
X1732739Y12489817D01*
X1605183Y12362261D01*
X1509209Y12209521D01*
X1449634Y12039264D01*
X1449632Y12039255D01*
X1429435Y11860000D01*
X120500Y11860000D01*
X120500Y14499997D01*
X8794722Y14499997D01*
X8813761Y14343192D01*
X8813764Y14343178D01*
X8869778Y14195479D01*
X8959516Y14065471D01*
X8959517Y14065470D01*
X9077760Y13960717D01*
X9217635Y13887304D01*
X9371015Y13849500D01*
X9371019Y13849500D01*
X9528981Y13849500D01*
X9528985Y13849500D01*
X9682365Y13887304D01*
X9822240Y13960717D01*
X9940483Y14065470D01*
X9974684Y14115019D01*
X14516050Y14115019D01*
X14536793Y13990717D01*
X14555351Y13879501D01*
X14555547Y13878331D01*
X14565445Y13849500D01*
X14633462Y13651371D01*
X14669231Y13585276D01*
X14747671Y13440332D01*
X14895058Y13250969D01*
X15071603Y13088448D01*
X15172046Y13022825D01*
X15272491Y12957201D01*
X15489758Y12861899D01*
X15526364Y12826938D01*
X15531932Y12776626D01*
X15520934Y12752095D01*
X15439779Y12634522D01*
X15439778Y12634522D01*
X15383764Y12486823D01*
X15383761Y12486809D01*
X15364722Y12330004D01*
X15364722Y12329997D01*
X15383761Y12173192D01*
X15383764Y12173178D01*
X15439778Y12025479D01*
X15529516Y11895471D01*
X15529517Y11895470D01*
X15647760Y11790717D01*
X15787635Y11717304D01*
X15941015Y11679500D01*
X15941019Y11679500D01*
X16098981Y11679500D01*
X16098985Y11679500D01*
X16252365Y11717304D01*
X16392240Y11790717D01*
X16510483Y11895470D01*
X16600220Y12025477D01*
X16627149Y12096485D01*
X16660203Y12134820D01*
X16710166Y12142941D01*
X16753660Y12117046D01*
X16764288Y12099554D01*
X16829001Y11949529D01*
X16829002Y11949528D01*
X16934509Y11807808D01*
X16934515Y11807803D01*
X17069849Y11694243D01*
X17069852Y11694242D01*
X17069854Y11694240D01*
X17227741Y11614946D01*
X17399660Y11574200D01*
X17532019Y11574200D01*
X17663486Y11589566D01*
X17829511Y11649995D01*
X17838011Y11655585D01*
X17853109Y11665516D01*
X17977126Y11747082D01*
X18098372Y11875595D01*
X18186712Y12028605D01*
X18237385Y12197863D01*
X18242504Y12285754D01*
X18760342Y12285754D01*
X18791023Y12111759D01*
X18861001Y11949529D01*
X18861002Y11949528D01*
X18966509Y11807808D01*
X18966515Y11807803D01*
X19101849Y11694243D01*
X19101852Y11694242D01*
X19101854Y11694240D01*
X19259741Y11614946D01*
X19431660Y11574200D01*
X19564019Y11574200D01*
X19695486Y11589566D01*
X19861511Y11649995D01*
X19870011Y11655585D01*
X19885109Y11665516D01*
X20009126Y11747082D01*
X20130372Y11875595D01*
X20218712Y12028605D01*
X20269385Y12197863D01*
X20279658Y12374245D01*
X20248977Y12548241D01*
X20178998Y12710472D01*
X20073491Y12852192D01*
X20071189Y12854124D01*
X19938150Y12965758D01*
X19780260Y13045054D01*
X19780256Y13045055D01*
X19608340Y13085800D01*
X19475981Y13085800D01*
X19344511Y13070434D01*
X19178487Y13010005D01*
X19178486Y13010005D01*
X19030874Y12912918D01*
X18909626Y12784403D01*
X18821288Y12631396D01*
X18821287Y12631394D01*
X18770615Y12462140D01*
X18770615Y12462137D01*
X18760342Y12285754D01*
X18242504Y12285754D01*
X18247658Y12374245D01*
X18216977Y12548241D01*
X18146998Y12710472D01*
X18041491Y12852192D01*
X18039189Y12854124D01*
X17906150Y12965758D01*
X17748260Y13045054D01*
X17748256Y13045055D01*
X17576340Y13085800D01*
X17443981Y13085800D01*
X17312511Y13070434D01*
X17146487Y13010005D01*
X17146486Y13010005D01*
X16998874Y12912918D01*
X16877626Y12784403D01*
X16789288Y12631396D01*
X16789287Y12631394D01*
X16769040Y12563763D01*
X16738812Y12523161D01*
X16689558Y12511487D01*
X16644323Y12534205D01*
X16628958Y12558747D01*
X16618702Y12585789D01*
X16600220Y12634523D01*
X16510483Y12764530D01*
X16506533Y12768029D01*
X16499623Y12774151D01*
X16475498Y12818651D01*
X16485621Y12868247D01*
X16518967Y12897309D01*
X16655508Y12957201D01*
X16655510Y12957202D01*
X16856397Y13088448D01*
X17032942Y13250969D01*
X17180329Y13440332D01*
X17294538Y13651372D01*
X17372453Y13878331D01*
X17411950Y14115019D01*
X19596050Y14115019D01*
X19616793Y13990717D01*
X19635351Y13879501D01*
X19635547Y13878331D01*
X19645445Y13849500D01*
X19713462Y13651371D01*
X19749231Y13585276D01*
X19827671Y13440332D01*
X19975058Y13250969D01*
X20151603Y13088448D01*
X20252046Y13022825D01*
X20352491Y12957201D01*
X20572231Y12860814D01*
X20572236Y12860813D01*
X20572240Y12860811D01*
X20804859Y12801904D01*
X20939490Y12790749D01*
X20984114Y12787050D01*
X20984118Y12787050D01*
X21103886Y12787050D01*
X21145895Y12790532D01*
X21283141Y12801904D01*
X21515760Y12860811D01*
X21515765Y12860814D01*
X21515768Y12860814D01*
X21735508Y12957201D01*
X21735510Y12957202D01*
X21936397Y13088448D01*
X22112942Y13250969D01*
X22252285Y13429997D01*
X24064722Y13429997D01*
X24083761Y13273192D01*
X24083764Y13273178D01*
X24139778Y13125479D01*
X24219484Y13010005D01*
X24229517Y12995470D01*
X24347760Y12890717D01*
X24459507Y12832067D01*
X24485068Y12818651D01*
X24487635Y12817304D01*
X24641015Y12779500D01*
X24641019Y12779500D01*
X24798981Y12779500D01*
X24798985Y12779500D01*
X24952365Y12817304D01*
X25092240Y12890717D01*
X25210483Y12995470D01*
X25300220Y13125477D01*
X25304649Y13137154D01*
X25347812Y13250968D01*
X25356237Y13273182D01*
X25375278Y13430000D01*
X25374023Y13440332D01*
X25356238Y13586809D01*
X25356237Y13586818D01*
X25332833Y13648530D01*
X25300221Y13734522D01*
X25210483Y13864530D01*
X25184775Y13887305D01*
X25092240Y13969283D01*
X25080139Y13975634D01*
X24952366Y14042696D01*
X24798987Y14080500D01*
X24798985Y14080500D01*
X24641015Y14080500D01*
X24641012Y14080500D01*
X24487633Y14042696D01*
X24347761Y13969284D01*
X24229516Y13864530D01*
X24139779Y13734522D01*
X24139778Y13734522D01*
X24083764Y13586823D01*
X24083761Y13586809D01*
X24064722Y13430004D01*
X24064722Y13429997D01*
X22252285Y13429997D01*
X22260329Y13440332D01*
X22374538Y13651372D01*
X22452453Y13878331D01*
X22491950Y14115019D01*
X22491950Y14354981D01*
X22479432Y14429997D01*
X28164722Y14429997D01*
X28183761Y14273192D01*
X28183764Y14273178D01*
X28239778Y14125479D01*
X28296919Y14042696D01*
X28329517Y13995470D01*
X28447760Y13890717D01*
X28587635Y13817304D01*
X28741015Y13779500D01*
X28741019Y13779500D01*
X28898981Y13779500D01*
X28898985Y13779500D01*
X29052365Y13817304D01*
X29192240Y13890717D01*
X29310483Y13995470D01*
X29400220Y14125477D01*
X29406567Y14142211D01*
X29438145Y14225477D01*
X29456237Y14273182D01*
X29464736Y14343178D01*
X29475278Y14429997D01*
X29475278Y14430004D01*
X29456238Y14586809D01*
X29456237Y14586818D01*
X29429688Y14656823D01*
X29416883Y14690587D01*
X29416203Y14741201D01*
X29448217Y14780411D01*
X29497945Y14789869D01*
X29503775Y14788679D01*
X29541015Y14779500D01*
X29541019Y14779500D01*
X29698981Y14779500D01*
X29698985Y14779500D01*
X29852365Y14817304D01*
X29905430Y14845156D01*
X29955592Y14851932D01*
X29998375Y14824878D01*
X30013759Y14776654D01*
X30009010Y14753392D01*
X29983763Y14686818D01*
X29983763Y14686816D01*
X29983761Y14686809D01*
X29964722Y14530004D01*
X29964722Y14529997D01*
X29983761Y14373192D01*
X29983764Y14373178D01*
X30039778Y14225479D01*
X30116023Y14115019D01*
X30129517Y14095470D01*
X30247760Y13990717D01*
X30387635Y13917304D01*
X30541015Y13879500D01*
X30541019Y13879500D01*
X30698981Y13879500D01*
X30698985Y13879500D01*
X30852365Y13917304D01*
X30992240Y13990717D01*
X31110483Y14095470D01*
X31200220Y14225477D01*
X31256237Y14373182D01*
X31269146Y14479500D01*
X31275278Y14529997D01*
X32464722Y14529997D01*
X32483761Y14373192D01*
X32483764Y14373178D01*
X32539778Y14225479D01*
X32616023Y14115019D01*
X32629517Y14095470D01*
X32747760Y13990717D01*
X32887635Y13917304D01*
X33041015Y13879500D01*
X33041019Y13879500D01*
X33198981Y13879500D01*
X33198985Y13879500D01*
X33352365Y13917304D01*
X33492240Y13990717D01*
X33610483Y14095470D01*
X33700220Y14225477D01*
X33756237Y14373182D01*
X33769146Y14479500D01*
X33775278Y14529997D01*
X33775278Y14530004D01*
X33756238Y14686809D01*
X33756237Y14686818D01*
X33749343Y14704997D01*
X39204722Y14704997D01*
X39223761Y14548192D01*
X39223764Y14548178D01*
X39279778Y14400479D01*
X39369516Y14270471D01*
X39369517Y14270470D01*
X39487760Y14165717D01*
X39627635Y14092304D01*
X39781015Y14054500D01*
X39781019Y14054500D01*
X39938981Y14054500D01*
X39938985Y14054500D01*
X40092365Y14092304D01*
X40232240Y14165717D01*
X40350483Y14270470D01*
X40370194Y14299026D01*
X47468423Y14299026D01*
X47487462Y14142221D01*
X47487465Y14142207D01*
X47543479Y13994508D01*
X47633217Y13864500D01*
X47633218Y13864499D01*
X47751461Y13759746D01*
X47891336Y13686333D01*
X48044716Y13648529D01*
X48044720Y13648529D01*
X48202682Y13648529D01*
X48202686Y13648529D01*
X48356066Y13686333D01*
X48495941Y13759746D01*
X48614184Y13864499D01*
X48703921Y13994506D01*
X48759938Y14142211D01*
X48770048Y14225477D01*
X48778979Y14299026D01*
X48778979Y14299033D01*
X48759939Y14455838D01*
X48759938Y14455847D01*
X48743193Y14500000D01*
X48703922Y14603551D01*
X48614184Y14733559D01*
X48565539Y14776654D01*
X48495941Y14838312D01*
X48451145Y14861823D01*
X48356067Y14911725D01*
X48202688Y14949529D01*
X48202686Y14949529D01*
X48044716Y14949529D01*
X48044713Y14949529D01*
X47891334Y14911725D01*
X47751462Y14838313D01*
X47633217Y14733559D01*
X47543480Y14603551D01*
X47543479Y14603551D01*
X47487465Y14455852D01*
X47487462Y14455838D01*
X47468423Y14299033D01*
X47468423Y14299026D01*
X40370194Y14299026D01*
X40440220Y14400477D01*
X40451416Y14429997D01*
X40477964Y14500000D01*
X40496237Y14548182D01*
X40509428Y14656823D01*
X40515278Y14704997D01*
X40515278Y14705004D01*
X40497437Y14851932D01*
X40496237Y14861818D01*
X40454004Y14973178D01*
X40440221Y15009522D01*
X40350483Y15139530D01*
X40338100Y15150500D01*
X40232240Y15244283D01*
X40177186Y15273178D01*
X40092366Y15317696D01*
X39938987Y15355500D01*
X39938985Y15355500D01*
X39781015Y15355500D01*
X39781012Y15355500D01*
X39627633Y15317696D01*
X39487761Y15244284D01*
X39369516Y15139530D01*
X39279779Y15009522D01*
X39279778Y15009522D01*
X39223764Y14861823D01*
X39223761Y14861809D01*
X39204722Y14705004D01*
X39204722Y14704997D01*
X33749343Y14704997D01*
X33722167Y14776654D01*
X33700221Y14834522D01*
X33610483Y14964530D01*
X33600717Y14973182D01*
X33492240Y15069283D01*
X33470868Y15080500D01*
X33352366Y15142696D01*
X33198987Y15180500D01*
X33198985Y15180500D01*
X33041015Y15180500D01*
X33041012Y15180500D01*
X32887633Y15142696D01*
X32747761Y15069284D01*
X32629516Y14964530D01*
X32539779Y14834522D01*
X32539778Y14834522D01*
X32483764Y14686823D01*
X32483761Y14686809D01*
X32464722Y14530004D01*
X32464722Y14529997D01*
X31275278Y14529997D01*
X31275278Y14530004D01*
X31256238Y14686809D01*
X31256237Y14686818D01*
X31222167Y14776654D01*
X31200221Y14834522D01*
X31110483Y14964530D01*
X31100717Y14973182D01*
X30992240Y15069283D01*
X30970868Y15080500D01*
X30852366Y15142696D01*
X30698987Y15180500D01*
X30698985Y15180500D01*
X30541015Y15180500D01*
X30541012Y15180500D01*
X30387635Y15142697D01*
X30334569Y15114845D01*
X30284406Y15108070D01*
X30241623Y15135124D01*
X30226240Y15183349D01*
X30230988Y15206607D01*
X30256237Y15273182D01*
X30266232Y15355500D01*
X30275278Y15429997D01*
X31164722Y15429997D01*
X31183761Y15273192D01*
X31183764Y15273178D01*
X31239778Y15125479D01*
X31322229Y15006028D01*
X31329517Y14995470D01*
X31447760Y14890717D01*
X31554829Y14834522D01*
X31585108Y14818630D01*
X31587635Y14817304D01*
X31741015Y14779500D01*
X31741019Y14779500D01*
X31898981Y14779500D01*
X31898985Y14779500D01*
X32052365Y14817304D01*
X32192240Y14890717D01*
X32310483Y14995470D01*
X32400220Y15125477D01*
X32401936Y15130000D01*
X32422168Y15183349D01*
X32456237Y15273182D01*
X32466232Y15355500D01*
X32475278Y15429997D01*
X32475278Y15430004D01*
X32458943Y15564530D01*
X32456237Y15586818D01*
X32444675Y15617305D01*
X32400221Y15734522D01*
X32310483Y15864530D01*
X32293584Y15879501D01*
X32192240Y15969283D01*
X32177718Y15976905D01*
X32052366Y16042696D01*
X31898987Y16080500D01*
X31898985Y16080500D01*
X31741015Y16080500D01*
X31741012Y16080500D01*
X31587633Y16042696D01*
X31447761Y15969284D01*
X31329516Y15864530D01*
X31239779Y15734522D01*
X31239778Y15734522D01*
X31183764Y15586823D01*
X31183761Y15586809D01*
X31164722Y15430004D01*
X31164722Y15429997D01*
X30275278Y15429997D01*
X30275278Y15430004D01*
X30258943Y15564530D01*
X30256237Y15586818D01*
X30244675Y15617305D01*
X30200221Y15734522D01*
X30110483Y15864530D01*
X30093584Y15879501D01*
X29992240Y15969283D01*
X29977718Y15976905D01*
X29852366Y16042696D01*
X29698987Y16080500D01*
X29698985Y16080500D01*
X29541015Y16080500D01*
X29541011Y16080500D01*
X29541010Y16080499D01*
X29503782Y16071324D01*
X29453454Y16076751D01*
X29418390Y16113259D01*
X29414996Y16163764D01*
X29416883Y16169415D01*
X29456237Y16273182D01*
X29470035Y16386818D01*
X29475278Y16429997D01*
X29475278Y16430004D01*
X29456238Y16586809D01*
X29456237Y16586818D01*
X29445420Y16615340D01*
X29400221Y16734522D01*
X29323278Y16845993D01*
X29310506Y16894974D01*
X29332206Y16940706D01*
X29378225Y16961790D01*
X29418569Y16953553D01*
X29487635Y16917304D01*
X29641015Y16879500D01*
X29641019Y16879500D01*
X29798981Y16879500D01*
X29798985Y16879500D01*
X29946529Y16915866D01*
X29996854Y16910439D01*
X30031919Y16873933D01*
X30035314Y16823428D01*
X30033428Y16817776D01*
X30015038Y16769284D01*
X29983763Y16686818D01*
X29983763Y16686816D01*
X29983761Y16686809D01*
X29964722Y16530004D01*
X29964722Y16529997D01*
X29983761Y16373192D01*
X29983764Y16373178D01*
X30039778Y16225479D01*
X30117238Y16113259D01*
X30129517Y16095470D01*
X30247760Y15990717D01*
X30387635Y15917304D01*
X30541015Y15879500D01*
X30541019Y15879500D01*
X30698981Y15879500D01*
X30698985Y15879500D01*
X30852365Y15917304D01*
X30992240Y15990717D01*
X31110483Y16095470D01*
X31200220Y16225477D01*
X31201936Y16230000D01*
X31231065Y16306809D01*
X31256237Y16373182D01*
X31275278Y16529997D01*
X32564722Y16529997D01*
X32583761Y16373192D01*
X32583764Y16373178D01*
X32639778Y16225479D01*
X32717238Y16113259D01*
X32729517Y16095470D01*
X32847760Y15990717D01*
X32987635Y15917304D01*
X33141015Y15879500D01*
X33141019Y15879500D01*
X33298981Y15879500D01*
X33298985Y15879500D01*
X33452365Y15917304D01*
X33592240Y15990717D01*
X33710483Y16095470D01*
X33748120Y16149997D01*
X37594722Y16149997D01*
X37613761Y15993192D01*
X37613764Y15993178D01*
X37669778Y15845479D01*
X37746366Y15734522D01*
X37759517Y15715470D01*
X37877760Y15610717D01*
X38017635Y15537304D01*
X38171015Y15499500D01*
X38171019Y15499500D01*
X38328981Y15499500D01*
X38328985Y15499500D01*
X38482365Y15537304D01*
X38622240Y15610717D01*
X38740483Y15715470D01*
X38830220Y15845477D01*
X38886237Y15993182D01*
X38900817Y16113259D01*
X38905278Y16149997D01*
X38905278Y16150004D01*
X38895565Y16229997D01*
X43864722Y16229997D01*
X43883761Y16073192D01*
X43883764Y16073178D01*
X43939778Y15925479D01*
X44014445Y15817305D01*
X44029517Y15795470D01*
X44147760Y15690717D01*
X44287635Y15617304D01*
X44441015Y15579500D01*
X44441019Y15579500D01*
X44598981Y15579500D01*
X44598985Y15579500D01*
X44752365Y15617304D01*
X44892240Y15690717D01*
X45010483Y15795470D01*
X45100220Y15925477D01*
X45156237Y16073182D01*
X45175278Y16230000D01*
X45170035Y16273178D01*
X45156238Y16386809D01*
X45156237Y16386818D01*
X45141389Y16425969D01*
X45100221Y16534522D01*
X45010483Y16664530D01*
X44931476Y16734523D01*
X44892240Y16769283D01*
X44872773Y16779500D01*
X44752366Y16842696D01*
X44598987Y16880500D01*
X44598985Y16880500D01*
X44441015Y16880500D01*
X44441012Y16880500D01*
X44287633Y16842696D01*
X44147761Y16769284D01*
X44029516Y16664530D01*
X43939779Y16534522D01*
X43939778Y16534522D01*
X43883764Y16386823D01*
X43883761Y16386809D01*
X43864722Y16230004D01*
X43864722Y16229997D01*
X38895565Y16229997D01*
X38886238Y16306809D01*
X38886237Y16306818D01*
X38861065Y16373192D01*
X38830221Y16454522D01*
X38740483Y16584530D01*
X38622240Y16689283D01*
X38544669Y16729996D01*
X38482366Y16762696D01*
X38328987Y16800500D01*
X38328985Y16800500D01*
X38171015Y16800500D01*
X38171012Y16800500D01*
X38017633Y16762696D01*
X37877761Y16689284D01*
X37759516Y16584530D01*
X37669779Y16454522D01*
X37669778Y16454522D01*
X37613764Y16306823D01*
X37613761Y16306809D01*
X37594722Y16150004D01*
X37594722Y16149997D01*
X33748120Y16149997D01*
X33800220Y16225477D01*
X33801936Y16230000D01*
X33831065Y16306809D01*
X33856237Y16373182D01*
X33875278Y16530000D01*
X33868378Y16586823D01*
X33856238Y16686809D01*
X33856237Y16686818D01*
X33838145Y16734523D01*
X33800221Y16834522D01*
X33710483Y16964530D01*
X33705117Y16969284D01*
X33592240Y17069283D01*
X33570868Y17080500D01*
X33452366Y17142696D01*
X33298987Y17180500D01*
X33298985Y17180500D01*
X33141015Y17180500D01*
X33141012Y17180500D01*
X32987633Y17142696D01*
X32847761Y17069284D01*
X32729516Y16964530D01*
X32639779Y16834522D01*
X32639778Y16834522D01*
X32583764Y16686823D01*
X32583761Y16686809D01*
X32564722Y16530004D01*
X32564722Y16529997D01*
X31275278Y16529997D01*
X31275278Y16530000D01*
X31268378Y16586823D01*
X31256238Y16686809D01*
X31256237Y16686818D01*
X31238145Y16734523D01*
X31200221Y16834522D01*
X31110483Y16964530D01*
X31105117Y16969284D01*
X30992240Y17069283D01*
X30970868Y17080500D01*
X30852366Y17142696D01*
X30698987Y17180500D01*
X30698985Y17180500D01*
X30541015Y17180500D01*
X30541012Y17180500D01*
X30393472Y17144135D01*
X30343145Y17149562D01*
X30308080Y17186069D01*
X30304685Y17236574D01*
X30306572Y17242225D01*
X30356235Y17373178D01*
X30356237Y17373182D01*
X30366080Y17454247D01*
X30375278Y17529997D01*
X30375278Y17530004D01*
X30356238Y17686809D01*
X30356237Y17686818D01*
X30338145Y17734523D01*
X30300221Y17834522D01*
X30210483Y17964530D01*
X30205117Y17969284D01*
X30092240Y18069283D01*
X30052758Y18090005D01*
X29952366Y18142696D01*
X29798987Y18180500D01*
X29798985Y18180500D01*
X29641015Y18180500D01*
X29641012Y18180500D01*
X29493472Y18144135D01*
X29443145Y18149562D01*
X29408080Y18186069D01*
X29404685Y18236574D01*
X29406572Y18242225D01*
X29426901Y18295831D01*
X29456237Y18373182D01*
X29463288Y18431258D01*
X29475278Y18529997D01*
X30464722Y18529997D01*
X30483761Y18373192D01*
X30483764Y18373178D01*
X30539778Y18225479D01*
X30629516Y18095471D01*
X30629517Y18095470D01*
X30747760Y17990717D01*
X30887635Y17917304D01*
X31041015Y17879500D01*
X31041019Y17879500D01*
X31198981Y17879500D01*
X31198985Y17879500D01*
X31346529Y17915866D01*
X31396854Y17910439D01*
X31431919Y17873933D01*
X31435314Y17823428D01*
X31433428Y17817776D01*
X31414046Y17766669D01*
X31383763Y17686818D01*
X31383763Y17686816D01*
X31383761Y17686809D01*
X31364722Y17530004D01*
X31364722Y17529997D01*
X31383761Y17373192D01*
X31383764Y17373178D01*
X31439778Y17225479D01*
X31529516Y17095471D01*
X31529517Y17095470D01*
X31647760Y16990717D01*
X31787635Y16917304D01*
X31941015Y16879500D01*
X31941019Y16879500D01*
X32098981Y16879500D01*
X32098985Y16879500D01*
X32252365Y16917304D01*
X32392240Y16990717D01*
X32510483Y17095470D01*
X32600220Y17225477D01*
X32656237Y17373182D01*
X32666080Y17454247D01*
X32675278Y17529997D01*
X32675278Y17530004D01*
X32656238Y17686809D01*
X32656237Y17686818D01*
X32638145Y17734523D01*
X32600221Y17834522D01*
X32510483Y17964530D01*
X32505117Y17969284D01*
X32392240Y18069283D01*
X32352758Y18090005D01*
X32252366Y18142696D01*
X32098987Y18180500D01*
X32098985Y18180500D01*
X31941015Y18180500D01*
X31941012Y18180500D01*
X31793472Y18144135D01*
X31743145Y18149562D01*
X31708080Y18186069D01*
X31704685Y18236574D01*
X31706572Y18242225D01*
X31726901Y18295831D01*
X31756237Y18373182D01*
X31763288Y18431258D01*
X31775278Y18529997D01*
X32664722Y18529997D01*
X32683761Y18373192D01*
X32683764Y18373178D01*
X32739778Y18225479D01*
X32829516Y18095471D01*
X32829517Y18095470D01*
X32947760Y17990717D01*
X33087635Y17917304D01*
X33241015Y17879500D01*
X33241019Y17879500D01*
X33398981Y17879500D01*
X33398985Y17879500D01*
X33552365Y17917304D01*
X33692240Y17990717D01*
X33810483Y18095470D01*
X33882632Y18199997D01*
X36804722Y18199997D01*
X36823761Y18043192D01*
X36823764Y18043178D01*
X36879778Y17895479D01*
X36952259Y17790472D01*
X36969517Y17765470D01*
X37087760Y17660717D01*
X37227635Y17587304D01*
X37381015Y17549500D01*
X37381019Y17549500D01*
X37538981Y17549500D01*
X37538985Y17549500D01*
X37692365Y17587304D01*
X37832240Y17660717D01*
X37950483Y17765470D01*
X38040220Y17895477D01*
X38051598Y17925477D01*
X38068211Y17969284D01*
X38096237Y18043182D01*
X38109260Y18150434D01*
X38115278Y18199997D01*
X38115278Y18200004D01*
X38111636Y18229997D01*
X43764722Y18229997D01*
X43783761Y18073192D01*
X43783764Y18073178D01*
X43839778Y17925479D01*
X43902561Y17834522D01*
X43929517Y17795470D01*
X44047760Y17690717D01*
X44187635Y17617304D01*
X44341015Y17579500D01*
X44341019Y17579500D01*
X44498981Y17579500D01*
X44498985Y17579500D01*
X44652365Y17617304D01*
X44792240Y17690717D01*
X44910483Y17795470D01*
X45000220Y17925477D01*
X45056237Y18073182D01*
X45063288Y18131258D01*
X45075278Y18229997D01*
X45075278Y18230004D01*
X45056238Y18386809D01*
X45056237Y18386818D01*
X45048213Y18407975D01*
X45000221Y18534522D01*
X44910483Y18664530D01*
X44885319Y18686823D01*
X44792240Y18769283D01*
X44763839Y18784189D01*
X44652366Y18842696D01*
X44498987Y18880500D01*
X44498985Y18880500D01*
X44341015Y18880500D01*
X44341012Y18880500D01*
X44187633Y18842696D01*
X44047761Y18769284D01*
X43929516Y18664530D01*
X43839779Y18534522D01*
X43839778Y18534522D01*
X43783764Y18386823D01*
X43783761Y18386809D01*
X43764722Y18230004D01*
X43764722Y18229997D01*
X38111636Y18229997D01*
X38096238Y18356809D01*
X38096237Y18356818D01*
X38047814Y18484500D01*
X38040221Y18504522D01*
X37950483Y18634530D01*
X37832240Y18739283D01*
X37746680Y18784189D01*
X37692366Y18812696D01*
X37538987Y18850500D01*
X37538985Y18850500D01*
X37381015Y18850500D01*
X37381012Y18850500D01*
X37227633Y18812696D01*
X37087761Y18739284D01*
X36969516Y18634530D01*
X36879779Y18504522D01*
X36879778Y18504522D01*
X36823764Y18356823D01*
X36823761Y18356809D01*
X36804722Y18200004D01*
X36804722Y18199997D01*
X33882632Y18199997D01*
X33900220Y18225477D01*
X33901936Y18230000D01*
X33918892Y18274712D01*
X33956237Y18373182D01*
X33963288Y18431258D01*
X33975278Y18529997D01*
X33975278Y18530004D01*
X33956238Y18686809D01*
X33956237Y18686818D01*
X33936339Y18739284D01*
X33900221Y18834522D01*
X33810483Y18964530D01*
X33803768Y18970479D01*
X33692240Y19069283D01*
X33599080Y19118178D01*
X33552366Y19142696D01*
X33398987Y19180500D01*
X33398985Y19180500D01*
X33241015Y19180500D01*
X33241012Y19180500D01*
X33087633Y19142696D01*
X32947761Y19069284D01*
X32829516Y18964530D01*
X32739779Y18834522D01*
X32739778Y18834522D01*
X32683764Y18686823D01*
X32683761Y18686809D01*
X32664722Y18530004D01*
X32664722Y18529997D01*
X31775278Y18529997D01*
X31775278Y18530004D01*
X31756238Y18686809D01*
X31756237Y18686818D01*
X31736339Y18739284D01*
X31700221Y18834522D01*
X31610483Y18964530D01*
X31603768Y18970479D01*
X31492240Y19069283D01*
X31399080Y19118178D01*
X31352366Y19142696D01*
X31198987Y19180500D01*
X31198985Y19180500D01*
X31041015Y19180500D01*
X31041012Y19180500D01*
X30887633Y19142696D01*
X30747761Y19069284D01*
X30629516Y18964530D01*
X30539779Y18834522D01*
X30539778Y18834522D01*
X30483764Y18686823D01*
X30483761Y18686809D01*
X30464722Y18530004D01*
X30464722Y18529997D01*
X29475278Y18529997D01*
X29475278Y18530004D01*
X29456238Y18686809D01*
X29456237Y18686818D01*
X29436339Y18739284D01*
X29400221Y18834522D01*
X29310483Y18964530D01*
X29303768Y18970479D01*
X29192240Y19069283D01*
X29099080Y19118178D01*
X29052366Y19142696D01*
X28898987Y19180500D01*
X28898985Y19180500D01*
X28741015Y19180500D01*
X28741012Y19180500D01*
X28587633Y19142696D01*
X28447761Y19069284D01*
X28329516Y18964530D01*
X28239779Y18834522D01*
X28239778Y18834522D01*
X28183764Y18686823D01*
X28183761Y18686809D01*
X28164722Y18530004D01*
X28164722Y18529997D01*
X28183761Y18373192D01*
X28183764Y18373178D01*
X28239778Y18225479D01*
X28329516Y18095471D01*
X28329517Y18095470D01*
X28447760Y17990717D01*
X28587635Y17917304D01*
X28741015Y17879500D01*
X28741019Y17879500D01*
X28898981Y17879500D01*
X28898985Y17879500D01*
X29046529Y17915866D01*
X29096854Y17910439D01*
X29131919Y17873933D01*
X29135314Y17823428D01*
X29133428Y17817776D01*
X29114046Y17766669D01*
X29083763Y17686818D01*
X29083763Y17686816D01*
X29083761Y17686809D01*
X29064722Y17530004D01*
X29064722Y17529997D01*
X29083761Y17373192D01*
X29083764Y17373178D01*
X29139779Y17225479D01*
X29216721Y17114008D01*
X29229493Y17065027D01*
X29207793Y17019295D01*
X29161774Y16998211D01*
X29121431Y17006447D01*
X29052365Y17042696D01*
X29052362Y17042697D01*
X28898987Y17080500D01*
X28898985Y17080500D01*
X28741015Y17080500D01*
X28741012Y17080500D01*
X28587633Y17042696D01*
X28447761Y16969284D01*
X28329516Y16864530D01*
X28239779Y16734522D01*
X28239778Y16734522D01*
X28183764Y16586823D01*
X28183761Y16586809D01*
X28164722Y16430004D01*
X28164722Y16429997D01*
X28183761Y16273192D01*
X28183764Y16273178D01*
X28239778Y16125479D01*
X28322229Y16006028D01*
X28329517Y15995470D01*
X28447760Y15890717D01*
X28587635Y15817304D01*
X28741015Y15779500D01*
X28741019Y15779500D01*
X28898981Y15779500D01*
X28898985Y15779500D01*
X28936217Y15788677D01*
X28986543Y15783251D01*
X29021608Y15746744D01*
X29025003Y15696239D01*
X29023117Y15690587D01*
X28983763Y15586818D01*
X28983763Y15586816D01*
X28983761Y15586809D01*
X28964722Y15430004D01*
X28964722Y15429997D01*
X28983761Y15273192D01*
X28983764Y15273178D01*
X29023116Y15169414D01*
X29023796Y15118800D01*
X28991781Y15079590D01*
X28942054Y15070132D01*
X28936217Y15071324D01*
X28898989Y15080499D01*
X28898985Y15080500D01*
X28741015Y15080500D01*
X28741012Y15080500D01*
X28587633Y15042696D01*
X28447761Y14969284D01*
X28329516Y14864530D01*
X28239779Y14734522D01*
X28239778Y14734522D01*
X28183764Y14586823D01*
X28183761Y14586809D01*
X28164722Y14430004D01*
X28164722Y14429997D01*
X22479432Y14429997D01*
X22452453Y14591669D01*
X22374538Y14818628D01*
X22260329Y15029668D01*
X22112942Y15219031D01*
X22054107Y15273192D01*
X21936397Y15381552D01*
X21735508Y15512800D01*
X21515768Y15609187D01*
X21494205Y15614648D01*
X21283141Y15668096D01*
X21247289Y15671067D01*
X21103886Y15682950D01*
X21103882Y15682950D01*
X20984118Y15682950D01*
X20984114Y15682950D01*
X20804859Y15668096D01*
X20572231Y15609187D01*
X20352491Y15512800D01*
X20151602Y15381552D01*
X19975059Y15219033D01*
X19905762Y15130000D01*
X19835156Y15039284D01*
X19827669Y15029665D01*
X19827667Y15029661D01*
X19713462Y14818630D01*
X19635546Y14591666D01*
X19620250Y14500000D01*
X19596050Y14354981D01*
X19596050Y14115019D01*
X17411950Y14115019D01*
X17411950Y14354981D01*
X17372453Y14591669D01*
X17294538Y14818628D01*
X17180329Y15029668D01*
X17032942Y15219031D01*
X16974107Y15273192D01*
X16856397Y15381552D01*
X16655508Y15512800D01*
X16435768Y15609187D01*
X16414205Y15614648D01*
X16203141Y15668096D01*
X16167289Y15671067D01*
X16023886Y15682950D01*
X16023882Y15682950D01*
X15904118Y15682950D01*
X15904114Y15682950D01*
X15724859Y15668096D01*
X15492231Y15609187D01*
X15272491Y15512800D01*
X15071602Y15381552D01*
X14895059Y15219033D01*
X14825762Y15130000D01*
X14755156Y15039284D01*
X14747669Y15029665D01*
X14747667Y15029661D01*
X14633462Y14818630D01*
X14555546Y14591666D01*
X14540250Y14500000D01*
X14516050Y14354981D01*
X14516050Y14115019D01*
X9974684Y14115019D01*
X10030220Y14195477D01*
X10041598Y14225477D01*
X10059688Y14273178D01*
X10086237Y14343182D01*
X10105278Y14500000D01*
X10101635Y14530000D01*
X10086238Y14656809D01*
X10086237Y14656818D01*
X10067964Y14705000D01*
X10030221Y14804522D01*
X9940483Y14934530D01*
X9923552Y14949529D01*
X9822240Y15039283D01*
X9761192Y15071324D01*
X9682366Y15112696D01*
X9612172Y15129997D01*
X10864722Y15129997D01*
X10883761Y14973192D01*
X10883764Y14973178D01*
X10939778Y14825479D01*
X11002561Y14734522D01*
X11029517Y14695470D01*
X11147760Y14590717D01*
X11287635Y14517304D01*
X11441015Y14479500D01*
X11441019Y14479500D01*
X11598981Y14479500D01*
X11598985Y14479500D01*
X11752365Y14517304D01*
X11892240Y14590717D01*
X12010483Y14695470D01*
X12100220Y14825477D01*
X12103651Y14834522D01*
X12141578Y14934530D01*
X12156237Y14973182D01*
X12164263Y15039284D01*
X12175278Y15129997D01*
X12175278Y15130004D01*
X12156238Y15286809D01*
X12156237Y15286818D01*
X12144527Y15317696D01*
X12100221Y15434522D01*
X12010483Y15564530D01*
X11960075Y15609187D01*
X11892240Y15669283D01*
X11851649Y15690587D01*
X11752366Y15742696D01*
X11598987Y15780500D01*
X11598985Y15780500D01*
X11441015Y15780500D01*
X11441012Y15780500D01*
X11287633Y15742696D01*
X11147761Y15669284D01*
X11029516Y15564530D01*
X10939779Y15434522D01*
X10939778Y15434522D01*
X10883764Y15286823D01*
X10883761Y15286809D01*
X10864722Y15130004D01*
X10864722Y15129997D01*
X9612172Y15129997D01*
X9528987Y15150500D01*
X9528985Y15150500D01*
X9371015Y15150500D01*
X9371012Y15150500D01*
X9217633Y15112696D01*
X9077761Y15039284D01*
X8959516Y14934530D01*
X8869779Y14804522D01*
X8869778Y14804522D01*
X8813764Y14656823D01*
X8813761Y14656809D01*
X8794722Y14500004D01*
X8794722Y14499997D01*
X120500Y14499997D01*
X120500Y17290019D01*
X14516050Y17290019D01*
X14555547Y17053331D01*
X14584400Y16969284D01*
X14633462Y16826371D01*
X14704456Y16695185D01*
X14747671Y16615332D01*
X14895058Y16425969D01*
X15071603Y16263448D01*
X15122793Y16230004D01*
X15272491Y16132201D01*
X15492231Y16035814D01*
X15492236Y16035813D01*
X15492240Y16035811D01*
X15724859Y15976904D01*
X15859490Y15965749D01*
X15904114Y15962050D01*
X15904118Y15962050D01*
X16023886Y15962050D01*
X16065895Y15965532D01*
X16203141Y15976904D01*
X16435760Y16035811D01*
X16435765Y16035814D01*
X16435768Y16035814D01*
X16655508Y16132201D01*
X16682747Y16149997D01*
X16856397Y16263448D01*
X17032942Y16425969D01*
X17180329Y16615332D01*
X17294538Y16826372D01*
X17372453Y17053331D01*
X17411950Y17290019D01*
X17411950Y17365754D01*
X17744342Y17365754D01*
X17775023Y17191759D01*
X17845001Y17029529D01*
X17845002Y17029528D01*
X17950509Y16887808D01*
X17950515Y16887803D01*
X18085849Y16774243D01*
X18085852Y16774242D01*
X18085854Y16774240D01*
X18243741Y16694946D01*
X18415660Y16654200D01*
X18548019Y16654200D01*
X18679486Y16669566D01*
X18845511Y16729995D01*
X18993126Y16827082D01*
X19114372Y16955595D01*
X19202712Y17108605D01*
X19253385Y17277863D01*
X19254093Y17290019D01*
X19596050Y17290019D01*
X19635547Y17053331D01*
X19664400Y16969284D01*
X19713462Y16826371D01*
X19784456Y16695185D01*
X19827671Y16615332D01*
X19975058Y16425969D01*
X20151603Y16263448D01*
X20202793Y16230004D01*
X20352491Y16132201D01*
X20572231Y16035814D01*
X20572236Y16035813D01*
X20572240Y16035811D01*
X20804859Y15976904D01*
X20939490Y15965749D01*
X20984114Y15962050D01*
X20984118Y15962050D01*
X21103886Y15962050D01*
X21145895Y15965532D01*
X21283141Y15976904D01*
X21515760Y16035811D01*
X21515765Y16035814D01*
X21515768Y16035814D01*
X21735508Y16132201D01*
X21762747Y16149997D01*
X21936397Y16263448D01*
X22112942Y16425969D01*
X22260329Y16615332D01*
X22374538Y16826372D01*
X22452453Y17053331D01*
X22486729Y17258738D01*
X22511634Y17302802D01*
X22559039Y17320551D01*
X22606762Y17303676D01*
X22628909Y17272796D01*
X22640503Y17242225D01*
X22684779Y17125478D01*
X22751011Y17029525D01*
X22774517Y16995470D01*
X22892760Y16890717D01*
X23032635Y16817304D01*
X23186015Y16779500D01*
X23186019Y16779500D01*
X23343981Y16779500D01*
X23343985Y16779500D01*
X23497365Y16817304D01*
X23637240Y16890717D01*
X23755483Y16995470D01*
X23845220Y17125477D01*
X23901237Y17273182D01*
X23920278Y17430000D01*
X23917334Y17454245D01*
X23904292Y17561657D01*
X23901237Y17586818D01*
X23873211Y17660717D01*
X23845221Y17734522D01*
X23755483Y17864530D01*
X23738584Y17879501D01*
X23637240Y17969283D01*
X23625139Y17975634D01*
X23497366Y18042696D01*
X23343987Y18080500D01*
X23343985Y18080500D01*
X23186015Y18080500D01*
X23186012Y18080500D01*
X23032633Y18042696D01*
X22892761Y17969284D01*
X22774516Y17864530D01*
X22684779Y17734522D01*
X22684778Y17734522D01*
X22628764Y17586823D01*
X22627691Y17582467D01*
X22625850Y17582921D01*
X22606130Y17544099D01*
X22559559Y17524263D01*
X22511134Y17539003D01*
X22483513Y17581422D01*
X22482609Y17585955D01*
X22452453Y17766669D01*
X22374538Y17993628D01*
X22260329Y18204668D01*
X22112942Y18394031D01*
X21936397Y18556552D01*
X21832395Y18624500D01*
X21735508Y18687800D01*
X21515768Y18784187D01*
X21403188Y18812696D01*
X21283141Y18843096D01*
X21247289Y18846067D01*
X21103886Y18857950D01*
X21103882Y18857950D01*
X20984118Y18857950D01*
X20984114Y18857950D01*
X20804859Y18843096D01*
X20572231Y18784187D01*
X20352491Y18687800D01*
X20151602Y18556552D01*
X19975059Y18394033D01*
X19946094Y18356818D01*
X19843868Y18225477D01*
X19827669Y18204665D01*
X19827667Y18204661D01*
X19713462Y17993630D01*
X19635546Y17766666D01*
X19622220Y17686809D01*
X19596050Y17529981D01*
X19596050Y17290019D01*
X19254093Y17290019D01*
X19263658Y17454245D01*
X19232977Y17628241D01*
X19162998Y17790472D01*
X19057491Y17932192D01*
X19057484Y17932198D01*
X18922150Y18045758D01*
X18764260Y18125054D01*
X18764256Y18125055D01*
X18592340Y18165800D01*
X18459981Y18165800D01*
X18328511Y18150434D01*
X18162487Y18090005D01*
X18162486Y18090005D01*
X18014874Y17992918D01*
X17893626Y17864403D01*
X17805288Y17711396D01*
X17805287Y17711394D01*
X17754615Y17542140D01*
X17754615Y17542137D01*
X17744342Y17365754D01*
X17411950Y17365754D01*
X17411950Y17529981D01*
X17372453Y17766669D01*
X17294538Y17993628D01*
X17180329Y18204668D01*
X17032942Y18394031D01*
X16856397Y18556552D01*
X16752395Y18624500D01*
X16655508Y18687800D01*
X16435768Y18784187D01*
X16323188Y18812696D01*
X16203141Y18843096D01*
X16167289Y18846067D01*
X16023886Y18857950D01*
X16023882Y18857950D01*
X15904118Y18857950D01*
X15904114Y18857950D01*
X15724859Y18843096D01*
X15492231Y18784187D01*
X15272491Y18687800D01*
X15071602Y18556552D01*
X14895059Y18394033D01*
X14866094Y18356818D01*
X14763868Y18225477D01*
X14747669Y18204665D01*
X14747667Y18204661D01*
X14633462Y17993630D01*
X14555546Y17766666D01*
X14542220Y17686809D01*
X14516050Y17529981D01*
X14516050Y17290019D01*
X120500Y17290019D01*
X120500Y20500000D01*
X1429435Y20500000D01*
X1442188Y20386809D01*
X1449632Y20320746D01*
X1449634Y20320737D01*
X1509209Y20150480D01*
X1557773Y20073192D01*
X1605184Y19997738D01*
X1732738Y19870184D01*
X1821702Y19814284D01*
X1885479Y19774210D01*
X2011291Y19730187D01*
X2055745Y19714632D01*
X2190046Y19699500D01*
X2190050Y19699500D01*
X3079950Y19699500D01*
X3079954Y19699500D01*
X3214255Y19714632D01*
X3282481Y19738506D01*
X3384520Y19774210D01*
X3392974Y19779522D01*
X3537262Y19870184D01*
X3664816Y19997738D01*
X3760789Y20150478D01*
X3784173Y20217304D01*
X3820365Y20320737D01*
X3820368Y20320745D01*
X3840565Y20500000D01*
X5459435Y20500000D01*
X5472188Y20386809D01*
X5479632Y20320746D01*
X5479634Y20320737D01*
X5539209Y20150480D01*
X5587773Y20073192D01*
X5635184Y19997738D01*
X5762738Y19870184D01*
X5915478Y19774211D01*
X6007723Y19741934D01*
X6041291Y19730187D01*
X6080470Y19698136D01*
X6089880Y19648400D01*
X6065119Y19604250D01*
X6045169Y19591973D01*
X6019723Y19581433D01*
X5897417Y19487583D01*
X5803566Y19365276D01*
X5744570Y19222846D01*
X5724448Y19070000D01*
X5744570Y18917155D01*
X5803566Y18774725D01*
X5803567Y18774724D01*
X5897417Y18652417D01*
X6019724Y18558567D01*
X6162154Y18499571D01*
X6276627Y18484500D01*
X6276629Y18484500D01*
X6353371Y18484500D01*
X6353373Y18484500D01*
X6467846Y18499571D01*
X6610276Y18558567D01*
X6732583Y18652417D01*
X6826433Y18774724D01*
X6885429Y18917154D01*
X6905552Y19070000D01*
X6885429Y19222846D01*
X6826433Y19365276D01*
X6742241Y19474997D01*
X38564722Y19474997D01*
X38583761Y19318192D01*
X38583764Y19318178D01*
X38639778Y19170479D01*
X38675876Y19118182D01*
X38729517Y19040470D01*
X38847760Y18935717D01*
X38987635Y18862304D01*
X39141015Y18824500D01*
X39141019Y18824500D01*
X39298981Y18824500D01*
X39298985Y18824500D01*
X39452365Y18862304D01*
X39592240Y18935717D01*
X39710483Y19040470D01*
X39800220Y19170477D01*
X39839859Y19274997D01*
X42264722Y19274997D01*
X42283761Y19118192D01*
X42283764Y19118178D01*
X42339778Y18970479D01*
X42429516Y18840471D01*
X42429517Y18840470D01*
X42547760Y18735717D01*
X42687635Y18662304D01*
X42841015Y18624500D01*
X42841019Y18624500D01*
X42998981Y18624500D01*
X42998985Y18624500D01*
X43152365Y18662304D01*
X43292240Y18735717D01*
X43410483Y18840470D01*
X43500220Y18970477D01*
X43556237Y19118182D01*
X43563804Y19180500D01*
X43575278Y19274997D01*
X43575278Y19275004D01*
X43556238Y19431809D01*
X43556237Y19431818D01*
X43548213Y19452975D01*
X43500221Y19579522D01*
X43410483Y19709530D01*
X43387166Y19730187D01*
X43292240Y19814283D01*
X43280139Y19820634D01*
X43152366Y19887696D01*
X42998987Y19925500D01*
X42998985Y19925500D01*
X42841015Y19925500D01*
X42841012Y19925500D01*
X42687633Y19887696D01*
X42547761Y19814284D01*
X42429516Y19709530D01*
X42339779Y19579522D01*
X42339778Y19579522D01*
X42283764Y19431823D01*
X42283761Y19431809D01*
X42264722Y19275004D01*
X42264722Y19274997D01*
X39839859Y19274997D01*
X39856237Y19318182D01*
X39870035Y19431818D01*
X39875278Y19474997D01*
X39875278Y19475004D01*
X39856238Y19631809D01*
X39856237Y19631818D01*
X39824830Y19714632D01*
X39800221Y19779522D01*
X39710483Y19909530D01*
X39692456Y19925500D01*
X39592240Y20014283D01*
X39580139Y20020634D01*
X39452366Y20087696D01*
X39298987Y20125500D01*
X39298985Y20125500D01*
X39141015Y20125500D01*
X39141012Y20125500D01*
X38987633Y20087696D01*
X38847761Y20014284D01*
X38729516Y19909530D01*
X38639779Y19779522D01*
X38639778Y19779522D01*
X38583764Y19631823D01*
X38583761Y19631809D01*
X38564722Y19475004D01*
X38564722Y19474997D01*
X6742241Y19474997D01*
X6732583Y19487583D01*
X6629355Y19566793D01*
X6602159Y19609484D01*
X6608766Y19659670D01*
X6646087Y19693867D01*
X6674405Y19699500D01*
X7409950Y19699500D01*
X7409954Y19699500D01*
X7544255Y19714632D01*
X7612481Y19738506D01*
X7714520Y19774210D01*
X7722974Y19779522D01*
X7867262Y19870184D01*
X7994816Y19997738D01*
X8090789Y20150478D01*
X8114173Y20217304D01*
X8150365Y20320737D01*
X8150368Y20320745D01*
X8170565Y20500000D01*
X8150368Y20679255D01*
X8150365Y20679264D01*
X8090790Y20849521D01*
X8074782Y20874997D01*
X8364722Y20874997D01*
X8383761Y20718192D01*
X8383764Y20718178D01*
X8439778Y20570479D01*
X8525895Y20445717D01*
X8529517Y20440470D01*
X8647760Y20335717D01*
X8787635Y20262304D01*
X8941015Y20224500D01*
X8941019Y20224500D01*
X9098981Y20224500D01*
X9098985Y20224500D01*
X9252365Y20262304D01*
X9392240Y20335717D01*
X9510483Y20440470D01*
X9600220Y20570477D01*
X9656237Y20718182D01*
X9669593Y20828178D01*
X9669814Y20829997D01*
X26319722Y20829997D01*
X26338761Y20673192D01*
X26338764Y20673178D01*
X26394778Y20525479D01*
X26484516Y20395471D01*
X26484517Y20395470D01*
X26602760Y20290717D01*
X26742635Y20217304D01*
X26896015Y20179500D01*
X26896019Y20179500D01*
X27053981Y20179500D01*
X27053985Y20179500D01*
X27207365Y20217304D01*
X27231549Y20229997D01*
X47464722Y20229997D01*
X47483761Y20073192D01*
X47483764Y20073178D01*
X47539778Y19925479D01*
X47616531Y19814283D01*
X47629517Y19795470D01*
X47747760Y19690717D01*
X47887635Y19617304D01*
X48041015Y19579500D01*
X48041019Y19579500D01*
X48198981Y19579500D01*
X48198985Y19579500D01*
X48352365Y19617304D01*
X48492240Y19690717D01*
X48610483Y19795470D01*
X48700220Y19925477D01*
X48756237Y20073182D01*
X48769146Y20179500D01*
X48775278Y20229997D01*
X48775278Y20230004D01*
X48756238Y20386809D01*
X48756237Y20386818D01*
X48703651Y20525477D01*
X48700221Y20534522D01*
X48610483Y20664530D01*
X48600717Y20673182D01*
X48492240Y20769283D01*
X48480139Y20775634D01*
X48352366Y20842696D01*
X48198987Y20880500D01*
X48198985Y20880500D01*
X48041015Y20880500D01*
X48041012Y20880500D01*
X47887633Y20842696D01*
X47747761Y20769284D01*
X47629516Y20664530D01*
X47539779Y20534522D01*
X47539778Y20534522D01*
X47483764Y20386823D01*
X47483761Y20386809D01*
X47464722Y20230004D01*
X47464722Y20229997D01*
X27231549Y20229997D01*
X27347240Y20290717D01*
X27465483Y20395470D01*
X27555220Y20525477D01*
X27558651Y20534522D01*
X27573892Y20574712D01*
X27611237Y20673182D01*
X27630057Y20828178D01*
X27630278Y20829997D01*
X27630278Y20830004D01*
X27611458Y20984997D01*
X36364722Y20984997D01*
X36383761Y20828192D01*
X36383764Y20828178D01*
X36439778Y20680479D01*
X36515707Y20570477D01*
X36529517Y20550470D01*
X36647760Y20445717D01*
X36787635Y20372304D01*
X36941015Y20334500D01*
X36941019Y20334500D01*
X37098981Y20334500D01*
X37098985Y20334500D01*
X37252365Y20372304D01*
X37392240Y20445717D01*
X37510483Y20550470D01*
X37600220Y20680477D01*
X37656237Y20828182D01*
X37675278Y20985000D01*
X37675058Y20986809D01*
X37656238Y21141809D01*
X37656237Y21141818D01*
X37641937Y21179523D01*
X37600221Y21289522D01*
X37510483Y21419530D01*
X37464263Y21460477D01*
X37392240Y21524283D01*
X37380139Y21530634D01*
X37252366Y21597696D01*
X37098987Y21635500D01*
X37098985Y21635500D01*
X36941015Y21635500D01*
X36941012Y21635500D01*
X36787633Y21597696D01*
X36647761Y21524284D01*
X36529516Y21419530D01*
X36439779Y21289522D01*
X36439778Y21289522D01*
X36383764Y21141823D01*
X36383761Y21141809D01*
X36364722Y20985004D01*
X36364722Y20984997D01*
X27611458Y20984997D01*
X27611238Y20986809D01*
X27611237Y20986818D01*
X27562814Y21114500D01*
X27555221Y21134522D01*
X27524159Y21179523D01*
X27465483Y21264530D01*
X27454105Y21274610D01*
X27429981Y21319109D01*
X27440104Y21368705D01*
X27454106Y21385391D01*
X27455199Y21386361D01*
X27465483Y21395470D01*
X27555220Y21525477D01*
X27611237Y21673182D01*
X27622385Y21764997D01*
X33609722Y21764997D01*
X33628761Y21608192D01*
X33628764Y21608178D01*
X33684778Y21460479D01*
X33748125Y21368705D01*
X33774517Y21330470D01*
X33892760Y21225717D01*
X34032635Y21152304D01*
X34186015Y21114500D01*
X34186019Y21114500D01*
X34343981Y21114500D01*
X34343985Y21114500D01*
X34497365Y21152304D01*
X34637240Y21225717D01*
X34755483Y21330470D01*
X34845220Y21460477D01*
X34901237Y21608182D01*
X34920278Y21765000D01*
X34918517Y21779500D01*
X34901238Y21921809D01*
X34901237Y21921818D01*
X34871776Y21999501D01*
X34845221Y22069522D01*
X34755483Y22199530D01*
X34682112Y22264530D01*
X34637240Y22304283D01*
X34625139Y22310634D01*
X34497366Y22377696D01*
X34343987Y22415500D01*
X34343985Y22415500D01*
X34186015Y22415500D01*
X34186012Y22415500D01*
X34032633Y22377696D01*
X33892761Y22304284D01*
X33774516Y22199530D01*
X33684779Y22069522D01*
X33684778Y22069522D01*
X33628764Y21921823D01*
X33628761Y21921809D01*
X33609722Y21765004D01*
X33609722Y21764997D01*
X27622385Y21764997D01*
X27624146Y21779500D01*
X27630278Y21829997D01*
X27630278Y21830004D01*
X27611238Y21986809D01*
X27611237Y21986818D01*
X27603213Y22007975D01*
X27555221Y22134522D01*
X27465483Y22264530D01*
X27455717Y22273182D01*
X27347240Y22369283D01*
X27289625Y22399522D01*
X27207366Y22442696D01*
X27053987Y22480500D01*
X27053985Y22480500D01*
X26896015Y22480500D01*
X26896012Y22480500D01*
X26742633Y22442696D01*
X26602761Y22369284D01*
X26484516Y22264530D01*
X26394779Y22134522D01*
X26394778Y22134522D01*
X26338764Y21986823D01*
X26338761Y21986809D01*
X26319722Y21830004D01*
X26319722Y21829997D01*
X26338761Y21673192D01*
X26338764Y21673178D01*
X26394778Y21525479D01*
X26395603Y21524284D01*
X26484517Y21395470D01*
X26495252Y21385959D01*
X26495895Y21385390D01*
X26520019Y21340888D01*
X26509893Y21291292D01*
X26495895Y21274610D01*
X26484517Y21264530D01*
X26394779Y21134522D01*
X26394778Y21134522D01*
X26338764Y20986823D01*
X26338761Y20986809D01*
X26319722Y20830004D01*
X26319722Y20829997D01*
X9669814Y20829997D01*
X9675278Y20874997D01*
X9675278Y20875004D01*
X9656238Y21031809D01*
X9656237Y21031818D01*
X9624880Y21114501D01*
X9600221Y21179522D01*
X9510483Y21309530D01*
X9486845Y21330471D01*
X9392240Y21414283D01*
X9304226Y21460477D01*
X9252366Y21487696D01*
X9098987Y21525500D01*
X9098985Y21525500D01*
X8941015Y21525500D01*
X8941012Y21525500D01*
X8787633Y21487696D01*
X8647761Y21414284D01*
X8529516Y21309530D01*
X8439779Y21179522D01*
X8439778Y21179522D01*
X8383764Y21031823D01*
X8383761Y21031809D01*
X8364722Y20875004D01*
X8364722Y20874997D01*
X8074782Y20874997D01*
X8005662Y20985000D01*
X7994816Y21002262D01*
X7867262Y21129816D01*
X7828054Y21154453D01*
X7714520Y21225791D01*
X7544263Y21285366D01*
X7544256Y21285368D01*
X7544255Y21285368D01*
X7409954Y21300500D01*
X6220046Y21300500D01*
X6085745Y21285368D01*
X6085736Y21285366D01*
X5915479Y21225791D01*
X5762739Y21129817D01*
X5635183Y21002261D01*
X5539209Y20849521D01*
X5479634Y20679264D01*
X5479632Y20679255D01*
X5459435Y20500000D01*
X3840565Y20500000D01*
X3820368Y20679255D01*
X3820365Y20679264D01*
X3760790Y20849521D01*
X3675662Y20985000D01*
X3664816Y21002262D01*
X3537262Y21129816D01*
X3498054Y21154453D01*
X3384520Y21225791D01*
X3214263Y21285366D01*
X3214256Y21285368D01*
X3214255Y21285368D01*
X3079954Y21300500D01*
X2190046Y21300500D01*
X2055745Y21285368D01*
X2055736Y21285366D01*
X1885479Y21225791D01*
X1732739Y21129817D01*
X1605183Y21002261D01*
X1509209Y20849521D01*
X1449634Y20679264D01*
X1449632Y20679255D01*
X1429435Y20500000D01*
X120500Y20500000D01*
X120500Y22429997D01*
X2519722Y22429997D01*
X2538761Y22273192D01*
X2538764Y22273178D01*
X2594778Y22125479D01*
X2681735Y21999500D01*
X2684517Y21995470D01*
X2802760Y21890717D01*
X2942635Y21817304D01*
X3096015Y21779500D01*
X3096019Y21779500D01*
X3253981Y21779500D01*
X3253985Y21779500D01*
X3407365Y21817304D01*
X3547240Y21890717D01*
X3665483Y21995470D01*
X3755220Y22125477D01*
X3758651Y22134522D01*
X3773892Y22174712D01*
X3811237Y22273182D01*
X3824764Y22384588D01*
X3830278Y22429997D01*
X3830278Y22430004D01*
X3813337Y22569522D01*
X3811237Y22586818D01*
X3799675Y22617305D01*
X3755221Y22734522D01*
X3665483Y22864530D01*
X3596685Y22925479D01*
X3547240Y22969283D01*
X3535139Y22975634D01*
X3407366Y23042696D01*
X3253987Y23080500D01*
X3253985Y23080500D01*
X3096015Y23080500D01*
X3096012Y23080500D01*
X2942633Y23042696D01*
X2802761Y22969284D01*
X2684516Y22864530D01*
X2594779Y22734522D01*
X2594778Y22734522D01*
X2538764Y22586823D01*
X2538761Y22586809D01*
X2519722Y22430004D01*
X2519722Y22429997D01*
X120500Y22429997D01*
X120500Y26328179D01*
X120678Y26331807D01*
X123242Y26357844D01*
X133227Y26459220D01*
X136054Y26473434D01*
X171632Y26590722D01*
X177178Y26604110D01*
X234954Y26712200D01*
X243006Y26724251D01*
X320756Y26818989D01*
X331013Y26829245D01*
X425749Y26906994D01*
X437800Y26915046D01*
X545890Y26972822D01*
X559278Y26978368D01*
X676566Y27013946D01*
X690780Y27016773D01*
X797605Y27027295D01*
X818194Y27029322D01*
X821822Y27029500D01*
X867595Y27029500D01*
X10121288Y27029500D01*
X10168854Y27012187D01*
G37*
%TD.AperFunction*%
%TD*%
M02*
