%TF.GenerationSoftware,KiCad,Pcbnew,7.0.8*%
%TF.CreationDate,2024-01-29T14:11:28+05:30*%
%TF.ProjectId,stm32_ble,73746d33-325f-4626-9c65-2e6b69636164,Version : 1*%
%TF.SameCoordinates,PX6eac850PY632ea00*%
%TF.FileFunction,Paste,Top*%
%TF.FilePolarity,Positive*%
%FSLAX46Y46*%
G04 Gerber Fmt 4.6, Leading zero omitted, Abs format (unit mm)*
G04 Created by KiCad (PCBNEW 7.0.8) date 2024-01-29 14:11:28*
%MOMM*%
%LPD*%
G01*
G04 APERTURE LIST*
G04 Aperture macros list*
%AMRoundRect*
0 Rectangle with rounded corners*
0 $1 Rounding radius*
0 $2 $3 $4 $5 $6 $7 $8 $9 X,Y pos of 4 corners*
0 Add a 4 corners polygon primitive as box body*
4,1,4,$2,$3,$4,$5,$6,$7,$8,$9,$2,$3,0*
0 Add four circle primitives for the rounded corners*
1,1,$1+$1,$2,$3*
1,1,$1+$1,$4,$5*
1,1,$1+$1,$6,$7*
1,1,$1+$1,$8,$9*
0 Add four rect primitives between the rounded corners*
20,1,$1+$1,$2,$3,$4,$5,0*
20,1,$1+$1,$4,$5,$6,$7,0*
20,1,$1+$1,$6,$7,$8,$9,0*
20,1,$1+$1,$8,$9,$2,$3,0*%
G04 Aperture macros list end*
%ADD10R,0.275000X0.700000*%
%ADD11R,0.450000X0.245000*%
%ADD12R,1.500000X1.500000*%
%ADD13RoundRect,0.147500X-0.147500X-0.172500X0.147500X-0.172500X0.147500X0.172500X-0.147500X0.172500X0*%
%ADD14RoundRect,0.140000X-0.170000X0.140000X-0.170000X-0.140000X0.170000X-0.140000X0.170000X0.140000X0*%
%ADD15RoundRect,0.225000X-0.250000X0.225000X-0.250000X-0.225000X0.250000X-0.225000X0.250000X0.225000X0*%
%ADD16RoundRect,0.150000X-0.425000X0.150000X-0.425000X-0.150000X0.425000X-0.150000X0.425000X0.150000X0*%
%ADD17RoundRect,0.075000X-0.500000X0.075000X-0.500000X-0.075000X0.500000X-0.075000X0.500000X0.075000X0*%
%ADD18O,2.100000X1.000000*%
%ADD19O,1.800000X1.000000*%
%ADD20R,1.050000X1.000000*%
%ADD21R,2.200000X1.050000*%
%ADD22RoundRect,0.225000X-0.225000X-0.250000X0.225000X-0.250000X0.225000X0.250000X-0.225000X0.250000X0*%
%ADD23RoundRect,0.135000X0.185000X-0.135000X0.185000X0.135000X-0.185000X0.135000X-0.185000X-0.135000X0*%
%ADD24RoundRect,0.218750X-0.218750X-0.381250X0.218750X-0.381250X0.218750X0.381250X-0.218750X0.381250X0*%
%ADD25RoundRect,0.135000X-0.185000X0.135000X-0.185000X-0.135000X0.185000X-0.135000X0.185000X0.135000X0*%
%ADD26RoundRect,0.147500X0.172500X-0.147500X0.172500X0.147500X-0.172500X0.147500X-0.172500X-0.147500X0*%
%ADD27RoundRect,0.225000X0.225000X0.250000X-0.225000X0.250000X-0.225000X-0.250000X0.225000X-0.250000X0*%
%ADD28RoundRect,0.140000X-0.140000X-0.170000X0.140000X-0.170000X0.140000X0.170000X-0.140000X0.170000X0*%
%ADD29RoundRect,0.140000X0.170000X-0.140000X0.170000X0.140000X-0.170000X0.140000X-0.170000X-0.140000X0*%
%ADD30RoundRect,0.150000X-0.150000X0.512500X-0.150000X-0.512500X0.150000X-0.512500X0.150000X0.512500X0*%
%ADD31RoundRect,0.135000X0.135000X0.185000X-0.135000X0.185000X-0.135000X-0.185000X0.135000X-0.185000X0*%
%ADD32RoundRect,0.140000X0.140000X0.170000X-0.140000X0.170000X-0.140000X-0.170000X0.140000X-0.170000X0*%
%ADD33R,0.800000X0.900000*%
%ADD34RoundRect,0.250000X0.315000X-0.315000X0.315000X0.315000X-0.315000X0.315000X-0.315000X-0.315000X0*%
%ADD35RoundRect,0.062500X0.062500X-0.375000X0.062500X0.375000X-0.062500X0.375000X-0.062500X-0.375000X0*%
%ADD36RoundRect,0.062500X0.375000X-0.062500X0.375000X0.062500X-0.375000X0.062500X-0.375000X-0.062500X0*%
%ADD37RoundRect,0.150000X0.150000X-0.512500X0.150000X0.512500X-0.150000X0.512500X-0.150000X-0.512500X0*%
%ADD38R,0.600000X1.100000*%
%ADD39RoundRect,0.135000X-0.135000X-0.185000X0.135000X-0.185000X0.135000X0.185000X-0.135000X0.185000X0*%
G04 APERTURE END LIST*
D10*
%TO.C,FL1*%
X43900000Y17290000D03*
D11*
X44512000Y17063000D03*
D10*
X45125000Y17290000D03*
D11*
X44512000Y17517000D03*
%TD*%
D12*
%TO.C,SW1*%
X35825000Y4030000D03*
X28025000Y4030000D03*
%TD*%
D13*
%TO.C,L3*%
X40850000Y17330000D03*
X41820000Y17330000D03*
%TD*%
D14*
%TO.C,C1*%
X26470000Y12340000D03*
X26470000Y11380000D03*
%TD*%
D15*
%TO.C,C7*%
X25120000Y12080000D03*
X25120000Y10530000D03*
%TD*%
D16*
%TO.C,J3*%
X7390000Y19380000D03*
X7390000Y18580000D03*
D17*
X7390000Y17430000D03*
X7390000Y16430000D03*
X7390000Y15930000D03*
X7390000Y14930000D03*
D16*
X7390000Y13780000D03*
X7390000Y12980000D03*
X7390000Y12980000D03*
X7390000Y13780000D03*
D17*
X7390000Y14430000D03*
X7390000Y15430000D03*
X7390000Y16930000D03*
X7390000Y17930000D03*
D16*
X7390000Y18580000D03*
X7390000Y19380000D03*
D18*
X6815000Y20500000D03*
D19*
X2635000Y20500000D03*
D18*
X6815000Y11860000D03*
D19*
X2635000Y11860000D03*
%TD*%
D20*
%TO.C,J1*%
X46595000Y17305000D03*
D21*
X48120000Y18780000D03*
X48120000Y15830000D03*
%TD*%
D22*
%TO.C,C11*%
X31595000Y21765000D03*
X33145000Y21765000D03*
%TD*%
D23*
%TO.C,R6*%
X35970000Y9600000D03*
X35970000Y10620000D03*
%TD*%
D14*
%TO.C,C2*%
X35870000Y16560000D03*
X35870000Y15600000D03*
%TD*%
D24*
%TO.C,L2*%
X30357500Y23665000D03*
X32482500Y23665000D03*
%TD*%
D25*
%TO.C,R8*%
X39910000Y13730000D03*
X39910000Y12710000D03*
%TD*%
D26*
%TO.C,D1*%
X38710000Y12740000D03*
X38710000Y13710000D03*
%TD*%
D27*
%TO.C,C18*%
X12270000Y13930000D03*
X10720000Y13930000D03*
%TD*%
D23*
%TO.C,R7*%
X37420000Y9530000D03*
X37420000Y10550000D03*
%TD*%
D28*
%TO.C,C16*%
X18155000Y9010000D03*
X19115000Y9010000D03*
%TD*%
%TO.C,C19*%
X15140000Y8210000D03*
X16100000Y8210000D03*
%TD*%
D29*
%TO.C,C15*%
X42920000Y17320000D03*
X42920000Y18280000D03*
%TD*%
D30*
%TO.C,U3*%
X12520000Y11205000D03*
X11570000Y11205000D03*
X10620000Y11205000D03*
X10620000Y8930000D03*
X12520000Y8930000D03*
%TD*%
D31*
%TO.C,R3*%
X5120000Y22380000D03*
X4100000Y22380000D03*
%TD*%
D32*
%TO.C,C4*%
X26570000Y13430000D03*
X25610000Y13430000D03*
%TD*%
D33*
%TO.C,X2*%
X37020000Y23530000D03*
X37020000Y22130000D03*
X38120000Y22130000D03*
X38120000Y23530000D03*
%TD*%
D26*
%TO.C,L1*%
X30320000Y21230000D03*
X30320000Y22200000D03*
%TD*%
D14*
%TO.C,C17*%
X38820000Y4985000D03*
X38820000Y4025000D03*
%TD*%
D32*
%TO.C,C8*%
X28870000Y21830000D03*
X27910000Y21830000D03*
%TD*%
D27*
%TO.C,C10*%
X28820000Y23280000D03*
X27270000Y23280000D03*
%TD*%
D31*
%TO.C,R4*%
X5370000Y10080000D03*
X4350000Y10080000D03*
%TD*%
D29*
%TO.C,C14*%
X39170000Y17625000D03*
X39170000Y18585000D03*
%TD*%
D34*
%TO.C,U1*%
X29100000Y14100000D03*
X30500000Y14100000D03*
X31900000Y14100000D03*
X33300000Y14100000D03*
X29100000Y15500000D03*
X30500000Y15500000D03*
X31900000Y15500000D03*
X33300000Y15500000D03*
X29100000Y16900000D03*
X30500000Y16900000D03*
X31900000Y16900000D03*
X33300000Y16900000D03*
X29100000Y18300000D03*
X30500000Y18300000D03*
X31900000Y18300000D03*
X33300000Y18300000D03*
D35*
X28450000Y12762500D03*
X28950000Y12762500D03*
X29450000Y12762500D03*
X29950000Y12762500D03*
X30450000Y12762500D03*
X30950000Y12762500D03*
X31450000Y12762500D03*
X31950000Y12762500D03*
X32450000Y12762500D03*
X32950000Y12762500D03*
X33450000Y12762500D03*
X33950000Y12762500D03*
D36*
X34637500Y13450000D03*
X34637500Y13950000D03*
X34637500Y14450000D03*
X34637500Y14950000D03*
X34637500Y15450000D03*
X34637500Y15950000D03*
X34637500Y16450000D03*
X34637500Y16950000D03*
X34637500Y17450000D03*
X34637500Y17950000D03*
X34637500Y18450000D03*
X34637500Y18950000D03*
D35*
X33950000Y19637500D03*
X33450000Y19637500D03*
X32950000Y19637500D03*
X32450000Y19637500D03*
X31950000Y19637500D03*
X31450000Y19637500D03*
X30950000Y19637500D03*
X30450000Y19637500D03*
X29950000Y19637500D03*
X29450000Y19637500D03*
X28950000Y19637500D03*
X28450000Y19637500D03*
D36*
X27762500Y18950000D03*
X27762500Y18450000D03*
X27762500Y17950000D03*
X27762500Y17450000D03*
X27762500Y16950000D03*
X27762500Y16450000D03*
X27762500Y15950000D03*
X27762500Y15450000D03*
X27762500Y14950000D03*
X27762500Y14450000D03*
X27762500Y13950000D03*
X27762500Y13450000D03*
%TD*%
D32*
%TO.C,C6*%
X25120000Y17430000D03*
X24160000Y17430000D03*
%TD*%
D28*
%TO.C,C5*%
X33560000Y10930000D03*
X34520000Y10930000D03*
%TD*%
D37*
%TO.C,U2*%
X10520000Y16530000D03*
X11470000Y16530000D03*
X12420000Y16530000D03*
X12420000Y18805000D03*
X11470000Y18805000D03*
X10520000Y18805000D03*
%TD*%
D32*
%TO.C,C3*%
X28870000Y20880000D03*
X27910000Y20880000D03*
%TD*%
D25*
%TO.C,R5*%
X37620000Y4930000D03*
X37620000Y3910000D03*
%TD*%
D38*
%TO.C,X1*%
X29820000Y8530000D03*
X28420000Y8530000D03*
%TD*%
D28*
%TO.C,C12*%
X29620000Y10830000D03*
X30580000Y10830000D03*
%TD*%
D14*
%TO.C,C9*%
X36615000Y19210000D03*
X36615000Y18250000D03*
%TD*%
D32*
%TO.C,C13*%
X28580000Y10830000D03*
X27620000Y10830000D03*
%TD*%
D39*
%TO.C,R2*%
X38800000Y6330000D03*
X39820000Y6330000D03*
%TD*%
M02*
