%TF.GenerationSoftware,KiCad,Pcbnew,7.0.8*%
%TF.CreationDate,2024-01-29T14:11:28+05:30*%
%TF.ProjectId,stm32_ble,73746d33-325f-4626-9c65-2e6b69636164,Version : 1*%
%TF.SameCoordinates,PX6eac850PY632ea00*%
%TF.FileFunction,Soldermask,Bot*%
%TF.FilePolarity,Negative*%
%FSLAX46Y46*%
G04 Gerber Fmt 4.6, Leading zero omitted, Abs format (unit mm)*
G04 Created by KiCad (PCBNEW 7.0.8) date 2024-01-29 14:11:28*
%MOMM*%
%LPD*%
G01*
G04 APERTURE LIST*
G04 APERTURE END LIST*
G36*
X11497600Y5630494D02*
G01*
X11790107Y5572311D01*
X12072518Y5476445D01*
X12340000Y5344538D01*
X12587976Y5178846D01*
X12812203Y4982203D01*
X13008846Y4757976D01*
X13174538Y4510000D01*
X13306445Y4242518D01*
X13402311Y3960107D01*
X13460494Y3667600D01*
X13480000Y3370000D01*
X13460494Y3072400D01*
X13402311Y2779893D01*
X13306445Y2497482D01*
X13174538Y2230000D01*
X13008846Y1982024D01*
X12812203Y1757797D01*
X12587976Y1561154D01*
X12340000Y1395462D01*
X12072518Y1263555D01*
X11790107Y1167689D01*
X11497600Y1109506D01*
X11200000Y1090000D01*
X10902400Y1109506D01*
X10609893Y1167689D01*
X10327482Y1263555D01*
X10060000Y1395462D01*
X9812024Y1561154D01*
X9587797Y1757797D01*
X9391154Y1982024D01*
X9225462Y2230000D01*
X9093555Y2497482D01*
X8997689Y2779893D01*
X8939506Y3072400D01*
X8920000Y3370000D01*
X8939506Y3667600D01*
X8997689Y3960107D01*
X9093555Y4242518D01*
X9225462Y4510000D01*
X9391154Y4757976D01*
X9587797Y4982203D01*
X9812024Y5178846D01*
X10060000Y5344538D01*
X10327482Y5476445D01*
X10609893Y5572311D01*
X10902400Y5630494D01*
X11200000Y5650000D01*
X11497600Y5630494D01*
G37*
G36*
X47690874Y5737220D02*
G01*
X47983381Y5679037D01*
X48265792Y5583171D01*
X48533274Y5451264D01*
X48781250Y5285572D01*
X49005477Y5088929D01*
X49202120Y4864702D01*
X49367812Y4616726D01*
X49499719Y4349244D01*
X49595585Y4066833D01*
X49653768Y3774326D01*
X49673274Y3476726D01*
X49653768Y3179126D01*
X49595585Y2886619D01*
X49499719Y2604208D01*
X49367812Y2336726D01*
X49202120Y2088750D01*
X49005477Y1864523D01*
X48781250Y1667880D01*
X48533274Y1502188D01*
X48265792Y1370281D01*
X47983381Y1274415D01*
X47690874Y1216232D01*
X47393274Y1196726D01*
X47095674Y1216232D01*
X46803167Y1274415D01*
X46520756Y1370281D01*
X46253274Y1502188D01*
X46005298Y1667880D01*
X45781071Y1864523D01*
X45584428Y2088750D01*
X45418736Y2336726D01*
X45286829Y2604208D01*
X45190963Y2886619D01*
X45132780Y3179126D01*
X45113274Y3476726D01*
X45132780Y3774326D01*
X45190963Y4066833D01*
X45286829Y4349244D01*
X45418736Y4616726D01*
X45584428Y4864702D01*
X45781071Y5088929D01*
X46005298Y5285572D01*
X46253274Y5451264D01*
X46520756Y5583171D01*
X46803167Y5679037D01*
X47095674Y5737220D01*
X47393274Y5756726D01*
X47690874Y5737220D01*
G37*
G36*
X5621933Y4059723D02*
G01*
X5683195Y4055532D01*
X5717047Y4046047D01*
X5755232Y4040557D01*
X5784743Y4027080D01*
X5810996Y4019724D01*
X5841597Y4001116D01*
X5879508Y3983802D01*
X5901722Y3964553D01*
X5922551Y3951887D01*
X5948901Y3923672D01*
X5982760Y3894333D01*
X5997010Y3872159D01*
X6011665Y3856467D01*
X6030687Y3819756D01*
X6056623Y3779399D01*
X6063192Y3757025D01*
X6071732Y3740545D01*
X6080689Y3697435D01*
X6095114Y3648311D01*
X6095114Y3628019D01*
X6098294Y3612715D01*
X6095114Y3566222D01*
X6095114Y3511689D01*
X6090251Y3495129D01*
X6089385Y3482461D01*
X6072969Y3436272D01*
X6056623Y3380601D01*
X6048929Y3368630D01*
X6045664Y3359441D01*
X6016193Y3317692D01*
X5982760Y3265667D01*
X5974290Y3258328D01*
X5970372Y3252777D01*
X5929653Y3219650D01*
X5879508Y3176198D01*
X5872069Y3172801D01*
X5869095Y3170381D01*
X5821562Y3149736D01*
X5755232Y3119443D01*
X5750134Y3118711D01*
X5749342Y3118366D01*
X5712944Y3113364D01*
X5620000Y3100000D01*
X5615724Y3100000D01*
X5122131Y3100000D01*
X5120000Y3100000D01*
X5118065Y3100279D01*
X5056804Y3104469D01*
X5022957Y3113953D01*
X4984768Y3119443D01*
X4955252Y3132923D01*
X4929003Y3140277D01*
X4898405Y3158884D01*
X4860492Y3176198D01*
X4838275Y3195449D01*
X4817448Y3208114D01*
X4791097Y3236329D01*
X4757240Y3265667D01*
X4742989Y3287842D01*
X4728334Y3303534D01*
X4709309Y3340249D01*
X4683377Y3380601D01*
X4676807Y3402973D01*
X4668267Y3419456D01*
X4659307Y3462575D01*
X4644886Y3511689D01*
X4644886Y3531978D01*
X4641705Y3547286D01*
X4644886Y3593794D01*
X4644886Y3648311D01*
X4649747Y3664867D01*
X4650614Y3677540D01*
X4667037Y3723751D01*
X4683377Y3779399D01*
X4691067Y3791366D01*
X4694335Y3800560D01*
X4723823Y3842336D01*
X4757240Y3894333D01*
X4765705Y3901669D01*
X4769627Y3907224D01*
X4810380Y3940381D01*
X4860492Y3983802D01*
X4867925Y3987197D01*
X4870904Y3989620D01*
X4918502Y4010295D01*
X4984768Y4040557D01*
X4989860Y4041290D01*
X4990657Y4041635D01*
X5027186Y4046656D01*
X5120000Y4060000D01*
X5620000Y4060000D01*
X5621933Y4059723D01*
G37*
G36*
X5621933Y5309723D02*
G01*
X5683195Y5305532D01*
X5717047Y5296047D01*
X5755232Y5290557D01*
X5784743Y5277080D01*
X5810996Y5269724D01*
X5841597Y5251116D01*
X5879508Y5233802D01*
X5901722Y5214553D01*
X5922551Y5201887D01*
X5948901Y5173672D01*
X5982760Y5144333D01*
X5997010Y5122159D01*
X6011665Y5106467D01*
X6030687Y5069756D01*
X6056623Y5029399D01*
X6063192Y5007025D01*
X6071732Y4990545D01*
X6080689Y4947435D01*
X6095114Y4898311D01*
X6095114Y4878019D01*
X6098294Y4862715D01*
X6095114Y4816222D01*
X6095114Y4761689D01*
X6090251Y4745129D01*
X6089385Y4732461D01*
X6072969Y4686272D01*
X6056623Y4630601D01*
X6048929Y4618630D01*
X6045664Y4609441D01*
X6016193Y4567692D01*
X5982760Y4515667D01*
X5974290Y4508328D01*
X5970372Y4502777D01*
X5929653Y4469650D01*
X5879508Y4426198D01*
X5872069Y4422801D01*
X5869095Y4420381D01*
X5821562Y4399736D01*
X5755232Y4369443D01*
X5750134Y4368711D01*
X5749342Y4368366D01*
X5712944Y4363364D01*
X5620000Y4350000D01*
X5615724Y4350000D01*
X5122131Y4350000D01*
X5120000Y4350000D01*
X5118065Y4350279D01*
X5056804Y4354469D01*
X5022957Y4363953D01*
X4984768Y4369443D01*
X4955252Y4382923D01*
X4929003Y4390277D01*
X4898405Y4408884D01*
X4860492Y4426198D01*
X4838275Y4445449D01*
X4817448Y4458114D01*
X4791097Y4486329D01*
X4757240Y4515667D01*
X4742989Y4537842D01*
X4728334Y4553534D01*
X4709309Y4590249D01*
X4683377Y4630601D01*
X4676807Y4652973D01*
X4668267Y4669456D01*
X4659307Y4712575D01*
X4644886Y4761689D01*
X4644886Y4781978D01*
X4641705Y4797286D01*
X4644886Y4843794D01*
X4644886Y4898311D01*
X4649747Y4914867D01*
X4650614Y4927540D01*
X4667037Y4973751D01*
X4683377Y5029399D01*
X4691067Y5041366D01*
X4694335Y5050560D01*
X4723823Y5092336D01*
X4757240Y5144333D01*
X4765705Y5151669D01*
X4769627Y5157224D01*
X4810380Y5190381D01*
X4860492Y5233802D01*
X4867925Y5237197D01*
X4870904Y5239620D01*
X4918502Y5260295D01*
X4984768Y5290557D01*
X4989860Y5291290D01*
X4990657Y5291635D01*
X5027186Y5296656D01*
X5120000Y5310000D01*
X5620000Y5310000D01*
X5621933Y5309723D01*
G37*
G36*
X5621933Y6559723D02*
G01*
X5683195Y6555532D01*
X5717047Y6546047D01*
X5755232Y6540557D01*
X5784743Y6527080D01*
X5810996Y6519724D01*
X5841597Y6501116D01*
X5879508Y6483802D01*
X5901722Y6464553D01*
X5922551Y6451887D01*
X5948901Y6423672D01*
X5982760Y6394333D01*
X5997010Y6372159D01*
X6011665Y6356467D01*
X6030687Y6319756D01*
X6056623Y6279399D01*
X6063192Y6257025D01*
X6071732Y6240545D01*
X6080689Y6197435D01*
X6095114Y6148311D01*
X6095114Y6128019D01*
X6098294Y6112715D01*
X6095114Y6066222D01*
X6095114Y6011689D01*
X6090251Y5995129D01*
X6089385Y5982461D01*
X6072969Y5936272D01*
X6056623Y5880601D01*
X6048929Y5868630D01*
X6045664Y5859441D01*
X6016193Y5817692D01*
X5982760Y5765667D01*
X5974290Y5758328D01*
X5970372Y5752777D01*
X5929653Y5719650D01*
X5879508Y5676198D01*
X5872069Y5672801D01*
X5869095Y5670381D01*
X5821562Y5649736D01*
X5755232Y5619443D01*
X5750134Y5618711D01*
X5749342Y5618366D01*
X5712944Y5613364D01*
X5620000Y5600000D01*
X5615724Y5600000D01*
X5122131Y5600000D01*
X5120000Y5600000D01*
X5118065Y5600279D01*
X5056804Y5604469D01*
X5022957Y5613953D01*
X4984768Y5619443D01*
X4955252Y5632923D01*
X4929003Y5640277D01*
X4898405Y5658884D01*
X4860492Y5676198D01*
X4838275Y5695449D01*
X4817448Y5708114D01*
X4791097Y5736329D01*
X4757240Y5765667D01*
X4742989Y5787842D01*
X4728334Y5803534D01*
X4709309Y5840249D01*
X4683377Y5880601D01*
X4676807Y5902973D01*
X4668267Y5919456D01*
X4659307Y5962575D01*
X4644886Y6011689D01*
X4644886Y6031978D01*
X4641705Y6047286D01*
X4644886Y6093794D01*
X4644886Y6148311D01*
X4649747Y6164867D01*
X4650614Y6177540D01*
X4667037Y6223751D01*
X4683377Y6279399D01*
X4691067Y6291366D01*
X4694335Y6300560D01*
X4723823Y6342336D01*
X4757240Y6394333D01*
X4765705Y6401669D01*
X4769627Y6407224D01*
X4810380Y6440381D01*
X4860492Y6483802D01*
X4867925Y6487197D01*
X4870904Y6489620D01*
X4918502Y6510295D01*
X4984768Y6540557D01*
X4989860Y6541290D01*
X4990657Y6541635D01*
X5027186Y6546656D01*
X5120000Y6560000D01*
X5620000Y6560000D01*
X5621933Y6559723D01*
G37*
G36*
X5884106Y7802563D02*
G01*
X5889078Y7800368D01*
X5890950Y7800121D01*
X5914376Y7789197D01*
X5978238Y7760999D01*
X6050999Y7688238D01*
X6079206Y7624356D01*
X6090120Y7600951D01*
X6090366Y7599082D01*
X6092563Y7594106D01*
X6100000Y7530000D01*
X6100000Y7130000D01*
X6092563Y7065894D01*
X6090365Y7060919D01*
X6090120Y7059050D01*
X6079214Y7035664D01*
X6050999Y6971762D01*
X5978238Y6899001D01*
X5914336Y6870786D01*
X5890950Y6859880D01*
X5889081Y6859635D01*
X5884106Y6857437D01*
X5820000Y6850000D01*
X4920000Y6850000D01*
X4855894Y6857437D01*
X4850918Y6859634D01*
X4849049Y6859880D01*
X4825644Y6870794D01*
X4761762Y6899001D01*
X4689001Y6971762D01*
X4660803Y7035624D01*
X4649879Y7059050D01*
X4649632Y7060922D01*
X4647437Y7065894D01*
X4640000Y7130000D01*
X4640000Y7530000D01*
X4647437Y7594106D01*
X4649632Y7599079D01*
X4649879Y7600951D01*
X4660811Y7624396D01*
X4689001Y7688238D01*
X4761762Y7760999D01*
X4825604Y7789189D01*
X4849049Y7800121D01*
X4850921Y7800368D01*
X4855894Y7802563D01*
X4920000Y7810000D01*
X5820000Y7810000D01*
X5884106Y7802563D01*
G37*
G36*
X3036801Y12439763D02*
G01*
X3105709Y12435428D01*
X3143572Y12425707D01*
X3185115Y12420237D01*
X3218123Y12406565D01*
X3248329Y12398809D01*
X3283418Y12379519D01*
X3325000Y12362295D01*
X3350901Y12342420D01*
X3375620Y12328831D01*
X3406935Y12299424D01*
X3445122Y12270122D01*
X3463131Y12246652D01*
X3481514Y12229389D01*
X3506077Y12190684D01*
X3537295Y12150000D01*
X3547440Y12125506D01*
X3559350Y12106740D01*
X3574401Y12060418D01*
X3595237Y12010115D01*
X3598296Y11986875D01*
X3604238Y11968589D01*
X3607472Y11917178D01*
X3615000Y11860000D01*
X3612340Y11839800D01*
X3613359Y11823612D01*
X3603194Y11770327D01*
X3595237Y11709885D01*
X3588614Y11693897D01*
X3586140Y11680925D01*
X3561935Y11629489D01*
X3537295Y11570000D01*
X3528626Y11558704D01*
X3524289Y11549485D01*
X3486529Y11503842D01*
X3445122Y11449878D01*
X3436265Y11443083D01*
X3431699Y11437562D01*
X3382273Y11401653D01*
X3325000Y11357705D01*
X3317519Y11354607D01*
X3314177Y11352178D01*
X3257073Y11329570D01*
X3185115Y11299763D01*
X3180136Y11299108D01*
X3179115Y11298703D01*
X3128339Y11292289D01*
X3035000Y11280000D01*
X3031070Y11280000D01*
X2236969Y11280000D01*
X2235000Y11280000D01*
X2233197Y11280238D01*
X2164290Y11284573D01*
X2126433Y11294294D01*
X2084885Y11299763D01*
X2051872Y11313438D01*
X2021670Y11321192D01*
X1986584Y11340481D01*
X1945000Y11357705D01*
X1919095Y11377582D01*
X1894379Y11391170D01*
X1863065Y11420576D01*
X1824878Y11449878D01*
X1806867Y11473350D01*
X1788485Y11490612D01*
X1763920Y11529320D01*
X1732705Y11570000D01*
X1722559Y11594493D01*
X1710649Y11613261D01*
X1695595Y11659590D01*
X1674763Y11709885D01*
X1671703Y11733122D01*
X1665761Y11751412D01*
X1662525Y11802837D01*
X1655000Y11860000D01*
X1657658Y11880196D01*
X1656640Y11896389D01*
X1666808Y11949694D01*
X1674763Y12010115D01*
X1681383Y12026098D01*
X1683859Y12039076D01*
X1708074Y12090538D01*
X1732705Y12150000D01*
X1741369Y12161292D01*
X1745710Y12170516D01*
X1783493Y12216190D01*
X1824878Y12270122D01*
X1833729Y12276914D01*
X1838300Y12282439D01*
X1887768Y12318380D01*
X1945000Y12362295D01*
X1952474Y12365392D01*
X1955822Y12367823D01*
X2013002Y12390463D01*
X2084885Y12420237D01*
X2089857Y12420892D01*
X2090884Y12421298D01*
X2141799Y12427730D01*
X2235000Y12440000D01*
X3035000Y12440000D01*
X3036801Y12439763D01*
G37*
G36*
X7366801Y12439763D02*
G01*
X7435709Y12435428D01*
X7473572Y12425707D01*
X7515115Y12420237D01*
X7548123Y12406565D01*
X7578329Y12398809D01*
X7613418Y12379519D01*
X7655000Y12362295D01*
X7680901Y12342420D01*
X7705620Y12328831D01*
X7736935Y12299424D01*
X7775122Y12270122D01*
X7793131Y12246652D01*
X7811514Y12229389D01*
X7836077Y12190684D01*
X7867295Y12150000D01*
X7877440Y12125506D01*
X7889350Y12106740D01*
X7904401Y12060418D01*
X7925237Y12010115D01*
X7928296Y11986875D01*
X7934238Y11968589D01*
X7937472Y11917178D01*
X7945000Y11860000D01*
X7942340Y11839800D01*
X7943359Y11823612D01*
X7933194Y11770327D01*
X7925237Y11709885D01*
X7918614Y11693897D01*
X7916140Y11680925D01*
X7891935Y11629489D01*
X7867295Y11570000D01*
X7858626Y11558704D01*
X7854289Y11549485D01*
X7816529Y11503842D01*
X7775122Y11449878D01*
X7766265Y11443083D01*
X7761699Y11437562D01*
X7712273Y11401653D01*
X7655000Y11357705D01*
X7647519Y11354607D01*
X7644177Y11352178D01*
X7587073Y11329570D01*
X7515115Y11299763D01*
X7510136Y11299108D01*
X7509115Y11298703D01*
X7458339Y11292289D01*
X7365000Y11280000D01*
X7361070Y11280000D01*
X6266969Y11280000D01*
X6265000Y11280000D01*
X6263197Y11280238D01*
X6194290Y11284573D01*
X6156433Y11294294D01*
X6114885Y11299763D01*
X6081872Y11313438D01*
X6051670Y11321192D01*
X6016584Y11340481D01*
X5975000Y11357705D01*
X5949095Y11377582D01*
X5924379Y11391170D01*
X5893065Y11420576D01*
X5854878Y11449878D01*
X5836867Y11473350D01*
X5818485Y11490612D01*
X5793920Y11529320D01*
X5762705Y11570000D01*
X5752559Y11594493D01*
X5740649Y11613261D01*
X5725595Y11659590D01*
X5704763Y11709885D01*
X5701703Y11733122D01*
X5695761Y11751412D01*
X5692525Y11802837D01*
X5685000Y11860000D01*
X5687658Y11880196D01*
X5686640Y11896389D01*
X5696808Y11949694D01*
X5704763Y12010115D01*
X5711383Y12026098D01*
X5713859Y12039076D01*
X5738074Y12090538D01*
X5762705Y12150000D01*
X5771369Y12161292D01*
X5775710Y12170516D01*
X5813493Y12216190D01*
X5854878Y12270122D01*
X5863729Y12276914D01*
X5868300Y12282439D01*
X5917768Y12318380D01*
X5975000Y12362295D01*
X5982474Y12365392D01*
X5985822Y12367823D01*
X6043002Y12390463D01*
X6114885Y12420237D01*
X6119857Y12420892D01*
X6120884Y12421298D01*
X6171799Y12427730D01*
X6265000Y12440000D01*
X7365000Y12440000D01*
X7366801Y12439763D01*
G37*
G36*
X17523320Y12900650D02*
G01*
X17557289Y12900650D01*
X17596236Y12891051D01*
X17636899Y12885697D01*
X17664734Y12874168D01*
X17691841Y12867486D01*
X17732942Y12845915D01*
X17775650Y12828224D01*
X17795135Y12813273D01*
X17814548Y12803084D01*
X17854236Y12767924D01*
X17894799Y12736799D01*
X17906326Y12721776D01*
X17918271Y12711194D01*
X17952528Y12661564D01*
X17986224Y12617650D01*
X17991302Y12605390D01*
X17996996Y12597141D01*
X18021694Y12532018D01*
X18043697Y12478899D01*
X18044684Y12471399D01*
X18046138Y12467566D01*
X18057395Y12374847D01*
X18063300Y12330000D01*
X18057395Y12285150D01*
X18046138Y12192435D01*
X18044684Y12188603D01*
X18043697Y12181101D01*
X18021690Y12127972D01*
X17996996Y12062860D01*
X17991303Y12054614D01*
X17986224Y12042350D01*
X17952521Y11998428D01*
X17918271Y11948807D01*
X17906328Y11938228D01*
X17894799Y11923201D01*
X17854228Y11892071D01*
X17814548Y11856917D01*
X17795139Y11846731D01*
X17775650Y11831776D01*
X17732933Y11814082D01*
X17691841Y11792515D01*
X17664738Y11785835D01*
X17636899Y11774303D01*
X17596233Y11768950D01*
X17557289Y11759350D01*
X17523320Y11759350D01*
X17488000Y11754700D01*
X17452680Y11759350D01*
X17418711Y11759350D01*
X17379765Y11768950D01*
X17339101Y11774303D01*
X17311262Y11785835D01*
X17284158Y11792515D01*
X17243062Y11814084D01*
X17200350Y11831776D01*
X17180862Y11846729D01*
X17161451Y11856917D01*
X17121764Y11892076D01*
X17081201Y11923201D01*
X17069673Y11938225D01*
X17057728Y11948807D01*
X17023468Y11998441D01*
X16989776Y12042350D01*
X16984697Y12054610D01*
X16979003Y12062860D01*
X16954298Y12128001D01*
X16932303Y12181101D01*
X16931315Y12188599D01*
X16929861Y12192435D01*
X16918591Y12285248D01*
X16912700Y12330000D01*
X16918591Y12374749D01*
X16929861Y12467566D01*
X16931316Y12471403D01*
X16932303Y12478899D01*
X16954293Y12531989D01*
X16979003Y12597141D01*
X16984698Y12605394D01*
X16989776Y12617650D01*
X17023461Y12661551D01*
X17057728Y12711194D01*
X17069675Y12721779D01*
X17081201Y12736799D01*
X17121756Y12767918D01*
X17161451Y12803084D01*
X17180866Y12813275D01*
X17200350Y12828224D01*
X17243053Y12845913D01*
X17284158Y12867486D01*
X17311267Y12874168D01*
X17339101Y12885697D01*
X17379762Y12891051D01*
X17418711Y12900650D01*
X17452680Y12900650D01*
X17488000Y12905300D01*
X17523320Y12900650D01*
G37*
G36*
X19555320Y12900650D02*
G01*
X19589289Y12900650D01*
X19628236Y12891051D01*
X19668899Y12885697D01*
X19696734Y12874168D01*
X19723841Y12867486D01*
X19764942Y12845915D01*
X19807650Y12828224D01*
X19827135Y12813273D01*
X19846548Y12803084D01*
X19886236Y12767924D01*
X19926799Y12736799D01*
X19938326Y12721776D01*
X19950271Y12711194D01*
X19984528Y12661564D01*
X20018224Y12617650D01*
X20023302Y12605390D01*
X20028996Y12597141D01*
X20053694Y12532018D01*
X20075697Y12478899D01*
X20076684Y12471399D01*
X20078138Y12467566D01*
X20089395Y12374847D01*
X20095300Y12330000D01*
X20089395Y12285150D01*
X20078138Y12192435D01*
X20076684Y12188603D01*
X20075697Y12181101D01*
X20053690Y12127972D01*
X20028996Y12062860D01*
X20023303Y12054614D01*
X20018224Y12042350D01*
X19984521Y11998428D01*
X19950271Y11948807D01*
X19938328Y11938228D01*
X19926799Y11923201D01*
X19886228Y11892071D01*
X19846548Y11856917D01*
X19827139Y11846731D01*
X19807650Y11831776D01*
X19764933Y11814082D01*
X19723841Y11792515D01*
X19696738Y11785835D01*
X19668899Y11774303D01*
X19628233Y11768950D01*
X19589289Y11759350D01*
X19555320Y11759350D01*
X19520000Y11754700D01*
X19484680Y11759350D01*
X19450711Y11759350D01*
X19411765Y11768950D01*
X19371101Y11774303D01*
X19343262Y11785835D01*
X19316158Y11792515D01*
X19275062Y11814084D01*
X19232350Y11831776D01*
X19212862Y11846729D01*
X19193451Y11856917D01*
X19153764Y11892076D01*
X19113201Y11923201D01*
X19101673Y11938225D01*
X19089728Y11948807D01*
X19055468Y11998441D01*
X19021776Y12042350D01*
X19016697Y12054610D01*
X19011003Y12062860D01*
X18986298Y12128001D01*
X18964303Y12181101D01*
X18963315Y12188599D01*
X18961861Y12192435D01*
X18950591Y12285248D01*
X18944700Y12330000D01*
X18950591Y12374749D01*
X18961861Y12467566D01*
X18963316Y12471403D01*
X18964303Y12478899D01*
X18986293Y12531989D01*
X19011003Y12597141D01*
X19016698Y12605394D01*
X19021776Y12617650D01*
X19055461Y12661551D01*
X19089728Y12711194D01*
X19101675Y12721779D01*
X19113201Y12736799D01*
X19153756Y12767918D01*
X19193451Y12803084D01*
X19212866Y12813275D01*
X19232350Y12828224D01*
X19275053Y12845913D01*
X19316158Y12867486D01*
X19343267Y12874168D01*
X19371101Y12885697D01*
X19411762Y12891051D01*
X19450711Y12900650D01*
X19484680Y12900650D01*
X19520000Y12905300D01*
X19555320Y12900650D01*
G37*
G36*
X6345041Y13690242D02*
G01*
X6372547Y13690242D01*
X6404759Y13680784D01*
X6440152Y13675178D01*
X6462321Y13663883D01*
X6482974Y13657818D01*
X6516464Y13636295D01*
X6553053Y13617652D01*
X6566685Y13604020D01*
X6579797Y13595593D01*
X6610208Y13560497D01*
X6642652Y13528053D01*
X6648833Y13515922D01*
X6655167Y13508612D01*
X6677716Y13459235D01*
X6700178Y13415152D01*
X6701414Y13407343D01*
X6702977Y13403922D01*
X6713025Y13334039D01*
X6720000Y13290000D01*
X6713024Y13245958D01*
X6702977Y13176079D01*
X6701415Y13172659D01*
X6700178Y13164848D01*
X6677712Y13120757D01*
X6655167Y13071389D01*
X6648834Y13064082D01*
X6642652Y13051947D01*
X6610202Y13019498D01*
X6579797Y12984408D01*
X6566688Y12975984D01*
X6553053Y12962348D01*
X6516456Y12943702D01*
X6482974Y12922183D01*
X6462325Y12916120D01*
X6440152Y12904822D01*
X6404757Y12899217D01*
X6372547Y12889758D01*
X6345041Y12889758D01*
X6315000Y12885000D01*
X6284959Y12889758D01*
X6257453Y12889758D01*
X6225241Y12899217D01*
X6189848Y12904822D01*
X6167675Y12916120D01*
X6147025Y12922183D01*
X6113538Y12943704D01*
X6076947Y12962348D01*
X6063313Y12975982D01*
X6050202Y12984408D01*
X6019790Y13019505D01*
X5987348Y13051947D01*
X5981166Y13064079D01*
X5974832Y13071389D01*
X5952278Y13120776D01*
X5929822Y13164848D01*
X5928585Y13172656D01*
X5927022Y13176079D01*
X5916964Y13246027D01*
X5910000Y13290000D01*
X5916964Y13333971D01*
X5927022Y13403922D01*
X5928585Y13407346D01*
X5929822Y13415152D01*
X5952273Y13459216D01*
X5974832Y13508612D01*
X5981168Y13515925D01*
X5987348Y13528053D01*
X6019783Y13560489D01*
X6050202Y13595593D01*
X6063315Y13604021D01*
X6076947Y13617652D01*
X6113531Y13636293D01*
X6147025Y13657818D01*
X6167679Y13663883D01*
X6189848Y13675178D01*
X6225239Y13680784D01*
X6257453Y13690242D01*
X6284959Y13690242D01*
X6315000Y13695000D01*
X6345041Y13690242D01*
G37*
G36*
X16184090Y15483195D02*
G01*
X16397493Y15426013D01*
X16597725Y15332644D01*
X16778701Y15205923D01*
X16934923Y15049701D01*
X17061644Y14868725D01*
X17155013Y14668493D01*
X17212195Y14455090D01*
X17231450Y14235000D01*
X17212195Y14014910D01*
X17155013Y13801507D01*
X17061644Y13601275D01*
X16934923Y13420299D01*
X16778701Y13264077D01*
X16597725Y13137356D01*
X16397493Y13043987D01*
X16184090Y12986805D01*
X15964000Y12967550D01*
X15743910Y12986805D01*
X15530507Y13043987D01*
X15330275Y13137356D01*
X15149299Y13264077D01*
X14993077Y13420299D01*
X14866356Y13601275D01*
X14772987Y13801507D01*
X14715805Y14014910D01*
X14696550Y14235000D01*
X14715805Y14455090D01*
X14772987Y14668493D01*
X14866356Y14868725D01*
X14993077Y15049701D01*
X15149299Y15205923D01*
X15330275Y15332644D01*
X15530507Y15426013D01*
X15743910Y15483195D01*
X15964000Y15502450D01*
X16184090Y15483195D01*
G37*
G36*
X21264090Y15483195D02*
G01*
X21477493Y15426013D01*
X21677725Y15332644D01*
X21858701Y15205923D01*
X22014923Y15049701D01*
X22141644Y14868725D01*
X22235013Y14668493D01*
X22292195Y14455090D01*
X22311450Y14235000D01*
X22292195Y14014910D01*
X22235013Y13801507D01*
X22141644Y13601275D01*
X22014923Y13420299D01*
X21858701Y13264077D01*
X21677725Y13137356D01*
X21477493Y13043987D01*
X21264090Y12986805D01*
X21044000Y12967550D01*
X20823910Y12986805D01*
X20610507Y13043987D01*
X20410275Y13137356D01*
X20229299Y13264077D01*
X20073077Y13420299D01*
X19946356Y13601275D01*
X19852987Y13801507D01*
X19795805Y14014910D01*
X19776550Y14235000D01*
X19795805Y14455090D01*
X19852987Y14668493D01*
X19946356Y14868725D01*
X20073077Y15049701D01*
X20229299Y15205923D01*
X20410275Y15332644D01*
X20610507Y15426013D01*
X20823910Y15483195D01*
X21044000Y15502450D01*
X21264090Y15483195D01*
G37*
G36*
X16184090Y18658195D02*
G01*
X16397493Y18601013D01*
X16597725Y18507644D01*
X16778701Y18380923D01*
X16934923Y18224701D01*
X17061644Y18043725D01*
X17155013Y17843493D01*
X17212195Y17630090D01*
X17231450Y17410000D01*
X17212195Y17189910D01*
X17155013Y16976507D01*
X17061644Y16776275D01*
X16934923Y16595299D01*
X16778701Y16439077D01*
X16597725Y16312356D01*
X16397493Y16218987D01*
X16184090Y16161805D01*
X15964000Y16142550D01*
X15743910Y16161805D01*
X15530507Y16218987D01*
X15330275Y16312356D01*
X15149299Y16439077D01*
X14993077Y16595299D01*
X14866356Y16776275D01*
X14772987Y16976507D01*
X14715805Y17189910D01*
X14696550Y17410000D01*
X14715805Y17630090D01*
X14772987Y17843493D01*
X14866356Y18043725D01*
X14993077Y18224701D01*
X15149299Y18380923D01*
X15330275Y18507644D01*
X15530507Y18601013D01*
X15743910Y18658195D01*
X15964000Y18677450D01*
X16184090Y18658195D01*
G37*
G36*
X21264090Y18658195D02*
G01*
X21477493Y18601013D01*
X21677725Y18507644D01*
X21858701Y18380923D01*
X22014923Y18224701D01*
X22141644Y18043725D01*
X22235013Y17843493D01*
X22292195Y17630090D01*
X22311450Y17410000D01*
X22292195Y17189910D01*
X22235013Y16976507D01*
X22141644Y16776275D01*
X22014923Y16595299D01*
X21858701Y16439077D01*
X21677725Y16312356D01*
X21477493Y16218987D01*
X21264090Y16161805D01*
X21044000Y16142550D01*
X20823910Y16161805D01*
X20610507Y16218987D01*
X20410275Y16312356D01*
X20229299Y16439077D01*
X20073077Y16595299D01*
X19946356Y16776275D01*
X19852987Y16976507D01*
X19795805Y17189910D01*
X19776550Y17410000D01*
X19795805Y17630090D01*
X19852987Y17843493D01*
X19946356Y18043725D01*
X20073077Y18224701D01*
X20229299Y18380923D01*
X20410275Y18507644D01*
X20610507Y18601013D01*
X20823910Y18658195D01*
X21044000Y18677450D01*
X21264090Y18658195D01*
G37*
G36*
X18539320Y17980650D02*
G01*
X18573289Y17980650D01*
X18612236Y17971051D01*
X18652899Y17965697D01*
X18680734Y17954168D01*
X18707841Y17947486D01*
X18748942Y17925915D01*
X18791650Y17908224D01*
X18811135Y17893273D01*
X18830548Y17883084D01*
X18870236Y17847924D01*
X18910799Y17816799D01*
X18922326Y17801776D01*
X18934271Y17791194D01*
X18968528Y17741564D01*
X19002224Y17697650D01*
X19007302Y17685390D01*
X19012996Y17677141D01*
X19037694Y17612018D01*
X19059697Y17558899D01*
X19060684Y17551399D01*
X19062138Y17547566D01*
X19073395Y17454847D01*
X19079300Y17410000D01*
X19073395Y17365150D01*
X19062138Y17272435D01*
X19060684Y17268603D01*
X19059697Y17261101D01*
X19037690Y17207972D01*
X19012996Y17142860D01*
X19007303Y17134614D01*
X19002224Y17122350D01*
X18968521Y17078428D01*
X18934271Y17028807D01*
X18922328Y17018228D01*
X18910799Y17003201D01*
X18870228Y16972071D01*
X18830548Y16936917D01*
X18811139Y16926731D01*
X18791650Y16911776D01*
X18748933Y16894082D01*
X18707841Y16872515D01*
X18680738Y16865835D01*
X18652899Y16854303D01*
X18612233Y16848950D01*
X18573289Y16839350D01*
X18539320Y16839350D01*
X18504000Y16834700D01*
X18468680Y16839350D01*
X18434711Y16839350D01*
X18395765Y16848950D01*
X18355101Y16854303D01*
X18327262Y16865835D01*
X18300158Y16872515D01*
X18259062Y16894084D01*
X18216350Y16911776D01*
X18196862Y16926729D01*
X18177451Y16936917D01*
X18137764Y16972076D01*
X18097201Y17003201D01*
X18085673Y17018225D01*
X18073728Y17028807D01*
X18039468Y17078441D01*
X18005776Y17122350D01*
X18000697Y17134610D01*
X17995003Y17142860D01*
X17970298Y17208001D01*
X17948303Y17261101D01*
X17947315Y17268599D01*
X17945861Y17272435D01*
X17934591Y17365248D01*
X17928700Y17410000D01*
X17934591Y17454749D01*
X17945861Y17547566D01*
X17947316Y17551403D01*
X17948303Y17558899D01*
X17970293Y17611989D01*
X17995003Y17677141D01*
X18000698Y17685394D01*
X18005776Y17697650D01*
X18039461Y17741551D01*
X18073728Y17791194D01*
X18085675Y17801779D01*
X18097201Y17816799D01*
X18137756Y17847918D01*
X18177451Y17883084D01*
X18196866Y17893275D01*
X18216350Y17908224D01*
X18259053Y17925913D01*
X18300158Y17947486D01*
X18327267Y17954168D01*
X18355101Y17965697D01*
X18395762Y17971051D01*
X18434711Y17980650D01*
X18468680Y17980650D01*
X18504000Y17985300D01*
X18539320Y17980650D01*
G37*
G36*
X6345041Y19470242D02*
G01*
X6372547Y19470242D01*
X6404759Y19460784D01*
X6440152Y19455178D01*
X6462321Y19443883D01*
X6482974Y19437818D01*
X6516464Y19416295D01*
X6553053Y19397652D01*
X6566685Y19384020D01*
X6579797Y19375593D01*
X6610208Y19340497D01*
X6642652Y19308053D01*
X6648833Y19295922D01*
X6655167Y19288612D01*
X6677716Y19239235D01*
X6700178Y19195152D01*
X6701414Y19187343D01*
X6702977Y19183922D01*
X6713025Y19114039D01*
X6720000Y19070000D01*
X6713024Y19025958D01*
X6702977Y18956079D01*
X6701415Y18952659D01*
X6700178Y18944848D01*
X6677712Y18900757D01*
X6655167Y18851389D01*
X6648834Y18844082D01*
X6642652Y18831947D01*
X6610202Y18799498D01*
X6579797Y18764408D01*
X6566688Y18755984D01*
X6553053Y18742348D01*
X6516456Y18723702D01*
X6482974Y18702183D01*
X6462325Y18696120D01*
X6440152Y18684822D01*
X6404757Y18679217D01*
X6372547Y18669758D01*
X6345041Y18669758D01*
X6315000Y18665000D01*
X6284959Y18669758D01*
X6257453Y18669758D01*
X6225241Y18679217D01*
X6189848Y18684822D01*
X6167675Y18696120D01*
X6147025Y18702183D01*
X6113538Y18723704D01*
X6076947Y18742348D01*
X6063313Y18755982D01*
X6050202Y18764408D01*
X6019790Y18799505D01*
X5987348Y18831947D01*
X5981166Y18844079D01*
X5974832Y18851389D01*
X5952278Y18900776D01*
X5929822Y18944848D01*
X5928585Y18952656D01*
X5927022Y18956079D01*
X5916964Y19026027D01*
X5910000Y19070000D01*
X5916964Y19113971D01*
X5927022Y19183922D01*
X5928585Y19187346D01*
X5929822Y19195152D01*
X5952273Y19239216D01*
X5974832Y19288612D01*
X5981168Y19295925D01*
X5987348Y19308053D01*
X6019783Y19340489D01*
X6050202Y19375593D01*
X6063315Y19384021D01*
X6076947Y19397652D01*
X6113531Y19416293D01*
X6147025Y19437818D01*
X6167679Y19443883D01*
X6189848Y19455178D01*
X6225239Y19460784D01*
X6257453Y19470242D01*
X6284959Y19470242D01*
X6315000Y19475000D01*
X6345041Y19470242D01*
G37*
G36*
X3036801Y21079763D02*
G01*
X3105709Y21075428D01*
X3143572Y21065707D01*
X3185115Y21060237D01*
X3218123Y21046565D01*
X3248329Y21038809D01*
X3283418Y21019519D01*
X3325000Y21002295D01*
X3350901Y20982420D01*
X3375620Y20968831D01*
X3406935Y20939424D01*
X3445122Y20910122D01*
X3463131Y20886652D01*
X3481514Y20869389D01*
X3506077Y20830684D01*
X3537295Y20790000D01*
X3547440Y20765506D01*
X3559350Y20746740D01*
X3574401Y20700418D01*
X3595237Y20650115D01*
X3598296Y20626875D01*
X3604238Y20608589D01*
X3607472Y20557178D01*
X3615000Y20500000D01*
X3612340Y20479800D01*
X3613359Y20463612D01*
X3603194Y20410327D01*
X3595237Y20349885D01*
X3588614Y20333897D01*
X3586140Y20320925D01*
X3561935Y20269489D01*
X3537295Y20210000D01*
X3528626Y20198704D01*
X3524289Y20189485D01*
X3486529Y20143842D01*
X3445122Y20089878D01*
X3436265Y20083083D01*
X3431699Y20077562D01*
X3382273Y20041653D01*
X3325000Y19997705D01*
X3317519Y19994607D01*
X3314177Y19992178D01*
X3257073Y19969570D01*
X3185115Y19939763D01*
X3180136Y19939108D01*
X3179115Y19938703D01*
X3128339Y19932289D01*
X3035000Y19920000D01*
X3031070Y19920000D01*
X2236969Y19920000D01*
X2235000Y19920000D01*
X2233197Y19920238D01*
X2164290Y19924573D01*
X2126433Y19934294D01*
X2084885Y19939763D01*
X2051872Y19953438D01*
X2021670Y19961192D01*
X1986584Y19980481D01*
X1945000Y19997705D01*
X1919095Y20017582D01*
X1894379Y20031170D01*
X1863065Y20060576D01*
X1824878Y20089878D01*
X1806867Y20113350D01*
X1788485Y20130612D01*
X1763920Y20169320D01*
X1732705Y20210000D01*
X1722559Y20234493D01*
X1710649Y20253261D01*
X1695595Y20299590D01*
X1674763Y20349885D01*
X1671703Y20373122D01*
X1665761Y20391412D01*
X1662525Y20442837D01*
X1655000Y20500000D01*
X1657658Y20520196D01*
X1656640Y20536389D01*
X1666808Y20589694D01*
X1674763Y20650115D01*
X1681383Y20666098D01*
X1683859Y20679076D01*
X1708074Y20730538D01*
X1732705Y20790000D01*
X1741369Y20801292D01*
X1745710Y20810516D01*
X1783493Y20856190D01*
X1824878Y20910122D01*
X1833729Y20916914D01*
X1838300Y20922439D01*
X1887768Y20958380D01*
X1945000Y21002295D01*
X1952474Y21005392D01*
X1955822Y21007823D01*
X2013002Y21030463D01*
X2084885Y21060237D01*
X2089857Y21060892D01*
X2090884Y21061298D01*
X2141799Y21067730D01*
X2235000Y21080000D01*
X3035000Y21080000D01*
X3036801Y21079763D01*
G37*
G36*
X7366801Y21079763D02*
G01*
X7435709Y21075428D01*
X7473572Y21065707D01*
X7515115Y21060237D01*
X7548123Y21046565D01*
X7578329Y21038809D01*
X7613418Y21019519D01*
X7655000Y21002295D01*
X7680901Y20982420D01*
X7705620Y20968831D01*
X7736935Y20939424D01*
X7775122Y20910122D01*
X7793131Y20886652D01*
X7811514Y20869389D01*
X7836077Y20830684D01*
X7867295Y20790000D01*
X7877440Y20765506D01*
X7889350Y20746740D01*
X7904401Y20700418D01*
X7925237Y20650115D01*
X7928296Y20626875D01*
X7934238Y20608589D01*
X7937472Y20557178D01*
X7945000Y20500000D01*
X7942340Y20479800D01*
X7943359Y20463612D01*
X7933194Y20410327D01*
X7925237Y20349885D01*
X7918614Y20333897D01*
X7916140Y20320925D01*
X7891935Y20269489D01*
X7867295Y20210000D01*
X7858626Y20198704D01*
X7854289Y20189485D01*
X7816529Y20143842D01*
X7775122Y20089878D01*
X7766265Y20083083D01*
X7761699Y20077562D01*
X7712273Y20041653D01*
X7655000Y19997705D01*
X7647519Y19994607D01*
X7644177Y19992178D01*
X7587073Y19969570D01*
X7515115Y19939763D01*
X7510136Y19939108D01*
X7509115Y19938703D01*
X7458339Y19932289D01*
X7365000Y19920000D01*
X7361070Y19920000D01*
X6266969Y19920000D01*
X6265000Y19920000D01*
X6263197Y19920238D01*
X6194290Y19924573D01*
X6156433Y19934294D01*
X6114885Y19939763D01*
X6081872Y19953438D01*
X6051670Y19961192D01*
X6016584Y19980481D01*
X5975000Y19997705D01*
X5949095Y20017582D01*
X5924379Y20031170D01*
X5893065Y20060576D01*
X5854878Y20089878D01*
X5836867Y20113350D01*
X5818485Y20130612D01*
X5793920Y20169320D01*
X5762705Y20210000D01*
X5752559Y20234493D01*
X5740649Y20253261D01*
X5725595Y20299590D01*
X5704763Y20349885D01*
X5701703Y20373122D01*
X5695761Y20391412D01*
X5692525Y20442837D01*
X5685000Y20500000D01*
X5687658Y20520196D01*
X5686640Y20536389D01*
X5696808Y20589694D01*
X5704763Y20650115D01*
X5711383Y20666098D01*
X5713859Y20679076D01*
X5738074Y20730538D01*
X5762705Y20790000D01*
X5771369Y20801292D01*
X5775710Y20810516D01*
X5813493Y20856190D01*
X5854878Y20910122D01*
X5863729Y20916914D01*
X5868300Y20922439D01*
X5917768Y20958380D01*
X5975000Y21002295D01*
X5982474Y21005392D01*
X5985822Y21007823D01*
X6043002Y21030463D01*
X6114885Y21060237D01*
X6119857Y21060892D01*
X6120884Y21061298D01*
X6171799Y21067730D01*
X6265000Y21080000D01*
X7365000Y21080000D01*
X7366801Y21079763D01*
G37*
G36*
X47927600Y26590494D02*
G01*
X48220107Y26532311D01*
X48502518Y26436445D01*
X48770000Y26304538D01*
X49017976Y26138846D01*
X49242203Y25942203D01*
X49438846Y25717976D01*
X49604538Y25470000D01*
X49736445Y25202518D01*
X49832311Y24920107D01*
X49890494Y24627600D01*
X49910000Y24330000D01*
X49890494Y24032400D01*
X49832311Y23739893D01*
X49736445Y23457482D01*
X49604538Y23190000D01*
X49438846Y22942024D01*
X49242203Y22717797D01*
X49017976Y22521154D01*
X48770000Y22355462D01*
X48502518Y22223555D01*
X48220107Y22127689D01*
X47927600Y22069506D01*
X47630000Y22050000D01*
X47332400Y22069506D01*
X47039893Y22127689D01*
X46757482Y22223555D01*
X46490000Y22355462D01*
X46242024Y22521154D01*
X46017797Y22717797D01*
X45821154Y22942024D01*
X45655462Y23190000D01*
X45523555Y23457482D01*
X45427689Y23739893D01*
X45369506Y24032400D01*
X45350000Y24330000D01*
X45369506Y24627600D01*
X45427689Y24920107D01*
X45523555Y25202518D01*
X45655462Y25470000D01*
X45821154Y25717976D01*
X46017797Y25942203D01*
X46242024Y26138846D01*
X46490000Y26304538D01*
X46757482Y26436445D01*
X47039893Y26532311D01*
X47332400Y26590494D01*
X47630000Y26610000D01*
X47927600Y26590494D01*
G37*
G36*
X11207600Y26760494D02*
G01*
X11500107Y26702311D01*
X11782518Y26606445D01*
X12050000Y26474538D01*
X12297976Y26308846D01*
X12522203Y26112203D01*
X12718846Y25887976D01*
X12884538Y25640000D01*
X13016445Y25372518D01*
X13112311Y25090107D01*
X13170494Y24797600D01*
X13190000Y24500000D01*
X13170494Y24202400D01*
X13112311Y23909893D01*
X13016445Y23627482D01*
X12884538Y23360000D01*
X12718846Y23112024D01*
X12522203Y22887797D01*
X12297976Y22691154D01*
X12050000Y22525462D01*
X11782518Y22393555D01*
X11500107Y22297689D01*
X11207600Y22239506D01*
X10910000Y22220000D01*
X10612400Y22239506D01*
X10319893Y22297689D01*
X10037482Y22393555D01*
X9770000Y22525462D01*
X9522024Y22691154D01*
X9297797Y22887797D01*
X9101154Y23112024D01*
X8935462Y23360000D01*
X8803555Y23627482D01*
X8707689Y23909893D01*
X8649506Y24202400D01*
X8630000Y24500000D01*
X8649506Y24797600D01*
X8707689Y25090107D01*
X8803555Y25372518D01*
X8935462Y25640000D01*
X9101154Y25887976D01*
X9297797Y26112203D01*
X9522024Y26308846D01*
X9770000Y26474538D01*
X10037482Y26606445D01*
X10319893Y26702311D01*
X10612400Y26760494D01*
X10910000Y26780000D01*
X11207600Y26760494D01*
G37*
M02*
