%TF.GenerationSoftware,KiCad,Pcbnew,7.0.8*%
%TF.CreationDate,2024-01-29T14:11:28+05:30*%
%TF.ProjectId,stm32_ble,73746d33-325f-4626-9c65-2e6b69636164,Version : 1*%
%TF.SameCoordinates,PX6eac850PY632ea00*%
%TF.FileFunction,Copper,L3,Inr*%
%TF.FilePolarity,Positive*%
%FSLAX46Y46*%
G04 Gerber Fmt 4.6, Leading zero omitted, Abs format (unit mm)*
G04 Created by KiCad (PCBNEW 7.0.8) date 2024-01-29 14:11:28*
%MOMM*%
%LPD*%
G01*
G04 APERTURE LIST*
G04 Aperture macros list*
%AMRoundRect*
0 Rectangle with rounded corners*
0 $1 Rounding radius*
0 $2 $3 $4 $5 $6 $7 $8 $9 X,Y pos of 4 corners*
0 Add a 4 corners polygon primitive as box body*
4,1,4,$2,$3,$4,$5,$6,$7,$8,$9,$2,$3,0*
0 Add four circle primitives for the rounded corners*
1,1,$1+$1,$2,$3*
1,1,$1+$1,$4,$5*
1,1,$1+$1,$6,$7*
1,1,$1+$1,$8,$9*
0 Add four rect primitives between the rounded corners*
20,1,$1+$1,$2,$3,$4,$5,0*
20,1,$1+$1,$4,$5,$6,$7,0*
20,1,$1+$1,$6,$7,$8,$9,0*
20,1,$1+$1,$8,$9,$2,$3,0*%
G04 Aperture macros list end*
%TA.AperFunction,ComponentPad*%
%ADD10O,2.100000X1.000000*%
%TD*%
%TA.AperFunction,ComponentPad*%
%ADD11O,1.800000X1.000000*%
%TD*%
%TA.AperFunction,ComponentPad*%
%ADD12C,0.700000*%
%TD*%
%TA.AperFunction,ComponentPad*%
%ADD13C,4.400000*%
%TD*%
%TA.AperFunction,ComponentPad*%
%ADD14RoundRect,0.200000X-0.450000X0.200000X-0.450000X-0.200000X0.450000X-0.200000X0.450000X0.200000X0*%
%TD*%
%TA.AperFunction,ComponentPad*%
%ADD15O,1.300000X0.800000*%
%TD*%
%TA.AperFunction,ViaPad*%
%ADD16C,0.700000*%
%TD*%
%TA.AperFunction,ViaPad*%
%ADD17C,0.800000*%
%TD*%
G04 APERTURE END LIST*
D10*
%TO.N,GND*%
%TO.C,J3*%
X6815000Y20500000D03*
D11*
X2635000Y20500000D03*
D10*
X6815000Y11860000D03*
D11*
X2635000Y11860000D03*
%TD*%
D12*
%TO.N,GND*%
%TO.C,H1*%
X9260000Y24500000D03*
X9743274Y25666726D03*
X9743274Y23333274D03*
X10910000Y26150000D03*
D13*
X10910000Y24500000D03*
D12*
X10910000Y22850000D03*
X12076726Y25666726D03*
X12076726Y23333274D03*
X12560000Y24500000D03*
%TD*%
%TO.N,GND*%
%TO.C,H2*%
X9550000Y3370000D03*
X10033274Y4536726D03*
X10033274Y2203274D03*
X11200000Y5020000D03*
D13*
X11200000Y3370000D03*
D12*
X11200000Y1720000D03*
X12366726Y4536726D03*
X12366726Y2203274D03*
X12850000Y3370000D03*
%TD*%
%TO.N,GND*%
%TO.C,H4*%
X45743274Y3476726D03*
X46226548Y4643452D03*
X46226548Y2310000D03*
X47393274Y5126726D03*
D13*
X47393274Y3476726D03*
D12*
X47393274Y1826726D03*
X48560000Y4643452D03*
X48560000Y2310000D03*
X49043274Y3476726D03*
%TD*%
%TO.N,GND*%
%TO.C,H3*%
X45980000Y24330000D03*
X46463274Y25496726D03*
X46463274Y23163274D03*
X47630000Y25980000D03*
D13*
X47630000Y24330000D03*
D12*
X47630000Y22680000D03*
X48796726Y25496726D03*
X48796726Y23163274D03*
X49280000Y24330000D03*
%TD*%
D14*
%TO.N,+3.3V*%
%TO.C,J4*%
X5370000Y7330000D03*
D15*
%TO.N,/UART_TX*%
X5370000Y6080000D03*
%TO.N,/UART_RX*%
X5370000Y4830000D03*
%TO.N,GND*%
X5370000Y3580000D03*
%TD*%
D16*
%TO.N,+3.3V*%
X28920000Y24530000D03*
X18420000Y19730000D03*
X25110000Y18430000D03*
X33540000Y8460000D03*
X23420000Y12000000D03*
X37715000Y19300000D03*
X26320000Y4030000D03*
X13990000Y9080000D03*
X14040000Y8210000D03*
X36820000Y16630000D03*
%TO.N,GND*%
X32020000Y17530000D03*
X23265000Y17430000D03*
X26975000Y21830000D03*
X26975000Y20830000D03*
X16020000Y12330000D03*
X31820000Y15430000D03*
X38120000Y24675000D03*
X24720000Y13430000D03*
X28820000Y16430000D03*
X30620000Y9930000D03*
X24670000Y9330000D03*
X48123701Y14299029D03*
X26075000Y23230000D03*
X20060000Y9010000D03*
X28820000Y14430000D03*
X37460000Y18200000D03*
X44520000Y16230000D03*
X42920000Y19275000D03*
X48120000Y20230000D03*
X44420000Y18230000D03*
X9450000Y14500000D03*
X40720000Y6330000D03*
X25670000Y9290000D03*
X34265000Y21765000D03*
X9030000Y9960000D03*
X8920000Y11530000D03*
X30620000Y16530000D03*
X33320000Y18530000D03*
X39860000Y14705000D03*
X39220000Y19475000D03*
X11520000Y15130000D03*
X26820000Y9630000D03*
X33120000Y14530000D03*
X3475000Y10030000D03*
X33220000Y16530000D03*
X29620000Y15430000D03*
X38250000Y16150000D03*
X38820000Y3130000D03*
D17*
X16985000Y8210000D03*
D16*
X3175000Y22430000D03*
X28820000Y18530000D03*
X31120000Y18530000D03*
X34620000Y9930000D03*
X9020000Y20875000D03*
X30620000Y14530000D03*
X37020000Y20985000D03*
X29720000Y17530000D03*
D17*
%TO.N,/BOOT0*%
X31630000Y8630000D03*
X38320000Y8030000D03*
%TD*%
%TA.AperFunction,Conductor*%
%TO.N,GND*%
G36*
X49821806Y27029322D02*
G01*
X49845514Y27026987D01*
X49949217Y27016773D01*
X49963435Y27013945D01*
X50080717Y26978369D01*
X50094112Y26972820D01*
X50202193Y26915049D01*
X50214254Y26906990D01*
X50308986Y26829245D01*
X50319244Y26818987D01*
X50396989Y26724255D01*
X50405048Y26712194D01*
X50462817Y26604117D01*
X50468369Y26590714D01*
X50503943Y26473441D01*
X50506773Y26459214D01*
X50519322Y26331808D01*
X50519500Y26328179D01*
X50519500Y1331822D01*
X50519322Y1328193D01*
X50506773Y1200787D01*
X50503943Y1186560D01*
X50468369Y1069287D01*
X50462817Y1055884D01*
X50405048Y947807D01*
X50396989Y935746D01*
X50319244Y841014D01*
X50308986Y830756D01*
X50214254Y753011D01*
X50202193Y744952D01*
X50094116Y687183D01*
X50080713Y681631D01*
X49963440Y646057D01*
X49949213Y643227D01*
X49821807Y630678D01*
X49818178Y630500D01*
X821822Y630500D01*
X818193Y630678D01*
X690786Y643227D01*
X676559Y646057D01*
X559286Y681631D01*
X545883Y687183D01*
X437806Y744952D01*
X425745Y753011D01*
X331013Y830756D01*
X320755Y841014D01*
X243010Y935746D01*
X234951Y947807D01*
X177182Y1055884D01*
X171630Y1069287D01*
X136055Y1186565D01*
X133227Y1200783D01*
X120678Y1328194D01*
X120500Y1331822D01*
X120500Y3455000D01*
X4329023Y3455000D01*
X4335123Y3400857D01*
X4335126Y3400846D01*
X4394663Y3230698D01*
X4490574Y3078056D01*
X4618055Y2950575D01*
X4770697Y2854664D01*
X4940845Y2795127D01*
X4940856Y2795124D01*
X5075079Y2780000D01*
X5245000Y2780000D01*
X5245000Y3362850D01*
X5272455Y3344505D01*
X5345376Y3330000D01*
X5394624Y3330000D01*
X5467545Y3344505D01*
X5495000Y3362850D01*
X5495000Y2780000D01*
X5664921Y2780000D01*
X5799143Y2795124D01*
X5799154Y2795127D01*
X5969302Y2854664D01*
X6121944Y2950575D01*
X6249425Y3078056D01*
X6345336Y3230698D01*
X6404873Y3400846D01*
X6404876Y3400857D01*
X6410977Y3455000D01*
X5587150Y3455000D01*
X5605495Y3482455D01*
X5624898Y3580000D01*
X5605495Y3677545D01*
X5587150Y3705000D01*
X6410977Y3705000D01*
X6404876Y3759144D01*
X6404873Y3759155D01*
X6345336Y3929303D01*
X6282066Y4029997D01*
X25664722Y4029997D01*
X25683761Y3873192D01*
X25683764Y3873178D01*
X25739778Y3725479D01*
X25829516Y3595471D01*
X25829517Y3595470D01*
X25947760Y3490717D01*
X26087635Y3417304D01*
X26241015Y3379500D01*
X26241019Y3379500D01*
X26398981Y3379500D01*
X26398985Y3379500D01*
X26552365Y3417304D01*
X26692240Y3490717D01*
X26810483Y3595470D01*
X26900220Y3725477D01*
X26956237Y3873182D01*
X26975278Y4030000D01*
X26956237Y4186818D01*
X26941224Y4226405D01*
X26900221Y4334522D01*
X26810483Y4464530D01*
X26692240Y4569283D01*
X26672244Y4579778D01*
X26552366Y4642696D01*
X26398987Y4680500D01*
X26398985Y4680500D01*
X26241015Y4680500D01*
X26241012Y4680500D01*
X26087633Y4642696D01*
X25947761Y4569284D01*
X25829516Y4464530D01*
X25739779Y4334522D01*
X25739778Y4334522D01*
X25683764Y4186823D01*
X25683761Y4186809D01*
X25664722Y4030004D01*
X25664722Y4029997D01*
X6282066Y4029997D01*
X6249425Y4081945D01*
X6121944Y4209426D01*
X6121938Y4209431D01*
X6121382Y4209780D01*
X6121189Y4210028D01*
X6118693Y4212019D01*
X6119173Y4212622D01*
X6090322Y4249749D01*
X6092220Y4300332D01*
X6105366Y4321500D01*
X6200734Y4429148D01*
X6279790Y4579775D01*
X6320500Y4744944D01*
X6320500Y4915056D01*
X6279790Y5080225D01*
X6200734Y5230852D01*
X6087929Y5358183D01*
X6035893Y5394101D01*
X6006584Y5435368D01*
X6010657Y5485823D01*
X6035893Y5515900D01*
X6087929Y5551817D01*
X6200734Y5679148D01*
X6279790Y5829775D01*
X6320500Y5994944D01*
X6320500Y6165056D01*
X6279790Y6330225D01*
X6200734Y6480852D01*
X6089451Y6606465D01*
X6070869Y6653547D01*
X6086898Y6701561D01*
X6100493Y6714773D01*
X6177546Y6772454D01*
X6263796Y6887669D01*
X6314091Y7022517D01*
X6320500Y7082127D01*
X6320499Y7577872D01*
X6314091Y7637483D01*
X6290002Y7702070D01*
X6263797Y7772330D01*
X6263796Y7772331D01*
X6235971Y7809500D01*
X6177546Y7887546D01*
X6091295Y7952114D01*
X6062330Y7973797D01*
X6062329Y7973798D01*
X5927487Y8024090D01*
X5927484Y8024091D01*
X5927483Y8024091D01*
X5867873Y8030500D01*
X4872126Y8030500D01*
X4812514Y8024091D01*
X4677670Y7973798D01*
X4677669Y7973797D01*
X4562454Y7887546D01*
X4476203Y7772331D01*
X4476202Y7772330D01*
X4425910Y7637488D01*
X4425909Y7637483D01*
X4419500Y7577874D01*
X4419500Y7082128D01*
X4425909Y7022515D01*
X4476202Y6887671D01*
X4476203Y6887670D01*
X4476204Y6887669D01*
X4562454Y6772454D01*
X4620130Y6729278D01*
X4639504Y6714774D01*
X4667207Y6672408D01*
X4661197Y6622147D01*
X4650547Y6606463D01*
X4539269Y6480857D01*
X4539267Y6480854D01*
X4460209Y6330223D01*
X4419500Y6165059D01*
X4419500Y6165056D01*
X4419500Y5994944D01*
X4460210Y5829775D01*
X4539266Y5679148D01*
X4539267Y5679147D01*
X4539269Y5679144D01*
X4652071Y5551817D01*
X4704104Y5515901D01*
X4733415Y5474632D01*
X4729342Y5424177D01*
X4704104Y5394099D01*
X4652071Y5358184D01*
X4539269Y5230857D01*
X4539267Y5230854D01*
X4460209Y5080223D01*
X4419500Y4915059D01*
X4419500Y4744942D01*
X4460209Y4579778D01*
X4460210Y4579775D01*
X4465717Y4569283D01*
X4539267Y4429147D01*
X4539270Y4429144D01*
X4634630Y4321503D01*
X4653213Y4274418D01*
X4637184Y4226405D01*
X4621223Y4212112D01*
X4621301Y4212014D01*
X4619604Y4210661D01*
X4618624Y4209783D01*
X4618055Y4209426D01*
X4490574Y4081945D01*
X4394663Y3929303D01*
X4335126Y3759155D01*
X4335123Y3759144D01*
X4329023Y3705000D01*
X5152850Y3705000D01*
X5134505Y3677545D01*
X5115102Y3580000D01*
X5134505Y3482455D01*
X5152850Y3455000D01*
X4329023Y3455000D01*
X120500Y3455000D01*
X120500Y9079997D01*
X13334722Y9079997D01*
X13353761Y8923192D01*
X13353764Y8923178D01*
X13409778Y8775479D01*
X13495825Y8650819D01*
X13508597Y8601838D01*
X13495826Y8566747D01*
X13459778Y8514522D01*
X13403764Y8366823D01*
X13403761Y8366809D01*
X13384722Y8210004D01*
X13384722Y8209997D01*
X13403761Y8053192D01*
X13403764Y8053178D01*
X13459778Y7905479D01*
X13549516Y7775471D01*
X13549517Y7775470D01*
X13667760Y7670717D01*
X13807635Y7597304D01*
X13961015Y7559500D01*
X13961019Y7559500D01*
X14118981Y7559500D01*
X14118985Y7559500D01*
X14272365Y7597304D01*
X14412240Y7670717D01*
X14530483Y7775470D01*
X14620220Y7905477D01*
X14676237Y8053182D01*
X14688658Y8155479D01*
X14695278Y8209997D01*
X14695278Y8210004D01*
X14676238Y8366809D01*
X14676237Y8366818D01*
X14640898Y8460000D01*
X14620221Y8514522D01*
X14559951Y8601838D01*
X14540514Y8629997D01*
X30924355Y8629997D01*
X30944859Y8461129D01*
X31005181Y8302071D01*
X31101816Y8162072D01*
X31224727Y8053182D01*
X31229148Y8049266D01*
X31379775Y7970210D01*
X31544944Y7929500D01*
X31544948Y7929500D01*
X31715052Y7929500D01*
X31715056Y7929500D01*
X31880225Y7970210D01*
X32030852Y8049266D01*
X32158183Y8162071D01*
X32254818Y8302070D01*
X32314711Y8459997D01*
X32884722Y8459997D01*
X32903761Y8303192D01*
X32903764Y8303178D01*
X32959778Y8155479D01*
X33046387Y8030004D01*
X33049517Y8025470D01*
X33167760Y7920717D01*
X33307635Y7847304D01*
X33461015Y7809500D01*
X33461019Y7809500D01*
X33618981Y7809500D01*
X33618985Y7809500D01*
X33772365Y7847304D01*
X33912240Y7920717D01*
X34030483Y8025470D01*
X34033608Y8029997D01*
X37614355Y8029997D01*
X37634859Y7861129D01*
X37695181Y7702071D01*
X37780910Y7577873D01*
X37791817Y7562071D01*
X37919148Y7449266D01*
X38069775Y7370210D01*
X38234944Y7329500D01*
X38234948Y7329500D01*
X38405052Y7329500D01*
X38405056Y7329500D01*
X38570225Y7370210D01*
X38720852Y7449266D01*
X38848183Y7562071D01*
X38944818Y7702070D01*
X39005140Y7861128D01*
X39010525Y7905479D01*
X39025645Y8029997D01*
X39025645Y8030004D01*
X39005140Y8198872D01*
X38944818Y8357930D01*
X38848183Y8497929D01*
X38720856Y8610731D01*
X38720853Y8610733D01*
X38720852Y8610734D01*
X38570225Y8689790D01*
X38570222Y8689791D01*
X38405058Y8730500D01*
X38405056Y8730500D01*
X38234944Y8730500D01*
X38234941Y8730500D01*
X38069777Y8689791D01*
X37919146Y8610733D01*
X37919143Y8610731D01*
X37791816Y8497929D01*
X37695181Y8357930D01*
X37634859Y8198872D01*
X37614355Y8030004D01*
X37614355Y8029997D01*
X34033608Y8029997D01*
X34120220Y8155477D01*
X34176237Y8303182D01*
X34195278Y8460000D01*
X34195141Y8461128D01*
X34176238Y8616809D01*
X34176237Y8616818D01*
X34163342Y8650819D01*
X34120221Y8764522D01*
X34030483Y8894530D01*
X33912240Y8999283D01*
X33900139Y9005634D01*
X33772366Y9072696D01*
X33618987Y9110500D01*
X33618985Y9110500D01*
X33461015Y9110500D01*
X33461012Y9110500D01*
X33307633Y9072696D01*
X33167761Y8999284D01*
X33049516Y8894530D01*
X32959779Y8764522D01*
X32959778Y8764522D01*
X32903764Y8616823D01*
X32903761Y8616809D01*
X32884722Y8460004D01*
X32884722Y8459997D01*
X32314711Y8459997D01*
X32315140Y8461128D01*
X32327965Y8566747D01*
X32335645Y8629997D01*
X32335645Y8630004D01*
X32315140Y8798872D01*
X32254818Y8957930D01*
X32158183Y9097929D01*
X32030856Y9210731D01*
X32030853Y9210733D01*
X32030852Y9210734D01*
X31880225Y9289790D01*
X31880222Y9289791D01*
X31715058Y9330500D01*
X31715056Y9330500D01*
X31544944Y9330500D01*
X31544941Y9330500D01*
X31379777Y9289791D01*
X31229146Y9210733D01*
X31229143Y9210731D01*
X31101816Y9097929D01*
X31005181Y8957930D01*
X30944859Y8798872D01*
X30924355Y8630004D01*
X30924355Y8629997D01*
X14540514Y8629997D01*
X14534173Y8639184D01*
X14521402Y8688163D01*
X14534174Y8723256D01*
X14570220Y8775477D01*
X14626237Y8923182D01*
X14645278Y9080000D01*
X14626237Y9236818D01*
X14618213Y9257975D01*
X14570221Y9384522D01*
X14480483Y9514530D01*
X14362240Y9619283D01*
X14350139Y9625634D01*
X14222366Y9692696D01*
X14068987Y9730500D01*
X14068985Y9730500D01*
X13911015Y9730500D01*
X13911012Y9730500D01*
X13757633Y9692696D01*
X13617761Y9619284D01*
X13499516Y9514530D01*
X13409779Y9384522D01*
X13409778Y9384522D01*
X13353764Y9236823D01*
X13353761Y9236809D01*
X13334722Y9080004D01*
X13334722Y9079997D01*
X120500Y9079997D01*
X120500Y11985001D01*
X1341462Y11985001D01*
X1341463Y11985000D01*
X1958658Y11985000D01*
X1931105Y11888160D01*
X1941454Y11776479D01*
X1962108Y11735000D01*
X1341463Y11735000D01*
X1374334Y11580353D01*
X1374335Y11580352D01*
X1451283Y11407523D01*
X1451287Y11407516D01*
X1562483Y11254469D01*
X1703079Y11127875D01*
X1866923Y11033280D01*
X2046844Y10974820D01*
X2187841Y10960000D01*
X2510000Y10960000D01*
X2510000Y11560000D01*
X2760000Y11560000D01*
X2760000Y10960000D01*
X3082159Y10960000D01*
X3223155Y10974820D01*
X3403076Y11033280D01*
X3566920Y11127875D01*
X3707516Y11254469D01*
X3818712Y11407515D01*
X3818718Y11407526D01*
X3895663Y11580348D01*
X3895665Y11580353D01*
X3928537Y11735000D01*
X3311342Y11735000D01*
X3338895Y11831840D01*
X3328546Y11943521D01*
X3307892Y11985000D01*
X3928537Y11985000D01*
X3928537Y11985001D01*
X5371462Y11985001D01*
X5371463Y11985000D01*
X5988658Y11985000D01*
X5961105Y11888160D01*
X5971454Y11776479D01*
X5992108Y11735000D01*
X5371463Y11735000D01*
X5404334Y11580353D01*
X5404335Y11580352D01*
X5481283Y11407523D01*
X5481287Y11407516D01*
X5592483Y11254469D01*
X5733079Y11127875D01*
X5896923Y11033280D01*
X6076844Y10974820D01*
X6217841Y10960000D01*
X6690000Y10960000D01*
X6690000Y11560000D01*
X6940000Y11560000D01*
X6940000Y10960000D01*
X7412159Y10960000D01*
X7553155Y10974820D01*
X7733076Y11033280D01*
X7896920Y11127875D01*
X8037516Y11254469D01*
X8148712Y11407515D01*
X8148718Y11407526D01*
X8225663Y11580348D01*
X8225665Y11580353D01*
X8258537Y11735000D01*
X7641342Y11735000D01*
X7668895Y11831840D01*
X7658546Y11943521D01*
X7637892Y11985000D01*
X8258537Y11985000D01*
X8258537Y11985001D01*
X8225665Y12139648D01*
X8225664Y12139649D01*
X8160614Y12285754D01*
X16728342Y12285754D01*
X16759023Y12111759D01*
X16829001Y11949529D01*
X16829002Y11949528D01*
X16934509Y11807808D01*
X16934515Y11807803D01*
X17069849Y11694243D01*
X17069852Y11694242D01*
X17069854Y11694240D01*
X17227741Y11614946D01*
X17399660Y11574200D01*
X17532019Y11574200D01*
X17663486Y11589566D01*
X17829511Y11649995D01*
X17977126Y11747082D01*
X18098372Y11875595D01*
X18186712Y12028605D01*
X18237385Y12197863D01*
X18242504Y12285754D01*
X18760342Y12285754D01*
X18791023Y12111759D01*
X18861001Y11949529D01*
X18861002Y11949528D01*
X18966509Y11807808D01*
X18966515Y11807803D01*
X19101849Y11694243D01*
X19101852Y11694242D01*
X19101854Y11694240D01*
X19259741Y11614946D01*
X19431660Y11574200D01*
X19564019Y11574200D01*
X19695486Y11589566D01*
X19861511Y11649995D01*
X20009126Y11747082D01*
X20130372Y11875595D01*
X20202195Y11999997D01*
X22764722Y11999997D01*
X22783761Y11843192D01*
X22783764Y11843178D01*
X22839778Y11695479D01*
X22923491Y11574200D01*
X22929517Y11565470D01*
X23047760Y11460717D01*
X23187635Y11387304D01*
X23341015Y11349500D01*
X23341019Y11349500D01*
X23498981Y11349500D01*
X23498985Y11349500D01*
X23652365Y11387304D01*
X23792240Y11460717D01*
X23910483Y11565470D01*
X24000220Y11695477D01*
X24056237Y11843182D01*
X24075278Y12000000D01*
X24056237Y12156818D01*
X24048213Y12177975D01*
X24000221Y12304522D01*
X23910483Y12434530D01*
X23879317Y12462140D01*
X23792240Y12539283D01*
X23775170Y12548242D01*
X23652366Y12612696D01*
X23498987Y12650500D01*
X23498985Y12650500D01*
X23341015Y12650500D01*
X23341012Y12650500D01*
X23187633Y12612696D01*
X23047761Y12539284D01*
X22929516Y12434530D01*
X22839779Y12304522D01*
X22839778Y12304522D01*
X22783764Y12156823D01*
X22783761Y12156809D01*
X22764722Y12000004D01*
X22764722Y11999997D01*
X20202195Y11999997D01*
X20218712Y12028605D01*
X20269385Y12197863D01*
X20279658Y12374245D01*
X20248977Y12548241D01*
X20178998Y12710472D01*
X20073491Y12852192D01*
X20068368Y12856491D01*
X19938150Y12965758D01*
X19780260Y13045054D01*
X19780256Y13045055D01*
X19608340Y13085800D01*
X19475981Y13085800D01*
X19344511Y13070434D01*
X19178487Y13010005D01*
X19178486Y13010005D01*
X19030874Y12912918D01*
X18909626Y12784403D01*
X18821288Y12631396D01*
X18821287Y12631394D01*
X18770615Y12462140D01*
X18770615Y12462137D01*
X18760342Y12285754D01*
X18242504Y12285754D01*
X18247658Y12374245D01*
X18216977Y12548241D01*
X18146998Y12710472D01*
X18041491Y12852192D01*
X18036368Y12856491D01*
X17906150Y12965758D01*
X17748260Y13045054D01*
X17748256Y13045055D01*
X17576340Y13085800D01*
X17443981Y13085800D01*
X17312511Y13070434D01*
X17146487Y13010005D01*
X17146486Y13010005D01*
X16998874Y12912918D01*
X16877626Y12784403D01*
X16789288Y12631396D01*
X16789287Y12631394D01*
X16738615Y12462140D01*
X16738615Y12462137D01*
X16728342Y12285754D01*
X8160614Y12285754D01*
X8148716Y12312478D01*
X8148712Y12312485D01*
X8037516Y12465532D01*
X7896920Y12592126D01*
X7733076Y12686721D01*
X7553155Y12745181D01*
X7412159Y12760000D01*
X6940000Y12760000D01*
X6940000Y12160000D01*
X6690000Y12160000D01*
X6690000Y12776648D01*
X6683153Y12791331D01*
X6696254Y12840226D01*
X6711816Y12856483D01*
X6732583Y12872417D01*
X6826433Y12994724D01*
X6885429Y13137154D01*
X6905552Y13290000D01*
X6885429Y13442846D01*
X6826433Y13585276D01*
X6732583Y13707583D01*
X6610276Y13801433D01*
X6610275Y13801434D01*
X6467845Y13860430D01*
X6380006Y13871994D01*
X6353373Y13875500D01*
X6276627Y13875500D01*
X6252769Y13872359D01*
X6162154Y13860430D01*
X6019724Y13801434D01*
X5897417Y13707583D01*
X5803566Y13585276D01*
X5744570Y13442846D01*
X5724448Y13290000D01*
X5744570Y13137155D01*
X5803566Y12994725D01*
X5803567Y12994724D01*
X5897417Y12872417D01*
X5955699Y12827696D01*
X5982895Y12785005D01*
X5976288Y12734819D01*
X5938967Y12700622D01*
X5933518Y12698611D01*
X5896922Y12686720D01*
X5733079Y12592126D01*
X5592483Y12465532D01*
X5481287Y12312486D01*
X5481281Y12312475D01*
X5404336Y12139653D01*
X5404334Y12139648D01*
X5371462Y11985001D01*
X3928537Y11985001D01*
X3895665Y12139648D01*
X3895664Y12139649D01*
X3818716Y12312478D01*
X3818712Y12312485D01*
X3707516Y12465532D01*
X3566920Y12592126D01*
X3403076Y12686721D01*
X3223155Y12745181D01*
X3082159Y12760000D01*
X2760000Y12760000D01*
X2760000Y12160000D01*
X2510000Y12160000D01*
X2510000Y12760000D01*
X2187841Y12760000D01*
X2046844Y12745181D01*
X1866923Y12686721D01*
X1703079Y12592126D01*
X1562483Y12465532D01*
X1451287Y12312486D01*
X1451281Y12312475D01*
X1374336Y12139653D01*
X1374334Y12139648D01*
X1341462Y11985001D01*
X120500Y11985001D01*
X120500Y14115019D01*
X14516050Y14115019D01*
X14555547Y13878331D01*
X14561693Y13860429D01*
X14633462Y13651371D01*
X14669231Y13585276D01*
X14747671Y13440332D01*
X14895058Y13250969D01*
X15071603Y13088448D01*
X15172046Y13022825D01*
X15272491Y12957201D01*
X15492231Y12860814D01*
X15492236Y12860813D01*
X15492240Y12860811D01*
X15724859Y12801904D01*
X15852455Y12791331D01*
X15904114Y12787050D01*
X15904118Y12787050D01*
X16023886Y12787050D01*
X16065895Y12790532D01*
X16203141Y12801904D01*
X16435760Y12860811D01*
X16435765Y12860814D01*
X16435768Y12860814D01*
X16655508Y12957201D01*
X16655510Y12957202D01*
X16856397Y13088448D01*
X17032942Y13250969D01*
X17180329Y13440332D01*
X17294538Y13651372D01*
X17372453Y13878331D01*
X17411950Y14115019D01*
X19596050Y14115019D01*
X19635547Y13878331D01*
X19641693Y13860429D01*
X19713462Y13651371D01*
X19749231Y13585276D01*
X19827671Y13440332D01*
X19975058Y13250969D01*
X20151603Y13088448D01*
X20252046Y13022825D01*
X20352491Y12957201D01*
X20572231Y12860814D01*
X20572236Y12860813D01*
X20572240Y12860811D01*
X20804859Y12801904D01*
X20932455Y12791331D01*
X20984114Y12787050D01*
X20984118Y12787050D01*
X21103886Y12787050D01*
X21145895Y12790532D01*
X21283141Y12801904D01*
X21515760Y12860811D01*
X21515765Y12860814D01*
X21515768Y12860814D01*
X21735508Y12957201D01*
X21735510Y12957202D01*
X21936397Y13088448D01*
X22112942Y13250969D01*
X22260329Y13440332D01*
X22374538Y13651372D01*
X22452453Y13878331D01*
X22491950Y14115019D01*
X22491950Y14354981D01*
X22452453Y14591669D01*
X22374538Y14818628D01*
X22260329Y15029668D01*
X22112942Y15219031D01*
X21936397Y15381552D01*
X21735508Y15512800D01*
X21515768Y15609187D01*
X21494205Y15614648D01*
X21283141Y15668096D01*
X21247289Y15671067D01*
X21103886Y15682950D01*
X21103882Y15682950D01*
X20984118Y15682950D01*
X20984114Y15682950D01*
X20804859Y15668096D01*
X20572231Y15609187D01*
X20352491Y15512800D01*
X20151602Y15381552D01*
X19975059Y15219033D01*
X19827669Y15029665D01*
X19827667Y15029661D01*
X19713462Y14818630D01*
X19638797Y14601138D01*
X19635547Y14591669D01*
X19596050Y14354981D01*
X19596050Y14115019D01*
X17411950Y14115019D01*
X17411950Y14354981D01*
X17372453Y14591669D01*
X17294538Y14818628D01*
X17180329Y15029668D01*
X17032942Y15219031D01*
X16856397Y15381552D01*
X16655508Y15512800D01*
X16435768Y15609187D01*
X16414205Y15614648D01*
X16203141Y15668096D01*
X16167289Y15671067D01*
X16023886Y15682950D01*
X16023882Y15682950D01*
X15904118Y15682950D01*
X15904114Y15682950D01*
X15724859Y15668096D01*
X15492231Y15609187D01*
X15272491Y15512800D01*
X15071602Y15381552D01*
X14895059Y15219033D01*
X14747669Y15029665D01*
X14747667Y15029661D01*
X14633462Y14818630D01*
X14558797Y14601138D01*
X14555547Y14591669D01*
X14516050Y14354981D01*
X14516050Y14115019D01*
X120500Y14115019D01*
X120500Y17290019D01*
X14516050Y17290019D01*
X14555547Y17053331D01*
X14563719Y17029528D01*
X14633462Y16826371D01*
X14704456Y16695185D01*
X14747671Y16615332D01*
X14895058Y16425969D01*
X15071603Y16263448D01*
X15172046Y16197825D01*
X15272491Y16132201D01*
X15492231Y16035814D01*
X15492236Y16035813D01*
X15492240Y16035811D01*
X15724859Y15976904D01*
X15859490Y15965749D01*
X15904114Y15962050D01*
X15904118Y15962050D01*
X16023886Y15962050D01*
X16065895Y15965532D01*
X16203141Y15976904D01*
X16435760Y16035811D01*
X16435765Y16035814D01*
X16435768Y16035814D01*
X16655508Y16132201D01*
X16655510Y16132202D01*
X16856397Y16263448D01*
X17032942Y16425969D01*
X17180329Y16615332D01*
X17294538Y16826372D01*
X17372453Y17053331D01*
X17411950Y17290019D01*
X17411950Y17365754D01*
X17744342Y17365754D01*
X17775023Y17191759D01*
X17845001Y17029529D01*
X17845002Y17029528D01*
X17950509Y16887808D01*
X17950515Y16887803D01*
X18085849Y16774243D01*
X18085852Y16774242D01*
X18085854Y16774240D01*
X18243741Y16694946D01*
X18415660Y16654200D01*
X18548019Y16654200D01*
X18679486Y16669566D01*
X18845511Y16729995D01*
X18993126Y16827082D01*
X19114372Y16955595D01*
X19202712Y17108605D01*
X19253385Y17277863D01*
X19254093Y17290019D01*
X19596050Y17290019D01*
X19635547Y17053331D01*
X19643719Y17029528D01*
X19713462Y16826371D01*
X19784456Y16695185D01*
X19827671Y16615332D01*
X19975058Y16425969D01*
X20151603Y16263448D01*
X20252046Y16197825D01*
X20352491Y16132201D01*
X20572231Y16035814D01*
X20572236Y16035813D01*
X20572240Y16035811D01*
X20804859Y15976904D01*
X20939490Y15965749D01*
X20984114Y15962050D01*
X20984118Y15962050D01*
X21103886Y15962050D01*
X21145895Y15965532D01*
X21283141Y15976904D01*
X21515760Y16035811D01*
X21515765Y16035814D01*
X21515768Y16035814D01*
X21735508Y16132201D01*
X21735510Y16132202D01*
X21936397Y16263448D01*
X22112942Y16425969D01*
X22260329Y16615332D01*
X22268265Y16629997D01*
X36164722Y16629997D01*
X36183761Y16473192D01*
X36183764Y16473178D01*
X36239778Y16325479D01*
X36282595Y16263448D01*
X36329517Y16195470D01*
X36447760Y16090717D01*
X36587635Y16017304D01*
X36741015Y15979500D01*
X36741019Y15979500D01*
X36898981Y15979500D01*
X36898985Y15979500D01*
X37052365Y16017304D01*
X37192240Y16090717D01*
X37310483Y16195470D01*
X37400220Y16325477D01*
X37456237Y16473182D01*
X37473497Y16615332D01*
X37475278Y16629997D01*
X37475278Y16630004D01*
X37456238Y16786809D01*
X37456237Y16786818D01*
X37417936Y16887810D01*
X37400221Y16934522D01*
X37310483Y17064530D01*
X37260732Y17108605D01*
X37192240Y17169283D01*
X37149416Y17191759D01*
X37052366Y17242696D01*
X36898987Y17280500D01*
X36898985Y17280500D01*
X36741015Y17280500D01*
X36741012Y17280500D01*
X36587633Y17242696D01*
X36447761Y17169284D01*
X36329516Y17064530D01*
X36239779Y16934522D01*
X36239778Y16934522D01*
X36183764Y16786823D01*
X36183761Y16786809D01*
X36164722Y16630004D01*
X36164722Y16629997D01*
X22268265Y16629997D01*
X22374538Y16826372D01*
X22452453Y17053331D01*
X22491950Y17290019D01*
X22491950Y17529981D01*
X22452453Y17766669D01*
X22374538Y17993628D01*
X22260329Y18204668D01*
X22112942Y18394031D01*
X22073872Y18429997D01*
X24454722Y18429997D01*
X24473761Y18273192D01*
X24473764Y18273178D01*
X24529778Y18125479D01*
X24619516Y17995471D01*
X24619517Y17995470D01*
X24737760Y17890717D01*
X24877635Y17817304D01*
X25031015Y17779500D01*
X25031019Y17779500D01*
X25188981Y17779500D01*
X25188985Y17779500D01*
X25342365Y17817304D01*
X25482240Y17890717D01*
X25600483Y17995470D01*
X25690220Y18125477D01*
X25705513Y18165800D01*
X25746235Y18273178D01*
X25746237Y18273182D01*
X25765278Y18430000D01*
X25746237Y18586818D01*
X25708128Y18687304D01*
X25690221Y18734522D01*
X25600483Y18864530D01*
X25541081Y18917155D01*
X25482240Y18969283D01*
X25432332Y18995477D01*
X25342366Y19042696D01*
X25188987Y19080500D01*
X25188985Y19080500D01*
X25031015Y19080500D01*
X25031012Y19080500D01*
X24877633Y19042696D01*
X24737761Y18969284D01*
X24619516Y18864530D01*
X24529779Y18734522D01*
X24529778Y18734522D01*
X24473764Y18586823D01*
X24473761Y18586809D01*
X24454722Y18430004D01*
X24454722Y18429997D01*
X22073872Y18429997D01*
X21936397Y18556552D01*
X21735508Y18687800D01*
X21515768Y18784187D01*
X21494205Y18789648D01*
X21283141Y18843096D01*
X21247289Y18846067D01*
X21103886Y18857950D01*
X21103882Y18857950D01*
X20984118Y18857950D01*
X20984114Y18857950D01*
X20804859Y18843096D01*
X20572231Y18784187D01*
X20352491Y18687800D01*
X20151602Y18556552D01*
X19975059Y18394033D01*
X19827669Y18204665D01*
X19827667Y18204661D01*
X19713462Y17993630D01*
X19669099Y17864403D01*
X19635547Y17766669D01*
X19596050Y17529981D01*
X19596050Y17290019D01*
X19254093Y17290019D01*
X19263658Y17454245D01*
X19232977Y17628241D01*
X19162998Y17790472D01*
X19057491Y17932192D01*
X19057484Y17932198D01*
X18922150Y18045758D01*
X18764260Y18125054D01*
X18764256Y18125055D01*
X18592340Y18165800D01*
X18459981Y18165800D01*
X18328511Y18150434D01*
X18162487Y18090005D01*
X18162486Y18090005D01*
X18014874Y17992918D01*
X17893626Y17864403D01*
X17805288Y17711396D01*
X17805287Y17711394D01*
X17754615Y17542140D01*
X17754615Y17542137D01*
X17744342Y17365754D01*
X17411950Y17365754D01*
X17411950Y17529981D01*
X17372453Y17766669D01*
X17294538Y17993628D01*
X17180329Y18204668D01*
X17032942Y18394031D01*
X16993872Y18429997D01*
X16856397Y18556552D01*
X16655508Y18687800D01*
X16435768Y18784187D01*
X16414205Y18789648D01*
X16203141Y18843096D01*
X16167289Y18846067D01*
X16023886Y18857950D01*
X16023882Y18857950D01*
X15904118Y18857950D01*
X15904114Y18857950D01*
X15724859Y18843096D01*
X15492231Y18784187D01*
X15272491Y18687800D01*
X15071602Y18556552D01*
X14895059Y18394033D01*
X14747669Y18204665D01*
X14747667Y18204661D01*
X14633462Y17993630D01*
X14589099Y17864403D01*
X14555547Y17766669D01*
X14516050Y17529981D01*
X14516050Y17290019D01*
X120500Y17290019D01*
X120500Y20625001D01*
X1341462Y20625001D01*
X1341463Y20625000D01*
X1958658Y20625000D01*
X1931105Y20528160D01*
X1941454Y20416479D01*
X1962108Y20375000D01*
X1341463Y20375000D01*
X1374334Y20220353D01*
X1374335Y20220352D01*
X1451283Y20047523D01*
X1451287Y20047516D01*
X1562483Y19894469D01*
X1703079Y19767875D01*
X1866923Y19673280D01*
X2046844Y19614820D01*
X2187841Y19600000D01*
X2510000Y19600000D01*
X2510000Y20200000D01*
X2760000Y20200000D01*
X2760000Y19600000D01*
X3082159Y19600000D01*
X3223155Y19614820D01*
X3403076Y19673280D01*
X3566920Y19767875D01*
X3707516Y19894469D01*
X3818712Y20047515D01*
X3818718Y20047526D01*
X3895663Y20220348D01*
X3895665Y20220353D01*
X3928537Y20375000D01*
X3311342Y20375000D01*
X3338895Y20471840D01*
X3328546Y20583521D01*
X3307892Y20625000D01*
X3928537Y20625000D01*
X3928537Y20625001D01*
X5371462Y20625001D01*
X5371463Y20625000D01*
X5988658Y20625000D01*
X5961105Y20528160D01*
X5971454Y20416479D01*
X5992108Y20375000D01*
X5371463Y20375000D01*
X5404334Y20220353D01*
X5404335Y20220352D01*
X5481283Y20047523D01*
X5481287Y20047516D01*
X5592483Y19894469D01*
X5733079Y19767875D01*
X5896924Y19673280D01*
X5933516Y19661390D01*
X5973405Y19630226D01*
X5983929Y19580713D01*
X5960165Y19536019D01*
X5955698Y19532305D01*
X5897421Y19487587D01*
X5897418Y19487584D01*
X5803566Y19365276D01*
X5744570Y19222846D01*
X5724448Y19070000D01*
X5744570Y18917155D01*
X5803566Y18774725D01*
X5803567Y18774724D01*
X5897417Y18652417D01*
X6019724Y18558567D01*
X6162154Y18499571D01*
X6276627Y18484500D01*
X6276629Y18484500D01*
X6353371Y18484500D01*
X6353373Y18484500D01*
X6467846Y18499571D01*
X6610276Y18558567D01*
X6732583Y18652417D01*
X6826433Y18774724D01*
X6885429Y18917154D01*
X6905552Y19070000D01*
X6885429Y19222846D01*
X6826433Y19365276D01*
X6732583Y19487583D01*
X6711820Y19503515D01*
X6684625Y19546203D01*
X6690000Y19587031D01*
X6690000Y20200000D01*
X6940000Y20200000D01*
X6940000Y19600000D01*
X7412159Y19600000D01*
X7553155Y19614820D01*
X7733076Y19673280D01*
X7831313Y19729997D01*
X17764722Y19729997D01*
X17783761Y19573192D01*
X17783764Y19573178D01*
X17839778Y19425479D01*
X17926387Y19300004D01*
X17929517Y19295470D01*
X18047760Y19190717D01*
X18187635Y19117304D01*
X18341015Y19079500D01*
X18341019Y19079500D01*
X18498981Y19079500D01*
X18498985Y19079500D01*
X18652365Y19117304D01*
X18792240Y19190717D01*
X18910483Y19295470D01*
X18913608Y19299997D01*
X37059722Y19299997D01*
X37078761Y19143192D01*
X37078764Y19143178D01*
X37134778Y18995479D01*
X37188842Y18917154D01*
X37224517Y18865470D01*
X37342760Y18760717D01*
X37482635Y18687304D01*
X37636015Y18649500D01*
X37636019Y18649500D01*
X37793981Y18649500D01*
X37793985Y18649500D01*
X37947365Y18687304D01*
X38087240Y18760717D01*
X38205483Y18865470D01*
X38295220Y18995477D01*
X38351237Y19143182D01*
X38370278Y19300000D01*
X38351237Y19456818D01*
X38307108Y19573178D01*
X38295221Y19604522D01*
X38205483Y19734530D01*
X38167844Y19767875D01*
X38087240Y19839283D01*
X38075139Y19845634D01*
X37947366Y19912696D01*
X37793987Y19950500D01*
X37793985Y19950500D01*
X37636015Y19950500D01*
X37636012Y19950500D01*
X37482633Y19912696D01*
X37342761Y19839284D01*
X37224516Y19734530D01*
X37134779Y19604522D01*
X37134778Y19604522D01*
X37078764Y19456823D01*
X37078761Y19456809D01*
X37059722Y19300004D01*
X37059722Y19299997D01*
X18913608Y19299997D01*
X19000220Y19425477D01*
X19056237Y19573182D01*
X19075278Y19730000D01*
X19070679Y19767875D01*
X19056238Y19886809D01*
X19056237Y19886818D01*
X19032086Y19950500D01*
X19000221Y20034522D01*
X18910483Y20164530D01*
X18853048Y20215412D01*
X18792240Y20269283D01*
X18703081Y20316078D01*
X18652366Y20342696D01*
X18498987Y20380500D01*
X18498985Y20380500D01*
X18341015Y20380500D01*
X18341012Y20380500D01*
X18187633Y20342696D01*
X18047761Y20269284D01*
X17929516Y20164530D01*
X17839779Y20034522D01*
X17839778Y20034522D01*
X17783764Y19886823D01*
X17783761Y19886809D01*
X17764722Y19730004D01*
X17764722Y19729997D01*
X7831313Y19729997D01*
X7896920Y19767875D01*
X8037516Y19894469D01*
X8148712Y20047515D01*
X8148718Y20047526D01*
X8225663Y20220348D01*
X8225665Y20220353D01*
X8258537Y20375000D01*
X7641342Y20375000D01*
X7668895Y20471840D01*
X7658546Y20583521D01*
X7637892Y20625000D01*
X8258537Y20625000D01*
X8258537Y20625001D01*
X8225665Y20779648D01*
X8225664Y20779649D01*
X8148716Y20952478D01*
X8148712Y20952485D01*
X8037516Y21105532D01*
X7896920Y21232126D01*
X7733076Y21326721D01*
X7553155Y21385181D01*
X7412159Y21400000D01*
X6940000Y21400000D01*
X6940000Y20800000D01*
X6690000Y20800000D01*
X6690000Y21400000D01*
X6217841Y21400000D01*
X6076844Y21385181D01*
X5896923Y21326721D01*
X5733079Y21232126D01*
X5592483Y21105532D01*
X5481287Y20952486D01*
X5481281Y20952475D01*
X5404336Y20779653D01*
X5404334Y20779648D01*
X5371462Y20625001D01*
X3928537Y20625001D01*
X3895665Y20779648D01*
X3895664Y20779649D01*
X3818716Y20952478D01*
X3818712Y20952485D01*
X3707516Y21105532D01*
X3566920Y21232126D01*
X3403076Y21326721D01*
X3223155Y21385181D01*
X3082159Y21400000D01*
X2760000Y21400000D01*
X2760000Y20800000D01*
X2510000Y20800000D01*
X2510000Y21400000D01*
X2187841Y21400000D01*
X2046844Y21385181D01*
X1866923Y21326721D01*
X1703079Y21232126D01*
X1562483Y21105532D01*
X1451287Y20952486D01*
X1451281Y20952475D01*
X1374336Y20779653D01*
X1374334Y20779648D01*
X1341462Y20625001D01*
X120500Y20625001D01*
X120500Y24529997D01*
X28264722Y24529997D01*
X28283761Y24373192D01*
X28283764Y24373178D01*
X28339778Y24225479D01*
X28429516Y24095471D01*
X28429517Y24095470D01*
X28547760Y23990717D01*
X28687635Y23917304D01*
X28841015Y23879500D01*
X28841019Y23879500D01*
X28998981Y23879500D01*
X28998985Y23879500D01*
X29152365Y23917304D01*
X29292240Y23990717D01*
X29410483Y24095470D01*
X29500220Y24225477D01*
X29556237Y24373182D01*
X29575278Y24530000D01*
X29556237Y24686818D01*
X29548213Y24707975D01*
X29500221Y24834522D01*
X29410483Y24964530D01*
X29292240Y25069283D01*
X29280139Y25075634D01*
X29152366Y25142696D01*
X28998987Y25180500D01*
X28998985Y25180500D01*
X28841015Y25180500D01*
X28841012Y25180500D01*
X28687633Y25142696D01*
X28547761Y25069284D01*
X28429516Y24964530D01*
X28339779Y24834522D01*
X28339778Y24834522D01*
X28283764Y24686823D01*
X28283761Y24686809D01*
X28264722Y24530004D01*
X28264722Y24529997D01*
X120500Y24529997D01*
X120500Y26328179D01*
X120678Y26331807D01*
X123242Y26357844D01*
X133227Y26459220D01*
X136054Y26473434D01*
X171632Y26590722D01*
X177178Y26604110D01*
X234954Y26712200D01*
X243006Y26724251D01*
X320756Y26818989D01*
X331013Y26829245D01*
X425749Y26906994D01*
X437800Y26915046D01*
X545890Y26972822D01*
X559278Y26978368D01*
X676566Y27013946D01*
X690780Y27016773D01*
X797605Y27027295D01*
X818194Y27029322D01*
X821822Y27029500D01*
X867595Y27029500D01*
X30763827Y27029500D01*
X49772405Y27029500D01*
X49818178Y27029500D01*
X49821806Y27029322D01*
G37*
%TD.AperFunction*%
%TD*%
M02*
