%TF.GenerationSoftware,KiCad,Pcbnew,7.0.8*%
%TF.CreationDate,2024-01-29T14:11:28+05:30*%
%TF.ProjectId,stm32_ble,73746d33-325f-4626-9c65-2e6b69636164,Version : 1*%
%TF.SameCoordinates,PX6eac850PY632ea00*%
%TF.FileFunction,Legend,Top*%
%TF.FilePolarity,Positive*%
%FSLAX46Y46*%
G04 Gerber Fmt 4.6, Leading zero omitted, Abs format (unit mm)*
G04 Created by KiCad (PCBNEW 7.0.8) date 2024-01-29 14:11:28*
%MOMM*%
%LPD*%
G01*
G04 APERTURE LIST*
%ADD10C,0.200000*%
%ADD11C,0.100000*%
%ADD12C,0.120000*%
G04 APERTURE END LIST*
D10*
X27970000Y12320000D02*
G75*
G03*
X27970000Y12320000I-136015J0D01*
G01*
D11*
%TO.C,FL1*%
X43678569Y17920000D02*
G75*
G03*
X43678569Y17920000I-56569J0D01*
G01*
D12*
%TO.C,SW1*%
X34825000Y2180000D02*
X29025000Y2180000D01*
X34825000Y5880000D02*
X34825000Y2180000D01*
X29025000Y2180000D02*
X29025000Y5880000D01*
X29025000Y5880000D02*
X34825000Y5880000D01*
%TO.C,C1*%
X26830000Y11967836D02*
X26830000Y11752164D01*
X26110000Y11967836D02*
X26110000Y11752164D01*
%TO.C,C7*%
X25630000Y11445580D02*
X25630000Y11164420D01*
X24610000Y11445580D02*
X24610000Y11164420D01*
%TO.C,J3*%
X3810000Y20850000D02*
X5510000Y20850000D01*
X3810000Y11510000D02*
X5510000Y11510000D01*
%TO.C,J1*%
X46760000Y18705000D02*
X46760000Y18065000D01*
X46760000Y18065000D02*
X46130000Y18065000D01*
X46760000Y15905000D02*
X46760000Y16545000D01*
X49480000Y18655000D02*
X49480000Y15955000D01*
%TO.C,C11*%
X32229420Y22275000D02*
X32510580Y22275000D01*
X32229420Y21255000D02*
X32510580Y21255000D01*
%TO.C,R6*%
X35590000Y9956359D02*
X35590000Y10263641D01*
X36350000Y9956359D02*
X36350000Y10263641D01*
%TO.C,C2*%
X36230000Y16187836D02*
X36230000Y15972164D01*
X35510000Y16187836D02*
X35510000Y15972164D01*
%TO.C,L2*%
X31020378Y24225000D02*
X31819622Y24225000D01*
X31020378Y23105000D02*
X31819622Y23105000D01*
%TO.C,J2*%
X17234000Y16775000D02*
X17869000Y16775000D01*
X17234000Y16140000D02*
X17234000Y16775000D01*
%TO.C,R8*%
X40290000Y13373641D02*
X40290000Y13066359D01*
X39530000Y13373641D02*
X39530000Y13066359D01*
D11*
%TO.C,D1*%
X38760000Y12135000D02*
G75*
G03*
X38760000Y12135000I-50000J0D01*
G01*
D12*
%TO.C,C18*%
X11635580Y13420000D02*
X11354420Y13420000D01*
X11635580Y14440000D02*
X11354420Y14440000D01*
%TO.C,R7*%
X37040000Y9886359D02*
X37040000Y10193641D01*
X37800000Y9886359D02*
X37800000Y10193641D01*
%TO.C,C16*%
X18527164Y9370000D02*
X18742836Y9370000D01*
X18527164Y8650000D02*
X18742836Y8650000D01*
%TO.C,C19*%
X15512164Y8570000D02*
X15727836Y8570000D01*
X15512164Y7850000D02*
X15727836Y7850000D01*
%TO.C,C15*%
X42560000Y17692164D02*
X42560000Y17907836D01*
X43280000Y17692164D02*
X43280000Y17907836D01*
%TO.C,U3*%
X13130000Y10067500D02*
X13130000Y11867500D01*
X13130000Y10067500D02*
X13130000Y9267500D01*
X10010000Y10067500D02*
X10010000Y10867500D01*
X10010000Y10067500D02*
X10010000Y9267500D01*
%TO.C,R3*%
X4763641Y22000000D02*
X4456359Y22000000D01*
X4763641Y22760000D02*
X4456359Y22760000D01*
%TO.C,C4*%
X26197836Y13070000D02*
X25982164Y13070000D01*
X26197836Y13790000D02*
X25982164Y13790000D01*
%TO.C,X2*%
X38720000Y24180000D02*
X36420000Y24180000D01*
X36420000Y24180000D02*
X36420000Y21480000D01*
%TO.C,C17*%
X39180000Y4612836D02*
X39180000Y4397164D01*
X38460000Y4612836D02*
X38460000Y4397164D01*
%TO.C,C8*%
X28497836Y21470000D02*
X28282164Y21470000D01*
X28497836Y22190000D02*
X28282164Y22190000D01*
%TO.C,C10*%
X28185580Y22770000D02*
X27904420Y22770000D01*
X28185580Y23790000D02*
X27904420Y23790000D01*
%TO.C,R4*%
X5013641Y9700000D02*
X4706359Y9700000D01*
X5013641Y10460000D02*
X4706359Y10460000D01*
%TO.C,C14*%
X38810000Y17997164D02*
X38810000Y18212836D01*
X39530000Y17997164D02*
X39530000Y18212836D01*
%TO.C,U1*%
X34810000Y12590000D02*
X34335000Y12590000D01*
X27590000Y13065000D02*
X27590000Y12590000D01*
X34810000Y13065000D02*
X34810000Y12590000D01*
X27590000Y19335000D02*
X27590000Y19810000D01*
X34810000Y19335000D02*
X34810000Y19810000D01*
X27590000Y19810000D02*
X28065000Y19810000D01*
X34810000Y19810000D02*
X34335000Y19810000D01*
%TO.C,C6*%
X24747836Y17070000D02*
X24532164Y17070000D01*
X24747836Y17790000D02*
X24532164Y17790000D01*
%TO.C,C5*%
X33932164Y11290000D02*
X34147836Y11290000D01*
X33932164Y10570000D02*
X34147836Y10570000D01*
%TO.C,U2*%
X9910000Y17667500D02*
X9910000Y15867500D01*
X9910000Y17667500D02*
X9910000Y18467500D01*
X13030000Y17667500D02*
X13030000Y16867500D01*
X13030000Y17667500D02*
X13030000Y18467500D01*
%TO.C,C3*%
X28497836Y20520000D02*
X28282164Y20520000D01*
X28497836Y21240000D02*
X28282164Y21240000D01*
%TO.C,R5*%
X38000000Y4573641D02*
X38000000Y4266359D01*
X37240000Y4573641D02*
X37240000Y4266359D01*
%TO.C,X1*%
X30320000Y7730000D02*
X30320000Y9330000D01*
X30320000Y9330000D02*
X27920000Y9330000D01*
X27920000Y7730000D02*
X30320000Y7730000D01*
%TO.C,C12*%
X29992164Y11190000D02*
X30207836Y11190000D01*
X29992164Y10470000D02*
X30207836Y10470000D01*
%TO.C,C9*%
X36975000Y18837836D02*
X36975000Y18622164D01*
X36255000Y18837836D02*
X36255000Y18622164D01*
%TO.C,J4*%
X6530000Y8940000D02*
X810000Y8940000D01*
X810000Y8940000D02*
X810000Y5455000D01*
X6530000Y7870000D02*
X6530000Y8940000D01*
X6230000Y7870000D02*
X6530000Y7870000D01*
X6820000Y7580000D02*
X6820000Y8080000D01*
X6520000Y7580000D02*
X6820000Y7580000D01*
X6230000Y5455000D02*
X6230000Y7870000D01*
X6230000Y5455000D02*
X6230000Y3040000D01*
X6530000Y3040000D02*
X6530000Y1970000D01*
X6230000Y3040000D02*
X6530000Y3040000D01*
X6530000Y1970000D02*
X810000Y1970000D01*
X810000Y1970000D02*
X810000Y5455000D01*
%TO.C,C13*%
X28207836Y10470000D02*
X27992164Y10470000D01*
X28207836Y11190000D02*
X27992164Y11190000D01*
%TO.C,R2*%
X39156359Y6710000D02*
X39463641Y6710000D01*
X39156359Y5950000D02*
X39463641Y5950000D01*
%TD*%
M02*
