%TF.GenerationSoftware,KiCad,Pcbnew,7.0.8*%
%TF.CreationDate,2024-01-29T14:11:28+05:30*%
%TF.ProjectId,stm32_ble,73746d33-325f-4626-9c65-2e6b69636164,Version : 1*%
%TF.SameCoordinates,PX6eac850PY632ea00*%
%TF.FileFunction,Copper,L2,Inr*%
%TF.FilePolarity,Positive*%
%FSLAX46Y46*%
G04 Gerber Fmt 4.6, Leading zero omitted, Abs format (unit mm)*
G04 Created by KiCad (PCBNEW 7.0.8) date 2024-01-29 14:11:28*
%MOMM*%
%LPD*%
G01*
G04 APERTURE LIST*
G04 Aperture macros list*
%AMRoundRect*
0 Rectangle with rounded corners*
0 $1 Rounding radius*
0 $2 $3 $4 $5 $6 $7 $8 $9 X,Y pos of 4 corners*
0 Add a 4 corners polygon primitive as box body*
4,1,4,$2,$3,$4,$5,$6,$7,$8,$9,$2,$3,0*
0 Add four circle primitives for the rounded corners*
1,1,$1+$1,$2,$3*
1,1,$1+$1,$4,$5*
1,1,$1+$1,$6,$7*
1,1,$1+$1,$8,$9*
0 Add four rect primitives between the rounded corners*
20,1,$1+$1,$2,$3,$4,$5,0*
20,1,$1+$1,$4,$5,$6,$7,0*
20,1,$1+$1,$6,$7,$8,$9,0*
20,1,$1+$1,$8,$9,$2,$3,0*%
G04 Aperture macros list end*
%TA.AperFunction,ComponentPad*%
%ADD10O,2.100000X1.000000*%
%TD*%
%TA.AperFunction,ComponentPad*%
%ADD11O,1.800000X1.000000*%
%TD*%
%TA.AperFunction,ComponentPad*%
%ADD12C,0.700000*%
%TD*%
%TA.AperFunction,ComponentPad*%
%ADD13C,4.400000*%
%TD*%
%TA.AperFunction,ComponentPad*%
%ADD14RoundRect,0.200000X-0.450000X0.200000X-0.450000X-0.200000X0.450000X-0.200000X0.450000X0.200000X0*%
%TD*%
%TA.AperFunction,ComponentPad*%
%ADD15O,1.300000X0.800000*%
%TD*%
%TA.AperFunction,ViaPad*%
%ADD16C,0.700000*%
%TD*%
%TA.AperFunction,ViaPad*%
%ADD17C,0.800000*%
%TD*%
G04 APERTURE END LIST*
D10*
%TO.N,GND*%
%TO.C,J3*%
X6815000Y20500000D03*
D11*
X2635000Y20500000D03*
D10*
X6815000Y11860000D03*
D11*
X2635000Y11860000D03*
%TD*%
D12*
%TO.N,GND*%
%TO.C,H1*%
X9260000Y24500000D03*
X9743274Y25666726D03*
X9743274Y23333274D03*
X10910000Y26150000D03*
D13*
X10910000Y24500000D03*
D12*
X10910000Y22850000D03*
X12076726Y25666726D03*
X12076726Y23333274D03*
X12560000Y24500000D03*
%TD*%
%TO.N,GND*%
%TO.C,H2*%
X9550000Y3370000D03*
X10033274Y4536726D03*
X10033274Y2203274D03*
X11200000Y5020000D03*
D13*
X11200000Y3370000D03*
D12*
X11200000Y1720000D03*
X12366726Y4536726D03*
X12366726Y2203274D03*
X12850000Y3370000D03*
%TD*%
%TO.N,GND*%
%TO.C,H4*%
X45743274Y3476726D03*
X46226548Y4643452D03*
X46226548Y2310000D03*
X47393274Y5126726D03*
D13*
X47393274Y3476726D03*
D12*
X47393274Y1826726D03*
X48560000Y4643452D03*
X48560000Y2310000D03*
X49043274Y3476726D03*
%TD*%
%TO.N,GND*%
%TO.C,H3*%
X45980000Y24330000D03*
X46463274Y25496726D03*
X46463274Y23163274D03*
X47630000Y25980000D03*
D13*
X47630000Y24330000D03*
D12*
X47630000Y22680000D03*
X48796726Y25496726D03*
X48796726Y23163274D03*
X49280000Y24330000D03*
%TD*%
D14*
%TO.N,+3.3V*%
%TO.C,J4*%
X5370000Y7330000D03*
D15*
%TO.N,/UART_TX*%
X5370000Y6080000D03*
%TO.N,/UART_RX*%
X5370000Y4830000D03*
%TO.N,GND*%
X5370000Y3580000D03*
%TD*%
D16*
%TO.N,+3.3V*%
X28920000Y24530000D03*
X18420000Y19730000D03*
X25110000Y18430000D03*
X33540000Y8460000D03*
X23420000Y12000000D03*
X37715000Y19300000D03*
X26320000Y4030000D03*
X13990000Y9080000D03*
X14040000Y8210000D03*
X36820000Y16630000D03*
%TO.N,GND*%
X32020000Y17530000D03*
X23265000Y17430000D03*
X26975000Y21830000D03*
X26975000Y20830000D03*
X16020000Y12330000D03*
X31820000Y15430000D03*
X38120000Y24675000D03*
X24720000Y13430000D03*
X28820000Y16430000D03*
X30620000Y9930000D03*
X24670000Y9330000D03*
X48123701Y14299029D03*
X26075000Y23230000D03*
X20060000Y9010000D03*
X28820000Y14430000D03*
X37460000Y18200000D03*
X44520000Y16230000D03*
X42920000Y19275000D03*
X48120000Y20230000D03*
X44420000Y18230000D03*
X9450000Y14500000D03*
X40720000Y6330000D03*
X25670000Y9290000D03*
X34265000Y21765000D03*
X9030000Y9960000D03*
X8920000Y11530000D03*
X30620000Y16530000D03*
X33320000Y18530000D03*
X39860000Y14705000D03*
X39220000Y19475000D03*
X11520000Y15130000D03*
X26820000Y9630000D03*
X33120000Y14530000D03*
X3475000Y10030000D03*
X33220000Y16530000D03*
X29620000Y15430000D03*
X38250000Y16150000D03*
X38820000Y3130000D03*
D17*
X16985000Y8210000D03*
D16*
X3175000Y22430000D03*
X28820000Y18530000D03*
X31120000Y18530000D03*
X34620000Y9930000D03*
X9020000Y20875000D03*
X30620000Y14530000D03*
X37020000Y20985000D03*
X29720000Y17530000D03*
D17*
%TO.N,/BOOT0*%
X31630000Y8630000D03*
X38320000Y8030000D03*
%TD*%
%TA.AperFunction,Conductor*%
%TO.N,GND*%
G36*
X49823031Y27029201D02*
G01*
X49870947Y27024483D01*
X49944317Y27017256D01*
X49968145Y27012517D01*
X50076005Y26979798D01*
X50098453Y26970499D01*
X50197849Y26917371D01*
X50218059Y26903867D01*
X50305179Y26832370D01*
X50322369Y26815180D01*
X50393866Y26728060D01*
X50407370Y26707850D01*
X50460495Y26608462D01*
X50469798Y26586003D01*
X50502514Y26478152D01*
X50507256Y26454312D01*
X50519201Y26333033D01*
X50519500Y26326952D01*
X50519500Y1333049D01*
X50519201Y1326968D01*
X50507256Y1205689D01*
X50502514Y1181849D01*
X50469798Y1073998D01*
X50460495Y1051539D01*
X50407370Y952151D01*
X50393866Y931941D01*
X50322369Y844821D01*
X50305179Y827631D01*
X50218059Y756134D01*
X50197849Y742630D01*
X50098461Y689505D01*
X50076002Y680202D01*
X49968151Y647486D01*
X49944311Y642744D01*
X49823032Y630799D01*
X49816951Y630500D01*
X823049Y630500D01*
X816968Y630799D01*
X695688Y642744D01*
X671848Y647486D01*
X563997Y680202D01*
X541541Y689504D01*
X442150Y742630D01*
X421940Y756134D01*
X334820Y827631D01*
X317630Y844821D01*
X246133Y931941D01*
X232629Y952151D01*
X193441Y1025466D01*
X179501Y1051547D01*
X170201Y1073998D01*
X137483Y1181855D01*
X132744Y1205683D01*
X120799Y1326969D01*
X120500Y1333049D01*
X120500Y3330000D01*
X4253033Y3330000D01*
X4259334Y3300355D01*
X4336286Y3127519D01*
X4447487Y2974465D01*
X4588081Y2847873D01*
X4588084Y2847871D01*
X4751915Y2753284D01*
X4751927Y2753279D01*
X4931845Y2694820D01*
X5072841Y2680000D01*
X5120000Y2680000D01*
X5120000Y3330000D01*
X4253033Y3330000D01*
X120500Y3330000D01*
X120500Y4735355D01*
X4219500Y4735355D01*
X4258855Y4550198D01*
X4258857Y4550193D01*
X4335848Y4377271D01*
X4335851Y4377266D01*
X4408364Y4277460D01*
X4431844Y4211654D01*
X4416018Y4143600D01*
X4408364Y4131690D01*
X4336284Y4032481D01*
X4336283Y4032480D01*
X4259335Y3859649D01*
X4253033Y3830000D01*
X5345376Y3830000D01*
X5272455Y3815495D01*
X5189760Y3760240D01*
X5134505Y3677545D01*
X5115102Y3580000D01*
X5134505Y3482455D01*
X5189760Y3399760D01*
X5272455Y3344505D01*
X5345376Y3330000D01*
X5394624Y3330000D01*
X5620000Y3330000D01*
X5620000Y2680000D01*
X5667159Y2680000D01*
X5808154Y2694820D01*
X5988072Y2753279D01*
X5988084Y2753284D01*
X6151915Y2847871D01*
X6151918Y2847873D01*
X6292509Y2974461D01*
X6292511Y2974464D01*
X6403717Y3127523D01*
X6480664Y3300352D01*
X6486967Y3330000D01*
X5620000Y3330000D01*
X5394624Y3330000D01*
X5467545Y3344505D01*
X5550240Y3399760D01*
X5605495Y3482455D01*
X5624898Y3580000D01*
X5605495Y3677545D01*
X5550240Y3760240D01*
X5467545Y3815495D01*
X5394624Y3830000D01*
X6486967Y3830000D01*
X6480665Y3859646D01*
X6404818Y4030000D01*
X25464815Y4030000D01*
X25483503Y3852195D01*
X25483504Y3852193D01*
X25538747Y3682171D01*
X25538750Y3682165D01*
X25628141Y3527335D01*
X25668551Y3482455D01*
X25747764Y3394479D01*
X25747767Y3394477D01*
X25747770Y3394474D01*
X25892407Y3289388D01*
X26055733Y3216671D01*
X26230609Y3179500D01*
X26230610Y3179500D01*
X26409389Y3179500D01*
X26409391Y3179500D01*
X26584267Y3216671D01*
X26747593Y3289388D01*
X26892230Y3394474D01*
X27011859Y3527335D01*
X27101250Y3682165D01*
X27156497Y3852197D01*
X27175185Y4030000D01*
X27156497Y4207803D01*
X27128873Y4292819D01*
X27101252Y4377830D01*
X27101249Y4377836D01*
X27011859Y4532665D01*
X26965003Y4584704D01*
X26892235Y4665522D01*
X26892232Y4665524D01*
X26892231Y4665525D01*
X26892230Y4665526D01*
X26747593Y4770612D01*
X26584267Y4843329D01*
X26584265Y4843330D01*
X26456594Y4870467D01*
X26409391Y4880500D01*
X26230609Y4880500D01*
X26199954Y4873985D01*
X26055733Y4843330D01*
X26055728Y4843328D01*
X25892408Y4770613D01*
X25747768Y4665525D01*
X25628140Y4532664D01*
X25538750Y4377836D01*
X25538747Y4377830D01*
X25483504Y4207808D01*
X25483503Y4207806D01*
X25464815Y4030000D01*
X6404818Y4030000D01*
X6403713Y4032482D01*
X6331634Y4131689D01*
X6308154Y4197495D01*
X6323979Y4265549D01*
X6331628Y4277452D01*
X6404151Y4377270D01*
X6481144Y4550197D01*
X6520500Y4735354D01*
X6520500Y4924646D01*
X6481144Y5109803D01*
X6404151Y5282730D01*
X6404148Y5282735D01*
X6331944Y5382115D01*
X6308464Y5447921D01*
X6324289Y5515975D01*
X6331944Y5527885D01*
X6404148Y5627266D01*
X6404147Y5627266D01*
X6404151Y5627270D01*
X6481144Y5800197D01*
X6520500Y5985354D01*
X6520500Y6174646D01*
X6481144Y6359803D01*
X6404151Y6532730D01*
X6383395Y6561299D01*
X6359916Y6627102D01*
X6375741Y6695156D01*
X6377564Y6698277D01*
X6463478Y6840394D01*
X6514086Y7002804D01*
X6520500Y7073384D01*
X6520500Y7586616D01*
X6514086Y7657196D01*
X6463478Y7819606D01*
X6375472Y7965185D01*
X6375470Y7965187D01*
X6375469Y7965189D01*
X6255188Y8085470D01*
X6234818Y8097784D01*
X6109606Y8173478D01*
X5947196Y8224086D01*
X5947194Y8224087D01*
X5947192Y8224087D01*
X5897778Y8228577D01*
X5876616Y8230500D01*
X4863384Y8230500D01*
X4844145Y8228752D01*
X4792807Y8224087D01*
X4630393Y8173478D01*
X4484811Y8085470D01*
X4364530Y7965189D01*
X4276522Y7819607D01*
X4225913Y7657193D01*
X4219500Y7586614D01*
X4219500Y7073387D01*
X4225913Y7002808D01*
X4276522Y6840394D01*
X4362402Y6698332D01*
X4380238Y6630777D01*
X4358720Y6564304D01*
X4356605Y6561299D01*
X4335848Y6532729D01*
X4258857Y6359808D01*
X4258855Y6359803D01*
X4219500Y6174646D01*
X4219500Y5985355D01*
X4258855Y5800198D01*
X4258857Y5800193D01*
X4335848Y5627272D01*
X4408056Y5527885D01*
X4431535Y5462078D01*
X4415709Y5394025D01*
X4408056Y5382115D01*
X4335848Y5282729D01*
X4258857Y5109808D01*
X4258855Y5109803D01*
X4219500Y4924646D01*
X4219500Y4735355D01*
X120500Y4735355D01*
X120500Y9080000D01*
X13134815Y9080000D01*
X13153503Y8902195D01*
X13153504Y8902193D01*
X13208750Y8732164D01*
X13249385Y8661782D01*
X13265858Y8593882D01*
X13259929Y8561464D01*
X13203504Y8387808D01*
X13203503Y8387806D01*
X13184815Y8210000D01*
X13203503Y8032195D01*
X13203504Y8032193D01*
X13258747Y7862171D01*
X13258750Y7862165D01*
X13348141Y7707335D01*
X13389210Y7661723D01*
X13467764Y7574479D01*
X13467767Y7574477D01*
X13467770Y7574474D01*
X13612407Y7469388D01*
X13775733Y7396671D01*
X13950609Y7359500D01*
X13950610Y7359500D01*
X14129389Y7359500D01*
X14129391Y7359500D01*
X14304267Y7396671D01*
X14467593Y7469388D01*
X14612230Y7574474D01*
X14731859Y7707335D01*
X14821250Y7862165D01*
X14876497Y8032197D01*
X14895185Y8210000D01*
X14876497Y8387803D01*
X14821250Y8557835D01*
X14780613Y8628220D01*
X14780181Y8630000D01*
X30724540Y8630000D01*
X30744326Y8441744D01*
X30744327Y8441741D01*
X30802818Y8261723D01*
X30802820Y8261718D01*
X30802821Y8261716D01*
X30897467Y8097784D01*
X31016856Y7965189D01*
X31024129Y7957112D01*
X31177265Y7845852D01*
X31177270Y7845849D01*
X31350192Y7768858D01*
X31350197Y7768856D01*
X31535354Y7729500D01*
X31535355Y7729500D01*
X31724644Y7729500D01*
X31724646Y7729500D01*
X31909803Y7768856D01*
X32082730Y7845849D01*
X32235871Y7957112D01*
X32362533Y8097784D01*
X32457179Y8261716D01*
X32465737Y8288057D01*
X32505173Y8345730D01*
X32569531Y8372929D01*
X32638377Y8361016D01*
X32689854Y8313773D01*
X32701599Y8288056D01*
X32758747Y8112172D01*
X32758750Y8112165D01*
X32848141Y7957335D01*
X32889812Y7911054D01*
X32967764Y7824479D01*
X32967767Y7824477D01*
X32967770Y7824474D01*
X33112407Y7719388D01*
X33275733Y7646671D01*
X33450609Y7609500D01*
X33450610Y7609500D01*
X33629389Y7609500D01*
X33629391Y7609500D01*
X33804267Y7646671D01*
X33967593Y7719388D01*
X34112230Y7824474D01*
X34127778Y7841741D01*
X34146167Y7862165D01*
X34231859Y7957335D01*
X34273812Y8030000D01*
X37414540Y8030000D01*
X37434326Y7841744D01*
X37434327Y7841741D01*
X37492818Y7661723D01*
X37492821Y7661716D01*
X37587467Y7497784D01*
X37678510Y7396671D01*
X37714129Y7357112D01*
X37867265Y7245852D01*
X37867270Y7245849D01*
X38040192Y7168858D01*
X38040197Y7168856D01*
X38225354Y7129500D01*
X38225355Y7129500D01*
X38414644Y7129500D01*
X38414646Y7129500D01*
X38599803Y7168856D01*
X38772730Y7245849D01*
X38925871Y7357112D01*
X39052533Y7497784D01*
X39147179Y7661716D01*
X39205674Y7841744D01*
X39225460Y8030000D01*
X39205674Y8218256D01*
X39147179Y8398284D01*
X39052533Y8562216D01*
X38925871Y8702888D01*
X38925870Y8702889D01*
X38772734Y8814149D01*
X38772729Y8814152D01*
X38599807Y8891143D01*
X38599802Y8891145D01*
X38454001Y8922135D01*
X38414646Y8930500D01*
X38225354Y8930500D01*
X38192897Y8923602D01*
X38040197Y8891145D01*
X38040192Y8891143D01*
X37867270Y8814152D01*
X37867265Y8814149D01*
X37714129Y8702889D01*
X37587466Y8562215D01*
X37492821Y8398285D01*
X37492818Y8398278D01*
X37436220Y8224086D01*
X37434326Y8218256D01*
X37414540Y8030000D01*
X34273812Y8030000D01*
X34321250Y8112165D01*
X34376497Y8282197D01*
X34395185Y8460000D01*
X34376497Y8637803D01*
X34332207Y8774113D01*
X34321252Y8807830D01*
X34321249Y8807836D01*
X34318631Y8812371D01*
X34231859Y8962665D01*
X34185003Y9014704D01*
X34112235Y9095522D01*
X34112232Y9095524D01*
X34112231Y9095525D01*
X34112230Y9095526D01*
X33967593Y9200612D01*
X33804267Y9273329D01*
X33804265Y9273330D01*
X33676594Y9300467D01*
X33629391Y9310500D01*
X33450609Y9310500D01*
X33419954Y9303985D01*
X33275733Y9273330D01*
X33275728Y9273328D01*
X33112408Y9200613D01*
X32967768Y9095525D01*
X32848140Y8962664D01*
X32758750Y8807836D01*
X32758746Y8807828D01*
X32756146Y8799823D01*
X32716707Y8742148D01*
X32652348Y8714952D01*
X32583502Y8726868D01*
X32532027Y8774113D01*
X32516924Y8812371D01*
X32515674Y8818248D01*
X32515674Y8818256D01*
X32457179Y8998284D01*
X32362533Y9162216D01*
X32235871Y9302888D01*
X32225394Y9310500D01*
X32082734Y9414149D01*
X32082729Y9414152D01*
X31909807Y9491143D01*
X31909802Y9491145D01*
X31764001Y9522135D01*
X31724646Y9530500D01*
X31535354Y9530500D01*
X31502897Y9523602D01*
X31350197Y9491145D01*
X31350192Y9491143D01*
X31177270Y9414152D01*
X31177265Y9414149D01*
X31024129Y9302889D01*
X30897466Y9162215D01*
X30802821Y8998285D01*
X30802818Y8998278D01*
X30744327Y8818260D01*
X30744326Y8818256D01*
X30724540Y8630000D01*
X14780181Y8630000D01*
X14764141Y8696118D01*
X14770070Y8728537D01*
X14771247Y8732161D01*
X14771250Y8732165D01*
X14826497Y8902197D01*
X14845185Y9080000D01*
X14826497Y9257803D01*
X14775697Y9414149D01*
X14771252Y9427830D01*
X14771249Y9427836D01*
X14734699Y9491143D01*
X14681859Y9582665D01*
X14635003Y9634704D01*
X14562235Y9715522D01*
X14562232Y9715524D01*
X14562231Y9715525D01*
X14562230Y9715526D01*
X14417593Y9820612D01*
X14254267Y9893329D01*
X14254265Y9893330D01*
X14126594Y9920467D01*
X14079391Y9930500D01*
X13900609Y9930500D01*
X13869954Y9923985D01*
X13725733Y9893330D01*
X13725728Y9893328D01*
X13562408Y9820613D01*
X13417768Y9715525D01*
X13298140Y9582664D01*
X13208750Y9427836D01*
X13208747Y9427830D01*
X13153504Y9257808D01*
X13153503Y9257806D01*
X13134815Y9080000D01*
X120500Y9080000D01*
X120500Y11610000D01*
X1261634Y11610000D01*
X1261931Y11608054D01*
X1261933Y11608048D01*
X1332562Y11417343D01*
X1332565Y11417336D01*
X1440149Y11244733D01*
X1580264Y11097332D01*
X1580266Y11097331D01*
X1747195Y10981144D01*
X1934092Y10900941D01*
X2133310Y10860000D01*
X2385000Y10860000D01*
X2385000Y11560000D01*
X2885000Y11560000D01*
X2885000Y10860000D01*
X3085713Y10860000D01*
X3237338Y10875419D01*
X3431381Y10936300D01*
X3431391Y10936305D01*
X3609215Y11035006D01*
X3609216Y11035006D01*
X3763530Y11167479D01*
X3763531Y11167480D01*
X3888018Y11328305D01*
X3977588Y11510907D01*
X4003246Y11610000D01*
X5291634Y11610000D01*
X5291931Y11608054D01*
X5291933Y11608048D01*
X5362562Y11417343D01*
X5362565Y11417336D01*
X5470149Y11244733D01*
X5610264Y11097332D01*
X5610266Y11097331D01*
X5777195Y10981144D01*
X5964092Y10900941D01*
X6163310Y10860000D01*
X6565000Y10860000D01*
X6565000Y11560000D01*
X7065000Y11560000D01*
X7065000Y10860000D01*
X7415713Y10860000D01*
X7567338Y10875419D01*
X7761381Y10936300D01*
X7761391Y10936305D01*
X7939215Y11035006D01*
X7939216Y11035006D01*
X8093530Y11167479D01*
X8093531Y11167480D01*
X8218018Y11328305D01*
X8307588Y11510907D01*
X8333246Y11610000D01*
X7531111Y11610000D01*
X7570610Y11634457D01*
X7638201Y11723962D01*
X7668895Y11831840D01*
X7658546Y11943521D01*
X7608552Y12043922D01*
X7536069Y12110000D01*
X8338366Y12110000D01*
X8338068Y12111947D01*
X8338066Y12111953D01*
X8267437Y12302658D01*
X8267434Y12302665D01*
X8159850Y12475268D01*
X8019735Y12622669D01*
X8019733Y12622670D01*
X7852804Y12738857D01*
X7665907Y12819060D01*
X7466690Y12860000D01*
X6956207Y12860000D01*
X6889168Y12879685D01*
X6843413Y12932489D01*
X6833469Y13001647D01*
X6841644Y13031450D01*
X6885429Y13137154D01*
X6905552Y13290000D01*
X6885429Y13442846D01*
X6826433Y13585276D01*
X6732583Y13707583D01*
X6610276Y13801433D01*
X6610272Y13801435D01*
X6467849Y13860428D01*
X6467847Y13860429D01*
X6467846Y13860429D01*
X6453536Y13862313D01*
X6353380Y13875500D01*
X6353373Y13875500D01*
X6276627Y13875500D01*
X6276619Y13875500D01*
X6162154Y13860429D01*
X6162150Y13860428D01*
X6019727Y13801435D01*
X6019724Y13801434D01*
X6019724Y13801433D01*
X5897417Y13707583D01*
X5854289Y13651377D01*
X5803565Y13585273D01*
X5744572Y13442850D01*
X5744571Y13442846D01*
X5724448Y13290001D01*
X5724448Y13290000D01*
X5744571Y13137155D01*
X5744572Y13137151D01*
X5803565Y12994727D01*
X5803566Y12994725D01*
X5803567Y12994724D01*
X5848999Y12935516D01*
X5874193Y12870347D01*
X5860155Y12801903D01*
X5811341Y12751913D01*
X5810802Y12751612D01*
X5690788Y12684998D01*
X5690783Y12684995D01*
X5536469Y12552522D01*
X5536468Y12552521D01*
X5411981Y12391696D01*
X5322411Y12209094D01*
X5296754Y12110000D01*
X6098889Y12110000D01*
X6059390Y12085543D01*
X5991799Y11996038D01*
X5961105Y11888160D01*
X5971454Y11776479D01*
X6021448Y11676078D01*
X6093931Y11610000D01*
X5291634Y11610000D01*
X4003246Y11610000D01*
X3201111Y11610000D01*
X3240610Y11634457D01*
X3308201Y11723962D01*
X3338895Y11831840D01*
X3328546Y11943521D01*
X3278552Y12043922D01*
X3206069Y12110000D01*
X4008366Y12110000D01*
X4008068Y12111947D01*
X4008066Y12111953D01*
X3937437Y12302658D01*
X3937434Y12302665D01*
X3829850Y12475268D01*
X3689735Y12622669D01*
X3689733Y12622670D01*
X3522804Y12738857D01*
X3335907Y12819060D01*
X3136690Y12860000D01*
X2885000Y12860000D01*
X2885000Y12160000D01*
X2385000Y12160000D01*
X2385000Y12860000D01*
X2184287Y12860000D01*
X2032661Y12844582D01*
X1838618Y12783701D01*
X1838608Y12783696D01*
X1660784Y12684995D01*
X1660783Y12684995D01*
X1506469Y12552522D01*
X1506468Y12552521D01*
X1381981Y12391696D01*
X1292411Y12209094D01*
X1266754Y12110000D01*
X2068889Y12110000D01*
X2029390Y12085543D01*
X1961799Y11996038D01*
X1931105Y11888160D01*
X1941454Y11776479D01*
X1991448Y11676078D01*
X2063931Y11610000D01*
X1261634Y11610000D01*
X120500Y11610000D01*
X120500Y14115021D01*
X14516050Y14115021D01*
X14555547Y13878329D01*
X14633460Y13651377D01*
X14633465Y13651366D01*
X14747669Y13440335D01*
X14747676Y13440324D01*
X14895052Y13250976D01*
X14895054Y13250974D01*
X14895058Y13250969D01*
X15071603Y13088448D01*
X15272490Y12957202D01*
X15492240Y12860811D01*
X15724859Y12801904D01*
X15904118Y12787050D01*
X15904120Y12787050D01*
X16023880Y12787050D01*
X16023882Y12787050D01*
X16203141Y12801904D01*
X16435760Y12860811D01*
X16655510Y12957202D01*
X16783001Y13040496D01*
X16849891Y13060684D01*
X16917076Y13041505D01*
X16963227Y12989046D01*
X16973690Y12919964D01*
X16945144Y12856192D01*
X16941024Y12851602D01*
X16877628Y12784405D01*
X16858959Y12752070D01*
X16789288Y12631396D01*
X16738615Y12462138D01*
X16738614Y12462133D01*
X16728341Y12285757D01*
X16753234Y12144588D01*
X16759023Y12111759D01*
X16788285Y12043922D01*
X16829000Y11949531D01*
X16829005Y11949523D01*
X16916618Y11831840D01*
X16934509Y11807808D01*
X17069854Y11694240D01*
X17148103Y11654942D01*
X17227736Y11614948D01*
X17227737Y11614948D01*
X17227741Y11614946D01*
X17399660Y11574200D01*
X17399663Y11574200D01*
X17532012Y11574200D01*
X17532019Y11574200D01*
X17663486Y11589566D01*
X17829511Y11649995D01*
X17977126Y11747082D01*
X18098372Y11875595D01*
X18186712Y12028605D01*
X18237385Y12197863D01*
X18242504Y12285757D01*
X18760341Y12285757D01*
X18785234Y12144588D01*
X18791023Y12111759D01*
X18820285Y12043922D01*
X18861000Y11949531D01*
X18861005Y11949523D01*
X18948618Y11831840D01*
X18966509Y11807808D01*
X19101854Y11694240D01*
X19180103Y11654942D01*
X19259736Y11614948D01*
X19259737Y11614948D01*
X19259741Y11614946D01*
X19431660Y11574200D01*
X19431663Y11574200D01*
X19564012Y11574200D01*
X19564019Y11574200D01*
X19695486Y11589566D01*
X19861511Y11649995D01*
X20009126Y11747082D01*
X20130372Y11875595D01*
X20202197Y12000000D01*
X22564815Y12000000D01*
X22583503Y11822195D01*
X22583504Y11822193D01*
X22638747Y11652171D01*
X22638750Y11652165D01*
X22728141Y11497335D01*
X22769812Y11451054D01*
X22847764Y11364479D01*
X22847767Y11364477D01*
X22847770Y11364474D01*
X22992407Y11259388D01*
X23155733Y11186671D01*
X23330609Y11149500D01*
X23330610Y11149500D01*
X23509389Y11149500D01*
X23509391Y11149500D01*
X23684267Y11186671D01*
X23847593Y11259388D01*
X23992230Y11364474D01*
X24111859Y11497335D01*
X24201250Y11652165D01*
X24256497Y11822197D01*
X24275185Y12000000D01*
X24256497Y12177803D01*
X24221421Y12285755D01*
X24201252Y12347830D01*
X24201249Y12347836D01*
X24186002Y12374245D01*
X24111859Y12502665D01*
X24065003Y12554704D01*
X23992235Y12635522D01*
X23992232Y12635524D01*
X23992231Y12635525D01*
X23992230Y12635526D01*
X23847593Y12740612D01*
X23684267Y12813329D01*
X23684265Y12813330D01*
X23537233Y12844582D01*
X23509391Y12850500D01*
X23330609Y12850500D01*
X23302767Y12844582D01*
X23155733Y12813330D01*
X23155728Y12813328D01*
X22992408Y12740613D01*
X22847768Y12635525D01*
X22728140Y12502664D01*
X22638750Y12347836D01*
X22638747Y12347830D01*
X22583504Y12177808D01*
X22583503Y12177806D01*
X22564815Y12000000D01*
X20202197Y12000000D01*
X20218712Y12028605D01*
X20269385Y12197863D01*
X20279658Y12374245D01*
X20248977Y12548241D01*
X20178998Y12710472D01*
X20156560Y12740611D01*
X20073288Y12852465D01*
X20049044Y12917994D01*
X20064076Y12986227D01*
X20113612Y13035502D01*
X20181924Y13050173D01*
X20240573Y13030321D01*
X20343566Y12963032D01*
X20352490Y12957202D01*
X20572240Y12860811D01*
X20804859Y12801904D01*
X20984118Y12787050D01*
X20984120Y12787050D01*
X21103880Y12787050D01*
X21103882Y12787050D01*
X21283141Y12801904D01*
X21515760Y12860811D01*
X21735510Y12957202D01*
X21936397Y13088448D01*
X22112942Y13250969D01*
X22260329Y13440332D01*
X22374538Y13651372D01*
X22452453Y13878331D01*
X22491950Y14115019D01*
X22491950Y14354981D01*
X22452453Y14591669D01*
X22374538Y14818628D01*
X22260329Y15029668D01*
X22260327Y15029670D01*
X22260323Y15029677D01*
X22112947Y15219025D01*
X22112944Y15219028D01*
X22112942Y15219031D01*
X21936397Y15381552D01*
X21735510Y15512798D01*
X21735507Y15512800D01*
X21735506Y15512800D01*
X21639425Y15554945D01*
X21515760Y15609189D01*
X21515758Y15609190D01*
X21283137Y15668097D01*
X21139489Y15680000D01*
X21103882Y15682950D01*
X20984118Y15682950D01*
X20951728Y15680267D01*
X20804862Y15668097D01*
X20572241Y15609190D01*
X20352493Y15512800D01*
X20151603Y15381552D01*
X19975055Y15219028D01*
X19975052Y15219025D01*
X19827676Y15029677D01*
X19827669Y15029666D01*
X19713465Y14818635D01*
X19713460Y14818624D01*
X19635547Y14591672D01*
X19596050Y14354980D01*
X19596050Y14115021D01*
X19635547Y13878329D01*
X19713460Y13651377D01*
X19713465Y13651366D01*
X19827669Y13440335D01*
X19827676Y13440324D01*
X19975052Y13250976D01*
X19975054Y13250974D01*
X19975058Y13250969D01*
X20050546Y13181477D01*
X20086536Y13121591D01*
X20084436Y13051753D01*
X20044912Y12994137D01*
X19980513Y12967035D01*
X19911684Y12979053D01*
X19910912Y12979438D01*
X19780263Y13045053D01*
X19758660Y13050173D01*
X19608340Y13085800D01*
X19475981Y13085800D01*
X19360947Y13072355D01*
X19344513Y13070434D01*
X19178490Y13010006D01*
X19132014Y12979438D01*
X19030874Y12912918D01*
X19030873Y12912918D01*
X19030873Y12912917D01*
X18909631Y12784409D01*
X18909629Y12784407D01*
X18909628Y12784405D01*
X18890959Y12752070D01*
X18821288Y12631396D01*
X18770615Y12462138D01*
X18770614Y12462133D01*
X18760341Y12285757D01*
X18242504Y12285757D01*
X18247658Y12374245D01*
X18216977Y12548241D01*
X18146998Y12710472D01*
X18124560Y12740611D01*
X18070424Y12813328D01*
X18041491Y12852192D01*
X17906146Y12965760D01*
X17873796Y12982007D01*
X17748263Y13045053D01*
X17726660Y13050173D01*
X17576340Y13085800D01*
X17443981Y13085800D01*
X17328947Y13072355D01*
X17312513Y13070434D01*
X17146491Y13010006D01*
X17146490Y13010006D01*
X17146489Y13010005D01*
X17122363Y12994137D01*
X17106073Y12983423D01*
X17039245Y12963032D01*
X16972001Y12982007D01*
X16925691Y13034325D01*
X16915018Y13103375D01*
X16943370Y13167233D01*
X16953953Y13178255D01*
X17032942Y13250969D01*
X17180329Y13440332D01*
X17294538Y13651372D01*
X17372453Y13878331D01*
X17411950Y14115019D01*
X17411950Y14354981D01*
X17372453Y14591669D01*
X17294538Y14818628D01*
X17180329Y15029668D01*
X17180327Y15029670D01*
X17180323Y15029677D01*
X17032947Y15219025D01*
X17032944Y15219028D01*
X17032942Y15219031D01*
X16856397Y15381552D01*
X16655510Y15512798D01*
X16655507Y15512800D01*
X16655506Y15512800D01*
X16559425Y15554945D01*
X16435760Y15609189D01*
X16435758Y15609190D01*
X16203137Y15668097D01*
X16059489Y15680000D01*
X16023882Y15682950D01*
X15904118Y15682950D01*
X15871728Y15680267D01*
X15724862Y15668097D01*
X15492241Y15609190D01*
X15272493Y15512800D01*
X15071603Y15381552D01*
X14895055Y15219028D01*
X14895052Y15219025D01*
X14747676Y15029677D01*
X14747669Y15029666D01*
X14633465Y14818635D01*
X14633460Y14818624D01*
X14555547Y14591672D01*
X14516050Y14354980D01*
X14516050Y14115021D01*
X120500Y14115021D01*
X120500Y17290019D01*
X14516050Y17290019D01*
X14520138Y17265524D01*
X14555547Y17053329D01*
X14633460Y16826377D01*
X14633465Y16826366D01*
X14747669Y16615335D01*
X14747676Y16615324D01*
X14895052Y16425976D01*
X14895054Y16425974D01*
X14895058Y16425969D01*
X15071603Y16263448D01*
X15272490Y16132202D01*
X15492240Y16035811D01*
X15724859Y15976904D01*
X15904118Y15962050D01*
X15904120Y15962050D01*
X16023880Y15962050D01*
X16023882Y15962050D01*
X16203141Y15976904D01*
X16435760Y16035811D01*
X16655510Y16132202D01*
X16856397Y16263448D01*
X17032942Y16425969D01*
X17180329Y16615332D01*
X17294538Y16826372D01*
X17372453Y17053331D01*
X17411950Y17290019D01*
X17411950Y17365757D01*
X17744341Y17365757D01*
X17762016Y17265524D01*
X17775023Y17191759D01*
X17800514Y17132664D01*
X17845000Y17029531D01*
X17845005Y17029523D01*
X17950509Y16887808D01*
X18085854Y16774240D01*
X18164103Y16734942D01*
X18243736Y16694948D01*
X18243737Y16694948D01*
X18243741Y16694946D01*
X18415660Y16654200D01*
X18415663Y16654200D01*
X18548012Y16654200D01*
X18548019Y16654200D01*
X18679486Y16669566D01*
X18845511Y16729995D01*
X18993126Y16827082D01*
X19114372Y16955595D01*
X19202712Y17108605D01*
X19253385Y17277863D01*
X19254093Y17290019D01*
X19596050Y17290019D01*
X19600138Y17265524D01*
X19635547Y17053329D01*
X19713460Y16826377D01*
X19713465Y16826366D01*
X19827669Y16615335D01*
X19827676Y16615324D01*
X19975052Y16425976D01*
X19975054Y16425974D01*
X19975058Y16425969D01*
X20151603Y16263448D01*
X20352490Y16132202D01*
X20572240Y16035811D01*
X20804859Y15976904D01*
X20984118Y15962050D01*
X20984120Y15962050D01*
X21103880Y15962050D01*
X21103882Y15962050D01*
X21283141Y15976904D01*
X21515760Y16035811D01*
X21735510Y16132202D01*
X21936397Y16263448D01*
X22112942Y16425969D01*
X22260329Y16615332D01*
X22268267Y16630000D01*
X35964815Y16630000D01*
X35983503Y16452195D01*
X35983504Y16452193D01*
X36038747Y16282171D01*
X36038750Y16282165D01*
X36128141Y16127335D01*
X36169812Y16081054D01*
X36247764Y15994479D01*
X36247767Y15994477D01*
X36247770Y15994474D01*
X36392407Y15889388D01*
X36555733Y15816671D01*
X36730609Y15779500D01*
X36730610Y15779500D01*
X36909389Y15779500D01*
X36909391Y15779500D01*
X37084267Y15816671D01*
X37247593Y15889388D01*
X37392230Y15994474D01*
X37511859Y16127335D01*
X37601250Y16282165D01*
X37656497Y16452197D01*
X37675185Y16630000D01*
X37656497Y16807803D01*
X37608477Y16955592D01*
X37601252Y16977830D01*
X37601249Y16977836D01*
X37511859Y17132665D01*
X37458646Y17191764D01*
X37392235Y17265522D01*
X37392232Y17265524D01*
X37392231Y17265525D01*
X37392230Y17265526D01*
X37247593Y17370612D01*
X37084267Y17443329D01*
X37084265Y17443330D01*
X36956594Y17470467D01*
X36909391Y17480500D01*
X36730609Y17480500D01*
X36699954Y17473985D01*
X36555733Y17443330D01*
X36555728Y17443328D01*
X36392408Y17370613D01*
X36247768Y17265525D01*
X36128140Y17132664D01*
X36038750Y16977836D01*
X36038747Y16977830D01*
X35983504Y16807808D01*
X35983503Y16807806D01*
X35964815Y16630000D01*
X22268267Y16630000D01*
X22374538Y16826372D01*
X22452453Y17053331D01*
X22491950Y17290019D01*
X22491950Y17529981D01*
X22452453Y17766669D01*
X22374538Y17993628D01*
X22260329Y18204668D01*
X22260327Y18204670D01*
X22260323Y18204677D01*
X22112947Y18394025D01*
X22112944Y18394028D01*
X22112942Y18394031D01*
X22073869Y18430000D01*
X24254815Y18430000D01*
X24273503Y18252195D01*
X24273504Y18252193D01*
X24328747Y18082171D01*
X24328750Y18082165D01*
X24418141Y17927335D01*
X24459812Y17881054D01*
X24537764Y17794479D01*
X24537767Y17794477D01*
X24537770Y17794474D01*
X24682407Y17689388D01*
X24845733Y17616671D01*
X25020609Y17579500D01*
X25020610Y17579500D01*
X25199389Y17579500D01*
X25199391Y17579500D01*
X25374267Y17616671D01*
X25537593Y17689388D01*
X25682230Y17794474D01*
X25801859Y17927335D01*
X25891250Y18082165D01*
X25946497Y18252197D01*
X25965185Y18430000D01*
X25946497Y18607803D01*
X25891250Y18777835D01*
X25801859Y18932665D01*
X25750783Y18989390D01*
X25682235Y19065522D01*
X25682232Y19065524D01*
X25682231Y19065525D01*
X25682230Y19065526D01*
X25537593Y19170612D01*
X25374267Y19243329D01*
X25374265Y19243330D01*
X25246594Y19270467D01*
X25199391Y19280500D01*
X25020609Y19280500D01*
X24989954Y19273985D01*
X24845733Y19243330D01*
X24845728Y19243328D01*
X24682408Y19170613D01*
X24537768Y19065525D01*
X24418140Y18932664D01*
X24328750Y18777836D01*
X24328747Y18777830D01*
X24273504Y18607808D01*
X24273503Y18607806D01*
X24254815Y18430000D01*
X22073869Y18430000D01*
X21936397Y18556552D01*
X21735510Y18687798D01*
X21735507Y18687800D01*
X21735506Y18687800D01*
X21639425Y18729945D01*
X21515760Y18784189D01*
X21515758Y18784190D01*
X21283137Y18843097D01*
X21139489Y18855000D01*
X21103882Y18857950D01*
X20984118Y18857950D01*
X20951728Y18855267D01*
X20804862Y18843097D01*
X20572241Y18784190D01*
X20352493Y18687800D01*
X20155947Y18559390D01*
X20151603Y18556552D01*
X20035314Y18449500D01*
X19975055Y18394028D01*
X19975052Y18394025D01*
X19827676Y18204677D01*
X19827669Y18204666D01*
X19713465Y17993635D01*
X19713460Y17993624D01*
X19635547Y17766672D01*
X19626323Y17711396D01*
X19596050Y17529981D01*
X19596050Y17290019D01*
X19254093Y17290019D01*
X19263658Y17454245D01*
X19232977Y17628241D01*
X19162998Y17790472D01*
X19160016Y17794477D01*
X19057490Y17932193D01*
X18922146Y18045760D01*
X18922144Y18045761D01*
X18764263Y18125053D01*
X18764259Y18125054D01*
X18592340Y18165800D01*
X18459981Y18165800D01*
X18344947Y18152355D01*
X18328513Y18150434D01*
X18162490Y18090006D01*
X18095219Y18045761D01*
X18014874Y17992918D01*
X18014873Y17992918D01*
X18014873Y17992917D01*
X17893631Y17864409D01*
X17893627Y17864403D01*
X17805288Y17711396D01*
X17754615Y17542138D01*
X17754614Y17542133D01*
X17744341Y17365757D01*
X17411950Y17365757D01*
X17411950Y17529981D01*
X17372453Y17766669D01*
X17294538Y17993628D01*
X17180329Y18204668D01*
X17180327Y18204670D01*
X17180323Y18204677D01*
X17032947Y18394025D01*
X17032944Y18394028D01*
X17032942Y18394031D01*
X16856397Y18556552D01*
X16655510Y18687798D01*
X16655507Y18687800D01*
X16655506Y18687800D01*
X16559425Y18729945D01*
X16435760Y18784189D01*
X16435758Y18784190D01*
X16203137Y18843097D01*
X16059489Y18855000D01*
X16023882Y18857950D01*
X15904118Y18857950D01*
X15871728Y18855267D01*
X15724862Y18843097D01*
X15492241Y18784190D01*
X15272493Y18687800D01*
X15075947Y18559390D01*
X15071603Y18556552D01*
X14955314Y18449500D01*
X14895055Y18394028D01*
X14895052Y18394025D01*
X14747676Y18204677D01*
X14747669Y18204666D01*
X14633465Y17993635D01*
X14633460Y17993624D01*
X14555547Y17766672D01*
X14546323Y17711396D01*
X14516050Y17529981D01*
X14516050Y17290019D01*
X120500Y17290019D01*
X120500Y20250000D01*
X1261634Y20250000D01*
X1261931Y20248054D01*
X1261933Y20248048D01*
X1332562Y20057343D01*
X1332565Y20057336D01*
X1440149Y19884733D01*
X1580264Y19737332D01*
X1580266Y19737331D01*
X1747195Y19621144D01*
X1934092Y19540941D01*
X2133310Y19500000D01*
X2385000Y19500000D01*
X2385000Y20200000D01*
X2885000Y20200000D01*
X2885000Y19500000D01*
X3085713Y19500000D01*
X3237338Y19515419D01*
X3431381Y19576300D01*
X3431391Y19576305D01*
X3609215Y19675006D01*
X3609216Y19675006D01*
X3763530Y19807479D01*
X3763531Y19807480D01*
X3888018Y19968305D01*
X3977588Y20150907D01*
X4003246Y20250000D01*
X5291634Y20250000D01*
X5291931Y20248054D01*
X5291933Y20248048D01*
X5362562Y20057343D01*
X5362565Y20057336D01*
X5470149Y19884733D01*
X5610264Y19737332D01*
X5610266Y19737331D01*
X5777196Y19621143D01*
X5798160Y19612147D01*
X5852004Y19567621D01*
X5873228Y19501052D01*
X5855093Y19433577D01*
X5847637Y19422710D01*
X5803567Y19365277D01*
X5803565Y19365275D01*
X5744572Y19222850D01*
X5744571Y19222846D01*
X5724448Y19070001D01*
X5724448Y19070000D01*
X5744571Y18917155D01*
X5744572Y18917151D01*
X5775246Y18843096D01*
X5803567Y18774724D01*
X5897417Y18652417D01*
X6019724Y18558567D01*
X6162154Y18499571D01*
X6276627Y18484500D01*
X6276634Y18484500D01*
X6353366Y18484500D01*
X6353373Y18484500D01*
X6467846Y18499571D01*
X6610276Y18558567D01*
X6732583Y18652417D01*
X6826433Y18774724D01*
X6885429Y18917154D01*
X6905552Y19070000D01*
X6885429Y19222846D01*
X6841645Y19328549D01*
X6834177Y19398017D01*
X6865452Y19460496D01*
X6925541Y19496148D01*
X6956207Y19500000D01*
X7415713Y19500000D01*
X7567338Y19515419D01*
X7761381Y19576300D01*
X7761391Y19576305D01*
X7939215Y19675006D01*
X7939216Y19675006D01*
X8003277Y19730000D01*
X17564815Y19730000D01*
X17583503Y19552195D01*
X17583504Y19552193D01*
X17638747Y19382171D01*
X17638750Y19382165D01*
X17728141Y19227335D01*
X17769812Y19181054D01*
X17847764Y19094479D01*
X17847767Y19094477D01*
X17847770Y19094474D01*
X17992407Y18989388D01*
X18155733Y18916671D01*
X18330609Y18879500D01*
X18330610Y18879500D01*
X18509389Y18879500D01*
X18509391Y18879500D01*
X18684267Y18916671D01*
X18847593Y18989388D01*
X18992230Y19094474D01*
X19111859Y19227335D01*
X19153812Y19300000D01*
X36859815Y19300000D01*
X36878503Y19122195D01*
X36878504Y19122193D01*
X36933747Y18952171D01*
X36933750Y18952165D01*
X37023141Y18797335D01*
X37064812Y18751054D01*
X37142764Y18664479D01*
X37142767Y18664477D01*
X37142770Y18664474D01*
X37287407Y18559388D01*
X37450733Y18486671D01*
X37625609Y18449500D01*
X37625610Y18449500D01*
X37804389Y18449500D01*
X37804391Y18449500D01*
X37979267Y18486671D01*
X38142593Y18559388D01*
X38287230Y18664474D01*
X38406859Y18797335D01*
X38496250Y18952165D01*
X38551497Y19122197D01*
X38570185Y19300000D01*
X38551497Y19477803D01*
X38504923Y19621143D01*
X38496252Y19647830D01*
X38496249Y19647836D01*
X38406859Y19802665D01*
X38360003Y19854704D01*
X38287235Y19935522D01*
X38287232Y19935524D01*
X38287231Y19935525D01*
X38287230Y19935526D01*
X38142593Y20040612D01*
X37979267Y20113329D01*
X37979265Y20113330D01*
X37851594Y20140467D01*
X37804391Y20150500D01*
X37625609Y20150500D01*
X37594954Y20143985D01*
X37450733Y20113330D01*
X37450728Y20113328D01*
X37287408Y20040613D01*
X37142768Y19935525D01*
X37023140Y19802664D01*
X36933750Y19647836D01*
X36933747Y19647830D01*
X36878504Y19477808D01*
X36878503Y19477806D01*
X36859815Y19300000D01*
X19153812Y19300000D01*
X19201250Y19382165D01*
X19256497Y19552197D01*
X19275185Y19730000D01*
X19256497Y19907803D01*
X19207911Y20057336D01*
X19201252Y20077830D01*
X19201249Y20077836D01*
X19180758Y20113328D01*
X19111859Y20232665D01*
X19065003Y20284704D01*
X18992235Y20365522D01*
X18992232Y20365524D01*
X18992231Y20365525D01*
X18992230Y20365526D01*
X18847593Y20470612D01*
X18684267Y20543329D01*
X18684265Y20543330D01*
X18556594Y20570467D01*
X18509391Y20580500D01*
X18330609Y20580500D01*
X18299954Y20573985D01*
X18155733Y20543330D01*
X18155728Y20543328D01*
X17992408Y20470613D01*
X17847768Y20365525D01*
X17728140Y20232664D01*
X17638750Y20077836D01*
X17638747Y20077830D01*
X17583504Y19907808D01*
X17583503Y19907806D01*
X17564815Y19730000D01*
X8003277Y19730000D01*
X8093530Y19807479D01*
X8093531Y19807480D01*
X8218018Y19968305D01*
X8307588Y20150907D01*
X8333246Y20250000D01*
X7531111Y20250000D01*
X7570610Y20274457D01*
X7638201Y20363962D01*
X7668895Y20471840D01*
X7658546Y20583521D01*
X7608552Y20683922D01*
X7536069Y20750000D01*
X8338366Y20750000D01*
X8338068Y20751947D01*
X8338066Y20751953D01*
X8267437Y20942658D01*
X8267434Y20942665D01*
X8159850Y21115268D01*
X8019735Y21262669D01*
X8019733Y21262670D01*
X7852804Y21378857D01*
X7665907Y21459060D01*
X7466690Y21500000D01*
X7065000Y21500000D01*
X7065000Y20800000D01*
X6565000Y20800000D01*
X6565000Y21500000D01*
X6214287Y21500000D01*
X6062661Y21484582D01*
X5868618Y21423701D01*
X5868608Y21423696D01*
X5690784Y21324995D01*
X5690783Y21324995D01*
X5536469Y21192522D01*
X5536468Y21192521D01*
X5411981Y21031696D01*
X5322411Y20849094D01*
X5296754Y20750000D01*
X6098889Y20750000D01*
X6059390Y20725543D01*
X5991799Y20636038D01*
X5961105Y20528160D01*
X5971454Y20416479D01*
X6021448Y20316078D01*
X6093931Y20250000D01*
X5291634Y20250000D01*
X4003246Y20250000D01*
X3201111Y20250000D01*
X3240610Y20274457D01*
X3308201Y20363962D01*
X3338895Y20471840D01*
X3328546Y20583521D01*
X3278552Y20683922D01*
X3206069Y20750000D01*
X4008366Y20750000D01*
X4008068Y20751947D01*
X4008066Y20751953D01*
X3937437Y20942658D01*
X3937434Y20942665D01*
X3829850Y21115268D01*
X3689735Y21262669D01*
X3689733Y21262670D01*
X3522804Y21378857D01*
X3335907Y21459060D01*
X3136690Y21500000D01*
X2885000Y21500000D01*
X2885000Y20800000D01*
X2385000Y20800000D01*
X2385000Y21500000D01*
X2184287Y21500000D01*
X2032661Y21484582D01*
X1838618Y21423701D01*
X1838608Y21423696D01*
X1660784Y21324995D01*
X1660783Y21324995D01*
X1506469Y21192522D01*
X1506468Y21192521D01*
X1381981Y21031696D01*
X1292411Y20849094D01*
X1266754Y20750000D01*
X2068889Y20750000D01*
X2029390Y20725543D01*
X1961799Y20636038D01*
X1931105Y20528160D01*
X1941454Y20416479D01*
X1991448Y20316078D01*
X2063931Y20250000D01*
X1261634Y20250000D01*
X120500Y20250000D01*
X120500Y24530000D01*
X28064815Y24530000D01*
X28083503Y24352195D01*
X28083504Y24352193D01*
X28138747Y24182171D01*
X28138750Y24182165D01*
X28228141Y24027335D01*
X28269812Y23981054D01*
X28347764Y23894479D01*
X28347767Y23894477D01*
X28347770Y23894474D01*
X28492407Y23789388D01*
X28655733Y23716671D01*
X28830609Y23679500D01*
X28830610Y23679500D01*
X29009389Y23679500D01*
X29009391Y23679500D01*
X29184267Y23716671D01*
X29347593Y23789388D01*
X29492230Y23894474D01*
X29611859Y24027335D01*
X29701250Y24182165D01*
X29756497Y24352197D01*
X29775185Y24530000D01*
X29756497Y24707803D01*
X29701250Y24877835D01*
X29611859Y25032665D01*
X29565003Y25084704D01*
X29492235Y25165522D01*
X29492232Y25165524D01*
X29492231Y25165525D01*
X29492230Y25165526D01*
X29347593Y25270612D01*
X29184267Y25343329D01*
X29184265Y25343330D01*
X29056594Y25370467D01*
X29009391Y25380500D01*
X28830609Y25380500D01*
X28799954Y25373985D01*
X28655733Y25343330D01*
X28655728Y25343328D01*
X28492408Y25270613D01*
X28347768Y25165525D01*
X28228140Y25032664D01*
X28138750Y24877836D01*
X28138747Y24877830D01*
X28083504Y24707808D01*
X28083503Y24707806D01*
X28064815Y24530000D01*
X120500Y24530000D01*
X120500Y26326952D01*
X120799Y26333032D01*
X126033Y26386173D01*
X132744Y26454320D01*
X137483Y26478144D01*
X170203Y26586010D01*
X179499Y26608451D01*
X232632Y26707856D01*
X246133Y26728060D01*
X317635Y26815186D01*
X334814Y26832365D01*
X421942Y26903869D01*
X442144Y26917368D01*
X541549Y26970501D01*
X563990Y26979797D01*
X671856Y27012517D01*
X695682Y27017256D01*
X769052Y27024483D01*
X816969Y27029201D01*
X823049Y27029500D01*
X867595Y27029500D01*
X30763827Y27029500D01*
X49772405Y27029500D01*
X49816951Y27029500D01*
X49823031Y27029201D01*
G37*
%TD.AperFunction*%
%TD*%
M02*
