M48
; DRILL file {KiCad 7.0.8} date Mon Jan 29 14:08:55 2024
; FORMAT={-:-/ absolute / inch / decimal}
; #@! TF.CreationDate,2024-01-29T14:08:55+05:30
; #@! TF.GenerationSoftware,Kicad,Pcbnew,7.0.8
; #@! TF.FileFunction,Plated,1,4,PTH
FMAT,2
INCH
; #@! TA.AperFunction,Plated,PTH,ViaDrill
T1C0.0118
; #@! TA.AperFunction,Plated,PTH,ViaDrill
T2C0.0157
; #@! TA.AperFunction,Plated,PTH,ComponentDrill
T3C0.0157
; #@! TA.AperFunction,Plated,PTH,ComponentDrill
T4C0.0197
; #@! TA.AperFunction,Plated,PTH,ComponentDrill
T5C0.0236
; #@! TA.AperFunction,Plated,PTH,ComponentDrill
T6C0.0866
%
G90
G05
T1
X4.6939Y-3.2114
X4.7057Y-3.6996
X4.9201Y-3.6406
X4.924Y-3.2726
X4.9244Y-3.7024
X4.9409Y-3.5236
X5.0224Y-3.4988
X5.1197Y-3.737
X5.1217Y-3.7713
X5.1996Y-3.6091
X5.2941Y-3.3177
X5.3587Y-3.7398
X5.4848Y-3.4083
X5.4909Y-3.622
X5.5402Y-3.7272
X5.5421Y-3.5657
X5.5575Y-3.3689
X5.5795Y-3.7287
X5.5955Y-3.1799
X5.6051Y-3.9358
X5.6248Y-3.7154
X5.6309Y-3.235
X5.6309Y-3.2744
X5.7035Y-3.365
X5.7035Y-3.4476
X5.7035Y-3.5264
X5.7075Y-3.1287
X5.735Y-3.487
X5.739Y-3.4043
X5.7744Y-3.4437
X5.7744Y-3.5224
X5.7744Y-3.7035
X5.7941Y-3.365
X5.8217Y-3.487
X5.8295Y-3.4043
X5.8728Y-3.5224
X5.8768Y-3.4437
X5.8807Y-3.365
X5.8894Y-3.7614
X5.9179Y-3.2376
X5.9319Y-3.7035
X6.0185Y-3.4398
X6.0264Y-3.2683
X6.0437Y-3.378
X6.0537Y-3.3346
X6.0697Y-3.123
X6.0748Y-3.4587
X6.0972Y-3.9713
X6.113Y-3.3278
X6.1382Y-3.5156
X6.172Y-3.8453
X6.2587Y-3.3356
X6.3177Y-3.3768
X6.3217Y-3.4555
X6.4634Y-3.298
X6.4635Y-3.5315
T2
X5.2376Y-3.7713
X5.8142Y-3.7547
X6.0776Y-3.7783
T3
X4.9335Y-3.1299
X4.9449Y-3.9618
X4.9525Y-3.084
X4.9525Y-3.1759
X4.9639Y-3.9159
X4.9639Y-4.0077
X4.9984Y-3.065
X4.9984Y-3.1949
X5.0098Y-3.8969
X5.0098Y-4.0268
X5.0444Y-3.084
X5.0444Y-3.1759
X5.0558Y-3.9159
X5.0558Y-4.0077
X5.0634Y-3.1299
X5.0748Y-3.9618
X6.3698Y-3.9576
X6.3791Y-3.1366
X6.3888Y-3.9117
X6.3888Y-4.0035
X6.3982Y-3.0907
X6.3982Y-3.1825
X6.4348Y-3.8926
X6.4348Y-4.0226
X6.4441Y-3.0717
X6.4441Y-3.2016
X6.4807Y-3.9117
X6.4807Y-4.0035
X6.49Y-3.0907
X6.49Y-3.1825
X6.4997Y-3.9576
X6.5091Y-3.1366
T4
X4.7803Y-3.8059
X4.7803Y-3.8551
X4.7803Y-3.9043
X4.7803Y-3.9535
T6
X4.9984Y-3.1299
X5.0098Y-3.9618
X6.4348Y-3.9576
X6.4441Y-3.1366
T5
G00X4.6884Y-3.2874
M15
G01X4.6569Y-3.2874
M16
G05
G00X4.6884Y-3.6276
M15
G01X4.6569Y-3.6276
M16
G05
G00X4.8589Y-3.2874
M15
G01X4.8156Y-3.2874
M16
G05
G00X4.8589Y-3.6276
M15
G01X4.8156Y-3.6276
M16
G05
T0
M30
