%TF.GenerationSoftware,KiCad,Pcbnew,7.0.8*%
%TF.CreationDate,2024-01-29T14:08:57+05:30*%
%TF.ProjectId,stm32_ble,73746d33-325f-4626-9c65-2e6b69636164,Version : 1*%
%TF.SameCoordinates,Original*%
%TF.FileFunction,Drillmap*%
%TF.FilePolarity,Positive*%
%FSLAX45Y45*%
G04 Gerber Fmt 4.5, Leading zero omitted, Abs format (unit mm)*
G04 Created by KiCad (PCBNEW 7.0.8) date 2024-01-29 14:08:57*
%MOMM*%
%LPD*%
G01*
G04 APERTURE LIST*
%ADD10C,0.100000*%
%ADD11C,0.200000*%
%ADD12C,0.065000*%
%ADD13C,0.099060*%
%ADD14C,0.237490*%
G04 APERTURE END LIST*
D10*
X11587000Y-10267000D02*
G75*
G03*
X11687000Y-10367000I100000J0D01*
G01*
X11587000Y-10267000D02*
X11587000Y-7767000D01*
X16687000Y-7767000D02*
X16687000Y-10267000D01*
X14687000Y-7667000D02*
X16587000Y-7667000D01*
X16687000Y-7767000D02*
G75*
G03*
X16587000Y-7667000I-100000J0D01*
G01*
X16587000Y-10367000D02*
G75*
G03*
X16687000Y-10267000I0J100000D01*
G01*
X11687000Y-7667000D02*
X14687000Y-7667000D01*
X11687000Y-7667000D02*
G75*
G03*
X11587000Y-7767000I0J-100000D01*
G01*
X16587000Y-10367000D02*
X11687000Y-10367000D01*
D11*
D12*
X12204000Y-8460500D02*
X12269000Y-8525500D01*
X12269000Y-8460500D02*
X12204000Y-8525500D01*
X12204000Y-9038500D02*
X12269000Y-9103500D01*
X12269000Y-9038500D02*
X12204000Y-9103500D01*
D13*
X13403330Y-9167000D02*
G75*
G03*
X13403330Y-9167000I-49530J0D01*
G01*
X13504930Y-8659000D02*
G75*
G03*
X13504930Y-8659000I-49530J0D01*
G01*
X13606530Y-9167000D02*
G75*
G03*
X13606530Y-9167000I-49530J0D01*
G01*
D14*
X13201400Y-8540255D02*
X13201400Y-8777745D01*
X13082655Y-8659000D02*
X13320145Y-8659000D01*
X13201400Y-8857755D02*
X13201400Y-9095245D01*
X13082655Y-8976500D02*
X13320145Y-8976500D01*
X13709400Y-8540255D02*
X13709400Y-8777745D01*
X13590655Y-8659000D02*
X13828145Y-8659000D01*
X13709400Y-8857755D02*
X13709400Y-9095245D01*
X13590655Y-8976500D02*
X13828145Y-8976500D01*
D11*
X11842777Y-10683484D02*
X11842777Y-10483484D01*
X11842777Y-10483484D02*
X11890396Y-10483484D01*
X11890396Y-10483484D02*
X11918967Y-10493008D01*
X11918967Y-10493008D02*
X11938015Y-10512055D01*
X11938015Y-10512055D02*
X11947539Y-10531103D01*
X11947539Y-10531103D02*
X11957062Y-10569198D01*
X11957062Y-10569198D02*
X11957062Y-10597770D01*
X11957062Y-10597770D02*
X11947539Y-10635865D01*
X11947539Y-10635865D02*
X11938015Y-10654912D01*
X11938015Y-10654912D02*
X11918967Y-10673960D01*
X11918967Y-10673960D02*
X11890396Y-10683484D01*
X11890396Y-10683484D02*
X11842777Y-10683484D01*
X12042777Y-10683484D02*
X12042777Y-10550150D01*
X12042777Y-10588246D02*
X12052301Y-10569198D01*
X12052301Y-10569198D02*
X12061824Y-10559674D01*
X12061824Y-10559674D02*
X12080872Y-10550150D01*
X12080872Y-10550150D02*
X12099920Y-10550150D01*
X12166586Y-10683484D02*
X12166586Y-10550150D01*
X12166586Y-10483484D02*
X12157062Y-10493008D01*
X12157062Y-10493008D02*
X12166586Y-10502531D01*
X12166586Y-10502531D02*
X12176110Y-10493008D01*
X12176110Y-10493008D02*
X12166586Y-10483484D01*
X12166586Y-10483484D02*
X12166586Y-10502531D01*
X12290396Y-10683484D02*
X12271348Y-10673960D01*
X12271348Y-10673960D02*
X12261824Y-10654912D01*
X12261824Y-10654912D02*
X12261824Y-10483484D01*
X12395158Y-10683484D02*
X12376110Y-10673960D01*
X12376110Y-10673960D02*
X12366586Y-10654912D01*
X12366586Y-10654912D02*
X12366586Y-10483484D01*
X12623729Y-10683484D02*
X12623729Y-10483484D01*
X12623729Y-10483484D02*
X12690396Y-10626341D01*
X12690396Y-10626341D02*
X12757062Y-10483484D01*
X12757062Y-10483484D02*
X12757062Y-10683484D01*
X12938015Y-10683484D02*
X12938015Y-10578722D01*
X12938015Y-10578722D02*
X12928491Y-10559674D01*
X12928491Y-10559674D02*
X12909443Y-10550150D01*
X12909443Y-10550150D02*
X12871348Y-10550150D01*
X12871348Y-10550150D02*
X12852301Y-10559674D01*
X12938015Y-10673960D02*
X12918967Y-10683484D01*
X12918967Y-10683484D02*
X12871348Y-10683484D01*
X12871348Y-10683484D02*
X12852301Y-10673960D01*
X12852301Y-10673960D02*
X12842777Y-10654912D01*
X12842777Y-10654912D02*
X12842777Y-10635865D01*
X12842777Y-10635865D02*
X12852301Y-10616817D01*
X12852301Y-10616817D02*
X12871348Y-10607293D01*
X12871348Y-10607293D02*
X12918967Y-10607293D01*
X12918967Y-10607293D02*
X12938015Y-10597770D01*
X13033253Y-10550150D02*
X13033253Y-10750150D01*
X13033253Y-10559674D02*
X13052301Y-10550150D01*
X13052301Y-10550150D02*
X13090396Y-10550150D01*
X13090396Y-10550150D02*
X13109443Y-10559674D01*
X13109443Y-10559674D02*
X13118967Y-10569198D01*
X13118967Y-10569198D02*
X13128491Y-10588246D01*
X13128491Y-10588246D02*
X13128491Y-10645389D01*
X13128491Y-10645389D02*
X13118967Y-10664436D01*
X13118967Y-10664436D02*
X13109443Y-10673960D01*
X13109443Y-10673960D02*
X13090396Y-10683484D01*
X13090396Y-10683484D02*
X13052301Y-10683484D01*
X13052301Y-10683484D02*
X13033253Y-10673960D01*
X13214205Y-10664436D02*
X13223729Y-10673960D01*
X13223729Y-10673960D02*
X13214205Y-10683484D01*
X13214205Y-10683484D02*
X13204682Y-10673960D01*
X13204682Y-10673960D02*
X13214205Y-10664436D01*
X13214205Y-10664436D02*
X13214205Y-10683484D01*
X13214205Y-10559674D02*
X13223729Y-10569198D01*
X13223729Y-10569198D02*
X13214205Y-10578722D01*
X13214205Y-10578722D02*
X13204682Y-10569198D01*
X13204682Y-10569198D02*
X13214205Y-10559674D01*
X13214205Y-10559674D02*
X13214205Y-10578722D01*
D12*
X11517000Y-10979500D02*
X11582000Y-11044500D01*
X11582000Y-10979500D02*
X11517000Y-11044500D01*
D11*
X11880872Y-10903484D02*
X11899920Y-10903484D01*
X11899920Y-10903484D02*
X11918967Y-10913008D01*
X11918967Y-10913008D02*
X11928491Y-10922531D01*
X11928491Y-10922531D02*
X11938015Y-10941579D01*
X11938015Y-10941579D02*
X11947539Y-10979674D01*
X11947539Y-10979674D02*
X11947539Y-11027293D01*
X11947539Y-11027293D02*
X11938015Y-11065389D01*
X11938015Y-11065389D02*
X11928491Y-11084436D01*
X11928491Y-11084436D02*
X11918967Y-11093960D01*
X11918967Y-11093960D02*
X11899920Y-11103484D01*
X11899920Y-11103484D02*
X11880872Y-11103484D01*
X11880872Y-11103484D02*
X11861824Y-11093960D01*
X11861824Y-11093960D02*
X11852301Y-11084436D01*
X11852301Y-11084436D02*
X11842777Y-11065389D01*
X11842777Y-11065389D02*
X11833253Y-11027293D01*
X11833253Y-11027293D02*
X11833253Y-10979674D01*
X11833253Y-10979674D02*
X11842777Y-10941579D01*
X11842777Y-10941579D02*
X11852301Y-10922531D01*
X11852301Y-10922531D02*
X11861824Y-10913008D01*
X11861824Y-10913008D02*
X11880872Y-10903484D01*
X12033253Y-11084436D02*
X12042777Y-11093960D01*
X12042777Y-11093960D02*
X12033253Y-11103484D01*
X12033253Y-11103484D02*
X12023729Y-11093960D01*
X12023729Y-11093960D02*
X12033253Y-11084436D01*
X12033253Y-11084436D02*
X12033253Y-11103484D01*
X12214205Y-10903484D02*
X12176110Y-10903484D01*
X12176110Y-10903484D02*
X12157062Y-10913008D01*
X12157062Y-10913008D02*
X12147539Y-10922531D01*
X12147539Y-10922531D02*
X12128491Y-10951103D01*
X12128491Y-10951103D02*
X12118967Y-10989198D01*
X12118967Y-10989198D02*
X12118967Y-11065389D01*
X12118967Y-11065389D02*
X12128491Y-11084436D01*
X12128491Y-11084436D02*
X12138015Y-11093960D01*
X12138015Y-11093960D02*
X12157062Y-11103484D01*
X12157062Y-11103484D02*
X12195158Y-11103484D01*
X12195158Y-11103484D02*
X12214205Y-11093960D01*
X12214205Y-11093960D02*
X12223729Y-11084436D01*
X12223729Y-11084436D02*
X12233253Y-11065389D01*
X12233253Y-11065389D02*
X12233253Y-11017770D01*
X12233253Y-11017770D02*
X12223729Y-10998722D01*
X12223729Y-10998722D02*
X12214205Y-10989198D01*
X12214205Y-10989198D02*
X12195158Y-10979674D01*
X12195158Y-10979674D02*
X12157062Y-10979674D01*
X12157062Y-10979674D02*
X12138015Y-10989198D01*
X12138015Y-10989198D02*
X12128491Y-10998722D01*
X12128491Y-10998722D02*
X12118967Y-11017770D01*
X12414205Y-10903484D02*
X12318967Y-10903484D01*
X12318967Y-10903484D02*
X12309443Y-10998722D01*
X12309443Y-10998722D02*
X12318967Y-10989198D01*
X12318967Y-10989198D02*
X12338015Y-10979674D01*
X12338015Y-10979674D02*
X12385634Y-10979674D01*
X12385634Y-10979674D02*
X12404682Y-10989198D01*
X12404682Y-10989198D02*
X12414205Y-10998722D01*
X12414205Y-10998722D02*
X12423729Y-11017770D01*
X12423729Y-11017770D02*
X12423729Y-11065389D01*
X12423729Y-11065389D02*
X12414205Y-11084436D01*
X12414205Y-11084436D02*
X12404682Y-11093960D01*
X12404682Y-11093960D02*
X12385634Y-11103484D01*
X12385634Y-11103484D02*
X12338015Y-11103484D01*
X12338015Y-11103484D02*
X12318967Y-11093960D01*
X12318967Y-11093960D02*
X12309443Y-11084436D01*
X12547539Y-10903484D02*
X12566586Y-10903484D01*
X12566586Y-10903484D02*
X12585634Y-10913008D01*
X12585634Y-10913008D02*
X12595158Y-10922531D01*
X12595158Y-10922531D02*
X12604682Y-10941579D01*
X12604682Y-10941579D02*
X12614205Y-10979674D01*
X12614205Y-10979674D02*
X12614205Y-11027293D01*
X12614205Y-11027293D02*
X12604682Y-11065389D01*
X12604682Y-11065389D02*
X12595158Y-11084436D01*
X12595158Y-11084436D02*
X12585634Y-11093960D01*
X12585634Y-11093960D02*
X12566586Y-11103484D01*
X12566586Y-11103484D02*
X12547539Y-11103484D01*
X12547539Y-11103484D02*
X12528491Y-11093960D01*
X12528491Y-11093960D02*
X12518967Y-11084436D01*
X12518967Y-11084436D02*
X12509443Y-11065389D01*
X12509443Y-11065389D02*
X12499920Y-11027293D01*
X12499920Y-11027293D02*
X12499920Y-10979674D01*
X12499920Y-10979674D02*
X12509443Y-10941579D01*
X12509443Y-10941579D02*
X12518967Y-10922531D01*
X12518967Y-10922531D02*
X12528491Y-10913008D01*
X12528491Y-10913008D02*
X12547539Y-10903484D01*
X12699920Y-11103484D02*
X12699920Y-10970150D01*
X12699920Y-10989198D02*
X12709443Y-10979674D01*
X12709443Y-10979674D02*
X12728491Y-10970150D01*
X12728491Y-10970150D02*
X12757063Y-10970150D01*
X12757063Y-10970150D02*
X12776110Y-10979674D01*
X12776110Y-10979674D02*
X12785634Y-10998722D01*
X12785634Y-10998722D02*
X12785634Y-11103484D01*
X12785634Y-10998722D02*
X12795158Y-10979674D01*
X12795158Y-10979674D02*
X12814205Y-10970150D01*
X12814205Y-10970150D02*
X12842777Y-10970150D01*
X12842777Y-10970150D02*
X12861824Y-10979674D01*
X12861824Y-10979674D02*
X12871348Y-10998722D01*
X12871348Y-10998722D02*
X12871348Y-11103484D01*
X12966586Y-11103484D02*
X12966586Y-10970150D01*
X12966586Y-10989198D02*
X12976110Y-10979674D01*
X12976110Y-10979674D02*
X12995158Y-10970150D01*
X12995158Y-10970150D02*
X13023729Y-10970150D01*
X13023729Y-10970150D02*
X13042777Y-10979674D01*
X13042777Y-10979674D02*
X13052301Y-10998722D01*
X13052301Y-10998722D02*
X13052301Y-11103484D01*
X13052301Y-10998722D02*
X13061824Y-10979674D01*
X13061824Y-10979674D02*
X13080872Y-10970150D01*
X13080872Y-10970150D02*
X13109443Y-10970150D01*
X13109443Y-10970150D02*
X13128491Y-10979674D01*
X13128491Y-10979674D02*
X13138015Y-10998722D01*
X13138015Y-10998722D02*
X13138015Y-11103484D01*
X13528491Y-10893960D02*
X13357063Y-11151103D01*
X13785634Y-10903484D02*
X13804682Y-10903484D01*
X13804682Y-10903484D02*
X13823729Y-10913008D01*
X13823729Y-10913008D02*
X13833253Y-10922531D01*
X13833253Y-10922531D02*
X13842777Y-10941579D01*
X13842777Y-10941579D02*
X13852301Y-10979674D01*
X13852301Y-10979674D02*
X13852301Y-11027293D01*
X13852301Y-11027293D02*
X13842777Y-11065389D01*
X13842777Y-11065389D02*
X13833253Y-11084436D01*
X13833253Y-11084436D02*
X13823729Y-11093960D01*
X13823729Y-11093960D02*
X13804682Y-11103484D01*
X13804682Y-11103484D02*
X13785634Y-11103484D01*
X13785634Y-11103484D02*
X13766586Y-11093960D01*
X13766586Y-11093960D02*
X13757063Y-11084436D01*
X13757063Y-11084436D02*
X13747539Y-11065389D01*
X13747539Y-11065389D02*
X13738015Y-11027293D01*
X13738015Y-11027293D02*
X13738015Y-10979674D01*
X13738015Y-10979674D02*
X13747539Y-10941579D01*
X13747539Y-10941579D02*
X13757063Y-10922531D01*
X13757063Y-10922531D02*
X13766586Y-10913008D01*
X13766586Y-10913008D02*
X13785634Y-10903484D01*
X13938015Y-11084436D02*
X13947539Y-11093960D01*
X13947539Y-11093960D02*
X13938015Y-11103484D01*
X13938015Y-11103484D02*
X13928491Y-11093960D01*
X13928491Y-11093960D02*
X13938015Y-11084436D01*
X13938015Y-11084436D02*
X13938015Y-11103484D01*
X14071348Y-10903484D02*
X14090396Y-10903484D01*
X14090396Y-10903484D02*
X14109444Y-10913008D01*
X14109444Y-10913008D02*
X14118967Y-10922531D01*
X14118967Y-10922531D02*
X14128491Y-10941579D01*
X14128491Y-10941579D02*
X14138015Y-10979674D01*
X14138015Y-10979674D02*
X14138015Y-11027293D01*
X14138015Y-11027293D02*
X14128491Y-11065389D01*
X14128491Y-11065389D02*
X14118967Y-11084436D01*
X14118967Y-11084436D02*
X14109444Y-11093960D01*
X14109444Y-11093960D02*
X14090396Y-11103484D01*
X14090396Y-11103484D02*
X14071348Y-11103484D01*
X14071348Y-11103484D02*
X14052301Y-11093960D01*
X14052301Y-11093960D02*
X14042777Y-11084436D01*
X14042777Y-11084436D02*
X14033253Y-11065389D01*
X14033253Y-11065389D02*
X14023729Y-11027293D01*
X14023729Y-11027293D02*
X14023729Y-10979674D01*
X14023729Y-10979674D02*
X14033253Y-10941579D01*
X14033253Y-10941579D02*
X14042777Y-10922531D01*
X14042777Y-10922531D02*
X14052301Y-10913008D01*
X14052301Y-10913008D02*
X14071348Y-10903484D01*
X14214206Y-10922531D02*
X14223729Y-10913008D01*
X14223729Y-10913008D02*
X14242777Y-10903484D01*
X14242777Y-10903484D02*
X14290396Y-10903484D01*
X14290396Y-10903484D02*
X14309444Y-10913008D01*
X14309444Y-10913008D02*
X14318967Y-10922531D01*
X14318967Y-10922531D02*
X14328491Y-10941579D01*
X14328491Y-10941579D02*
X14328491Y-10960627D01*
X14328491Y-10960627D02*
X14318967Y-10989198D01*
X14318967Y-10989198D02*
X14204682Y-11103484D01*
X14204682Y-11103484D02*
X14328491Y-11103484D01*
X14509444Y-10903484D02*
X14414206Y-10903484D01*
X14414206Y-10903484D02*
X14404682Y-10998722D01*
X14404682Y-10998722D02*
X14414206Y-10989198D01*
X14414206Y-10989198D02*
X14433253Y-10979674D01*
X14433253Y-10979674D02*
X14480872Y-10979674D01*
X14480872Y-10979674D02*
X14499920Y-10989198D01*
X14499920Y-10989198D02*
X14509444Y-10998722D01*
X14509444Y-10998722D02*
X14518967Y-11017770D01*
X14518967Y-11017770D02*
X14518967Y-11065389D01*
X14518967Y-11065389D02*
X14509444Y-11084436D01*
X14509444Y-11084436D02*
X14499920Y-11093960D01*
X14499920Y-11093960D02*
X14480872Y-11103484D01*
X14480872Y-11103484D02*
X14433253Y-11103484D01*
X14433253Y-11103484D02*
X14414206Y-11093960D01*
X14414206Y-11093960D02*
X14404682Y-11084436D01*
X14690396Y-10903484D02*
X14652301Y-10903484D01*
X14652301Y-10903484D02*
X14633253Y-10913008D01*
X14633253Y-10913008D02*
X14623729Y-10922531D01*
X14623729Y-10922531D02*
X14604682Y-10951103D01*
X14604682Y-10951103D02*
X14595158Y-10989198D01*
X14595158Y-10989198D02*
X14595158Y-11065389D01*
X14595158Y-11065389D02*
X14604682Y-11084436D01*
X14604682Y-11084436D02*
X14614206Y-11093960D01*
X14614206Y-11093960D02*
X14633253Y-11103484D01*
X14633253Y-11103484D02*
X14671348Y-11103484D01*
X14671348Y-11103484D02*
X14690396Y-11093960D01*
X14690396Y-11093960D02*
X14699920Y-11084436D01*
X14699920Y-11084436D02*
X14709444Y-11065389D01*
X14709444Y-11065389D02*
X14709444Y-11017770D01*
X14709444Y-11017770D02*
X14699920Y-10998722D01*
X14699920Y-10998722D02*
X14690396Y-10989198D01*
X14690396Y-10989198D02*
X14671348Y-10979674D01*
X14671348Y-10979674D02*
X14633253Y-10979674D01*
X14633253Y-10979674D02*
X14614206Y-10989198D01*
X14614206Y-10989198D02*
X14604682Y-10998722D01*
X14604682Y-10998722D02*
X14595158Y-11017770D01*
X14785634Y-10903484D02*
X14785634Y-10941579D01*
X14861825Y-10903484D02*
X14861825Y-10941579D01*
X15157063Y-11179674D02*
X15147539Y-11170150D01*
X15147539Y-11170150D02*
X15128491Y-11141579D01*
X15128491Y-11141579D02*
X15118968Y-11122531D01*
X15118968Y-11122531D02*
X15109444Y-11093960D01*
X15109444Y-11093960D02*
X15099920Y-11046341D01*
X15099920Y-11046341D02*
X15099920Y-11008246D01*
X15099920Y-11008246D02*
X15109444Y-10960627D01*
X15109444Y-10960627D02*
X15118968Y-10932055D01*
X15118968Y-10932055D02*
X15128491Y-10913008D01*
X15128491Y-10913008D02*
X15147539Y-10884436D01*
X15147539Y-10884436D02*
X15157063Y-10874912D01*
X15223729Y-10922531D02*
X15233253Y-10913008D01*
X15233253Y-10913008D02*
X15252301Y-10903484D01*
X15252301Y-10903484D02*
X15299920Y-10903484D01*
X15299920Y-10903484D02*
X15318968Y-10913008D01*
X15318968Y-10913008D02*
X15328491Y-10922531D01*
X15328491Y-10922531D02*
X15338015Y-10941579D01*
X15338015Y-10941579D02*
X15338015Y-10960627D01*
X15338015Y-10960627D02*
X15328491Y-10989198D01*
X15328491Y-10989198D02*
X15214206Y-11103484D01*
X15214206Y-11103484D02*
X15338015Y-11103484D01*
X15576110Y-11103484D02*
X15576110Y-10903484D01*
X15661825Y-11103484D02*
X15661825Y-10998722D01*
X15661825Y-10998722D02*
X15652301Y-10979674D01*
X15652301Y-10979674D02*
X15633253Y-10970150D01*
X15633253Y-10970150D02*
X15604682Y-10970150D01*
X15604682Y-10970150D02*
X15585634Y-10979674D01*
X15585634Y-10979674D02*
X15576110Y-10989198D01*
X15785634Y-11103484D02*
X15766587Y-11093960D01*
X15766587Y-11093960D02*
X15757063Y-11084436D01*
X15757063Y-11084436D02*
X15747539Y-11065389D01*
X15747539Y-11065389D02*
X15747539Y-11008246D01*
X15747539Y-11008246D02*
X15757063Y-10989198D01*
X15757063Y-10989198D02*
X15766587Y-10979674D01*
X15766587Y-10979674D02*
X15785634Y-10970150D01*
X15785634Y-10970150D02*
X15814206Y-10970150D01*
X15814206Y-10970150D02*
X15833253Y-10979674D01*
X15833253Y-10979674D02*
X15842777Y-10989198D01*
X15842777Y-10989198D02*
X15852301Y-11008246D01*
X15852301Y-11008246D02*
X15852301Y-11065389D01*
X15852301Y-11065389D02*
X15842777Y-11084436D01*
X15842777Y-11084436D02*
X15833253Y-11093960D01*
X15833253Y-11093960D02*
X15814206Y-11103484D01*
X15814206Y-11103484D02*
X15785634Y-11103484D01*
X15966587Y-11103484D02*
X15947539Y-11093960D01*
X15947539Y-11093960D02*
X15938015Y-11074912D01*
X15938015Y-11074912D02*
X15938015Y-10903484D01*
X16118968Y-11093960D02*
X16099920Y-11103484D01*
X16099920Y-11103484D02*
X16061825Y-11103484D01*
X16061825Y-11103484D02*
X16042777Y-11093960D01*
X16042777Y-11093960D02*
X16033253Y-11074912D01*
X16033253Y-11074912D02*
X16033253Y-10998722D01*
X16033253Y-10998722D02*
X16042777Y-10979674D01*
X16042777Y-10979674D02*
X16061825Y-10970150D01*
X16061825Y-10970150D02*
X16099920Y-10970150D01*
X16099920Y-10970150D02*
X16118968Y-10979674D01*
X16118968Y-10979674D02*
X16128491Y-10998722D01*
X16128491Y-10998722D02*
X16128491Y-11017770D01*
X16128491Y-11017770D02*
X16033253Y-11036817D01*
X16204682Y-11093960D02*
X16223730Y-11103484D01*
X16223730Y-11103484D02*
X16261825Y-11103484D01*
X16261825Y-11103484D02*
X16280872Y-11093960D01*
X16280872Y-11093960D02*
X16290396Y-11074912D01*
X16290396Y-11074912D02*
X16290396Y-11065389D01*
X16290396Y-11065389D02*
X16280872Y-11046341D01*
X16280872Y-11046341D02*
X16261825Y-11036817D01*
X16261825Y-11036817D02*
X16233253Y-11036817D01*
X16233253Y-11036817D02*
X16214206Y-11027293D01*
X16214206Y-11027293D02*
X16204682Y-11008246D01*
X16204682Y-11008246D02*
X16204682Y-10998722D01*
X16204682Y-10998722D02*
X16214206Y-10979674D01*
X16214206Y-10979674D02*
X16233253Y-10970150D01*
X16233253Y-10970150D02*
X16261825Y-10970150D01*
X16261825Y-10970150D02*
X16280872Y-10979674D01*
X16357063Y-11179674D02*
X16366587Y-11170150D01*
X16366587Y-11170150D02*
X16385634Y-11141579D01*
X16385634Y-11141579D02*
X16395158Y-11122531D01*
X16395158Y-11122531D02*
X16404682Y-11093960D01*
X16404682Y-11093960D02*
X16414206Y-11046341D01*
X16414206Y-11046341D02*
X16414206Y-11008246D01*
X16414206Y-11008246D02*
X16404682Y-10960627D01*
X16404682Y-10960627D02*
X16395158Y-10932055D01*
X16395158Y-10932055D02*
X16385634Y-10913008D01*
X16385634Y-10913008D02*
X16366587Y-10884436D01*
X16366587Y-10884436D02*
X16357063Y-10874912D01*
X16718968Y-11179674D02*
X16709444Y-11170150D01*
X16709444Y-11170150D02*
X16690396Y-11141579D01*
X16690396Y-11141579D02*
X16680872Y-11122531D01*
X16680872Y-11122531D02*
X16671349Y-11093960D01*
X16671349Y-11093960D02*
X16661825Y-11046341D01*
X16661825Y-11046341D02*
X16661825Y-11008246D01*
X16661825Y-11008246D02*
X16671349Y-10960627D01*
X16671349Y-10960627D02*
X16680872Y-10932055D01*
X16680872Y-10932055D02*
X16690396Y-10913008D01*
X16690396Y-10913008D02*
X16709444Y-10884436D01*
X16709444Y-10884436D02*
X16718968Y-10874912D01*
X16795158Y-10970150D02*
X16795158Y-11103484D01*
X16795158Y-10989198D02*
X16804682Y-10979674D01*
X16804682Y-10979674D02*
X16823730Y-10970150D01*
X16823730Y-10970150D02*
X16852301Y-10970150D01*
X16852301Y-10970150D02*
X16871349Y-10979674D01*
X16871349Y-10979674D02*
X16880873Y-10998722D01*
X16880873Y-10998722D02*
X16880873Y-11103484D01*
X17004682Y-11103484D02*
X16985634Y-11093960D01*
X16985634Y-11093960D02*
X16976111Y-11084436D01*
X16976111Y-11084436D02*
X16966587Y-11065389D01*
X16966587Y-11065389D02*
X16966587Y-11008246D01*
X16966587Y-11008246D02*
X16976111Y-10989198D01*
X16976111Y-10989198D02*
X16985634Y-10979674D01*
X16985634Y-10979674D02*
X17004682Y-10970150D01*
X17004682Y-10970150D02*
X17033254Y-10970150D01*
X17033254Y-10970150D02*
X17052301Y-10979674D01*
X17052301Y-10979674D02*
X17061825Y-10989198D01*
X17061825Y-10989198D02*
X17071349Y-11008246D01*
X17071349Y-11008246D02*
X17071349Y-11065389D01*
X17071349Y-11065389D02*
X17061825Y-11084436D01*
X17061825Y-11084436D02*
X17052301Y-11093960D01*
X17052301Y-11093960D02*
X17033254Y-11103484D01*
X17033254Y-11103484D02*
X17004682Y-11103484D01*
X17128492Y-10970150D02*
X17204682Y-10970150D01*
X17157063Y-10903484D02*
X17157063Y-11074912D01*
X17157063Y-11074912D02*
X17166587Y-11093960D01*
X17166587Y-11093960D02*
X17185634Y-11103484D01*
X17185634Y-11103484D02*
X17204682Y-11103484D01*
X17423730Y-10970150D02*
X17423730Y-11170150D01*
X17423730Y-10979674D02*
X17442777Y-10970150D01*
X17442777Y-10970150D02*
X17480873Y-10970150D01*
X17480873Y-10970150D02*
X17499920Y-10979674D01*
X17499920Y-10979674D02*
X17509444Y-10989198D01*
X17509444Y-10989198D02*
X17518968Y-11008246D01*
X17518968Y-11008246D02*
X17518968Y-11065389D01*
X17518968Y-11065389D02*
X17509444Y-11084436D01*
X17509444Y-11084436D02*
X17499920Y-11093960D01*
X17499920Y-11093960D02*
X17480873Y-11103484D01*
X17480873Y-11103484D02*
X17442777Y-11103484D01*
X17442777Y-11103484D02*
X17423730Y-11093960D01*
X17633254Y-11103484D02*
X17614206Y-11093960D01*
X17614206Y-11093960D02*
X17604682Y-11074912D01*
X17604682Y-11074912D02*
X17604682Y-10903484D01*
X17795158Y-11103484D02*
X17795158Y-10998722D01*
X17795158Y-10998722D02*
X17785635Y-10979674D01*
X17785635Y-10979674D02*
X17766587Y-10970150D01*
X17766587Y-10970150D02*
X17728492Y-10970150D01*
X17728492Y-10970150D02*
X17709444Y-10979674D01*
X17795158Y-11093960D02*
X17776111Y-11103484D01*
X17776111Y-11103484D02*
X17728492Y-11103484D01*
X17728492Y-11103484D02*
X17709444Y-11093960D01*
X17709444Y-11093960D02*
X17699920Y-11074912D01*
X17699920Y-11074912D02*
X17699920Y-11055865D01*
X17699920Y-11055865D02*
X17709444Y-11036817D01*
X17709444Y-11036817D02*
X17728492Y-11027293D01*
X17728492Y-11027293D02*
X17776111Y-11027293D01*
X17776111Y-11027293D02*
X17795158Y-11017770D01*
X17861825Y-10970150D02*
X17938015Y-10970150D01*
X17890396Y-10903484D02*
X17890396Y-11074912D01*
X17890396Y-11074912D02*
X17899920Y-11093960D01*
X17899920Y-11093960D02*
X17918968Y-11103484D01*
X17918968Y-11103484D02*
X17938015Y-11103484D01*
X18080873Y-11093960D02*
X18061825Y-11103484D01*
X18061825Y-11103484D02*
X18023730Y-11103484D01*
X18023730Y-11103484D02*
X18004682Y-11093960D01*
X18004682Y-11093960D02*
X17995158Y-11074912D01*
X17995158Y-11074912D02*
X17995158Y-10998722D01*
X17995158Y-10998722D02*
X18004682Y-10979674D01*
X18004682Y-10979674D02*
X18023730Y-10970150D01*
X18023730Y-10970150D02*
X18061825Y-10970150D01*
X18061825Y-10970150D02*
X18080873Y-10979674D01*
X18080873Y-10979674D02*
X18090396Y-10998722D01*
X18090396Y-10998722D02*
X18090396Y-11017770D01*
X18090396Y-11017770D02*
X17995158Y-11036817D01*
X18261825Y-11103484D02*
X18261825Y-10903484D01*
X18261825Y-11093960D02*
X18242777Y-11103484D01*
X18242777Y-11103484D02*
X18204682Y-11103484D01*
X18204682Y-11103484D02*
X18185635Y-11093960D01*
X18185635Y-11093960D02*
X18176111Y-11084436D01*
X18176111Y-11084436D02*
X18166587Y-11065389D01*
X18166587Y-11065389D02*
X18166587Y-11008246D01*
X18166587Y-11008246D02*
X18176111Y-10989198D01*
X18176111Y-10989198D02*
X18185635Y-10979674D01*
X18185635Y-10979674D02*
X18204682Y-10970150D01*
X18204682Y-10970150D02*
X18242777Y-10970150D01*
X18242777Y-10970150D02*
X18261825Y-10979674D01*
X18338016Y-11179674D02*
X18347539Y-11170150D01*
X18347539Y-11170150D02*
X18366587Y-11141579D01*
X18366587Y-11141579D02*
X18376111Y-11122531D01*
X18376111Y-11122531D02*
X18385635Y-11093960D01*
X18385635Y-11093960D02*
X18395158Y-11046341D01*
X18395158Y-11046341D02*
X18395158Y-11008246D01*
X18395158Y-11008246D02*
X18385635Y-10960627D01*
X18385635Y-10960627D02*
X18376111Y-10932055D01*
X18376111Y-10932055D02*
X18366587Y-10913008D01*
X18366587Y-10913008D02*
X18347539Y-10884436D01*
X18347539Y-10884436D02*
X18338016Y-10874912D01*
D13*
X11582000Y-11276000D02*
G75*
G03*
X11582000Y-11276000I-49530J0D01*
G01*
D11*
X11880872Y-11167484D02*
X11899920Y-11167484D01*
X11899920Y-11167484D02*
X11918967Y-11177008D01*
X11918967Y-11177008D02*
X11928491Y-11186531D01*
X11928491Y-11186531D02*
X11938015Y-11205579D01*
X11938015Y-11205579D02*
X11947539Y-11243674D01*
X11947539Y-11243674D02*
X11947539Y-11291293D01*
X11947539Y-11291293D02*
X11938015Y-11329388D01*
X11938015Y-11329388D02*
X11928491Y-11348436D01*
X11928491Y-11348436D02*
X11918967Y-11357960D01*
X11918967Y-11357960D02*
X11899920Y-11367484D01*
X11899920Y-11367484D02*
X11880872Y-11367484D01*
X11880872Y-11367484D02*
X11861824Y-11357960D01*
X11861824Y-11357960D02*
X11852301Y-11348436D01*
X11852301Y-11348436D02*
X11842777Y-11329388D01*
X11842777Y-11329388D02*
X11833253Y-11291293D01*
X11833253Y-11291293D02*
X11833253Y-11243674D01*
X11833253Y-11243674D02*
X11842777Y-11205579D01*
X11842777Y-11205579D02*
X11852301Y-11186531D01*
X11852301Y-11186531D02*
X11861824Y-11177008D01*
X11861824Y-11177008D02*
X11880872Y-11167484D01*
X12033253Y-11348436D02*
X12042777Y-11357960D01*
X12042777Y-11357960D02*
X12033253Y-11367484D01*
X12033253Y-11367484D02*
X12023729Y-11357960D01*
X12023729Y-11357960D02*
X12033253Y-11348436D01*
X12033253Y-11348436D02*
X12033253Y-11367484D01*
X12138015Y-11367484D02*
X12176110Y-11367484D01*
X12176110Y-11367484D02*
X12195158Y-11357960D01*
X12195158Y-11357960D02*
X12204682Y-11348436D01*
X12204682Y-11348436D02*
X12223729Y-11319865D01*
X12223729Y-11319865D02*
X12233253Y-11281769D01*
X12233253Y-11281769D02*
X12233253Y-11205579D01*
X12233253Y-11205579D02*
X12223729Y-11186531D01*
X12223729Y-11186531D02*
X12214205Y-11177008D01*
X12214205Y-11177008D02*
X12195158Y-11167484D01*
X12195158Y-11167484D02*
X12157062Y-11167484D01*
X12157062Y-11167484D02*
X12138015Y-11177008D01*
X12138015Y-11177008D02*
X12128491Y-11186531D01*
X12128491Y-11186531D02*
X12118967Y-11205579D01*
X12118967Y-11205579D02*
X12118967Y-11253198D01*
X12118967Y-11253198D02*
X12128491Y-11272246D01*
X12128491Y-11272246D02*
X12138015Y-11281769D01*
X12138015Y-11281769D02*
X12157062Y-11291293D01*
X12157062Y-11291293D02*
X12195158Y-11291293D01*
X12195158Y-11291293D02*
X12214205Y-11281769D01*
X12214205Y-11281769D02*
X12223729Y-11272246D01*
X12223729Y-11272246D02*
X12233253Y-11253198D01*
X12328491Y-11367484D02*
X12366586Y-11367484D01*
X12366586Y-11367484D02*
X12385634Y-11357960D01*
X12385634Y-11357960D02*
X12395158Y-11348436D01*
X12395158Y-11348436D02*
X12414205Y-11319865D01*
X12414205Y-11319865D02*
X12423729Y-11281769D01*
X12423729Y-11281769D02*
X12423729Y-11205579D01*
X12423729Y-11205579D02*
X12414205Y-11186531D01*
X12414205Y-11186531D02*
X12404682Y-11177008D01*
X12404682Y-11177008D02*
X12385634Y-11167484D01*
X12385634Y-11167484D02*
X12347539Y-11167484D01*
X12347539Y-11167484D02*
X12328491Y-11177008D01*
X12328491Y-11177008D02*
X12318967Y-11186531D01*
X12318967Y-11186531D02*
X12309443Y-11205579D01*
X12309443Y-11205579D02*
X12309443Y-11253198D01*
X12309443Y-11253198D02*
X12318967Y-11272246D01*
X12318967Y-11272246D02*
X12328491Y-11281769D01*
X12328491Y-11281769D02*
X12347539Y-11291293D01*
X12347539Y-11291293D02*
X12385634Y-11291293D01*
X12385634Y-11291293D02*
X12404682Y-11281769D01*
X12404682Y-11281769D02*
X12414205Y-11272246D01*
X12414205Y-11272246D02*
X12423729Y-11253198D01*
X12614205Y-11367484D02*
X12499920Y-11367484D01*
X12557062Y-11367484D02*
X12557062Y-11167484D01*
X12557062Y-11167484D02*
X12538015Y-11196055D01*
X12538015Y-11196055D02*
X12518967Y-11215103D01*
X12518967Y-11215103D02*
X12499920Y-11224627D01*
X12699920Y-11367484D02*
X12699920Y-11234150D01*
X12699920Y-11253198D02*
X12709443Y-11243674D01*
X12709443Y-11243674D02*
X12728491Y-11234150D01*
X12728491Y-11234150D02*
X12757063Y-11234150D01*
X12757063Y-11234150D02*
X12776110Y-11243674D01*
X12776110Y-11243674D02*
X12785634Y-11262722D01*
X12785634Y-11262722D02*
X12785634Y-11367484D01*
X12785634Y-11262722D02*
X12795158Y-11243674D01*
X12795158Y-11243674D02*
X12814205Y-11234150D01*
X12814205Y-11234150D02*
X12842777Y-11234150D01*
X12842777Y-11234150D02*
X12861824Y-11243674D01*
X12861824Y-11243674D02*
X12871348Y-11262722D01*
X12871348Y-11262722D02*
X12871348Y-11367484D01*
X12966586Y-11367484D02*
X12966586Y-11234150D01*
X12966586Y-11253198D02*
X12976110Y-11243674D01*
X12976110Y-11243674D02*
X12995158Y-11234150D01*
X12995158Y-11234150D02*
X13023729Y-11234150D01*
X13023729Y-11234150D02*
X13042777Y-11243674D01*
X13042777Y-11243674D02*
X13052301Y-11262722D01*
X13052301Y-11262722D02*
X13052301Y-11367484D01*
X13052301Y-11262722D02*
X13061824Y-11243674D01*
X13061824Y-11243674D02*
X13080872Y-11234150D01*
X13080872Y-11234150D02*
X13109443Y-11234150D01*
X13109443Y-11234150D02*
X13128491Y-11243674D01*
X13128491Y-11243674D02*
X13138015Y-11262722D01*
X13138015Y-11262722D02*
X13138015Y-11367484D01*
X13528491Y-11157960D02*
X13357063Y-11415103D01*
X13785634Y-11167484D02*
X13804682Y-11167484D01*
X13804682Y-11167484D02*
X13823729Y-11177008D01*
X13823729Y-11177008D02*
X13833253Y-11186531D01*
X13833253Y-11186531D02*
X13842777Y-11205579D01*
X13842777Y-11205579D02*
X13852301Y-11243674D01*
X13852301Y-11243674D02*
X13852301Y-11291293D01*
X13852301Y-11291293D02*
X13842777Y-11329388D01*
X13842777Y-11329388D02*
X13833253Y-11348436D01*
X13833253Y-11348436D02*
X13823729Y-11357960D01*
X13823729Y-11357960D02*
X13804682Y-11367484D01*
X13804682Y-11367484D02*
X13785634Y-11367484D01*
X13785634Y-11367484D02*
X13766586Y-11357960D01*
X13766586Y-11357960D02*
X13757063Y-11348436D01*
X13757063Y-11348436D02*
X13747539Y-11329388D01*
X13747539Y-11329388D02*
X13738015Y-11291293D01*
X13738015Y-11291293D02*
X13738015Y-11243674D01*
X13738015Y-11243674D02*
X13747539Y-11205579D01*
X13747539Y-11205579D02*
X13757063Y-11186531D01*
X13757063Y-11186531D02*
X13766586Y-11177008D01*
X13766586Y-11177008D02*
X13785634Y-11167484D01*
X13938015Y-11348436D02*
X13947539Y-11357960D01*
X13947539Y-11357960D02*
X13938015Y-11367484D01*
X13938015Y-11367484D02*
X13928491Y-11357960D01*
X13928491Y-11357960D02*
X13938015Y-11348436D01*
X13938015Y-11348436D02*
X13938015Y-11367484D01*
X14071348Y-11167484D02*
X14090396Y-11167484D01*
X14090396Y-11167484D02*
X14109444Y-11177008D01*
X14109444Y-11177008D02*
X14118967Y-11186531D01*
X14118967Y-11186531D02*
X14128491Y-11205579D01*
X14128491Y-11205579D02*
X14138015Y-11243674D01*
X14138015Y-11243674D02*
X14138015Y-11291293D01*
X14138015Y-11291293D02*
X14128491Y-11329388D01*
X14128491Y-11329388D02*
X14118967Y-11348436D01*
X14118967Y-11348436D02*
X14109444Y-11357960D01*
X14109444Y-11357960D02*
X14090396Y-11367484D01*
X14090396Y-11367484D02*
X14071348Y-11367484D01*
X14071348Y-11367484D02*
X14052301Y-11357960D01*
X14052301Y-11357960D02*
X14042777Y-11348436D01*
X14042777Y-11348436D02*
X14033253Y-11329388D01*
X14033253Y-11329388D02*
X14023729Y-11291293D01*
X14023729Y-11291293D02*
X14023729Y-11243674D01*
X14023729Y-11243674D02*
X14033253Y-11205579D01*
X14033253Y-11205579D02*
X14042777Y-11186531D01*
X14042777Y-11186531D02*
X14052301Y-11177008D01*
X14052301Y-11177008D02*
X14071348Y-11167484D01*
X14204682Y-11167484D02*
X14328491Y-11167484D01*
X14328491Y-11167484D02*
X14261825Y-11243674D01*
X14261825Y-11243674D02*
X14290396Y-11243674D01*
X14290396Y-11243674D02*
X14309444Y-11253198D01*
X14309444Y-11253198D02*
X14318967Y-11262722D01*
X14318967Y-11262722D02*
X14328491Y-11281769D01*
X14328491Y-11281769D02*
X14328491Y-11329388D01*
X14328491Y-11329388D02*
X14318967Y-11348436D01*
X14318967Y-11348436D02*
X14309444Y-11357960D01*
X14309444Y-11357960D02*
X14290396Y-11367484D01*
X14290396Y-11367484D02*
X14233253Y-11367484D01*
X14233253Y-11367484D02*
X14214206Y-11357960D01*
X14214206Y-11357960D02*
X14204682Y-11348436D01*
X14423729Y-11367484D02*
X14461825Y-11367484D01*
X14461825Y-11367484D02*
X14480872Y-11357960D01*
X14480872Y-11357960D02*
X14490396Y-11348436D01*
X14490396Y-11348436D02*
X14509444Y-11319865D01*
X14509444Y-11319865D02*
X14518967Y-11281769D01*
X14518967Y-11281769D02*
X14518967Y-11205579D01*
X14518967Y-11205579D02*
X14509444Y-11186531D01*
X14509444Y-11186531D02*
X14499920Y-11177008D01*
X14499920Y-11177008D02*
X14480872Y-11167484D01*
X14480872Y-11167484D02*
X14442777Y-11167484D01*
X14442777Y-11167484D02*
X14423729Y-11177008D01*
X14423729Y-11177008D02*
X14414206Y-11186531D01*
X14414206Y-11186531D02*
X14404682Y-11205579D01*
X14404682Y-11205579D02*
X14404682Y-11253198D01*
X14404682Y-11253198D02*
X14414206Y-11272246D01*
X14414206Y-11272246D02*
X14423729Y-11281769D01*
X14423729Y-11281769D02*
X14442777Y-11291293D01*
X14442777Y-11291293D02*
X14480872Y-11291293D01*
X14480872Y-11291293D02*
X14499920Y-11281769D01*
X14499920Y-11281769D02*
X14509444Y-11272246D01*
X14509444Y-11272246D02*
X14518967Y-11253198D01*
X14642777Y-11167484D02*
X14661825Y-11167484D01*
X14661825Y-11167484D02*
X14680872Y-11177008D01*
X14680872Y-11177008D02*
X14690396Y-11186531D01*
X14690396Y-11186531D02*
X14699920Y-11205579D01*
X14699920Y-11205579D02*
X14709444Y-11243674D01*
X14709444Y-11243674D02*
X14709444Y-11291293D01*
X14709444Y-11291293D02*
X14699920Y-11329388D01*
X14699920Y-11329388D02*
X14690396Y-11348436D01*
X14690396Y-11348436D02*
X14680872Y-11357960D01*
X14680872Y-11357960D02*
X14661825Y-11367484D01*
X14661825Y-11367484D02*
X14642777Y-11367484D01*
X14642777Y-11367484D02*
X14623729Y-11357960D01*
X14623729Y-11357960D02*
X14614206Y-11348436D01*
X14614206Y-11348436D02*
X14604682Y-11329388D01*
X14604682Y-11329388D02*
X14595158Y-11291293D01*
X14595158Y-11291293D02*
X14595158Y-11243674D01*
X14595158Y-11243674D02*
X14604682Y-11205579D01*
X14604682Y-11205579D02*
X14614206Y-11186531D01*
X14614206Y-11186531D02*
X14623729Y-11177008D01*
X14623729Y-11177008D02*
X14642777Y-11167484D01*
X14785634Y-11167484D02*
X14785634Y-11205579D01*
X14861825Y-11167484D02*
X14861825Y-11205579D01*
X15157063Y-11443674D02*
X15147539Y-11434150D01*
X15147539Y-11434150D02*
X15128491Y-11405579D01*
X15128491Y-11405579D02*
X15118968Y-11386531D01*
X15118968Y-11386531D02*
X15109444Y-11357960D01*
X15109444Y-11357960D02*
X15099920Y-11310341D01*
X15099920Y-11310341D02*
X15099920Y-11272246D01*
X15099920Y-11272246D02*
X15109444Y-11224627D01*
X15109444Y-11224627D02*
X15118968Y-11196055D01*
X15118968Y-11196055D02*
X15128491Y-11177008D01*
X15128491Y-11177008D02*
X15147539Y-11148436D01*
X15147539Y-11148436D02*
X15157063Y-11138912D01*
X15214206Y-11167484D02*
X15338015Y-11167484D01*
X15338015Y-11167484D02*
X15271348Y-11243674D01*
X15271348Y-11243674D02*
X15299920Y-11243674D01*
X15299920Y-11243674D02*
X15318968Y-11253198D01*
X15318968Y-11253198D02*
X15328491Y-11262722D01*
X15328491Y-11262722D02*
X15338015Y-11281769D01*
X15338015Y-11281769D02*
X15338015Y-11329388D01*
X15338015Y-11329388D02*
X15328491Y-11348436D01*
X15328491Y-11348436D02*
X15318968Y-11357960D01*
X15318968Y-11357960D02*
X15299920Y-11367484D01*
X15299920Y-11367484D02*
X15242777Y-11367484D01*
X15242777Y-11367484D02*
X15223729Y-11357960D01*
X15223729Y-11357960D02*
X15214206Y-11348436D01*
X15576110Y-11367484D02*
X15576110Y-11167484D01*
X15661825Y-11367484D02*
X15661825Y-11262722D01*
X15661825Y-11262722D02*
X15652301Y-11243674D01*
X15652301Y-11243674D02*
X15633253Y-11234150D01*
X15633253Y-11234150D02*
X15604682Y-11234150D01*
X15604682Y-11234150D02*
X15585634Y-11243674D01*
X15585634Y-11243674D02*
X15576110Y-11253198D01*
X15785634Y-11367484D02*
X15766587Y-11357960D01*
X15766587Y-11357960D02*
X15757063Y-11348436D01*
X15757063Y-11348436D02*
X15747539Y-11329388D01*
X15747539Y-11329388D02*
X15747539Y-11272246D01*
X15747539Y-11272246D02*
X15757063Y-11253198D01*
X15757063Y-11253198D02*
X15766587Y-11243674D01*
X15766587Y-11243674D02*
X15785634Y-11234150D01*
X15785634Y-11234150D02*
X15814206Y-11234150D01*
X15814206Y-11234150D02*
X15833253Y-11243674D01*
X15833253Y-11243674D02*
X15842777Y-11253198D01*
X15842777Y-11253198D02*
X15852301Y-11272246D01*
X15852301Y-11272246D02*
X15852301Y-11329388D01*
X15852301Y-11329388D02*
X15842777Y-11348436D01*
X15842777Y-11348436D02*
X15833253Y-11357960D01*
X15833253Y-11357960D02*
X15814206Y-11367484D01*
X15814206Y-11367484D02*
X15785634Y-11367484D01*
X15966587Y-11367484D02*
X15947539Y-11357960D01*
X15947539Y-11357960D02*
X15938015Y-11338912D01*
X15938015Y-11338912D02*
X15938015Y-11167484D01*
X16118968Y-11357960D02*
X16099920Y-11367484D01*
X16099920Y-11367484D02*
X16061825Y-11367484D01*
X16061825Y-11367484D02*
X16042777Y-11357960D01*
X16042777Y-11357960D02*
X16033253Y-11338912D01*
X16033253Y-11338912D02*
X16033253Y-11262722D01*
X16033253Y-11262722D02*
X16042777Y-11243674D01*
X16042777Y-11243674D02*
X16061825Y-11234150D01*
X16061825Y-11234150D02*
X16099920Y-11234150D01*
X16099920Y-11234150D02*
X16118968Y-11243674D01*
X16118968Y-11243674D02*
X16128491Y-11262722D01*
X16128491Y-11262722D02*
X16128491Y-11281769D01*
X16128491Y-11281769D02*
X16033253Y-11300817D01*
X16204682Y-11357960D02*
X16223730Y-11367484D01*
X16223730Y-11367484D02*
X16261825Y-11367484D01*
X16261825Y-11367484D02*
X16280872Y-11357960D01*
X16280872Y-11357960D02*
X16290396Y-11338912D01*
X16290396Y-11338912D02*
X16290396Y-11329388D01*
X16290396Y-11329388D02*
X16280872Y-11310341D01*
X16280872Y-11310341D02*
X16261825Y-11300817D01*
X16261825Y-11300817D02*
X16233253Y-11300817D01*
X16233253Y-11300817D02*
X16214206Y-11291293D01*
X16214206Y-11291293D02*
X16204682Y-11272246D01*
X16204682Y-11272246D02*
X16204682Y-11262722D01*
X16204682Y-11262722D02*
X16214206Y-11243674D01*
X16214206Y-11243674D02*
X16233253Y-11234150D01*
X16233253Y-11234150D02*
X16261825Y-11234150D01*
X16261825Y-11234150D02*
X16280872Y-11243674D01*
X16357063Y-11443674D02*
X16366587Y-11434150D01*
X16366587Y-11434150D02*
X16385634Y-11405579D01*
X16385634Y-11405579D02*
X16395158Y-11386531D01*
X16395158Y-11386531D02*
X16404682Y-11357960D01*
X16404682Y-11357960D02*
X16414206Y-11310341D01*
X16414206Y-11310341D02*
X16414206Y-11272246D01*
X16414206Y-11272246D02*
X16404682Y-11224627D01*
X16404682Y-11224627D02*
X16395158Y-11196055D01*
X16395158Y-11196055D02*
X16385634Y-11177008D01*
X16385634Y-11177008D02*
X16366587Y-11148436D01*
X16366587Y-11148436D02*
X16357063Y-11138912D01*
X16718968Y-11443674D02*
X16709444Y-11434150D01*
X16709444Y-11434150D02*
X16690396Y-11405579D01*
X16690396Y-11405579D02*
X16680872Y-11386531D01*
X16680872Y-11386531D02*
X16671349Y-11357960D01*
X16671349Y-11357960D02*
X16661825Y-11310341D01*
X16661825Y-11310341D02*
X16661825Y-11272246D01*
X16661825Y-11272246D02*
X16671349Y-11224627D01*
X16671349Y-11224627D02*
X16680872Y-11196055D01*
X16680872Y-11196055D02*
X16690396Y-11177008D01*
X16690396Y-11177008D02*
X16709444Y-11148436D01*
X16709444Y-11148436D02*
X16718968Y-11138912D01*
X16795158Y-11234150D02*
X16795158Y-11367484D01*
X16795158Y-11253198D02*
X16804682Y-11243674D01*
X16804682Y-11243674D02*
X16823730Y-11234150D01*
X16823730Y-11234150D02*
X16852301Y-11234150D01*
X16852301Y-11234150D02*
X16871349Y-11243674D01*
X16871349Y-11243674D02*
X16880873Y-11262722D01*
X16880873Y-11262722D02*
X16880873Y-11367484D01*
X17004682Y-11367484D02*
X16985634Y-11357960D01*
X16985634Y-11357960D02*
X16976111Y-11348436D01*
X16976111Y-11348436D02*
X16966587Y-11329388D01*
X16966587Y-11329388D02*
X16966587Y-11272246D01*
X16966587Y-11272246D02*
X16976111Y-11253198D01*
X16976111Y-11253198D02*
X16985634Y-11243674D01*
X16985634Y-11243674D02*
X17004682Y-11234150D01*
X17004682Y-11234150D02*
X17033254Y-11234150D01*
X17033254Y-11234150D02*
X17052301Y-11243674D01*
X17052301Y-11243674D02*
X17061825Y-11253198D01*
X17061825Y-11253198D02*
X17071349Y-11272246D01*
X17071349Y-11272246D02*
X17071349Y-11329388D01*
X17071349Y-11329388D02*
X17061825Y-11348436D01*
X17061825Y-11348436D02*
X17052301Y-11357960D01*
X17052301Y-11357960D02*
X17033254Y-11367484D01*
X17033254Y-11367484D02*
X17004682Y-11367484D01*
X17128492Y-11234150D02*
X17204682Y-11234150D01*
X17157063Y-11167484D02*
X17157063Y-11338912D01*
X17157063Y-11338912D02*
X17166587Y-11357960D01*
X17166587Y-11357960D02*
X17185634Y-11367484D01*
X17185634Y-11367484D02*
X17204682Y-11367484D01*
X17423730Y-11234150D02*
X17423730Y-11434150D01*
X17423730Y-11243674D02*
X17442777Y-11234150D01*
X17442777Y-11234150D02*
X17480873Y-11234150D01*
X17480873Y-11234150D02*
X17499920Y-11243674D01*
X17499920Y-11243674D02*
X17509444Y-11253198D01*
X17509444Y-11253198D02*
X17518968Y-11272246D01*
X17518968Y-11272246D02*
X17518968Y-11329388D01*
X17518968Y-11329388D02*
X17509444Y-11348436D01*
X17509444Y-11348436D02*
X17499920Y-11357960D01*
X17499920Y-11357960D02*
X17480873Y-11367484D01*
X17480873Y-11367484D02*
X17442777Y-11367484D01*
X17442777Y-11367484D02*
X17423730Y-11357960D01*
X17633254Y-11367484D02*
X17614206Y-11357960D01*
X17614206Y-11357960D02*
X17604682Y-11338912D01*
X17604682Y-11338912D02*
X17604682Y-11167484D01*
X17795158Y-11367484D02*
X17795158Y-11262722D01*
X17795158Y-11262722D02*
X17785635Y-11243674D01*
X17785635Y-11243674D02*
X17766587Y-11234150D01*
X17766587Y-11234150D02*
X17728492Y-11234150D01*
X17728492Y-11234150D02*
X17709444Y-11243674D01*
X17795158Y-11357960D02*
X17776111Y-11367484D01*
X17776111Y-11367484D02*
X17728492Y-11367484D01*
X17728492Y-11367484D02*
X17709444Y-11357960D01*
X17709444Y-11357960D02*
X17699920Y-11338912D01*
X17699920Y-11338912D02*
X17699920Y-11319865D01*
X17699920Y-11319865D02*
X17709444Y-11300817D01*
X17709444Y-11300817D02*
X17728492Y-11291293D01*
X17728492Y-11291293D02*
X17776111Y-11291293D01*
X17776111Y-11291293D02*
X17795158Y-11281769D01*
X17861825Y-11234150D02*
X17938015Y-11234150D01*
X17890396Y-11167484D02*
X17890396Y-11338912D01*
X17890396Y-11338912D02*
X17899920Y-11357960D01*
X17899920Y-11357960D02*
X17918968Y-11367484D01*
X17918968Y-11367484D02*
X17938015Y-11367484D01*
X18080873Y-11357960D02*
X18061825Y-11367484D01*
X18061825Y-11367484D02*
X18023730Y-11367484D01*
X18023730Y-11367484D02*
X18004682Y-11357960D01*
X18004682Y-11357960D02*
X17995158Y-11338912D01*
X17995158Y-11338912D02*
X17995158Y-11262722D01*
X17995158Y-11262722D02*
X18004682Y-11243674D01*
X18004682Y-11243674D02*
X18023730Y-11234150D01*
X18023730Y-11234150D02*
X18061825Y-11234150D01*
X18061825Y-11234150D02*
X18080873Y-11243674D01*
X18080873Y-11243674D02*
X18090396Y-11262722D01*
X18090396Y-11262722D02*
X18090396Y-11281769D01*
X18090396Y-11281769D02*
X17995158Y-11300817D01*
X18261825Y-11367484D02*
X18261825Y-11167484D01*
X18261825Y-11357960D02*
X18242777Y-11367484D01*
X18242777Y-11367484D02*
X18204682Y-11367484D01*
X18204682Y-11367484D02*
X18185635Y-11357960D01*
X18185635Y-11357960D02*
X18176111Y-11348436D01*
X18176111Y-11348436D02*
X18166587Y-11329388D01*
X18166587Y-11329388D02*
X18166587Y-11272246D01*
X18166587Y-11272246D02*
X18176111Y-11253198D01*
X18176111Y-11253198D02*
X18185635Y-11243674D01*
X18185635Y-11243674D02*
X18204682Y-11234150D01*
X18204682Y-11234150D02*
X18242777Y-11234150D01*
X18242777Y-11234150D02*
X18261825Y-11243674D01*
X18338016Y-11443674D02*
X18347539Y-11434150D01*
X18347539Y-11434150D02*
X18366587Y-11405579D01*
X18366587Y-11405579D02*
X18376111Y-11386531D01*
X18376111Y-11386531D02*
X18385635Y-11357960D01*
X18385635Y-11357960D02*
X18395158Y-11310341D01*
X18395158Y-11310341D02*
X18395158Y-11272246D01*
X18395158Y-11272246D02*
X18385635Y-11224627D01*
X18385635Y-11224627D02*
X18376111Y-11196055D01*
X18376111Y-11196055D02*
X18366587Y-11177008D01*
X18366587Y-11177008D02*
X18347539Y-11148436D01*
X18347539Y-11148436D02*
X18338016Y-11138912D01*
X11482000Y-11440000D02*
X11482000Y-11640000D01*
X11382000Y-11540000D02*
X11582000Y-11540000D01*
X11833253Y-11450531D02*
X11842777Y-11441008D01*
X11842777Y-11441008D02*
X11861824Y-11431484D01*
X11861824Y-11431484D02*
X11909443Y-11431484D01*
X11909443Y-11431484D02*
X11928491Y-11441008D01*
X11928491Y-11441008D02*
X11938015Y-11450531D01*
X11938015Y-11450531D02*
X11947539Y-11469579D01*
X11947539Y-11469579D02*
X11947539Y-11488627D01*
X11947539Y-11488627D02*
X11938015Y-11517198D01*
X11938015Y-11517198D02*
X11823729Y-11631484D01*
X11823729Y-11631484D02*
X11947539Y-11631484D01*
X12033253Y-11612436D02*
X12042777Y-11621960D01*
X12042777Y-11621960D02*
X12033253Y-11631484D01*
X12033253Y-11631484D02*
X12023729Y-11621960D01*
X12023729Y-11621960D02*
X12033253Y-11612436D01*
X12033253Y-11612436D02*
X12033253Y-11631484D01*
X12109443Y-11431484D02*
X12233253Y-11431484D01*
X12233253Y-11431484D02*
X12166586Y-11507674D01*
X12166586Y-11507674D02*
X12195158Y-11507674D01*
X12195158Y-11507674D02*
X12214205Y-11517198D01*
X12214205Y-11517198D02*
X12223729Y-11526722D01*
X12223729Y-11526722D02*
X12233253Y-11545769D01*
X12233253Y-11545769D02*
X12233253Y-11593388D01*
X12233253Y-11593388D02*
X12223729Y-11612436D01*
X12223729Y-11612436D02*
X12214205Y-11621960D01*
X12214205Y-11621960D02*
X12195158Y-11631484D01*
X12195158Y-11631484D02*
X12138015Y-11631484D01*
X12138015Y-11631484D02*
X12118967Y-11621960D01*
X12118967Y-11621960D02*
X12109443Y-11612436D01*
X12299920Y-11431484D02*
X12433253Y-11431484D01*
X12433253Y-11431484D02*
X12347539Y-11631484D01*
X12604682Y-11431484D02*
X12509443Y-11431484D01*
X12509443Y-11431484D02*
X12499920Y-11526722D01*
X12499920Y-11526722D02*
X12509443Y-11517198D01*
X12509443Y-11517198D02*
X12528491Y-11507674D01*
X12528491Y-11507674D02*
X12576110Y-11507674D01*
X12576110Y-11507674D02*
X12595158Y-11517198D01*
X12595158Y-11517198D02*
X12604682Y-11526722D01*
X12604682Y-11526722D02*
X12614205Y-11545769D01*
X12614205Y-11545769D02*
X12614205Y-11593388D01*
X12614205Y-11593388D02*
X12604682Y-11612436D01*
X12604682Y-11612436D02*
X12595158Y-11621960D01*
X12595158Y-11621960D02*
X12576110Y-11631484D01*
X12576110Y-11631484D02*
X12528491Y-11631484D01*
X12528491Y-11631484D02*
X12509443Y-11621960D01*
X12509443Y-11621960D02*
X12499920Y-11612436D01*
X12699920Y-11631484D02*
X12699920Y-11498150D01*
X12699920Y-11517198D02*
X12709443Y-11507674D01*
X12709443Y-11507674D02*
X12728491Y-11498150D01*
X12728491Y-11498150D02*
X12757063Y-11498150D01*
X12757063Y-11498150D02*
X12776110Y-11507674D01*
X12776110Y-11507674D02*
X12785634Y-11526722D01*
X12785634Y-11526722D02*
X12785634Y-11631484D01*
X12785634Y-11526722D02*
X12795158Y-11507674D01*
X12795158Y-11507674D02*
X12814205Y-11498150D01*
X12814205Y-11498150D02*
X12842777Y-11498150D01*
X12842777Y-11498150D02*
X12861824Y-11507674D01*
X12861824Y-11507674D02*
X12871348Y-11526722D01*
X12871348Y-11526722D02*
X12871348Y-11631484D01*
X12966586Y-11631484D02*
X12966586Y-11498150D01*
X12966586Y-11517198D02*
X12976110Y-11507674D01*
X12976110Y-11507674D02*
X12995158Y-11498150D01*
X12995158Y-11498150D02*
X13023729Y-11498150D01*
X13023729Y-11498150D02*
X13042777Y-11507674D01*
X13042777Y-11507674D02*
X13052301Y-11526722D01*
X13052301Y-11526722D02*
X13052301Y-11631484D01*
X13052301Y-11526722D02*
X13061824Y-11507674D01*
X13061824Y-11507674D02*
X13080872Y-11498150D01*
X13080872Y-11498150D02*
X13109443Y-11498150D01*
X13109443Y-11498150D02*
X13128491Y-11507674D01*
X13128491Y-11507674D02*
X13138015Y-11526722D01*
X13138015Y-11526722D02*
X13138015Y-11631484D01*
X13528491Y-11421960D02*
X13357063Y-11679103D01*
X13785634Y-11431484D02*
X13804682Y-11431484D01*
X13804682Y-11431484D02*
X13823729Y-11441008D01*
X13823729Y-11441008D02*
X13833253Y-11450531D01*
X13833253Y-11450531D02*
X13842777Y-11469579D01*
X13842777Y-11469579D02*
X13852301Y-11507674D01*
X13852301Y-11507674D02*
X13852301Y-11555293D01*
X13852301Y-11555293D02*
X13842777Y-11593388D01*
X13842777Y-11593388D02*
X13833253Y-11612436D01*
X13833253Y-11612436D02*
X13823729Y-11621960D01*
X13823729Y-11621960D02*
X13804682Y-11631484D01*
X13804682Y-11631484D02*
X13785634Y-11631484D01*
X13785634Y-11631484D02*
X13766586Y-11621960D01*
X13766586Y-11621960D02*
X13757063Y-11612436D01*
X13757063Y-11612436D02*
X13747539Y-11593388D01*
X13747539Y-11593388D02*
X13738015Y-11555293D01*
X13738015Y-11555293D02*
X13738015Y-11507674D01*
X13738015Y-11507674D02*
X13747539Y-11469579D01*
X13747539Y-11469579D02*
X13757063Y-11450531D01*
X13757063Y-11450531D02*
X13766586Y-11441008D01*
X13766586Y-11441008D02*
X13785634Y-11431484D01*
X13938015Y-11612436D02*
X13947539Y-11621960D01*
X13947539Y-11621960D02*
X13938015Y-11631484D01*
X13938015Y-11631484D02*
X13928491Y-11621960D01*
X13928491Y-11621960D02*
X13938015Y-11612436D01*
X13938015Y-11612436D02*
X13938015Y-11631484D01*
X14071348Y-11431484D02*
X14090396Y-11431484D01*
X14090396Y-11431484D02*
X14109444Y-11441008D01*
X14109444Y-11441008D02*
X14118967Y-11450531D01*
X14118967Y-11450531D02*
X14128491Y-11469579D01*
X14128491Y-11469579D02*
X14138015Y-11507674D01*
X14138015Y-11507674D02*
X14138015Y-11555293D01*
X14138015Y-11555293D02*
X14128491Y-11593388D01*
X14128491Y-11593388D02*
X14118967Y-11612436D01*
X14118967Y-11612436D02*
X14109444Y-11621960D01*
X14109444Y-11621960D02*
X14090396Y-11631484D01*
X14090396Y-11631484D02*
X14071348Y-11631484D01*
X14071348Y-11631484D02*
X14052301Y-11621960D01*
X14052301Y-11621960D02*
X14042777Y-11612436D01*
X14042777Y-11612436D02*
X14033253Y-11593388D01*
X14033253Y-11593388D02*
X14023729Y-11555293D01*
X14023729Y-11555293D02*
X14023729Y-11507674D01*
X14023729Y-11507674D02*
X14033253Y-11469579D01*
X14033253Y-11469579D02*
X14042777Y-11450531D01*
X14042777Y-11450531D02*
X14052301Y-11441008D01*
X14052301Y-11441008D02*
X14071348Y-11431484D01*
X14233253Y-11631484D02*
X14271348Y-11631484D01*
X14271348Y-11631484D02*
X14290396Y-11621960D01*
X14290396Y-11621960D02*
X14299920Y-11612436D01*
X14299920Y-11612436D02*
X14318967Y-11583865D01*
X14318967Y-11583865D02*
X14328491Y-11545769D01*
X14328491Y-11545769D02*
X14328491Y-11469579D01*
X14328491Y-11469579D02*
X14318967Y-11450531D01*
X14318967Y-11450531D02*
X14309444Y-11441008D01*
X14309444Y-11441008D02*
X14290396Y-11431484D01*
X14290396Y-11431484D02*
X14252301Y-11431484D01*
X14252301Y-11431484D02*
X14233253Y-11441008D01*
X14233253Y-11441008D02*
X14223729Y-11450531D01*
X14223729Y-11450531D02*
X14214206Y-11469579D01*
X14214206Y-11469579D02*
X14214206Y-11517198D01*
X14214206Y-11517198D02*
X14223729Y-11536246D01*
X14223729Y-11536246D02*
X14233253Y-11545769D01*
X14233253Y-11545769D02*
X14252301Y-11555293D01*
X14252301Y-11555293D02*
X14290396Y-11555293D01*
X14290396Y-11555293D02*
X14309444Y-11545769D01*
X14309444Y-11545769D02*
X14318967Y-11536246D01*
X14318967Y-11536246D02*
X14328491Y-11517198D01*
X14395158Y-11431484D02*
X14518967Y-11431484D01*
X14518967Y-11431484D02*
X14452301Y-11507674D01*
X14452301Y-11507674D02*
X14480872Y-11507674D01*
X14480872Y-11507674D02*
X14499920Y-11517198D01*
X14499920Y-11517198D02*
X14509444Y-11526722D01*
X14509444Y-11526722D02*
X14518967Y-11545769D01*
X14518967Y-11545769D02*
X14518967Y-11593388D01*
X14518967Y-11593388D02*
X14509444Y-11612436D01*
X14509444Y-11612436D02*
X14499920Y-11621960D01*
X14499920Y-11621960D02*
X14480872Y-11631484D01*
X14480872Y-11631484D02*
X14423729Y-11631484D01*
X14423729Y-11631484D02*
X14404682Y-11621960D01*
X14404682Y-11621960D02*
X14395158Y-11612436D01*
X14699920Y-11431484D02*
X14604682Y-11431484D01*
X14604682Y-11431484D02*
X14595158Y-11526722D01*
X14595158Y-11526722D02*
X14604682Y-11517198D01*
X14604682Y-11517198D02*
X14623729Y-11507674D01*
X14623729Y-11507674D02*
X14671348Y-11507674D01*
X14671348Y-11507674D02*
X14690396Y-11517198D01*
X14690396Y-11517198D02*
X14699920Y-11526722D01*
X14699920Y-11526722D02*
X14709444Y-11545769D01*
X14709444Y-11545769D02*
X14709444Y-11593388D01*
X14709444Y-11593388D02*
X14699920Y-11612436D01*
X14699920Y-11612436D02*
X14690396Y-11621960D01*
X14690396Y-11621960D02*
X14671348Y-11631484D01*
X14671348Y-11631484D02*
X14623729Y-11631484D01*
X14623729Y-11631484D02*
X14604682Y-11621960D01*
X14604682Y-11621960D02*
X14595158Y-11612436D01*
X14785634Y-11431484D02*
X14785634Y-11469579D01*
X14861825Y-11431484D02*
X14861825Y-11469579D01*
X15157063Y-11707674D02*
X15147539Y-11698150D01*
X15147539Y-11698150D02*
X15128491Y-11669579D01*
X15128491Y-11669579D02*
X15118968Y-11650531D01*
X15118968Y-11650531D02*
X15109444Y-11621960D01*
X15109444Y-11621960D02*
X15099920Y-11574341D01*
X15099920Y-11574341D02*
X15099920Y-11536246D01*
X15099920Y-11536246D02*
X15109444Y-11488627D01*
X15109444Y-11488627D02*
X15118968Y-11460055D01*
X15118968Y-11460055D02*
X15128491Y-11441008D01*
X15128491Y-11441008D02*
X15147539Y-11412436D01*
X15147539Y-11412436D02*
X15157063Y-11402912D01*
X15318968Y-11498150D02*
X15318968Y-11631484D01*
X15271348Y-11421960D02*
X15223729Y-11564817D01*
X15223729Y-11564817D02*
X15347539Y-11564817D01*
X15576110Y-11631484D02*
X15576110Y-11431484D01*
X15661825Y-11631484D02*
X15661825Y-11526722D01*
X15661825Y-11526722D02*
X15652301Y-11507674D01*
X15652301Y-11507674D02*
X15633253Y-11498150D01*
X15633253Y-11498150D02*
X15604682Y-11498150D01*
X15604682Y-11498150D02*
X15585634Y-11507674D01*
X15585634Y-11507674D02*
X15576110Y-11517198D01*
X15785634Y-11631484D02*
X15766587Y-11621960D01*
X15766587Y-11621960D02*
X15757063Y-11612436D01*
X15757063Y-11612436D02*
X15747539Y-11593388D01*
X15747539Y-11593388D02*
X15747539Y-11536246D01*
X15747539Y-11536246D02*
X15757063Y-11517198D01*
X15757063Y-11517198D02*
X15766587Y-11507674D01*
X15766587Y-11507674D02*
X15785634Y-11498150D01*
X15785634Y-11498150D02*
X15814206Y-11498150D01*
X15814206Y-11498150D02*
X15833253Y-11507674D01*
X15833253Y-11507674D02*
X15842777Y-11517198D01*
X15842777Y-11517198D02*
X15852301Y-11536246D01*
X15852301Y-11536246D02*
X15852301Y-11593388D01*
X15852301Y-11593388D02*
X15842777Y-11612436D01*
X15842777Y-11612436D02*
X15833253Y-11621960D01*
X15833253Y-11621960D02*
X15814206Y-11631484D01*
X15814206Y-11631484D02*
X15785634Y-11631484D01*
X15966587Y-11631484D02*
X15947539Y-11621960D01*
X15947539Y-11621960D02*
X15938015Y-11602912D01*
X15938015Y-11602912D02*
X15938015Y-11431484D01*
X16118968Y-11621960D02*
X16099920Y-11631484D01*
X16099920Y-11631484D02*
X16061825Y-11631484D01*
X16061825Y-11631484D02*
X16042777Y-11621960D01*
X16042777Y-11621960D02*
X16033253Y-11602912D01*
X16033253Y-11602912D02*
X16033253Y-11526722D01*
X16033253Y-11526722D02*
X16042777Y-11507674D01*
X16042777Y-11507674D02*
X16061825Y-11498150D01*
X16061825Y-11498150D02*
X16099920Y-11498150D01*
X16099920Y-11498150D02*
X16118968Y-11507674D01*
X16118968Y-11507674D02*
X16128491Y-11526722D01*
X16128491Y-11526722D02*
X16128491Y-11545769D01*
X16128491Y-11545769D02*
X16033253Y-11564817D01*
X16204682Y-11621960D02*
X16223730Y-11631484D01*
X16223730Y-11631484D02*
X16261825Y-11631484D01*
X16261825Y-11631484D02*
X16280872Y-11621960D01*
X16280872Y-11621960D02*
X16290396Y-11602912D01*
X16290396Y-11602912D02*
X16290396Y-11593388D01*
X16290396Y-11593388D02*
X16280872Y-11574341D01*
X16280872Y-11574341D02*
X16261825Y-11564817D01*
X16261825Y-11564817D02*
X16233253Y-11564817D01*
X16233253Y-11564817D02*
X16214206Y-11555293D01*
X16214206Y-11555293D02*
X16204682Y-11536246D01*
X16204682Y-11536246D02*
X16204682Y-11526722D01*
X16204682Y-11526722D02*
X16214206Y-11507674D01*
X16214206Y-11507674D02*
X16233253Y-11498150D01*
X16233253Y-11498150D02*
X16261825Y-11498150D01*
X16261825Y-11498150D02*
X16280872Y-11507674D01*
X16357063Y-11707674D02*
X16366587Y-11698150D01*
X16366587Y-11698150D02*
X16385634Y-11669579D01*
X16385634Y-11669579D02*
X16395158Y-11650531D01*
X16395158Y-11650531D02*
X16404682Y-11621960D01*
X16404682Y-11621960D02*
X16414206Y-11574341D01*
X16414206Y-11574341D02*
X16414206Y-11536246D01*
X16414206Y-11536246D02*
X16404682Y-11488627D01*
X16404682Y-11488627D02*
X16395158Y-11460055D01*
X16395158Y-11460055D02*
X16385634Y-11441008D01*
X16385634Y-11441008D02*
X16366587Y-11412436D01*
X16366587Y-11412436D02*
X16357063Y-11402912D01*
X16718968Y-11707674D02*
X16709444Y-11698150D01*
X16709444Y-11698150D02*
X16690396Y-11669579D01*
X16690396Y-11669579D02*
X16680872Y-11650531D01*
X16680872Y-11650531D02*
X16671349Y-11621960D01*
X16671349Y-11621960D02*
X16661825Y-11574341D01*
X16661825Y-11574341D02*
X16661825Y-11536246D01*
X16661825Y-11536246D02*
X16671349Y-11488627D01*
X16671349Y-11488627D02*
X16680872Y-11460055D01*
X16680872Y-11460055D02*
X16690396Y-11441008D01*
X16690396Y-11441008D02*
X16709444Y-11412436D01*
X16709444Y-11412436D02*
X16718968Y-11402912D01*
X16795158Y-11498150D02*
X16795158Y-11631484D01*
X16795158Y-11517198D02*
X16804682Y-11507674D01*
X16804682Y-11507674D02*
X16823730Y-11498150D01*
X16823730Y-11498150D02*
X16852301Y-11498150D01*
X16852301Y-11498150D02*
X16871349Y-11507674D01*
X16871349Y-11507674D02*
X16880873Y-11526722D01*
X16880873Y-11526722D02*
X16880873Y-11631484D01*
X17004682Y-11631484D02*
X16985634Y-11621960D01*
X16985634Y-11621960D02*
X16976111Y-11612436D01*
X16976111Y-11612436D02*
X16966587Y-11593388D01*
X16966587Y-11593388D02*
X16966587Y-11536246D01*
X16966587Y-11536246D02*
X16976111Y-11517198D01*
X16976111Y-11517198D02*
X16985634Y-11507674D01*
X16985634Y-11507674D02*
X17004682Y-11498150D01*
X17004682Y-11498150D02*
X17033254Y-11498150D01*
X17033254Y-11498150D02*
X17052301Y-11507674D01*
X17052301Y-11507674D02*
X17061825Y-11517198D01*
X17061825Y-11517198D02*
X17071349Y-11536246D01*
X17071349Y-11536246D02*
X17071349Y-11593388D01*
X17071349Y-11593388D02*
X17061825Y-11612436D01*
X17061825Y-11612436D02*
X17052301Y-11621960D01*
X17052301Y-11621960D02*
X17033254Y-11631484D01*
X17033254Y-11631484D02*
X17004682Y-11631484D01*
X17128492Y-11498150D02*
X17204682Y-11498150D01*
X17157063Y-11431484D02*
X17157063Y-11602912D01*
X17157063Y-11602912D02*
X17166587Y-11621960D01*
X17166587Y-11621960D02*
X17185634Y-11631484D01*
X17185634Y-11631484D02*
X17204682Y-11631484D01*
X17423730Y-11498150D02*
X17423730Y-11698150D01*
X17423730Y-11507674D02*
X17442777Y-11498150D01*
X17442777Y-11498150D02*
X17480873Y-11498150D01*
X17480873Y-11498150D02*
X17499920Y-11507674D01*
X17499920Y-11507674D02*
X17509444Y-11517198D01*
X17509444Y-11517198D02*
X17518968Y-11536246D01*
X17518968Y-11536246D02*
X17518968Y-11593388D01*
X17518968Y-11593388D02*
X17509444Y-11612436D01*
X17509444Y-11612436D02*
X17499920Y-11621960D01*
X17499920Y-11621960D02*
X17480873Y-11631484D01*
X17480873Y-11631484D02*
X17442777Y-11631484D01*
X17442777Y-11631484D02*
X17423730Y-11621960D01*
X17633254Y-11631484D02*
X17614206Y-11621960D01*
X17614206Y-11621960D02*
X17604682Y-11602912D01*
X17604682Y-11602912D02*
X17604682Y-11431484D01*
X17795158Y-11631484D02*
X17795158Y-11526722D01*
X17795158Y-11526722D02*
X17785635Y-11507674D01*
X17785635Y-11507674D02*
X17766587Y-11498150D01*
X17766587Y-11498150D02*
X17728492Y-11498150D01*
X17728492Y-11498150D02*
X17709444Y-11507674D01*
X17795158Y-11621960D02*
X17776111Y-11631484D01*
X17776111Y-11631484D02*
X17728492Y-11631484D01*
X17728492Y-11631484D02*
X17709444Y-11621960D01*
X17709444Y-11621960D02*
X17699920Y-11602912D01*
X17699920Y-11602912D02*
X17699920Y-11583865D01*
X17699920Y-11583865D02*
X17709444Y-11564817D01*
X17709444Y-11564817D02*
X17728492Y-11555293D01*
X17728492Y-11555293D02*
X17776111Y-11555293D01*
X17776111Y-11555293D02*
X17795158Y-11545769D01*
X17861825Y-11498150D02*
X17938015Y-11498150D01*
X17890396Y-11431484D02*
X17890396Y-11602912D01*
X17890396Y-11602912D02*
X17899920Y-11621960D01*
X17899920Y-11621960D02*
X17918968Y-11631484D01*
X17918968Y-11631484D02*
X17938015Y-11631484D01*
X18080873Y-11621960D02*
X18061825Y-11631484D01*
X18061825Y-11631484D02*
X18023730Y-11631484D01*
X18023730Y-11631484D02*
X18004682Y-11621960D01*
X18004682Y-11621960D02*
X17995158Y-11602912D01*
X17995158Y-11602912D02*
X17995158Y-11526722D01*
X17995158Y-11526722D02*
X18004682Y-11507674D01*
X18004682Y-11507674D02*
X18023730Y-11498150D01*
X18023730Y-11498150D02*
X18061825Y-11498150D01*
X18061825Y-11498150D02*
X18080873Y-11507674D01*
X18080873Y-11507674D02*
X18090396Y-11526722D01*
X18090396Y-11526722D02*
X18090396Y-11545769D01*
X18090396Y-11545769D02*
X17995158Y-11564817D01*
X18261825Y-11631484D02*
X18261825Y-11431484D01*
X18261825Y-11621960D02*
X18242777Y-11631484D01*
X18242777Y-11631484D02*
X18204682Y-11631484D01*
X18204682Y-11631484D02*
X18185635Y-11621960D01*
X18185635Y-11621960D02*
X18176111Y-11612436D01*
X18176111Y-11612436D02*
X18166587Y-11593388D01*
X18166587Y-11593388D02*
X18166587Y-11536246D01*
X18166587Y-11536246D02*
X18176111Y-11517198D01*
X18176111Y-11517198D02*
X18185635Y-11507674D01*
X18185635Y-11507674D02*
X18204682Y-11498150D01*
X18204682Y-11498150D02*
X18242777Y-11498150D01*
X18242777Y-11498150D02*
X18261825Y-11507674D01*
X18338016Y-11707674D02*
X18347539Y-11698150D01*
X18347539Y-11698150D02*
X18366587Y-11669579D01*
X18366587Y-11669579D02*
X18376111Y-11650531D01*
X18376111Y-11650531D02*
X18385635Y-11621960D01*
X18385635Y-11621960D02*
X18395158Y-11574341D01*
X18395158Y-11574341D02*
X18395158Y-11536246D01*
X18395158Y-11536246D02*
X18385635Y-11488627D01*
X18385635Y-11488627D02*
X18376111Y-11460055D01*
X18376111Y-11460055D02*
X18366587Y-11441008D01*
X18366587Y-11441008D02*
X18347539Y-11412436D01*
X18347539Y-11412436D02*
X18338016Y-11402912D01*
M02*
