%TF.GenerationSoftware,KiCad,Pcbnew,7.0.8*%
%TF.CreationDate,2024-01-01T18:01:17+05:30*%
%TF.ProjectId,Buck_Converter,4275636b-5f43-46f6-9e76-65727465722e,rev?*%
%TF.SameCoordinates,Original*%
%TF.FileFunction,Legend,Top*%
%TF.FilePolarity,Positive*%
%FSLAX46Y46*%
G04 Gerber Fmt 4.6, Leading zero omitted, Abs format (unit mm)*
G04 Created by KiCad (PCBNEW 7.0.8) date 2024-01-01 18:01:17*
%MOMM*%
%LPD*%
G01*
G04 APERTURE LIST*
%ADD10C,0.375000*%
%ADD11C,0.150000*%
%ADD12C,0.125000*%
%ADD13C,0.120000*%
G04 APERTURE END LIST*
D10*
X131058252Y-99657100D02*
X132201110Y-99657100D01*
X131071352Y-112979800D02*
X132214210Y-112979800D01*
X131642781Y-113551228D02*
X131642781Y-112408371D01*
X166973852Y-99809500D02*
X168116710Y-99809500D01*
X167126252Y-112865100D02*
X168269110Y-112865100D01*
X167697681Y-113436528D02*
X167697681Y-112293671D01*
D11*
X163284819Y-109553333D02*
X163999104Y-109553333D01*
X163999104Y-109553333D02*
X164141961Y-109600952D01*
X164141961Y-109600952D02*
X164237200Y-109696190D01*
X164237200Y-109696190D02*
X164284819Y-109839047D01*
X164284819Y-109839047D02*
X164284819Y-109934285D01*
X163380057Y-109124761D02*
X163332438Y-109077142D01*
X163332438Y-109077142D02*
X163284819Y-108981904D01*
X163284819Y-108981904D02*
X163284819Y-108743809D01*
X163284819Y-108743809D02*
X163332438Y-108648571D01*
X163332438Y-108648571D02*
X163380057Y-108600952D01*
X163380057Y-108600952D02*
X163475295Y-108553333D01*
X163475295Y-108553333D02*
X163570533Y-108553333D01*
X163570533Y-108553333D02*
X163713390Y-108600952D01*
X163713390Y-108600952D02*
X164284819Y-109172380D01*
X164284819Y-109172380D02*
X164284819Y-108553333D01*
D12*
X144297447Y-102391609D02*
X144297447Y-102796371D01*
X144297447Y-102796371D02*
X144321257Y-102843990D01*
X144321257Y-102843990D02*
X144345066Y-102867800D01*
X144345066Y-102867800D02*
X144392685Y-102891609D01*
X144392685Y-102891609D02*
X144487923Y-102891609D01*
X144487923Y-102891609D02*
X144535542Y-102867800D01*
X144535542Y-102867800D02*
X144559352Y-102843990D01*
X144559352Y-102843990D02*
X144583161Y-102796371D01*
X144583161Y-102796371D02*
X144583161Y-102391609D01*
X145083162Y-102891609D02*
X144797448Y-102891609D01*
X144940305Y-102891609D02*
X144940305Y-102391609D01*
X144940305Y-102391609D02*
X144892686Y-102463038D01*
X144892686Y-102463038D02*
X144845067Y-102510657D01*
X144845067Y-102510657D02*
X144797448Y-102534466D01*
X144873067Y-108428809D02*
X144634972Y-108428809D01*
X144634972Y-108428809D02*
X144634972Y-107928809D01*
X145039734Y-108428809D02*
X145039734Y-107928809D01*
X145039734Y-107928809D02*
X145206401Y-108285952D01*
X145206401Y-108285952D02*
X145373067Y-107928809D01*
X145373067Y-107928809D02*
X145373067Y-108428809D01*
X145563544Y-107928809D02*
X145873068Y-107928809D01*
X145873068Y-107928809D02*
X145706401Y-108119285D01*
X145706401Y-108119285D02*
X145777830Y-108119285D01*
X145777830Y-108119285D02*
X145825449Y-108143095D01*
X145825449Y-108143095D02*
X145849258Y-108166904D01*
X145849258Y-108166904D02*
X145873068Y-108214523D01*
X145873068Y-108214523D02*
X145873068Y-108333571D01*
X145873068Y-108333571D02*
X145849258Y-108381190D01*
X145849258Y-108381190D02*
X145825449Y-108405000D01*
X145825449Y-108405000D02*
X145777830Y-108428809D01*
X145777830Y-108428809D02*
X145634973Y-108428809D01*
X145634973Y-108428809D02*
X145587354Y-108405000D01*
X145587354Y-108405000D02*
X145563544Y-108381190D01*
X146301639Y-107928809D02*
X146206401Y-107928809D01*
X146206401Y-107928809D02*
X146158782Y-107952619D01*
X146158782Y-107952619D02*
X146134972Y-107976428D01*
X146134972Y-107976428D02*
X146087353Y-108047857D01*
X146087353Y-108047857D02*
X146063544Y-108143095D01*
X146063544Y-108143095D02*
X146063544Y-108333571D01*
X146063544Y-108333571D02*
X146087353Y-108381190D01*
X146087353Y-108381190D02*
X146111163Y-108405000D01*
X146111163Y-108405000D02*
X146158782Y-108428809D01*
X146158782Y-108428809D02*
X146254020Y-108428809D01*
X146254020Y-108428809D02*
X146301639Y-108405000D01*
X146301639Y-108405000D02*
X146325448Y-108381190D01*
X146325448Y-108381190D02*
X146349258Y-108333571D01*
X146349258Y-108333571D02*
X146349258Y-108214523D01*
X146349258Y-108214523D02*
X146325448Y-108166904D01*
X146325448Y-108166904D02*
X146301639Y-108143095D01*
X146301639Y-108143095D02*
X146254020Y-108119285D01*
X146254020Y-108119285D02*
X146158782Y-108119285D01*
X146158782Y-108119285D02*
X146111163Y-108143095D01*
X146111163Y-108143095D02*
X146087353Y-108166904D01*
X146087353Y-108166904D02*
X146063544Y-108214523D01*
X146515924Y-107928809D02*
X146849257Y-107928809D01*
X146849257Y-107928809D02*
X146634972Y-108428809D01*
X147134971Y-107928809D02*
X147182590Y-107928809D01*
X147182590Y-107928809D02*
X147230209Y-107952619D01*
X147230209Y-107952619D02*
X147254019Y-107976428D01*
X147254019Y-107976428D02*
X147277828Y-108024047D01*
X147277828Y-108024047D02*
X147301638Y-108119285D01*
X147301638Y-108119285D02*
X147301638Y-108238333D01*
X147301638Y-108238333D02*
X147277828Y-108333571D01*
X147277828Y-108333571D02*
X147254019Y-108381190D01*
X147254019Y-108381190D02*
X147230209Y-108405000D01*
X147230209Y-108405000D02*
X147182590Y-108428809D01*
X147182590Y-108428809D02*
X147134971Y-108428809D01*
X147134971Y-108428809D02*
X147087352Y-108405000D01*
X147087352Y-108405000D02*
X147063543Y-108381190D01*
X147063543Y-108381190D02*
X147039733Y-108333571D01*
X147039733Y-108333571D02*
X147015924Y-108238333D01*
X147015924Y-108238333D02*
X147015924Y-108119285D01*
X147015924Y-108119285D02*
X147039733Y-108024047D01*
X147039733Y-108024047D02*
X147063543Y-107976428D01*
X147063543Y-107976428D02*
X147087352Y-107952619D01*
X147087352Y-107952619D02*
X147134971Y-107928809D01*
X147515923Y-108428809D02*
X147515923Y-107928809D01*
X147515923Y-107928809D02*
X147682590Y-108285952D01*
X147682590Y-108285952D02*
X147849256Y-107928809D01*
X147849256Y-107928809D02*
X147849256Y-108428809D01*
X148254019Y-108166904D02*
X148087352Y-108166904D01*
X148087352Y-108428809D02*
X148087352Y-107928809D01*
X148087352Y-107928809D02*
X148325447Y-107928809D01*
D11*
X140460833Y-108307980D02*
X140413214Y-108355600D01*
X140413214Y-108355600D02*
X140270357Y-108403219D01*
X140270357Y-108403219D02*
X140175119Y-108403219D01*
X140175119Y-108403219D02*
X140032262Y-108355600D01*
X140032262Y-108355600D02*
X139937024Y-108260361D01*
X139937024Y-108260361D02*
X139889405Y-108165123D01*
X139889405Y-108165123D02*
X139841786Y-107974647D01*
X139841786Y-107974647D02*
X139841786Y-107831790D01*
X139841786Y-107831790D02*
X139889405Y-107641314D01*
X139889405Y-107641314D02*
X139937024Y-107546076D01*
X139937024Y-107546076D02*
X140032262Y-107450838D01*
X140032262Y-107450838D02*
X140175119Y-107403219D01*
X140175119Y-107403219D02*
X140270357Y-107403219D01*
X140270357Y-107403219D02*
X140413214Y-107450838D01*
X140413214Y-107450838D02*
X140460833Y-107498457D01*
X141413214Y-108403219D02*
X140841786Y-108403219D01*
X141127500Y-108403219D02*
X141127500Y-107403219D01*
X141127500Y-107403219D02*
X141032262Y-107546076D01*
X141032262Y-107546076D02*
X140937024Y-107641314D01*
X140937024Y-107641314D02*
X140841786Y-107688933D01*
D12*
X140267620Y-102659876D02*
X140267620Y-102993209D01*
X140148572Y-102469400D02*
X140029525Y-102826542D01*
X140029525Y-102826542D02*
X140339048Y-102826542D01*
X140529524Y-102945590D02*
X140553334Y-102969400D01*
X140553334Y-102969400D02*
X140529524Y-102993209D01*
X140529524Y-102993209D02*
X140505715Y-102969400D01*
X140505715Y-102969400D02*
X140529524Y-102945590D01*
X140529524Y-102945590D02*
X140529524Y-102993209D01*
X140720000Y-102493209D02*
X141053333Y-102493209D01*
X141053333Y-102493209D02*
X140839048Y-102993209D01*
X141458095Y-102659876D02*
X141458095Y-102993209D01*
X141243809Y-102659876D02*
X141243809Y-102921780D01*
X141243809Y-102921780D02*
X141267619Y-102969400D01*
X141267619Y-102969400D02*
X141315238Y-102993209D01*
X141315238Y-102993209D02*
X141386666Y-102993209D01*
X141386666Y-102993209D02*
X141434285Y-102969400D01*
X141434285Y-102969400D02*
X141458095Y-102945590D01*
X141862857Y-102731304D02*
X141696190Y-102731304D01*
X141696190Y-102993209D02*
X141696190Y-102493209D01*
X141696190Y-102493209D02*
X141934285Y-102493209D01*
D11*
X176225295Y-110945219D02*
X176225295Y-109945219D01*
X176225295Y-110421409D02*
X176796723Y-110421409D01*
X176796723Y-110945219D02*
X176796723Y-109945219D01*
X177177676Y-109945219D02*
X177796723Y-109945219D01*
X177796723Y-109945219D02*
X177463390Y-110326171D01*
X177463390Y-110326171D02*
X177606247Y-110326171D01*
X177606247Y-110326171D02*
X177701485Y-110373790D01*
X177701485Y-110373790D02*
X177749104Y-110421409D01*
X177749104Y-110421409D02*
X177796723Y-110516647D01*
X177796723Y-110516647D02*
X177796723Y-110754742D01*
X177796723Y-110754742D02*
X177749104Y-110849980D01*
X177749104Y-110849980D02*
X177701485Y-110897600D01*
X177701485Y-110897600D02*
X177606247Y-110945219D01*
X177606247Y-110945219D02*
X177320533Y-110945219D01*
X177320533Y-110945219D02*
X177225295Y-110897600D01*
X177225295Y-110897600D02*
X177177676Y-110849980D01*
X138262166Y-101169519D02*
X138262166Y-101883804D01*
X138262166Y-101883804D02*
X138214547Y-102026661D01*
X138214547Y-102026661D02*
X138119309Y-102121900D01*
X138119309Y-102121900D02*
X137976452Y-102169519D01*
X137976452Y-102169519D02*
X137881214Y-102169519D01*
X139262166Y-102169519D02*
X138690738Y-102169519D01*
X138976452Y-102169519D02*
X138976452Y-101169519D01*
X138976452Y-101169519D02*
X138881214Y-101312376D01*
X138881214Y-101312376D02*
X138785976Y-101407614D01*
X138785976Y-101407614D02*
X138690738Y-101455233D01*
X172161295Y-97228819D02*
X172161295Y-96228819D01*
X172161295Y-96705009D02*
X172732723Y-96705009D01*
X172732723Y-97228819D02*
X172732723Y-96228819D01*
X173732723Y-97228819D02*
X173161295Y-97228819D01*
X173447009Y-97228819D02*
X173447009Y-96228819D01*
X173447009Y-96228819D02*
X173351771Y-96371676D01*
X173351771Y-96371676D02*
X173256533Y-96466914D01*
X173256533Y-96466914D02*
X173161295Y-96514533D01*
X159853333Y-109579580D02*
X159805714Y-109627200D01*
X159805714Y-109627200D02*
X159662857Y-109674819D01*
X159662857Y-109674819D02*
X159567619Y-109674819D01*
X159567619Y-109674819D02*
X159424762Y-109627200D01*
X159424762Y-109627200D02*
X159329524Y-109531961D01*
X159329524Y-109531961D02*
X159281905Y-109436723D01*
X159281905Y-109436723D02*
X159234286Y-109246247D01*
X159234286Y-109246247D02*
X159234286Y-109103390D01*
X159234286Y-109103390D02*
X159281905Y-108912914D01*
X159281905Y-108912914D02*
X159329524Y-108817676D01*
X159329524Y-108817676D02*
X159424762Y-108722438D01*
X159424762Y-108722438D02*
X159567619Y-108674819D01*
X159567619Y-108674819D02*
X159662857Y-108674819D01*
X159662857Y-108674819D02*
X159805714Y-108722438D01*
X159805714Y-108722438D02*
X159853333Y-108770057D01*
X160234286Y-108770057D02*
X160281905Y-108722438D01*
X160281905Y-108722438D02*
X160377143Y-108674819D01*
X160377143Y-108674819D02*
X160615238Y-108674819D01*
X160615238Y-108674819D02*
X160710476Y-108722438D01*
X160710476Y-108722438D02*
X160758095Y-108770057D01*
X160758095Y-108770057D02*
X160805714Y-108865295D01*
X160805714Y-108865295D02*
X160805714Y-108960533D01*
X160805714Y-108960533D02*
X160758095Y-109103390D01*
X160758095Y-109103390D02*
X160186667Y-109674819D01*
X160186667Y-109674819D02*
X160805714Y-109674819D01*
D12*
X159331886Y-102332809D02*
X159046172Y-102332809D01*
X159189029Y-102332809D02*
X159189029Y-101832809D01*
X159189029Y-101832809D02*
X159141410Y-101904238D01*
X159141410Y-101904238D02*
X159093791Y-101951857D01*
X159093791Y-101951857D02*
X159046172Y-101975666D01*
X159641409Y-101832809D02*
X159689028Y-101832809D01*
X159689028Y-101832809D02*
X159736647Y-101856619D01*
X159736647Y-101856619D02*
X159760457Y-101880428D01*
X159760457Y-101880428D02*
X159784266Y-101928047D01*
X159784266Y-101928047D02*
X159808076Y-102023285D01*
X159808076Y-102023285D02*
X159808076Y-102142333D01*
X159808076Y-102142333D02*
X159784266Y-102237571D01*
X159784266Y-102237571D02*
X159760457Y-102285190D01*
X159760457Y-102285190D02*
X159736647Y-102309000D01*
X159736647Y-102309000D02*
X159689028Y-102332809D01*
X159689028Y-102332809D02*
X159641409Y-102332809D01*
X159641409Y-102332809D02*
X159593790Y-102309000D01*
X159593790Y-102309000D02*
X159569981Y-102285190D01*
X159569981Y-102285190D02*
X159546171Y-102237571D01*
X159546171Y-102237571D02*
X159522362Y-102142333D01*
X159522362Y-102142333D02*
X159522362Y-102023285D01*
X159522362Y-102023285D02*
X159546171Y-101928047D01*
X159546171Y-101928047D02*
X159569981Y-101880428D01*
X159569981Y-101880428D02*
X159593790Y-101856619D01*
X159593790Y-101856619D02*
X159641409Y-101832809D01*
X160236647Y-101999476D02*
X160236647Y-102332809D01*
X160022361Y-101999476D02*
X160022361Y-102261380D01*
X160022361Y-102261380D02*
X160046171Y-102309000D01*
X160046171Y-102309000D02*
X160093790Y-102332809D01*
X160093790Y-102332809D02*
X160165218Y-102332809D01*
X160165218Y-102332809D02*
X160212837Y-102309000D01*
X160212837Y-102309000D02*
X160236647Y-102285190D01*
X160641409Y-102070904D02*
X160474742Y-102070904D01*
X160474742Y-102332809D02*
X160474742Y-101832809D01*
X160474742Y-101832809D02*
X160712837Y-101832809D01*
D11*
X151787433Y-108801519D02*
X151311243Y-108801519D01*
X151311243Y-108801519D02*
X151311243Y-107801519D01*
X152644576Y-108801519D02*
X152073148Y-108801519D01*
X152358862Y-108801519D02*
X152358862Y-107801519D01*
X152358862Y-107801519D02*
X152263624Y-107944376D01*
X152263624Y-107944376D02*
X152168386Y-108039614D01*
X152168386Y-108039614D02*
X152073148Y-108087233D01*
X153620933Y-108862019D02*
X153049505Y-108862019D01*
X153335219Y-108862019D02*
X153335219Y-107862019D01*
X153335219Y-107862019D02*
X153239981Y-108004876D01*
X153239981Y-108004876D02*
X153144743Y-108100114D01*
X153144743Y-108100114D02*
X153049505Y-108147733D01*
X154239981Y-107862019D02*
X154335219Y-107862019D01*
X154335219Y-107862019D02*
X154430457Y-107909638D01*
X154430457Y-107909638D02*
X154478076Y-107957257D01*
X154478076Y-107957257D02*
X154525695Y-108052495D01*
X154525695Y-108052495D02*
X154573314Y-108242971D01*
X154573314Y-108242971D02*
X154573314Y-108481066D01*
X154573314Y-108481066D02*
X154525695Y-108671542D01*
X154525695Y-108671542D02*
X154478076Y-108766780D01*
X154478076Y-108766780D02*
X154430457Y-108814400D01*
X154430457Y-108814400D02*
X154335219Y-108862019D01*
X154335219Y-108862019D02*
X154239981Y-108862019D01*
X154239981Y-108862019D02*
X154144743Y-108814400D01*
X154144743Y-108814400D02*
X154097124Y-108766780D01*
X154097124Y-108766780D02*
X154049505Y-108671542D01*
X154049505Y-108671542D02*
X154001886Y-108481066D01*
X154001886Y-108481066D02*
X154001886Y-108242971D01*
X154001886Y-108242971D02*
X154049505Y-108052495D01*
X154049505Y-108052495D02*
X154097124Y-107957257D01*
X154097124Y-107957257D02*
X154144743Y-107909638D01*
X154144743Y-107909638D02*
X154239981Y-107862019D01*
X155430457Y-108195352D02*
X155430457Y-108862019D01*
X155001886Y-108195352D02*
X155001886Y-108719161D01*
X155001886Y-108719161D02*
X155049505Y-108814400D01*
X155049505Y-108814400D02*
X155144743Y-108862019D01*
X155144743Y-108862019D02*
X155287600Y-108862019D01*
X155287600Y-108862019D02*
X155382838Y-108814400D01*
X155382838Y-108814400D02*
X155430457Y-108766780D01*
X155906648Y-108862019D02*
X155906648Y-107862019D01*
X155906648Y-108338209D02*
X156478076Y-108338209D01*
X156478076Y-108862019D02*
X156478076Y-107862019D01*
D13*
%TO.C,J2*%
X171800000Y-111348800D02*
X172540000Y-111348800D01*
X172540000Y-111348800D02*
X172540000Y-110848800D01*
X162379000Y-111108800D02*
X172300000Y-111108800D01*
X162379000Y-111108800D02*
X162379000Y-100828800D01*
X165339000Y-111108800D02*
X165339000Y-100828800D01*
X170240000Y-111108800D02*
X170240000Y-100828800D01*
X171740000Y-111108800D02*
X171740000Y-100828800D01*
X172300000Y-111108800D02*
X172300000Y-100828800D01*
X168663000Y-104655800D02*
X168709000Y-104702800D01*
X168879000Y-104462800D02*
X168914000Y-104497800D01*
X166365000Y-102358800D02*
X166401000Y-102393800D01*
X166571000Y-102153800D02*
X166617000Y-102200800D01*
X162379000Y-100828800D02*
X172300000Y-100828800D01*
X166956001Y-110043799D02*
G75*
G03*
X168323042Y-110044226I684000J1534992D01*
G01*
X166105001Y-107824801D02*
G75*
G03*
X166104574Y-109191842I1534992J-684000D01*
G01*
X169174999Y-109192800D02*
G75*
G03*
X169320252Y-108479995I-1535000J683999D01*
G01*
X169319999Y-108508800D02*
G75*
G03*
X169174755Y-107825482I-1679999J0D01*
G01*
X168324000Y-106973800D02*
G75*
G03*
X166956958Y-106973374I-684000J-1535000D01*
G01*
X169320000Y-103428800D02*
G75*
G03*
X169320000Y-103428800I-1680000J0D01*
G01*
%TO.C,U1*%
X146477800Y-103625100D02*
X144677800Y-103625100D01*
X146477800Y-103625100D02*
X147277800Y-103625100D01*
X146477800Y-106745100D02*
X145677800Y-106745100D01*
X146477800Y-106745100D02*
X147277800Y-106745100D01*
%TO.C,C1*%
X139892500Y-105459652D02*
X139892500Y-104937148D01*
X141362500Y-105459652D02*
X141362500Y-104937148D01*
%TO.C,J1*%
X127780700Y-100754300D02*
X127040700Y-100754300D01*
X127040700Y-100754300D02*
X127040700Y-101254300D01*
X137201700Y-100994300D02*
X127280700Y-100994300D01*
X137201700Y-100994300D02*
X137201700Y-111274300D01*
X134241700Y-100994300D02*
X134241700Y-111274300D01*
X129340700Y-100994300D02*
X129340700Y-111274300D01*
X127840700Y-100994300D02*
X127840700Y-111274300D01*
X127280700Y-100994300D02*
X127280700Y-111274300D01*
X130917700Y-107447300D02*
X130871700Y-107400300D01*
X130701700Y-107640300D02*
X130666700Y-107605300D01*
X133215700Y-109744300D02*
X133179700Y-109709300D01*
X133009700Y-109949300D02*
X132963700Y-109902300D01*
X137201700Y-111274300D02*
X127280700Y-111274300D01*
X132624699Y-102059301D02*
G75*
G03*
X131257658Y-102058874I-684000J-1534992D01*
G01*
X133475699Y-104278299D02*
G75*
G03*
X133476126Y-102911258I-1534992J684000D01*
G01*
X130405701Y-102910300D02*
G75*
G03*
X130260448Y-103623105I1535000J-683999D01*
G01*
X130260701Y-103594300D02*
G75*
G03*
X130405945Y-104277618I1679999J0D01*
G01*
X131256700Y-105129300D02*
G75*
G03*
X132623742Y-105129726I684000J1535000D01*
G01*
X133620700Y-108674300D02*
G75*
G03*
X133620700Y-108674300I-1680000J0D01*
G01*
%TO.C,C2*%
X159008400Y-105956552D02*
X159008400Y-104534048D01*
X160828400Y-105956552D02*
X160828400Y-104534048D01*
%TO.C,L1*%
X155579100Y-107596700D02*
X151279100Y-107596700D01*
X151279100Y-107596700D02*
X151279100Y-102796700D01*
X151279100Y-102796700D02*
X155579100Y-102796700D01*
X155579100Y-102796700D02*
X155579100Y-107596700D01*
%TD*%
M02*
