%TF.GenerationSoftware,KiCad,Pcbnew,7.0.8*%
%TF.CreationDate,2024-01-22T15:58:14+05:30*%
%TF.ProjectId,Buck_Converter,4275636b-5f43-46f6-9e76-65727465722e,rev?*%
%TF.SameCoordinates,Original*%
%TF.FileFunction,Legend,Top*%
%TF.FilePolarity,Positive*%
%FSLAX46Y46*%
G04 Gerber Fmt 4.6, Leading zero omitted, Abs format (unit mm)*
G04 Created by KiCad (PCBNEW 7.0.8) date 2024-01-22 15:58:14*
%MOMM*%
%LPD*%
G01*
G04 APERTURE LIST*
%ADD10C,0.375000*%
%ADD11C,0.150000*%
%ADD12C,0.125000*%
%ADD13C,0.120000*%
G04 APERTURE END LIST*
D10*
X131058252Y-99657100D02*
X132201110Y-99657100D01*
X131071352Y-112979800D02*
X132214210Y-112979800D01*
X131642781Y-113551228D02*
X131642781Y-112408371D01*
X163656852Y-99647900D02*
X164799710Y-99647900D01*
X163773452Y-112153900D02*
X164916310Y-112153900D01*
X164344881Y-112725328D02*
X164344881Y-111582471D01*
D11*
X160998819Y-109146933D02*
X161713104Y-109146933D01*
X161713104Y-109146933D02*
X161855961Y-109194552D01*
X161855961Y-109194552D02*
X161951200Y-109289790D01*
X161951200Y-109289790D02*
X161998819Y-109432647D01*
X161998819Y-109432647D02*
X161998819Y-109527885D01*
X161094057Y-108718361D02*
X161046438Y-108670742D01*
X161046438Y-108670742D02*
X160998819Y-108575504D01*
X160998819Y-108575504D02*
X160998819Y-108337409D01*
X160998819Y-108337409D02*
X161046438Y-108242171D01*
X161046438Y-108242171D02*
X161094057Y-108194552D01*
X161094057Y-108194552D02*
X161189295Y-108146933D01*
X161189295Y-108146933D02*
X161284533Y-108146933D01*
X161284533Y-108146933D02*
X161427390Y-108194552D01*
X161427390Y-108194552D02*
X161998819Y-108765980D01*
X161998819Y-108765980D02*
X161998819Y-108146933D01*
D12*
X144068876Y-102230395D02*
X144068876Y-102878014D01*
X144068876Y-102878014D02*
X144106971Y-102954204D01*
X144106971Y-102954204D02*
X144145066Y-102992300D01*
X144145066Y-102992300D02*
X144221257Y-103030395D01*
X144221257Y-103030395D02*
X144373638Y-103030395D01*
X144373638Y-103030395D02*
X144449828Y-102992300D01*
X144449828Y-102992300D02*
X144487923Y-102954204D01*
X144487923Y-102954204D02*
X144526019Y-102878014D01*
X144526019Y-102878014D02*
X144526019Y-102230395D01*
X145326018Y-103030395D02*
X144868875Y-103030395D01*
X145097447Y-103030395D02*
X145097447Y-102230395D01*
X145097447Y-102230395D02*
X145021256Y-102344680D01*
X145021256Y-102344680D02*
X144945066Y-102420871D01*
X144945066Y-102420871D02*
X144868875Y-102458966D01*
X143872266Y-107957995D02*
X143491314Y-107957995D01*
X143491314Y-107957995D02*
X143491314Y-107157995D01*
X144138933Y-107957995D02*
X144138933Y-107157995D01*
X144138933Y-107157995D02*
X144405599Y-107729423D01*
X144405599Y-107729423D02*
X144672266Y-107157995D01*
X144672266Y-107157995D02*
X144672266Y-107957995D01*
X144977028Y-107157995D02*
X145472266Y-107157995D01*
X145472266Y-107157995D02*
X145205600Y-107462757D01*
X145205600Y-107462757D02*
X145319885Y-107462757D01*
X145319885Y-107462757D02*
X145396076Y-107500852D01*
X145396076Y-107500852D02*
X145434171Y-107538947D01*
X145434171Y-107538947D02*
X145472266Y-107615138D01*
X145472266Y-107615138D02*
X145472266Y-107805614D01*
X145472266Y-107805614D02*
X145434171Y-107881804D01*
X145434171Y-107881804D02*
X145396076Y-107919900D01*
X145396076Y-107919900D02*
X145319885Y-107957995D01*
X145319885Y-107957995D02*
X145091314Y-107957995D01*
X145091314Y-107957995D02*
X145015123Y-107919900D01*
X145015123Y-107919900D02*
X144977028Y-107881804D01*
X146157981Y-107157995D02*
X146005600Y-107157995D01*
X146005600Y-107157995D02*
X145929409Y-107196090D01*
X145929409Y-107196090D02*
X145891314Y-107234185D01*
X145891314Y-107234185D02*
X145815124Y-107348471D01*
X145815124Y-107348471D02*
X145777028Y-107500852D01*
X145777028Y-107500852D02*
X145777028Y-107805614D01*
X145777028Y-107805614D02*
X145815124Y-107881804D01*
X145815124Y-107881804D02*
X145853219Y-107919900D01*
X145853219Y-107919900D02*
X145929409Y-107957995D01*
X145929409Y-107957995D02*
X146081790Y-107957995D01*
X146081790Y-107957995D02*
X146157981Y-107919900D01*
X146157981Y-107919900D02*
X146196076Y-107881804D01*
X146196076Y-107881804D02*
X146234171Y-107805614D01*
X146234171Y-107805614D02*
X146234171Y-107615138D01*
X146234171Y-107615138D02*
X146196076Y-107538947D01*
X146196076Y-107538947D02*
X146157981Y-107500852D01*
X146157981Y-107500852D02*
X146081790Y-107462757D01*
X146081790Y-107462757D02*
X145929409Y-107462757D01*
X145929409Y-107462757D02*
X145853219Y-107500852D01*
X145853219Y-107500852D02*
X145815124Y-107538947D01*
X145815124Y-107538947D02*
X145777028Y-107615138D01*
X146500838Y-107157995D02*
X147034172Y-107157995D01*
X147034172Y-107157995D02*
X146691314Y-107957995D01*
X147491315Y-107157995D02*
X147567505Y-107157995D01*
X147567505Y-107157995D02*
X147643696Y-107196090D01*
X147643696Y-107196090D02*
X147681791Y-107234185D01*
X147681791Y-107234185D02*
X147719886Y-107310376D01*
X147719886Y-107310376D02*
X147757981Y-107462757D01*
X147757981Y-107462757D02*
X147757981Y-107653233D01*
X147757981Y-107653233D02*
X147719886Y-107805614D01*
X147719886Y-107805614D02*
X147681791Y-107881804D01*
X147681791Y-107881804D02*
X147643696Y-107919900D01*
X147643696Y-107919900D02*
X147567505Y-107957995D01*
X147567505Y-107957995D02*
X147491315Y-107957995D01*
X147491315Y-107957995D02*
X147415124Y-107919900D01*
X147415124Y-107919900D02*
X147377029Y-107881804D01*
X147377029Y-107881804D02*
X147338934Y-107805614D01*
X147338934Y-107805614D02*
X147300838Y-107653233D01*
X147300838Y-107653233D02*
X147300838Y-107462757D01*
X147300838Y-107462757D02*
X147338934Y-107310376D01*
X147338934Y-107310376D02*
X147377029Y-107234185D01*
X147377029Y-107234185D02*
X147415124Y-107196090D01*
X147415124Y-107196090D02*
X147491315Y-107157995D01*
X148100839Y-107957995D02*
X148100839Y-107157995D01*
X148100839Y-107157995D02*
X148367505Y-107729423D01*
X148367505Y-107729423D02*
X148634172Y-107157995D01*
X148634172Y-107157995D02*
X148634172Y-107957995D01*
X149281791Y-107538947D02*
X149015125Y-107538947D01*
X149015125Y-107957995D02*
X149015125Y-107157995D01*
X149015125Y-107157995D02*
X149396077Y-107157995D01*
D11*
X140460833Y-108307980D02*
X140413214Y-108355600D01*
X140413214Y-108355600D02*
X140270357Y-108403219D01*
X140270357Y-108403219D02*
X140175119Y-108403219D01*
X140175119Y-108403219D02*
X140032262Y-108355600D01*
X140032262Y-108355600D02*
X139937024Y-108260361D01*
X139937024Y-108260361D02*
X139889405Y-108165123D01*
X139889405Y-108165123D02*
X139841786Y-107974647D01*
X139841786Y-107974647D02*
X139841786Y-107831790D01*
X139841786Y-107831790D02*
X139889405Y-107641314D01*
X139889405Y-107641314D02*
X139937024Y-107546076D01*
X139937024Y-107546076D02*
X140032262Y-107450838D01*
X140032262Y-107450838D02*
X140175119Y-107403219D01*
X140175119Y-107403219D02*
X140270357Y-107403219D01*
X140270357Y-107403219D02*
X140413214Y-107450838D01*
X140413214Y-107450838D02*
X140460833Y-107498457D01*
X141413214Y-108403219D02*
X140841786Y-108403219D01*
X141127500Y-108403219D02*
X141127500Y-107403219D01*
X141127500Y-107403219D02*
X141032262Y-107546076D01*
X141032262Y-107546076D02*
X140937024Y-107641314D01*
X140937024Y-107641314D02*
X140841786Y-107688933D01*
D12*
X139846190Y-102598661D02*
X139846190Y-103131995D01*
X139655714Y-102293900D02*
X139465237Y-102865328D01*
X139465237Y-102865328D02*
X139960476Y-102865328D01*
X140265238Y-103055804D02*
X140303333Y-103093900D01*
X140303333Y-103093900D02*
X140265238Y-103131995D01*
X140265238Y-103131995D02*
X140227142Y-103093900D01*
X140227142Y-103093900D02*
X140265238Y-103055804D01*
X140265238Y-103055804D02*
X140265238Y-103131995D01*
X140569999Y-102331995D02*
X141103333Y-102331995D01*
X141103333Y-102331995D02*
X140760475Y-103131995D01*
X141750952Y-102598661D02*
X141750952Y-103131995D01*
X141408095Y-102598661D02*
X141408095Y-103017709D01*
X141408095Y-103017709D02*
X141446190Y-103093900D01*
X141446190Y-103093900D02*
X141522380Y-103131995D01*
X141522380Y-103131995D02*
X141636666Y-103131995D01*
X141636666Y-103131995D02*
X141712857Y-103093900D01*
X141712857Y-103093900D02*
X141750952Y-103055804D01*
X142398571Y-102712947D02*
X142131905Y-102712947D01*
X142131905Y-103131995D02*
X142131905Y-102331995D01*
X142131905Y-102331995D02*
X142512857Y-102331995D01*
D11*
X135302666Y-99276819D02*
X135302666Y-99991104D01*
X135302666Y-99991104D02*
X135255047Y-100133961D01*
X135255047Y-100133961D02*
X135159809Y-100229200D01*
X135159809Y-100229200D02*
X135016952Y-100276819D01*
X135016952Y-100276819D02*
X134921714Y-100276819D01*
X136302666Y-100276819D02*
X135731238Y-100276819D01*
X136016952Y-100276819D02*
X136016952Y-99276819D01*
X136016952Y-99276819D02*
X135921714Y-99419676D01*
X135921714Y-99419676D02*
X135826476Y-99514914D01*
X135826476Y-99514914D02*
X135731238Y-99562533D01*
X157821333Y-109427180D02*
X157773714Y-109474800D01*
X157773714Y-109474800D02*
X157630857Y-109522419D01*
X157630857Y-109522419D02*
X157535619Y-109522419D01*
X157535619Y-109522419D02*
X157392762Y-109474800D01*
X157392762Y-109474800D02*
X157297524Y-109379561D01*
X157297524Y-109379561D02*
X157249905Y-109284323D01*
X157249905Y-109284323D02*
X157202286Y-109093847D01*
X157202286Y-109093847D02*
X157202286Y-108950990D01*
X157202286Y-108950990D02*
X157249905Y-108760514D01*
X157249905Y-108760514D02*
X157297524Y-108665276D01*
X157297524Y-108665276D02*
X157392762Y-108570038D01*
X157392762Y-108570038D02*
X157535619Y-108522419D01*
X157535619Y-108522419D02*
X157630857Y-108522419D01*
X157630857Y-108522419D02*
X157773714Y-108570038D01*
X157773714Y-108570038D02*
X157821333Y-108617657D01*
X158202286Y-108617657D02*
X158249905Y-108570038D01*
X158249905Y-108570038D02*
X158345143Y-108522419D01*
X158345143Y-108522419D02*
X158583238Y-108522419D01*
X158583238Y-108522419D02*
X158678476Y-108570038D01*
X158678476Y-108570038D02*
X158726095Y-108617657D01*
X158726095Y-108617657D02*
X158773714Y-108712895D01*
X158773714Y-108712895D02*
X158773714Y-108808133D01*
X158773714Y-108808133D02*
X158726095Y-108950990D01*
X158726095Y-108950990D02*
X158154667Y-109522419D01*
X158154667Y-109522419D02*
X158773714Y-109522419D01*
D12*
X156978456Y-102319195D02*
X156521313Y-102319195D01*
X156749885Y-102319195D02*
X156749885Y-101519195D01*
X156749885Y-101519195D02*
X156673694Y-101633480D01*
X156673694Y-101633480D02*
X156597504Y-101709671D01*
X156597504Y-101709671D02*
X156521313Y-101747766D01*
X157473695Y-101519195D02*
X157549885Y-101519195D01*
X157549885Y-101519195D02*
X157626076Y-101557290D01*
X157626076Y-101557290D02*
X157664171Y-101595385D01*
X157664171Y-101595385D02*
X157702266Y-101671576D01*
X157702266Y-101671576D02*
X157740361Y-101823957D01*
X157740361Y-101823957D02*
X157740361Y-102014433D01*
X157740361Y-102014433D02*
X157702266Y-102166814D01*
X157702266Y-102166814D02*
X157664171Y-102243004D01*
X157664171Y-102243004D02*
X157626076Y-102281100D01*
X157626076Y-102281100D02*
X157549885Y-102319195D01*
X157549885Y-102319195D02*
X157473695Y-102319195D01*
X157473695Y-102319195D02*
X157397504Y-102281100D01*
X157397504Y-102281100D02*
X157359409Y-102243004D01*
X157359409Y-102243004D02*
X157321314Y-102166814D01*
X157321314Y-102166814D02*
X157283218Y-102014433D01*
X157283218Y-102014433D02*
X157283218Y-101823957D01*
X157283218Y-101823957D02*
X157321314Y-101671576D01*
X157321314Y-101671576D02*
X157359409Y-101595385D01*
X157359409Y-101595385D02*
X157397504Y-101557290D01*
X157397504Y-101557290D02*
X157473695Y-101519195D01*
X158426076Y-101785861D02*
X158426076Y-102319195D01*
X158083219Y-101785861D02*
X158083219Y-102204909D01*
X158083219Y-102204909D02*
X158121314Y-102281100D01*
X158121314Y-102281100D02*
X158197504Y-102319195D01*
X158197504Y-102319195D02*
X158311790Y-102319195D01*
X158311790Y-102319195D02*
X158387981Y-102281100D01*
X158387981Y-102281100D02*
X158426076Y-102243004D01*
X159073695Y-101900147D02*
X158807029Y-101900147D01*
X158807029Y-102319195D02*
X158807029Y-101519195D01*
X158807029Y-101519195D02*
X159187981Y-101519195D01*
X151820766Y-108710295D02*
X151439814Y-108710295D01*
X151439814Y-108710295D02*
X151439814Y-107910295D01*
X152506480Y-108710295D02*
X152049337Y-108710295D01*
X152277909Y-108710295D02*
X152277909Y-107910295D01*
X152277909Y-107910295D02*
X152201718Y-108024580D01*
X152201718Y-108024580D02*
X152125528Y-108100771D01*
X152125528Y-108100771D02*
X152049337Y-108138866D01*
X153854266Y-108770795D02*
X153397123Y-108770795D01*
X153625695Y-108770795D02*
X153625695Y-107970795D01*
X153625695Y-107970795D02*
X153549504Y-108085080D01*
X153549504Y-108085080D02*
X153473314Y-108161271D01*
X153473314Y-108161271D02*
X153397123Y-108199366D01*
X154349505Y-107970795D02*
X154425695Y-107970795D01*
X154425695Y-107970795D02*
X154501886Y-108008890D01*
X154501886Y-108008890D02*
X154539981Y-108046985D01*
X154539981Y-108046985D02*
X154578076Y-108123176D01*
X154578076Y-108123176D02*
X154616171Y-108275557D01*
X154616171Y-108275557D02*
X154616171Y-108466033D01*
X154616171Y-108466033D02*
X154578076Y-108618414D01*
X154578076Y-108618414D02*
X154539981Y-108694604D01*
X154539981Y-108694604D02*
X154501886Y-108732700D01*
X154501886Y-108732700D02*
X154425695Y-108770795D01*
X154425695Y-108770795D02*
X154349505Y-108770795D01*
X154349505Y-108770795D02*
X154273314Y-108732700D01*
X154273314Y-108732700D02*
X154235219Y-108694604D01*
X154235219Y-108694604D02*
X154197124Y-108618414D01*
X154197124Y-108618414D02*
X154159028Y-108466033D01*
X154159028Y-108466033D02*
X154159028Y-108275557D01*
X154159028Y-108275557D02*
X154197124Y-108123176D01*
X154197124Y-108123176D02*
X154235219Y-108046985D01*
X154235219Y-108046985D02*
X154273314Y-108008890D01*
X154273314Y-108008890D02*
X154349505Y-107970795D01*
X155301886Y-108237461D02*
X155301886Y-108770795D01*
X154959029Y-108237461D02*
X154959029Y-108656509D01*
X154959029Y-108656509D02*
X154997124Y-108732700D01*
X154997124Y-108732700D02*
X155073314Y-108770795D01*
X155073314Y-108770795D02*
X155187600Y-108770795D01*
X155187600Y-108770795D02*
X155263791Y-108732700D01*
X155263791Y-108732700D02*
X155301886Y-108694604D01*
X155682839Y-108770795D02*
X155682839Y-107970795D01*
X155682839Y-108351747D02*
X156139982Y-108351747D01*
X156139982Y-108770795D02*
X156139982Y-107970795D01*
D13*
%TO.C,J2*%
X169514000Y-110942400D02*
X170254000Y-110942400D01*
X170254000Y-110942400D02*
X170254000Y-110442400D01*
X160093000Y-110702400D02*
X170014000Y-110702400D01*
X160093000Y-110702400D02*
X160093000Y-100422400D01*
X163053000Y-110702400D02*
X163053000Y-100422400D01*
X167954000Y-110702400D02*
X167954000Y-100422400D01*
X169454000Y-110702400D02*
X169454000Y-100422400D01*
X170014000Y-110702400D02*
X170014000Y-100422400D01*
X166377000Y-104249400D02*
X166423000Y-104296400D01*
X166593000Y-104056400D02*
X166628000Y-104091400D01*
X164079000Y-101952400D02*
X164115000Y-101987400D01*
X164285000Y-101747400D02*
X164331000Y-101794400D01*
X160093000Y-100422400D02*
X170014000Y-100422400D01*
X164670001Y-109637399D02*
G75*
G03*
X166037042Y-109637826I684000J1534992D01*
G01*
X163819001Y-107418401D02*
G75*
G03*
X163818574Y-108785442I1534992J-684000D01*
G01*
X166888999Y-108786400D02*
G75*
G03*
X167034252Y-108073595I-1535000J683999D01*
G01*
X167033999Y-108102400D02*
G75*
G03*
X166888755Y-107419082I-1679999J0D01*
G01*
X166038000Y-106567400D02*
G75*
G03*
X164670958Y-106566974I-684000J-1535000D01*
G01*
X167034000Y-103022400D02*
G75*
G03*
X167034000Y-103022400I-1680000J0D01*
G01*
%TO.C,U1*%
X146477800Y-103625100D02*
X144677800Y-103625100D01*
X146477800Y-103625100D02*
X147277800Y-103625100D01*
X146477800Y-106745100D02*
X145677800Y-106745100D01*
X146477800Y-106745100D02*
X147277800Y-106745100D01*
%TO.C,C1*%
X139892500Y-105459652D02*
X139892500Y-104937148D01*
X141362500Y-105459652D02*
X141362500Y-104937148D01*
%TO.C,J1*%
X127780700Y-100754300D02*
X127040700Y-100754300D01*
X127040700Y-100754300D02*
X127040700Y-101254300D01*
X137201700Y-100994300D02*
X127280700Y-100994300D01*
X137201700Y-100994300D02*
X137201700Y-111274300D01*
X134241700Y-100994300D02*
X134241700Y-111274300D01*
X129340700Y-100994300D02*
X129340700Y-111274300D01*
X127840700Y-100994300D02*
X127840700Y-111274300D01*
X127280700Y-100994300D02*
X127280700Y-111274300D01*
X130917700Y-107447300D02*
X130871700Y-107400300D01*
X130701700Y-107640300D02*
X130666700Y-107605300D01*
X133215700Y-109744300D02*
X133179700Y-109709300D01*
X133009700Y-109949300D02*
X132963700Y-109902300D01*
X137201700Y-111274300D02*
X127280700Y-111274300D01*
X132624699Y-102059301D02*
G75*
G03*
X131257658Y-102058874I-684000J-1534992D01*
G01*
X133475699Y-104278299D02*
G75*
G03*
X133476126Y-102911258I-1534992J684000D01*
G01*
X130405701Y-102910300D02*
G75*
G03*
X130260448Y-103623105I1535000J-683999D01*
G01*
X130260701Y-103594300D02*
G75*
G03*
X130405945Y-104277618I1679999J0D01*
G01*
X131256700Y-105129300D02*
G75*
G03*
X132623742Y-105129726I684000J1535000D01*
G01*
X133620700Y-108674300D02*
G75*
G03*
X133620700Y-108674300I-1680000J0D01*
G01*
%TO.C,C2*%
X156976400Y-105804152D02*
X156976400Y-104381648D01*
X158796400Y-105804152D02*
X158796400Y-104381648D01*
%TO.C,L1*%
X155579100Y-107596700D02*
X151279100Y-107596700D01*
X151279100Y-107596700D02*
X151279100Y-102796700D01*
X151279100Y-102796700D02*
X155579100Y-102796700D01*
X155579100Y-102796700D02*
X155579100Y-107596700D01*
%TD*%
M02*
