%TF.GenerationSoftware,KiCad,Pcbnew,7.0.8*%
%TF.CreationDate,2024-02-18T15:21:02+05:30*%
%TF.ProjectId,Buck_Converter,4275636b-5f43-46f6-9e76-65727465722e,rev?*%
%TF.SameCoordinates,Original*%
%TF.FileFunction,Legend,Bot*%
%TF.FilePolarity,Positive*%
%FSLAX46Y46*%
G04 Gerber Fmt 4.6, Leading zero omitted, Abs format (unit mm)*
G04 Created by KiCad (PCBNEW 7.0.8) date 2024-02-18 15:21:02*
%MOMM*%
%LPD*%
G01*
G04 APERTURE LIST*
G04 Aperture macros list*
%AMRoundRect*
0 Rectangle with rounded corners*
0 $1 Rounding radius*
0 $2 $3 $4 $5 $6 $7 $8 $9 X,Y pos of 4 corners*
0 Add a 4 corners polygon primitive as box body*
4,1,4,$2,$3,$4,$5,$6,$7,$8,$9,$2,$3,0*
0 Add four circle primitives for the rounded corners*
1,1,$1+$1,$2,$3*
1,1,$1+$1,$4,$5*
1,1,$1+$1,$6,$7*
1,1,$1+$1,$8,$9*
0 Add four rect primitives between the rounded corners*
20,1,$1+$1,$2,$3,$4,$5,0*
20,1,$1+$1,$4,$5,$6,$7,0*
20,1,$1+$1,$6,$7,$8,$9,0*
20,1,$1+$1,$8,$9,$2,$3,0*%
G04 Aperture macros list end*
%ADD10C,0.150000*%
%TA.AperFunction,ComponentPad*%
%ADD11C,2.600000*%
%TD*%
%TA.AperFunction,ComponentPad*%
%ADD12R,2.600000X2.600000*%
%TD*%
%TA.AperFunction,ComponentPad*%
%ADD13C,3.800000*%
%TD*%
%TA.AperFunction,SMDPad,CuDef*%
%ADD14RoundRect,0.150000X-0.512500X-0.150000X0.512500X-0.150000X0.512500X0.150000X-0.512500X0.150000X0*%
%TD*%
%TA.AperFunction,SMDPad,CuDef*%
%ADD15RoundRect,0.250000X0.475000X-0.337500X0.475000X0.337500X-0.475000X0.337500X-0.475000X-0.337500X0*%
%TD*%
%TA.AperFunction,SMDPad,CuDef*%
%ADD16RoundRect,0.250000X0.650000X-0.412500X0.650000X0.412500X-0.650000X0.412500X-0.650000X-0.412500X0*%
%TD*%
%TA.AperFunction,SMDPad,CuDef*%
%ADD17RoundRect,0.400000X1.550000X0.400000X-1.550000X0.400000X-1.550000X-0.400000X1.550000X-0.400000X0*%
%TD*%
%TA.AperFunction,Conductor*%
%ADD18C,0.500000*%
%TD*%
%TA.AperFunction,Conductor*%
%ADD19C,1.000000*%
%TD*%
%TA.AperFunction,Conductor*%
%ADD20C,0.250000*%
%TD*%
%ADD21RoundRect,0.150000X-0.512500X-0.150000X0.512500X-0.150000X0.512500X0.150000X-0.512500X0.150000X0*%
%ADD22RoundRect,0.250000X0.475000X-0.337500X0.475000X0.337500X-0.475000X0.337500X-0.475000X-0.337500X0*%
%ADD23RoundRect,0.250000X0.650000X-0.412500X0.650000X0.412500X-0.650000X0.412500X-0.650000X-0.412500X0*%
%ADD24RoundRect,0.400000X1.550000X0.400000X-1.550000X0.400000X-1.550000X-0.400000X1.550000X-0.400000X0*%
%ADD25C,0.375000*%
%ADD26C,0.125000*%
%ADD27C,0.120000*%
%ADD28C,2.600000*%
%ADD29R,2.600000X2.600000*%
%ADD30C,3.800000*%
%TA.AperFunction,Profile*%
%ADD31C,0.100000*%
%TD*%
G04 APERTURE END LIST*
D10*
X150701163Y-110969419D02*
X150796401Y-110921800D01*
X150796401Y-110921800D02*
X150844020Y-110826561D01*
X150844020Y-110826561D02*
X150844020Y-109969419D01*
X150320210Y-110969419D02*
X150320210Y-110302752D01*
X150320210Y-109969419D02*
X150367829Y-110017038D01*
X150367829Y-110017038D02*
X150320210Y-110064657D01*
X150320210Y-110064657D02*
X150272591Y-110017038D01*
X150272591Y-110017038D02*
X150320210Y-109969419D01*
X150320210Y-109969419D02*
X150320210Y-110064657D01*
X149844020Y-110302752D02*
X149844020Y-111302752D01*
X149844020Y-110350371D02*
X149748782Y-110302752D01*
X149748782Y-110302752D02*
X149558306Y-110302752D01*
X149558306Y-110302752D02*
X149463068Y-110350371D01*
X149463068Y-110350371D02*
X149415449Y-110397990D01*
X149415449Y-110397990D02*
X149367830Y-110493228D01*
X149367830Y-110493228D02*
X149367830Y-110778942D01*
X149367830Y-110778942D02*
X149415449Y-110874180D01*
X149415449Y-110874180D02*
X149463068Y-110921800D01*
X149463068Y-110921800D02*
X149558306Y-110969419D01*
X149558306Y-110969419D02*
X149748782Y-110969419D01*
X149748782Y-110969419D02*
X149844020Y-110921800D01*
X148986877Y-110921800D02*
X148891639Y-110969419D01*
X148891639Y-110969419D02*
X148701163Y-110969419D01*
X148701163Y-110969419D02*
X148605925Y-110921800D01*
X148605925Y-110921800D02*
X148558306Y-110826561D01*
X148558306Y-110826561D02*
X148558306Y-110778942D01*
X148558306Y-110778942D02*
X148605925Y-110683704D01*
X148605925Y-110683704D02*
X148701163Y-110636085D01*
X148701163Y-110636085D02*
X148844020Y-110636085D01*
X148844020Y-110636085D02*
X148939258Y-110588466D01*
X148939258Y-110588466D02*
X148986877Y-110493228D01*
X148986877Y-110493228D02*
X148986877Y-110445609D01*
X148986877Y-110445609D02*
X148939258Y-110350371D01*
X148939258Y-110350371D02*
X148844020Y-110302752D01*
X148844020Y-110302752D02*
X148701163Y-110302752D01*
X148701163Y-110302752D02*
X148605925Y-110350371D01*
X147986877Y-110969419D02*
X148082115Y-110921800D01*
X148082115Y-110921800D02*
X148129734Y-110874180D01*
X148129734Y-110874180D02*
X148177353Y-110778942D01*
X148177353Y-110778942D02*
X148177353Y-110493228D01*
X148177353Y-110493228D02*
X148129734Y-110397990D01*
X148129734Y-110397990D02*
X148082115Y-110350371D01*
X148082115Y-110350371D02*
X147986877Y-110302752D01*
X147986877Y-110302752D02*
X147844020Y-110302752D01*
X147844020Y-110302752D02*
X147748782Y-110350371D01*
X147748782Y-110350371D02*
X147701163Y-110397990D01*
X147701163Y-110397990D02*
X147653544Y-110493228D01*
X147653544Y-110493228D02*
X147653544Y-110778942D01*
X147653544Y-110778942D02*
X147701163Y-110874180D01*
X147701163Y-110874180D02*
X147748782Y-110921800D01*
X147748782Y-110921800D02*
X147844020Y-110969419D01*
X147844020Y-110969419D02*
X147986877Y-110969419D01*
X147224972Y-110302752D02*
X147224972Y-110969419D01*
X147224972Y-110397990D02*
X147177353Y-110350371D01*
X147177353Y-110350371D02*
X147082115Y-110302752D01*
X147082115Y-110302752D02*
X146939258Y-110302752D01*
X146939258Y-110302752D02*
X146844020Y-110350371D01*
X146844020Y-110350371D02*
X146796401Y-110445609D01*
X146796401Y-110445609D02*
X146796401Y-110969419D01*
X146272591Y-109969419D02*
X146367829Y-110159895D01*
X145891639Y-110921800D02*
X145796401Y-110969419D01*
X145796401Y-110969419D02*
X145605925Y-110969419D01*
X145605925Y-110969419D02*
X145510687Y-110921800D01*
X145510687Y-110921800D02*
X145463068Y-110826561D01*
X145463068Y-110826561D02*
X145463068Y-110778942D01*
X145463068Y-110778942D02*
X145510687Y-110683704D01*
X145510687Y-110683704D02*
X145605925Y-110636085D01*
X145605925Y-110636085D02*
X145748782Y-110636085D01*
X145748782Y-110636085D02*
X145844020Y-110588466D01*
X145844020Y-110588466D02*
X145891639Y-110493228D01*
X145891639Y-110493228D02*
X145891639Y-110445609D01*
X145891639Y-110445609D02*
X145844020Y-110350371D01*
X145844020Y-110350371D02*
X145748782Y-110302752D01*
X145748782Y-110302752D02*
X145605925Y-110302752D01*
X145605925Y-110302752D02*
X145510687Y-110350371D01*
X143796401Y-110969419D02*
X144272591Y-110969419D01*
X144272591Y-110969419D02*
X144272591Y-109969419D01*
X143034496Y-110969419D02*
X143034496Y-110445609D01*
X143034496Y-110445609D02*
X143082115Y-110350371D01*
X143082115Y-110350371D02*
X143177353Y-110302752D01*
X143177353Y-110302752D02*
X143367829Y-110302752D01*
X143367829Y-110302752D02*
X143463067Y-110350371D01*
X143034496Y-110921800D02*
X143129734Y-110969419D01*
X143129734Y-110969419D02*
X143367829Y-110969419D01*
X143367829Y-110969419D02*
X143463067Y-110921800D01*
X143463067Y-110921800D02*
X143510686Y-110826561D01*
X143510686Y-110826561D02*
X143510686Y-110731323D01*
X143510686Y-110731323D02*
X143463067Y-110636085D01*
X143463067Y-110636085D02*
X143367829Y-110588466D01*
X143367829Y-110588466D02*
X143129734Y-110588466D01*
X143129734Y-110588466D02*
X143034496Y-110540847D01*
X142558305Y-110969419D02*
X142558305Y-109969419D01*
X142558305Y-110350371D02*
X142463067Y-110302752D01*
X142463067Y-110302752D02*
X142272591Y-110302752D01*
X142272591Y-110302752D02*
X142177353Y-110350371D01*
X142177353Y-110350371D02*
X142129734Y-110397990D01*
X142129734Y-110397990D02*
X142082115Y-110493228D01*
X142082115Y-110493228D02*
X142082115Y-110778942D01*
X142082115Y-110778942D02*
X142129734Y-110874180D01*
X142129734Y-110874180D02*
X142177353Y-110921800D01*
X142177353Y-110921800D02*
X142272591Y-110969419D01*
X142272591Y-110969419D02*
X142463067Y-110969419D01*
X142463067Y-110969419D02*
X142558305Y-110921800D01*
D11*
%TO.P,J2,2,Pin_2*%
%TO.N,GND*%
X165354000Y-103022400D03*
D12*
%TO.P,J2,1,Pin_1*%
%TO.N,/SW*%
X165354000Y-108102400D03*
%TD*%
D13*
%TO.P,H3,1,1*%
%TO.N,GND*%
X170738800Y-97282000D03*
%TD*%
D14*
%TO.P,U1,5,SW*%
%TO.N,/SW*%
X147615300Y-104235100D03*
%TO.P,U1,4,FB*%
X147615300Y-106135100D03*
%TO.P,U1,3,EN*%
%TO.N,/Vin*%
X145340300Y-106135100D03*
%TO.P,U1,2,GND*%
%TO.N,GND*%
X145340300Y-105185100D03*
%TO.P,U1,1,Vin*%
%TO.N,/Vin*%
X145340300Y-104235100D03*
%TD*%
D13*
%TO.P,H1,1,1*%
%TO.N,GND*%
X127050800Y-97790000D03*
%TD*%
%TO.P,H4,1,1*%
%TO.N,GND*%
X170840400Y-113792000D03*
%TD*%
D15*
%TO.P,C1,2*%
%TO.N,GND*%
X140627500Y-104160900D03*
%TO.P,C1,1*%
%TO.N,/Vin*%
X140627500Y-106235900D03*
%TD*%
D11*
%TO.P,J1,2,Pin_2*%
%TO.N,/Vin*%
X131940700Y-108674300D03*
D12*
%TO.P,J1,1,Pin_1*%
%TO.N,GND*%
X131940700Y-103594300D03*
%TD*%
D13*
%TO.P,H2,1,1*%
%TO.N,GND*%
X127050800Y-114096800D03*
%TD*%
D16*
%TO.P,C2,2*%
%TO.N,GND*%
X157886400Y-103530400D03*
%TO.P,C2,1*%
%TO.N,/SW*%
X157886400Y-106655400D03*
%TD*%
D17*
%TO.P,L1,2,2*%
%TO.N,/SW*%
X153429100Y-106646700D03*
%TO.P,L1,1,1*%
X153429100Y-103746700D03*
%TD*%
D18*
%TO.N,/SW*%
X150253300Y-103746700D02*
X153429100Y-103746700D01*
X149764900Y-104235100D02*
X150253300Y-103746700D01*
X147615300Y-104235100D02*
X149764900Y-104235100D01*
%TO.N,/Vin*%
X146002800Y-104235100D02*
X146502800Y-104735100D01*
X145340300Y-106135100D02*
X140728300Y-106135100D01*
X140728300Y-106135100D02*
X140627500Y-106235900D01*
X145340300Y-104235100D02*
X146002800Y-104235100D01*
D19*
X138189100Y-108674300D02*
X140627500Y-106235900D01*
X131940700Y-108674300D02*
X138189100Y-108674300D01*
D18*
X146002800Y-106135100D02*
X145340300Y-106135100D01*
X146502800Y-104735100D02*
X146502800Y-105635100D01*
X146502800Y-105635100D02*
X146002800Y-106135100D01*
%TO.N,GND*%
X144018000Y-105156000D02*
X143022900Y-104160900D01*
D19*
X140060900Y-103594300D02*
X140627500Y-104160900D01*
X131940700Y-103594300D02*
X140060900Y-103594300D01*
D20*
X145340300Y-105185100D02*
X144047100Y-105185100D01*
D18*
X143022900Y-104160900D02*
X140627500Y-104160900D01*
%TO.N,/SW*%
X153429100Y-106646700D02*
X157877700Y-106646700D01*
X147615300Y-106135100D02*
X149315100Y-106135100D01*
X149826700Y-106646700D02*
X153429100Y-106646700D01*
X157877700Y-106646700D02*
X157886400Y-106655400D01*
D19*
X163907000Y-106655400D02*
X165354000Y-108102400D01*
D18*
X149315100Y-106135100D02*
X149826700Y-106646700D01*
D19*
X157886400Y-106655400D02*
X163907000Y-106655400D01*
%TO.N,GND*%
X157886400Y-103530400D02*
X164846000Y-103530400D01*
X164846000Y-103530400D02*
X165354000Y-103022400D01*
%TD*%
D11*
%TO.P,J2,2,Pin_2*%
%TO.N,GND*%
X165354000Y-103022400D03*
D12*
%TO.P,J2,1,Pin_1*%
%TO.N,/SW*%
X165354000Y-108102400D03*
%TD*%
D13*
%TO.P,H3,1,1*%
%TO.N,GND*%
X170738800Y-97282000D03*
%TD*%
%TO.P,H1,1,1*%
%TO.N,GND*%
X127050800Y-97790000D03*
%TD*%
%TO.P,H4,1,1*%
%TO.N,GND*%
X170840400Y-113792000D03*
%TD*%
D11*
%TO.P,J1,2,Pin_2*%
%TO.N,/Vin*%
X131940700Y-108674300D03*
D12*
%TO.P,J1,1,Pin_1*%
%TO.N,GND*%
X131940700Y-103594300D03*
%TD*%
D13*
%TO.P,H2,1,1*%
%TO.N,GND*%
X127050800Y-114096800D03*
%TD*%
%TA.AperFunction,Conductor*%
%TO.N,GND*%
G36*
X125750446Y-94691981D02*
G01*
X125750969Y-94689341D01*
X125762888Y-94691700D01*
X125762890Y-94691700D01*
X170195222Y-94691700D01*
X170262261Y-94711385D01*
X170308016Y-94764189D01*
X170317960Y-94833347D01*
X170288935Y-94896903D01*
X170230157Y-94934677D01*
X170226059Y-94935804D01*
X169995692Y-94994951D01*
X169995689Y-94994952D01*
X169714917Y-95106117D01*
X169714909Y-95106121D01*
X169450279Y-95251602D01*
X169450261Y-95251614D01*
X169225365Y-95415010D01*
X169225364Y-95415012D01*
X170155493Y-96345140D01*
X170141390Y-96352411D01*
X169976260Y-96482271D01*
X169838690Y-96641035D01*
X169804134Y-96700886D01*
X168874112Y-95770864D01*
X168793316Y-95868530D01*
X168631507Y-96123502D01*
X168631504Y-96123508D01*
X168502927Y-96396747D01*
X168502925Y-96396752D01*
X168409605Y-96683959D01*
X168353016Y-96980609D01*
X168353015Y-96980616D01*
X168334055Y-97281994D01*
X168334055Y-97282005D01*
X168353015Y-97583383D01*
X168353016Y-97583390D01*
X168409605Y-97880040D01*
X168502925Y-98167247D01*
X168502927Y-98167252D01*
X168631504Y-98440491D01*
X168631507Y-98440497D01*
X168793313Y-98695464D01*
X168874112Y-98793133D01*
X169803011Y-97864235D01*
X169903694Y-98005624D01*
X170055732Y-98150592D01*
X170158022Y-98216329D01*
X169225364Y-99148986D01*
X169450274Y-99312393D01*
X169450285Y-99312400D01*
X169714909Y-99457878D01*
X169714917Y-99457882D01*
X169995689Y-99569047D01*
X169995692Y-99569048D01*
X170288199Y-99644150D01*
X170587795Y-99681999D01*
X170587807Y-99682000D01*
X170889793Y-99682000D01*
X170889804Y-99681999D01*
X171189400Y-99644150D01*
X171481907Y-99569048D01*
X171481910Y-99569047D01*
X171762682Y-99457882D01*
X171762690Y-99457878D01*
X172027314Y-99312400D01*
X172027325Y-99312393D01*
X172252233Y-99148986D01*
X172252234Y-99148986D01*
X171322106Y-98218859D01*
X171336210Y-98211589D01*
X171501340Y-98081729D01*
X171638910Y-97922965D01*
X171673465Y-97863112D01*
X172603486Y-98793133D01*
X172684283Y-98695469D01*
X172846092Y-98440497D01*
X172846095Y-98440491D01*
X172974672Y-98167252D01*
X172974674Y-98167247D01*
X173067994Y-97880040D01*
X173124583Y-97583390D01*
X173124584Y-97583383D01*
X173143545Y-97282005D01*
X173143545Y-97281994D01*
X173124584Y-96980616D01*
X173124583Y-96980609D01*
X173067994Y-96683959D01*
X172974674Y-96396752D01*
X172974672Y-96396747D01*
X172846095Y-96123508D01*
X172846092Y-96123502D01*
X172684286Y-95868535D01*
X172603485Y-95770864D01*
X171674587Y-96699762D01*
X171573906Y-96558376D01*
X171421868Y-96413408D01*
X171319577Y-96347669D01*
X172252234Y-95415012D01*
X172027330Y-95251609D01*
X172027320Y-95251602D01*
X171762690Y-95106121D01*
X171762682Y-95106117D01*
X171481910Y-94994952D01*
X171481907Y-94994951D01*
X171251541Y-94935804D01*
X171191503Y-94900066D01*
X171160317Y-94837542D01*
X171167885Y-94768084D01*
X171211803Y-94713743D01*
X171278129Y-94691773D01*
X171282378Y-94691700D01*
X172209560Y-94691700D01*
X172214425Y-94691891D01*
X172268898Y-94696178D01*
X172275808Y-94696782D01*
X172417988Y-94709221D01*
X172436099Y-94712170D01*
X172519085Y-94732093D01*
X172635302Y-94763234D01*
X172642979Y-94765840D01*
X172692212Y-94786233D01*
X172732569Y-94802950D01*
X172836240Y-94851293D01*
X172842437Y-94854622D01*
X172926032Y-94905849D01*
X172929200Y-94907926D01*
X173019922Y-94971450D01*
X173024629Y-94975094D01*
X173099883Y-95039367D01*
X173103459Y-95042673D01*
X173181325Y-95120539D01*
X173184631Y-95124115D01*
X173248904Y-95199369D01*
X173252548Y-95204076D01*
X173316072Y-95294798D01*
X173318149Y-95297966D01*
X173369376Y-95381561D01*
X173372705Y-95387758D01*
X173421049Y-95491430D01*
X173458155Y-95581011D01*
X173460765Y-95588699D01*
X173491906Y-95704916D01*
X173511825Y-95787885D01*
X173514779Y-95806025D01*
X173527821Y-95955101D01*
X173532109Y-96009575D01*
X173532300Y-96014442D01*
X173532300Y-115050434D01*
X173532109Y-115055299D01*
X173527959Y-115108033D01*
X173514904Y-115256822D01*
X173511953Y-115274930D01*
X173492872Y-115354412D01*
X173461417Y-115471813D01*
X173458808Y-115479500D01*
X173422798Y-115566443D01*
X173374252Y-115670556D01*
X173370922Y-115676754D01*
X173321052Y-115758138D01*
X173318976Y-115761306D01*
X173255312Y-115852231D01*
X173251668Y-115856937D01*
X173189015Y-115930298D01*
X173185709Y-115933875D01*
X173107717Y-116011870D01*
X173104141Y-116015175D01*
X173030788Y-116077829D01*
X173026081Y-116081474D01*
X172935156Y-116145143D01*
X172931989Y-116147219D01*
X172850617Y-116197087D01*
X172844420Y-116200417D01*
X172740298Y-116248975D01*
X172653359Y-116284988D01*
X172645672Y-116287597D01*
X172528272Y-116319058D01*
X172448833Y-116338131D01*
X172430696Y-116341086D01*
X172276508Y-116354581D01*
X172267967Y-116355253D01*
X172229948Y-116358246D01*
X172225099Y-116358437D01*
X171476919Y-116358437D01*
X171409880Y-116338752D01*
X171364125Y-116285948D01*
X171354181Y-116216790D01*
X171383206Y-116153234D01*
X171441984Y-116115460D01*
X171446081Y-116114333D01*
X171583511Y-116079046D01*
X171864282Y-115967882D01*
X171864290Y-115967878D01*
X172128914Y-115822400D01*
X172128925Y-115822393D01*
X172353833Y-115658986D01*
X172353834Y-115658986D01*
X171423706Y-114728859D01*
X171437810Y-114721589D01*
X171602940Y-114591729D01*
X171740510Y-114432965D01*
X171775065Y-114373112D01*
X172705086Y-115303133D01*
X172785883Y-115205469D01*
X172947692Y-114950497D01*
X172947695Y-114950491D01*
X173076272Y-114677252D01*
X173076274Y-114677247D01*
X173169594Y-114390040D01*
X173226183Y-114093390D01*
X173226184Y-114093383D01*
X173245145Y-113792005D01*
X173245145Y-113791994D01*
X173226184Y-113490616D01*
X173226183Y-113490609D01*
X173169594Y-113193959D01*
X173076274Y-112906752D01*
X173076272Y-112906747D01*
X172947695Y-112633508D01*
X172947692Y-112633502D01*
X172785886Y-112378535D01*
X172705085Y-112280864D01*
X171776187Y-113209763D01*
X171675506Y-113068376D01*
X171523468Y-112923408D01*
X171421177Y-112857669D01*
X172353834Y-111925012D01*
X172128930Y-111761609D01*
X172128920Y-111761602D01*
X171864290Y-111616121D01*
X171864282Y-111616117D01*
X171583510Y-111504952D01*
X171583507Y-111504951D01*
X171291000Y-111429849D01*
X170991404Y-111392000D01*
X170689395Y-111392000D01*
X170389799Y-111429849D01*
X170097292Y-111504951D01*
X170097289Y-111504952D01*
X169816517Y-111616117D01*
X169816509Y-111616121D01*
X169551879Y-111761602D01*
X169551861Y-111761614D01*
X169326965Y-111925010D01*
X169326964Y-111925012D01*
X170257093Y-112855140D01*
X170242990Y-112862411D01*
X170077860Y-112992271D01*
X169940290Y-113151035D01*
X169905734Y-113210886D01*
X168975712Y-112280864D01*
X168894916Y-112378530D01*
X168733107Y-112633502D01*
X168733104Y-112633508D01*
X168604527Y-112906747D01*
X168604525Y-112906752D01*
X168511205Y-113193959D01*
X168454616Y-113490609D01*
X168454615Y-113490616D01*
X168435655Y-113791994D01*
X168435655Y-113792005D01*
X168454615Y-114093383D01*
X168454616Y-114093390D01*
X168511205Y-114390040D01*
X168604525Y-114677247D01*
X168604527Y-114677252D01*
X168733104Y-114950491D01*
X168733107Y-114950497D01*
X168894913Y-115205464D01*
X168975712Y-115303133D01*
X169904611Y-114374235D01*
X170005294Y-114515624D01*
X170157332Y-114660592D01*
X170259622Y-114726329D01*
X169326964Y-115658986D01*
X169551874Y-115822393D01*
X169551885Y-115822400D01*
X169816509Y-115967878D01*
X169816517Y-115967882D01*
X170097288Y-116079046D01*
X170234719Y-116114333D01*
X170294756Y-116150071D01*
X170325942Y-116212595D01*
X170318374Y-116282053D01*
X170274455Y-116336394D01*
X170208130Y-116358364D01*
X170203881Y-116358437D01*
X128401644Y-116358437D01*
X128334605Y-116338752D01*
X128288850Y-116285948D01*
X128278906Y-116216790D01*
X128307931Y-116153234D01*
X128336550Y-116130104D01*
X128336030Y-116129285D01*
X128339325Y-116127193D01*
X128564233Y-115963786D01*
X128564234Y-115963786D01*
X127634106Y-115033659D01*
X127648210Y-115026389D01*
X127813340Y-114896529D01*
X127950910Y-114737765D01*
X127985465Y-114677912D01*
X128915486Y-115607933D01*
X128996283Y-115510269D01*
X129158092Y-115255297D01*
X129158095Y-115255291D01*
X129286672Y-114982052D01*
X129286674Y-114982047D01*
X129379994Y-114694840D01*
X129436583Y-114398190D01*
X129436584Y-114398183D01*
X129455545Y-114096805D01*
X129455545Y-114096794D01*
X129436584Y-113795416D01*
X129436583Y-113795409D01*
X129379994Y-113498759D01*
X129286674Y-113211552D01*
X129286672Y-113211547D01*
X129158095Y-112938308D01*
X129158092Y-112938302D01*
X128996286Y-112683335D01*
X128915485Y-112585664D01*
X127986587Y-113514563D01*
X127885906Y-113373176D01*
X127733868Y-113228208D01*
X127631577Y-113162469D01*
X128564234Y-112229812D01*
X128339330Y-112066409D01*
X128339320Y-112066402D01*
X128074690Y-111920921D01*
X128074682Y-111920917D01*
X127793910Y-111809752D01*
X127793907Y-111809751D01*
X127501400Y-111734649D01*
X127201804Y-111696800D01*
X126899795Y-111696800D01*
X126600199Y-111734649D01*
X126307692Y-111809751D01*
X126307689Y-111809752D01*
X126026917Y-111920917D01*
X126026909Y-111920921D01*
X125762279Y-112066402D01*
X125762261Y-112066414D01*
X125537365Y-112229810D01*
X125537364Y-112229812D01*
X126467493Y-113159940D01*
X126453390Y-113167211D01*
X126288260Y-113297071D01*
X126150690Y-113455835D01*
X126116134Y-113515686D01*
X125186112Y-112585664D01*
X125105316Y-112683330D01*
X124943507Y-112938302D01*
X124943504Y-112938308D01*
X124814927Y-113211547D01*
X124777094Y-113327985D01*
X124737656Y-113385660D01*
X124673298Y-113412858D01*
X124604451Y-113400943D01*
X124552976Y-113353699D01*
X124535163Y-113289666D01*
X124535163Y-108674300D01*
X130335251Y-108674300D01*
X130355017Y-108925451D01*
X130413826Y-109170410D01*
X130510233Y-109403159D01*
X130641860Y-109617953D01*
X130641861Y-109617956D01*
X130697304Y-109682871D01*
X130805476Y-109809524D01*
X130953766Y-109936175D01*
X130997043Y-109973138D01*
X130997046Y-109973139D01*
X131211840Y-110104766D01*
X131444589Y-110201173D01*
X131689552Y-110259983D01*
X131940700Y-110279749D01*
X132191848Y-110259983D01*
X132436811Y-110201173D01*
X132669559Y-110104766D01*
X132884359Y-109973136D01*
X133075924Y-109809524D01*
X133239536Y-109617959D01*
X133344143Y-109447256D01*
X163753500Y-109447256D01*
X163753502Y-109447282D01*
X163756413Y-109472387D01*
X163756415Y-109472391D01*
X163801793Y-109575164D01*
X163801794Y-109575165D01*
X163881235Y-109654606D01*
X163984009Y-109699985D01*
X164009135Y-109702900D01*
X166698864Y-109702899D01*
X166698879Y-109702897D01*
X166698882Y-109702897D01*
X166723987Y-109699986D01*
X166723988Y-109699985D01*
X166723991Y-109699985D01*
X166826765Y-109654606D01*
X166906206Y-109575165D01*
X166951585Y-109472391D01*
X166954500Y-109447265D01*
X166954499Y-106757536D01*
X166954497Y-106757517D01*
X166951586Y-106732412D01*
X166951585Y-106732410D01*
X166951585Y-106732409D01*
X166906206Y-106629635D01*
X166826765Y-106550194D01*
X166826763Y-106550193D01*
X166723992Y-106504815D01*
X166698865Y-106501900D01*
X164009143Y-106501900D01*
X164009117Y-106501902D01*
X163984012Y-106504813D01*
X163984008Y-106504815D01*
X163881235Y-106550193D01*
X163801794Y-106629634D01*
X163756415Y-106732406D01*
X163756415Y-106732408D01*
X163753500Y-106757531D01*
X163753500Y-109447256D01*
X133344143Y-109447256D01*
X133371166Y-109403159D01*
X133467573Y-109170411D01*
X133526383Y-108925448D01*
X133546149Y-108674300D01*
X133526383Y-108423152D01*
X133467573Y-108178189D01*
X133371166Y-107945441D01*
X133371166Y-107945440D01*
X133239539Y-107730646D01*
X133239538Y-107730643D01*
X133202575Y-107687366D01*
X133075924Y-107539076D01*
X132949271Y-107430904D01*
X132884356Y-107375461D01*
X132884353Y-107375460D01*
X132669559Y-107243833D01*
X132436810Y-107147426D01*
X132191851Y-107088617D01*
X131940700Y-107068851D01*
X131689548Y-107088617D01*
X131444589Y-107147426D01*
X131211840Y-107243833D01*
X130997046Y-107375460D01*
X130997043Y-107375461D01*
X130805476Y-107539076D01*
X130641861Y-107730643D01*
X130641860Y-107730646D01*
X130510233Y-107945440D01*
X130413826Y-108178189D01*
X130355017Y-108423148D01*
X130335251Y-108674300D01*
X124535163Y-108674300D01*
X124535163Y-104942144D01*
X130140700Y-104942144D01*
X130147101Y-105001672D01*
X130147103Y-105001679D01*
X130197345Y-105136386D01*
X130197349Y-105136393D01*
X130283509Y-105251487D01*
X130283512Y-105251490D01*
X130398606Y-105337650D01*
X130398613Y-105337654D01*
X130533320Y-105387896D01*
X130533327Y-105387898D01*
X130592855Y-105394299D01*
X130592872Y-105394300D01*
X131690700Y-105394300D01*
X131690700Y-104198610D01*
X131699517Y-104203458D01*
X131858586Y-104244300D01*
X131981594Y-104244300D01*
X132103633Y-104228883D01*
X132190700Y-104194410D01*
X132190700Y-105394300D01*
X133288528Y-105394300D01*
X133288544Y-105394299D01*
X133348072Y-105387898D01*
X133348079Y-105387896D01*
X133482786Y-105337654D01*
X133482793Y-105337650D01*
X133597887Y-105251490D01*
X133597890Y-105251487D01*
X133684050Y-105136393D01*
X133684054Y-105136386D01*
X133734296Y-105001679D01*
X133734298Y-105001672D01*
X133740699Y-104942144D01*
X133740700Y-104942127D01*
X133740700Y-103844300D01*
X132541428Y-103844300D01*
X132563800Y-103796757D01*
X132594573Y-103635438D01*
X132584261Y-103471534D01*
X132542920Y-103344300D01*
X133740700Y-103344300D01*
X133740700Y-103022404D01*
X163548953Y-103022404D01*
X163569113Y-103291426D01*
X163569113Y-103291428D01*
X163629142Y-103554433D01*
X163629148Y-103554452D01*
X163727709Y-103805581D01*
X163727708Y-103805581D01*
X163862602Y-104039222D01*
X163916294Y-104106551D01*
X163916295Y-104106551D01*
X164751452Y-103271393D01*
X164761188Y-103301356D01*
X164849186Y-103440019D01*
X164968903Y-103552440D01*
X165103510Y-103626441D01*
X164268848Y-104461102D01*
X164451483Y-104585620D01*
X164451485Y-104585621D01*
X164694539Y-104702669D01*
X164694537Y-104702669D01*
X164952337Y-104782190D01*
X164952343Y-104782192D01*
X165219101Y-104822399D01*
X165219110Y-104822400D01*
X165488890Y-104822400D01*
X165488898Y-104822399D01*
X165755656Y-104782192D01*
X165755662Y-104782190D01*
X166013461Y-104702669D01*
X166256521Y-104585618D01*
X166439150Y-104461102D01*
X165601534Y-103623486D01*
X165669629Y-103596526D01*
X165802492Y-103499995D01*
X165907175Y-103373455D01*
X165955631Y-103270479D01*
X166791703Y-104106551D01*
X166791704Y-104106550D01*
X166845393Y-104039228D01*
X166845400Y-104039217D01*
X166980290Y-103805581D01*
X167078851Y-103554452D01*
X167078857Y-103554433D01*
X167138886Y-103291428D01*
X167138886Y-103291426D01*
X167159047Y-103022404D01*
X167159047Y-103022395D01*
X167138886Y-102753373D01*
X167138886Y-102753371D01*
X167078857Y-102490366D01*
X167078851Y-102490347D01*
X166980290Y-102239218D01*
X166980291Y-102239218D01*
X166845397Y-102005577D01*
X166791704Y-101938247D01*
X165956546Y-102773404D01*
X165946812Y-102743444D01*
X165858814Y-102604781D01*
X165739097Y-102492360D01*
X165604489Y-102418358D01*
X166439150Y-101583696D01*
X166256517Y-101459179D01*
X166256516Y-101459178D01*
X166013460Y-101342130D01*
X166013462Y-101342130D01*
X165755662Y-101262609D01*
X165755656Y-101262607D01*
X165488898Y-101222400D01*
X165219101Y-101222400D01*
X164952343Y-101262607D01*
X164952337Y-101262609D01*
X164694538Y-101342130D01*
X164451485Y-101459178D01*
X164451476Y-101459183D01*
X164268848Y-101583696D01*
X165106465Y-102421313D01*
X165038371Y-102448274D01*
X164905508Y-102544805D01*
X164800825Y-102671345D01*
X164752368Y-102774321D01*
X163916295Y-101938248D01*
X163862600Y-102005580D01*
X163727709Y-102239218D01*
X163629148Y-102490347D01*
X163629142Y-102490366D01*
X163569113Y-102753371D01*
X163569113Y-102753373D01*
X163548953Y-103022395D01*
X163548953Y-103022404D01*
X133740700Y-103022404D01*
X133740700Y-102246472D01*
X133740699Y-102246455D01*
X133734298Y-102186927D01*
X133734296Y-102186920D01*
X133684054Y-102052213D01*
X133684050Y-102052206D01*
X133597890Y-101937112D01*
X133597887Y-101937109D01*
X133482793Y-101850949D01*
X133482786Y-101850945D01*
X133348079Y-101800703D01*
X133348072Y-101800701D01*
X133288544Y-101794300D01*
X132190700Y-101794300D01*
X132190700Y-102989989D01*
X132181883Y-102985142D01*
X132022814Y-102944300D01*
X131899806Y-102944300D01*
X131777767Y-102959717D01*
X131690700Y-102994189D01*
X131690700Y-101794300D01*
X130592855Y-101794300D01*
X130533327Y-101800701D01*
X130533320Y-101800703D01*
X130398613Y-101850945D01*
X130398606Y-101850949D01*
X130283512Y-101937109D01*
X130283509Y-101937112D01*
X130197349Y-102052206D01*
X130197345Y-102052213D01*
X130147103Y-102186920D01*
X130147101Y-102186927D01*
X130140700Y-102246455D01*
X130140700Y-103344300D01*
X131339972Y-103344300D01*
X131317600Y-103391843D01*
X131286827Y-103553162D01*
X131297139Y-103717066D01*
X131338480Y-103844300D01*
X130140700Y-103844300D01*
X130140700Y-104942144D01*
X124535163Y-104942144D01*
X124535163Y-98597133D01*
X124554848Y-98530094D01*
X124607652Y-98484339D01*
X124676810Y-98474395D01*
X124740366Y-98503420D01*
X124777094Y-98558815D01*
X124814925Y-98675247D01*
X124814927Y-98675252D01*
X124943504Y-98948491D01*
X124943507Y-98948497D01*
X125105313Y-99203464D01*
X125186112Y-99301133D01*
X126115011Y-98372235D01*
X126215694Y-98513624D01*
X126367732Y-98658592D01*
X126470022Y-98724329D01*
X125537364Y-99656986D01*
X125762274Y-99820393D01*
X125762285Y-99820400D01*
X126026909Y-99965878D01*
X126026917Y-99965882D01*
X126307689Y-100077047D01*
X126307692Y-100077048D01*
X126600199Y-100152150D01*
X126899795Y-100189999D01*
X126899807Y-100190000D01*
X127201793Y-100190000D01*
X127201804Y-100189999D01*
X127501400Y-100152150D01*
X127793907Y-100077048D01*
X127793910Y-100077047D01*
X128074682Y-99965882D01*
X128074690Y-99965878D01*
X128339314Y-99820400D01*
X128339325Y-99820393D01*
X128564233Y-99656986D01*
X128564234Y-99656986D01*
X127634106Y-98726859D01*
X127648210Y-98719589D01*
X127813340Y-98589729D01*
X127950910Y-98430965D01*
X127985465Y-98371112D01*
X128915486Y-99301133D01*
X128996283Y-99203469D01*
X129158092Y-98948497D01*
X129158095Y-98948491D01*
X129286672Y-98675252D01*
X129286674Y-98675247D01*
X129379994Y-98388040D01*
X129436583Y-98091390D01*
X129436584Y-98091383D01*
X129455545Y-97790005D01*
X129455545Y-97789994D01*
X129436584Y-97488616D01*
X129436583Y-97488609D01*
X129379994Y-97191959D01*
X129286674Y-96904752D01*
X129286672Y-96904747D01*
X129158095Y-96631508D01*
X129158092Y-96631502D01*
X128996286Y-96376535D01*
X128915485Y-96278864D01*
X127986587Y-97207763D01*
X127885906Y-97066376D01*
X127733868Y-96921408D01*
X127631577Y-96855669D01*
X128564234Y-95923012D01*
X128339330Y-95759609D01*
X128339320Y-95759602D01*
X128074690Y-95614121D01*
X128074682Y-95614117D01*
X127793910Y-95502952D01*
X127793907Y-95502951D01*
X127501400Y-95427849D01*
X127201804Y-95390000D01*
X126899795Y-95390000D01*
X126600199Y-95427849D01*
X126307692Y-95502951D01*
X126307689Y-95502952D01*
X126026917Y-95614117D01*
X126026909Y-95614121D01*
X125762279Y-95759602D01*
X125762261Y-95759614D01*
X125537365Y-95923010D01*
X125537364Y-95923012D01*
X126467493Y-96853140D01*
X126453390Y-96860411D01*
X126288260Y-96990271D01*
X126150690Y-97149035D01*
X126116134Y-97208886D01*
X125186112Y-96278864D01*
X125105316Y-96376530D01*
X124943507Y-96631502D01*
X124943504Y-96631508D01*
X124814927Y-96904747D01*
X124777094Y-97021185D01*
X124737656Y-97078860D01*
X124673298Y-97106058D01*
X124604451Y-97094143D01*
X124552976Y-97046899D01*
X124535163Y-96982866D01*
X124535163Y-95912839D01*
X124535354Y-95907973D01*
X124539616Y-95853820D01*
X124551363Y-95719627D01*
X124554309Y-95701540D01*
X124572948Y-95623902D01*
X124601541Y-95517191D01*
X124604145Y-95509520D01*
X124638839Y-95425762D01*
X124683372Y-95330262D01*
X124686682Y-95324100D01*
X124734469Y-95246119D01*
X124736489Y-95243038D01*
X124795064Y-95159383D01*
X124798658Y-95154741D01*
X124858576Y-95084585D01*
X124861840Y-95081055D01*
X124933654Y-95009240D01*
X124937184Y-95005978D01*
X125007325Y-94946072D01*
X125011978Y-94942468D01*
X125095641Y-94883886D01*
X125098698Y-94881882D01*
X125176698Y-94834084D01*
X125182848Y-94830779D01*
X125278345Y-94786246D01*
X125362127Y-94751541D01*
X125369756Y-94748952D01*
X125476513Y-94720345D01*
X125554108Y-94701715D01*
X125572214Y-94698766D01*
X125707335Y-94686943D01*
X125714735Y-94686360D01*
X125750446Y-94691981D01*
G37*
%TD.AperFunction*%
%TA.AperFunction,Conductor*%
G36*
X126215694Y-114820424D02*
G01*
X126367732Y-114965392D01*
X126470022Y-115031129D01*
X125537364Y-115963786D01*
X125537365Y-115963787D01*
X125752438Y-116120047D01*
X125795104Y-116175377D01*
X125801083Y-116244990D01*
X125768477Y-116306785D01*
X125707639Y-116341142D01*
X125668750Y-116343894D01*
X125658604Y-116343006D01*
X125637183Y-116341133D01*
X125619047Y-116338179D01*
X125536855Y-116318448D01*
X125422236Y-116287736D01*
X125414549Y-116285127D01*
X125325842Y-116248385D01*
X125223523Y-116200675D01*
X125217329Y-116197347D01*
X125181477Y-116175377D01*
X125134602Y-116146652D01*
X125131434Y-116144575D01*
X125041871Y-116081863D01*
X125037165Y-116078218D01*
X125003538Y-116049498D01*
X124962717Y-116014633D01*
X124959149Y-116011335D01*
X124882263Y-115934449D01*
X124878968Y-115930885D01*
X124815377Y-115856430D01*
X124811735Y-115851727D01*
X124749023Y-115762164D01*
X124746946Y-115758996D01*
X124733876Y-115737668D01*
X124696245Y-115676258D01*
X124692923Y-115670074D01*
X124645214Y-115567757D01*
X124608471Y-115479049D01*
X124605865Y-115471373D01*
X124575147Y-115356726D01*
X124574591Y-115354412D01*
X124555419Y-115274549D01*
X124552466Y-115256411D01*
X124548010Y-115205469D01*
X124539637Y-115109740D01*
X124535354Y-115055302D01*
X124535163Y-115050437D01*
X124535163Y-114903933D01*
X124554848Y-114836894D01*
X124607652Y-114791139D01*
X124676810Y-114781195D01*
X124740366Y-114810220D01*
X124777094Y-114865615D01*
X124814925Y-114982047D01*
X124814927Y-114982052D01*
X124943504Y-115255291D01*
X124943507Y-115255297D01*
X125105313Y-115510264D01*
X125186112Y-115607933D01*
X126115011Y-114679035D01*
X126215694Y-114820424D01*
G37*
%TD.AperFunction*%
%TD*%
D21*
%TO.C,U1*%
X147615300Y-104235100D03*
X147615300Y-106135100D03*
X145340300Y-106135100D03*
X145340300Y-105185100D03*
X145340300Y-104235100D03*
%TD*%
D22*
%TO.C,C1*%
X140627500Y-104160900D03*
X140627500Y-106235900D03*
%TD*%
D23*
%TO.C,C2*%
X157886400Y-103530400D03*
X157886400Y-106655400D03*
%TD*%
D24*
%TO.C,L1*%
X153429100Y-106646700D03*
X153429100Y-103746700D03*
%TD*%
D25*
X131058252Y-99657100D02*
X132201110Y-99657100D01*
X131071352Y-112979800D02*
X132214210Y-112979800D01*
X131642781Y-113551228D02*
X131642781Y-112408371D01*
X163656852Y-99647900D02*
X164799710Y-99647900D01*
X163773452Y-112153900D02*
X164916310Y-112153900D01*
X164344881Y-112725328D02*
X164344881Y-111582471D01*
D10*
X160998819Y-109146933D02*
X161713104Y-109146933D01*
X161713104Y-109146933D02*
X161855961Y-109194552D01*
X161855961Y-109194552D02*
X161951200Y-109289790D01*
X161951200Y-109289790D02*
X161998819Y-109432647D01*
X161998819Y-109432647D02*
X161998819Y-109527885D01*
X161094057Y-108718361D02*
X161046438Y-108670742D01*
X161046438Y-108670742D02*
X160998819Y-108575504D01*
X160998819Y-108575504D02*
X160998819Y-108337409D01*
X160998819Y-108337409D02*
X161046438Y-108242171D01*
X161046438Y-108242171D02*
X161094057Y-108194552D01*
X161094057Y-108194552D02*
X161189295Y-108146933D01*
X161189295Y-108146933D02*
X161284533Y-108146933D01*
X161284533Y-108146933D02*
X161427390Y-108194552D01*
X161427390Y-108194552D02*
X161998819Y-108765980D01*
X161998819Y-108765980D02*
X161998819Y-108146933D01*
D26*
X144068876Y-102230395D02*
X144068876Y-102878014D01*
X144068876Y-102878014D02*
X144106971Y-102954204D01*
X144106971Y-102954204D02*
X144145066Y-102992300D01*
X144145066Y-102992300D02*
X144221257Y-103030395D01*
X144221257Y-103030395D02*
X144373638Y-103030395D01*
X144373638Y-103030395D02*
X144449828Y-102992300D01*
X144449828Y-102992300D02*
X144487923Y-102954204D01*
X144487923Y-102954204D02*
X144526019Y-102878014D01*
X144526019Y-102878014D02*
X144526019Y-102230395D01*
X145326018Y-103030395D02*
X144868875Y-103030395D01*
X145097447Y-103030395D02*
X145097447Y-102230395D01*
X145097447Y-102230395D02*
X145021256Y-102344680D01*
X145021256Y-102344680D02*
X144945066Y-102420871D01*
X144945066Y-102420871D02*
X144868875Y-102458966D01*
X143872266Y-107957995D02*
X143491314Y-107957995D01*
X143491314Y-107957995D02*
X143491314Y-107157995D01*
X144138933Y-107957995D02*
X144138933Y-107157995D01*
X144138933Y-107157995D02*
X144405599Y-107729423D01*
X144405599Y-107729423D02*
X144672266Y-107157995D01*
X144672266Y-107157995D02*
X144672266Y-107957995D01*
X144977028Y-107157995D02*
X145472266Y-107157995D01*
X145472266Y-107157995D02*
X145205600Y-107462757D01*
X145205600Y-107462757D02*
X145319885Y-107462757D01*
X145319885Y-107462757D02*
X145396076Y-107500852D01*
X145396076Y-107500852D02*
X145434171Y-107538947D01*
X145434171Y-107538947D02*
X145472266Y-107615138D01*
X145472266Y-107615138D02*
X145472266Y-107805614D01*
X145472266Y-107805614D02*
X145434171Y-107881804D01*
X145434171Y-107881804D02*
X145396076Y-107919900D01*
X145396076Y-107919900D02*
X145319885Y-107957995D01*
X145319885Y-107957995D02*
X145091314Y-107957995D01*
X145091314Y-107957995D02*
X145015123Y-107919900D01*
X145015123Y-107919900D02*
X144977028Y-107881804D01*
X146157981Y-107157995D02*
X146005600Y-107157995D01*
X146005600Y-107157995D02*
X145929409Y-107196090D01*
X145929409Y-107196090D02*
X145891314Y-107234185D01*
X145891314Y-107234185D02*
X145815124Y-107348471D01*
X145815124Y-107348471D02*
X145777028Y-107500852D01*
X145777028Y-107500852D02*
X145777028Y-107805614D01*
X145777028Y-107805614D02*
X145815124Y-107881804D01*
X145815124Y-107881804D02*
X145853219Y-107919900D01*
X145853219Y-107919900D02*
X145929409Y-107957995D01*
X145929409Y-107957995D02*
X146081790Y-107957995D01*
X146081790Y-107957995D02*
X146157981Y-107919900D01*
X146157981Y-107919900D02*
X146196076Y-107881804D01*
X146196076Y-107881804D02*
X146234171Y-107805614D01*
X146234171Y-107805614D02*
X146234171Y-107615138D01*
X146234171Y-107615138D02*
X146196076Y-107538947D01*
X146196076Y-107538947D02*
X146157981Y-107500852D01*
X146157981Y-107500852D02*
X146081790Y-107462757D01*
X146081790Y-107462757D02*
X145929409Y-107462757D01*
X145929409Y-107462757D02*
X145853219Y-107500852D01*
X145853219Y-107500852D02*
X145815124Y-107538947D01*
X145815124Y-107538947D02*
X145777028Y-107615138D01*
X146500838Y-107157995D02*
X147034172Y-107157995D01*
X147034172Y-107157995D02*
X146691314Y-107957995D01*
X147491315Y-107157995D02*
X147567505Y-107157995D01*
X147567505Y-107157995D02*
X147643696Y-107196090D01*
X147643696Y-107196090D02*
X147681791Y-107234185D01*
X147681791Y-107234185D02*
X147719886Y-107310376D01*
X147719886Y-107310376D02*
X147757981Y-107462757D01*
X147757981Y-107462757D02*
X147757981Y-107653233D01*
X147757981Y-107653233D02*
X147719886Y-107805614D01*
X147719886Y-107805614D02*
X147681791Y-107881804D01*
X147681791Y-107881804D02*
X147643696Y-107919900D01*
X147643696Y-107919900D02*
X147567505Y-107957995D01*
X147567505Y-107957995D02*
X147491315Y-107957995D01*
X147491315Y-107957995D02*
X147415124Y-107919900D01*
X147415124Y-107919900D02*
X147377029Y-107881804D01*
X147377029Y-107881804D02*
X147338934Y-107805614D01*
X147338934Y-107805614D02*
X147300838Y-107653233D01*
X147300838Y-107653233D02*
X147300838Y-107462757D01*
X147300838Y-107462757D02*
X147338934Y-107310376D01*
X147338934Y-107310376D02*
X147377029Y-107234185D01*
X147377029Y-107234185D02*
X147415124Y-107196090D01*
X147415124Y-107196090D02*
X147491315Y-107157995D01*
X148100839Y-107957995D02*
X148100839Y-107157995D01*
X148100839Y-107157995D02*
X148367505Y-107729423D01*
X148367505Y-107729423D02*
X148634172Y-107157995D01*
X148634172Y-107157995D02*
X148634172Y-107957995D01*
X149281791Y-107538947D02*
X149015125Y-107538947D01*
X149015125Y-107957995D02*
X149015125Y-107157995D01*
X149015125Y-107157995D02*
X149396077Y-107157995D01*
D10*
X140460833Y-108307980D02*
X140413214Y-108355600D01*
X140413214Y-108355600D02*
X140270357Y-108403219D01*
X140270357Y-108403219D02*
X140175119Y-108403219D01*
X140175119Y-108403219D02*
X140032262Y-108355600D01*
X140032262Y-108355600D02*
X139937024Y-108260361D01*
X139937024Y-108260361D02*
X139889405Y-108165123D01*
X139889405Y-108165123D02*
X139841786Y-107974647D01*
X139841786Y-107974647D02*
X139841786Y-107831790D01*
X139841786Y-107831790D02*
X139889405Y-107641314D01*
X139889405Y-107641314D02*
X139937024Y-107546076D01*
X139937024Y-107546076D02*
X140032262Y-107450838D01*
X140032262Y-107450838D02*
X140175119Y-107403219D01*
X140175119Y-107403219D02*
X140270357Y-107403219D01*
X140270357Y-107403219D02*
X140413214Y-107450838D01*
X140413214Y-107450838D02*
X140460833Y-107498457D01*
X141413214Y-108403219D02*
X140841786Y-108403219D01*
X141127500Y-108403219D02*
X141127500Y-107403219D01*
X141127500Y-107403219D02*
X141032262Y-107546076D01*
X141032262Y-107546076D02*
X140937024Y-107641314D01*
X140937024Y-107641314D02*
X140841786Y-107688933D01*
D26*
X139846190Y-102598661D02*
X139846190Y-103131995D01*
X139655714Y-102293900D02*
X139465237Y-102865328D01*
X139465237Y-102865328D02*
X139960476Y-102865328D01*
X140265238Y-103055804D02*
X140303333Y-103093900D01*
X140303333Y-103093900D02*
X140265238Y-103131995D01*
X140265238Y-103131995D02*
X140227142Y-103093900D01*
X140227142Y-103093900D02*
X140265238Y-103055804D01*
X140265238Y-103055804D02*
X140265238Y-103131995D01*
X140569999Y-102331995D02*
X141103333Y-102331995D01*
X141103333Y-102331995D02*
X140760475Y-103131995D01*
X141750952Y-102598661D02*
X141750952Y-103131995D01*
X141408095Y-102598661D02*
X141408095Y-103017709D01*
X141408095Y-103017709D02*
X141446190Y-103093900D01*
X141446190Y-103093900D02*
X141522380Y-103131995D01*
X141522380Y-103131995D02*
X141636666Y-103131995D01*
X141636666Y-103131995D02*
X141712857Y-103093900D01*
X141712857Y-103093900D02*
X141750952Y-103055804D01*
X142398571Y-102712947D02*
X142131905Y-102712947D01*
X142131905Y-103131995D02*
X142131905Y-102331995D01*
X142131905Y-102331995D02*
X142512857Y-102331995D01*
D10*
X135302666Y-99276819D02*
X135302666Y-99991104D01*
X135302666Y-99991104D02*
X135255047Y-100133961D01*
X135255047Y-100133961D02*
X135159809Y-100229200D01*
X135159809Y-100229200D02*
X135016952Y-100276819D01*
X135016952Y-100276819D02*
X134921714Y-100276819D01*
X136302666Y-100276819D02*
X135731238Y-100276819D01*
X136016952Y-100276819D02*
X136016952Y-99276819D01*
X136016952Y-99276819D02*
X135921714Y-99419676D01*
X135921714Y-99419676D02*
X135826476Y-99514914D01*
X135826476Y-99514914D02*
X135731238Y-99562533D01*
X157821333Y-109427180D02*
X157773714Y-109474800D01*
X157773714Y-109474800D02*
X157630857Y-109522419D01*
X157630857Y-109522419D02*
X157535619Y-109522419D01*
X157535619Y-109522419D02*
X157392762Y-109474800D01*
X157392762Y-109474800D02*
X157297524Y-109379561D01*
X157297524Y-109379561D02*
X157249905Y-109284323D01*
X157249905Y-109284323D02*
X157202286Y-109093847D01*
X157202286Y-109093847D02*
X157202286Y-108950990D01*
X157202286Y-108950990D02*
X157249905Y-108760514D01*
X157249905Y-108760514D02*
X157297524Y-108665276D01*
X157297524Y-108665276D02*
X157392762Y-108570038D01*
X157392762Y-108570038D02*
X157535619Y-108522419D01*
X157535619Y-108522419D02*
X157630857Y-108522419D01*
X157630857Y-108522419D02*
X157773714Y-108570038D01*
X157773714Y-108570038D02*
X157821333Y-108617657D01*
X158202286Y-108617657D02*
X158249905Y-108570038D01*
X158249905Y-108570038D02*
X158345143Y-108522419D01*
X158345143Y-108522419D02*
X158583238Y-108522419D01*
X158583238Y-108522419D02*
X158678476Y-108570038D01*
X158678476Y-108570038D02*
X158726095Y-108617657D01*
X158726095Y-108617657D02*
X158773714Y-108712895D01*
X158773714Y-108712895D02*
X158773714Y-108808133D01*
X158773714Y-108808133D02*
X158726095Y-108950990D01*
X158726095Y-108950990D02*
X158154667Y-109522419D01*
X158154667Y-109522419D02*
X158773714Y-109522419D01*
D26*
X156978456Y-102319195D02*
X156521313Y-102319195D01*
X156749885Y-102319195D02*
X156749885Y-101519195D01*
X156749885Y-101519195D02*
X156673694Y-101633480D01*
X156673694Y-101633480D02*
X156597504Y-101709671D01*
X156597504Y-101709671D02*
X156521313Y-101747766D01*
X157473695Y-101519195D02*
X157549885Y-101519195D01*
X157549885Y-101519195D02*
X157626076Y-101557290D01*
X157626076Y-101557290D02*
X157664171Y-101595385D01*
X157664171Y-101595385D02*
X157702266Y-101671576D01*
X157702266Y-101671576D02*
X157740361Y-101823957D01*
X157740361Y-101823957D02*
X157740361Y-102014433D01*
X157740361Y-102014433D02*
X157702266Y-102166814D01*
X157702266Y-102166814D02*
X157664171Y-102243004D01*
X157664171Y-102243004D02*
X157626076Y-102281100D01*
X157626076Y-102281100D02*
X157549885Y-102319195D01*
X157549885Y-102319195D02*
X157473695Y-102319195D01*
X157473695Y-102319195D02*
X157397504Y-102281100D01*
X157397504Y-102281100D02*
X157359409Y-102243004D01*
X157359409Y-102243004D02*
X157321314Y-102166814D01*
X157321314Y-102166814D02*
X157283218Y-102014433D01*
X157283218Y-102014433D02*
X157283218Y-101823957D01*
X157283218Y-101823957D02*
X157321314Y-101671576D01*
X157321314Y-101671576D02*
X157359409Y-101595385D01*
X157359409Y-101595385D02*
X157397504Y-101557290D01*
X157397504Y-101557290D02*
X157473695Y-101519195D01*
X158426076Y-101785861D02*
X158426076Y-102319195D01*
X158083219Y-101785861D02*
X158083219Y-102204909D01*
X158083219Y-102204909D02*
X158121314Y-102281100D01*
X158121314Y-102281100D02*
X158197504Y-102319195D01*
X158197504Y-102319195D02*
X158311790Y-102319195D01*
X158311790Y-102319195D02*
X158387981Y-102281100D01*
X158387981Y-102281100D02*
X158426076Y-102243004D01*
X159073695Y-101900147D02*
X158807029Y-101900147D01*
X158807029Y-102319195D02*
X158807029Y-101519195D01*
X158807029Y-101519195D02*
X159187981Y-101519195D01*
X151820766Y-108710295D02*
X151439814Y-108710295D01*
X151439814Y-108710295D02*
X151439814Y-107910295D01*
X152506480Y-108710295D02*
X152049337Y-108710295D01*
X152277909Y-108710295D02*
X152277909Y-107910295D01*
X152277909Y-107910295D02*
X152201718Y-108024580D01*
X152201718Y-108024580D02*
X152125528Y-108100771D01*
X152125528Y-108100771D02*
X152049337Y-108138866D01*
X153854266Y-108770795D02*
X153397123Y-108770795D01*
X153625695Y-108770795D02*
X153625695Y-107970795D01*
X153625695Y-107970795D02*
X153549504Y-108085080D01*
X153549504Y-108085080D02*
X153473314Y-108161271D01*
X153473314Y-108161271D02*
X153397123Y-108199366D01*
X154349505Y-107970795D02*
X154425695Y-107970795D01*
X154425695Y-107970795D02*
X154501886Y-108008890D01*
X154501886Y-108008890D02*
X154539981Y-108046985D01*
X154539981Y-108046985D02*
X154578076Y-108123176D01*
X154578076Y-108123176D02*
X154616171Y-108275557D01*
X154616171Y-108275557D02*
X154616171Y-108466033D01*
X154616171Y-108466033D02*
X154578076Y-108618414D01*
X154578076Y-108618414D02*
X154539981Y-108694604D01*
X154539981Y-108694604D02*
X154501886Y-108732700D01*
X154501886Y-108732700D02*
X154425695Y-108770795D01*
X154425695Y-108770795D02*
X154349505Y-108770795D01*
X154349505Y-108770795D02*
X154273314Y-108732700D01*
X154273314Y-108732700D02*
X154235219Y-108694604D01*
X154235219Y-108694604D02*
X154197124Y-108618414D01*
X154197124Y-108618414D02*
X154159028Y-108466033D01*
X154159028Y-108466033D02*
X154159028Y-108275557D01*
X154159028Y-108275557D02*
X154197124Y-108123176D01*
X154197124Y-108123176D02*
X154235219Y-108046985D01*
X154235219Y-108046985D02*
X154273314Y-108008890D01*
X154273314Y-108008890D02*
X154349505Y-107970795D01*
X155301886Y-108237461D02*
X155301886Y-108770795D01*
X154959029Y-108237461D02*
X154959029Y-108656509D01*
X154959029Y-108656509D02*
X154997124Y-108732700D01*
X154997124Y-108732700D02*
X155073314Y-108770795D01*
X155073314Y-108770795D02*
X155187600Y-108770795D01*
X155187600Y-108770795D02*
X155263791Y-108732700D01*
X155263791Y-108732700D02*
X155301886Y-108694604D01*
X155682839Y-108770795D02*
X155682839Y-107970795D01*
X155682839Y-108351747D02*
X156139982Y-108351747D01*
X156139982Y-108770795D02*
X156139982Y-107970795D01*
D27*
%TO.C,J2*%
X167034000Y-103022400D02*
G75*
G03*
X167034000Y-103022400I-1680000J0D01*
G01*
X166038000Y-106567400D02*
G75*
G03*
X164670958Y-106566974I-684000J-1535000D01*
G01*
X167033999Y-108102400D02*
G75*
G03*
X166888755Y-107419082I-1679999J0D01*
G01*
X166888999Y-108786400D02*
G75*
G03*
X167034252Y-108073595I-1535000J683999D01*
G01*
X163819001Y-107418401D02*
G75*
G03*
X163818574Y-108785442I1534992J-684000D01*
G01*
X164670001Y-109637399D02*
G75*
G03*
X166037042Y-109637826I684000J1534992D01*
G01*
X160093000Y-100422400D02*
X170014000Y-100422400D01*
X164285000Y-101747400D02*
X164331000Y-101794400D01*
X164079000Y-101952400D02*
X164115000Y-101987400D01*
X166593000Y-104056400D02*
X166628000Y-104091400D01*
X166377000Y-104249400D02*
X166423000Y-104296400D01*
X170014000Y-110702400D02*
X170014000Y-100422400D01*
X169454000Y-110702400D02*
X169454000Y-100422400D01*
X167954000Y-110702400D02*
X167954000Y-100422400D01*
X163053000Y-110702400D02*
X163053000Y-100422400D01*
X160093000Y-110702400D02*
X160093000Y-100422400D01*
X160093000Y-110702400D02*
X170014000Y-110702400D01*
X170254000Y-110942400D02*
X170254000Y-110442400D01*
X169514000Y-110942400D02*
X170254000Y-110942400D01*
%TO.C,U1*%
X146477800Y-106745100D02*
X147277800Y-106745100D01*
X146477800Y-106745100D02*
X145677800Y-106745100D01*
X146477800Y-103625100D02*
X147277800Y-103625100D01*
X146477800Y-103625100D02*
X144677800Y-103625100D01*
%TO.C,C1*%
X141362500Y-105459652D02*
X141362500Y-104937148D01*
X139892500Y-105459652D02*
X139892500Y-104937148D01*
%TO.C,J1*%
X133620700Y-108674300D02*
G75*
G03*
X133620700Y-108674300I-1680000J0D01*
G01*
X131256700Y-105129300D02*
G75*
G03*
X132623742Y-105129726I684000J1535000D01*
G01*
X130260701Y-103594300D02*
G75*
G03*
X130405945Y-104277618I1679999J0D01*
G01*
X130405701Y-102910300D02*
G75*
G03*
X130260448Y-103623105I1535000J-683999D01*
G01*
X133475699Y-104278299D02*
G75*
G03*
X133476126Y-102911258I-1534992J684000D01*
G01*
X132624699Y-102059301D02*
G75*
G03*
X131257658Y-102058874I-684000J-1534992D01*
G01*
X137201700Y-111274300D02*
X127280700Y-111274300D01*
X133009700Y-109949300D02*
X132963700Y-109902300D01*
X133215700Y-109744300D02*
X133179700Y-109709300D01*
X130701700Y-107640300D02*
X130666700Y-107605300D01*
X130917700Y-107447300D02*
X130871700Y-107400300D01*
X127280700Y-100994300D02*
X127280700Y-111274300D01*
X127840700Y-100994300D02*
X127840700Y-111274300D01*
X129340700Y-100994300D02*
X129340700Y-111274300D01*
X134241700Y-100994300D02*
X134241700Y-111274300D01*
X137201700Y-100994300D02*
X137201700Y-111274300D01*
X137201700Y-100994300D02*
X127280700Y-100994300D01*
X127040700Y-100754300D02*
X127040700Y-101254300D01*
X127780700Y-100754300D02*
X127040700Y-100754300D01*
%TO.C,C2*%
X158796400Y-105804152D02*
X158796400Y-104381648D01*
X156976400Y-105804152D02*
X156976400Y-104381648D01*
%TO.C,L1*%
X155579100Y-107596700D02*
X151279100Y-107596700D01*
X151279100Y-107596700D02*
X151279100Y-102796700D01*
X151279100Y-102796700D02*
X155579100Y-102796700D01*
X155579100Y-102796700D02*
X155579100Y-107596700D01*
%TD*%
D28*
%TO.C,J2*%
X165354000Y-103022400D03*
D29*
X165354000Y-108102400D03*
%TD*%
D30*
%TO.C,H3*%
X170738800Y-97282000D03*
%TD*%
D21*
%TO.C,U1*%
X147615300Y-104235100D03*
X147615300Y-106135100D03*
X145340300Y-106135100D03*
X145340300Y-105185100D03*
X145340300Y-104235100D03*
%TD*%
D30*
%TO.C,H1*%
X127050800Y-97790000D03*
%TD*%
%TO.C,H4*%
X170840400Y-113792000D03*
%TD*%
D22*
%TO.C,C1*%
X140627500Y-104160900D03*
X140627500Y-106235900D03*
%TD*%
D28*
%TO.C,J1*%
X131940700Y-108674300D03*
D29*
X131940700Y-103594300D03*
%TD*%
D30*
%TO.C,H2*%
X127050800Y-114096800D03*
%TD*%
D23*
%TO.C,C2*%
X157886400Y-103530400D03*
X157886400Y-106655400D03*
%TD*%
D24*
%TO.C,L1*%
X153429100Y-106646700D03*
X153429100Y-103746700D03*
%TD*%
D28*
%TO.C,J2*%
X165354000Y-103022400D03*
D29*
X165354000Y-108102400D03*
%TD*%
D30*
%TO.C,H3*%
X170738800Y-97282000D03*
%TD*%
%TO.C,H1*%
X127050800Y-97790000D03*
%TD*%
%TO.C,H4*%
X170840400Y-113792000D03*
%TD*%
D28*
%TO.C,J1*%
X131940700Y-108674300D03*
D29*
X131940700Y-103594300D03*
%TD*%
D30*
%TO.C,H2*%
X127050800Y-114096800D03*
%TD*%
D31*
X172226737Y-116359000D02*
G75*
G03*
X173532800Y-115052874I-37J1306100D01*
G01*
X124534663Y-115052874D02*
G75*
G03*
X125840726Y-116358937I1306037J-26D01*
G01*
X125831600Y-116358937D02*
X172226737Y-116358937D01*
X173532800Y-96012000D02*
G75*
G03*
X172212000Y-94691200I-1320800J0D01*
G01*
X124534663Y-115052874D02*
X124534663Y-95910400D01*
X125762989Y-94682063D02*
G75*
G03*
X124534663Y-95910400I11J-1228337D01*
G01*
X173532800Y-96012000D02*
X173532800Y-115052874D01*
X125762989Y-94691200D02*
X172212000Y-94691200D01*
M02*
