M48
; DRILL file {KiCad (6.0.8)} date Tue Aug 22 19:06:41 2023
; FORMAT={-:-/ absolute / metric / decimal}
; #@! TF.CreationDate,2023-08-22T19:06:41+05:30
; #@! TF.GenerationSoftware,Kicad,Pcbnew,(6.0.8)
; #@! TF.FileFunction,Plated,1,2,PTH
FMAT,2
METRIC
; #@! TA.AperFunction,Plated,PTH,ViaDrill
T1C0.400
; #@! TA.AperFunction,Plated,PTH,ComponentDrill
T2C0.550
; #@! TA.AperFunction,Plated,PTH,ComponentDrill
T3C0.850
; #@! TA.AperFunction,Plated,PTH,ComponentDrill
T4C1.000
%
G90
G05
T1
X114.935Y-58.674
X115.951Y-60.96
X115.951Y-62.484
X118.491Y-71.882
X121.031Y-73.66
X123.825Y-67.564
X125.476Y-55.245
X126.746Y-73.279
X127.0Y-63.246
X130.81Y-70.104
X131.191Y-66.802
X131.953Y-76.708
X132.611Y-81.026
X134.112Y-81.026
X134.35Y-78.232
X135.89Y-78.232
X136.398Y-77.089
X137.668Y-55.118
X140.97Y-66.421
X140.97Y-83.82
X140.97Y-86.233
X149.098Y-60.579
X149.479Y-69.215
X149.511Y-70.211
X150.495Y-74.422
X151.511Y-74.422
X153.162Y-71.247
X154.178Y-71.247
T4
X125.476Y-52.832
X128.016Y-52.832
X130.556Y-52.832
X130.82Y-86.36
X133.096Y-52.832
X133.36Y-86.36
X135.9Y-86.36
X137.668Y-52.832
X138.44Y-86.36
X140.208Y-52.832
X142.748Y-52.832
X145.288Y-52.832
T2
G00X153.778Y-58.106
M15
G01X154.428Y-58.106
M16
G05
G00X153.778Y-65.856
M15
G01X154.428Y-65.856
M16
G05
T3
G00X150.028Y-58.256
M15
G01X150.578Y-58.256
M16
G05
G00X150.028Y-65.706
M15
G01X150.578Y-65.706
M16
G05
T0
M30
