%TF.GenerationSoftware,KiCad,Pcbnew,(6.0.8)*%
%TF.CreationDate,2023-08-22T19:06:44+05:30*%
%TF.ProjectId,stmwork,73746d77-6f72-46b2-9e6b-696361645f70,v1*%
%TF.SameCoordinates,Original*%
%TF.FileFunction,Legend,Bot*%
%TF.FilePolarity,Positive*%
%FSLAX46Y46*%
G04 Gerber Fmt 4.6, Leading zero omitted, Abs format (unit mm)*
G04 Created by KiCad (PCBNEW (6.0.8)) date 2023-08-22 19:06:44*
%MOMM*%
%LPD*%
G01*
G04 APERTURE LIST*
%ADD10C,0.300000*%
G04 APERTURE END LIST*
D10*
X128403857Y-80617142D02*
X128189571Y-80688571D01*
X127832428Y-80688571D01*
X127689571Y-80617142D01*
X127618142Y-80545714D01*
X127546714Y-80402857D01*
X127546714Y-80260000D01*
X127618142Y-80117142D01*
X127689571Y-80045714D01*
X127832428Y-79974285D01*
X128118142Y-79902857D01*
X128261000Y-79831428D01*
X128332428Y-79760000D01*
X128403857Y-79617142D01*
X128403857Y-79474285D01*
X128332428Y-79331428D01*
X128261000Y-79260000D01*
X128118142Y-79188571D01*
X127761000Y-79188571D01*
X127546714Y-79260000D01*
X127118142Y-79188571D02*
X126261000Y-79188571D01*
X126689571Y-80688571D02*
X126689571Y-79188571D01*
X125761000Y-80688571D02*
X125761000Y-79188571D01*
X125261000Y-80260000D01*
X124761000Y-79188571D01*
X124761000Y-80688571D01*
X124189571Y-79188571D02*
X123261000Y-79188571D01*
X123761000Y-79760000D01*
X123546714Y-79760000D01*
X123403857Y-79831428D01*
X123332428Y-79902857D01*
X123261000Y-80045714D01*
X123261000Y-80402857D01*
X123332428Y-80545714D01*
X123403857Y-80617142D01*
X123546714Y-80688571D01*
X123975285Y-80688571D01*
X124118142Y-80617142D01*
X124189571Y-80545714D01*
X122689571Y-79331428D02*
X122618142Y-79260000D01*
X122475285Y-79188571D01*
X122118142Y-79188571D01*
X121975285Y-79260000D01*
X121903857Y-79331428D01*
X121832428Y-79474285D01*
X121832428Y-79617142D01*
X121903857Y-79831428D01*
X122761000Y-80688571D01*
X121832428Y-80688571D01*
X120046714Y-80688571D02*
X120046714Y-79188571D01*
X120046714Y-79760000D02*
X119903857Y-79688571D01*
X119618142Y-79688571D01*
X119475285Y-79760000D01*
X119403857Y-79831428D01*
X119332428Y-79974285D01*
X119332428Y-80402857D01*
X119403857Y-80545714D01*
X119475285Y-80617142D01*
X119618142Y-80688571D01*
X119903857Y-80688571D01*
X120046714Y-80617142D01*
X118475285Y-80688571D02*
X118618142Y-80617142D01*
X118689571Y-80474285D01*
X118689571Y-79188571D01*
X117261000Y-79688571D02*
X117261000Y-80688571D01*
X117903857Y-79688571D02*
X117903857Y-80474285D01*
X117832428Y-80617142D01*
X117689571Y-80688571D01*
X117475285Y-80688571D01*
X117332428Y-80617142D01*
X117261000Y-80545714D01*
X115975285Y-80617142D02*
X116118142Y-80688571D01*
X116403857Y-80688571D01*
X116546714Y-80617142D01*
X116618142Y-80474285D01*
X116618142Y-79902857D01*
X116546714Y-79760000D01*
X116403857Y-79688571D01*
X116118142Y-79688571D01*
X115975285Y-79760000D01*
X115903857Y-79902857D01*
X115903857Y-80045714D01*
X116618142Y-80188571D01*
X114118142Y-79688571D02*
X114118142Y-81188571D01*
X114118142Y-79760000D02*
X113975285Y-79688571D01*
X113689571Y-79688571D01*
X113546714Y-79760000D01*
X113475285Y-79831428D01*
X113403857Y-79974285D01*
X113403857Y-80402857D01*
X113475285Y-80545714D01*
X113546714Y-80617142D01*
X113689571Y-80688571D01*
X113975285Y-80688571D01*
X114118142Y-80617142D01*
X112761000Y-80688571D02*
X112761000Y-79688571D01*
X112761000Y-79188571D02*
X112832428Y-79260000D01*
X112761000Y-79331428D01*
X112689571Y-79260000D01*
X112761000Y-79188571D01*
X112761000Y-79331428D01*
X111832428Y-80688571D02*
X111975285Y-80617142D01*
X112046714Y-80474285D01*
X112046714Y-79188571D01*
X111046714Y-80688571D02*
X111189571Y-80617142D01*
X111261000Y-80474285D01*
X111261000Y-79188571D01*
X121951571Y-82228571D02*
X121594428Y-83228571D01*
X121237285Y-82228571D01*
X120665857Y-83085714D02*
X120594428Y-83157142D01*
X120665857Y-83228571D01*
X120737285Y-83157142D01*
X120665857Y-83085714D01*
X120665857Y-83228571D01*
X120665857Y-82300000D02*
X120594428Y-82371428D01*
X120665857Y-82442857D01*
X120737285Y-82371428D01*
X120665857Y-82300000D01*
X120665857Y-82442857D01*
X119165857Y-83228571D02*
X120023000Y-83228571D01*
X119594428Y-83228571D02*
X119594428Y-81728571D01*
X119737285Y-81942857D01*
X119880142Y-82085714D01*
X120023000Y-82157142D01*
M02*
