%TF.GenerationSoftware,KiCad,Pcbnew,(6.0.8)*%
%TF.CreationDate,2023-08-22T19:06:44+05:30*%
%TF.ProjectId,stmwork,73746d77-6f72-46b2-9e6b-696361645f70,v1*%
%TF.SameCoordinates,Original*%
%TF.FileFunction,Copper,L1,Top*%
%TF.FilePolarity,Positive*%
%FSLAX46Y46*%
G04 Gerber Fmt 4.6, Leading zero omitted, Abs format (unit mm)*
G04 Created by KiCad (PCBNEW (6.0.8)) date 2023-08-22 19:06:44*
%MOMM*%
%LPD*%
G01*
G04 APERTURE LIST*
G04 Aperture macros list*
%AMRoundRect*
0 Rectangle with rounded corners*
0 $1 Rounding radius*
0 $2 $3 $4 $5 $6 $7 $8 $9 X,Y pos of 4 corners*
0 Add a 4 corners polygon primitive as box body*
4,1,4,$2,$3,$4,$5,$6,$7,$8,$9,$2,$3,0*
0 Add four circle primitives for the rounded corners*
1,1,$1+$1,$2,$3*
1,1,$1+$1,$4,$5*
1,1,$1+$1,$6,$7*
1,1,$1+$1,$8,$9*
0 Add four rect primitives between the rounded corners*
20,1,$1+$1,$2,$3,$4,$5,0*
20,1,$1+$1,$4,$5,$6,$7,0*
20,1,$1+$1,$6,$7,$8,$9,0*
20,1,$1+$1,$8,$9,$2,$3,0*%
G04 Aperture macros list end*
%TA.AperFunction,SMDPad,CuDef*%
%ADD10R,0.800000X1.000000*%
%TD*%
%TA.AperFunction,SMDPad,CuDef*%
%ADD11R,1.500000X0.700000*%
%TD*%
%TA.AperFunction,SMDPad,CuDef*%
%ADD12RoundRect,0.225000X-0.250000X0.225000X-0.250000X-0.225000X0.250000X-0.225000X0.250000X0.225000X0*%
%TD*%
%TA.AperFunction,SMDPad,CuDef*%
%ADD13RoundRect,0.225000X0.250000X-0.225000X0.250000X0.225000X-0.250000X0.225000X-0.250000X-0.225000X0*%
%TD*%
%TA.AperFunction,SMDPad,CuDef*%
%ADD14RoundRect,0.135000X-0.135000X-0.185000X0.135000X-0.185000X0.135000X0.185000X-0.135000X0.185000X0*%
%TD*%
%TA.AperFunction,SMDPad,CuDef*%
%ADD15RoundRect,0.250000X-0.250000X-0.475000X0.250000X-0.475000X0.250000X0.475000X-0.250000X0.475000X0*%
%TD*%
%TA.AperFunction,SMDPad,CuDef*%
%ADD16RoundRect,0.225000X0.225000X0.250000X-0.225000X0.250000X-0.225000X-0.250000X0.225000X-0.250000X0*%
%TD*%
%TA.AperFunction,ComponentPad*%
%ADD17R,1.700000X1.700000*%
%TD*%
%TA.AperFunction,ComponentPad*%
%ADD18O,1.700000X1.700000*%
%TD*%
%TA.AperFunction,SMDPad,CuDef*%
%ADD19RoundRect,0.250000X0.475000X-0.250000X0.475000X0.250000X-0.475000X0.250000X-0.475000X-0.250000X0*%
%TD*%
%TA.AperFunction,SMDPad,CuDef*%
%ADD20RoundRect,0.075000X-0.662500X-0.075000X0.662500X-0.075000X0.662500X0.075000X-0.662500X0.075000X0*%
%TD*%
%TA.AperFunction,SMDPad,CuDef*%
%ADD21RoundRect,0.075000X-0.075000X-0.662500X0.075000X-0.662500X0.075000X0.662500X-0.075000X0.662500X0*%
%TD*%
%TA.AperFunction,SMDPad,CuDef*%
%ADD22R,1.500000X2.000000*%
%TD*%
%TA.AperFunction,SMDPad,CuDef*%
%ADD23R,3.800000X2.000000*%
%TD*%
%TA.AperFunction,SMDPad,CuDef*%
%ADD24RoundRect,0.218750X0.256250X-0.218750X0.256250X0.218750X-0.256250X0.218750X-0.256250X-0.218750X0*%
%TD*%
%TA.AperFunction,SMDPad,CuDef*%
%ADD25RoundRect,0.225000X-0.225000X-0.250000X0.225000X-0.250000X0.225000X0.250000X-0.225000X0.250000X0*%
%TD*%
%TA.AperFunction,SMDPad,CuDef*%
%ADD26RoundRect,0.135000X-0.185000X0.135000X-0.185000X-0.135000X0.185000X-0.135000X0.185000X0.135000X0*%
%TD*%
%TA.AperFunction,SMDPad,CuDef*%
%ADD27R,1.300000X0.450000*%
%TD*%
%TA.AperFunction,ComponentPad*%
%ADD28O,1.800000X1.150000*%
%TD*%
%TA.AperFunction,ComponentPad*%
%ADD29O,2.000000X1.450000*%
%TD*%
%TA.AperFunction,SMDPad,CuDef*%
%ADD30R,1.200000X1.400000*%
%TD*%
%TA.AperFunction,ViaPad*%
%ADD31C,0.800000*%
%TD*%
%TA.AperFunction,Conductor*%
%ADD32C,0.500000*%
%TD*%
%TA.AperFunction,Conductor*%
%ADD33C,0.300000*%
%TD*%
%TA.AperFunction,Conductor*%
%ADD34C,0.200000*%
%TD*%
G04 APERTURE END LIST*
D10*
%TO.P,SW1,*%
%TO.N,*%
X112540000Y-64610000D03*
X110330000Y-64610000D03*
X112540000Y-57310000D03*
X110330000Y-57310000D03*
D11*
%TO.P,SW1,1,A*%
%TO.N,GND*%
X113190000Y-58710000D03*
%TO.P,SW1,2,B*%
%TO.N,Net-(R4-Pad1)*%
X113190000Y-61710000D03*
%TO.P,SW1,3,C*%
%TO.N,+3.3V*%
X113190000Y-63210000D03*
%TD*%
D12*
%TO.P,C8,1*%
%TO.N,+3.3V*%
X139700000Y-64757000D03*
%TO.P,C8,2*%
%TO.N,GND*%
X139700000Y-66307000D03*
%TD*%
D13*
%TO.P,C6,1*%
%TO.N,/HSE_IN*%
X122428000Y-69114000D03*
%TO.P,C6,2*%
%TO.N,GND*%
X122428000Y-67564000D03*
%TD*%
D14*
%TO.P,R2,1*%
%TO.N,+3.3V*%
X132076000Y-79248000D03*
%TO.P,R2,2*%
%TO.N,/I2C2_SCL*%
X133096000Y-79248000D03*
%TD*%
D15*
%TO.P,C1,1*%
%TO.N,VBUS*%
X146182000Y-69850000D03*
%TO.P,C1,2*%
%TO.N,GND*%
X148082000Y-69850000D03*
%TD*%
D14*
%TO.P,R3,1*%
%TO.N,+3.3V*%
X134364000Y-79248000D03*
%TO.P,R3,2*%
%TO.N,/I2C2_SDA*%
X135384000Y-79248000D03*
%TD*%
%TO.P,R4,1*%
%TO.N,Net-(R4-Pad1)*%
X123442000Y-60960000D03*
%TO.P,R4,2*%
%TO.N,/BOOT0*%
X124462000Y-60960000D03*
%TD*%
D16*
%TO.P,C7,1*%
%TO.N,+3.3V*%
X137935000Y-75692000D03*
%TO.P,C7,2*%
%TO.N,GND*%
X136385000Y-75692000D03*
%TD*%
D17*
%TO.P,J2,1,Pin_1*%
%TO.N,+3.3V*%
X133096000Y-52832000D03*
D18*
%TO.P,J2,2,Pin_2*%
%TO.N,/USART1_TX*%
X130556000Y-52832000D03*
%TO.P,J2,3,Pin_3*%
%TO.N,/USART1_RX*%
X128016000Y-52832000D03*
%TO.P,J2,4,Pin_4*%
%TO.N,GND*%
X125476000Y-52832000D03*
%TD*%
D19*
%TO.P,C2,1*%
%TO.N,+3.3V*%
X153543000Y-74483000D03*
%TO.P,C2,2*%
%TO.N,GND*%
X153543000Y-72583000D03*
%TD*%
D12*
%TO.P,C9,1*%
%TO.N,/HSE_OUT*%
X122428000Y-70853000D03*
%TO.P,C9,2*%
%TO.N,GND*%
X122428000Y-72403000D03*
%TD*%
D17*
%TO.P,J4,1,Pin_1*%
%TO.N,+3.3V*%
X145288000Y-52832000D03*
D18*
%TO.P,J4,2,Pin_2*%
%TO.N,/SWDIO*%
X142748000Y-52832000D03*
%TO.P,J4,3,Pin_3*%
%TO.N,/SWCLK*%
X140208000Y-52832000D03*
%TO.P,J4,4,Pin_4*%
%TO.N,GND*%
X137668000Y-52832000D03*
%TD*%
D13*
%TO.P,C5,1*%
%TO.N,+3.3V*%
X127000000Y-66040000D03*
%TO.P,C5,2*%
%TO.N,GND*%
X127000000Y-64490000D03*
%TD*%
D20*
%TO.P,U2,1,VBAT*%
%TO.N,+3.3V*%
X129187500Y-66592000D03*
%TO.P,U2,2,PC13*%
%TO.N,unconnected-(U2-Pad2)*%
X129187500Y-67092000D03*
%TO.P,U2,3,PC14*%
%TO.N,unconnected-(U2-Pad3)*%
X129187500Y-67592000D03*
%TO.P,U2,4,PC15*%
%TO.N,unconnected-(U2-Pad4)*%
X129187500Y-68092000D03*
%TO.P,U2,5,PD0*%
%TO.N,/HSE_IN*%
X129187500Y-68592000D03*
%TO.P,U2,6,PD1*%
%TO.N,/HSE_OUT*%
X129187500Y-69092000D03*
%TO.P,U2,7,NRST*%
%TO.N,Net-(C4-Pad1)*%
X129187500Y-69592000D03*
%TO.P,U2,8,VSSA*%
%TO.N,GND*%
X129187500Y-70092000D03*
%TO.P,U2,9,VDDA*%
%TO.N,+3.3VA*%
X129187500Y-70592000D03*
%TO.P,U2,10,PA0*%
%TO.N,unconnected-(U2-Pad10)*%
X129187500Y-71092000D03*
%TO.P,U2,11,PA1*%
%TO.N,unconnected-(U2-Pad11)*%
X129187500Y-71592000D03*
%TO.P,U2,12,PA2*%
%TO.N,unconnected-(U2-Pad12)*%
X129187500Y-72092000D03*
D21*
%TO.P,U2,13,PA3*%
%TO.N,unconnected-(U2-Pad13)*%
X130600000Y-73504500D03*
%TO.P,U2,14,PA4*%
%TO.N,unconnected-(U2-Pad14)*%
X131100000Y-73504500D03*
%TO.P,U2,15,PA5*%
%TO.N,unconnected-(U2-Pad15)*%
X131600000Y-73504500D03*
%TO.P,U2,16,PA6*%
%TO.N,unconnected-(U2-Pad16)*%
X132100000Y-73504500D03*
%TO.P,U2,17,PA7*%
%TO.N,unconnected-(U2-Pad17)*%
X132600000Y-73504500D03*
%TO.P,U2,18,PB0*%
%TO.N,unconnected-(U2-Pad18)*%
X133100000Y-73504500D03*
%TO.P,U2,19,PB1*%
%TO.N,unconnected-(U2-Pad19)*%
X133600000Y-73504500D03*
%TO.P,U2,20,PB2*%
%TO.N,unconnected-(U2-Pad20)*%
X134100000Y-73504500D03*
%TO.P,U2,21,PB10*%
%TO.N,/I2C2_SCL*%
X134600000Y-73504500D03*
%TO.P,U2,22,PB11*%
%TO.N,/I2C2_SDA*%
X135100000Y-73504500D03*
%TO.P,U2,23,VSS*%
%TO.N,GND*%
X135600000Y-73504500D03*
%TO.P,U2,24,VDD*%
%TO.N,+3.3V*%
X136100000Y-73504500D03*
D20*
%TO.P,U2,25,PB12*%
%TO.N,unconnected-(U2-Pad25)*%
X137512500Y-72092000D03*
%TO.P,U2,26,PB13*%
%TO.N,unconnected-(U2-Pad26)*%
X137512500Y-71592000D03*
%TO.P,U2,27,PB14*%
%TO.N,unconnected-(U2-Pad27)*%
X137512500Y-71092000D03*
%TO.P,U2,28,PB15*%
%TO.N,unconnected-(U2-Pad28)*%
X137512500Y-70592000D03*
%TO.P,U2,29,PA8*%
%TO.N,unconnected-(U2-Pad29)*%
X137512500Y-70092000D03*
%TO.P,U2,30,PA9*%
%TO.N,unconnected-(U2-Pad30)*%
X137512500Y-69592000D03*
%TO.P,U2,31,PA10*%
%TO.N,unconnected-(U2-Pad31)*%
X137512500Y-69092000D03*
%TO.P,U2,32,PA11*%
%TO.N,/USB_D-*%
X137512500Y-68592000D03*
%TO.P,U2,33,PA12*%
%TO.N,/USB_D+*%
X137512500Y-68092000D03*
%TO.P,U2,34,PA13*%
%TO.N,/SWDIO*%
X137512500Y-67592000D03*
%TO.P,U2,35,VSS*%
%TO.N,GND*%
X137512500Y-67092000D03*
%TO.P,U2,36,VDD*%
%TO.N,+3.3V*%
X137512500Y-66592000D03*
D21*
%TO.P,U2,37,PA14*%
%TO.N,/SWCLK*%
X136100000Y-65179500D03*
%TO.P,U2,38,PA15*%
%TO.N,unconnected-(U2-Pad38)*%
X135600000Y-65179500D03*
%TO.P,U2,39,PB3*%
%TO.N,unconnected-(U2-Pad39)*%
X135100000Y-65179500D03*
%TO.P,U2,40,PB4*%
%TO.N,unconnected-(U2-Pad40)*%
X134600000Y-65179500D03*
%TO.P,U2,41,PB5*%
%TO.N,unconnected-(U2-Pad41)*%
X134100000Y-65179500D03*
%TO.P,U2,42,PB6*%
%TO.N,/USART1_TX*%
X133600000Y-65179500D03*
%TO.P,U2,43,PB7*%
%TO.N,/USART1_RX*%
X133100000Y-65179500D03*
%TO.P,U2,44,BOOT0*%
%TO.N,/BOOT0*%
X132600000Y-65179500D03*
%TO.P,U2,45,PB8*%
%TO.N,unconnected-(U2-Pad45)*%
X132100000Y-65179500D03*
%TO.P,U2,46,PB9*%
%TO.N,unconnected-(U2-Pad46)*%
X131600000Y-65179500D03*
%TO.P,U2,47,VSS*%
%TO.N,GND*%
X131100000Y-65179500D03*
%TO.P,U2,48,VDD*%
%TO.N,+3.3V*%
X130600000Y-65179500D03*
%TD*%
D13*
%TO.P,C11,1*%
%TO.N,+3.3VA*%
X125984000Y-71895000D03*
%TO.P,C11,2*%
%TO.N,GND*%
X125984000Y-70345000D03*
%TD*%
D22*
%TO.P,U1,1,GND*%
%TO.N,GND*%
X150956000Y-72796000D03*
%TO.P,U1,2,VO*%
%TO.N,+3.3V*%
X148656000Y-72796000D03*
D23*
X148656000Y-79096000D03*
D22*
%TO.P,U1,3,VI*%
%TO.N,VBUS*%
X146356000Y-72796000D03*
%TD*%
D17*
%TO.P,J1,1,Pin_1*%
%TO.N,+3.3V*%
X130820000Y-86360000D03*
D18*
%TO.P,J1,2,Pin_2*%
%TO.N,/I2C2_SCL*%
X133360000Y-86360000D03*
%TO.P,J1,3,Pin_3*%
%TO.N,/I2C2_SDA*%
X135900000Y-86360000D03*
%TO.P,J1,4,Pin_4*%
%TO.N,GND*%
X138440000Y-86360000D03*
%TD*%
D24*
%TO.P,D1,1,K*%
%TO.N,/Power indicator*%
X143510000Y-82321500D03*
%TO.P,D1,2,A*%
%TO.N,+3.3V*%
X143510000Y-80746500D03*
%TD*%
D25*
%TO.P,C3,1*%
%TO.N,+3.3V*%
X129781000Y-59436000D03*
%TO.P,C3,2*%
%TO.N,GND*%
X131331000Y-59436000D03*
%TD*%
D26*
%TO.P,R1,1*%
%TO.N,/Power indicator*%
X140970000Y-81786000D03*
%TO.P,R1,2*%
%TO.N,GND*%
X140970000Y-82806000D03*
%TD*%
D27*
%TO.P,J3,1,VBUS*%
%TO.N,VBUS*%
X150253000Y-63281000D03*
%TO.P,J3,2,D-*%
%TO.N,/USB_D-*%
X150253000Y-62631000D03*
%TO.P,J3,3,D+*%
%TO.N,/USB_D+*%
X150253000Y-61981000D03*
%TO.P,J3,4,ID*%
%TO.N,unconnected-(J3-Pad4)*%
X150253000Y-61331000D03*
%TO.P,J3,5,GND*%
%TO.N,GND*%
X150253000Y-60681000D03*
D28*
%TO.P,J3,4,Shield*%
%TO.N,N/C*%
X154103000Y-65856000D03*
%TO.P,J3,1,Shield*%
X154103000Y-58106000D03*
D29*
%TO.P,J3,2,Shield*%
X150303000Y-58256000D03*
%TO.P,J3,3,Shield*%
X150303000Y-65706000D03*
%TD*%
D25*
%TO.P,C10,1*%
%TO.N,+3.3V*%
X130048000Y-62992000D03*
%TO.P,C10,2*%
%TO.N,GND*%
X131598000Y-62992000D03*
%TD*%
%TO.P,C4,1*%
%TO.N,Net-(C4-Pad1)*%
X130276000Y-75438000D03*
%TO.P,C4,2*%
%TO.N,GND*%
X131826000Y-75438000D03*
%TD*%
D26*
%TO.P,R5,1*%
%TO.N,+3.3V*%
X147828000Y-60450000D03*
%TO.P,R5,2*%
%TO.N,/USB_D+*%
X147828000Y-61470000D03*
%TD*%
D16*
%TO.P,C13,1*%
%TO.N,+3.3V*%
X126759000Y-76708000D03*
%TO.P,C13,2*%
%TO.N,GND*%
X125209000Y-76708000D03*
%TD*%
D30*
%TO.P,Y1,1,1*%
%TO.N,/HSE_IN*%
X118530000Y-67988000D03*
%TO.P,Y1,2,2*%
%TO.N,GND*%
X118530000Y-70188000D03*
%TO.P,Y1,3,3*%
%TO.N,/HSE_OUT*%
X120230000Y-70188000D03*
%TO.P,Y1,4,4*%
%TO.N,GND*%
X120230000Y-67988000D03*
%TD*%
D16*
%TO.P,C12,1*%
%TO.N,GND*%
X126759000Y-74676000D03*
%TO.P,C12,2*%
%TO.N,+3.3VA*%
X125209000Y-74676000D03*
%TD*%
D24*
%TO.P,FB1,1*%
%TO.N,+3.3VA*%
X128524000Y-78283000D03*
%TO.P,FB1,2*%
%TO.N,+3.3V*%
X128524000Y-76708000D03*
%TD*%
D31*
%TO.N,GND*%
X127000000Y-63246000D03*
X140970000Y-83820000D03*
X140970000Y-86233000D03*
X125476000Y-55245000D03*
X137668000Y-55118000D03*
X149098000Y-60579000D03*
X140970000Y-66421000D03*
X136398000Y-77089000D03*
%TO.N,+3.3V*%
X115951000Y-60960000D03*
X115951000Y-62484000D03*
X134112000Y-81026000D03*
X132610500Y-81026000D03*
X134350500Y-78232000D03*
X135890000Y-78232000D03*
%TO.N,GND*%
X149511091Y-70210704D03*
X149479000Y-69215000D03*
X153162000Y-71247000D03*
X154178000Y-71247000D03*
X150495000Y-74422000D03*
X151511000Y-74422000D03*
X118491000Y-71882000D03*
X123825000Y-67564000D03*
X121031000Y-73660000D03*
X126746000Y-73279000D03*
X131953000Y-76708000D03*
X131191000Y-66802000D03*
X130810000Y-70104000D03*
X114935000Y-58674000D03*
%TD*%
D32*
%TO.N,GND*%
X125209000Y-76226000D02*
X126759000Y-74676000D01*
X125209000Y-76708000D02*
X125209000Y-76226000D01*
D33*
%TO.N,+3.3V*%
X129449000Y-77633000D02*
X129449000Y-78069000D01*
X128524000Y-76708000D02*
X129449000Y-77633000D01*
D32*
X126759000Y-76708000D02*
X128524000Y-76708000D01*
D33*
%TO.N,GND*%
X126746000Y-74663000D02*
X126759000Y-74676000D01*
X126746000Y-73279000D02*
X126746000Y-74663000D01*
D32*
X127000000Y-64490000D02*
X127000000Y-63246000D01*
%TO.N,+3.3V*%
X129449000Y-80554000D02*
X129449000Y-78069000D01*
D33*
%TO.N,/USB_D+*%
X147828000Y-62230000D02*
X147904019Y-62306019D01*
X147828000Y-61470000D02*
X147828000Y-62230000D01*
D34*
X147904019Y-62306019D02*
X149303000Y-62306019D01*
X146434428Y-62306019D02*
X147904019Y-62306019D01*
D32*
%TO.N,+3.3V*%
X147828000Y-60450000D02*
X147828000Y-57658000D01*
D33*
%TO.N,GND*%
X136385000Y-75692000D02*
X136385000Y-77076000D01*
X136385000Y-77076000D02*
X136398000Y-77089000D01*
D32*
%TO.N,+3.3V*%
X130820000Y-86360000D02*
X119380000Y-86360000D01*
%TO.N,GND*%
X140970000Y-82806000D02*
X140970000Y-83820000D01*
X140843000Y-86360000D02*
X140970000Y-86233000D01*
X138440000Y-86360000D02*
X140843000Y-86360000D01*
X125476000Y-52832000D02*
X125476000Y-55245000D01*
X137668000Y-52832000D02*
X137668000Y-55118000D01*
D33*
%TO.N,/SWCLK*%
X140208000Y-58420000D02*
X140208000Y-52832000D01*
X136100000Y-62528000D02*
X140208000Y-58420000D01*
X136100000Y-65179500D02*
X136100000Y-62528000D01*
%TO.N,GND*%
X149200000Y-60681000D02*
X149098000Y-60579000D01*
X150253000Y-60681000D02*
X149200000Y-60681000D01*
D32*
X139814000Y-66421000D02*
X139700000Y-66307000D01*
X140970000Y-66421000D02*
X139814000Y-66421000D01*
X131953000Y-75565000D02*
X131826000Y-75438000D01*
X131953000Y-76708000D02*
X131953000Y-75565000D01*
X123825000Y-67564000D02*
X122428000Y-67564000D01*
X122004000Y-67988000D02*
X122428000Y-67564000D01*
X120230000Y-67988000D02*
X122004000Y-67988000D01*
D33*
X122428000Y-72403000D02*
X122288000Y-72403000D01*
X122288000Y-72403000D02*
X121031000Y-73660000D01*
X118530000Y-71843000D02*
X118491000Y-71882000D01*
X118530000Y-70188000D02*
X118530000Y-71843000D01*
%TO.N,+3.3V*%
X141999000Y-64757000D02*
X146685000Y-60071000D01*
X147320000Y-57658000D02*
X147828000Y-57658000D01*
X139700000Y-64757000D02*
X141999000Y-64757000D01*
X146685000Y-60071000D02*
X146685000Y-58293000D01*
X146685000Y-58293000D02*
X147320000Y-57658000D01*
D32*
X147828000Y-53848000D02*
X147828000Y-57658000D01*
X145288000Y-52832000D02*
X146812000Y-52832000D01*
X146812000Y-52832000D02*
X147828000Y-53848000D01*
X145288000Y-51562000D02*
X144145000Y-50419000D01*
X145288000Y-52832000D02*
X145288000Y-51562000D01*
D33*
X129187500Y-63852500D02*
X129187500Y-66592000D01*
X130048000Y-62992000D02*
X129187500Y-63852500D01*
D32*
X115896000Y-63754000D02*
X115352000Y-63210000D01*
X125603000Y-63754000D02*
X115896000Y-63754000D01*
X125603000Y-60198000D02*
X125603000Y-63754000D01*
X126365000Y-59436000D02*
X125603000Y-60198000D01*
X129781000Y-59436000D02*
X126365000Y-59436000D01*
X144145000Y-50419000D02*
X133858000Y-50419000D01*
X133096000Y-51181000D02*
X133858000Y-50419000D01*
X133096000Y-52832000D02*
X133096000Y-51181000D01*
X117221000Y-50419000D02*
X133858000Y-50419000D01*
X115951000Y-51689000D02*
X117221000Y-50419000D01*
X115951000Y-60960000D02*
X115951000Y-51689000D01*
X115951000Y-62611000D02*
X115951000Y-62484000D01*
X115443000Y-63119000D02*
X115951000Y-62611000D01*
X115352000Y-63210000D02*
X115443000Y-63119000D01*
X113190000Y-63210000D02*
X115352000Y-63210000D01*
X119380000Y-86360000D02*
X113390000Y-80370000D01*
X113390000Y-80370000D02*
X113390000Y-63410000D01*
X113390000Y-63410000D02*
X113190000Y-63210000D01*
X131265750Y-82370750D02*
X131710250Y-81926250D01*
X131265750Y-82370750D02*
X129449000Y-80554000D01*
X130820000Y-82816500D02*
X131265750Y-82370750D01*
X131710250Y-81926250D02*
X132610500Y-81026000D01*
X130820000Y-86360000D02*
X130820000Y-82816500D01*
X132076000Y-80491500D02*
X132610500Y-81026000D01*
X132076000Y-79248000D02*
X132076000Y-80491500D01*
X134366000Y-80772000D02*
X134112000Y-81026000D01*
X134364000Y-80643000D02*
X134366000Y-80645000D01*
X134366000Y-80645000D02*
X134366000Y-80772000D01*
X134364000Y-79248000D02*
X134364000Y-80643000D01*
X134364000Y-78245500D02*
X134350500Y-78232000D01*
X134364000Y-79248000D02*
X134364000Y-78245500D01*
X136017000Y-78359000D02*
X135890000Y-78232000D01*
X140208000Y-78359000D02*
X137935000Y-76086000D01*
X142595500Y-80746500D02*
X140208000Y-78359000D01*
X140208000Y-78359000D02*
X136017000Y-78359000D01*
X143510000Y-80746500D02*
X142595500Y-80746500D01*
X137935000Y-76086000D02*
X137935000Y-75692000D01*
X143662500Y-80899000D02*
X143510000Y-80746500D01*
X148656000Y-80579000D02*
X148336000Y-80899000D01*
X148656000Y-79096000D02*
X148656000Y-80579000D01*
X148336000Y-80899000D02*
X143662500Y-80899000D01*
D33*
%TO.N,Net-(C4-Pad1)*%
X130276000Y-74904000D02*
X129794000Y-74422000D01*
X130276000Y-75438000D02*
X130276000Y-74904000D01*
X129794000Y-72971959D02*
X129794000Y-74422000D01*
X131701041Y-71064918D02*
X129794000Y-72971959D01*
X131701041Y-69934380D02*
X131701041Y-71064918D01*
X131120661Y-69354000D02*
X131701041Y-69934380D01*
X130261339Y-69592000D02*
X130499339Y-69354000D01*
X130499339Y-69354000D02*
X131120661Y-69354000D01*
X129187500Y-69592000D02*
X130261339Y-69592000D01*
D32*
%TO.N,/Power indicator*%
X143510000Y-82321500D02*
X142974500Y-81786000D01*
X142974500Y-81786000D02*
X140970000Y-81786000D01*
D33*
%TO.N,GND*%
X131100000Y-66711000D02*
X131191000Y-66802000D01*
X131100000Y-65179500D02*
X131100000Y-66711000D01*
X130798000Y-70092000D02*
X130810000Y-70104000D01*
X129187500Y-70092000D02*
X130798000Y-70092000D01*
D32*
X114899000Y-58710000D02*
X114935000Y-58674000D01*
X113190000Y-58710000D02*
X114899000Y-58710000D01*
D33*
%TO.N,/I2C2_SDA*%
X135900000Y-79764000D02*
X135900000Y-86360000D01*
X135384000Y-79248000D02*
X135900000Y-79764000D01*
X135100000Y-78964000D02*
X135384000Y-79248000D01*
X135100000Y-73504500D02*
X135100000Y-78964000D01*
%TO.N,/I2C2_SCL*%
X133360000Y-79512000D02*
X133360000Y-86360000D01*
X133096000Y-79248000D02*
X133360000Y-79512000D01*
X133223000Y-79121000D02*
X133096000Y-79248000D01*
X133223000Y-75819000D02*
X133223000Y-79121000D01*
X134600000Y-73504500D02*
X134600000Y-74442000D01*
X134600000Y-74442000D02*
X133223000Y-75819000D01*
%TO.N,/BOOT0*%
X132600000Y-65179500D02*
X132600000Y-58432000D01*
%TO.N,/USART1_RX*%
X133477000Y-58293000D02*
X128016000Y-52832000D01*
X133477000Y-63119000D02*
X133477000Y-58293000D01*
X133100000Y-63496000D02*
X133477000Y-63119000D01*
X133100000Y-65179500D02*
X133100000Y-63496000D01*
%TO.N,/USART1_TX*%
X134620000Y-56896000D02*
X130556000Y-52832000D01*
X134620000Y-63246000D02*
X134620000Y-56896000D01*
X133600000Y-64266000D02*
X134620000Y-63246000D01*
X133600000Y-65179500D02*
X133600000Y-64266000D01*
%TO.N,/BOOT0*%
X124460000Y-57912000D02*
X132080000Y-57912000D01*
X132080000Y-57912000D02*
X132600000Y-58432000D01*
X124460000Y-60958000D02*
X124460000Y-57912000D01*
X124462000Y-60960000D02*
X124460000Y-60958000D01*
%TO.N,Net-(R4-Pad1)*%
X123442000Y-60960000D02*
X122692000Y-61710000D01*
X122692000Y-61710000D02*
X113190000Y-61710000D01*
%TO.N,/SWDIO*%
X142748000Y-59055000D02*
X142748000Y-52832000D01*
X136425000Y-67343041D02*
X136425000Y-66340959D01*
X136425000Y-66340959D02*
X137012500Y-65753459D01*
X137012500Y-65753459D02*
X137012500Y-64790500D01*
X137512500Y-67592000D02*
X136673959Y-67592000D01*
X136673959Y-67592000D02*
X136425000Y-67343041D01*
X137012500Y-64790500D02*
X142748000Y-59055000D01*
D34*
%TO.N,/USB_D-*%
X150239397Y-62631000D02*
X150253000Y-62631000D01*
X150114397Y-62756000D02*
X150239397Y-62631000D01*
X146620817Y-62756000D02*
X150114397Y-62756000D01*
X140809816Y-68567001D02*
X146620817Y-62756000D01*
X137537499Y-68567001D02*
X140809816Y-68567001D01*
X137512500Y-68592000D02*
X137537499Y-68567001D01*
%TO.N,/USB_D+*%
X149303000Y-62106000D02*
X150128000Y-62106000D01*
X150128000Y-62106000D02*
X150253000Y-61981000D01*
X140623448Y-68116999D02*
X146434428Y-62306019D01*
X137537499Y-68116999D02*
X140623448Y-68116999D01*
X149303000Y-62306019D02*
X149303000Y-62106000D01*
X137512500Y-68092000D02*
X137537499Y-68116999D01*
D33*
%TO.N,GND*%
X124486000Y-70345000D02*
X122428000Y-72403000D01*
X125984000Y-70345000D02*
X124486000Y-70345000D01*
%TO.N,+3.3VA*%
X123444000Y-77724000D02*
X123444000Y-76441000D01*
X123952000Y-78232000D02*
X123444000Y-77724000D01*
X128524000Y-78232000D02*
X123952000Y-78232000D01*
X123444000Y-76441000D02*
X125209000Y-74676000D01*
X125209000Y-72670000D02*
X125984000Y-71895000D01*
X125209000Y-74676000D02*
X125209000Y-72670000D01*
%TO.N,GND*%
X126237000Y-70092000D02*
X125984000Y-70345000D01*
X129187500Y-70092000D02*
X126237000Y-70092000D01*
%TO.N,+3.3VA*%
X127287000Y-70592000D02*
X125984000Y-71895000D01*
X129187500Y-70592000D02*
X127287000Y-70592000D01*
%TO.N,/HSE_IN*%
X118530000Y-68088000D02*
X118530000Y-67988000D01*
X119556000Y-69114000D02*
X118530000Y-68088000D01*
X122428000Y-69114000D02*
X119556000Y-69114000D01*
%TO.N,GND*%
X135600000Y-74907000D02*
X136385000Y-75692000D01*
D32*
X131331000Y-62725000D02*
X131598000Y-62992000D01*
D33*
X135600000Y-73504500D02*
X135600000Y-74907000D01*
X137512500Y-67092000D02*
X138915000Y-67092000D01*
D32*
X131331000Y-59436000D02*
X131331000Y-62725000D01*
D33*
X131100000Y-63490000D02*
X131598000Y-62992000D01*
X138915000Y-67092000D02*
X139700000Y-66307000D01*
X131100000Y-65179500D02*
X131100000Y-63490000D01*
%TO.N,+3.3V*%
X129187500Y-66592000D02*
X127552000Y-66592000D01*
X137512500Y-65179500D02*
X137935000Y-64757000D01*
X137935000Y-74435000D02*
X137935000Y-75692000D01*
X137935000Y-64757000D02*
X139700000Y-64757000D01*
X137004500Y-73504500D02*
X137935000Y-74435000D01*
D32*
X129781000Y-62725000D02*
X130048000Y-62992000D01*
X129781000Y-59436000D02*
X129781000Y-62725000D01*
D33*
X136100000Y-73504500D02*
X137004500Y-73504500D01*
X130600000Y-65179500D02*
X130600000Y-63544000D01*
X137512500Y-66592000D02*
X137512500Y-65179500D01*
X127552000Y-66592000D02*
X127000000Y-66040000D01*
X130600000Y-63544000D02*
X130048000Y-62992000D01*
%TO.N,/HSE_IN*%
X122950000Y-68592000D02*
X129187500Y-68592000D01*
X122428000Y-69114000D02*
X122950000Y-68592000D01*
%TO.N,/HSE_OUT*%
X121763000Y-70188000D02*
X122428000Y-70853000D01*
X120230000Y-70188000D02*
X121763000Y-70188000D01*
X124189000Y-69092000D02*
X129187500Y-69092000D01*
X122428000Y-70853000D02*
X124189000Y-69092000D01*
%TD*%
%TA.AperFunction,Conductor*%
%TO.N,GND*%
G36*
X150311039Y-68599685D02*
G01*
X150356794Y-68652489D01*
X150368000Y-68704000D01*
X150368000Y-71120000D01*
X152273000Y-71120000D01*
X152273000Y-70736000D01*
X152292685Y-70668961D01*
X152345489Y-70623206D01*
X152397000Y-70612000D01*
X154562000Y-70612000D01*
X154629039Y-70631685D01*
X154674794Y-70684489D01*
X154686000Y-70736000D01*
X154686000Y-73275954D01*
X154666315Y-73342993D01*
X154613511Y-73388748D01*
X154556102Y-73399814D01*
X152036808Y-73279848D01*
X152019000Y-73279000D01*
X152019000Y-74806000D01*
X151999315Y-74873039D01*
X151946511Y-74918794D01*
X151895000Y-74930000D01*
X150111000Y-74930000D01*
X150043961Y-74910315D01*
X149998206Y-74857511D01*
X149987000Y-74806000D01*
X149987000Y-71120000D01*
X149977724Y-71118609D01*
X149977723Y-71118608D01*
X147993536Y-70820980D01*
X147552606Y-70754841D01*
X147489228Y-70725430D01*
X147451812Y-70666423D01*
X147447000Y-70632213D01*
X147447000Y-68704000D01*
X147466685Y-68636961D01*
X147519489Y-68591206D01*
X147571000Y-68580000D01*
X150244000Y-68580000D01*
X150311039Y-68599685D01*
G37*
%TD.AperFunction*%
%TD*%
%TA.AperFunction,Conductor*%
%TO.N,VBUS*%
G36*
X151042996Y-63153350D02*
G01*
X151101109Y-63192140D01*
X151129026Y-63256190D01*
X151130000Y-63271703D01*
X151130000Y-63503000D01*
X151110315Y-63570039D01*
X151057511Y-63615794D01*
X151006000Y-63627000D01*
X147320000Y-63627000D01*
X147193000Y-63754000D01*
X147188328Y-63766147D01*
X145925148Y-67050414D01*
X145920322Y-67061355D01*
X145829064Y-67243871D01*
X145788708Y-67287256D01*
X145796000Y-67315345D01*
X145796000Y-68326000D01*
X145923000Y-68453000D01*
X146633638Y-68453000D01*
X146700677Y-68472685D01*
X146721319Y-68489319D01*
X146775681Y-68543681D01*
X146809166Y-68605004D01*
X146812000Y-68631362D01*
X146812000Y-70612000D01*
X147283681Y-71083681D01*
X147317166Y-71145004D01*
X147320000Y-71171362D01*
X147320000Y-73989638D01*
X147300315Y-74056677D01*
X147283681Y-74077319D01*
X147229319Y-74131681D01*
X147167996Y-74165166D01*
X147141638Y-74168000D01*
X145720362Y-74168000D01*
X145653323Y-74148315D01*
X145632681Y-74131681D01*
X145578319Y-74077319D01*
X145544834Y-74015996D01*
X145542000Y-73989638D01*
X145542000Y-67331845D01*
X145549466Y-67289469D01*
X145555466Y-67272969D01*
X145596875Y-67216693D01*
X145601354Y-67214980D01*
X145596115Y-67166455D01*
X145601621Y-67146041D01*
X145634364Y-67056000D01*
X146830674Y-63766147D01*
X147022683Y-63238124D01*
X147064092Y-63181848D01*
X147129354Y-63156893D01*
X147139217Y-63156500D01*
X150947646Y-63156500D01*
X150951300Y-63156065D01*
X150951302Y-63156065D01*
X150964605Y-63154482D01*
X150964607Y-63154482D01*
X150973846Y-63153382D01*
X150976517Y-63152196D01*
X151042996Y-63153350D01*
G37*
%TD.AperFunction*%
%TD*%
%TA.AperFunction,Conductor*%
%TO.N,+3.3V*%
G36*
X149367748Y-71647685D02*
G01*
X149388300Y-71664229D01*
X149442496Y-71718318D01*
X149476039Y-71779605D01*
X149478899Y-71806326D01*
X149474518Y-74040751D01*
X149474518Y-74044000D01*
X149454833Y-74111039D01*
X149402029Y-74156794D01*
X149350518Y-74168000D01*
X148966518Y-74168000D01*
X148839518Y-74295000D01*
X148839518Y-75311000D01*
X148966518Y-75438000D01*
X152395518Y-75438000D01*
X152522518Y-75311000D01*
X152522518Y-74092362D01*
X152542203Y-74025323D01*
X152558837Y-74004681D01*
X152635289Y-73928229D01*
X152667516Y-73905001D01*
X152877336Y-73800091D01*
X152932790Y-73787000D01*
X154144246Y-73787000D01*
X154199700Y-73800091D01*
X154409520Y-73905001D01*
X154441747Y-73928229D01*
X154518199Y-74004681D01*
X154551684Y-74066004D01*
X154554518Y-74092362D01*
X154554518Y-75132638D01*
X154534833Y-75199677D01*
X154518199Y-75220319D01*
X154463837Y-75274681D01*
X154402514Y-75308166D01*
X154376156Y-75311000D01*
X153157518Y-75311000D01*
X153066837Y-75401681D01*
X153005514Y-75435166D01*
X152979156Y-75438000D01*
X152903518Y-75438000D01*
X152685837Y-75655681D01*
X152624514Y-75689166D01*
X152598156Y-75692000D01*
X149220518Y-75692000D01*
X149093518Y-75819000D01*
X149093518Y-77851000D01*
X149220518Y-77978000D01*
X150439156Y-77978000D01*
X150506195Y-77997685D01*
X150526837Y-78014319D01*
X150581199Y-78068681D01*
X150614684Y-78130004D01*
X150617518Y-78156362D01*
X150617518Y-80085638D01*
X150597833Y-80152677D01*
X150581199Y-80173319D01*
X150526837Y-80227681D01*
X150465514Y-80261166D01*
X150439156Y-80264000D01*
X146858880Y-80264000D01*
X146791841Y-80244315D01*
X146771199Y-80227681D01*
X146716837Y-80173319D01*
X146683352Y-80111996D01*
X146680518Y-80085638D01*
X146680518Y-78029362D01*
X146700203Y-77962323D01*
X146716837Y-77941681D01*
X146771199Y-77887319D01*
X146832522Y-77853834D01*
X146858880Y-77851000D01*
X147442518Y-77851000D01*
X147629302Y-77788739D01*
X147806605Y-77729638D01*
X147806606Y-77729637D01*
X147823518Y-77724000D01*
X147823518Y-71752000D01*
X147843203Y-71684961D01*
X147896007Y-71639206D01*
X147947518Y-71628000D01*
X149300709Y-71628000D01*
X149367748Y-71647685D01*
G37*
%TD.AperFunction*%
%TD*%
M02*
