%TF.GenerationSoftware,KiCad,Pcbnew,(6.0.8)*%
%TF.CreationDate,2023-08-22T19:06:44+05:30*%
%TF.ProjectId,stmwork,73746d77-6f72-46b2-9e6b-696361645f70,v1*%
%TF.SameCoordinates,Original*%
%TF.FileFunction,Paste,Top*%
%TF.FilePolarity,Positive*%
%FSLAX46Y46*%
G04 Gerber Fmt 4.6, Leading zero omitted, Abs format (unit mm)*
G04 Created by KiCad (PCBNEW (6.0.8)) date 2023-08-22 19:06:44*
%MOMM*%
%LPD*%
G01*
G04 APERTURE LIST*
G04 Aperture macros list*
%AMRoundRect*
0 Rectangle with rounded corners*
0 $1 Rounding radius*
0 $2 $3 $4 $5 $6 $7 $8 $9 X,Y pos of 4 corners*
0 Add a 4 corners polygon primitive as box body*
4,1,4,$2,$3,$4,$5,$6,$7,$8,$9,$2,$3,0*
0 Add four circle primitives for the rounded corners*
1,1,$1+$1,$2,$3*
1,1,$1+$1,$4,$5*
1,1,$1+$1,$6,$7*
1,1,$1+$1,$8,$9*
0 Add four rect primitives between the rounded corners*
20,1,$1+$1,$2,$3,$4,$5,0*
20,1,$1+$1,$4,$5,$6,$7,0*
20,1,$1+$1,$6,$7,$8,$9,0*
20,1,$1+$1,$8,$9,$2,$3,0*%
G04 Aperture macros list end*
%ADD10R,0.800000X1.000000*%
%ADD11R,1.500000X0.700000*%
%ADD12RoundRect,0.225000X-0.250000X0.225000X-0.250000X-0.225000X0.250000X-0.225000X0.250000X0.225000X0*%
%ADD13RoundRect,0.225000X0.250000X-0.225000X0.250000X0.225000X-0.250000X0.225000X-0.250000X-0.225000X0*%
%ADD14RoundRect,0.135000X-0.135000X-0.185000X0.135000X-0.185000X0.135000X0.185000X-0.135000X0.185000X0*%
%ADD15RoundRect,0.250000X-0.250000X-0.475000X0.250000X-0.475000X0.250000X0.475000X-0.250000X0.475000X0*%
%ADD16RoundRect,0.225000X0.225000X0.250000X-0.225000X0.250000X-0.225000X-0.250000X0.225000X-0.250000X0*%
%ADD17RoundRect,0.250000X0.475000X-0.250000X0.475000X0.250000X-0.475000X0.250000X-0.475000X-0.250000X0*%
%ADD18RoundRect,0.075000X-0.662500X-0.075000X0.662500X-0.075000X0.662500X0.075000X-0.662500X0.075000X0*%
%ADD19RoundRect,0.075000X-0.075000X-0.662500X0.075000X-0.662500X0.075000X0.662500X-0.075000X0.662500X0*%
%ADD20R,1.500000X2.000000*%
%ADD21R,3.800000X2.000000*%
%ADD22RoundRect,0.218750X0.256250X-0.218750X0.256250X0.218750X-0.256250X0.218750X-0.256250X-0.218750X0*%
%ADD23RoundRect,0.225000X-0.225000X-0.250000X0.225000X-0.250000X0.225000X0.250000X-0.225000X0.250000X0*%
%ADD24RoundRect,0.135000X-0.185000X0.135000X-0.185000X-0.135000X0.185000X-0.135000X0.185000X0.135000X0*%
%ADD25R,1.300000X0.450000*%
%ADD26R,1.200000X1.400000*%
G04 APERTURE END LIST*
D10*
%TO.C,SW1*%
X112540000Y-64610000D03*
X110330000Y-64610000D03*
X112540000Y-57310000D03*
X110330000Y-57310000D03*
D11*
X113190000Y-58710000D03*
X113190000Y-61710000D03*
X113190000Y-63210000D03*
%TD*%
D12*
%TO.C,C8*%
X139700000Y-64757000D03*
X139700000Y-66307000D03*
%TD*%
D13*
%TO.C,C6*%
X122428000Y-69114000D03*
X122428000Y-67564000D03*
%TD*%
D14*
%TO.C,R2*%
X132076000Y-79248000D03*
X133096000Y-79248000D03*
%TD*%
D15*
%TO.C,C1*%
X146182000Y-69850000D03*
X148082000Y-69850000D03*
%TD*%
D14*
%TO.C,R3*%
X134364000Y-79248000D03*
X135384000Y-79248000D03*
%TD*%
%TO.C,R4*%
X123442000Y-60960000D03*
X124462000Y-60960000D03*
%TD*%
D16*
%TO.C,C7*%
X137935000Y-75692000D03*
X136385000Y-75692000D03*
%TD*%
D17*
%TO.C,C2*%
X153543000Y-74483000D03*
X153543000Y-72583000D03*
%TD*%
D12*
%TO.C,C9*%
X122428000Y-70853000D03*
X122428000Y-72403000D03*
%TD*%
D13*
%TO.C,C5*%
X127000000Y-66040000D03*
X127000000Y-64490000D03*
%TD*%
D18*
%TO.C,U2*%
X129187500Y-66592000D03*
X129187500Y-67092000D03*
X129187500Y-67592000D03*
X129187500Y-68092000D03*
X129187500Y-68592000D03*
X129187500Y-69092000D03*
X129187500Y-69592000D03*
X129187500Y-70092000D03*
X129187500Y-70592000D03*
X129187500Y-71092000D03*
X129187500Y-71592000D03*
X129187500Y-72092000D03*
D19*
X130600000Y-73504500D03*
X131100000Y-73504500D03*
X131600000Y-73504500D03*
X132100000Y-73504500D03*
X132600000Y-73504500D03*
X133100000Y-73504500D03*
X133600000Y-73504500D03*
X134100000Y-73504500D03*
X134600000Y-73504500D03*
X135100000Y-73504500D03*
X135600000Y-73504500D03*
X136100000Y-73504500D03*
D18*
X137512500Y-72092000D03*
X137512500Y-71592000D03*
X137512500Y-71092000D03*
X137512500Y-70592000D03*
X137512500Y-70092000D03*
X137512500Y-69592000D03*
X137512500Y-69092000D03*
X137512500Y-68592000D03*
X137512500Y-68092000D03*
X137512500Y-67592000D03*
X137512500Y-67092000D03*
X137512500Y-66592000D03*
D19*
X136100000Y-65179500D03*
X135600000Y-65179500D03*
X135100000Y-65179500D03*
X134600000Y-65179500D03*
X134100000Y-65179500D03*
X133600000Y-65179500D03*
X133100000Y-65179500D03*
X132600000Y-65179500D03*
X132100000Y-65179500D03*
X131600000Y-65179500D03*
X131100000Y-65179500D03*
X130600000Y-65179500D03*
%TD*%
D13*
%TO.C,C11*%
X125984000Y-71895000D03*
X125984000Y-70345000D03*
%TD*%
D20*
%TO.C,U1*%
X150956000Y-72796000D03*
X148656000Y-72796000D03*
D21*
X148656000Y-79096000D03*
D20*
X146356000Y-72796000D03*
%TD*%
D22*
%TO.C,D1*%
X143510000Y-82321500D03*
X143510000Y-80746500D03*
%TD*%
D23*
%TO.C,C3*%
X129781000Y-59436000D03*
X131331000Y-59436000D03*
%TD*%
D24*
%TO.C,R1*%
X140970000Y-81786000D03*
X140970000Y-82806000D03*
%TD*%
D25*
%TO.C,J3*%
X150253000Y-63281000D03*
X150253000Y-62631000D03*
X150253000Y-61981000D03*
X150253000Y-61331000D03*
X150253000Y-60681000D03*
%TD*%
D23*
%TO.C,C10*%
X130048000Y-62992000D03*
X131598000Y-62992000D03*
%TD*%
%TO.C,C4*%
X130276000Y-75438000D03*
X131826000Y-75438000D03*
%TD*%
D24*
%TO.C,R5*%
X147828000Y-60450000D03*
X147828000Y-61470000D03*
%TD*%
D16*
%TO.C,C13*%
X126759000Y-76708000D03*
X125209000Y-76708000D03*
%TD*%
D26*
%TO.C,Y1*%
X118530000Y-67988000D03*
X118530000Y-70188000D03*
X120230000Y-70188000D03*
X120230000Y-67988000D03*
%TD*%
D16*
%TO.C,C12*%
X126759000Y-74676000D03*
X125209000Y-74676000D03*
%TD*%
D22*
%TO.C,FB1*%
X128524000Y-78283000D03*
X128524000Y-76708000D03*
%TD*%
M02*
