%TF.GenerationSoftware,KiCad,Pcbnew,7.0.8*%
%TF.CreationDate,2024-04-08T22:48:43+05:30*%
%TF.ProjectId,Esp32_relay,45737033-325f-4726-956c-61792e6b6963,rev?*%
%TF.SameCoordinates,PX4046330PY7125ac8*%
%TF.FileFunction,Legend,Top*%
%TF.FilePolarity,Positive*%
%FSLAX46Y46*%
G04 Gerber Fmt 4.6, Leading zero omitted, Abs format (unit mm)*
G04 Created by KiCad (PCBNEW 7.0.8) date 2024-04-08 22:48:43*
%MOMM*%
%LPD*%
G01*
G04 APERTURE LIST*
%ADD10C,0.125000*%
%ADD11C,0.150000*%
%ADD12C,0.400000*%
%ADD13C,0.200000*%
%ADD14C,0.300000*%
%ADD15C,0.254000*%
%ADD16C,0.120000*%
%ADD17C,0.127000*%
%ADD18C,0.100000*%
G04 APERTURE END LIST*
D10*
X106498621Y70767715D02*
X106748621Y70410572D01*
X106927192Y70767715D02*
X106927192Y70017715D01*
X106927192Y70017715D02*
X106641478Y70017715D01*
X106641478Y70017715D02*
X106570049Y70053429D01*
X106570049Y70053429D02*
X106534335Y70089143D01*
X106534335Y70089143D02*
X106498621Y70160572D01*
X106498621Y70160572D02*
X106498621Y70267715D01*
X106498621Y70267715D02*
X106534335Y70339143D01*
X106534335Y70339143D02*
X106570049Y70374858D01*
X106570049Y70374858D02*
X106641478Y70410572D01*
X106641478Y70410572D02*
X106927192Y70410572D01*
X106248621Y70767715D02*
X105855764Y70267715D01*
X106248621Y70267715D02*
X105855764Y70767715D01*
D11*
X101768087Y70052129D02*
X101839516Y70016415D01*
X101839516Y70016415D02*
X101946658Y70016415D01*
X101946658Y70016415D02*
X102053801Y70052129D01*
X102053801Y70052129D02*
X102125230Y70123558D01*
X102125230Y70123558D02*
X102160944Y70194986D01*
X102160944Y70194986D02*
X102196658Y70337843D01*
X102196658Y70337843D02*
X102196658Y70444986D01*
X102196658Y70444986D02*
X102160944Y70587843D01*
X102160944Y70587843D02*
X102125230Y70659272D01*
X102125230Y70659272D02*
X102053801Y70730700D01*
X102053801Y70730700D02*
X101946658Y70766415D01*
X101946658Y70766415D02*
X101875230Y70766415D01*
X101875230Y70766415D02*
X101768087Y70730700D01*
X101768087Y70730700D02*
X101732373Y70694986D01*
X101732373Y70694986D02*
X101732373Y70444986D01*
X101732373Y70444986D02*
X101875230Y70444986D01*
X101410944Y70266415D02*
X101410944Y70766415D01*
X101410944Y70337843D02*
X101375230Y70302129D01*
X101375230Y70302129D02*
X101303801Y70266415D01*
X101303801Y70266415D02*
X101196658Y70266415D01*
X101196658Y70266415D02*
X101125230Y70302129D01*
X101125230Y70302129D02*
X101089516Y70373558D01*
X101089516Y70373558D02*
X101089516Y70766415D01*
X100410945Y70766415D02*
X100410945Y70016415D01*
X100410945Y70730700D02*
X100482373Y70766415D01*
X100482373Y70766415D02*
X100625230Y70766415D01*
X100625230Y70766415D02*
X100696659Y70730700D01*
X100696659Y70730700D02*
X100732373Y70694986D01*
X100732373Y70694986D02*
X100768087Y70623558D01*
X100768087Y70623558D02*
X100768087Y70409272D01*
X100768087Y70409272D02*
X100732373Y70337843D01*
X100732373Y70337843D02*
X100696659Y70302129D01*
X100696659Y70302129D02*
X100625230Y70266415D01*
X100625230Y70266415D02*
X100482373Y70266415D01*
X100482373Y70266415D02*
X100410945Y70302129D01*
D12*
X100875347Y4913667D02*
X102399157Y4913667D01*
X101637252Y4151762D02*
X101637252Y5675572D01*
D13*
X84076161Y6167718D02*
X84123780Y6262956D01*
X84123780Y6262956D02*
X84123780Y6405813D01*
X84123780Y6405813D02*
X84076161Y6548670D01*
X84076161Y6548670D02*
X83980923Y6643908D01*
X83980923Y6643908D02*
X83885685Y6691527D01*
X83885685Y6691527D02*
X83695209Y6739146D01*
X83695209Y6739146D02*
X83552352Y6739146D01*
X83552352Y6739146D02*
X83361876Y6691527D01*
X83361876Y6691527D02*
X83266638Y6643908D01*
X83266638Y6643908D02*
X83171400Y6548670D01*
X83171400Y6548670D02*
X83123780Y6405813D01*
X83123780Y6405813D02*
X83123780Y6310575D01*
X83123780Y6310575D02*
X83171400Y6167718D01*
X83171400Y6167718D02*
X83219019Y6120099D01*
X83219019Y6120099D02*
X83552352Y6120099D01*
X83552352Y6120099D02*
X83552352Y6310575D01*
X83790447Y5691527D02*
X83123780Y5691527D01*
X83695209Y5691527D02*
X83742828Y5643908D01*
X83742828Y5643908D02*
X83790447Y5548670D01*
X83790447Y5548670D02*
X83790447Y5405813D01*
X83790447Y5405813D02*
X83742828Y5310575D01*
X83742828Y5310575D02*
X83647590Y5262956D01*
X83647590Y5262956D02*
X83123780Y5262956D01*
X83123780Y4358194D02*
X84123780Y4358194D01*
X83171400Y4358194D02*
X83123780Y4453432D01*
X83123780Y4453432D02*
X83123780Y4643908D01*
X83123780Y4643908D02*
X83171400Y4739146D01*
X83171400Y4739146D02*
X83219019Y4786765D01*
X83219019Y4786765D02*
X83314257Y4834384D01*
X83314257Y4834384D02*
X83599971Y4834384D01*
X83599971Y4834384D02*
X83695209Y4786765D01*
X83695209Y4786765D02*
X83742828Y4739146D01*
X83742828Y4739146D02*
X83790447Y4643908D01*
X83790447Y4643908D02*
X83790447Y4453432D01*
X83790447Y4453432D02*
X83742828Y4358194D01*
D11*
X104325487Y69940215D02*
X103896916Y69940215D01*
X104111201Y70690215D02*
X104111201Y69940215D01*
X103718344Y70690215D02*
X103325487Y70190215D01*
X103718344Y70190215D02*
X103325487Y70690215D01*
D13*
X109808682Y27399562D02*
X109713444Y27447181D01*
X109713444Y27447181D02*
X109570587Y27447181D01*
X109570587Y27447181D02*
X109427730Y27399562D01*
X109427730Y27399562D02*
X109332492Y27304324D01*
X109332492Y27304324D02*
X109284873Y27209086D01*
X109284873Y27209086D02*
X109237254Y27018610D01*
X109237254Y27018610D02*
X109237254Y26875753D01*
X109237254Y26875753D02*
X109284873Y26685277D01*
X109284873Y26685277D02*
X109332492Y26590039D01*
X109332492Y26590039D02*
X109427730Y26494800D01*
X109427730Y26494800D02*
X109570587Y26447181D01*
X109570587Y26447181D02*
X109665825Y26447181D01*
X109665825Y26447181D02*
X109808682Y26494800D01*
X109808682Y26494800D02*
X109856301Y26542420D01*
X109856301Y26542420D02*
X109856301Y26875753D01*
X109856301Y26875753D02*
X109665825Y26875753D01*
X110284873Y27113848D02*
X110284873Y26447181D01*
X110284873Y27018610D02*
X110332492Y27066229D01*
X110332492Y27066229D02*
X110427730Y27113848D01*
X110427730Y27113848D02*
X110570587Y27113848D01*
X110570587Y27113848D02*
X110665825Y27066229D01*
X110665825Y27066229D02*
X110713444Y26970991D01*
X110713444Y26970991D02*
X110713444Y26447181D01*
X111618206Y26447181D02*
X111618206Y27447181D01*
X111618206Y26494800D02*
X111522968Y26447181D01*
X111522968Y26447181D02*
X111332492Y26447181D01*
X111332492Y26447181D02*
X111237254Y26494800D01*
X111237254Y26494800D02*
X111189635Y26542420D01*
X111189635Y26542420D02*
X111142016Y26637658D01*
X111142016Y26637658D02*
X111142016Y26923372D01*
X111142016Y26923372D02*
X111189635Y27018610D01*
X111189635Y27018610D02*
X111237254Y27066229D01*
X111237254Y27066229D02*
X111332492Y27113848D01*
X111332492Y27113848D02*
X111522968Y27113848D01*
X111522968Y27113848D02*
X111618206Y27066229D01*
X107446482Y7714562D02*
X107351244Y7762181D01*
X107351244Y7762181D02*
X107208387Y7762181D01*
X107208387Y7762181D02*
X107065530Y7714562D01*
X107065530Y7714562D02*
X106970292Y7619324D01*
X106970292Y7619324D02*
X106922673Y7524086D01*
X106922673Y7524086D02*
X106875054Y7333610D01*
X106875054Y7333610D02*
X106875054Y7190753D01*
X106875054Y7190753D02*
X106922673Y7000277D01*
X106922673Y7000277D02*
X106970292Y6905039D01*
X106970292Y6905039D02*
X107065530Y6809800D01*
X107065530Y6809800D02*
X107208387Y6762181D01*
X107208387Y6762181D02*
X107303625Y6762181D01*
X107303625Y6762181D02*
X107446482Y6809800D01*
X107446482Y6809800D02*
X107494101Y6857420D01*
X107494101Y6857420D02*
X107494101Y7190753D01*
X107494101Y7190753D02*
X107303625Y7190753D01*
X107922673Y7428848D02*
X107922673Y6762181D01*
X107922673Y7333610D02*
X107970292Y7381229D01*
X107970292Y7381229D02*
X108065530Y7428848D01*
X108065530Y7428848D02*
X108208387Y7428848D01*
X108208387Y7428848D02*
X108303625Y7381229D01*
X108303625Y7381229D02*
X108351244Y7285991D01*
X108351244Y7285991D02*
X108351244Y6762181D01*
X109256006Y6762181D02*
X109256006Y7762181D01*
X109256006Y6809800D02*
X109160768Y6762181D01*
X109160768Y6762181D02*
X108970292Y6762181D01*
X108970292Y6762181D02*
X108875054Y6809800D01*
X108875054Y6809800D02*
X108827435Y6857420D01*
X108827435Y6857420D02*
X108779816Y6952658D01*
X108779816Y6952658D02*
X108779816Y7238372D01*
X108779816Y7238372D02*
X108827435Y7333610D01*
X108827435Y7333610D02*
X108875054Y7381229D01*
X108875054Y7381229D02*
X108970292Y7428848D01*
X108970292Y7428848D02*
X109160768Y7428848D01*
X109160768Y7428848D02*
X109256006Y7381229D01*
D12*
X109756147Y64197267D02*
X111279957Y64197267D01*
X110518052Y63435362D02*
X110518052Y64959172D01*
D11*
X109978988Y47107362D02*
X109883750Y47154981D01*
X109883750Y47154981D02*
X109740893Y47154981D01*
X109740893Y47154981D02*
X109598036Y47107362D01*
X109598036Y47107362D02*
X109502798Y47012124D01*
X109502798Y47012124D02*
X109455179Y46916886D01*
X109455179Y46916886D02*
X109407560Y46726410D01*
X109407560Y46726410D02*
X109407560Y46583553D01*
X109407560Y46583553D02*
X109455179Y46393077D01*
X109455179Y46393077D02*
X109502798Y46297839D01*
X109502798Y46297839D02*
X109598036Y46202600D01*
X109598036Y46202600D02*
X109740893Y46154981D01*
X109740893Y46154981D02*
X109836131Y46154981D01*
X109836131Y46154981D02*
X109978988Y46202600D01*
X109978988Y46202600D02*
X110026607Y46250220D01*
X110026607Y46250220D02*
X110026607Y46583553D01*
X110026607Y46583553D02*
X109836131Y46583553D01*
X110455179Y46821648D02*
X110455179Y46154981D01*
X110455179Y46726410D02*
X110502798Y46774029D01*
X110502798Y46774029D02*
X110598036Y46821648D01*
X110598036Y46821648D02*
X110740893Y46821648D01*
X110740893Y46821648D02*
X110836131Y46774029D01*
X110836131Y46774029D02*
X110883750Y46678791D01*
X110883750Y46678791D02*
X110883750Y46154981D01*
X111788512Y46154981D02*
X111788512Y47154981D01*
X111788512Y46202600D02*
X111693274Y46154981D01*
X111693274Y46154981D02*
X111502798Y46154981D01*
X111502798Y46154981D02*
X111407560Y46202600D01*
X111407560Y46202600D02*
X111359941Y46250220D01*
X111359941Y46250220D02*
X111312322Y46345458D01*
X111312322Y46345458D02*
X111312322Y46631172D01*
X111312322Y46631172D02*
X111359941Y46726410D01*
X111359941Y46726410D02*
X111407560Y46774029D01*
X111407560Y46774029D02*
X111502798Y46821648D01*
X111502798Y46821648D02*
X111693274Y46821648D01*
X111693274Y46821648D02*
X111788512Y46774029D01*
D12*
X111153147Y44791667D02*
X112676957Y44791667D01*
X111915052Y44029762D02*
X111915052Y45553572D01*
D14*
X90987253Y28621772D02*
X90487253Y29336058D01*
X90130110Y28621772D02*
X90130110Y30121772D01*
X90130110Y30121772D02*
X90701539Y30121772D01*
X90701539Y30121772D02*
X90844396Y30050343D01*
X90844396Y30050343D02*
X90915825Y29978915D01*
X90915825Y29978915D02*
X90987253Y29836058D01*
X90987253Y29836058D02*
X90987253Y29621772D01*
X90987253Y29621772D02*
X90915825Y29478915D01*
X90915825Y29478915D02*
X90844396Y29407486D01*
X90844396Y29407486D02*
X90701539Y29336058D01*
X90701539Y29336058D02*
X90130110Y29336058D01*
X91630110Y29407486D02*
X92130110Y29407486D01*
X92344396Y28621772D02*
X91630110Y28621772D01*
X91630110Y28621772D02*
X91630110Y30121772D01*
X91630110Y30121772D02*
X92344396Y30121772D01*
X92915825Y28693200D02*
X93130111Y28621772D01*
X93130111Y28621772D02*
X93487253Y28621772D01*
X93487253Y28621772D02*
X93630111Y28693200D01*
X93630111Y28693200D02*
X93701539Y28764629D01*
X93701539Y28764629D02*
X93772968Y28907486D01*
X93772968Y28907486D02*
X93772968Y29050343D01*
X93772968Y29050343D02*
X93701539Y29193200D01*
X93701539Y29193200D02*
X93630111Y29264629D01*
X93630111Y29264629D02*
X93487253Y29336058D01*
X93487253Y29336058D02*
X93201539Y29407486D01*
X93201539Y29407486D02*
X93058682Y29478915D01*
X93058682Y29478915D02*
X92987253Y29550343D01*
X92987253Y29550343D02*
X92915825Y29693200D01*
X92915825Y29693200D02*
X92915825Y29836058D01*
X92915825Y29836058D02*
X92987253Y29978915D01*
X92987253Y29978915D02*
X93058682Y30050343D01*
X93058682Y30050343D02*
X93201539Y30121772D01*
X93201539Y30121772D02*
X93558682Y30121772D01*
X93558682Y30121772D02*
X93772968Y30050343D01*
X94415824Y29407486D02*
X94915824Y29407486D01*
X95130110Y28621772D02*
X94415824Y28621772D01*
X94415824Y28621772D02*
X94415824Y30121772D01*
X94415824Y30121772D02*
X95130110Y30121772D01*
X95558682Y30121772D02*
X96415825Y30121772D01*
X95987253Y28621772D02*
X95987253Y30121772D01*
D12*
X109781547Y24878067D02*
X111305357Y24878067D01*
X110543452Y24116162D02*
X110543452Y25639972D01*
D14*
X8916603Y47552829D02*
X9630889Y47552829D01*
X9630889Y47552829D02*
X9630889Y46052829D01*
X9622310Y66239172D02*
X9622310Y67739172D01*
X9622310Y67739172D02*
X10193739Y67739172D01*
X10193739Y67739172D02*
X10336596Y67667743D01*
X10336596Y67667743D02*
X10408025Y67596315D01*
X10408025Y67596315D02*
X10479453Y67453458D01*
X10479453Y67453458D02*
X10479453Y67239172D01*
X10479453Y67239172D02*
X10408025Y67096315D01*
X10408025Y67096315D02*
X10336596Y67024886D01*
X10336596Y67024886D02*
X10193739Y66953458D01*
X10193739Y66953458D02*
X9622310Y66953458D01*
X81689310Y29610686D02*
X81903596Y29539258D01*
X81903596Y29539258D02*
X81975025Y29467829D01*
X81975025Y29467829D02*
X82046453Y29324972D01*
X82046453Y29324972D02*
X82046453Y29110686D01*
X82046453Y29110686D02*
X81975025Y28967829D01*
X81975025Y28967829D02*
X81903596Y28896400D01*
X81903596Y28896400D02*
X81760739Y28824972D01*
X81760739Y28824972D02*
X81189310Y28824972D01*
X81189310Y28824972D02*
X81189310Y30324972D01*
X81189310Y30324972D02*
X81689310Y30324972D01*
X81689310Y30324972D02*
X81832168Y30253543D01*
X81832168Y30253543D02*
X81903596Y30182115D01*
X81903596Y30182115D02*
X81975025Y30039258D01*
X81975025Y30039258D02*
X81975025Y29896400D01*
X81975025Y29896400D02*
X81903596Y29753543D01*
X81903596Y29753543D02*
X81832168Y29682115D01*
X81832168Y29682115D02*
X81689310Y29610686D01*
X81689310Y29610686D02*
X81189310Y29610686D01*
X82975025Y30324972D02*
X83260739Y30324972D01*
X83260739Y30324972D02*
X83403596Y30253543D01*
X83403596Y30253543D02*
X83546453Y30110686D01*
X83546453Y30110686D02*
X83617882Y29824972D01*
X83617882Y29824972D02*
X83617882Y29324972D01*
X83617882Y29324972D02*
X83546453Y29039258D01*
X83546453Y29039258D02*
X83403596Y28896400D01*
X83403596Y28896400D02*
X83260739Y28824972D01*
X83260739Y28824972D02*
X82975025Y28824972D01*
X82975025Y28824972D02*
X82832168Y28896400D01*
X82832168Y28896400D02*
X82689310Y29039258D01*
X82689310Y29039258D02*
X82617882Y29324972D01*
X82617882Y29324972D02*
X82617882Y29824972D01*
X82617882Y29824972D02*
X82689310Y30110686D01*
X82689310Y30110686D02*
X82832168Y30253543D01*
X82832168Y30253543D02*
X82975025Y30324972D01*
X84546454Y30324972D02*
X84832168Y30324972D01*
X84832168Y30324972D02*
X84975025Y30253543D01*
X84975025Y30253543D02*
X85117882Y30110686D01*
X85117882Y30110686D02*
X85189311Y29824972D01*
X85189311Y29824972D02*
X85189311Y29324972D01*
X85189311Y29324972D02*
X85117882Y29039258D01*
X85117882Y29039258D02*
X84975025Y28896400D01*
X84975025Y28896400D02*
X84832168Y28824972D01*
X84832168Y28824972D02*
X84546454Y28824972D01*
X84546454Y28824972D02*
X84403597Y28896400D01*
X84403597Y28896400D02*
X84260739Y29039258D01*
X84260739Y29039258D02*
X84189311Y29324972D01*
X84189311Y29324972D02*
X84189311Y29824972D01*
X84189311Y29824972D02*
X84260739Y30110686D01*
X84260739Y30110686D02*
X84403597Y30253543D01*
X84403597Y30253543D02*
X84546454Y30324972D01*
X85617883Y30324972D02*
X86475026Y30324972D01*
X86046454Y28824972D02*
X86046454Y30324972D01*
D11*
X65276505Y32565181D02*
X65276505Y33565181D01*
X65276505Y33565181D02*
X65514600Y33565181D01*
X65514600Y33565181D02*
X65657457Y33517562D01*
X65657457Y33517562D02*
X65752695Y33422324D01*
X65752695Y33422324D02*
X65800314Y33327086D01*
X65800314Y33327086D02*
X65847933Y33136610D01*
X65847933Y33136610D02*
X65847933Y32993753D01*
X65847933Y32993753D02*
X65800314Y32803277D01*
X65800314Y32803277D02*
X65752695Y32708039D01*
X65752695Y32708039D02*
X65657457Y32612800D01*
X65657457Y32612800D02*
X65514600Y32565181D01*
X65514600Y32565181D02*
X65276505Y32565181D01*
X66419362Y33136610D02*
X66324124Y33184229D01*
X66324124Y33184229D02*
X66276505Y33231848D01*
X66276505Y33231848D02*
X66228886Y33327086D01*
X66228886Y33327086D02*
X66228886Y33374705D01*
X66228886Y33374705D02*
X66276505Y33469943D01*
X66276505Y33469943D02*
X66324124Y33517562D01*
X66324124Y33517562D02*
X66419362Y33565181D01*
X66419362Y33565181D02*
X66609838Y33565181D01*
X66609838Y33565181D02*
X66705076Y33517562D01*
X66705076Y33517562D02*
X66752695Y33469943D01*
X66752695Y33469943D02*
X66800314Y33374705D01*
X66800314Y33374705D02*
X66800314Y33327086D01*
X66800314Y33327086D02*
X66752695Y33231848D01*
X66752695Y33231848D02*
X66705076Y33184229D01*
X66705076Y33184229D02*
X66609838Y33136610D01*
X66609838Y33136610D02*
X66419362Y33136610D01*
X66419362Y33136610D02*
X66324124Y33088991D01*
X66324124Y33088991D02*
X66276505Y33041372D01*
X66276505Y33041372D02*
X66228886Y32946134D01*
X66228886Y32946134D02*
X66228886Y32755658D01*
X66228886Y32755658D02*
X66276505Y32660420D01*
X66276505Y32660420D02*
X66324124Y32612800D01*
X66324124Y32612800D02*
X66419362Y32565181D01*
X66419362Y32565181D02*
X66609838Y32565181D01*
X66609838Y32565181D02*
X66705076Y32612800D01*
X66705076Y32612800D02*
X66752695Y32660420D01*
X66752695Y32660420D02*
X66800314Y32755658D01*
X66800314Y32755658D02*
X66800314Y32946134D01*
X66800314Y32946134D02*
X66752695Y33041372D01*
X66752695Y33041372D02*
X66705076Y33088991D01*
X66705076Y33088991D02*
X66609838Y33136610D01*
X47140019Y38695334D02*
X46663828Y38362001D01*
X47140019Y38123906D02*
X46140019Y38123906D01*
X46140019Y38123906D02*
X46140019Y38504858D01*
X46140019Y38504858D02*
X46187638Y38600096D01*
X46187638Y38600096D02*
X46235257Y38647715D01*
X46235257Y38647715D02*
X46330495Y38695334D01*
X46330495Y38695334D02*
X46473352Y38695334D01*
X46473352Y38695334D02*
X46568590Y38647715D01*
X46568590Y38647715D02*
X46616209Y38600096D01*
X46616209Y38600096D02*
X46663828Y38504858D01*
X46663828Y38504858D02*
X46663828Y38123906D01*
X46140019Y39028668D02*
X46140019Y39647715D01*
X46140019Y39647715D02*
X46520971Y39314382D01*
X46520971Y39314382D02*
X46520971Y39457239D01*
X46520971Y39457239D02*
X46568590Y39552477D01*
X46568590Y39552477D02*
X46616209Y39600096D01*
X46616209Y39600096D02*
X46711447Y39647715D01*
X46711447Y39647715D02*
X46949542Y39647715D01*
X46949542Y39647715D02*
X47044780Y39600096D01*
X47044780Y39600096D02*
X47092400Y39552477D01*
X47092400Y39552477D02*
X47140019Y39457239D01*
X47140019Y39457239D02*
X47140019Y39171525D01*
X47140019Y39171525D02*
X47092400Y39076287D01*
X47092400Y39076287D02*
X47044780Y39028668D01*
X100526580Y35521534D02*
X100574200Y35473915D01*
X100574200Y35473915D02*
X100621819Y35331058D01*
X100621819Y35331058D02*
X100621819Y35235820D01*
X100621819Y35235820D02*
X100574200Y35092963D01*
X100574200Y35092963D02*
X100478961Y34997725D01*
X100478961Y34997725D02*
X100383723Y34950106D01*
X100383723Y34950106D02*
X100193247Y34902487D01*
X100193247Y34902487D02*
X100050390Y34902487D01*
X100050390Y34902487D02*
X99859914Y34950106D01*
X99859914Y34950106D02*
X99764676Y34997725D01*
X99764676Y34997725D02*
X99669438Y35092963D01*
X99669438Y35092963D02*
X99621819Y35235820D01*
X99621819Y35235820D02*
X99621819Y35331058D01*
X99621819Y35331058D02*
X99669438Y35473915D01*
X99669438Y35473915D02*
X99717057Y35521534D01*
X100621819Y36473915D02*
X100621819Y35902487D01*
X100621819Y36188201D02*
X99621819Y36188201D01*
X99621819Y36188201D02*
X99764676Y36092963D01*
X99764676Y36092963D02*
X99859914Y35997725D01*
X99859914Y35997725D02*
X99907533Y35902487D01*
X72368580Y54773534D02*
X72416200Y54725915D01*
X72416200Y54725915D02*
X72463819Y54583058D01*
X72463819Y54583058D02*
X72463819Y54487820D01*
X72463819Y54487820D02*
X72416200Y54344963D01*
X72416200Y54344963D02*
X72320961Y54249725D01*
X72320961Y54249725D02*
X72225723Y54202106D01*
X72225723Y54202106D02*
X72035247Y54154487D01*
X72035247Y54154487D02*
X71892390Y54154487D01*
X71892390Y54154487D02*
X71701914Y54202106D01*
X71701914Y54202106D02*
X71606676Y54249725D01*
X71606676Y54249725D02*
X71511438Y54344963D01*
X71511438Y54344963D02*
X71463819Y54487820D01*
X71463819Y54487820D02*
X71463819Y54583058D01*
X71463819Y54583058D02*
X71511438Y54725915D01*
X71511438Y54725915D02*
X71559057Y54773534D01*
X71463819Y55678296D02*
X71463819Y55202106D01*
X71463819Y55202106D02*
X71940009Y55154487D01*
X71940009Y55154487D02*
X71892390Y55202106D01*
X71892390Y55202106D02*
X71844771Y55297344D01*
X71844771Y55297344D02*
X71844771Y55535439D01*
X71844771Y55535439D02*
X71892390Y55630677D01*
X71892390Y55630677D02*
X71940009Y55678296D01*
X71940009Y55678296D02*
X72035247Y55725915D01*
X72035247Y55725915D02*
X72273342Y55725915D01*
X72273342Y55725915D02*
X72368580Y55678296D01*
X72368580Y55678296D02*
X72416200Y55630677D01*
X72416200Y55630677D02*
X72463819Y55535439D01*
X72463819Y55535439D02*
X72463819Y55297344D01*
X72463819Y55297344D02*
X72416200Y55202106D01*
X72416200Y55202106D02*
X72368580Y55154487D01*
X65510580Y45883534D02*
X65558200Y45835915D01*
X65558200Y45835915D02*
X65605819Y45693058D01*
X65605819Y45693058D02*
X65605819Y45597820D01*
X65605819Y45597820D02*
X65558200Y45454963D01*
X65558200Y45454963D02*
X65462961Y45359725D01*
X65462961Y45359725D02*
X65367723Y45312106D01*
X65367723Y45312106D02*
X65177247Y45264487D01*
X65177247Y45264487D02*
X65034390Y45264487D01*
X65034390Y45264487D02*
X64843914Y45312106D01*
X64843914Y45312106D02*
X64748676Y45359725D01*
X64748676Y45359725D02*
X64653438Y45454963D01*
X64653438Y45454963D02*
X64605819Y45597820D01*
X64605819Y45597820D02*
X64605819Y45693058D01*
X64605819Y45693058D02*
X64653438Y45835915D01*
X64653438Y45835915D02*
X64701057Y45883534D01*
X64605819Y46216868D02*
X64605819Y46835915D01*
X64605819Y46835915D02*
X64986771Y46502582D01*
X64986771Y46502582D02*
X64986771Y46645439D01*
X64986771Y46645439D02*
X65034390Y46740677D01*
X65034390Y46740677D02*
X65082009Y46788296D01*
X65082009Y46788296D02*
X65177247Y46835915D01*
X65177247Y46835915D02*
X65415342Y46835915D01*
X65415342Y46835915D02*
X65510580Y46788296D01*
X65510580Y46788296D02*
X65558200Y46740677D01*
X65558200Y46740677D02*
X65605819Y46645439D01*
X65605819Y46645439D02*
X65605819Y46359725D01*
X65605819Y46359725D02*
X65558200Y46264487D01*
X65558200Y46264487D02*
X65510580Y46216868D01*
X57395257Y34499562D02*
X57347638Y34404324D01*
X57347638Y34404324D02*
X57252400Y34309086D01*
X57252400Y34309086D02*
X57109542Y34166229D01*
X57109542Y34166229D02*
X57061923Y34070991D01*
X57061923Y34070991D02*
X57061923Y33975753D01*
X57300019Y34023372D02*
X57252400Y33928134D01*
X57252400Y33928134D02*
X57157161Y33832896D01*
X57157161Y33832896D02*
X56966685Y33785277D01*
X56966685Y33785277D02*
X56633352Y33785277D01*
X56633352Y33785277D02*
X56442876Y33832896D01*
X56442876Y33832896D02*
X56347638Y33928134D01*
X56347638Y33928134D02*
X56300019Y34023372D01*
X56300019Y34023372D02*
X56300019Y34213848D01*
X56300019Y34213848D02*
X56347638Y34309086D01*
X56347638Y34309086D02*
X56442876Y34404324D01*
X56442876Y34404324D02*
X56633352Y34451943D01*
X56633352Y34451943D02*
X56966685Y34451943D01*
X56966685Y34451943D02*
X57157161Y34404324D01*
X57157161Y34404324D02*
X57252400Y34309086D01*
X57252400Y34309086D02*
X57300019Y34213848D01*
X57300019Y34213848D02*
X57300019Y34023372D01*
X56300019Y34785277D02*
X56300019Y35404324D01*
X56300019Y35404324D02*
X56680971Y35070991D01*
X56680971Y35070991D02*
X56680971Y35213848D01*
X56680971Y35213848D02*
X56728590Y35309086D01*
X56728590Y35309086D02*
X56776209Y35356705D01*
X56776209Y35356705D02*
X56871447Y35404324D01*
X56871447Y35404324D02*
X57109542Y35404324D01*
X57109542Y35404324D02*
X57204780Y35356705D01*
X57204780Y35356705D02*
X57252400Y35309086D01*
X57252400Y35309086D02*
X57300019Y35213848D01*
X57300019Y35213848D02*
X57300019Y34928134D01*
X57300019Y34928134D02*
X57252400Y34832896D01*
X57252400Y34832896D02*
X57204780Y34785277D01*
X71704580Y61123534D02*
X71752200Y61075915D01*
X71752200Y61075915D02*
X71799819Y60933058D01*
X71799819Y60933058D02*
X71799819Y60837820D01*
X71799819Y60837820D02*
X71752200Y60694963D01*
X71752200Y60694963D02*
X71656961Y60599725D01*
X71656961Y60599725D02*
X71561723Y60552106D01*
X71561723Y60552106D02*
X71371247Y60504487D01*
X71371247Y60504487D02*
X71228390Y60504487D01*
X71228390Y60504487D02*
X71037914Y60552106D01*
X71037914Y60552106D02*
X70942676Y60599725D01*
X70942676Y60599725D02*
X70847438Y60694963D01*
X70847438Y60694963D02*
X70799819Y60837820D01*
X70799819Y60837820D02*
X70799819Y60933058D01*
X70799819Y60933058D02*
X70847438Y61075915D01*
X70847438Y61075915D02*
X70895057Y61123534D01*
X70895057Y61504487D02*
X70847438Y61552106D01*
X70847438Y61552106D02*
X70799819Y61647344D01*
X70799819Y61647344D02*
X70799819Y61885439D01*
X70799819Y61885439D02*
X70847438Y61980677D01*
X70847438Y61980677D02*
X70895057Y62028296D01*
X70895057Y62028296D02*
X70990295Y62075915D01*
X70990295Y62075915D02*
X71085533Y62075915D01*
X71085533Y62075915D02*
X71228390Y62028296D01*
X71228390Y62028296D02*
X71799819Y61456868D01*
X71799819Y61456868D02*
X71799819Y62075915D01*
X75358419Y38414034D02*
X74882228Y38080701D01*
X75358419Y37842606D02*
X74358419Y37842606D01*
X74358419Y37842606D02*
X74358419Y38223558D01*
X74358419Y38223558D02*
X74406038Y38318796D01*
X74406038Y38318796D02*
X74453657Y38366415D01*
X74453657Y38366415D02*
X74548895Y38414034D01*
X74548895Y38414034D02*
X74691752Y38414034D01*
X74691752Y38414034D02*
X74786990Y38366415D01*
X74786990Y38366415D02*
X74834609Y38318796D01*
X74834609Y38318796D02*
X74882228Y38223558D01*
X74882228Y38223558D02*
X74882228Y37842606D01*
X74786990Y38985463D02*
X74739371Y38890225D01*
X74739371Y38890225D02*
X74691752Y38842606D01*
X74691752Y38842606D02*
X74596514Y38794987D01*
X74596514Y38794987D02*
X74548895Y38794987D01*
X74548895Y38794987D02*
X74453657Y38842606D01*
X74453657Y38842606D02*
X74406038Y38890225D01*
X74406038Y38890225D02*
X74358419Y38985463D01*
X74358419Y38985463D02*
X74358419Y39175939D01*
X74358419Y39175939D02*
X74406038Y39271177D01*
X74406038Y39271177D02*
X74453657Y39318796D01*
X74453657Y39318796D02*
X74548895Y39366415D01*
X74548895Y39366415D02*
X74596514Y39366415D01*
X74596514Y39366415D02*
X74691752Y39318796D01*
X74691752Y39318796D02*
X74739371Y39271177D01*
X74739371Y39271177D02*
X74786990Y39175939D01*
X74786990Y39175939D02*
X74786990Y38985463D01*
X74786990Y38985463D02*
X74834609Y38890225D01*
X74834609Y38890225D02*
X74882228Y38842606D01*
X74882228Y38842606D02*
X74977466Y38794987D01*
X74977466Y38794987D02*
X75167942Y38794987D01*
X75167942Y38794987D02*
X75263180Y38842606D01*
X75263180Y38842606D02*
X75310800Y38890225D01*
X75310800Y38890225D02*
X75358419Y38985463D01*
X75358419Y38985463D02*
X75358419Y39175939D01*
X75358419Y39175939D02*
X75310800Y39271177D01*
X75310800Y39271177D02*
X75263180Y39318796D01*
X75263180Y39318796D02*
X75167942Y39366415D01*
X75167942Y39366415D02*
X74977466Y39366415D01*
X74977466Y39366415D02*
X74882228Y39318796D01*
X74882228Y39318796D02*
X74834609Y39271177D01*
X74834609Y39271177D02*
X74786990Y39175939D01*
X16075819Y64139915D02*
X15075819Y64139915D01*
X15075819Y64139915D02*
X15075819Y64520867D01*
X15075819Y64520867D02*
X15123438Y64616105D01*
X15123438Y64616105D02*
X15171057Y64663724D01*
X15171057Y64663724D02*
X15266295Y64711343D01*
X15266295Y64711343D02*
X15409152Y64711343D01*
X15409152Y64711343D02*
X15504390Y64663724D01*
X15504390Y64663724D02*
X15552009Y64616105D01*
X15552009Y64616105D02*
X15599628Y64520867D01*
X15599628Y64520867D02*
X15599628Y64139915D01*
X16028200Y65092296D02*
X16075819Y65235153D01*
X16075819Y65235153D02*
X16075819Y65473248D01*
X16075819Y65473248D02*
X16028200Y65568486D01*
X16028200Y65568486D02*
X15980580Y65616105D01*
X15980580Y65616105D02*
X15885342Y65663724D01*
X15885342Y65663724D02*
X15790104Y65663724D01*
X15790104Y65663724D02*
X15694866Y65616105D01*
X15694866Y65616105D02*
X15647247Y65568486D01*
X15647247Y65568486D02*
X15599628Y65473248D01*
X15599628Y65473248D02*
X15552009Y65282772D01*
X15552009Y65282772D02*
X15504390Y65187534D01*
X15504390Y65187534D02*
X15456771Y65139915D01*
X15456771Y65139915D02*
X15361533Y65092296D01*
X15361533Y65092296D02*
X15266295Y65092296D01*
X15266295Y65092296D02*
X15171057Y65139915D01*
X15171057Y65139915D02*
X15123438Y65187534D01*
X15123438Y65187534D02*
X15075819Y65282772D01*
X15075819Y65282772D02*
X15075819Y65520867D01*
X15075819Y65520867D02*
X15123438Y65663724D01*
X16075819Y66616105D02*
X16075819Y66044677D01*
X16075819Y66330391D02*
X15075819Y66330391D01*
X15075819Y66330391D02*
X15218676Y66235153D01*
X15218676Y66235153D02*
X15313914Y66139915D01*
X15313914Y66139915D02*
X15361533Y66044677D01*
D15*
X93360172Y34614911D02*
X93420648Y34796340D01*
X93420648Y34796340D02*
X93420648Y35098721D01*
X93420648Y35098721D02*
X93360172Y35219673D01*
X93360172Y35219673D02*
X93299695Y35280149D01*
X93299695Y35280149D02*
X93178743Y35340626D01*
X93178743Y35340626D02*
X93057791Y35340626D01*
X93057791Y35340626D02*
X92936838Y35280149D01*
X92936838Y35280149D02*
X92876362Y35219673D01*
X92876362Y35219673D02*
X92815886Y35098721D01*
X92815886Y35098721D02*
X92755410Y34856816D01*
X92755410Y34856816D02*
X92694933Y34735864D01*
X92694933Y34735864D02*
X92634457Y34675387D01*
X92634457Y34675387D02*
X92513505Y34614911D01*
X92513505Y34614911D02*
X92392552Y34614911D01*
X92392552Y34614911D02*
X92271600Y34675387D01*
X92271600Y34675387D02*
X92211124Y34735864D01*
X92211124Y34735864D02*
X92150648Y34856816D01*
X92150648Y34856816D02*
X92150648Y35159197D01*
X92150648Y35159197D02*
X92211124Y35340626D01*
X93420648Y36550150D02*
X93420648Y35824435D01*
X93420648Y36187292D02*
X92150648Y36187292D01*
X92150648Y36187292D02*
X92332076Y36066340D01*
X92332076Y36066340D02*
X92453029Y35945388D01*
X92453029Y35945388D02*
X92513505Y35824435D01*
D11*
X75302257Y34651962D02*
X75254638Y34556724D01*
X75254638Y34556724D02*
X75159400Y34461486D01*
X75159400Y34461486D02*
X75016542Y34318629D01*
X75016542Y34318629D02*
X74968923Y34223391D01*
X74968923Y34223391D02*
X74968923Y34128153D01*
X75207019Y34175772D02*
X75159400Y34080534D01*
X75159400Y34080534D02*
X75064161Y33985296D01*
X75064161Y33985296D02*
X74873685Y33937677D01*
X74873685Y33937677D02*
X74540352Y33937677D01*
X74540352Y33937677D02*
X74349876Y33985296D01*
X74349876Y33985296D02*
X74254638Y34080534D01*
X74254638Y34080534D02*
X74207019Y34175772D01*
X74207019Y34175772D02*
X74207019Y34366248D01*
X74207019Y34366248D02*
X74254638Y34461486D01*
X74254638Y34461486D02*
X74349876Y34556724D01*
X74349876Y34556724D02*
X74540352Y34604343D01*
X74540352Y34604343D02*
X74873685Y34604343D01*
X74873685Y34604343D02*
X75064161Y34556724D01*
X75064161Y34556724D02*
X75159400Y34461486D01*
X75159400Y34461486D02*
X75207019Y34366248D01*
X75207019Y34366248D02*
X75207019Y34175772D01*
X74540352Y35461486D02*
X75207019Y35461486D01*
X74159400Y35223391D02*
X74873685Y34985296D01*
X74873685Y34985296D02*
X74873685Y35604343D01*
X31723105Y39936281D02*
X31723105Y40936281D01*
X31723105Y40936281D02*
X31961200Y40936281D01*
X31961200Y40936281D02*
X32104057Y40888662D01*
X32104057Y40888662D02*
X32199295Y40793424D01*
X32199295Y40793424D02*
X32246914Y40698186D01*
X32246914Y40698186D02*
X32294533Y40507710D01*
X32294533Y40507710D02*
X32294533Y40364853D01*
X32294533Y40364853D02*
X32246914Y40174377D01*
X32246914Y40174377D02*
X32199295Y40079139D01*
X32199295Y40079139D02*
X32104057Y39983900D01*
X32104057Y39983900D02*
X31961200Y39936281D01*
X31961200Y39936281D02*
X31723105Y39936281D01*
X32675486Y40841043D02*
X32723105Y40888662D01*
X32723105Y40888662D02*
X32818343Y40936281D01*
X32818343Y40936281D02*
X33056438Y40936281D01*
X33056438Y40936281D02*
X33151676Y40888662D01*
X33151676Y40888662D02*
X33199295Y40841043D01*
X33199295Y40841043D02*
X33246914Y40745805D01*
X33246914Y40745805D02*
X33246914Y40650567D01*
X33246914Y40650567D02*
X33199295Y40507710D01*
X33199295Y40507710D02*
X32627867Y39936281D01*
X32627867Y39936281D02*
X33246914Y39936281D01*
X75652333Y59914620D02*
X75604714Y59867000D01*
X75604714Y59867000D02*
X75461857Y59819381D01*
X75461857Y59819381D02*
X75366619Y59819381D01*
X75366619Y59819381D02*
X75223762Y59867000D01*
X75223762Y59867000D02*
X75128524Y59962239D01*
X75128524Y59962239D02*
X75080905Y60057477D01*
X75080905Y60057477D02*
X75033286Y60247953D01*
X75033286Y60247953D02*
X75033286Y60390810D01*
X75033286Y60390810D02*
X75080905Y60581286D01*
X75080905Y60581286D02*
X75128524Y60676524D01*
X75128524Y60676524D02*
X75223762Y60771762D01*
X75223762Y60771762D02*
X75366619Y60819381D01*
X75366619Y60819381D02*
X75461857Y60819381D01*
X75461857Y60819381D02*
X75604714Y60771762D01*
X75604714Y60771762D02*
X75652333Y60724143D01*
X76509476Y60486048D02*
X76509476Y59819381D01*
X76271381Y60867000D02*
X76033286Y60152715D01*
X76033286Y60152715D02*
X76652333Y60152715D01*
X3429095Y7876381D02*
X3429095Y8876381D01*
X3429095Y8400191D02*
X4000523Y8400191D01*
X4000523Y7876381D02*
X4000523Y8876381D01*
X4429095Y8781143D02*
X4476714Y8828762D01*
X4476714Y8828762D02*
X4571952Y8876381D01*
X4571952Y8876381D02*
X4810047Y8876381D01*
X4810047Y8876381D02*
X4905285Y8828762D01*
X4905285Y8828762D02*
X4952904Y8781143D01*
X4952904Y8781143D02*
X5000523Y8685905D01*
X5000523Y8685905D02*
X5000523Y8590667D01*
X5000523Y8590667D02*
X4952904Y8447810D01*
X4952904Y8447810D02*
X4381476Y7876381D01*
X4381476Y7876381D02*
X5000523Y7876381D01*
X63297823Y15112606D02*
X62297729Y15112606D01*
X63297823Y15684088D02*
X62726341Y15255477D01*
X62297729Y15684088D02*
X62869211Y15112606D01*
X62631094Y16541312D02*
X63297823Y16541312D01*
X62250106Y16303194D02*
X62964458Y16065077D01*
X62964458Y16065077D02*
X62964458Y16684182D01*
X44801023Y15035006D02*
X43800929Y15035006D01*
X44801023Y15606488D02*
X44229541Y15177877D01*
X43800929Y15606488D02*
X44372411Y15035006D01*
X43800929Y15939853D02*
X43800929Y16558959D01*
X43800929Y16558959D02*
X44181917Y16225594D01*
X44181917Y16225594D02*
X44181917Y16368465D01*
X44181917Y16368465D02*
X44229541Y16463712D01*
X44229541Y16463712D02*
X44277164Y16511335D01*
X44277164Y16511335D02*
X44372411Y16558959D01*
X44372411Y16558959D02*
X44610529Y16558959D01*
X44610529Y16558959D02*
X44705776Y16511335D01*
X44705776Y16511335D02*
X44753400Y16463712D01*
X44753400Y16463712D02*
X44801023Y16368465D01*
X44801023Y16368465D02*
X44801023Y16082724D01*
X44801023Y16082724D02*
X44753400Y15987477D01*
X44753400Y15987477D02*
X44705776Y15939853D01*
X92436666Y7479381D02*
X92436666Y6765096D01*
X92436666Y6765096D02*
X92389047Y6622239D01*
X92389047Y6622239D02*
X92293809Y6527000D01*
X92293809Y6527000D02*
X92150952Y6479381D01*
X92150952Y6479381D02*
X92055714Y6479381D01*
X93055714Y7050810D02*
X92960476Y7098429D01*
X92960476Y7098429D02*
X92912857Y7146048D01*
X92912857Y7146048D02*
X92865238Y7241286D01*
X92865238Y7241286D02*
X92865238Y7288905D01*
X92865238Y7288905D02*
X92912857Y7384143D01*
X92912857Y7384143D02*
X92960476Y7431762D01*
X92960476Y7431762D02*
X93055714Y7479381D01*
X93055714Y7479381D02*
X93246190Y7479381D01*
X93246190Y7479381D02*
X93341428Y7431762D01*
X93341428Y7431762D02*
X93389047Y7384143D01*
X93389047Y7384143D02*
X93436666Y7288905D01*
X93436666Y7288905D02*
X93436666Y7241286D01*
X93436666Y7241286D02*
X93389047Y7146048D01*
X93389047Y7146048D02*
X93341428Y7098429D01*
X93341428Y7098429D02*
X93246190Y7050810D01*
X93246190Y7050810D02*
X93055714Y7050810D01*
X93055714Y7050810D02*
X92960476Y7003191D01*
X92960476Y7003191D02*
X92912857Y6955572D01*
X92912857Y6955572D02*
X92865238Y6860334D01*
X92865238Y6860334D02*
X92865238Y6669858D01*
X92865238Y6669858D02*
X92912857Y6574620D01*
X92912857Y6574620D02*
X92960476Y6527000D01*
X92960476Y6527000D02*
X93055714Y6479381D01*
X93055714Y6479381D02*
X93246190Y6479381D01*
X93246190Y6479381D02*
X93341428Y6527000D01*
X93341428Y6527000D02*
X93389047Y6574620D01*
X93389047Y6574620D02*
X93436666Y6669858D01*
X93436666Y6669858D02*
X93436666Y6860334D01*
X93436666Y6860334D02*
X93389047Y6955572D01*
X93389047Y6955572D02*
X93341428Y7003191D01*
X93341428Y7003191D02*
X93246190Y7050810D01*
D15*
X89514437Y57566282D02*
X89514437Y58836282D01*
X90844914Y57687235D02*
X90784438Y57626758D01*
X90784438Y57626758D02*
X90603009Y57566282D01*
X90603009Y57566282D02*
X90482057Y57566282D01*
X90482057Y57566282D02*
X90300628Y57626758D01*
X90300628Y57626758D02*
X90179676Y57747711D01*
X90179676Y57747711D02*
X90119199Y57868663D01*
X90119199Y57868663D02*
X90058723Y58110568D01*
X90058723Y58110568D02*
X90058723Y58291997D01*
X90058723Y58291997D02*
X90119199Y58533901D01*
X90119199Y58533901D02*
X90179676Y58654854D01*
X90179676Y58654854D02*
X90300628Y58775806D01*
X90300628Y58775806D02*
X90482057Y58836282D01*
X90482057Y58836282D02*
X90603009Y58836282D01*
X90603009Y58836282D02*
X90784438Y58775806D01*
X90784438Y58775806D02*
X90844914Y58715330D01*
X92054438Y57566282D02*
X91328723Y57566282D01*
X91691580Y57566282D02*
X91691580Y58836282D01*
X91691580Y58836282D02*
X91570628Y58654854D01*
X91570628Y58654854D02*
X91449676Y58533901D01*
X91449676Y58533901D02*
X91328723Y58473425D01*
D11*
X109817819Y15398467D02*
X110532104Y15398467D01*
X110532104Y15398467D02*
X110674961Y15350848D01*
X110674961Y15350848D02*
X110770200Y15255610D01*
X110770200Y15255610D02*
X110817819Y15112753D01*
X110817819Y15112753D02*
X110817819Y15017515D01*
X110817819Y15922277D02*
X110817819Y16112753D01*
X110817819Y16112753D02*
X110770200Y16207991D01*
X110770200Y16207991D02*
X110722580Y16255610D01*
X110722580Y16255610D02*
X110579723Y16350848D01*
X110579723Y16350848D02*
X110389247Y16398467D01*
X110389247Y16398467D02*
X110008295Y16398467D01*
X110008295Y16398467D02*
X109913057Y16350848D01*
X109913057Y16350848D02*
X109865438Y16303229D01*
X109865438Y16303229D02*
X109817819Y16207991D01*
X109817819Y16207991D02*
X109817819Y16017515D01*
X109817819Y16017515D02*
X109865438Y15922277D01*
X109865438Y15922277D02*
X109913057Y15874658D01*
X109913057Y15874658D02*
X110008295Y15827039D01*
X110008295Y15827039D02*
X110246390Y15827039D01*
X110246390Y15827039D02*
X110341628Y15874658D01*
X110341628Y15874658D02*
X110389247Y15922277D01*
X110389247Y15922277D02*
X110436866Y16017515D01*
X110436866Y16017515D02*
X110436866Y16207991D01*
X110436866Y16207991D02*
X110389247Y16303229D01*
X110389247Y16303229D02*
X110341628Y16350848D01*
X110341628Y16350848D02*
X110246390Y16398467D01*
X28598019Y38393134D02*
X28121828Y38059801D01*
X28598019Y37821706D02*
X27598019Y37821706D01*
X27598019Y37821706D02*
X27598019Y38202658D01*
X27598019Y38202658D02*
X27645638Y38297896D01*
X27645638Y38297896D02*
X27693257Y38345515D01*
X27693257Y38345515D02*
X27788495Y38393134D01*
X27788495Y38393134D02*
X27931352Y38393134D01*
X27931352Y38393134D02*
X28026590Y38345515D01*
X28026590Y38345515D02*
X28074209Y38297896D01*
X28074209Y38297896D02*
X28121828Y38202658D01*
X28121828Y38202658D02*
X28121828Y37821706D01*
X27693257Y38774087D02*
X27645638Y38821706D01*
X27645638Y38821706D02*
X27598019Y38916944D01*
X27598019Y38916944D02*
X27598019Y39155039D01*
X27598019Y39155039D02*
X27645638Y39250277D01*
X27645638Y39250277D02*
X27693257Y39297896D01*
X27693257Y39297896D02*
X27788495Y39345515D01*
X27788495Y39345515D02*
X27883733Y39345515D01*
X27883733Y39345515D02*
X28026590Y39297896D01*
X28026590Y39297896D02*
X28598019Y38726468D01*
X28598019Y38726468D02*
X28598019Y39345515D01*
X38802457Y34524962D02*
X38754838Y34429724D01*
X38754838Y34429724D02*
X38659600Y34334486D01*
X38659600Y34334486D02*
X38516742Y34191629D01*
X38516742Y34191629D02*
X38469123Y34096391D01*
X38469123Y34096391D02*
X38469123Y34001153D01*
X38707219Y34048772D02*
X38659600Y33953534D01*
X38659600Y33953534D02*
X38564361Y33858296D01*
X38564361Y33858296D02*
X38373885Y33810677D01*
X38373885Y33810677D02*
X38040552Y33810677D01*
X38040552Y33810677D02*
X37850076Y33858296D01*
X37850076Y33858296D02*
X37754838Y33953534D01*
X37754838Y33953534D02*
X37707219Y34048772D01*
X37707219Y34048772D02*
X37707219Y34239248D01*
X37707219Y34239248D02*
X37754838Y34334486D01*
X37754838Y34334486D02*
X37850076Y34429724D01*
X37850076Y34429724D02*
X38040552Y34477343D01*
X38040552Y34477343D02*
X38373885Y34477343D01*
X38373885Y34477343D02*
X38564361Y34429724D01*
X38564361Y34429724D02*
X38659600Y34334486D01*
X38659600Y34334486D02*
X38707219Y34239248D01*
X38707219Y34239248D02*
X38707219Y34048772D01*
X37802457Y34858296D02*
X37754838Y34905915D01*
X37754838Y34905915D02*
X37707219Y35001153D01*
X37707219Y35001153D02*
X37707219Y35239248D01*
X37707219Y35239248D02*
X37754838Y35334486D01*
X37754838Y35334486D02*
X37802457Y35382105D01*
X37802457Y35382105D02*
X37897695Y35429724D01*
X37897695Y35429724D02*
X37992933Y35429724D01*
X37992933Y35429724D02*
X38135790Y35382105D01*
X38135790Y35382105D02*
X38707219Y34810677D01*
X38707219Y34810677D02*
X38707219Y35429724D01*
X98271333Y39483581D02*
X97938000Y39959772D01*
X97699905Y39483581D02*
X97699905Y40483581D01*
X97699905Y40483581D02*
X98080857Y40483581D01*
X98080857Y40483581D02*
X98176095Y40435962D01*
X98176095Y40435962D02*
X98223714Y40388343D01*
X98223714Y40388343D02*
X98271333Y40293105D01*
X98271333Y40293105D02*
X98271333Y40150248D01*
X98271333Y40150248D02*
X98223714Y40055010D01*
X98223714Y40055010D02*
X98176095Y40007391D01*
X98176095Y40007391D02*
X98080857Y39959772D01*
X98080857Y39959772D02*
X97699905Y39959772D01*
X98747524Y39483581D02*
X98938000Y39483581D01*
X98938000Y39483581D02*
X99033238Y39531200D01*
X99033238Y39531200D02*
X99080857Y39578820D01*
X99080857Y39578820D02*
X99176095Y39721677D01*
X99176095Y39721677D02*
X99223714Y39912153D01*
X99223714Y39912153D02*
X99223714Y40293105D01*
X99223714Y40293105D02*
X99176095Y40388343D01*
X99176095Y40388343D02*
X99128476Y40435962D01*
X99128476Y40435962D02*
X99033238Y40483581D01*
X99033238Y40483581D02*
X98842762Y40483581D01*
X98842762Y40483581D02*
X98747524Y40435962D01*
X98747524Y40435962D02*
X98699905Y40388343D01*
X98699905Y40388343D02*
X98652286Y40293105D01*
X98652286Y40293105D02*
X98652286Y40055010D01*
X98652286Y40055010D02*
X98699905Y39959772D01*
X98699905Y39959772D02*
X98747524Y39912153D01*
X98747524Y39912153D02*
X98842762Y39864534D01*
X98842762Y39864534D02*
X99033238Y39864534D01*
X99033238Y39864534D02*
X99128476Y39912153D01*
X99128476Y39912153D02*
X99176095Y39959772D01*
X99176095Y39959772D02*
X99223714Y40055010D01*
X26340823Y15061806D02*
X25340729Y15061806D01*
X26340823Y15633288D02*
X25769341Y15204677D01*
X25340729Y15633288D02*
X25912211Y15061806D01*
X25435976Y16014277D02*
X25388353Y16061900D01*
X25388353Y16061900D02*
X25340729Y16157147D01*
X25340729Y16157147D02*
X25340729Y16395265D01*
X25340729Y16395265D02*
X25388353Y16490512D01*
X25388353Y16490512D02*
X25435976Y16538135D01*
X25435976Y16538135D02*
X25531223Y16585759D01*
X25531223Y16585759D02*
X25626470Y16585759D01*
X25626470Y16585759D02*
X25769341Y16538135D01*
X25769341Y16538135D02*
X26340823Y15966653D01*
X26340823Y15966653D02*
X26340823Y16585759D01*
X106730895Y4015581D02*
X106730895Y5015581D01*
X106730895Y4539391D02*
X107302323Y4539391D01*
X107302323Y4015581D02*
X107302323Y5015581D01*
X108207085Y4682248D02*
X108207085Y4015581D01*
X107968990Y5063200D02*
X107730895Y4348915D01*
X107730895Y4348915D02*
X108349942Y4348915D01*
X7188295Y68607781D02*
X7188295Y69607781D01*
X7188295Y69131591D02*
X7759723Y69131591D01*
X7759723Y68607781D02*
X7759723Y69607781D01*
X8759723Y68607781D02*
X8188295Y68607781D01*
X8474009Y68607781D02*
X8474009Y69607781D01*
X8474009Y69607781D02*
X8378771Y69464924D01*
X8378771Y69464924D02*
X8283533Y69369686D01*
X8283533Y69369686D02*
X8188295Y69322067D01*
X16755266Y5675981D02*
X16755266Y4961696D01*
X16755266Y4961696D02*
X16707647Y4818839D01*
X16707647Y4818839D02*
X16612409Y4723600D01*
X16612409Y4723600D02*
X16469552Y4675981D01*
X16469552Y4675981D02*
X16374314Y4675981D01*
X17183838Y5580743D02*
X17231457Y5628362D01*
X17231457Y5628362D02*
X17326695Y5675981D01*
X17326695Y5675981D02*
X17564790Y5675981D01*
X17564790Y5675981D02*
X17660028Y5628362D01*
X17660028Y5628362D02*
X17707647Y5580743D01*
X17707647Y5580743D02*
X17755266Y5485505D01*
X17755266Y5485505D02*
X17755266Y5390267D01*
X17755266Y5390267D02*
X17707647Y5247410D01*
X17707647Y5247410D02*
X17136219Y4675981D01*
X17136219Y4675981D02*
X17755266Y4675981D01*
X21886057Y34524962D02*
X21838438Y34429724D01*
X21838438Y34429724D02*
X21743200Y34334486D01*
X21743200Y34334486D02*
X21600342Y34191629D01*
X21600342Y34191629D02*
X21552723Y34096391D01*
X21552723Y34096391D02*
X21552723Y34001153D01*
X21790819Y34048772D02*
X21743200Y33953534D01*
X21743200Y33953534D02*
X21647961Y33858296D01*
X21647961Y33858296D02*
X21457485Y33810677D01*
X21457485Y33810677D02*
X21124152Y33810677D01*
X21124152Y33810677D02*
X20933676Y33858296D01*
X20933676Y33858296D02*
X20838438Y33953534D01*
X20838438Y33953534D02*
X20790819Y34048772D01*
X20790819Y34048772D02*
X20790819Y34239248D01*
X20790819Y34239248D02*
X20838438Y34334486D01*
X20838438Y34334486D02*
X20933676Y34429724D01*
X20933676Y34429724D02*
X21124152Y34477343D01*
X21124152Y34477343D02*
X21457485Y34477343D01*
X21457485Y34477343D02*
X21647961Y34429724D01*
X21647961Y34429724D02*
X21743200Y34334486D01*
X21743200Y34334486D02*
X21790819Y34239248D01*
X21790819Y34239248D02*
X21790819Y34048772D01*
X21790819Y35429724D02*
X21790819Y34858296D01*
X21790819Y35144010D02*
X20790819Y35144010D01*
X20790819Y35144010D02*
X20933676Y35048772D01*
X20933676Y35048772D02*
X21028914Y34953534D01*
X21028914Y34953534D02*
X21076533Y34858296D01*
X11657105Y32361981D02*
X11657105Y33361981D01*
X11657105Y33361981D02*
X11895200Y33361981D01*
X11895200Y33361981D02*
X12038057Y33314362D01*
X12038057Y33314362D02*
X12133295Y33219124D01*
X12133295Y33219124D02*
X12180914Y33123886D01*
X12180914Y33123886D02*
X12228533Y32933410D01*
X12228533Y32933410D02*
X12228533Y32790553D01*
X12228533Y32790553D02*
X12180914Y32600077D01*
X12180914Y32600077D02*
X12133295Y32504839D01*
X12133295Y32504839D02*
X12038057Y32409600D01*
X12038057Y32409600D02*
X11895200Y32361981D01*
X11895200Y32361981D02*
X11657105Y32361981D01*
X13133295Y33361981D02*
X12657105Y33361981D01*
X12657105Y33361981D02*
X12609486Y32885791D01*
X12609486Y32885791D02*
X12657105Y32933410D01*
X12657105Y32933410D02*
X12752343Y32981029D01*
X12752343Y32981029D02*
X12990438Y32981029D01*
X12990438Y32981029D02*
X13085676Y32933410D01*
X13085676Y32933410D02*
X13133295Y32885791D01*
X13133295Y32885791D02*
X13180914Y32790553D01*
X13180914Y32790553D02*
X13180914Y32552458D01*
X13180914Y32552458D02*
X13133295Y32457220D01*
X13133295Y32457220D02*
X13085676Y32409600D01*
X13085676Y32409600D02*
X12990438Y32361981D01*
X12990438Y32361981D02*
X12752343Y32361981D01*
X12752343Y32361981D02*
X12657105Y32409600D01*
X12657105Y32409600D02*
X12609486Y32457220D01*
X11885819Y37719034D02*
X11409628Y37385701D01*
X11885819Y37147606D02*
X10885819Y37147606D01*
X10885819Y37147606D02*
X10885819Y37528558D01*
X10885819Y37528558D02*
X10933438Y37623796D01*
X10933438Y37623796D02*
X10981057Y37671415D01*
X10981057Y37671415D02*
X11076295Y37719034D01*
X11076295Y37719034D02*
X11219152Y37719034D01*
X11219152Y37719034D02*
X11314390Y37671415D01*
X11314390Y37671415D02*
X11362009Y37623796D01*
X11362009Y37623796D02*
X11409628Y37528558D01*
X11409628Y37528558D02*
X11409628Y37147606D01*
X11885819Y38671415D02*
X11885819Y38099987D01*
X11885819Y38385701D02*
X10885819Y38385701D01*
X10885819Y38385701D02*
X11028676Y38290463D01*
X11028676Y38290463D02*
X11123914Y38195225D01*
X11123914Y38195225D02*
X11171533Y38099987D01*
X46836105Y32488981D02*
X46836105Y33488981D01*
X46836105Y33488981D02*
X47074200Y33488981D01*
X47074200Y33488981D02*
X47217057Y33441362D01*
X47217057Y33441362D02*
X47312295Y33346124D01*
X47312295Y33346124D02*
X47359914Y33250886D01*
X47359914Y33250886D02*
X47407533Y33060410D01*
X47407533Y33060410D02*
X47407533Y32917553D01*
X47407533Y32917553D02*
X47359914Y32727077D01*
X47359914Y32727077D02*
X47312295Y32631839D01*
X47312295Y32631839D02*
X47217057Y32536600D01*
X47217057Y32536600D02*
X47074200Y32488981D01*
X47074200Y32488981D02*
X46836105Y32488981D01*
X47740867Y33488981D02*
X48407533Y33488981D01*
X48407533Y33488981D02*
X47978962Y32488981D01*
X1207419Y57324667D02*
X1921704Y57324667D01*
X1921704Y57324667D02*
X2064561Y57277048D01*
X2064561Y57277048D02*
X2159800Y57181810D01*
X2159800Y57181810D02*
X2207419Y57038953D01*
X2207419Y57038953D02*
X2207419Y56943715D01*
X2207419Y58324667D02*
X2207419Y57753239D01*
X2207419Y58038953D02*
X1207419Y58038953D01*
X1207419Y58038953D02*
X1350276Y57943715D01*
X1350276Y57943715D02*
X1445514Y57848477D01*
X1445514Y57848477D02*
X1493133Y57753239D01*
X49833305Y39981981D02*
X49833305Y40981981D01*
X49833305Y40981981D02*
X50071400Y40981981D01*
X50071400Y40981981D02*
X50214257Y40934362D01*
X50214257Y40934362D02*
X50309495Y40839124D01*
X50309495Y40839124D02*
X50357114Y40743886D01*
X50357114Y40743886D02*
X50404733Y40553410D01*
X50404733Y40553410D02*
X50404733Y40410553D01*
X50404733Y40410553D02*
X50357114Y40220077D01*
X50357114Y40220077D02*
X50309495Y40124839D01*
X50309495Y40124839D02*
X50214257Y40029600D01*
X50214257Y40029600D02*
X50071400Y39981981D01*
X50071400Y39981981D02*
X49833305Y39981981D01*
X50738067Y40981981D02*
X51357114Y40981981D01*
X51357114Y40981981D02*
X51023781Y40601029D01*
X51023781Y40601029D02*
X51166638Y40601029D01*
X51166638Y40601029D02*
X51261876Y40553410D01*
X51261876Y40553410D02*
X51309495Y40505791D01*
X51309495Y40505791D02*
X51357114Y40410553D01*
X51357114Y40410553D02*
X51357114Y40172458D01*
X51357114Y40172458D02*
X51309495Y40077220D01*
X51309495Y40077220D02*
X51261876Y40029600D01*
X51261876Y40029600D02*
X51166638Y39981981D01*
X51166638Y39981981D02*
X50880924Y39981981D01*
X50880924Y39981981D02*
X50785686Y40029600D01*
X50785686Y40029600D02*
X50738067Y40077220D01*
X34261466Y5218781D02*
X34261466Y4504496D01*
X34261466Y4504496D02*
X34213847Y4361639D01*
X34213847Y4361639D02*
X34118609Y4266400D01*
X34118609Y4266400D02*
X33975752Y4218781D01*
X33975752Y4218781D02*
X33880514Y4218781D01*
X34642419Y5218781D02*
X35261466Y5218781D01*
X35261466Y5218781D02*
X34928133Y4837829D01*
X34928133Y4837829D02*
X35070990Y4837829D01*
X35070990Y4837829D02*
X35166228Y4790210D01*
X35166228Y4790210D02*
X35213847Y4742591D01*
X35213847Y4742591D02*
X35261466Y4647353D01*
X35261466Y4647353D02*
X35261466Y4409258D01*
X35261466Y4409258D02*
X35213847Y4314020D01*
X35213847Y4314020D02*
X35166228Y4266400D01*
X35166228Y4266400D02*
X35070990Y4218781D01*
X35070990Y4218781D02*
X34785276Y4218781D01*
X34785276Y4218781D02*
X34690038Y4266400D01*
X34690038Y4266400D02*
X34642419Y4314020D01*
X109868619Y35591467D02*
X110582904Y35591467D01*
X110582904Y35591467D02*
X110725761Y35543848D01*
X110725761Y35543848D02*
X110821000Y35448610D01*
X110821000Y35448610D02*
X110868619Y35305753D01*
X110868619Y35305753D02*
X110868619Y35210515D01*
X109868619Y35972420D02*
X109868619Y36639086D01*
X109868619Y36639086D02*
X110868619Y36210515D01*
X14857505Y39829581D02*
X14857505Y40829581D01*
X14857505Y40829581D02*
X15095600Y40829581D01*
X15095600Y40829581D02*
X15238457Y40781962D01*
X15238457Y40781962D02*
X15333695Y40686724D01*
X15333695Y40686724D02*
X15381314Y40591486D01*
X15381314Y40591486D02*
X15428933Y40401010D01*
X15428933Y40401010D02*
X15428933Y40258153D01*
X15428933Y40258153D02*
X15381314Y40067677D01*
X15381314Y40067677D02*
X15333695Y39972439D01*
X15333695Y39972439D02*
X15238457Y39877200D01*
X15238457Y39877200D02*
X15095600Y39829581D01*
X15095600Y39829581D02*
X14857505Y39829581D01*
X16381314Y39829581D02*
X15809886Y39829581D01*
X16095600Y39829581D02*
X16095600Y40829581D01*
X16095600Y40829581D02*
X16000362Y40686724D01*
X16000362Y40686724D02*
X15905124Y40591486D01*
X15905124Y40591486D02*
X15809886Y40543867D01*
X28471905Y32951281D02*
X28471905Y33951281D01*
X28471905Y33951281D02*
X28710000Y33951281D01*
X28710000Y33951281D02*
X28852857Y33903662D01*
X28852857Y33903662D02*
X28948095Y33808424D01*
X28948095Y33808424D02*
X28995714Y33713186D01*
X28995714Y33713186D02*
X29043333Y33522710D01*
X29043333Y33522710D02*
X29043333Y33379853D01*
X29043333Y33379853D02*
X28995714Y33189377D01*
X28995714Y33189377D02*
X28948095Y33094139D01*
X28948095Y33094139D02*
X28852857Y32998900D01*
X28852857Y32998900D02*
X28710000Y32951281D01*
X28710000Y32951281D02*
X28471905Y32951281D01*
X29900476Y33951281D02*
X29710000Y33951281D01*
X29710000Y33951281D02*
X29614762Y33903662D01*
X29614762Y33903662D02*
X29567143Y33856043D01*
X29567143Y33856043D02*
X29471905Y33713186D01*
X29471905Y33713186D02*
X29424286Y33522710D01*
X29424286Y33522710D02*
X29424286Y33141758D01*
X29424286Y33141758D02*
X29471905Y33046520D01*
X29471905Y33046520D02*
X29519524Y32998900D01*
X29519524Y32998900D02*
X29614762Y32951281D01*
X29614762Y32951281D02*
X29805238Y32951281D01*
X29805238Y32951281D02*
X29900476Y32998900D01*
X29900476Y32998900D02*
X29948095Y33046520D01*
X29948095Y33046520D02*
X29995714Y33141758D01*
X29995714Y33141758D02*
X29995714Y33379853D01*
X29995714Y33379853D02*
X29948095Y33475091D01*
X29948095Y33475091D02*
X29900476Y33522710D01*
X29900476Y33522710D02*
X29805238Y33570329D01*
X29805238Y33570329D02*
X29614762Y33570329D01*
X29614762Y33570329D02*
X29519524Y33522710D01*
X29519524Y33522710D02*
X29471905Y33475091D01*
X29471905Y33475091D02*
X29424286Y33379853D01*
X113436495Y64594581D02*
X113436495Y65594581D01*
X113436495Y65118391D02*
X114007923Y65118391D01*
X114007923Y64594581D02*
X114007923Y65594581D01*
X114388876Y65594581D02*
X115007923Y65594581D01*
X115007923Y65594581D02*
X114674590Y65213629D01*
X114674590Y65213629D02*
X114817447Y65213629D01*
X114817447Y65213629D02*
X114912685Y65166010D01*
X114912685Y65166010D02*
X114960304Y65118391D01*
X114960304Y65118391D02*
X115007923Y65023153D01*
X115007923Y65023153D02*
X115007923Y64785058D01*
X115007923Y64785058D02*
X114960304Y64689820D01*
X114960304Y64689820D02*
X114912685Y64642200D01*
X114912685Y64642200D02*
X114817447Y64594581D01*
X114817447Y64594581D02*
X114531733Y64594581D01*
X114531733Y64594581D02*
X114436495Y64642200D01*
X114436495Y64642200D02*
X114388876Y64689820D01*
X71472466Y5269581D02*
X71472466Y4555296D01*
X71472466Y4555296D02*
X71424847Y4412439D01*
X71424847Y4412439D02*
X71329609Y4317200D01*
X71329609Y4317200D02*
X71186752Y4269581D01*
X71186752Y4269581D02*
X71091514Y4269581D01*
X72424847Y5269581D02*
X71948657Y5269581D01*
X71948657Y5269581D02*
X71901038Y4793391D01*
X71901038Y4793391D02*
X71948657Y4841010D01*
X71948657Y4841010D02*
X72043895Y4888629D01*
X72043895Y4888629D02*
X72281990Y4888629D01*
X72281990Y4888629D02*
X72377228Y4841010D01*
X72377228Y4841010D02*
X72424847Y4793391D01*
X72424847Y4793391D02*
X72472466Y4698153D01*
X72472466Y4698153D02*
X72472466Y4460058D01*
X72472466Y4460058D02*
X72424847Y4364820D01*
X72424847Y4364820D02*
X72377228Y4317200D01*
X72377228Y4317200D02*
X72281990Y4269581D01*
X72281990Y4269581D02*
X72043895Y4269581D01*
X72043895Y4269581D02*
X71948657Y4317200D01*
X71948657Y4317200D02*
X71901038Y4364820D01*
X21968619Y38111134D02*
X21492428Y37777801D01*
X21968619Y37539706D02*
X20968619Y37539706D01*
X20968619Y37539706D02*
X20968619Y37920658D01*
X20968619Y37920658D02*
X21016238Y38015896D01*
X21016238Y38015896D02*
X21063857Y38063515D01*
X21063857Y38063515D02*
X21159095Y38111134D01*
X21159095Y38111134D02*
X21301952Y38111134D01*
X21301952Y38111134D02*
X21397190Y38063515D01*
X21397190Y38063515D02*
X21444809Y38015896D01*
X21444809Y38015896D02*
X21492428Y37920658D01*
X21492428Y37920658D02*
X21492428Y37539706D01*
X20968619Y39015896D02*
X20968619Y38539706D01*
X20968619Y38539706D02*
X21444809Y38492087D01*
X21444809Y38492087D02*
X21397190Y38539706D01*
X21397190Y38539706D02*
X21349571Y38634944D01*
X21349571Y38634944D02*
X21349571Y38873039D01*
X21349571Y38873039D02*
X21397190Y38968277D01*
X21397190Y38968277D02*
X21444809Y39015896D01*
X21444809Y39015896D02*
X21540047Y39063515D01*
X21540047Y39063515D02*
X21778142Y39063515D01*
X21778142Y39063515D02*
X21873380Y39015896D01*
X21873380Y39015896D02*
X21921000Y38968277D01*
X21921000Y38968277D02*
X21968619Y38873039D01*
X21968619Y38873039D02*
X21968619Y38634944D01*
X21968619Y38634944D02*
X21921000Y38539706D01*
X21921000Y38539706D02*
X21873380Y38492087D01*
X78401942Y39016781D02*
X78068609Y39492972D01*
X77830514Y39016781D02*
X77830514Y40016781D01*
X77830514Y40016781D02*
X78211466Y40016781D01*
X78211466Y40016781D02*
X78306704Y39969162D01*
X78306704Y39969162D02*
X78354323Y39921543D01*
X78354323Y39921543D02*
X78401942Y39826305D01*
X78401942Y39826305D02*
X78401942Y39683448D01*
X78401942Y39683448D02*
X78354323Y39588210D01*
X78354323Y39588210D02*
X78306704Y39540591D01*
X78306704Y39540591D02*
X78211466Y39492972D01*
X78211466Y39492972D02*
X77830514Y39492972D01*
X79354323Y39016781D02*
X78782895Y39016781D01*
X79068609Y39016781D02*
X79068609Y40016781D01*
X79068609Y40016781D02*
X78973371Y39873924D01*
X78973371Y39873924D02*
X78878133Y39778686D01*
X78878133Y39778686D02*
X78782895Y39731067D01*
X79973371Y40016781D02*
X80068609Y40016781D01*
X80068609Y40016781D02*
X80163847Y39969162D01*
X80163847Y39969162D02*
X80211466Y39921543D01*
X80211466Y39921543D02*
X80259085Y39826305D01*
X80259085Y39826305D02*
X80306704Y39635829D01*
X80306704Y39635829D02*
X80306704Y39397734D01*
X80306704Y39397734D02*
X80259085Y39207258D01*
X80259085Y39207258D02*
X80211466Y39112020D01*
X80211466Y39112020D02*
X80163847Y39064400D01*
X80163847Y39064400D02*
X80068609Y39016781D01*
X80068609Y39016781D02*
X79973371Y39016781D01*
X79973371Y39016781D02*
X79878133Y39064400D01*
X79878133Y39064400D02*
X79830514Y39112020D01*
X79830514Y39112020D02*
X79782895Y39207258D01*
X79782895Y39207258D02*
X79735276Y39397734D01*
X79735276Y39397734D02*
X79735276Y39635829D01*
X79735276Y39635829D02*
X79782895Y39826305D01*
X79782895Y39826305D02*
X79830514Y39921543D01*
X79830514Y39921543D02*
X79878133Y39969162D01*
X79878133Y39969162D02*
X79973371Y40016781D01*
X107125419Y64487467D02*
X107839704Y64487467D01*
X107839704Y64487467D02*
X107982561Y64439848D01*
X107982561Y64439848D02*
X108077800Y64344610D01*
X108077800Y64344610D02*
X108125419Y64201753D01*
X108125419Y64201753D02*
X108125419Y64106515D01*
X107125419Y65392229D02*
X107125419Y65201753D01*
X107125419Y65201753D02*
X107173038Y65106515D01*
X107173038Y65106515D02*
X107220657Y65058896D01*
X107220657Y65058896D02*
X107363514Y64963658D01*
X107363514Y64963658D02*
X107553990Y64916039D01*
X107553990Y64916039D02*
X107934942Y64916039D01*
X107934942Y64916039D02*
X108030180Y64963658D01*
X108030180Y64963658D02*
X108077800Y65011277D01*
X108077800Y65011277D02*
X108125419Y65106515D01*
X108125419Y65106515D02*
X108125419Y65296991D01*
X108125419Y65296991D02*
X108077800Y65392229D01*
X108077800Y65392229D02*
X108030180Y65439848D01*
X108030180Y65439848D02*
X107934942Y65487467D01*
X107934942Y65487467D02*
X107696847Y65487467D01*
X107696847Y65487467D02*
X107601609Y65439848D01*
X107601609Y65439848D02*
X107553990Y65392229D01*
X107553990Y65392229D02*
X107506371Y65296991D01*
X107506371Y65296991D02*
X107506371Y65106515D01*
X107506371Y65106515D02*
X107553990Y65011277D01*
X107553990Y65011277D02*
X107601609Y64963658D01*
X107601609Y64963658D02*
X107696847Y64916039D01*
X110021019Y54283077D02*
X110735304Y54283077D01*
X110735304Y54283077D02*
X110878161Y54235458D01*
X110878161Y54235458D02*
X110973400Y54140220D01*
X110973400Y54140220D02*
X111021019Y53997363D01*
X111021019Y53997363D02*
X111021019Y53902125D01*
X111021019Y55283077D02*
X111021019Y54711649D01*
X111021019Y54997363D02*
X110021019Y54997363D01*
X110021019Y54997363D02*
X110163876Y54902125D01*
X110163876Y54902125D02*
X110259114Y54806887D01*
X110259114Y54806887D02*
X110306733Y54711649D01*
X110021019Y55902125D02*
X110021019Y55997363D01*
X110021019Y55997363D02*
X110068638Y56092601D01*
X110068638Y56092601D02*
X110116257Y56140220D01*
X110116257Y56140220D02*
X110211495Y56187839D01*
X110211495Y56187839D02*
X110401971Y56235458D01*
X110401971Y56235458D02*
X110640066Y56235458D01*
X110640066Y56235458D02*
X110830542Y56187839D01*
X110830542Y56187839D02*
X110925780Y56140220D01*
X110925780Y56140220D02*
X110973400Y56092601D01*
X110973400Y56092601D02*
X111021019Y55997363D01*
X111021019Y55997363D02*
X111021019Y55902125D01*
X111021019Y55902125D02*
X110973400Y55806887D01*
X110973400Y55806887D02*
X110925780Y55759268D01*
X110925780Y55759268D02*
X110830542Y55711649D01*
X110830542Y55711649D02*
X110640066Y55664030D01*
X110640066Y55664030D02*
X110401971Y55664030D01*
X110401971Y55664030D02*
X110211495Y55711649D01*
X110211495Y55711649D02*
X110116257Y55759268D01*
X110116257Y55759268D02*
X110068638Y55806887D01*
X110068638Y55806887D02*
X110021019Y55902125D01*
X65405095Y57953381D02*
X65405095Y57143858D01*
X65405095Y57143858D02*
X65452714Y57048620D01*
X65452714Y57048620D02*
X65500333Y57001000D01*
X65500333Y57001000D02*
X65595571Y56953381D01*
X65595571Y56953381D02*
X65786047Y56953381D01*
X65786047Y56953381D02*
X65881285Y57001000D01*
X65881285Y57001000D02*
X65928904Y57048620D01*
X65928904Y57048620D02*
X65976523Y57143858D01*
X65976523Y57143858D02*
X65976523Y57953381D01*
X66976523Y56953381D02*
X66405095Y56953381D01*
X66690809Y56953381D02*
X66690809Y57953381D01*
X66690809Y57953381D02*
X66595571Y57810524D01*
X66595571Y57810524D02*
X66500333Y57715286D01*
X66500333Y57715286D02*
X66405095Y57667667D01*
X68502305Y39727981D02*
X68502305Y40727981D01*
X68502305Y40727981D02*
X68740400Y40727981D01*
X68740400Y40727981D02*
X68883257Y40680362D01*
X68883257Y40680362D02*
X68978495Y40585124D01*
X68978495Y40585124D02*
X69026114Y40489886D01*
X69026114Y40489886D02*
X69073733Y40299410D01*
X69073733Y40299410D02*
X69073733Y40156553D01*
X69073733Y40156553D02*
X69026114Y39966077D01*
X69026114Y39966077D02*
X68978495Y39870839D01*
X68978495Y39870839D02*
X68883257Y39775600D01*
X68883257Y39775600D02*
X68740400Y39727981D01*
X68740400Y39727981D02*
X68502305Y39727981D01*
X69930876Y40394648D02*
X69930876Y39727981D01*
X69692781Y40775600D02*
X69454686Y40061315D01*
X69454686Y40061315D02*
X70073733Y40061315D01*
X37601233Y39194581D02*
X37267900Y39670772D01*
X37029805Y39194581D02*
X37029805Y40194581D01*
X37029805Y40194581D02*
X37410757Y40194581D01*
X37410757Y40194581D02*
X37505995Y40146962D01*
X37505995Y40146962D02*
X37553614Y40099343D01*
X37553614Y40099343D02*
X37601233Y40004105D01*
X37601233Y40004105D02*
X37601233Y39861248D01*
X37601233Y39861248D02*
X37553614Y39766010D01*
X37553614Y39766010D02*
X37505995Y39718391D01*
X37505995Y39718391D02*
X37410757Y39670772D01*
X37410757Y39670772D02*
X37029805Y39670772D01*
X38458376Y40194581D02*
X38267900Y40194581D01*
X38267900Y40194581D02*
X38172662Y40146962D01*
X38172662Y40146962D02*
X38125043Y40099343D01*
X38125043Y40099343D02*
X38029805Y39956486D01*
X38029805Y39956486D02*
X37982186Y39766010D01*
X37982186Y39766010D02*
X37982186Y39385058D01*
X37982186Y39385058D02*
X38029805Y39289820D01*
X38029805Y39289820D02*
X38077424Y39242200D01*
X38077424Y39242200D02*
X38172662Y39194581D01*
X38172662Y39194581D02*
X38363138Y39194581D01*
X38363138Y39194581D02*
X38458376Y39242200D01*
X38458376Y39242200D02*
X38505995Y39289820D01*
X38505995Y39289820D02*
X38553614Y39385058D01*
X38553614Y39385058D02*
X38553614Y39623153D01*
X38553614Y39623153D02*
X38505995Y39718391D01*
X38505995Y39718391D02*
X38458376Y39766010D01*
X38458376Y39766010D02*
X38363138Y39813629D01*
X38363138Y39813629D02*
X38172662Y39813629D01*
X38172662Y39813629D02*
X38077424Y39766010D01*
X38077424Y39766010D02*
X38029805Y39718391D01*
X38029805Y39718391D02*
X37982186Y39623153D01*
X8326623Y14979006D02*
X7326529Y14979006D01*
X8326623Y15550488D02*
X7755141Y15121877D01*
X7326529Y15550488D02*
X7898011Y14979006D01*
X8326623Y16502959D02*
X8326623Y15931477D01*
X8326623Y16217218D02*
X7326529Y16217218D01*
X7326529Y16217218D02*
X7469400Y16121971D01*
X7469400Y16121971D02*
X7564647Y16026724D01*
X7564647Y16026724D02*
X7612270Y15931477D01*
X52848666Y4548981D02*
X52848666Y3834696D01*
X52848666Y3834696D02*
X52801047Y3691839D01*
X52801047Y3691839D02*
X52705809Y3596600D01*
X52705809Y3596600D02*
X52562952Y3548981D01*
X52562952Y3548981D02*
X52467714Y3548981D01*
X53753428Y4215648D02*
X53753428Y3548981D01*
X53515333Y4596600D02*
X53277238Y3882315D01*
X53277238Y3882315D02*
X53896285Y3882315D01*
D15*
X84129372Y34816911D02*
X84189848Y34998340D01*
X84189848Y34998340D02*
X84189848Y35300721D01*
X84189848Y35300721D02*
X84129372Y35421673D01*
X84129372Y35421673D02*
X84068895Y35482149D01*
X84068895Y35482149D02*
X83947943Y35542626D01*
X83947943Y35542626D02*
X83826991Y35542626D01*
X83826991Y35542626D02*
X83706038Y35482149D01*
X83706038Y35482149D02*
X83645562Y35421673D01*
X83645562Y35421673D02*
X83585086Y35300721D01*
X83585086Y35300721D02*
X83524610Y35058816D01*
X83524610Y35058816D02*
X83464133Y34937864D01*
X83464133Y34937864D02*
X83403657Y34877387D01*
X83403657Y34877387D02*
X83282705Y34816911D01*
X83282705Y34816911D02*
X83161752Y34816911D01*
X83161752Y34816911D02*
X83040800Y34877387D01*
X83040800Y34877387D02*
X82980324Y34937864D01*
X82980324Y34937864D02*
X82919848Y35058816D01*
X82919848Y35058816D02*
X82919848Y35361197D01*
X82919848Y35361197D02*
X82980324Y35542626D01*
X83040800Y36026435D02*
X82980324Y36086911D01*
X82980324Y36086911D02*
X82919848Y36207864D01*
X82919848Y36207864D02*
X82919848Y36510245D01*
X82919848Y36510245D02*
X82980324Y36631197D01*
X82980324Y36631197D02*
X83040800Y36691673D01*
X83040800Y36691673D02*
X83161752Y36752150D01*
X83161752Y36752150D02*
X83282705Y36752150D01*
X83282705Y36752150D02*
X83464133Y36691673D01*
X83464133Y36691673D02*
X84189848Y35965959D01*
X84189848Y35965959D02*
X84189848Y36752150D01*
D11*
X65479819Y37727534D02*
X65003628Y37394201D01*
X65479819Y37156106D02*
X64479819Y37156106D01*
X64479819Y37156106D02*
X64479819Y37537058D01*
X64479819Y37537058D02*
X64527438Y37632296D01*
X64527438Y37632296D02*
X64575057Y37679915D01*
X64575057Y37679915D02*
X64670295Y37727534D01*
X64670295Y37727534D02*
X64813152Y37727534D01*
X64813152Y37727534D02*
X64908390Y37679915D01*
X64908390Y37679915D02*
X64956009Y37632296D01*
X64956009Y37632296D02*
X65003628Y37537058D01*
X65003628Y37537058D02*
X65003628Y37156106D01*
X64813152Y38584677D02*
X65479819Y38584677D01*
X64432200Y38346582D02*
X65146485Y38108487D01*
X65146485Y38108487D02*
X65146485Y38727534D01*
D16*
%TO.C,D8*%
X67022000Y34666200D02*
X67022000Y32746200D01*
X67022000Y32746200D02*
X69707000Y32746200D01*
X69707000Y34666200D02*
X67022000Y34666200D01*
%TO.C,R3*%
X47635800Y37852936D02*
X47635800Y38307064D01*
X49105800Y37852936D02*
X49105800Y38307064D01*
%TO.C,C1*%
X96892000Y35426948D02*
X96892000Y35949452D01*
X98362000Y35426948D02*
X98362000Y35949452D01*
%TO.C,C5*%
X72744000Y52407452D02*
X72744000Y51884948D01*
X71274000Y52407452D02*
X71274000Y51884948D01*
%TO.C,C3*%
X63600000Y47327452D02*
X63600000Y46804948D01*
X62130000Y47327452D02*
X62130000Y46804948D01*
%TO.C,Q3*%
X52796000Y34518600D02*
X52796000Y32843600D01*
X52796000Y34518600D02*
X52796000Y35168600D01*
X55916000Y34518600D02*
X55916000Y33868600D01*
X55916000Y34518600D02*
X55916000Y35168600D01*
%TO.C,C2*%
X72290000Y62806948D02*
X72290000Y63329452D01*
X73760000Y62806948D02*
X73760000Y63329452D01*
%TO.C,R8*%
X73988600Y38807764D02*
X73988600Y38353636D01*
X72518600Y38807764D02*
X72518600Y38353636D01*
%TO.C,PS1*%
X12600500Y62634200D02*
X12600500Y60624200D01*
X12980500Y72094200D02*
X12980500Y43374200D01*
X12990500Y43374200D02*
X60700500Y43374200D01*
X60700500Y72094200D02*
X12990500Y72094200D01*
X60700500Y43374200D02*
X60700500Y72094200D01*
D15*
%TO.C,S1*%
X94092670Y38123200D02*
X91657000Y38123200D01*
X95832000Y37628200D02*
X95832000Y32628200D01*
X89842000Y37628200D02*
X89842000Y32628200D01*
X94149330Y32133200D02*
X91557670Y32133200D01*
X95693005Y39632535D02*
G75*
G03*
X95693005Y39632535I-99335J0D01*
G01*
D16*
%TO.C,Q4*%
X70652200Y34671000D02*
X70652200Y32996000D01*
X70652200Y34671000D02*
X70652200Y35321000D01*
X73772200Y34671000D02*
X73772200Y34021000D01*
X73772200Y34671000D02*
X73772200Y35321000D01*
%TO.C,D2*%
X33596200Y39623000D02*
X31326200Y39623000D01*
X31326200Y39623000D02*
X31326200Y35738000D01*
X33596200Y35738000D02*
X33596200Y39623000D01*
%TO.C,C4*%
X75084000Y62806948D02*
X75084000Y63329452D01*
X76554000Y62806948D02*
X76554000Y63329452D01*
D17*
%TO.C,K4*%
X63928800Y12926400D02*
X63928800Y32026400D01*
X79428800Y12926400D02*
X63928800Y12926400D01*
X63928800Y32026400D02*
X79428800Y32026400D01*
X79428800Y32026400D02*
X79428800Y12926400D01*
D14*
X65659800Y12276400D02*
G75*
G03*
X65659800Y12276400I-100000J0D01*
G01*
D17*
%TO.C,K3*%
X45432000Y12848800D02*
X45432000Y31948800D01*
X60932000Y12848800D02*
X45432000Y12848800D01*
X45432000Y31948800D02*
X60932000Y31948800D01*
X60932000Y31948800D02*
X60932000Y12848800D01*
D14*
X47163000Y12198800D02*
G75*
G03*
X47163000Y12198800I-100000J0D01*
G01*
D16*
%TO.C,J8*%
X100316000Y11894200D02*
X100316000Y12734200D01*
X100316000Y12734200D02*
X99716000Y12734200D01*
X100076000Y1374200D02*
X100076000Y12494200D01*
X100076000Y1374200D02*
X84956000Y1374200D01*
X100076000Y3334200D02*
X84956000Y3334200D01*
X100076000Y9934200D02*
X84956000Y9934200D01*
X100076000Y11834200D02*
X84956000Y11834200D01*
X100076000Y12494200D02*
X84956000Y12494200D01*
X89993000Y7957200D02*
X90040000Y8003200D01*
X89800000Y8173200D02*
X89835000Y8208200D01*
X87696000Y5659200D02*
X87731000Y5695200D01*
X87491000Y5865200D02*
X87538000Y5911200D01*
X84956000Y1374200D02*
X84956000Y12494200D01*
X97800999Y6250201D02*
G75*
G03*
X97801426Y7617242I-1534992J684000D01*
G01*
X95582001Y5399201D02*
G75*
G03*
X96949042Y5398774I684000J1534992D01*
G01*
X96950000Y8469199D02*
G75*
G03*
X96237195Y8614452I-683999J-1535000D01*
G01*
X96266000Y8614199D02*
G75*
G03*
X95582682Y8468955I0J-1679999D01*
G01*
X94731000Y7618200D02*
G75*
G03*
X94730574Y6251158I1535000J-684000D01*
G01*
X90446000Y6934200D02*
G75*
G03*
X90446000Y6934200I-1680000J0D01*
G01*
D18*
%TO.C,IC1*%
X78305000Y64010200D02*
X78305000Y64010200D01*
X78405000Y64010200D02*
X78405000Y64010200D01*
D13*
X79405000Y71500200D02*
X97405000Y71500200D01*
X79405000Y64750200D02*
X79405000Y71500200D01*
X79405000Y46000200D02*
X79405000Y46750200D01*
X81905000Y46000200D02*
X79405000Y46000200D01*
X97405000Y71500200D02*
X97405000Y64750200D01*
X97405000Y46750200D02*
X97405000Y46000200D01*
X97405000Y46000200D02*
X94905000Y46000200D01*
D18*
X78405000Y64010200D02*
G75*
G03*
X78305000Y64010200I-50000J0D01*
G01*
X78305000Y64010200D02*
G75*
G03*
X78405000Y64010200I50000J0D01*
G01*
D16*
%TO.C,J9*%
X105403000Y23531800D02*
X104563000Y23531800D01*
X104563000Y23531800D02*
X104563000Y22931800D01*
X115923000Y23291800D02*
X104803000Y23291800D01*
X115923000Y23291800D02*
X115923000Y8171800D01*
X113963000Y23291800D02*
X113963000Y8171800D01*
X107363000Y23291800D02*
X107363000Y8171800D01*
X105463000Y23291800D02*
X105463000Y8171800D01*
X104803000Y23291800D02*
X104803000Y8171800D01*
X109340000Y13208800D02*
X109294000Y13255800D01*
X109124000Y13015800D02*
X109089000Y13050800D01*
X111638000Y10911800D02*
X111602000Y10946800D01*
X111432000Y10706800D02*
X111386000Y10753800D01*
X115923000Y8171800D02*
X104803000Y8171800D01*
X111046999Y21016799D02*
G75*
G03*
X109679958Y21017226I-684000J-1534992D01*
G01*
X111897999Y18797801D02*
G75*
G03*
X111898426Y20164842I-1534992J684000D01*
G01*
X108828001Y20165800D02*
G75*
G03*
X108682748Y19452995I1535000J-683999D01*
G01*
X108683001Y19481800D02*
G75*
G03*
X108828245Y18798482I1679999J0D01*
G01*
X109679000Y17946800D02*
G75*
G03*
X111046042Y17946374I684000J1535000D01*
G01*
X112043000Y11981800D02*
G75*
G03*
X112043000Y11981800I-1680000J0D01*
G01*
%TO.C,R2*%
X29084600Y37568136D02*
X29084600Y38022264D01*
X30554600Y37568136D02*
X30554600Y38022264D01*
%TO.C,Q2*%
X34127000Y34645600D02*
X34127000Y32970600D01*
X34127000Y34645600D02*
X34127000Y35295600D01*
X37247000Y34645600D02*
X37247000Y33995600D01*
X37247000Y34645600D02*
X37247000Y35295600D01*
%TO.C,R9*%
X96125064Y40853400D02*
X95670936Y40853400D01*
X96125064Y42323400D02*
X95670936Y42323400D01*
D17*
%TO.C,K2*%
X26971800Y12875600D02*
X26971800Y31975600D01*
X42471800Y12875600D02*
X26971800Y12875600D01*
X26971800Y31975600D02*
X42471800Y31975600D01*
X42471800Y31975600D02*
X42471800Y12875600D01*
D14*
X28702800Y12225600D02*
G75*
G03*
X28702800Y12225600I-100000J0D01*
G01*
D16*
%TO.C,J2*%
X24507600Y11296800D02*
X24507600Y12136800D01*
X24507600Y12136800D02*
X23907600Y12136800D01*
X24267600Y776800D02*
X24267600Y11896800D01*
X24267600Y776800D02*
X9147600Y776800D01*
X24267600Y2736800D02*
X9147600Y2736800D01*
X24267600Y9336800D02*
X9147600Y9336800D01*
X24267600Y11236800D02*
X9147600Y11236800D01*
X24267600Y11896800D02*
X9147600Y11896800D01*
X14184600Y7359800D02*
X14231600Y7405800D01*
X13991600Y7575800D02*
X14026600Y7610800D01*
X11887600Y5061800D02*
X11922600Y5097800D01*
X11682600Y5267800D02*
X11729600Y5313800D01*
X9147600Y776800D02*
X9147600Y11896800D01*
X21992599Y5652801D02*
G75*
G03*
X21993026Y7019842I-1534992J684000D01*
G01*
X19773601Y4801801D02*
G75*
G03*
X21140642Y4801374I684000J1534992D01*
G01*
X21141600Y7871799D02*
G75*
G03*
X20428795Y8017052I-683999J-1535000D01*
G01*
X20457600Y8016799D02*
G75*
G03*
X19774282Y7871555I0J-1679999D01*
G01*
X18922600Y7020800D02*
G75*
G03*
X18922174Y5653758I1535000J-684000D01*
G01*
X14637600Y6336800D02*
G75*
G03*
X14637600Y6336800I-1680000J0D01*
G01*
%TO.C,Q1*%
X17104600Y34393900D02*
X17104600Y32718900D01*
X17104600Y34393900D02*
X17104600Y35043900D01*
X20224600Y34393900D02*
X20224600Y33743900D01*
X20224600Y34393900D02*
X20224600Y35043900D01*
%TO.C,D5*%
X13428000Y34377200D02*
X13428000Y32457200D01*
X13428000Y32457200D02*
X16113000Y32457200D01*
X16113000Y34377200D02*
X13428000Y34377200D01*
%TO.C,R1*%
X12346000Y37658636D02*
X12346000Y38112764D01*
X13816000Y37658636D02*
X13816000Y38112764D01*
%TO.C,D7*%
X48768600Y34598000D02*
X48768600Y32678000D01*
X48768600Y32678000D02*
X51453600Y32678000D01*
X51453600Y34598000D02*
X48768600Y34598000D01*
%TO.C,J1*%
X11183000Y49740200D02*
X12023000Y49740200D01*
X12023000Y49740200D02*
X12023000Y50340200D01*
X663000Y49980200D02*
X11783000Y49980200D01*
X663000Y49980200D02*
X663000Y65100200D01*
X2623000Y49980200D02*
X2623000Y65100200D01*
X9223000Y49980200D02*
X9223000Y65100200D01*
X11123000Y49980200D02*
X11123000Y65100200D01*
X11783000Y49980200D02*
X11783000Y65100200D01*
X7246000Y60063200D02*
X7292000Y60016200D01*
X7462000Y60256200D02*
X7497000Y60221200D01*
X4948000Y62360200D02*
X4984000Y62325200D01*
X5154000Y62565200D02*
X5200000Y62518200D01*
X663000Y65100200D02*
X11783000Y65100200D01*
X5539001Y52255201D02*
G75*
G03*
X6906042Y52254774I684000J1534992D01*
G01*
X4688001Y54474199D02*
G75*
G03*
X4687574Y53107158I1534992J-684000D01*
G01*
X7757999Y53106200D02*
G75*
G03*
X7903252Y53819005I-1535000J683999D01*
G01*
X7902999Y53790200D02*
G75*
G03*
X7757755Y54473518I-1679999J0D01*
G01*
X6907000Y55325200D02*
G75*
G03*
X5539958Y55325626I-684000J-1535000D01*
G01*
X7903000Y61290200D02*
G75*
G03*
X7903000Y61290200I-1680000J0D01*
G01*
%TO.C,D3*%
X51791800Y39733000D02*
X49521800Y39733000D01*
X49521800Y39733000D02*
X49521800Y35848000D01*
X51791800Y35848000D02*
X51791800Y39733000D01*
%TO.C,J3*%
X42521800Y11383600D02*
X42521800Y12223600D01*
X42521800Y12223600D02*
X41921800Y12223600D01*
X42281800Y863600D02*
X42281800Y11983600D01*
X42281800Y863600D02*
X27161800Y863600D01*
X42281800Y2823600D02*
X27161800Y2823600D01*
X42281800Y9423600D02*
X27161800Y9423600D01*
X42281800Y11323600D02*
X27161800Y11323600D01*
X42281800Y11983600D02*
X27161800Y11983600D01*
X32198800Y7446600D02*
X32245800Y7492600D01*
X32005800Y7662600D02*
X32040800Y7697600D01*
X29901800Y5148600D02*
X29936800Y5184600D01*
X29696800Y5354600D02*
X29743800Y5400600D01*
X27161800Y863600D02*
X27161800Y11983600D01*
X40006799Y5739601D02*
G75*
G03*
X40007226Y7106642I-1534992J684000D01*
G01*
X37787801Y4888601D02*
G75*
G03*
X39154842Y4888174I684000J1534992D01*
G01*
X39155800Y7958599D02*
G75*
G03*
X38442995Y8103852I-683999J-1535000D01*
G01*
X38471800Y8103599D02*
G75*
G03*
X37788482Y7958355I0J-1679999D01*
G01*
X36936800Y7107600D02*
G75*
G03*
X36936374Y5740558I1535000J-684000D01*
G01*
X32651800Y6423600D02*
G75*
G03*
X32651800Y6423600I-1680000J0D01*
G01*
%TO.C,J7*%
X105453800Y43470800D02*
X104613800Y43470800D01*
X104613800Y43470800D02*
X104613800Y42870800D01*
X115973800Y43230800D02*
X104853800Y43230800D01*
X115973800Y43230800D02*
X115973800Y28110800D01*
X114013800Y43230800D02*
X114013800Y28110800D01*
X107413800Y43230800D02*
X107413800Y28110800D01*
X105513800Y43230800D02*
X105513800Y28110800D01*
X104853800Y43230800D02*
X104853800Y28110800D01*
X109390800Y33147800D02*
X109344800Y33194800D01*
X109174800Y32954800D02*
X109139800Y32989800D01*
X111688800Y30850800D02*
X111652800Y30885800D01*
X111482800Y30645800D02*
X111436800Y30692800D01*
X115973800Y28110800D02*
X104853800Y28110800D01*
X111097799Y40955799D02*
G75*
G03*
X109730758Y40956226I-684000J-1534992D01*
G01*
X111948799Y38736801D02*
G75*
G03*
X111949226Y40103842I-1534992J684000D01*
G01*
X108878801Y40104800D02*
G75*
G03*
X108733548Y39391995I1535000J-683999D01*
G01*
X108733801Y39420800D02*
G75*
G03*
X108879045Y38737482I1679999J0D01*
G01*
X109729800Y37885800D02*
G75*
G03*
X111096842Y37885374I684000J1535000D01*
G01*
X112093800Y31920800D02*
G75*
G03*
X112093800Y31920800I-1680000J0D01*
G01*
%TO.C,D1*%
X16756000Y39512200D02*
X14486000Y39512200D01*
X14486000Y39512200D02*
X14486000Y35627200D01*
X16756000Y35627200D02*
X16756000Y39512200D01*
%TO.C,D6*%
X30446000Y34742000D02*
X30446000Y32822000D01*
X30446000Y32822000D02*
X33131000Y32822000D01*
X33131000Y34742000D02*
X30446000Y34742000D01*
%TO.C,R7*%
X56725864Y37221000D02*
X56271736Y37221000D01*
X56725864Y38691000D02*
X56271736Y38691000D01*
%TO.C,J5*%
X79478800Y11434400D02*
X79478800Y12274400D01*
X79478800Y12274400D02*
X78878800Y12274400D01*
X79238800Y914400D02*
X79238800Y12034400D01*
X79238800Y914400D02*
X64118800Y914400D01*
X79238800Y2874400D02*
X64118800Y2874400D01*
X79238800Y9474400D02*
X64118800Y9474400D01*
X79238800Y11374400D02*
X64118800Y11374400D01*
X79238800Y12034400D02*
X64118800Y12034400D01*
X69155800Y7497400D02*
X69202800Y7543400D01*
X68962800Y7713400D02*
X68997800Y7748400D01*
X66858800Y5199400D02*
X66893800Y5235400D01*
X66653800Y5405400D02*
X66700800Y5451400D01*
X64118800Y914400D02*
X64118800Y12034400D01*
X76963799Y5790401D02*
G75*
G03*
X76964226Y7157442I-1534992J684000D01*
G01*
X74744801Y4939401D02*
G75*
G03*
X76111842Y4938974I684000J1534992D01*
G01*
X76112800Y8009399D02*
G75*
G03*
X75399995Y8154652I-683999J-1535000D01*
G01*
X75428800Y8154399D02*
G75*
G03*
X74745482Y8009155I0J-1679999D01*
G01*
X73893800Y7158400D02*
G75*
G03*
X73893374Y5791358I1535000J-684000D01*
G01*
X69608800Y6474400D02*
G75*
G03*
X69608800Y6474400I-1680000J0D01*
G01*
%TO.C,R5*%
X19204000Y38166636D02*
X19204000Y38620764D01*
X20674000Y38166636D02*
X20674000Y38620764D01*
%TO.C,R10*%
X80291436Y42017400D02*
X80745564Y42017400D01*
X80291436Y40547400D02*
X80745564Y40547400D01*
%TO.C,J6*%
X99990600Y66665800D02*
X99990600Y67995800D01*
X101320600Y66665800D02*
X99990600Y66665800D01*
X102590600Y66665800D02*
X107730600Y66665800D01*
X102590600Y66665800D02*
X102590600Y69325800D01*
X107730600Y66665800D02*
X107730600Y69325800D01*
X102590600Y69325800D02*
X107730600Y69325800D01*
%TO.C,J10*%
X105606200Y62892600D02*
X104766200Y62892600D01*
X104766200Y62892600D02*
X104766200Y62292600D01*
X116126200Y62652600D02*
X105006200Y62652600D01*
X116126200Y62652600D02*
X116126200Y47532600D01*
X114166200Y62652600D02*
X114166200Y47532600D01*
X107566200Y62652600D02*
X107566200Y47532600D01*
X105666200Y62652600D02*
X105666200Y47532600D01*
X105006200Y62652600D02*
X105006200Y47532600D01*
X109543200Y52569600D02*
X109497200Y52616600D01*
X109327200Y52376600D02*
X109292200Y52411600D01*
X111841200Y50272600D02*
X111805200Y50307600D01*
X111635200Y50067600D02*
X111589200Y50114600D01*
X116126200Y47532600D02*
X105006200Y47532600D01*
X111250199Y60377599D02*
G75*
G03*
X109883158Y60378026I-684000J-1534992D01*
G01*
X112101199Y58158601D02*
G75*
G03*
X112101626Y59525642I-1534992J684000D01*
G01*
X109031201Y59526600D02*
G75*
G03*
X108885948Y58813795I1535000J-683999D01*
G01*
X108886201Y58842600D02*
G75*
G03*
X109031445Y58159282I1679999J0D01*
G01*
X109882200Y57307600D02*
G75*
G03*
X111249242Y57307174I684000J1535000D01*
G01*
X112246200Y51342600D02*
G75*
G03*
X112246200Y51342600I-1680000J0D01*
G01*
%TO.C,U1*%
X62067000Y56318200D02*
X68077000Y56318200D01*
X64317000Y49498200D02*
X68077000Y49498200D01*
X68077000Y56318200D02*
X68077000Y55058200D01*
X68077000Y49498200D02*
X68077000Y50758200D01*
%TO.C,D4*%
X70350000Y39547200D02*
X68080000Y39547200D01*
X68080000Y39547200D02*
X68080000Y35662200D01*
X70350000Y35662200D02*
X70350000Y39547200D01*
%TO.C,R6*%
X37844464Y37390400D02*
X37390336Y37390400D01*
X37844464Y38860400D02*
X37390336Y38860400D01*
D17*
%TO.C,K1*%
X8957600Y12792800D02*
X8957600Y31892800D01*
X24457600Y12792800D02*
X8957600Y12792800D01*
X8957600Y31892800D02*
X24457600Y31892800D01*
X24457600Y31892800D02*
X24457600Y12792800D01*
D14*
X10688600Y12142800D02*
G75*
G03*
X10688600Y12142800I-100000J0D01*
G01*
D16*
%TO.C,J4*%
X60982000Y11356800D02*
X60982000Y12196800D01*
X60982000Y12196800D02*
X60382000Y12196800D01*
X60742000Y836800D02*
X60742000Y11956800D01*
X60742000Y836800D02*
X45622000Y836800D01*
X60742000Y2796800D02*
X45622000Y2796800D01*
X60742000Y9396800D02*
X45622000Y9396800D01*
X60742000Y11296800D02*
X45622000Y11296800D01*
X60742000Y11956800D02*
X45622000Y11956800D01*
X50659000Y7419800D02*
X50706000Y7465800D01*
X50466000Y7635800D02*
X50501000Y7670800D01*
X48362000Y5121800D02*
X48397000Y5157800D01*
X48157000Y5327800D02*
X48204000Y5373800D01*
X45622000Y836800D02*
X45622000Y11956800D01*
X58466999Y5712801D02*
G75*
G03*
X58467426Y7079842I-1534992J684000D01*
G01*
X56248001Y4861801D02*
G75*
G03*
X57615042Y4861374I684000J1534992D01*
G01*
X57616000Y7931799D02*
G75*
G03*
X56903195Y8077052I-683999J-1535000D01*
G01*
X56932000Y8076799D02*
G75*
G03*
X56248682Y7931555I0J-1679999D01*
G01*
X55397000Y7080800D02*
G75*
G03*
X55396574Y5713758I1535000J-684000D01*
G01*
X51112000Y6396800D02*
G75*
G03*
X51112000Y6396800I-1680000J0D01*
G01*
D15*
%TO.C,S2*%
X84861870Y38325200D02*
X82426200Y38325200D01*
X86601200Y37830200D02*
X86601200Y32830200D01*
X80611200Y37830200D02*
X80611200Y32830200D01*
X84918530Y32335200D02*
X82326870Y32335200D01*
X86462205Y39834535D02*
G75*
G03*
X86462205Y39834535I-99335J0D01*
G01*
D16*
%TO.C,R4*%
X65940000Y37667136D02*
X65940000Y38121264D01*
X67410000Y37667136D02*
X67410000Y38121264D01*
%TD*%
M02*
