%TF.GenerationSoftware,KiCad,Pcbnew,7.0.8*%
%TF.CreationDate,2024-04-08T22:48:43+05:30*%
%TF.ProjectId,Esp32_relay,45737033-325f-4726-956c-61792e6b6963,rev?*%
%TF.SameCoordinates,PX4046330PY7125ac8*%
%TF.FileFunction,Copper,L2,Bot*%
%TF.FilePolarity,Positive*%
%FSLAX46Y46*%
G04 Gerber Fmt 4.6, Leading zero omitted, Abs format (unit mm)*
G04 Created by KiCad (PCBNEW 7.0.8) date 2024-04-08 22:48:43*
%MOMM*%
%LPD*%
G01*
G04 APERTURE LIST*
%TA.AperFunction,ComponentPad*%
%ADD10R,2.600000X2.000000*%
%TD*%
%TA.AperFunction,ComponentPad*%
%ADD11C,2.600000*%
%TD*%
%TA.AperFunction,ComponentPad*%
%ADD12C,1.500000*%
%TD*%
%TA.AperFunction,ComponentPad*%
%ADD13C,5.000000*%
%TD*%
%TA.AperFunction,ComponentPad*%
%ADD14R,1.980000X1.980000*%
%TD*%
%TA.AperFunction,ComponentPad*%
%ADD15C,1.980000*%
%TD*%
%TA.AperFunction,ComponentPad*%
%ADD16C,1.935000*%
%TD*%
%TA.AperFunction,ComponentPad*%
%ADD17R,2.600000X2.600000*%
%TD*%
%TA.AperFunction,ComponentPad*%
%ADD18R,1.700000X1.700000*%
%TD*%
%TA.AperFunction,ComponentPad*%
%ADD19O,1.700000X1.700000*%
%TD*%
%TA.AperFunction,ViaPad*%
%ADD20C,0.900000*%
%TD*%
%TA.AperFunction,Conductor*%
%ADD21C,1.000000*%
%TD*%
G04 APERTURE END LIST*
D10*
%TO.P,PS1,1,AC/L*%
%TO.N,/P_AC*%
X15590500Y61634200D03*
D11*
%TO.P,PS1,2,AC/N*%
%TO.N,/N_AC*%
X15590500Y53834200D03*
%TO.P,PS1,3,-Vout*%
%TO.N,GND*%
X58090500Y69034200D03*
%TO.P,PS1,4,+Vout*%
%TO.N,+5V*%
X58090500Y46434200D03*
%TD*%
D12*
%TO.P,S1,1,1*%
%TO.N,/RESET*%
X95087000Y38378200D03*
%TO.P,S1,2,2*%
%TO.N,GND*%
X95087000Y31878200D03*
%TO.P,S1,3,3*%
%TO.N,/RESET*%
X90587000Y38378200D03*
%TO.P,S1,4,4*%
%TO.N,GND*%
X90587000Y31878200D03*
%TD*%
D13*
%TO.P,H2,1,1*%
%TO.N,unconnected-(H2-Pad1)*%
X4216400Y4572000D03*
%TD*%
D14*
%TO.P,K4,A1*%
%TO.N,+5V*%
X65678800Y16376400D03*
D15*
%TO.P,K4,A2*%
%TO.N,/Relay_4_T*%
X77678800Y16376400D03*
D16*
%TO.P,K4,COM*%
%TO.N,/COM_4*%
X71678800Y14376400D03*
D15*
%TO.P,K4,NC*%
%TO.N,unconnected-(K4-PadNC)*%
X65678800Y28576400D03*
%TO.P,K4,NO*%
%TO.N,/NO_4*%
X77678800Y28576400D03*
%TD*%
D14*
%TO.P,K3,A1*%
%TO.N,+5V*%
X47182000Y16298800D03*
D15*
%TO.P,K3,A2*%
%TO.N,/Relay_3_T*%
X59182000Y16298800D03*
D16*
%TO.P,K3,COM*%
%TO.N,/COM_3*%
X53182000Y14298800D03*
D15*
%TO.P,K3,NC*%
%TO.N,unconnected-(K3-PadNC)*%
X47182000Y28498800D03*
%TO.P,K3,NO*%
%TO.N,/NO_3*%
X59182000Y28498800D03*
%TD*%
D17*
%TO.P,J8,1,Pin_1*%
%TO.N,/Switch_1*%
X96266000Y6934200D03*
D11*
%TO.P,J8,2,Pin_2*%
%TO.N,GND*%
X88766000Y6934200D03*
%TD*%
D17*
%TO.P,J9,1,Pin_1*%
%TO.N,/Switch_2*%
X110363000Y19481800D03*
D11*
%TO.P,J9,2,Pin_2*%
%TO.N,GND*%
X110363000Y11981800D03*
%TD*%
D14*
%TO.P,K2,A1*%
%TO.N,+5V*%
X28721800Y16325600D03*
D15*
%TO.P,K2,A2*%
%TO.N,/Relay_2_T*%
X40721800Y16325600D03*
D16*
%TO.P,K2,COM*%
%TO.N,/COM_2*%
X34721800Y14325600D03*
D15*
%TO.P,K2,NC*%
%TO.N,unconnected-(K2-PadNC)*%
X28721800Y28525600D03*
%TO.P,K2,NO*%
%TO.N,/NO_2*%
X40721800Y28525600D03*
%TD*%
D13*
%TO.P,H4,1,1*%
%TO.N,unconnected-(H4-Pad1)*%
X111836200Y4572000D03*
%TD*%
%TO.P,H1,1,1*%
%TO.N,unconnected-(H1-Pad1)*%
X4038600Y69011800D03*
%TD*%
D17*
%TO.P,J2,1,Pin_1*%
%TO.N,/NO_1*%
X20457600Y6336800D03*
D11*
%TO.P,J2,2,Pin_2*%
%TO.N,/COM_1*%
X12957600Y6336800D03*
%TD*%
D17*
%TO.P,J1,1,Pin_1*%
%TO.N,/N_AC*%
X6223000Y53790200D03*
D11*
%TO.P,J1,2,Pin_2*%
%TO.N,/P_AC*%
X6223000Y61290200D03*
%TD*%
D17*
%TO.P,J3,1,Pin_1*%
%TO.N,/NO_2*%
X38471800Y6423600D03*
D11*
%TO.P,J3,2,Pin_2*%
%TO.N,/COM_2*%
X30971800Y6423600D03*
%TD*%
D17*
%TO.P,J7,1,Pin_1*%
%TO.N,/Switch_3*%
X110413800Y39420800D03*
D11*
%TO.P,J7,2,Pin_2*%
%TO.N,GND*%
X110413800Y31920800D03*
%TD*%
D13*
%TO.P,H3,1,1*%
%TO.N,unconnected-(H3-Pad1)*%
X111887000Y68808600D03*
%TD*%
D17*
%TO.P,J5,1,Pin_1*%
%TO.N,/NO_4*%
X75428800Y6474400D03*
D11*
%TO.P,J5,2,Pin_2*%
%TO.N,/COM_4*%
X67928800Y6474400D03*
%TD*%
D18*
%TO.P,J6,1,Pin_1*%
%TO.N,GND*%
X101320600Y67995800D03*
D19*
%TO.P,J6,2,Pin_2*%
%TO.N,/Tx*%
X103860600Y67995800D03*
%TO.P,J6,3,Pin_3*%
%TO.N,/Rx*%
X106400600Y67995800D03*
%TD*%
D17*
%TO.P,J10,1,Pin_1*%
%TO.N,/Switch_4*%
X110566200Y58842600D03*
D11*
%TO.P,J10,2,Pin_2*%
%TO.N,GND*%
X110566200Y51342600D03*
%TD*%
D14*
%TO.P,K1,A1*%
%TO.N,+5V*%
X10707600Y16242800D03*
D15*
%TO.P,K1,A2*%
%TO.N,/Relay_1_T*%
X22707600Y16242800D03*
D16*
%TO.P,K1,COM*%
%TO.N,/COM_1*%
X16707600Y14242800D03*
D15*
%TO.P,K1,NC*%
%TO.N,unconnected-(K1-PadNC)*%
X10707600Y28442800D03*
%TO.P,K1,NO*%
%TO.N,/NO_1*%
X22707600Y28442800D03*
%TD*%
D17*
%TO.P,J4,1,Pin_1*%
%TO.N,/NO_3*%
X56932000Y6396800D03*
D11*
%TO.P,J4,2,Pin_2*%
%TO.N,/COM_3*%
X49432000Y6396800D03*
%TD*%
D12*
%TO.P,S2,1,1*%
%TO.N,/EN*%
X85856200Y38580200D03*
%TO.P,S2,2,2*%
%TO.N,GND*%
X85856200Y32080200D03*
%TO.P,S2,3,3*%
%TO.N,/EN*%
X81356200Y38580200D03*
%TO.P,S2,4,4*%
%TO.N,GND*%
X81356200Y32080200D03*
%TD*%
D20*
%TO.N,GND*%
X37251600Y68351400D03*
X34457600Y51333400D03*
X39537600Y68351400D03*
X17754600Y37134800D03*
X27599600Y64795400D03*
X85765600Y49047400D03*
X84241600Y52095400D03*
X26075600Y61747400D03*
X87797600Y49301400D03*
X41823600Y68351400D03*
X31155600Y55651400D03*
X70993000Y63830200D03*
X34711600Y68351400D03*
X82971600Y52095400D03*
X28361600Y51079400D03*
X24297600Y58699400D03*
X26075600Y68351400D03*
X84455000Y56464200D03*
X84201000Y54940200D03*
X64897000Y46050200D03*
X28107600Y57937400D03*
X33949600Y54381400D03*
X26075600Y54889400D03*
X33695600Y61493400D03*
X86741000Y53670200D03*
X71170800Y37439600D03*
X53746400Y37414200D03*
X51475600Y68351400D03*
X86019600Y52095400D03*
X71501000Y49860200D03*
X46395600Y68351400D03*
X44109600Y68351400D03*
X89535000Y54940200D03*
X88051600Y52095400D03*
X28107600Y62001400D03*
X26329600Y50825400D03*
X86781600Y50317400D03*
X94909600Y52095400D03*
X24297600Y50825400D03*
X91607600Y52095400D03*
X33949600Y58445400D03*
X30139600Y68351400D03*
X91861600Y50825400D03*
X93131600Y52095400D03*
X24297600Y65049400D03*
X90591600Y50825400D03*
X34950400Y37211000D03*
X24297600Y62001400D03*
X48935600Y68351400D03*
X63119000Y57226200D03*
X29631600Y64795400D03*
X89575600Y49555400D03*
X85471000Y59004200D03*
X26329600Y58699400D03*
X88265000Y59004200D03*
X82931000Y48336200D03*
X26075600Y65049400D03*
X90083600Y52095400D03*
X89535000Y56464200D03*
X32933600Y65557400D03*
X91099600Y49301400D03*
X28107600Y68351400D03*
X28107600Y54381400D03*
X97663000Y33350200D03*
X24297600Y68351400D03*
X32425600Y68351400D03*
X88559600Y50825400D03*
X31663600Y51587400D03*
X85003600Y50317400D03*
X24297600Y54889400D03*
X86741000Y59004200D03*
X93131600Y49301400D03*
X30901600Y59461400D03*
X31155600Y61747400D03*
%TO.N,+3.3V*%
X73787000Y53162200D03*
X76522800Y41282400D03*
X99949000Y41478200D03*
%TO.N,+5V*%
X8940800Y36804600D03*
X45847000Y37160200D03*
X63754000Y37007800D03*
X27457400Y35204400D03*
%TD*%
D21*
%TO.N,+3.3V*%
X99949000Y42494200D02*
X98933000Y43510200D01*
X76522800Y41282400D02*
X76327000Y41478200D01*
X98933000Y43510200D02*
X78750600Y43510200D01*
X78750600Y43510200D02*
X76522800Y41282400D01*
X76327000Y50622200D02*
X73787000Y53162200D01*
X99949000Y41478200D02*
X99949000Y42494200D01*
X76327000Y41478200D02*
X76327000Y50622200D01*
%TO.N,+5V*%
X27457400Y35204400D02*
X25146000Y37515800D01*
X58090500Y46434200D02*
X46583600Y46434200D01*
X43713400Y43564000D02*
X46583600Y46434200D01*
X8991600Y41427400D02*
X8991600Y36855400D01*
X13030200Y45466000D02*
X8991600Y41427400D01*
X46583600Y46434200D02*
X27609800Y46434200D01*
X25146000Y37515800D02*
X25146000Y43970400D01*
X58090500Y42671300D02*
X58090500Y46434200D01*
X8991600Y36855400D02*
X8940800Y36804600D01*
X44983400Y37160200D02*
X43713400Y38430200D01*
X45847000Y37160200D02*
X44983400Y37160200D01*
X63754000Y37007800D02*
X58090500Y42671300D01*
X26641600Y45466000D02*
X13030200Y45466000D01*
X25146000Y43970400D02*
X27609800Y46434200D01*
X43713400Y38430200D02*
X43713400Y43564000D01*
%TO.N,/NO_1*%
X22707600Y28442800D02*
X20457600Y26192800D01*
X20457600Y26192800D02*
X20457600Y6336800D01*
%TO.N,/NO_2*%
X40721800Y28525600D02*
X38471800Y26275600D01*
X38471800Y26275600D02*
X38471800Y6423600D01*
%TO.N,/NO_3*%
X56932000Y26248800D02*
X56932000Y6396800D01*
X59182000Y28498800D02*
X56932000Y26248800D01*
%TO.N,/NO_4*%
X75428800Y26326400D02*
X75428800Y6474400D01*
X77678800Y28576400D02*
X75428800Y26326400D01*
%TD*%
%TA.AperFunction,Conductor*%
%TO.N,/N_AC*%
G36*
X19027826Y56419115D02*
G01*
X19061690Y56386874D01*
X19635316Y55583797D01*
X19636503Y55582136D01*
X19659451Y55516142D01*
X19659600Y55510062D01*
X19659600Y49022436D01*
X19639915Y48955397D01*
X19591054Y48911527D01*
X19177782Y48704891D01*
X19122328Y48691800D01*
X4203144Y48691800D01*
X4136105Y48711485D01*
X4134361Y48712626D01*
X3458817Y49162989D01*
X3413956Y49216554D01*
X3403600Y49266163D01*
X3403600Y52442356D01*
X4423000Y52442356D01*
X4429401Y52382828D01*
X4429403Y52382821D01*
X4479645Y52248114D01*
X4479649Y52248107D01*
X4565809Y52133013D01*
X4565812Y52133010D01*
X4680906Y52046850D01*
X4680913Y52046846D01*
X4815620Y51996604D01*
X4815627Y51996602D01*
X4875155Y51990201D01*
X4875172Y51990200D01*
X5973000Y51990200D01*
X5973000Y53136363D01*
X6054249Y53105549D01*
X6180660Y53090200D01*
X6265340Y53090200D01*
X6391751Y53105549D01*
X6473000Y53136363D01*
X6473000Y51990200D01*
X7570828Y51990200D01*
X7570844Y51990201D01*
X7630372Y51996602D01*
X7630379Y51996604D01*
X7765086Y52046846D01*
X7765093Y52046850D01*
X7880187Y52133010D01*
X7880190Y52133013D01*
X7966350Y52248107D01*
X7966354Y52248114D01*
X8016596Y52382821D01*
X8016598Y52382828D01*
X8022999Y52442356D01*
X8023000Y52442373D01*
X8023000Y53540200D01*
X6882329Y53540200D01*
X6923000Y53705205D01*
X6923000Y53834196D01*
X13785453Y53834196D01*
X13805613Y53565174D01*
X13805613Y53565172D01*
X13865642Y53302167D01*
X13865648Y53302148D01*
X13964209Y53051019D01*
X13964208Y53051019D01*
X14099102Y52817378D01*
X14152794Y52750049D01*
X14152795Y52750049D01*
X14987952Y53585207D01*
X14997688Y53555244D01*
X15085686Y53416581D01*
X15205403Y53304160D01*
X15340010Y53230159D01*
X14505348Y52395498D01*
X14687983Y52270980D01*
X14687985Y52270979D01*
X14931039Y52153931D01*
X14931037Y52153931D01*
X15188837Y52074410D01*
X15188843Y52074408D01*
X15455601Y52034201D01*
X15455610Y52034200D01*
X15725390Y52034200D01*
X15725398Y52034201D01*
X15992156Y52074408D01*
X15992162Y52074410D01*
X16249961Y52153931D01*
X16493021Y52270982D01*
X16675650Y52395498D01*
X15838034Y53233114D01*
X15906129Y53260074D01*
X16038992Y53356605D01*
X16143675Y53483145D01*
X16192131Y53586121D01*
X17028203Y52750049D01*
X17028204Y52750050D01*
X17081893Y52817372D01*
X17081900Y52817383D01*
X17216790Y53051019D01*
X17315351Y53302148D01*
X17315357Y53302167D01*
X17375386Y53565172D01*
X17375386Y53565174D01*
X17395547Y53834196D01*
X17395547Y53834205D01*
X17375386Y54103227D01*
X17375386Y54103229D01*
X17315357Y54366234D01*
X17315351Y54366253D01*
X17216790Y54617382D01*
X17216791Y54617382D01*
X17081897Y54851023D01*
X17028204Y54918353D01*
X16193046Y54083196D01*
X16183312Y54113156D01*
X16095314Y54251819D01*
X15975597Y54364240D01*
X15840989Y54438242D01*
X16675650Y55272904D01*
X16493017Y55397421D01*
X16493016Y55397422D01*
X16249960Y55514470D01*
X16249962Y55514470D01*
X15992162Y55593991D01*
X15992156Y55593993D01*
X15725398Y55634200D01*
X15455601Y55634200D01*
X15188843Y55593993D01*
X15188837Y55593991D01*
X14931038Y55514470D01*
X14687985Y55397422D01*
X14687976Y55397417D01*
X14505348Y55272904D01*
X15342965Y54435287D01*
X15274871Y54408326D01*
X15142008Y54311795D01*
X15037325Y54185255D01*
X14988868Y54082279D01*
X14152795Y54918352D01*
X14099100Y54851020D01*
X13964209Y54617382D01*
X13865648Y54366253D01*
X13865642Y54366234D01*
X13805613Y54103229D01*
X13805613Y54103227D01*
X13785453Y53834205D01*
X13785453Y53834196D01*
X6923000Y53834196D01*
X6923000Y53875195D01*
X6882329Y54040200D01*
X8023000Y54040200D01*
X8023000Y55138028D01*
X8022999Y55138045D01*
X8016598Y55197573D01*
X8016596Y55197580D01*
X7966354Y55332287D01*
X7966350Y55332294D01*
X7880190Y55447388D01*
X7880187Y55447391D01*
X7765093Y55533551D01*
X7765086Y55533555D01*
X7630379Y55583797D01*
X7630372Y55583799D01*
X7570844Y55590200D01*
X6473000Y55590200D01*
X6473000Y54444038D01*
X6391751Y54474851D01*
X6265340Y54490200D01*
X6180660Y54490200D01*
X6054249Y54474851D01*
X5973000Y54444038D01*
X5973000Y55590200D01*
X4875155Y55590200D01*
X4815627Y55583799D01*
X4815620Y55583797D01*
X4680913Y55533555D01*
X4680906Y55533551D01*
X4565812Y55447391D01*
X4565809Y55447388D01*
X4479649Y55332294D01*
X4479645Y55332287D01*
X4429403Y55197580D01*
X4429401Y55197573D01*
X4423000Y55138045D01*
X4423000Y54040200D01*
X5563671Y54040200D01*
X5523000Y53875195D01*
X5523000Y53705205D01*
X5563671Y53540200D01*
X4423000Y53540200D01*
X4423000Y52442356D01*
X3403600Y52442356D01*
X3403600Y55739987D01*
X3423285Y55807026D01*
X3455526Y55840890D01*
X4260264Y56415704D01*
X4326258Y56438651D01*
X4332338Y56438800D01*
X18960787Y56438800D01*
X19027826Y56419115D01*
G37*
%TD.AperFunction*%
%TD*%
%TA.AperFunction,Conductor*%
%TO.N,/P_AC*%
G36*
X19003295Y64978915D02*
G01*
X19005039Y64977774D01*
X19680584Y64527411D01*
X19725444Y64473847D01*
X19735800Y64424238D01*
X19735800Y57963236D01*
X19716115Y57896197D01*
X19667254Y57852327D01*
X19253982Y57645691D01*
X19198528Y57632600D01*
X4279344Y57632600D01*
X4212305Y57652285D01*
X4210561Y57653426D01*
X3535017Y58103789D01*
X3490156Y58157354D01*
X3479800Y58206963D01*
X3479800Y61290196D01*
X4417953Y61290196D01*
X4438113Y61021174D01*
X4438113Y61021172D01*
X4498142Y60758167D01*
X4498148Y60758148D01*
X4596709Y60507019D01*
X4596708Y60507019D01*
X4731602Y60273378D01*
X4785294Y60206049D01*
X4785295Y60206049D01*
X5582859Y61003614D01*
X5642680Y60889634D01*
X5755405Y60762394D01*
X5895305Y60665829D01*
X5936541Y60650190D01*
X5137848Y59851498D01*
X5320483Y59726980D01*
X5320485Y59726979D01*
X5563539Y59609931D01*
X5563537Y59609931D01*
X5821337Y59530410D01*
X5821343Y59530408D01*
X6088101Y59490201D01*
X6088110Y59490200D01*
X6357890Y59490200D01*
X6357898Y59490201D01*
X6624656Y59530408D01*
X6624662Y59530410D01*
X6882461Y59609931D01*
X7125521Y59726982D01*
X7308150Y59851498D01*
X6509457Y60650190D01*
X6550695Y60665829D01*
X6690595Y60762394D01*
X6803320Y60889634D01*
X6863139Y61003613D01*
X7660703Y60206049D01*
X7660704Y60206050D01*
X7714393Y60273372D01*
X7714400Y60273383D01*
X7849290Y60507019D01*
X7880428Y60586356D01*
X13790500Y60586356D01*
X13796901Y60526828D01*
X13796903Y60526821D01*
X13847145Y60392114D01*
X13847149Y60392107D01*
X13933309Y60277013D01*
X13933312Y60277010D01*
X14048406Y60190850D01*
X14048413Y60190846D01*
X14183120Y60140604D01*
X14183127Y60140602D01*
X14242655Y60134201D01*
X14242672Y60134200D01*
X15340500Y60134200D01*
X15340500Y61029890D01*
X15349317Y61025042D01*
X15508386Y60984200D01*
X15631394Y60984200D01*
X15753433Y60999617D01*
X15840500Y61034090D01*
X15840500Y60134200D01*
X16938328Y60134200D01*
X16938344Y60134201D01*
X16997872Y60140602D01*
X16997879Y60140604D01*
X17132586Y60190846D01*
X17132593Y60190850D01*
X17247687Y60277010D01*
X17247690Y60277013D01*
X17333850Y60392107D01*
X17333854Y60392114D01*
X17384096Y60526821D01*
X17384098Y60526828D01*
X17390499Y60586356D01*
X17390500Y60586373D01*
X17390500Y61384200D01*
X16191228Y61384200D01*
X16213600Y61431743D01*
X16244373Y61593062D01*
X16234061Y61756966D01*
X16192720Y61884200D01*
X17390500Y61884200D01*
X17390500Y62682028D01*
X17390499Y62682045D01*
X17384098Y62741573D01*
X17384096Y62741580D01*
X17333854Y62876287D01*
X17333850Y62876294D01*
X17247690Y62991388D01*
X17247687Y62991391D01*
X17132593Y63077551D01*
X17132586Y63077555D01*
X16997879Y63127797D01*
X16997872Y63127799D01*
X16938344Y63134200D01*
X15840500Y63134200D01*
X15840500Y62238511D01*
X15831683Y62243358D01*
X15672614Y62284200D01*
X15549606Y62284200D01*
X15427567Y62268783D01*
X15340500Y62234311D01*
X15340500Y63134200D01*
X14242655Y63134200D01*
X14183127Y63127799D01*
X14183120Y63127797D01*
X14048413Y63077555D01*
X14048406Y63077551D01*
X13933312Y62991391D01*
X13933309Y62991388D01*
X13847149Y62876294D01*
X13847145Y62876287D01*
X13796903Y62741580D01*
X13796901Y62741573D01*
X13790500Y62682045D01*
X13790500Y61884200D01*
X14989772Y61884200D01*
X14967400Y61836657D01*
X14936627Y61675338D01*
X14946939Y61511434D01*
X14988280Y61384200D01*
X13790500Y61384200D01*
X13790500Y60586356D01*
X7880428Y60586356D01*
X7947851Y60758148D01*
X7947857Y60758167D01*
X8007886Y61021172D01*
X8007886Y61021174D01*
X8028047Y61290196D01*
X8028047Y61290205D01*
X8007886Y61559227D01*
X8007886Y61559229D01*
X7947857Y61822234D01*
X7947851Y61822253D01*
X7849290Y62073382D01*
X7849291Y62073382D01*
X7714397Y62307023D01*
X7660704Y62374353D01*
X6863139Y61576788D01*
X6803320Y61690766D01*
X6690595Y61818006D01*
X6550695Y61914571D01*
X6509457Y61930211D01*
X7308150Y62728904D01*
X7125517Y62853421D01*
X7125516Y62853422D01*
X6882460Y62970470D01*
X6882462Y62970470D01*
X6624662Y63049991D01*
X6624656Y63049993D01*
X6357898Y63090200D01*
X6088101Y63090200D01*
X5821343Y63049993D01*
X5821337Y63049991D01*
X5563538Y62970470D01*
X5320485Y62853422D01*
X5320476Y62853417D01*
X5137848Y62728904D01*
X5936542Y61930211D01*
X5895305Y61914571D01*
X5755405Y61818006D01*
X5642680Y61690766D01*
X5582859Y61576788D01*
X4785295Y62374352D01*
X4731600Y62307020D01*
X4596709Y62073382D01*
X4498148Y61822253D01*
X4498142Y61822234D01*
X4438113Y61559229D01*
X4438113Y61559227D01*
X4417953Y61290205D01*
X4417953Y61290196D01*
X3479800Y61290196D01*
X3479800Y64655226D01*
X3499485Y64722265D01*
X3552289Y64768020D01*
X3564582Y64772861D01*
X4222711Y64992237D01*
X4261923Y64998600D01*
X18936256Y64998600D01*
X19003295Y64978915D01*
G37*
%TD.AperFunction*%
%TD*%
%TA.AperFunction,Conductor*%
%TO.N,GND*%
G36*
X116406192Y72450015D02*
G01*
X116451947Y72397211D01*
X116463153Y72345917D01*
X116588845Y374717D01*
X116569277Y307643D01*
X116516553Y261796D01*
X116464845Y250500D01*
X373847Y250500D01*
X306808Y270185D01*
X261053Y322989D01*
X249847Y374283D01*
X242516Y4571997D01*
X1210815Y4571997D01*
X1231138Y4223073D01*
X1231139Y4223062D01*
X1291828Y3878873D01*
X1291830Y3878866D01*
X1392074Y3544028D01*
X1530507Y3223105D01*
X1530513Y3223092D01*
X1705270Y2920403D01*
X1913984Y2640051D01*
X1913989Y2640045D01*
X2037863Y2508747D01*
X2153842Y2385817D01*
X2330303Y2237749D01*
X2421586Y2161153D01*
X2421594Y2161147D01*
X2713603Y1969089D01*
X2713607Y1969087D01*
X3025949Y1812223D01*
X3354389Y1692681D01*
X3694486Y1612077D01*
X4041641Y1571500D01*
X4041648Y1571500D01*
X4391152Y1571500D01*
X4391159Y1571500D01*
X4738314Y1612077D01*
X5078411Y1692681D01*
X5406851Y1812223D01*
X5719193Y1969087D01*
X6011211Y2161151D01*
X6278958Y2385817D01*
X6518812Y2640047D01*
X6727530Y2920404D01*
X6902289Y3223096D01*
X7040726Y3544029D01*
X7140969Y3878864D01*
X7201662Y4223073D01*
X7221985Y4572000D01*
X7220761Y4593007D01*
X7215706Y4679807D01*
X7201662Y4920927D01*
X7200183Y4929317D01*
X7140971Y5265128D01*
X7140969Y5265135D01*
X7137521Y5276653D01*
X7040726Y5599971D01*
X6902289Y5920904D01*
X6727530Y6223596D01*
X6708209Y6249549D01*
X6643256Y6336796D01*
X11152051Y6336796D01*
X11172216Y6067699D01*
X11232264Y5804612D01*
X11232266Y5804605D01*
X11317938Y5586317D01*
X11330857Y5553402D01*
X11465785Y5319698D01*
X11564818Y5195515D01*
X11634042Y5108711D01*
X11767193Y4985166D01*
X11831859Y4925165D01*
X12054826Y4773149D01*
X12297959Y4656062D01*
X12555828Y4576520D01*
X12555829Y4576520D01*
X12555832Y4576519D01*
X12822663Y4536301D01*
X12822668Y4536301D01*
X12822671Y4536300D01*
X12822672Y4536300D01*
X13092528Y4536300D01*
X13092529Y4536300D01*
X13092536Y4536301D01*
X13359367Y4576519D01*
X13359368Y4576520D01*
X13359372Y4576520D01*
X13617241Y4656062D01*
X13860375Y4773149D01*
X14083341Y4925165D01*
X14152063Y4988930D01*
X18657100Y4988930D01*
X18657101Y4988924D01*
X18663508Y4929317D01*
X18713802Y4794472D01*
X18713806Y4794465D01*
X18800052Y4679256D01*
X18800055Y4679253D01*
X18915264Y4593007D01*
X18915271Y4593003D01*
X19050117Y4542709D01*
X19050116Y4542709D01*
X19057044Y4541965D01*
X19109727Y4536300D01*
X21805472Y4536301D01*
X21865083Y4542709D01*
X21943608Y4571997D01*
X108830615Y4571997D01*
X108850938Y4223073D01*
X108850939Y4223062D01*
X108911628Y3878873D01*
X108911630Y3878866D01*
X109011874Y3544028D01*
X109150307Y3223105D01*
X109150313Y3223092D01*
X109325070Y2920403D01*
X109533784Y2640051D01*
X109533789Y2640045D01*
X109657663Y2508747D01*
X109773642Y2385817D01*
X109950103Y2237749D01*
X110041386Y2161153D01*
X110041394Y2161147D01*
X110333403Y1969089D01*
X110333407Y1969087D01*
X110645749Y1812223D01*
X110974189Y1692681D01*
X111314286Y1612077D01*
X111661441Y1571500D01*
X111661448Y1571500D01*
X112010952Y1571500D01*
X112010959Y1571500D01*
X112358114Y1612077D01*
X112698211Y1692681D01*
X113026651Y1812223D01*
X113338993Y1969087D01*
X113631011Y2161151D01*
X113898758Y2385817D01*
X114138612Y2640047D01*
X114347330Y2920404D01*
X114522089Y3223096D01*
X114660526Y3544029D01*
X114760769Y3878864D01*
X114821462Y4223073D01*
X114841785Y4572000D01*
X114840561Y4593007D01*
X114835506Y4679807D01*
X114821462Y4920927D01*
X114819983Y4929317D01*
X114760771Y5265128D01*
X114760769Y5265135D01*
X114757321Y5276653D01*
X114660526Y5599971D01*
X114522089Y5920904D01*
X114347330Y6223596D01*
X114328009Y6249549D01*
X114138615Y6503950D01*
X114138610Y6503956D01*
X113986509Y6665172D01*
X113898758Y6758183D01*
X113695191Y6928996D01*
X113631013Y6982848D01*
X113631005Y6982854D01*
X113338996Y7174912D01*
X113026658Y7331774D01*
X113026652Y7331777D01*
X112698212Y7451319D01*
X112698209Y7451320D01*
X112358115Y7531923D01*
X112314719Y7536996D01*
X112010959Y7572500D01*
X111661441Y7572500D01*
X111357680Y7536996D01*
X111314285Y7531923D01*
X111314283Y7531923D01*
X110974190Y7451320D01*
X110974187Y7451319D01*
X110645747Y7331777D01*
X110645741Y7331774D01*
X110333403Y7174912D01*
X110041394Y6982854D01*
X110041386Y6982848D01*
X109773642Y6758183D01*
X109773640Y6758181D01*
X109533789Y6503956D01*
X109533784Y6503950D01*
X109325070Y6223598D01*
X109150313Y5920909D01*
X109150307Y5920896D01*
X109011874Y5599973D01*
X108911630Y5265135D01*
X108911628Y5265128D01*
X108850939Y4920939D01*
X108850938Y4920928D01*
X108830615Y4572004D01*
X108830615Y4571997D01*
X21943608Y4571997D01*
X21999931Y4593004D01*
X22115146Y4679254D01*
X22201396Y4794469D01*
X22251691Y4929317D01*
X22258100Y4988927D01*
X22258099Y6423596D01*
X29166251Y6423596D01*
X29186416Y6154499D01*
X29240539Y5917372D01*
X29246466Y5891405D01*
X29345057Y5640202D01*
X29479985Y5406498D01*
X29592718Y5265136D01*
X29648242Y5195511D01*
X29806234Y5048917D01*
X29846059Y5011965D01*
X30069026Y4859949D01*
X30312159Y4742862D01*
X30570028Y4663320D01*
X30570029Y4663320D01*
X30570032Y4663319D01*
X30836863Y4623101D01*
X30836868Y4623101D01*
X30836871Y4623100D01*
X30836872Y4623100D01*
X31106728Y4623100D01*
X31106729Y4623100D01*
X31106736Y4623101D01*
X31373567Y4663319D01*
X31373568Y4663320D01*
X31373572Y4663320D01*
X31631441Y4742862D01*
X31823565Y4835384D01*
X31874567Y4859945D01*
X31874567Y4859946D01*
X31874575Y4859949D01*
X32097541Y5011965D01*
X32166263Y5075730D01*
X36671300Y5075730D01*
X36671301Y5075724D01*
X36677708Y5016117D01*
X36728002Y4881272D01*
X36728006Y4881265D01*
X36814252Y4766056D01*
X36814255Y4766053D01*
X36929464Y4679807D01*
X36929471Y4679803D01*
X37064317Y4629509D01*
X37064316Y4629509D01*
X37071244Y4628765D01*
X37123927Y4623100D01*
X39819672Y4623101D01*
X39879283Y4629509D01*
X40014131Y4679804D01*
X40129346Y4766054D01*
X40215596Y4881269D01*
X40265891Y5016117D01*
X40272300Y5075727D01*
X40272300Y6396796D01*
X47626451Y6396796D01*
X47646616Y6127699D01*
X47706664Y5864612D01*
X47706666Y5864605D01*
X47794738Y5640202D01*
X47805257Y5613402D01*
X47940185Y5379698D01*
X48031552Y5265128D01*
X48108442Y5168711D01*
X48277374Y5011966D01*
X48306259Y4985165D01*
X48529226Y4833149D01*
X48772359Y4716062D01*
X49030228Y4636520D01*
X49030229Y4636520D01*
X49030232Y4636519D01*
X49297063Y4596301D01*
X49297068Y4596301D01*
X49297071Y4596300D01*
X49297072Y4596300D01*
X49566928Y4596300D01*
X49566929Y4596300D01*
X49566936Y4596301D01*
X49833767Y4636519D01*
X49833768Y4636520D01*
X49833772Y4636520D01*
X50091641Y4716062D01*
X50334775Y4833149D01*
X50557741Y4985165D01*
X50626463Y5048930D01*
X55131500Y5048930D01*
X55131501Y5048924D01*
X55137908Y4989317D01*
X55188202Y4854472D01*
X55188206Y4854465D01*
X55274452Y4739256D01*
X55274455Y4739253D01*
X55389664Y4653007D01*
X55389671Y4653003D01*
X55524517Y4602709D01*
X55524516Y4602709D01*
X55531444Y4601965D01*
X55584127Y4596300D01*
X58279872Y4596301D01*
X58339483Y4602709D01*
X58474331Y4653004D01*
X58589546Y4739254D01*
X58675796Y4854469D01*
X58726091Y4989317D01*
X58732500Y5048927D01*
X58732499Y6474396D01*
X66123251Y6474396D01*
X66143416Y6205299D01*
X66203464Y5942212D01*
X66203466Y5942205D01*
X66257470Y5804605D01*
X66302057Y5691002D01*
X66436985Y5457298D01*
X66546717Y5319699D01*
X66605242Y5246311D01*
X66789100Y5075717D01*
X66803059Y5062765D01*
X67026026Y4910749D01*
X67269159Y4793662D01*
X67527028Y4714120D01*
X67527029Y4714120D01*
X67527032Y4714119D01*
X67793863Y4673901D01*
X67793868Y4673901D01*
X67793871Y4673900D01*
X67793872Y4673900D01*
X68063728Y4673900D01*
X68063729Y4673900D01*
X68063736Y4673901D01*
X68330567Y4714119D01*
X68330568Y4714120D01*
X68330572Y4714120D01*
X68588441Y4793662D01*
X68831575Y4910749D01*
X69054541Y5062765D01*
X69123263Y5126530D01*
X73628300Y5126530D01*
X73628301Y5126524D01*
X73634708Y5066917D01*
X73685002Y4932072D01*
X73685006Y4932065D01*
X73771252Y4816856D01*
X73771255Y4816853D01*
X73886464Y4730607D01*
X73886471Y4730603D01*
X74021317Y4680309D01*
X74021316Y4680309D01*
X74025986Y4679807D01*
X74080927Y4673900D01*
X76776672Y4673901D01*
X76836283Y4680309D01*
X76971131Y4730604D01*
X77086346Y4816854D01*
X77172596Y4932069D01*
X77222891Y5066917D01*
X77229300Y5126527D01*
X77229299Y6934196D01*
X86960953Y6934196D01*
X86981113Y6665174D01*
X86981113Y6665172D01*
X87041142Y6402167D01*
X87041148Y6402148D01*
X87139709Y6151019D01*
X87139708Y6151019D01*
X87274602Y5917378D01*
X87328294Y5850049D01*
X87328295Y5850049D01*
X88125859Y6647614D01*
X88185680Y6533634D01*
X88298405Y6406394D01*
X88438305Y6309829D01*
X88479541Y6294190D01*
X87680848Y5495498D01*
X87863483Y5370980D01*
X87863485Y5370979D01*
X88106539Y5253931D01*
X88106537Y5253931D01*
X88364337Y5174410D01*
X88364343Y5174408D01*
X88631101Y5134201D01*
X88631110Y5134200D01*
X88900890Y5134200D01*
X88900898Y5134201D01*
X89167656Y5174408D01*
X89167662Y5174410D01*
X89425461Y5253931D01*
X89668521Y5370982D01*
X89851150Y5495498D01*
X89760318Y5586330D01*
X94465500Y5586330D01*
X94465501Y5586324D01*
X94471908Y5526717D01*
X94522202Y5391872D01*
X94522206Y5391865D01*
X94608452Y5276656D01*
X94608455Y5276653D01*
X94723664Y5190407D01*
X94723671Y5190403D01*
X94858517Y5140109D01*
X94858516Y5140109D01*
X94865444Y5139365D01*
X94918127Y5133700D01*
X97613872Y5133701D01*
X97673483Y5140109D01*
X97808331Y5190404D01*
X97923546Y5276654D01*
X98009796Y5391869D01*
X98060091Y5526717D01*
X98066500Y5586327D01*
X98066499Y8282072D01*
X98060091Y8341683D01*
X98048446Y8372904D01*
X98009797Y8476529D01*
X98009793Y8476536D01*
X97923547Y8591745D01*
X97923544Y8591748D01*
X97808335Y8677994D01*
X97808328Y8677998D01*
X97673482Y8728292D01*
X97673483Y8728292D01*
X97613883Y8734699D01*
X97613881Y8734700D01*
X97613873Y8734700D01*
X97613864Y8734700D01*
X94918129Y8734700D01*
X94918123Y8734699D01*
X94858516Y8728292D01*
X94723671Y8677998D01*
X94723664Y8677994D01*
X94608455Y8591748D01*
X94608452Y8591745D01*
X94522206Y8476536D01*
X94522202Y8476529D01*
X94471908Y8341683D01*
X94465501Y8282084D01*
X94465501Y8282077D01*
X94465500Y8282065D01*
X94465500Y5586330D01*
X89760318Y5586330D01*
X89052457Y6294190D01*
X89093695Y6309829D01*
X89233595Y6406394D01*
X89346320Y6533634D01*
X89406139Y6647613D01*
X90203703Y5850049D01*
X90203704Y5850050D01*
X90257393Y5917372D01*
X90257400Y5917383D01*
X90392290Y6151019D01*
X90490851Y6402148D01*
X90490857Y6402167D01*
X90550886Y6665172D01*
X90550886Y6665174D01*
X90571047Y6934196D01*
X90571047Y6934205D01*
X90550886Y7203227D01*
X90550886Y7203229D01*
X90490857Y7466234D01*
X90490851Y7466253D01*
X90392290Y7717382D01*
X90392291Y7717382D01*
X90257397Y7951023D01*
X90203704Y8018353D01*
X89406139Y7220788D01*
X89346320Y7334766D01*
X89233595Y7462006D01*
X89093695Y7558571D01*
X89052457Y7574211D01*
X89851150Y8372904D01*
X89668517Y8497421D01*
X89668516Y8497422D01*
X89425460Y8614470D01*
X89425462Y8614470D01*
X89167662Y8693991D01*
X89167656Y8693993D01*
X88900898Y8734200D01*
X88631101Y8734200D01*
X88364343Y8693993D01*
X88364337Y8693991D01*
X88106538Y8614470D01*
X87863485Y8497422D01*
X87863476Y8497417D01*
X87680848Y8372904D01*
X88479542Y7574211D01*
X88438305Y7558571D01*
X88298405Y7462006D01*
X88185680Y7334766D01*
X88125859Y7220788D01*
X87328295Y8018352D01*
X87274600Y7951020D01*
X87139709Y7717382D01*
X87041148Y7466253D01*
X87041142Y7466234D01*
X86981113Y7203229D01*
X86981113Y7203227D01*
X86960953Y6934205D01*
X86960953Y6934196D01*
X77229299Y6934196D01*
X77229299Y7822272D01*
X77222891Y7881883D01*
X77221342Y7886035D01*
X77172597Y8016729D01*
X77172593Y8016736D01*
X77086347Y8131945D01*
X77086344Y8131948D01*
X76971135Y8218194D01*
X76971128Y8218198D01*
X76836282Y8268492D01*
X76836283Y8268492D01*
X76776683Y8274899D01*
X76776681Y8274900D01*
X76776673Y8274900D01*
X76776665Y8274900D01*
X76553300Y8274900D01*
X76486261Y8294585D01*
X76440506Y8347389D01*
X76429300Y8398900D01*
X76429300Y11981796D01*
X108557953Y11981796D01*
X108578113Y11712774D01*
X108578113Y11712772D01*
X108638142Y11449767D01*
X108638148Y11449748D01*
X108736709Y11198619D01*
X108736708Y11198619D01*
X108871602Y10964978D01*
X108925294Y10897649D01*
X109722859Y11695215D01*
X109782680Y11581234D01*
X109895405Y11453994D01*
X110035305Y11357429D01*
X110076541Y11341790D01*
X109277848Y10543098D01*
X109460483Y10418580D01*
X109460485Y10418579D01*
X109703539Y10301531D01*
X109703537Y10301531D01*
X109961337Y10222010D01*
X109961343Y10222008D01*
X110228101Y10181801D01*
X110228110Y10181800D01*
X110497890Y10181800D01*
X110497898Y10181801D01*
X110764656Y10222008D01*
X110764662Y10222010D01*
X111022461Y10301531D01*
X111265521Y10418582D01*
X111448150Y10543098D01*
X110649457Y11341790D01*
X110690695Y11357429D01*
X110830595Y11453994D01*
X110943320Y11581234D01*
X111003139Y11695213D01*
X111800703Y10897649D01*
X111800704Y10897650D01*
X111854393Y10964972D01*
X111854400Y10964983D01*
X111989290Y11198619D01*
X112087851Y11449748D01*
X112087857Y11449767D01*
X112147886Y11712772D01*
X112147886Y11712774D01*
X112168047Y11981796D01*
X112168047Y11981805D01*
X112147886Y12250827D01*
X112147886Y12250829D01*
X112087857Y12513834D01*
X112087851Y12513853D01*
X111989290Y12764982D01*
X111989291Y12764982D01*
X111854397Y12998623D01*
X111800704Y13065953D01*
X111003139Y12268388D01*
X110943320Y12382366D01*
X110830595Y12509606D01*
X110690695Y12606171D01*
X110649457Y12621811D01*
X111448150Y13420504D01*
X111265517Y13545021D01*
X111265516Y13545022D01*
X111022460Y13662070D01*
X111022462Y13662070D01*
X110764662Y13741591D01*
X110764656Y13741593D01*
X110497898Y13781800D01*
X110228101Y13781800D01*
X109961343Y13741593D01*
X109961337Y13741591D01*
X109703538Y13662070D01*
X109460485Y13545022D01*
X109460476Y13545017D01*
X109277848Y13420504D01*
X110076542Y12621811D01*
X110035305Y12606171D01*
X109895405Y12509606D01*
X109782680Y12382366D01*
X109722859Y12268388D01*
X108925295Y13065952D01*
X108871600Y12998620D01*
X108736709Y12764982D01*
X108638148Y12513853D01*
X108638142Y12513834D01*
X108578113Y12250829D01*
X108578113Y12250827D01*
X108557953Y11981805D01*
X108557953Y11981796D01*
X76429300Y11981796D01*
X76429300Y15215225D01*
X76448985Y15282264D01*
X76501789Y15328019D01*
X76570947Y15337963D01*
X76634503Y15308938D01*
X76644530Y15299207D01*
X76665849Y15276048D01*
X76665858Y15276040D01*
X76860771Y15124333D01*
X76860777Y15124329D01*
X76860780Y15124327D01*
X77004172Y15046727D01*
X77071165Y15010472D01*
X77078021Y15006762D01*
X77199336Y14965115D01*
X77311646Y14926558D01*
X77311648Y14926558D01*
X77311650Y14926557D01*
X77555294Y14885900D01*
X77555295Y14885900D01*
X77802305Y14885900D01*
X77802306Y14885900D01*
X78045950Y14926557D01*
X78279579Y15006762D01*
X78496820Y15124327D01*
X78513906Y15137625D01*
X78562359Y15175338D01*
X78691748Y15276045D01*
X78859045Y15457779D01*
X78994148Y15664569D01*
X79093372Y15890777D01*
X79154010Y16130231D01*
X79167978Y16298800D01*
X79174408Y16376395D01*
X79174408Y16376406D01*
X79154010Y16622566D01*
X79154010Y16622569D01*
X79093372Y16862023D01*
X78994148Y17088231D01*
X78859045Y17295021D01*
X78691748Y17476755D01*
X78691743Y17476759D01*
X78691741Y17476761D01*
X78496828Y17628468D01*
X78496822Y17628472D01*
X78279580Y17746038D01*
X78279571Y17746041D01*
X78045953Y17826243D01*
X77840707Y17860492D01*
X77802306Y17866900D01*
X77555294Y17866900D01*
X77516893Y17860492D01*
X77311646Y17826243D01*
X77078028Y17746041D01*
X77078019Y17746038D01*
X76860777Y17628472D01*
X76860771Y17628468D01*
X76665858Y17476761D01*
X76665854Y17476757D01*
X76644529Y17453592D01*
X76584641Y17417602D01*
X76514803Y17419703D01*
X76457188Y17459228D01*
X76430087Y17523628D01*
X76429300Y17537576D01*
X76429300Y18133930D01*
X108562500Y18133930D01*
X108562501Y18133924D01*
X108568908Y18074317D01*
X108619202Y17939472D01*
X108619206Y17939465D01*
X108705452Y17824256D01*
X108705455Y17824253D01*
X108820664Y17738007D01*
X108820671Y17738003D01*
X108955517Y17687709D01*
X108955516Y17687709D01*
X108962444Y17686965D01*
X109015127Y17681300D01*
X111710872Y17681301D01*
X111770483Y17687709D01*
X111905331Y17738004D01*
X112020546Y17824254D01*
X112106796Y17939469D01*
X112157091Y18074317D01*
X112163500Y18133927D01*
X112163499Y20829672D01*
X112157091Y20889283D01*
X112106796Y21024131D01*
X112106795Y21024132D01*
X112106793Y21024136D01*
X112020547Y21139345D01*
X112020544Y21139348D01*
X111905335Y21225594D01*
X111905328Y21225598D01*
X111770482Y21275892D01*
X111770483Y21275892D01*
X111710883Y21282299D01*
X111710881Y21282300D01*
X111710873Y21282300D01*
X111710864Y21282300D01*
X109015129Y21282300D01*
X109015123Y21282299D01*
X108955516Y21275892D01*
X108820671Y21225598D01*
X108820664Y21225594D01*
X108705455Y21139348D01*
X108705452Y21139345D01*
X108619206Y21024136D01*
X108619202Y21024129D01*
X108568908Y20889283D01*
X108562501Y20829684D01*
X108562501Y20829677D01*
X108562500Y20829665D01*
X108562500Y18133930D01*
X76429300Y18133930D01*
X76429300Y25860617D01*
X76448985Y25927656D01*
X76465619Y25948298D01*
X77566902Y27049581D01*
X77628225Y27083066D01*
X77654583Y27085900D01*
X77802305Y27085900D01*
X77802306Y27085900D01*
X78045950Y27126557D01*
X78279579Y27206762D01*
X78496820Y27324327D01*
X78691748Y27476045D01*
X78859045Y27657779D01*
X78994148Y27864569D01*
X79093372Y28090777D01*
X79154010Y28330231D01*
X79167978Y28498803D01*
X79174408Y28576395D01*
X79174408Y28576406D01*
X79154010Y28822566D01*
X79154010Y28822569D01*
X79093372Y29062023D01*
X78994148Y29288231D01*
X78859045Y29495021D01*
X78691748Y29676755D01*
X78691743Y29676759D01*
X78691741Y29676761D01*
X78496828Y29828468D01*
X78496822Y29828472D01*
X78279580Y29946038D01*
X78279571Y29946041D01*
X78045953Y30026243D01*
X77863217Y30056736D01*
X77802306Y30066900D01*
X77555294Y30066900D01*
X77506565Y30058769D01*
X77311646Y30026243D01*
X77078028Y29946041D01*
X77078019Y29946038D01*
X76860777Y29828472D01*
X76860771Y29828468D01*
X76665858Y29676761D01*
X76665855Y29676758D01*
X76498552Y29495018D01*
X76363450Y29288228D01*
X76264228Y29062024D01*
X76203589Y28822566D01*
X76192519Y28688966D01*
X76183192Y28576400D01*
X76184103Y28565401D01*
X76184620Y28559164D01*
X76170537Y28490728D01*
X76148724Y28461246D01*
X74730332Y27042854D01*
X74665746Y26981458D01*
X74630699Y26931106D01*
X74627862Y26927344D01*
X74589102Y26879808D01*
X74589099Y26879803D01*
X74573192Y26849353D01*
X74569124Y26842639D01*
X74549502Y26814446D01*
X74525309Y26758070D01*
X74523288Y26753816D01*
X74494891Y26699449D01*
X74494890Y26699448D01*
X74485440Y26666425D01*
X74482807Y26659029D01*
X74469259Y26627457D01*
X74456913Y26567381D01*
X74455790Y26562805D01*
X74438913Y26503823D01*
X74438913Y26503821D01*
X74436303Y26469559D01*
X74435214Y26461792D01*
X74433412Y26453018D01*
X74428300Y26428142D01*
X74428300Y26366803D01*
X74428121Y26362094D01*
X74423462Y26300926D01*
X74424956Y26289203D01*
X74427803Y26266840D01*
X74428300Y26259012D01*
X74428300Y8398900D01*
X74408615Y8331861D01*
X74355811Y8286106D01*
X74304301Y8274900D01*
X74080930Y8274900D01*
X74080923Y8274899D01*
X74021316Y8268492D01*
X73886471Y8218198D01*
X73886464Y8218194D01*
X73771255Y8131948D01*
X73771252Y8131945D01*
X73685006Y8016736D01*
X73685002Y8016729D01*
X73634708Y7881883D01*
X73629247Y7831084D01*
X73628301Y7822277D01*
X73628300Y7822265D01*
X73628300Y5126530D01*
X69123263Y5126530D01*
X69252361Y5246315D01*
X69420615Y5457298D01*
X69555543Y5691002D01*
X69654134Y5942205D01*
X69714183Y6205297D01*
X69734349Y6474400D01*
X69732134Y6503953D01*
X69714183Y6743502D01*
X69690057Y6849205D01*
X69654134Y7006595D01*
X69555543Y7257798D01*
X69420615Y7491502D01*
X69252361Y7702485D01*
X69252360Y7702486D01*
X69252357Y7702490D01*
X69054541Y7886035D01*
X69033389Y7900456D01*
X68831575Y8038051D01*
X68831569Y8038054D01*
X68831568Y8038055D01*
X68831567Y8038056D01*
X68588443Y8155137D01*
X68588445Y8155137D01*
X68330573Y8234680D01*
X68330567Y8234682D01*
X68063736Y8274900D01*
X68063729Y8274900D01*
X67793871Y8274900D01*
X67793863Y8274900D01*
X67527032Y8234682D01*
X67527026Y8234680D01*
X67269158Y8155138D01*
X67026030Y8038054D01*
X66803058Y7886035D01*
X66605242Y7702490D01*
X66436985Y7491502D01*
X66302058Y7257801D01*
X66302056Y7257797D01*
X66203466Y7006596D01*
X66203464Y7006589D01*
X66143416Y6743502D01*
X66123251Y6474405D01*
X66123251Y6474396D01*
X58732499Y6474396D01*
X58732499Y7744672D01*
X58726091Y7804283D01*
X58724542Y7808435D01*
X58675797Y7939129D01*
X58675793Y7939136D01*
X58589547Y8054345D01*
X58589544Y8054348D01*
X58474335Y8140594D01*
X58474328Y8140598D01*
X58339482Y8190892D01*
X58339483Y8190892D01*
X58279883Y8197299D01*
X58279881Y8197300D01*
X58279873Y8197300D01*
X58279865Y8197300D01*
X58056500Y8197300D01*
X57989461Y8216985D01*
X57943706Y8269789D01*
X57932500Y8321300D01*
X57932500Y14376395D01*
X70205769Y14376395D01*
X70225857Y14133955D01*
X70225859Y14133944D01*
X70285581Y13898108D01*
X70383308Y13675314D01*
X70468436Y13545017D01*
X70516372Y13471646D01*
X70681143Y13292656D01*
X70873128Y13143228D01*
X71087090Y13027438D01*
X71171033Y12998620D01*
X71317188Y12948444D01*
X71317190Y12948444D01*
X71317192Y12948443D01*
X71557158Y12908400D01*
X71557159Y12908400D01*
X71800441Y12908400D01*
X71800442Y12908400D01*
X72040408Y12948443D01*
X72270510Y13027438D01*
X72484472Y13143228D01*
X72676457Y13292656D01*
X72841228Y13471646D01*
X72974292Y13675315D01*
X73072018Y13898108D01*
X73131741Y14133947D01*
X73131742Y14133955D01*
X73151831Y14376395D01*
X73151831Y14376406D01*
X73131742Y14618846D01*
X73131740Y14618857D01*
X73072018Y14854693D01*
X72976027Y15073529D01*
X72974292Y15077485D01*
X72963982Y15093265D01*
X72841230Y15281151D01*
X72841229Y15281152D01*
X72841228Y15281154D01*
X72676457Y15460144D01*
X72584174Y15531971D01*
X72484474Y15609571D01*
X72484469Y15609574D01*
X72270516Y15725359D01*
X72270513Y15725360D01*
X72270510Y15725362D01*
X72270504Y15725364D01*
X72270502Y15725365D01*
X72040411Y15804357D01*
X71860433Y15834390D01*
X71800442Y15844400D01*
X71557158Y15844400D01*
X71509164Y15836392D01*
X71317188Y15804357D01*
X71087097Y15725365D01*
X71087083Y15725359D01*
X70873130Y15609574D01*
X70873125Y15609571D01*
X70681145Y15460146D01*
X70516369Y15281151D01*
X70383308Y15077487D01*
X70285581Y14854693D01*
X70225859Y14618857D01*
X70225857Y14618846D01*
X70205769Y14376406D01*
X70205769Y14376395D01*
X57932500Y14376395D01*
X57932500Y15137625D01*
X57952185Y15204664D01*
X58004989Y15250419D01*
X58074147Y15260363D01*
X58137703Y15231338D01*
X58147730Y15221607D01*
X58169049Y15198448D01*
X58169058Y15198440D01*
X58363971Y15046733D01*
X58363977Y15046729D01*
X58363980Y15046727D01*
X58581221Y14929162D01*
X58688570Y14892309D01*
X58814846Y14848958D01*
X58814848Y14848958D01*
X58814850Y14848957D01*
X59058494Y14808300D01*
X59058495Y14808300D01*
X59305505Y14808300D01*
X59305506Y14808300D01*
X59549150Y14848957D01*
X59782779Y14929162D01*
X60000020Y15046727D01*
X60025380Y15066465D01*
X60099723Y15124329D01*
X60194948Y15198445D01*
X60323905Y15338530D01*
X64188300Y15338530D01*
X64188301Y15338524D01*
X64194708Y15278917D01*
X64245002Y15144072D01*
X64245006Y15144065D01*
X64331252Y15028856D01*
X64331255Y15028853D01*
X64446464Y14942607D01*
X64446471Y14942603D01*
X64581317Y14892309D01*
X64581316Y14892309D01*
X64585986Y14891807D01*
X64640927Y14885900D01*
X66716672Y14885901D01*
X66776283Y14892309D01*
X66911131Y14942604D01*
X67026346Y15028854D01*
X67112596Y15144069D01*
X67162891Y15278917D01*
X67169300Y15338527D01*
X67169299Y17414272D01*
X67164099Y17462643D01*
X67162891Y17473884D01*
X67112597Y17608729D01*
X67112593Y17608736D01*
X67026347Y17723945D01*
X67026344Y17723948D01*
X66911135Y17810194D01*
X66911128Y17810198D01*
X66776282Y17860492D01*
X66776283Y17860492D01*
X66716683Y17866899D01*
X66716681Y17866900D01*
X66716673Y17866900D01*
X66716664Y17866900D01*
X64640929Y17866900D01*
X64640923Y17866899D01*
X64581316Y17860492D01*
X64446471Y17810198D01*
X64446464Y17810194D01*
X64331255Y17723948D01*
X64331252Y17723945D01*
X64245006Y17608736D01*
X64245002Y17608729D01*
X64194708Y17473883D01*
X64189556Y17425958D01*
X64188301Y17414277D01*
X64188300Y17414265D01*
X64188300Y15338530D01*
X60323905Y15338530D01*
X60362245Y15380179D01*
X60497348Y15586969D01*
X60596572Y15813177D01*
X60657210Y16052631D01*
X60666275Y16162040D01*
X60677608Y16298795D01*
X60677608Y16298806D01*
X60664009Y16462913D01*
X60657210Y16544969D01*
X60596572Y16784423D01*
X60497348Y17010631D01*
X60362245Y17217421D01*
X60194948Y17399155D01*
X60194943Y17399159D01*
X60194941Y17399161D01*
X60000028Y17550868D01*
X60000022Y17550872D01*
X59782780Y17668438D01*
X59782771Y17668441D01*
X59549153Y17748643D01*
X59343907Y17782892D01*
X59305506Y17789300D01*
X59058494Y17789300D01*
X59020093Y17782892D01*
X58814846Y17748643D01*
X58581228Y17668441D01*
X58581219Y17668438D01*
X58363977Y17550872D01*
X58363971Y17550868D01*
X58169058Y17399161D01*
X58169054Y17399157D01*
X58147729Y17375992D01*
X58087841Y17340002D01*
X58018003Y17342103D01*
X57960388Y17381628D01*
X57933287Y17446028D01*
X57932500Y17459976D01*
X57932500Y25783017D01*
X57952185Y25850056D01*
X57968819Y25870698D01*
X59070102Y26971981D01*
X59131425Y27005466D01*
X59157783Y27008300D01*
X59305505Y27008300D01*
X59305506Y27008300D01*
X59549150Y27048957D01*
X59782779Y27129162D01*
X60000020Y27246727D01*
X60034461Y27273533D01*
X60099723Y27324329D01*
X60194948Y27398445D01*
X60362245Y27580179D01*
X60497348Y27786969D01*
X60596572Y28013177D01*
X60657210Y28252631D01*
X60672730Y28439928D01*
X60677608Y28498795D01*
X60677608Y28498806D01*
X60671178Y28576395D01*
X64183192Y28576395D01*
X64203589Y28330235D01*
X64264228Y28090777D01*
X64298266Y28013177D01*
X64363452Y27864569D01*
X64498555Y27657779D01*
X64665852Y27476045D01*
X64665855Y27476043D01*
X64665858Y27476040D01*
X64860771Y27324333D01*
X64860777Y27324329D01*
X64860780Y27324327D01*
X65078021Y27206762D01*
X65199336Y27165115D01*
X65311646Y27126558D01*
X65311648Y27126558D01*
X65311650Y27126557D01*
X65555294Y27085900D01*
X65555295Y27085900D01*
X65802305Y27085900D01*
X65802306Y27085900D01*
X66045950Y27126557D01*
X66279579Y27206762D01*
X66496820Y27324327D01*
X66691748Y27476045D01*
X66859045Y27657779D01*
X66994148Y27864569D01*
X67093372Y28090777D01*
X67154010Y28330231D01*
X67167978Y28498803D01*
X67174408Y28576395D01*
X67174408Y28576406D01*
X67154010Y28822566D01*
X67154010Y28822569D01*
X67093372Y29062023D01*
X66994148Y29288231D01*
X66859045Y29495021D01*
X66691748Y29676755D01*
X66691743Y29676759D01*
X66691741Y29676761D01*
X66496828Y29828468D01*
X66496822Y29828472D01*
X66279580Y29946038D01*
X66279571Y29946041D01*
X66045953Y30026243D01*
X65863217Y30056736D01*
X65802306Y30066900D01*
X65555294Y30066900D01*
X65506565Y30058769D01*
X65311646Y30026243D01*
X65078028Y29946041D01*
X65078019Y29946038D01*
X64860777Y29828472D01*
X64860771Y29828468D01*
X64665858Y29676761D01*
X64665855Y29676758D01*
X64498552Y29495018D01*
X64363450Y29288228D01*
X64264228Y29062024D01*
X64203589Y28822566D01*
X64183192Y28576406D01*
X64183192Y28576395D01*
X60671178Y28576395D01*
X60664009Y28662913D01*
X60657210Y28744969D01*
X60596572Y28984423D01*
X60497348Y29210631D01*
X60362245Y29417421D01*
X60194948Y29599155D01*
X60194943Y29599159D01*
X60194941Y29599161D01*
X60000028Y29750868D01*
X60000022Y29750872D01*
X59782780Y29868438D01*
X59782771Y29868441D01*
X59549153Y29948643D01*
X59366417Y29979136D01*
X59305506Y29989300D01*
X59058494Y29989300D01*
X59009765Y29981169D01*
X58814846Y29948643D01*
X58581228Y29868441D01*
X58581219Y29868438D01*
X58363977Y29750872D01*
X58363971Y29750868D01*
X58169058Y29599161D01*
X58169055Y29599158D01*
X58169052Y29599156D01*
X58169052Y29599155D01*
X58117501Y29543155D01*
X58001752Y29417418D01*
X57866650Y29210628D01*
X57767428Y28984424D01*
X57706789Y28744966D01*
X57686392Y28498806D01*
X57686392Y28498800D01*
X57687061Y28490728D01*
X57687820Y28481564D01*
X57673737Y28413128D01*
X57651924Y28383646D01*
X56233532Y26965254D01*
X56168946Y26903858D01*
X56133899Y26853506D01*
X56131062Y26849744D01*
X56092302Y26802208D01*
X56092299Y26802203D01*
X56076392Y26771753D01*
X56072324Y26765039D01*
X56052702Y26736846D01*
X56028509Y26680470D01*
X56026488Y26676216D01*
X55998091Y26621849D01*
X55998090Y26621848D01*
X55988640Y26588825D01*
X55986007Y26581429D01*
X55972459Y26549857D01*
X55960113Y26489781D01*
X55958990Y26485205D01*
X55942113Y26426223D01*
X55942113Y26426221D01*
X55939503Y26391959D01*
X55938414Y26384192D01*
X55934842Y26366803D01*
X55931500Y26350542D01*
X55931500Y26289203D01*
X55931321Y26284494D01*
X55926662Y26223326D01*
X55927589Y26216053D01*
X55931003Y26189240D01*
X55931500Y26181412D01*
X55931500Y8321300D01*
X55911815Y8254261D01*
X55859011Y8208506D01*
X55807501Y8197300D01*
X55584130Y8197300D01*
X55584123Y8197299D01*
X55524516Y8190892D01*
X55389671Y8140598D01*
X55389664Y8140594D01*
X55274455Y8054348D01*
X55274452Y8054345D01*
X55188206Y7939136D01*
X55188202Y7939129D01*
X55137908Y7804283D01*
X55131904Y7748435D01*
X55131501Y7744677D01*
X55131500Y7744665D01*
X55131500Y5048930D01*
X50626463Y5048930D01*
X50755561Y5168715D01*
X50923815Y5379698D01*
X51058743Y5613402D01*
X51157334Y5864605D01*
X51217383Y6127697D01*
X51231032Y6309829D01*
X51237549Y6396796D01*
X51237549Y6396805D01*
X51217383Y6665902D01*
X51211266Y6692703D01*
X51157334Y6928995D01*
X51058743Y7180198D01*
X50923815Y7413902D01*
X50755561Y7624885D01*
X50755560Y7624886D01*
X50755557Y7624890D01*
X50557741Y7808435D01*
X50537444Y7822273D01*
X50334775Y7960451D01*
X50334769Y7960454D01*
X50334768Y7960455D01*
X50334767Y7960456D01*
X50091643Y8077537D01*
X50091645Y8077537D01*
X49833773Y8157080D01*
X49833767Y8157082D01*
X49566936Y8197300D01*
X49566929Y8197300D01*
X49297071Y8197300D01*
X49297063Y8197300D01*
X49030232Y8157082D01*
X49030226Y8157080D01*
X48772358Y8077538D01*
X48529230Y7960454D01*
X48306258Y7808435D01*
X48108442Y7624890D01*
X47940185Y7413902D01*
X47805258Y7180201D01*
X47805256Y7180197D01*
X47706666Y6928996D01*
X47706664Y6928989D01*
X47646616Y6665902D01*
X47626451Y6396805D01*
X47626451Y6396796D01*
X40272300Y6396796D01*
X40272299Y7771472D01*
X40265891Y7831083D01*
X40264342Y7835235D01*
X40215597Y7965929D01*
X40215593Y7965936D01*
X40129347Y8081145D01*
X40129344Y8081148D01*
X40014135Y8167394D01*
X40014128Y8167398D01*
X39879282Y8217692D01*
X39879283Y8217692D01*
X39819683Y8224099D01*
X39819681Y8224100D01*
X39819673Y8224100D01*
X39819665Y8224100D01*
X39596300Y8224100D01*
X39529261Y8243785D01*
X39483506Y8296589D01*
X39472300Y8348100D01*
X39472300Y14298795D01*
X51708969Y14298795D01*
X51729057Y14056355D01*
X51729059Y14056344D01*
X51788781Y13820508D01*
X51886508Y13597714D01*
X52002286Y13420504D01*
X52019572Y13394046D01*
X52184343Y13215056D01*
X52256292Y13159056D01*
X52375911Y13065952D01*
X52376328Y13065628D01*
X52590290Y12949838D01*
X52709775Y12908819D01*
X52820388Y12870844D01*
X52820390Y12870844D01*
X52820392Y12870843D01*
X53060358Y12830800D01*
X53060359Y12830800D01*
X53303641Y12830800D01*
X53303642Y12830800D01*
X53543608Y12870843D01*
X53773710Y12949838D01*
X53987672Y13065628D01*
X54179657Y13215056D01*
X54344428Y13394046D01*
X54477492Y13597715D01*
X54575218Y13820508D01*
X54634941Y14056347D01*
X54634942Y14056355D01*
X54655031Y14298795D01*
X54655031Y14298806D01*
X54634942Y14541246D01*
X54634940Y14541257D01*
X54575218Y14777093D01*
X54477491Y14999887D01*
X54344430Y15203551D01*
X54344429Y15203552D01*
X54344428Y15203554D01*
X54179657Y15382544D01*
X54046503Y15486182D01*
X53987674Y15531971D01*
X53987669Y15531974D01*
X53773716Y15647759D01*
X53773713Y15647760D01*
X53773710Y15647762D01*
X53773704Y15647764D01*
X53773702Y15647765D01*
X53543611Y15726757D01*
X53361310Y15757177D01*
X53303642Y15766800D01*
X53060358Y15766800D01*
X53012364Y15758792D01*
X52820388Y15726757D01*
X52590297Y15647765D01*
X52590283Y15647759D01*
X52376330Y15531974D01*
X52376325Y15531971D01*
X52184345Y15382546D01*
X52184343Y15382545D01*
X52184343Y15382544D01*
X52132792Y15326544D01*
X52019569Y15203551D01*
X51886508Y14999887D01*
X51788781Y14777093D01*
X51729059Y14541257D01*
X51729057Y14541246D01*
X51708969Y14298806D01*
X51708969Y14298795D01*
X39472300Y14298795D01*
X39472300Y15164425D01*
X39491985Y15231464D01*
X39544789Y15277219D01*
X39613947Y15287163D01*
X39677503Y15258138D01*
X39687530Y15248407D01*
X39708849Y15225248D01*
X39708858Y15225240D01*
X39903771Y15073533D01*
X39903777Y15073529D01*
X39903780Y15073527D01*
X40121021Y14955962D01*
X40206672Y14926558D01*
X40354646Y14875758D01*
X40354648Y14875758D01*
X40354650Y14875757D01*
X40598294Y14835100D01*
X40598295Y14835100D01*
X40845305Y14835100D01*
X40845306Y14835100D01*
X41088950Y14875757D01*
X41322579Y14955962D01*
X41539820Y15073527D01*
X41544906Y15077485D01*
X41628360Y15142440D01*
X41734748Y15225245D01*
X41767598Y15260930D01*
X45691500Y15260930D01*
X45691501Y15260924D01*
X45697908Y15201317D01*
X45748202Y15066472D01*
X45748206Y15066465D01*
X45834452Y14951256D01*
X45834455Y14951253D01*
X45949664Y14865007D01*
X45949671Y14865003D01*
X46084517Y14814709D01*
X46084516Y14814709D01*
X46091444Y14813965D01*
X46144127Y14808300D01*
X48219872Y14808301D01*
X48279483Y14814709D01*
X48414331Y14865004D01*
X48529546Y14951254D01*
X48615796Y15066469D01*
X48666091Y15201317D01*
X48672500Y15260927D01*
X48672499Y17336672D01*
X48666091Y17396283D01*
X48663663Y17402792D01*
X48615797Y17531129D01*
X48615793Y17531136D01*
X48529547Y17646345D01*
X48529544Y17646348D01*
X48414335Y17732594D01*
X48414328Y17732598D01*
X48279482Y17782892D01*
X48279483Y17782892D01*
X48219883Y17789299D01*
X48219881Y17789300D01*
X48219873Y17789300D01*
X48219864Y17789300D01*
X46144129Y17789300D01*
X46144123Y17789299D01*
X46084516Y17782892D01*
X45949671Y17732598D01*
X45949664Y17732594D01*
X45834455Y17646348D01*
X45834452Y17646345D01*
X45748206Y17531136D01*
X45748202Y17531129D01*
X45697908Y17396283D01*
X45692197Y17343158D01*
X45691501Y17336677D01*
X45691500Y17336665D01*
X45691500Y15260930D01*
X41767598Y15260930D01*
X41902045Y15406979D01*
X42037148Y15613769D01*
X42136372Y15839977D01*
X42197010Y16079431D01*
X42215187Y16298795D01*
X42217408Y16325595D01*
X42217408Y16325606D01*
X42197010Y16571766D01*
X42197010Y16571769D01*
X42136372Y16811223D01*
X42037148Y17037431D01*
X41902045Y17244221D01*
X41734748Y17425955D01*
X41734743Y17425959D01*
X41734741Y17425961D01*
X41539828Y17577668D01*
X41539822Y17577672D01*
X41322580Y17695238D01*
X41322571Y17695241D01*
X41088953Y17775443D01*
X40883707Y17809692D01*
X40845306Y17816100D01*
X40598294Y17816100D01*
X40559893Y17809692D01*
X40354646Y17775443D01*
X40121028Y17695241D01*
X40121019Y17695238D01*
X39903777Y17577672D01*
X39903771Y17577668D01*
X39708858Y17425961D01*
X39708854Y17425957D01*
X39687529Y17402792D01*
X39627641Y17366802D01*
X39557803Y17368903D01*
X39500188Y17408428D01*
X39473087Y17472828D01*
X39472300Y17486776D01*
X39472300Y25809817D01*
X39491985Y25876856D01*
X39508619Y25897498D01*
X40609902Y26998781D01*
X40671225Y27032266D01*
X40697583Y27035100D01*
X40845305Y27035100D01*
X40845306Y27035100D01*
X41088950Y27075757D01*
X41322579Y27155962D01*
X41539820Y27273527D01*
X41734748Y27425245D01*
X41902045Y27606979D01*
X42037148Y27813769D01*
X42136372Y28039977D01*
X42197010Y28279431D01*
X42213759Y28481564D01*
X42215187Y28498795D01*
X45686392Y28498795D01*
X45706789Y28252635D01*
X45767428Y28013177D01*
X45854894Y27813773D01*
X45866652Y27786969D01*
X45903236Y27730973D01*
X45984245Y27606979D01*
X46001755Y27580179D01*
X46169052Y27398445D01*
X46169055Y27398443D01*
X46169058Y27398440D01*
X46363971Y27246733D01*
X46363977Y27246729D01*
X46363980Y27246727D01*
X46581221Y27129162D01*
X46702536Y27087515D01*
X46814846Y27048958D01*
X46814848Y27048958D01*
X46814850Y27048957D01*
X47058494Y27008300D01*
X47058495Y27008300D01*
X47305505Y27008300D01*
X47305506Y27008300D01*
X47549150Y27048957D01*
X47782779Y27129162D01*
X48000020Y27246727D01*
X48034461Y27273533D01*
X48099723Y27324329D01*
X48194948Y27398445D01*
X48362245Y27580179D01*
X48497348Y27786969D01*
X48596572Y28013177D01*
X48657210Y28252631D01*
X48672730Y28439928D01*
X48677608Y28498795D01*
X48677608Y28498806D01*
X48664009Y28662913D01*
X48657210Y28744969D01*
X48596572Y28984423D01*
X48497348Y29210631D01*
X48362245Y29417421D01*
X48194948Y29599155D01*
X48194943Y29599159D01*
X48194941Y29599161D01*
X48000028Y29750868D01*
X48000022Y29750872D01*
X47782780Y29868438D01*
X47782771Y29868441D01*
X47549153Y29948643D01*
X47366417Y29979136D01*
X47305506Y29989300D01*
X47058494Y29989300D01*
X47009765Y29981169D01*
X46814846Y29948643D01*
X46581228Y29868441D01*
X46581219Y29868438D01*
X46363977Y29750872D01*
X46363971Y29750868D01*
X46169058Y29599161D01*
X46169055Y29599158D01*
X46169052Y29599156D01*
X46169052Y29599155D01*
X46117501Y29543155D01*
X46001752Y29417418D01*
X45866650Y29210628D01*
X45767428Y28984424D01*
X45706789Y28744966D01*
X45686392Y28498806D01*
X45686392Y28498795D01*
X42215187Y28498795D01*
X42217408Y28525595D01*
X42217408Y28525606D01*
X42197010Y28771766D01*
X42197010Y28771769D01*
X42136372Y29011223D01*
X42037148Y29237431D01*
X41902045Y29444221D01*
X41734748Y29625955D01*
X41734743Y29625959D01*
X41734741Y29625961D01*
X41539828Y29777668D01*
X41539822Y29777672D01*
X41322580Y29895238D01*
X41322571Y29895241D01*
X41088953Y29975443D01*
X40906217Y30005936D01*
X40845306Y30016100D01*
X40598294Y30016100D01*
X40549565Y30007969D01*
X40354646Y29975443D01*
X40121028Y29895241D01*
X40121019Y29895238D01*
X39903777Y29777672D01*
X39903771Y29777668D01*
X39708858Y29625961D01*
X39708855Y29625958D01*
X39541552Y29444218D01*
X39406450Y29237428D01*
X39307228Y29011224D01*
X39246589Y28771766D01*
X39228973Y28559164D01*
X39226192Y28525600D01*
X39227103Y28514601D01*
X39227620Y28508364D01*
X39213537Y28439928D01*
X39191724Y28410446D01*
X37773332Y26992054D01*
X37708746Y26930658D01*
X37673699Y26880306D01*
X37670862Y26876544D01*
X37632102Y26829008D01*
X37632099Y26829003D01*
X37616192Y26798553D01*
X37612124Y26791839D01*
X37592502Y26763646D01*
X37568309Y26707270D01*
X37566288Y26703016D01*
X37537891Y26648649D01*
X37537890Y26648648D01*
X37528440Y26615625D01*
X37525807Y26608229D01*
X37512259Y26576657D01*
X37499913Y26516581D01*
X37498790Y26512005D01*
X37481913Y26453023D01*
X37481913Y26453021D01*
X37479303Y26418759D01*
X37478214Y26410992D01*
X37474304Y26391959D01*
X37471300Y26377342D01*
X37471300Y26316003D01*
X37471121Y26311294D01*
X37466462Y26250126D01*
X37468507Y26234073D01*
X37470803Y26216040D01*
X37471300Y26208212D01*
X37471300Y8348100D01*
X37451615Y8281061D01*
X37398811Y8235306D01*
X37347301Y8224100D01*
X37123930Y8224100D01*
X37123923Y8224099D01*
X37064316Y8217692D01*
X36929471Y8167398D01*
X36929464Y8167394D01*
X36814255Y8081148D01*
X36814252Y8081145D01*
X36728006Y7965936D01*
X36728002Y7965929D01*
X36677708Y7831083D01*
X36671301Y7771484D01*
X36671301Y7771477D01*
X36671300Y7771465D01*
X36671300Y5075730D01*
X32166263Y5075730D01*
X32266473Y5168711D01*
X32295357Y5195511D01*
X32295357Y5195513D01*
X32295361Y5195515D01*
X32463615Y5406498D01*
X32598543Y5640202D01*
X32697134Y5891405D01*
X32757183Y6154497D01*
X32770844Y6336796D01*
X32777349Y6423596D01*
X32777349Y6423605D01*
X32757183Y6692702D01*
X32742238Y6758181D01*
X32697134Y6955795D01*
X32598543Y7206998D01*
X32463615Y7440702D01*
X32295361Y7651685D01*
X32295360Y7651686D01*
X32295357Y7651690D01*
X32097541Y7835235D01*
X32033160Y7879129D01*
X31874575Y7987251D01*
X31874569Y7987254D01*
X31874568Y7987255D01*
X31874567Y7987256D01*
X31631443Y8104337D01*
X31631445Y8104337D01*
X31373573Y8183880D01*
X31373567Y8183882D01*
X31106736Y8224100D01*
X31106729Y8224100D01*
X30836871Y8224100D01*
X30836863Y8224100D01*
X30570032Y8183882D01*
X30570026Y8183880D01*
X30312158Y8104338D01*
X30069030Y7987254D01*
X29846058Y7835235D01*
X29648242Y7651690D01*
X29479985Y7440702D01*
X29345058Y7207001D01*
X29345056Y7206997D01*
X29246466Y6955796D01*
X29246464Y6955789D01*
X29186416Y6692702D01*
X29166251Y6423605D01*
X29166251Y6423596D01*
X22258099Y6423596D01*
X22258099Y7684672D01*
X22251691Y7744283D01*
X22251546Y7744671D01*
X22201397Y7879129D01*
X22201393Y7879136D01*
X22115147Y7994345D01*
X22115144Y7994348D01*
X21999935Y8080594D01*
X21999928Y8080598D01*
X21865082Y8130892D01*
X21865083Y8130892D01*
X21805483Y8137299D01*
X21805481Y8137300D01*
X21805473Y8137300D01*
X21805465Y8137300D01*
X21582100Y8137300D01*
X21515061Y8156985D01*
X21469306Y8209789D01*
X21458100Y8261300D01*
X21458100Y14325595D01*
X33248769Y14325595D01*
X33268857Y14083155D01*
X33268859Y14083144D01*
X33328581Y13847308D01*
X33426308Y13624514D01*
X33559369Y13420850D01*
X33559372Y13420846D01*
X33724143Y13241856D01*
X33916128Y13092428D01*
X34130090Y12976638D01*
X34249575Y12935619D01*
X34360188Y12897644D01*
X34360190Y12897644D01*
X34360192Y12897643D01*
X34600158Y12857600D01*
X34600159Y12857600D01*
X34843441Y12857600D01*
X34843442Y12857600D01*
X35083408Y12897643D01*
X35313510Y12976638D01*
X35527472Y13092428D01*
X35719457Y13241856D01*
X35884228Y13420846D01*
X36017292Y13624515D01*
X36115018Y13847308D01*
X36174741Y14083147D01*
X36178950Y14133944D01*
X36194831Y14325595D01*
X36194831Y14325606D01*
X36174742Y14568046D01*
X36174740Y14568057D01*
X36115018Y14803893D01*
X36017291Y15026687D01*
X35884230Y15230351D01*
X35884229Y15230352D01*
X35884228Y15230354D01*
X35719457Y15409344D01*
X35586303Y15512982D01*
X35527474Y15558771D01*
X35527469Y15558774D01*
X35313516Y15674559D01*
X35313513Y15674560D01*
X35313510Y15674562D01*
X35313504Y15674564D01*
X35313502Y15674565D01*
X35083411Y15753557D01*
X34903433Y15783590D01*
X34843442Y15793600D01*
X34600158Y15793600D01*
X34552164Y15785592D01*
X34360188Y15753557D01*
X34130097Y15674565D01*
X34130083Y15674559D01*
X33916130Y15558774D01*
X33916125Y15558771D01*
X33724145Y15409346D01*
X33559369Y15230351D01*
X33426308Y15026687D01*
X33328581Y14803893D01*
X33268859Y14568057D01*
X33268857Y14568046D01*
X33248769Y14325606D01*
X33248769Y14325595D01*
X21458100Y14325595D01*
X21458100Y15081625D01*
X21477785Y15148664D01*
X21530589Y15194419D01*
X21599747Y15204363D01*
X21663303Y15175338D01*
X21673330Y15165607D01*
X21694649Y15142448D01*
X21694658Y15142440D01*
X21889571Y14990733D01*
X21889577Y14990729D01*
X21889580Y14990727D01*
X22003342Y14929162D01*
X22083279Y14885902D01*
X22106821Y14873162D01*
X22177325Y14848958D01*
X22340446Y14792958D01*
X22340448Y14792958D01*
X22340450Y14792957D01*
X22584094Y14752300D01*
X22584095Y14752300D01*
X22831105Y14752300D01*
X22831106Y14752300D01*
X23074750Y14792957D01*
X23308379Y14873162D01*
X23525620Y14990727D01*
X23550980Y15010465D01*
X23597577Y15046733D01*
X23720548Y15142445D01*
X23854292Y15287730D01*
X27231300Y15287730D01*
X27231301Y15287724D01*
X27237708Y15228117D01*
X27288002Y15093272D01*
X27288006Y15093265D01*
X27374252Y14978056D01*
X27374255Y14978053D01*
X27489464Y14891807D01*
X27489471Y14891803D01*
X27624317Y14841509D01*
X27624316Y14841509D01*
X27631244Y14840765D01*
X27683927Y14835100D01*
X29759672Y14835101D01*
X29819283Y14841509D01*
X29954131Y14891804D01*
X30069346Y14978054D01*
X30155596Y15093269D01*
X30205891Y15228117D01*
X30212300Y15287727D01*
X30212299Y17363472D01*
X30205891Y17423083D01*
X30187337Y17472828D01*
X30155597Y17557929D01*
X30155593Y17557936D01*
X30069347Y17673145D01*
X30069344Y17673148D01*
X29954135Y17759394D01*
X29954128Y17759398D01*
X29819282Y17809692D01*
X29819283Y17809692D01*
X29759683Y17816099D01*
X29759681Y17816100D01*
X29759673Y17816100D01*
X29759664Y17816100D01*
X27683929Y17816100D01*
X27683923Y17816099D01*
X27624316Y17809692D01*
X27489471Y17759398D01*
X27489464Y17759394D01*
X27374255Y17673148D01*
X27374252Y17673145D01*
X27288006Y17557936D01*
X27288002Y17557929D01*
X27237708Y17423083D01*
X27234155Y17390028D01*
X27231301Y17363477D01*
X27231300Y17363465D01*
X27231300Y15287730D01*
X23854292Y15287730D01*
X23887845Y15324179D01*
X24022948Y15530969D01*
X24122172Y15757177D01*
X24182810Y15996631D01*
X24203208Y16242800D01*
X24198567Y16298806D01*
X24182810Y16488966D01*
X24182810Y16488969D01*
X24122172Y16728423D01*
X24022948Y16954631D01*
X23887845Y17161421D01*
X23720548Y17343155D01*
X23720543Y17343159D01*
X23720541Y17343161D01*
X23525628Y17494868D01*
X23525622Y17494872D01*
X23308380Y17612438D01*
X23308371Y17612441D01*
X23074753Y17692643D01*
X22869507Y17726892D01*
X22831106Y17733300D01*
X22584094Y17733300D01*
X22545693Y17726892D01*
X22340446Y17692643D01*
X22106828Y17612441D01*
X22106819Y17612438D01*
X21889577Y17494872D01*
X21889571Y17494868D01*
X21694658Y17343161D01*
X21694654Y17343157D01*
X21694652Y17343156D01*
X21694652Y17343155D01*
X21688695Y17336684D01*
X21673329Y17319992D01*
X21613441Y17284002D01*
X21543603Y17286103D01*
X21485988Y17325628D01*
X21458887Y17390028D01*
X21458100Y17403976D01*
X21458100Y25727017D01*
X21477785Y25794056D01*
X21494419Y25814698D01*
X22595702Y26915981D01*
X22657025Y26949466D01*
X22683383Y26952300D01*
X22831105Y26952300D01*
X22831106Y26952300D01*
X23074750Y26992957D01*
X23308379Y27073162D01*
X23525620Y27190727D01*
X23720548Y27342445D01*
X23887845Y27524179D01*
X24022948Y27730969D01*
X24122172Y27957177D01*
X24182810Y28196631D01*
X24197034Y28368287D01*
X24203208Y28442795D01*
X24203208Y28442806D01*
X24196348Y28525595D01*
X27226192Y28525595D01*
X27246589Y28279435D01*
X27246589Y28279432D01*
X27246590Y28279431D01*
X27307228Y28039977D01*
X27406452Y27813769D01*
X27460548Y27730969D01*
X27508365Y27657779D01*
X27541555Y27606979D01*
X27708852Y27425245D01*
X27708855Y27425243D01*
X27708858Y27425240D01*
X27903771Y27273533D01*
X27903777Y27273529D01*
X27903780Y27273527D01*
X28121021Y27155962D01*
X28206672Y27126558D01*
X28354646Y27075758D01*
X28354648Y27075758D01*
X28354650Y27075757D01*
X28598294Y27035100D01*
X28598295Y27035100D01*
X28845305Y27035100D01*
X28845306Y27035100D01*
X29088950Y27075757D01*
X29322579Y27155962D01*
X29539820Y27273527D01*
X29734748Y27425245D01*
X29902045Y27606979D01*
X30037148Y27813769D01*
X30136372Y28039977D01*
X30197010Y28279431D01*
X30213759Y28481564D01*
X30217408Y28525595D01*
X30217408Y28525606D01*
X30197010Y28771766D01*
X30197010Y28771769D01*
X30136372Y29011223D01*
X30037148Y29237431D01*
X29902045Y29444221D01*
X29734748Y29625955D01*
X29734743Y29625959D01*
X29734741Y29625961D01*
X29539828Y29777668D01*
X29539822Y29777672D01*
X29322580Y29895238D01*
X29322571Y29895241D01*
X29088953Y29975443D01*
X28906217Y30005936D01*
X28845306Y30016100D01*
X28598294Y30016100D01*
X28549565Y30007969D01*
X28354646Y29975443D01*
X28121028Y29895241D01*
X28121019Y29895238D01*
X27903777Y29777672D01*
X27903771Y29777668D01*
X27708858Y29625961D01*
X27708855Y29625958D01*
X27541552Y29444218D01*
X27406450Y29237428D01*
X27307228Y29011224D01*
X27246589Y28771766D01*
X27226192Y28525606D01*
X27226192Y28525595D01*
X24196348Y28525595D01*
X24182810Y28688966D01*
X24182810Y28688969D01*
X24122172Y28928423D01*
X24022948Y29154631D01*
X23887845Y29361421D01*
X23720548Y29543155D01*
X23720543Y29543159D01*
X23720541Y29543161D01*
X23525628Y29694868D01*
X23525622Y29694872D01*
X23308380Y29812438D01*
X23308371Y29812441D01*
X23074753Y29892643D01*
X22892017Y29923136D01*
X22831106Y29933300D01*
X22584094Y29933300D01*
X22535365Y29925169D01*
X22340446Y29892643D01*
X22106828Y29812441D01*
X22106819Y29812438D01*
X21889577Y29694872D01*
X21889571Y29694868D01*
X21694658Y29543161D01*
X21694655Y29543158D01*
X21527352Y29361418D01*
X21392250Y29154628D01*
X21293028Y28928424D01*
X21232389Y28688966D01*
X21211992Y28442806D01*
X21211992Y28442800D01*
X21212230Y28439928D01*
X21213420Y28425564D01*
X21199337Y28357128D01*
X21177524Y28327646D01*
X19759132Y26909254D01*
X19694546Y26847858D01*
X19659499Y26797506D01*
X19656662Y26793744D01*
X19617902Y26746208D01*
X19617899Y26746203D01*
X19601992Y26715753D01*
X19597924Y26709039D01*
X19578302Y26680846D01*
X19554109Y26624470D01*
X19552088Y26620216D01*
X19523691Y26565849D01*
X19523690Y26565848D01*
X19514240Y26532825D01*
X19511607Y26525429D01*
X19498059Y26493857D01*
X19485713Y26433781D01*
X19484590Y26429205D01*
X19467713Y26370223D01*
X19467713Y26370221D01*
X19465103Y26335959D01*
X19464014Y26328192D01*
X19458580Y26301748D01*
X19457100Y26294542D01*
X19457100Y26233203D01*
X19456921Y26228494D01*
X19452262Y26167326D01*
X19454307Y26151273D01*
X19456603Y26133240D01*
X19457100Y26125412D01*
X19457100Y8261300D01*
X19437415Y8194261D01*
X19384611Y8148506D01*
X19333101Y8137300D01*
X19109730Y8137300D01*
X19109723Y8137299D01*
X19050116Y8130892D01*
X18915271Y8080598D01*
X18915264Y8080594D01*
X18800055Y7994348D01*
X18800052Y7994345D01*
X18713806Y7879136D01*
X18713802Y7879129D01*
X18663508Y7744283D01*
X18659015Y7702485D01*
X18657101Y7684677D01*
X18657100Y7684665D01*
X18657100Y4988930D01*
X14152063Y4988930D01*
X14245608Y5075727D01*
X14281157Y5108711D01*
X14281157Y5108713D01*
X14281161Y5108715D01*
X14449415Y5319698D01*
X14584343Y5553402D01*
X14682934Y5804605D01*
X14742983Y6067697D01*
X14749705Y6157398D01*
X14763149Y6336796D01*
X14763149Y6336805D01*
X14742983Y6605902D01*
X14729455Y6665174D01*
X14682934Y6868995D01*
X14584343Y7120198D01*
X14449415Y7353902D01*
X14281161Y7564885D01*
X14281160Y7564886D01*
X14281157Y7564890D01*
X14083341Y7748435D01*
X14049552Y7771472D01*
X13860375Y7900451D01*
X13860369Y7900454D01*
X13860368Y7900455D01*
X13860367Y7900456D01*
X13617243Y8017537D01*
X13617245Y8017537D01*
X13359373Y8097080D01*
X13359367Y8097082D01*
X13092536Y8137300D01*
X13092529Y8137300D01*
X12822671Y8137300D01*
X12822663Y8137300D01*
X12555832Y8097082D01*
X12555826Y8097080D01*
X12297958Y8017538D01*
X12054830Y7900454D01*
X11831858Y7748435D01*
X11634042Y7564890D01*
X11465785Y7353902D01*
X11330858Y7120201D01*
X11330856Y7120197D01*
X11232266Y6868996D01*
X11232264Y6868989D01*
X11172216Y6605902D01*
X11152051Y6336805D01*
X11152051Y6336796D01*
X6643256Y6336796D01*
X6518815Y6503950D01*
X6518810Y6503956D01*
X6366709Y6665172D01*
X6278958Y6758183D01*
X6075391Y6928996D01*
X6011213Y6982848D01*
X6011205Y6982854D01*
X5719196Y7174912D01*
X5406858Y7331774D01*
X5406852Y7331777D01*
X5078412Y7451319D01*
X5078409Y7451320D01*
X4738315Y7531923D01*
X4694919Y7536996D01*
X4391159Y7572500D01*
X4041641Y7572500D01*
X3737880Y7536996D01*
X3694485Y7531923D01*
X3694483Y7531923D01*
X3354390Y7451320D01*
X3354387Y7451319D01*
X3025947Y7331777D01*
X3025941Y7331774D01*
X2713603Y7174912D01*
X2421594Y6982854D01*
X2421586Y6982848D01*
X2153842Y6758183D01*
X2153840Y6758181D01*
X1913989Y6503956D01*
X1913984Y6503950D01*
X1705270Y6223598D01*
X1530513Y5920909D01*
X1530507Y5920896D01*
X1392074Y5599973D01*
X1291830Y5265135D01*
X1291828Y5265128D01*
X1231139Y4920939D01*
X1231138Y4920928D01*
X1210815Y4572004D01*
X1210815Y4571997D01*
X242516Y4571997D01*
X225627Y14242795D01*
X15234569Y14242795D01*
X15254657Y14000355D01*
X15254659Y14000344D01*
X15314381Y13764508D01*
X15412108Y13541714D01*
X15508585Y13394046D01*
X15545172Y13338046D01*
X15709943Y13159056D01*
X15795544Y13092430D01*
X15879045Y13027438D01*
X15901928Y13009628D01*
X16115890Y12893838D01*
X16221447Y12857600D01*
X16345988Y12814844D01*
X16345990Y12814844D01*
X16345992Y12814843D01*
X16585958Y12774800D01*
X16585959Y12774800D01*
X16829241Y12774800D01*
X16829242Y12774800D01*
X17069208Y12814843D01*
X17299310Y12893838D01*
X17513272Y13009628D01*
X17705257Y13159056D01*
X17870028Y13338046D01*
X18003092Y13541715D01*
X18100818Y13764508D01*
X18160541Y14000347D01*
X18165181Y14056344D01*
X18180631Y14242795D01*
X18180631Y14242806D01*
X18160542Y14485246D01*
X18160540Y14485257D01*
X18100818Y14721093D01*
X18003654Y14942604D01*
X18003092Y14943885D01*
X17998278Y14951253D01*
X17870030Y15147551D01*
X17870029Y15147552D01*
X17870028Y15147554D01*
X17705257Y15326544D01*
X17572103Y15430182D01*
X17513274Y15475971D01*
X17513269Y15475974D01*
X17299316Y15591759D01*
X17299313Y15591760D01*
X17299310Y15591762D01*
X17299304Y15591764D01*
X17299302Y15591765D01*
X17069211Y15670757D01*
X16889233Y15700790D01*
X16829242Y15710800D01*
X16585958Y15710800D01*
X16537964Y15702792D01*
X16345988Y15670757D01*
X16115897Y15591765D01*
X16115883Y15591759D01*
X15901930Y15475974D01*
X15901925Y15475971D01*
X15709945Y15326546D01*
X15709943Y15326545D01*
X15709943Y15326544D01*
X15664536Y15277219D01*
X15545169Y15147551D01*
X15412108Y14943887D01*
X15314381Y14721093D01*
X15254659Y14485257D01*
X15254657Y14485246D01*
X15234569Y14242806D01*
X15234569Y14242795D01*
X225627Y14242795D01*
X223947Y15204930D01*
X9217100Y15204930D01*
X9217101Y15204924D01*
X9223508Y15145317D01*
X9273802Y15010472D01*
X9273806Y15010465D01*
X9360052Y14895256D01*
X9360055Y14895253D01*
X9475264Y14809007D01*
X9475271Y14809003D01*
X9610117Y14758709D01*
X9610116Y14758709D01*
X9617044Y14757965D01*
X9669727Y14752300D01*
X11745472Y14752301D01*
X11805083Y14758709D01*
X11939931Y14809004D01*
X12055146Y14895254D01*
X12141396Y15010469D01*
X12191691Y15145317D01*
X12198100Y15204927D01*
X12198099Y17280672D01*
X12191691Y17340283D01*
X12191012Y17342103D01*
X12141397Y17475129D01*
X12141393Y17475136D01*
X12055147Y17590345D01*
X12055144Y17590348D01*
X11939935Y17676594D01*
X11939928Y17676598D01*
X11805082Y17726892D01*
X11805083Y17726892D01*
X11745483Y17733299D01*
X11745481Y17733300D01*
X11745473Y17733300D01*
X11745464Y17733300D01*
X9669729Y17733300D01*
X9669723Y17733299D01*
X9610116Y17726892D01*
X9475271Y17676598D01*
X9475264Y17676594D01*
X9360055Y17590348D01*
X9360052Y17590345D01*
X9273806Y17475136D01*
X9273802Y17475129D01*
X9223508Y17340283D01*
X9218642Y17295018D01*
X9217101Y17280677D01*
X9217100Y17280665D01*
X9217100Y15204930D01*
X223947Y15204930D01*
X200828Y28442795D01*
X9211992Y28442795D01*
X9232389Y28196635D01*
X9293028Y27957177D01*
X9355932Y27813769D01*
X9392252Y27730969D01*
X9527355Y27524179D01*
X9694652Y27342445D01*
X9694655Y27342443D01*
X9694658Y27342440D01*
X9889571Y27190733D01*
X9889577Y27190729D01*
X9889580Y27190727D01*
X10106821Y27073162D01*
X10177325Y27048958D01*
X10340446Y26992958D01*
X10340448Y26992958D01*
X10340450Y26992957D01*
X10584094Y26952300D01*
X10584095Y26952300D01*
X10831105Y26952300D01*
X10831106Y26952300D01*
X11074750Y26992957D01*
X11308379Y27073162D01*
X11525620Y27190727D01*
X11720548Y27342445D01*
X11887845Y27524179D01*
X12022948Y27730969D01*
X12122172Y27957177D01*
X12182810Y28196631D01*
X12197034Y28368287D01*
X12203208Y28442795D01*
X12203208Y28442806D01*
X12182810Y28688966D01*
X12182810Y28688969D01*
X12122172Y28928423D01*
X12022948Y29154631D01*
X11887845Y29361421D01*
X11720548Y29543155D01*
X11720543Y29543159D01*
X11720541Y29543161D01*
X11525628Y29694868D01*
X11525622Y29694872D01*
X11308380Y29812438D01*
X11308371Y29812441D01*
X11074753Y29892643D01*
X10892017Y29923136D01*
X10831106Y29933300D01*
X10584094Y29933300D01*
X10535365Y29925169D01*
X10340446Y29892643D01*
X10106828Y29812441D01*
X10106819Y29812438D01*
X9889577Y29694872D01*
X9889571Y29694868D01*
X9694658Y29543161D01*
X9694655Y29543158D01*
X9527352Y29361418D01*
X9392250Y29154628D01*
X9293028Y28928424D01*
X9232389Y28688966D01*
X9211992Y28442806D01*
X9211992Y28442795D01*
X200828Y28442795D01*
X194475Y32080200D01*
X80101425Y32080200D01*
X80120487Y31862316D01*
X80120489Y31862306D01*
X80177094Y31651050D01*
X80177098Y31651041D01*
X80269535Y31452809D01*
X80313073Y31390629D01*
X80313075Y31390628D01*
X80873123Y31950677D01*
X80896707Y31870356D01*
X80974439Y31749402D01*
X81083100Y31655248D01*
X81213885Y31595520D01*
X81223666Y31594114D01*
X80666626Y31037076D01*
X80728811Y30993534D01*
X80728813Y30993533D01*
X80927040Y30901099D01*
X80927049Y30901095D01*
X81138305Y30844490D01*
X81138315Y30844488D01*
X81356199Y30825425D01*
X81356201Y30825425D01*
X81574084Y30844488D01*
X81574094Y30844490D01*
X81785350Y30901095D01*
X81785359Y30901099D01*
X81983587Y30993534D01*
X82045772Y31037076D01*
X81488734Y31594114D01*
X81498515Y31595520D01*
X81629300Y31655248D01*
X81737961Y31749402D01*
X81815693Y31870356D01*
X81839276Y31950676D01*
X82399324Y31390628D01*
X82442866Y31452813D01*
X82535301Y31651041D01*
X82535305Y31651050D01*
X82591910Y31862306D01*
X82591912Y31862316D01*
X82610975Y32080200D01*
X84601425Y32080200D01*
X84620487Y31862316D01*
X84620489Y31862306D01*
X84677094Y31651050D01*
X84677098Y31651041D01*
X84769535Y31452809D01*
X84813073Y31390629D01*
X84813075Y31390628D01*
X85373123Y31950677D01*
X85396707Y31870356D01*
X85474439Y31749402D01*
X85583100Y31655248D01*
X85713885Y31595520D01*
X85723666Y31594114D01*
X85166626Y31037076D01*
X85228811Y30993534D01*
X85228813Y30993533D01*
X85427040Y30901099D01*
X85427049Y30901095D01*
X85638305Y30844490D01*
X85638315Y30844488D01*
X85856199Y30825425D01*
X85856201Y30825425D01*
X86074084Y30844488D01*
X86074094Y30844490D01*
X86285350Y30901095D01*
X86285359Y30901099D01*
X86483587Y30993534D01*
X86545772Y31037076D01*
X85988734Y31594114D01*
X85998515Y31595520D01*
X86129300Y31655248D01*
X86237961Y31749402D01*
X86315693Y31870356D01*
X86339276Y31950676D01*
X86899324Y31390628D01*
X86942866Y31452813D01*
X87035301Y31651041D01*
X87035305Y31651050D01*
X87091910Y31862306D01*
X87091912Y31862316D01*
X87093302Y31878200D01*
X89332225Y31878200D01*
X89351287Y31660316D01*
X89351289Y31660306D01*
X89407894Y31449050D01*
X89407898Y31449041D01*
X89500335Y31250809D01*
X89543873Y31188629D01*
X89543875Y31188628D01*
X90103923Y31748677D01*
X90127507Y31668356D01*
X90205239Y31547402D01*
X90313900Y31453248D01*
X90444685Y31393520D01*
X90454466Y31392114D01*
X89897426Y30835076D01*
X89959611Y30791534D01*
X89959613Y30791533D01*
X90157840Y30699099D01*
X90157849Y30699095D01*
X90369105Y30642490D01*
X90369115Y30642488D01*
X90586999Y30623425D01*
X90587001Y30623425D01*
X90804884Y30642488D01*
X90804894Y30642490D01*
X91016150Y30699095D01*
X91016159Y30699099D01*
X91214387Y30791534D01*
X91276572Y30835076D01*
X90719534Y31392114D01*
X90729315Y31393520D01*
X90860100Y31453248D01*
X90968761Y31547402D01*
X91046493Y31668356D01*
X91070076Y31748676D01*
X91630124Y31188628D01*
X91673666Y31250813D01*
X91766101Y31449041D01*
X91766105Y31449050D01*
X91822710Y31660306D01*
X91822712Y31660316D01*
X91841775Y31878200D01*
X93832225Y31878200D01*
X93851287Y31660316D01*
X93851289Y31660306D01*
X93907894Y31449050D01*
X93907898Y31449041D01*
X94000335Y31250809D01*
X94043873Y31188629D01*
X94043875Y31188628D01*
X94603923Y31748677D01*
X94627507Y31668356D01*
X94705239Y31547402D01*
X94813900Y31453248D01*
X94944685Y31393520D01*
X94954466Y31392114D01*
X94397426Y30835076D01*
X94459611Y30791534D01*
X94459613Y30791533D01*
X94657840Y30699099D01*
X94657849Y30699095D01*
X94869105Y30642490D01*
X94869115Y30642488D01*
X95086999Y30623425D01*
X95087001Y30623425D01*
X95304884Y30642488D01*
X95304894Y30642490D01*
X95516150Y30699095D01*
X95516159Y30699099D01*
X95714387Y30791534D01*
X95776572Y30835076D01*
X95219534Y31392114D01*
X95229315Y31393520D01*
X95360100Y31453248D01*
X95468761Y31547402D01*
X95546493Y31668356D01*
X95570076Y31748676D01*
X96130124Y31188628D01*
X96173666Y31250813D01*
X96266101Y31449041D01*
X96266105Y31449050D01*
X96322710Y31660306D01*
X96322712Y31660316D01*
X96341775Y31878200D01*
X96341775Y31878201D01*
X96338048Y31920796D01*
X108608753Y31920796D01*
X108628913Y31651774D01*
X108628913Y31651772D01*
X108688942Y31388767D01*
X108688948Y31388748D01*
X108787509Y31137619D01*
X108787508Y31137619D01*
X108922402Y30903978D01*
X108976094Y30836649D01*
X108976095Y30836649D01*
X109773659Y31634214D01*
X109833480Y31520234D01*
X109946205Y31392994D01*
X110086105Y31296429D01*
X110127341Y31280790D01*
X109328648Y30482098D01*
X109511283Y30357580D01*
X109511285Y30357579D01*
X109754339Y30240531D01*
X109754337Y30240531D01*
X110012137Y30161010D01*
X110012143Y30161008D01*
X110278901Y30120801D01*
X110278910Y30120800D01*
X110548690Y30120800D01*
X110548698Y30120801D01*
X110815456Y30161008D01*
X110815462Y30161010D01*
X111073261Y30240531D01*
X111316321Y30357582D01*
X111498950Y30482098D01*
X110700257Y31280790D01*
X110741495Y31296429D01*
X110881395Y31392994D01*
X110994120Y31520234D01*
X111053939Y31634213D01*
X111851503Y30836649D01*
X111851504Y30836650D01*
X111905193Y30903972D01*
X111905200Y30903983D01*
X112040090Y31137619D01*
X112138651Y31388748D01*
X112138657Y31388767D01*
X112198686Y31651772D01*
X112198686Y31651774D01*
X112218847Y31920796D01*
X112218847Y31920805D01*
X112198686Y32189827D01*
X112198686Y32189829D01*
X112138657Y32452834D01*
X112138651Y32452853D01*
X112040090Y32703982D01*
X112040091Y32703982D01*
X111905197Y32937623D01*
X111851504Y33004953D01*
X111053939Y32207388D01*
X110994120Y32321366D01*
X110881395Y32448606D01*
X110741495Y32545171D01*
X110700257Y32560811D01*
X111498950Y33359504D01*
X111316317Y33484021D01*
X111316316Y33484022D01*
X111073260Y33601070D01*
X111073262Y33601070D01*
X110815462Y33680591D01*
X110815456Y33680593D01*
X110548698Y33720800D01*
X110278901Y33720800D01*
X110012143Y33680593D01*
X110012137Y33680591D01*
X109754338Y33601070D01*
X109511285Y33484022D01*
X109511276Y33484017D01*
X109328648Y33359504D01*
X110127342Y32560811D01*
X110086105Y32545171D01*
X109946205Y32448606D01*
X109833480Y32321366D01*
X109773659Y32207388D01*
X108976095Y33004952D01*
X108922400Y32937620D01*
X108787509Y32703982D01*
X108688948Y32452853D01*
X108688942Y32452834D01*
X108628913Y32189829D01*
X108628913Y32189827D01*
X108608753Y31920805D01*
X108608753Y31920796D01*
X96338048Y31920796D01*
X96322712Y32096085D01*
X96322710Y32096095D01*
X96266105Y32307351D01*
X96266101Y32307360D01*
X96173668Y32505585D01*
X96130123Y32567772D01*
X95570076Y32007725D01*
X95546493Y32088044D01*
X95468761Y32208998D01*
X95360100Y32303152D01*
X95229315Y32362880D01*
X95219534Y32364287D01*
X95776572Y32921325D01*
X95776571Y32921327D01*
X95714391Y32964865D01*
X95516159Y33057302D01*
X95516150Y33057306D01*
X95304894Y33113911D01*
X95304884Y33113913D01*
X95087001Y33132975D01*
X95086999Y33132975D01*
X94869115Y33113913D01*
X94869105Y33113911D01*
X94657849Y33057306D01*
X94657840Y33057302D01*
X94459614Y32964868D01*
X94459612Y32964867D01*
X94397428Y32921325D01*
X94397427Y32921325D01*
X94954466Y32364287D01*
X94944685Y32362880D01*
X94813900Y32303152D01*
X94705239Y32208998D01*
X94627507Y32088044D01*
X94603923Y32007725D01*
X94043875Y32567773D01*
X94043875Y32567772D01*
X94000333Y32505588D01*
X94000332Y32505586D01*
X93907898Y32307360D01*
X93907894Y32307351D01*
X93851289Y32096095D01*
X93851287Y32096085D01*
X93832225Y31878201D01*
X93832225Y31878200D01*
X91841775Y31878200D01*
X91841775Y31878201D01*
X91822712Y32096085D01*
X91822710Y32096095D01*
X91766105Y32307351D01*
X91766101Y32307360D01*
X91673668Y32505585D01*
X91630123Y32567772D01*
X91070076Y32007725D01*
X91046493Y32088044D01*
X90968761Y32208998D01*
X90860100Y32303152D01*
X90729315Y32362880D01*
X90719534Y32364287D01*
X91276572Y32921325D01*
X91276571Y32921327D01*
X91214391Y32964865D01*
X91016159Y33057302D01*
X91016150Y33057306D01*
X90804894Y33113911D01*
X90804884Y33113913D01*
X90587001Y33132975D01*
X90586999Y33132975D01*
X90369115Y33113913D01*
X90369105Y33113911D01*
X90157849Y33057306D01*
X90157840Y33057302D01*
X89959614Y32964868D01*
X89959612Y32964867D01*
X89897428Y32921325D01*
X89897427Y32921325D01*
X90454466Y32364287D01*
X90444685Y32362880D01*
X90313900Y32303152D01*
X90205239Y32208998D01*
X90127507Y32088044D01*
X90103923Y32007725D01*
X89543875Y32567773D01*
X89543875Y32567772D01*
X89500333Y32505588D01*
X89500332Y32505586D01*
X89407898Y32307360D01*
X89407894Y32307351D01*
X89351289Y32096095D01*
X89351287Y32096085D01*
X89332225Y31878201D01*
X89332225Y31878200D01*
X87093302Y31878200D01*
X87110975Y32080200D01*
X87110975Y32080201D01*
X87091912Y32298085D01*
X87091910Y32298095D01*
X87035305Y32509351D01*
X87035301Y32509360D01*
X86942868Y32707585D01*
X86899323Y32769772D01*
X86339276Y32209725D01*
X86315693Y32290044D01*
X86237961Y32410998D01*
X86129300Y32505152D01*
X85998515Y32564880D01*
X85988734Y32566287D01*
X86545772Y33123325D01*
X86545771Y33123327D01*
X86483591Y33166865D01*
X86285359Y33259302D01*
X86285350Y33259306D01*
X86074094Y33315911D01*
X86074084Y33315913D01*
X85856201Y33334975D01*
X85856199Y33334975D01*
X85638315Y33315913D01*
X85638305Y33315911D01*
X85427049Y33259306D01*
X85427040Y33259302D01*
X85228814Y33166868D01*
X85228812Y33166867D01*
X85166628Y33123325D01*
X85166627Y33123325D01*
X85723666Y32566287D01*
X85713885Y32564880D01*
X85583100Y32505152D01*
X85474439Y32410998D01*
X85396707Y32290044D01*
X85373123Y32209725D01*
X84813075Y32769773D01*
X84813075Y32769772D01*
X84769533Y32707588D01*
X84769532Y32707586D01*
X84677098Y32509360D01*
X84677094Y32509351D01*
X84620489Y32298095D01*
X84620487Y32298085D01*
X84601425Y32080201D01*
X84601425Y32080200D01*
X82610975Y32080200D01*
X82610975Y32080201D01*
X82591912Y32298085D01*
X82591910Y32298095D01*
X82535305Y32509351D01*
X82535301Y32509360D01*
X82442868Y32707585D01*
X82399323Y32769772D01*
X81839276Y32209725D01*
X81815693Y32290044D01*
X81737961Y32410998D01*
X81629300Y32505152D01*
X81498515Y32564880D01*
X81488734Y32566287D01*
X82045772Y33123325D01*
X82045771Y33123327D01*
X81983591Y33166865D01*
X81785359Y33259302D01*
X81785350Y33259306D01*
X81574094Y33315911D01*
X81574084Y33315913D01*
X81356201Y33334975D01*
X81356199Y33334975D01*
X81138315Y33315913D01*
X81138305Y33315911D01*
X80927049Y33259306D01*
X80927040Y33259302D01*
X80728814Y33166868D01*
X80728812Y33166867D01*
X80666628Y33123325D01*
X80666627Y33123325D01*
X81223666Y32566287D01*
X81213885Y32564880D01*
X81083100Y32505152D01*
X80974439Y32410998D01*
X80896707Y32290044D01*
X80873123Y32209725D01*
X80313075Y32769773D01*
X80313075Y32769772D01*
X80269533Y32707588D01*
X80269532Y32707586D01*
X80177098Y32509360D01*
X80177094Y32509351D01*
X80120489Y32298095D01*
X80120487Y32298085D01*
X80101425Y32080201D01*
X80101425Y32080200D01*
X194475Y32080200D01*
X186269Y36779123D01*
X7935462Y36779123D01*
X7961168Y36577279D01*
X7961170Y36577271D01*
X8026983Y36384730D01*
X8026989Y36384718D01*
X8127362Y36214211D01*
X8130210Y36209373D01*
X8175088Y36159700D01*
X8266620Y36058388D01*
X8430628Y35937954D01*
X8430632Y35937952D01*
X8430633Y35937951D01*
X8615532Y35852995D01*
X8671866Y35839922D01*
X8813745Y35806997D01*
X9017158Y35801843D01*
X9017158Y35801844D01*
X9017163Y35801843D01*
X9196653Y35834014D01*
X9217448Y35837741D01*
X9217448Y35837742D01*
X9217453Y35837742D01*
X9406417Y35913223D01*
X9443938Y35937951D01*
X9576313Y36025194D01*
X9576313Y36025195D01*
X9576319Y36025198D01*
X9652154Y36101035D01*
X9690074Y36138954D01*
X9754652Y36200340D01*
X9754652Y36200341D01*
X9754653Y36200341D01*
X9789699Y36250694D01*
X9792538Y36254459D01*
X9814102Y36280905D01*
X9831298Y36301993D01*
X9847201Y36332440D01*
X9851274Y36339161D01*
X9865263Y36359260D01*
X9870895Y36367351D01*
X9895092Y36423740D01*
X9897098Y36427965D01*
X9925509Y36482351D01*
X9934960Y36515385D01*
X9937591Y36522772D01*
X9951140Y36554342D01*
X9963493Y36614460D01*
X9964606Y36618988D01*
X9981487Y36677982D01*
X9984095Y36712245D01*
X9985187Y36720024D01*
X9992100Y36753661D01*
X9992100Y36814999D01*
X9992279Y36819708D01*
X9996937Y36880874D01*
X9992597Y36914958D01*
X9992100Y36922797D01*
X9992100Y40961618D01*
X10011785Y41028657D01*
X10028419Y41049299D01*
X13408301Y44429181D01*
X13469624Y44462666D01*
X13495982Y44465500D01*
X24081582Y44465500D01*
X24148621Y44445815D01*
X24194376Y44393011D01*
X24204320Y44323853D01*
X24195534Y44292604D01*
X24194246Y44289602D01*
X24186459Y44271457D01*
X24174113Y44211381D01*
X24172990Y44206805D01*
X24156113Y44147823D01*
X24156113Y44147821D01*
X24153503Y44113559D01*
X24152414Y44105792D01*
X24148544Y44086953D01*
X24145500Y44072142D01*
X24145500Y44010803D01*
X24145321Y44006094D01*
X24140662Y43944926D01*
X24141666Y43937049D01*
X24145003Y43910840D01*
X24145500Y43903012D01*
X24145500Y37528517D01*
X24143243Y37439438D01*
X24143243Y37439430D01*
X24154064Y37379061D01*
X24154718Y37374396D01*
X24160925Y37313370D01*
X24160927Y37313356D01*
X24171208Y37280587D01*
X24173079Y37272963D01*
X24179142Y37239148D01*
X24179142Y37239145D01*
X24201894Y37182188D01*
X24203474Y37177749D01*
X24221841Y37119212D01*
X24221844Y37119205D01*
X24238509Y37089181D01*
X24241879Y37082086D01*
X24254622Y37050186D01*
X24254627Y37050176D01*
X24288377Y36998967D01*
X24290818Y36994937D01*
X24320588Y36941302D01*
X24320589Y36941301D01*
X24320591Y36941298D01*
X24342968Y36915233D01*
X24347693Y36908965D01*
X24360263Y36889894D01*
X24366598Y36880281D01*
X24409978Y36836901D01*
X24413169Y36833457D01*
X24453131Y36786908D01*
X24453130Y36786908D01*
X24480299Y36765877D01*
X24486186Y36760693D01*
X26785820Y34461060D01*
X26903993Y34364702D01*
X27084351Y34270491D01*
X27279982Y34214514D01*
X27468517Y34200157D01*
X27482875Y34199063D01*
X27482876Y34199063D01*
X27684721Y34224769D01*
X27684721Y34224770D01*
X27684728Y34224770D01*
X27877272Y34290584D01*
X28052627Y34393810D01*
X28203613Y34530221D01*
X28324049Y34694233D01*
X28409005Y34879132D01*
X28455002Y35077347D01*
X28460156Y35280763D01*
X28424258Y35481053D01*
X28348777Y35670017D01*
X28348772Y35670024D01*
X28348770Y35670029D01*
X28236803Y35839918D01*
X28236800Y35839922D01*
X26182819Y37893903D01*
X26149334Y37955226D01*
X26146500Y37981584D01*
X26146500Y43504618D01*
X26166185Y43571657D01*
X26182814Y43592295D01*
X27320505Y44729986D01*
X27323937Y44733167D01*
X27370495Y44773134D01*
X27391531Y44800312D01*
X27396701Y44806182D01*
X27987902Y45397381D01*
X28049225Y45430866D01*
X28075583Y45433700D01*
X43868818Y45433700D01*
X43935857Y45414015D01*
X43981612Y45361211D01*
X43991556Y45292053D01*
X43962531Y45228497D01*
X43956499Y45222019D01*
X43014932Y44280454D01*
X42950346Y44219058D01*
X42915299Y44168706D01*
X42912462Y44164944D01*
X42873702Y44117408D01*
X42873699Y44117403D01*
X42857792Y44086953D01*
X42853724Y44080239D01*
X42834102Y44052046D01*
X42809909Y43995670D01*
X42807888Y43991416D01*
X42779491Y43937049D01*
X42779490Y43937048D01*
X42770040Y43904025D01*
X42767407Y43896629D01*
X42753859Y43865057D01*
X42741513Y43804981D01*
X42740390Y43800405D01*
X42723513Y43741423D01*
X42723513Y43741421D01*
X42720903Y43707159D01*
X42719814Y43699392D01*
X42716899Y43685202D01*
X42712900Y43665742D01*
X42712900Y43604403D01*
X42712721Y43599694D01*
X42708062Y43538526D01*
X42710107Y43522473D01*
X42712403Y43504440D01*
X42712900Y43496612D01*
X42712900Y38442917D01*
X42710643Y38353838D01*
X42710643Y38353830D01*
X42721464Y38293461D01*
X42722118Y38288796D01*
X42728325Y38227770D01*
X42728327Y38227756D01*
X42738608Y38194987D01*
X42740479Y38187363D01*
X42746542Y38153548D01*
X42746542Y38153545D01*
X42769294Y38096588D01*
X42770874Y38092149D01*
X42789241Y38033612D01*
X42789244Y38033605D01*
X42805909Y38003581D01*
X42809279Y37996486D01*
X42822022Y37964586D01*
X42822027Y37964576D01*
X42855777Y37913367D01*
X42858218Y37909337D01*
X42887988Y37855702D01*
X42887989Y37855701D01*
X42887991Y37855698D01*
X42910368Y37829633D01*
X42915093Y37823365D01*
X42927663Y37804294D01*
X42933998Y37794681D01*
X42977378Y37751301D01*
X42980569Y37747857D01*
X43020531Y37701308D01*
X43020530Y37701308D01*
X43047699Y37680277D01*
X43053586Y37675093D01*
X44266948Y36461732D01*
X44328341Y36397147D01*
X44328344Y36397145D01*
X44328347Y36397142D01*
X44346181Y36384730D01*
X44378703Y36362094D01*
X44382444Y36359274D01*
X44429993Y36320502D01*
X44460445Y36304596D01*
X44467156Y36300529D01*
X44495351Y36280905D01*
X44551732Y36256710D01*
X44555967Y36254699D01*
X44610351Y36226291D01*
X44643373Y36216844D01*
X44650765Y36214211D01*
X44682340Y36200661D01*
X44682341Y36200660D01*
X44695454Y36197966D01*
X44742455Y36188308D01*
X44746995Y36187194D01*
X44805982Y36170314D01*
X44840241Y36167706D01*
X44848009Y36166615D01*
X44881655Y36159700D01*
X44881659Y36159700D01*
X44943001Y36159700D01*
X44947708Y36159522D01*
X44984051Y36156754D01*
X45008875Y36154863D01*
X45008875Y36154864D01*
X45008876Y36154863D01*
X45042959Y36159204D01*
X45050789Y36159700D01*
X45897743Y36159700D01*
X46049439Y36175126D01*
X46243579Y36236038D01*
X46243580Y36236039D01*
X46243588Y36236041D01*
X46421502Y36334791D01*
X46575895Y36467334D01*
X46700448Y36628242D01*
X46790060Y36810929D01*
X46841063Y37007915D01*
X46851369Y37211136D01*
X46820556Y37412271D01*
X46777504Y37528517D01*
X46749888Y37603082D01*
X46749887Y37603083D01*
X46749886Y37603087D01*
X46657496Y37751314D01*
X46642254Y37775768D01*
X46642250Y37775773D01*
X46624277Y37794680D01*
X46502059Y37923253D01*
X46396842Y37996486D01*
X46335050Y38039495D01*
X46148056Y38119741D01*
X45948741Y38160700D01*
X45449183Y38160700D01*
X45382144Y38180385D01*
X45361502Y38197019D01*
X44750219Y38808302D01*
X44716734Y38869625D01*
X44713900Y38895983D01*
X44713900Y43098217D01*
X44733585Y43165256D01*
X44750219Y43185898D01*
X46961702Y45397381D01*
X47023025Y45430866D01*
X47049383Y45433700D01*
X56525730Y45433700D01*
X56592769Y45414015D01*
X56622677Y45387013D01*
X56766942Y45206111D01*
X56883067Y45098364D01*
X56964759Y45022565D01*
X56964762Y45022563D01*
X57035851Y44974096D01*
X57080153Y44920067D01*
X57090000Y44871642D01*
X57090000Y42684017D01*
X57087743Y42594938D01*
X57087743Y42594930D01*
X57098564Y42534561D01*
X57099218Y42529896D01*
X57105425Y42468870D01*
X57105427Y42468856D01*
X57115708Y42436087D01*
X57117579Y42428463D01*
X57123642Y42394648D01*
X57123642Y42394645D01*
X57146394Y42337688D01*
X57147974Y42333249D01*
X57166341Y42274712D01*
X57166344Y42274705D01*
X57183009Y42244681D01*
X57186379Y42237586D01*
X57199122Y42205686D01*
X57199127Y42205676D01*
X57232877Y42154467D01*
X57235318Y42150437D01*
X57265088Y42096802D01*
X57265089Y42096801D01*
X57265091Y42096798D01*
X57287468Y42070733D01*
X57292193Y42064465D01*
X57298579Y42054776D01*
X57311098Y42035781D01*
X57354478Y41992401D01*
X57357669Y41988957D01*
X57397631Y41942408D01*
X57397634Y41942405D01*
X57424794Y41921382D01*
X57430690Y41916189D01*
X63082420Y36264459D01*
X63200593Y36168102D01*
X63380951Y36073890D01*
X63576582Y36017913D01*
X63644213Y36012763D01*
X63779475Y36002463D01*
X63779477Y36002463D01*
X63779478Y36002463D01*
X63981321Y36028169D01*
X63981321Y36028170D01*
X63981328Y36028170D01*
X64173873Y36093984D01*
X64349227Y36197209D01*
X64500214Y36333621D01*
X64587029Y36451849D01*
X64620647Y36497628D01*
X64620654Y36497640D01*
X64703516Y36677982D01*
X64705606Y36682531D01*
X64714307Y36720024D01*
X64751603Y36880746D01*
X64752477Y36915239D01*
X64756757Y37084163D01*
X64733793Y37212285D01*
X64720860Y37284449D01*
X64720858Y37284455D01*
X64645380Y37473413D01*
X64645374Y37473423D01*
X64533402Y37643319D01*
X63596521Y38580200D01*
X80100923Y38580200D01*
X80118595Y38378198D01*
X80119993Y38362225D01*
X80119993Y38362221D01*
X80176622Y38150878D01*
X80176624Y38150874D01*
X80176625Y38150870D01*
X80212972Y38072924D01*
X80269097Y37952562D01*
X80269098Y37952561D01*
X80394602Y37773323D01*
X80549323Y37618602D01*
X80728561Y37493098D01*
X80926870Y37400625D01*
X81138223Y37343993D01*
X81321126Y37327992D01*
X81356198Y37324923D01*
X81356200Y37324923D01*
X81356202Y37324923D01*
X81384454Y37327395D01*
X81574177Y37343993D01*
X81785530Y37400625D01*
X81983839Y37493098D01*
X82163077Y37618602D01*
X82317798Y37773323D01*
X82443302Y37952561D01*
X82535775Y38150870D01*
X82592407Y38362223D01*
X82611477Y38580200D01*
X84600923Y38580200D01*
X84618595Y38378198D01*
X84619993Y38362225D01*
X84619993Y38362221D01*
X84676622Y38150878D01*
X84676624Y38150874D01*
X84676625Y38150870D01*
X84712972Y38072924D01*
X84769097Y37952562D01*
X84769098Y37952561D01*
X84894602Y37773323D01*
X85049323Y37618602D01*
X85228561Y37493098D01*
X85426870Y37400625D01*
X85638223Y37343993D01*
X85821126Y37327992D01*
X85856198Y37324923D01*
X85856200Y37324923D01*
X85856202Y37324923D01*
X85884454Y37327395D01*
X86074177Y37343993D01*
X86285530Y37400625D01*
X86483839Y37493098D01*
X86663077Y37618602D01*
X86817798Y37773323D01*
X86943302Y37952561D01*
X87035775Y38150870D01*
X87092407Y38362223D01*
X87093805Y38378198D01*
X89331723Y38378198D01*
X89350793Y38160225D01*
X89350793Y38160221D01*
X89407422Y37948878D01*
X89407424Y37948874D01*
X89407425Y37948870D01*
X89450870Y37855702D01*
X89499897Y37750562D01*
X89499898Y37750561D01*
X89625402Y37571323D01*
X89780123Y37416602D01*
X89959361Y37291098D01*
X90157670Y37198625D01*
X90369023Y37141993D01*
X90551926Y37125992D01*
X90586998Y37122923D01*
X90587000Y37122923D01*
X90587002Y37122923D01*
X90615254Y37125395D01*
X90804977Y37141993D01*
X91016330Y37198625D01*
X91214639Y37291098D01*
X91393877Y37416602D01*
X91548598Y37571323D01*
X91674102Y37750561D01*
X91766575Y37948870D01*
X91823207Y38160223D01*
X91842277Y38378198D01*
X93831723Y38378198D01*
X93850793Y38160225D01*
X93850793Y38160221D01*
X93907422Y37948878D01*
X93907424Y37948874D01*
X93907425Y37948870D01*
X93950870Y37855702D01*
X93999897Y37750562D01*
X93999898Y37750561D01*
X94125402Y37571323D01*
X94280123Y37416602D01*
X94459361Y37291098D01*
X94657670Y37198625D01*
X94869023Y37141993D01*
X95051926Y37125992D01*
X95086998Y37122923D01*
X95087000Y37122923D01*
X95087002Y37122923D01*
X95115254Y37125395D01*
X95304977Y37141993D01*
X95516330Y37198625D01*
X95714639Y37291098D01*
X95893877Y37416602D01*
X96048598Y37571323D01*
X96174102Y37750561D01*
X96266575Y37948870D01*
X96299817Y38072930D01*
X108613300Y38072930D01*
X108613301Y38072924D01*
X108619708Y38013317D01*
X108670002Y37878472D01*
X108670006Y37878465D01*
X108756252Y37763256D01*
X108756255Y37763253D01*
X108871464Y37677007D01*
X108871471Y37677003D01*
X109006317Y37626709D01*
X109006316Y37626709D01*
X109013244Y37625965D01*
X109065927Y37620300D01*
X111761672Y37620301D01*
X111821283Y37626709D01*
X111956131Y37677004D01*
X112071346Y37763254D01*
X112157596Y37878469D01*
X112207891Y38013317D01*
X112214300Y38072927D01*
X112214299Y40768672D01*
X112207891Y40828283D01*
X112202521Y40842680D01*
X112157597Y40963129D01*
X112157593Y40963136D01*
X112071347Y41078345D01*
X112071344Y41078348D01*
X111956135Y41164594D01*
X111956128Y41164598D01*
X111821282Y41214892D01*
X111821283Y41214892D01*
X111761683Y41221299D01*
X111761681Y41221300D01*
X111761673Y41221300D01*
X111761664Y41221300D01*
X109065929Y41221300D01*
X109065923Y41221299D01*
X109006316Y41214892D01*
X108871471Y41164598D01*
X108871464Y41164594D01*
X108756255Y41078348D01*
X108756252Y41078345D01*
X108670006Y40963136D01*
X108670002Y40963129D01*
X108619708Y40828283D01*
X108613301Y40768684D01*
X108613301Y40768677D01*
X108613300Y40768665D01*
X108613300Y38072930D01*
X96299817Y38072930D01*
X96323207Y38160223D01*
X96342277Y38378200D01*
X96323207Y38596177D01*
X96288548Y38725525D01*
X96266577Y38807523D01*
X96266576Y38807524D01*
X96266575Y38807530D01*
X96174102Y39005838D01*
X96174100Y39005841D01*
X96174099Y39005843D01*
X96048599Y39185076D01*
X96025832Y39207843D01*
X95893877Y39339798D01*
X95714639Y39465302D01*
X95714640Y39465302D01*
X95714638Y39465303D01*
X95615484Y39511539D01*
X95516330Y39557775D01*
X95516326Y39557776D01*
X95516322Y39557778D01*
X95304977Y39614407D01*
X95087002Y39633477D01*
X95086998Y39633477D01*
X94941682Y39620764D01*
X94869023Y39614407D01*
X94869020Y39614407D01*
X94657677Y39557778D01*
X94657668Y39557774D01*
X94459361Y39465302D01*
X94459357Y39465300D01*
X94280121Y39339798D01*
X94125402Y39185079D01*
X93999900Y39005843D01*
X93999898Y39005839D01*
X93907426Y38807532D01*
X93907422Y38807523D01*
X93850793Y38596180D01*
X93850793Y38596177D01*
X93849395Y38580200D01*
X93831723Y38378203D01*
X93831723Y38378198D01*
X91842277Y38378198D01*
X91842277Y38378200D01*
X91823207Y38596177D01*
X91788548Y38725525D01*
X91766577Y38807523D01*
X91766576Y38807524D01*
X91766575Y38807530D01*
X91674102Y39005838D01*
X91674100Y39005841D01*
X91674099Y39005843D01*
X91548599Y39185076D01*
X91525832Y39207843D01*
X91393877Y39339798D01*
X91214639Y39465302D01*
X91214640Y39465302D01*
X91214638Y39465303D01*
X91115484Y39511539D01*
X91016330Y39557775D01*
X91016326Y39557776D01*
X91016322Y39557778D01*
X90804977Y39614407D01*
X90587002Y39633477D01*
X90586998Y39633477D01*
X90441682Y39620764D01*
X90369023Y39614407D01*
X90369020Y39614407D01*
X90157677Y39557778D01*
X90157668Y39557774D01*
X89959361Y39465302D01*
X89959357Y39465300D01*
X89780121Y39339798D01*
X89625402Y39185079D01*
X89499900Y39005843D01*
X89499898Y39005839D01*
X89407426Y38807532D01*
X89407422Y38807523D01*
X89350793Y38596180D01*
X89350793Y38596177D01*
X89349395Y38580200D01*
X89331723Y38378203D01*
X89331723Y38378198D01*
X87093805Y38378198D01*
X87111477Y38580200D01*
X87092407Y38798177D01*
X87035775Y39009530D01*
X86943302Y39207838D01*
X86943300Y39207841D01*
X86943299Y39207843D01*
X86817799Y39387076D01*
X86817796Y39387079D01*
X86663077Y39541798D01*
X86483839Y39667302D01*
X86483840Y39667302D01*
X86483838Y39667303D01*
X86384684Y39713539D01*
X86285530Y39759775D01*
X86285526Y39759776D01*
X86285522Y39759778D01*
X86074177Y39816407D01*
X85856202Y39835477D01*
X85856198Y39835477D01*
X85710882Y39822764D01*
X85638223Y39816407D01*
X85638220Y39816407D01*
X85426877Y39759778D01*
X85426868Y39759774D01*
X85228561Y39667302D01*
X85228557Y39667300D01*
X85049321Y39541798D01*
X84894602Y39387079D01*
X84769100Y39207843D01*
X84769098Y39207839D01*
X84676626Y39009532D01*
X84676622Y39009523D01*
X84619993Y38798180D01*
X84619993Y38798176D01*
X84602321Y38596176D01*
X84600923Y38580200D01*
X82611477Y38580200D01*
X82592407Y38798177D01*
X82535775Y39009530D01*
X82443302Y39207838D01*
X82443300Y39207841D01*
X82443299Y39207843D01*
X82317799Y39387076D01*
X82317796Y39387079D01*
X82163077Y39541798D01*
X81983839Y39667302D01*
X81983840Y39667302D01*
X81983838Y39667303D01*
X81884684Y39713539D01*
X81785530Y39759775D01*
X81785526Y39759776D01*
X81785522Y39759778D01*
X81574177Y39816407D01*
X81356202Y39835477D01*
X81356198Y39835477D01*
X81210882Y39822764D01*
X81138223Y39816407D01*
X81138220Y39816407D01*
X80926877Y39759778D01*
X80926868Y39759774D01*
X80728561Y39667302D01*
X80728557Y39667300D01*
X80549321Y39541798D01*
X80394602Y39387079D01*
X80269100Y39207843D01*
X80269098Y39207839D01*
X80176626Y39009532D01*
X80176622Y39009523D01*
X80119993Y38798180D01*
X80119993Y38798176D01*
X80102321Y38596176D01*
X80100923Y38580200D01*
X63596521Y38580200D01*
X59127319Y43049402D01*
X59093834Y43110725D01*
X59091000Y43137083D01*
X59091000Y44871641D01*
X59110685Y44938680D01*
X59145148Y44974094D01*
X59175390Y44994714D01*
X59216241Y45022565D01*
X59414061Y45206115D01*
X59582315Y45417098D01*
X59717243Y45650802D01*
X59815834Y45902005D01*
X59875883Y46165097D01*
X59891247Y46370121D01*
X59896049Y46434196D01*
X59896049Y46434205D01*
X59875883Y46703302D01*
X59815835Y46966389D01*
X59815834Y46966395D01*
X59717243Y47217598D01*
X59582315Y47451302D01*
X59414061Y47662285D01*
X59414060Y47662286D01*
X59414057Y47662290D01*
X59216241Y47845835D01*
X58993275Y47997851D01*
X58993269Y47997854D01*
X58993268Y47997855D01*
X58993267Y47997856D01*
X58750143Y48114937D01*
X58750145Y48114937D01*
X58492273Y48194480D01*
X58492267Y48194482D01*
X58225436Y48234700D01*
X58225429Y48234700D01*
X57955571Y48234700D01*
X57955563Y48234700D01*
X57688732Y48194482D01*
X57688726Y48194480D01*
X57430858Y48114938D01*
X57187730Y47997854D01*
X56964758Y47845835D01*
X56766942Y47662290D01*
X56622677Y47481387D01*
X56565488Y47441247D01*
X56525730Y47434700D01*
X46596316Y47434700D01*
X46507240Y47436958D01*
X46507238Y47436958D01*
X46505495Y47436645D01*
X46483621Y47434700D01*
X27622476Y47434700D01*
X27545710Y47436645D01*
X27533436Y47436956D01*
X27533435Y47436956D01*
X27533426Y47436956D01*
X27473063Y47426136D01*
X27468397Y47425482D01*
X27407364Y47419275D01*
X27374580Y47408990D01*
X27366953Y47407118D01*
X27333149Y47401059D01*
X27276181Y47378305D01*
X27271745Y47376726D01*
X27213214Y47358360D01*
X27213210Y47358358D01*
X27183178Y47341690D01*
X27176084Y47338321D01*
X27144182Y47325577D01*
X27144177Y47325575D01*
X27092956Y47291819D01*
X27088928Y47289378D01*
X27035301Y47259612D01*
X27009234Y47237235D01*
X27002965Y47232508D01*
X26974284Y47213605D01*
X26974278Y47213600D01*
X26930909Y47170232D01*
X26927455Y47167031D01*
X26880904Y47127066D01*
X26859875Y47099900D01*
X26854684Y47094007D01*
X26263498Y46502819D01*
X26202175Y46469334D01*
X26175817Y46466500D01*
X13042917Y46466500D01*
X12953837Y46468757D01*
X12953828Y46468757D01*
X12900836Y46459259D01*
X12893454Y46457936D01*
X12888795Y46457282D01*
X12827764Y46451075D01*
X12827762Y46451074D01*
X12794980Y46440790D01*
X12787356Y46438919D01*
X12779508Y46437512D01*
X12753549Y46432859D01*
X12696581Y46410105D01*
X12692145Y46408526D01*
X12633614Y46390160D01*
X12633610Y46390158D01*
X12603578Y46373490D01*
X12596484Y46370121D01*
X12564582Y46357377D01*
X12564577Y46357375D01*
X12513356Y46323619D01*
X12509328Y46321178D01*
X12455701Y46291412D01*
X12429634Y46269035D01*
X12423365Y46264308D01*
X12394684Y46245405D01*
X12394678Y46245400D01*
X12351309Y46202032D01*
X12347855Y46198831D01*
X12301302Y46158864D01*
X12280276Y46131702D01*
X12275085Y46125808D01*
X8293132Y42143854D01*
X8228546Y42082458D01*
X8193499Y42032106D01*
X8190662Y42028344D01*
X8151902Y41980808D01*
X8151899Y41980803D01*
X8135992Y41950353D01*
X8131924Y41943639D01*
X8112302Y41915446D01*
X8088109Y41859070D01*
X8086088Y41854816D01*
X8057691Y41800449D01*
X8057690Y41800448D01*
X8048240Y41767425D01*
X8045607Y41760029D01*
X8032059Y41728457D01*
X8019713Y41668381D01*
X8018590Y41663805D01*
X8001713Y41604823D01*
X8001713Y41604821D01*
X7999103Y41570559D01*
X7998014Y41562792D01*
X7992580Y41536348D01*
X7991100Y41529142D01*
X7991100Y41467803D01*
X7990921Y41463094D01*
X7986262Y41401926D01*
X7988307Y41385873D01*
X7990603Y41367840D01*
X7991100Y41360012D01*
X7991100Y37139856D01*
X7986316Y37105744D01*
X7950912Y36982016D01*
X7935462Y36779126D01*
X7935462Y36779123D01*
X186269Y36779123D01*
X164461Y49266162D01*
X2898100Y49266162D01*
X2908766Y49162870D01*
X2908769Y49162854D01*
X2919122Y49113257D01*
X2919126Y49113245D01*
X2939575Y49049120D01*
X2950674Y49014317D01*
X2950675Y49014315D01*
X2950677Y49014311D01*
X3026413Y48891991D01*
X3026418Y48891985D01*
X3071268Y48838433D01*
X3071272Y48838429D01*
X3071278Y48838422D01*
X3159111Y48759692D01*
X3178419Y48742385D01*
X3584834Y48471442D01*
X3855779Y48290812D01*
X3859353Y48288474D01*
X3862808Y48286233D01*
X3993685Y48226462D01*
X4036457Y48213903D01*
X4060719Y48206778D01*
X4060724Y48206777D01*
X4060728Y48206776D01*
X4203144Y48186300D01*
X4203147Y48186300D01*
X19122330Y48186300D01*
X19152940Y48189865D01*
X19238469Y48199823D01*
X19293923Y48212914D01*
X19403848Y48252758D01*
X19817120Y48459394D01*
X19928769Y48535391D01*
X19977630Y48579261D01*
X20065167Y48682100D01*
X20124938Y48812977D01*
X20144623Y48880016D01*
X20144624Y48880020D01*
X20165100Y49022436D01*
X20165100Y53085842D01*
X72784242Y53085842D01*
X72820140Y52885552D01*
X72820142Y52885547D01*
X72861781Y52781304D01*
X72895623Y52696584D01*
X72895629Y52696572D01*
X73007596Y52526683D01*
X73007599Y52526679D01*
X75290181Y50244098D01*
X75323666Y50182775D01*
X75326500Y50156417D01*
X75326500Y41490917D01*
X75324243Y41401838D01*
X75324243Y41401830D01*
X75335064Y41341461D01*
X75335718Y41336796D01*
X75341925Y41275770D01*
X75341927Y41275756D01*
X75352208Y41242987D01*
X75354079Y41235363D01*
X75360142Y41201548D01*
X75360142Y41201545D01*
X75382894Y41144588D01*
X75384474Y41140149D01*
X75402841Y41081612D01*
X75402844Y41081605D01*
X75419509Y41051581D01*
X75422879Y41044486D01*
X75435464Y41012980D01*
X75435622Y41012586D01*
X75435627Y41012576D01*
X75450407Y40990151D01*
X75469211Y40961618D01*
X75469377Y40961367D01*
X75471818Y40957337D01*
X75501588Y40903702D01*
X75501589Y40903701D01*
X75501591Y40903698D01*
X75523968Y40877633D01*
X75528693Y40871365D01*
X75547599Y40842680D01*
X75547600Y40842678D01*
X75590965Y40799313D01*
X75594168Y40795857D01*
X75634135Y40749304D01*
X75661300Y40728276D01*
X75667187Y40723092D01*
X75796306Y40593973D01*
X75798451Y40591716D01*
X75813270Y40575314D01*
X75848621Y40536187D01*
X75908941Y40491893D01*
X75911360Y40490022D01*
X75969393Y40442702D01*
X75969395Y40442701D01*
X75983666Y40435247D01*
X75999652Y40425283D01*
X76012630Y40415753D01*
X76012634Y40415750D01*
X76050944Y40398148D01*
X76080621Y40384513D01*
X76083429Y40383135D01*
X76149750Y40348491D01*
X76165236Y40344060D01*
X76182897Y40337520D01*
X76197532Y40330795D01*
X76270416Y40313882D01*
X76273450Y40313096D01*
X76345378Y40292514D01*
X76345382Y40292513D01*
X76361441Y40291291D01*
X76380048Y40288441D01*
X76395746Y40284797D01*
X76470552Y40282902D01*
X76473684Y40282744D01*
X76548276Y40277063D01*
X76564244Y40279098D01*
X76583056Y40280052D01*
X76597527Y40279685D01*
X76599160Y40279643D01*
X76599160Y40279644D01*
X76599163Y40279643D01*
X76672800Y40292843D01*
X76675906Y40293318D01*
X76678806Y40293688D01*
X76750128Y40302770D01*
X76765367Y40307980D01*
X76783602Y40312702D01*
X76799453Y40315542D01*
X76868938Y40343299D01*
X76871847Y40344376D01*
X76942672Y40368584D01*
X76956559Y40376760D01*
X76973458Y40385049D01*
X76988417Y40391023D01*
X77050908Y40432210D01*
X77053534Y40433846D01*
X77118027Y40471810D01*
X77129979Y40482611D01*
X77144868Y40494135D01*
X77158319Y40502998D01*
X77211263Y40555944D01*
X77213490Y40558060D01*
X77269013Y40608221D01*
X77278545Y40621204D01*
X77290805Y40635487D01*
X79128701Y42473381D01*
X79190024Y42506866D01*
X79216382Y42509700D01*
X98467217Y42509700D01*
X98534256Y42490015D01*
X98554898Y42473381D01*
X98912181Y42116099D01*
X98945666Y42054776D01*
X98948500Y42028418D01*
X98948500Y41427457D01*
X98963925Y41275761D01*
X99024837Y41081621D01*
X99024844Y41081606D01*
X99123589Y40903701D01*
X99123592Y40903696D01*
X99256132Y40749307D01*
X99256134Y40749305D01*
X99417037Y40624755D01*
X99417038Y40624755D01*
X99417042Y40624752D01*
X99599729Y40535140D01*
X99796715Y40484137D01*
X99999936Y40473831D01*
X100201071Y40504644D01*
X100391887Y40575314D01*
X100564571Y40682948D01*
X100712053Y40823141D01*
X100828295Y40990151D01*
X100908540Y41177142D01*
X100949500Y41376459D01*
X100949500Y42481485D01*
X100951757Y42570563D01*
X100940933Y42630951D01*
X100940280Y42635613D01*
X100934074Y42696637D01*
X100934074Y42696638D01*
X100923784Y42729432D01*
X100921917Y42737045D01*
X100915858Y42770853D01*
X100915857Y42770855D01*
X100893102Y42827821D01*
X100891521Y42832262D01*
X100873157Y42890793D01*
X100856488Y42920822D01*
X100853117Y42927922D01*
X100840378Y42959814D01*
X100840377Y42959817D01*
X100806620Y43011037D01*
X100804180Y43015066D01*
X100785121Y43049402D01*
X100774409Y43068702D01*
X100759799Y43085720D01*
X100752033Y43094767D01*
X100747301Y43101042D01*
X100728402Y43129719D01*
X100685013Y43173107D01*
X100681823Y43176550D01*
X100673798Y43185898D01*
X100641866Y43223095D01*
X100641861Y43223099D01*
X100614698Y43244126D01*
X100608803Y43249318D01*
X99649451Y44208669D01*
X99588061Y44273251D01*
X99588060Y44273252D01*
X99588059Y44273253D01*
X99540085Y44306644D01*
X99537709Y44308298D01*
X99533946Y44311136D01*
X99486413Y44349895D01*
X99486406Y44349900D01*
X99455959Y44365803D01*
X99449251Y44369866D01*
X99421049Y44389495D01*
X99421046Y44389497D01*
X99421045Y44389497D01*
X99421041Y44389499D01*
X99364680Y44413686D01*
X99360424Y44415707D01*
X99306057Y44444106D01*
X99306050Y44444109D01*
X99306049Y44444109D01*
X99300008Y44445838D01*
X99273030Y44453558D01*
X99265630Y44456192D01*
X99234057Y44469741D01*
X99234058Y44469741D01*
X99173966Y44482091D01*
X99169391Y44483214D01*
X99110420Y44500087D01*
X99110425Y44500087D01*
X99076158Y44502697D01*
X99068380Y44503788D01*
X99034742Y44510700D01*
X99034741Y44510700D01*
X98973402Y44510700D01*
X98968695Y44510879D01*
X98963121Y44511304D01*
X98907524Y44515538D01*
X98887589Y44512999D01*
X98873440Y44511197D01*
X98865611Y44510700D01*
X78763317Y44510700D01*
X78674237Y44512957D01*
X78674228Y44512957D01*
X78623076Y44503788D01*
X78613854Y44502136D01*
X78609195Y44501482D01*
X78548164Y44495275D01*
X78548162Y44495274D01*
X78515380Y44484990D01*
X78507756Y44483119D01*
X78504657Y44482563D01*
X78473949Y44477059D01*
X78416981Y44454305D01*
X78412545Y44452726D01*
X78354014Y44434360D01*
X78354010Y44434358D01*
X78323978Y44417690D01*
X78316884Y44414321D01*
X78284982Y44401577D01*
X78284977Y44401575D01*
X78233756Y44367819D01*
X78229728Y44365378D01*
X78176101Y44335612D01*
X78150034Y44313235D01*
X78143765Y44308508D01*
X78115084Y44289605D01*
X78115078Y44289600D01*
X78071709Y44246232D01*
X78068255Y44243031D01*
X78021704Y44203066D01*
X78000675Y44175900D01*
X77995484Y44170007D01*
X77539181Y43713703D01*
X77477858Y43680218D01*
X77408167Y43685202D01*
X77352233Y43727073D01*
X77327816Y43792538D01*
X77327500Y43801384D01*
X77327500Y50609525D01*
X77329756Y50698558D01*
X77329755Y50698559D01*
X77329756Y50698564D01*
X77318929Y50758967D01*
X77318282Y50763580D01*
X77312074Y50824638D01*
X77312073Y50824640D01*
X77312073Y50824643D01*
X77301790Y50857413D01*
X77299917Y50865046D01*
X77293858Y50898852D01*
X77271102Y50955822D01*
X77269521Y50960263D01*
X77251157Y51018793D01*
X77234488Y51048822D01*
X77231117Y51055922D01*
X77218378Y51087814D01*
X77218377Y51087817D01*
X77184620Y51139037D01*
X77182180Y51143066D01*
X77171379Y51162525D01*
X77152409Y51196702D01*
X77152407Y51196705D01*
X77130033Y51222766D01*
X77125302Y51229041D01*
X77106402Y51257719D01*
X77063012Y51301109D01*
X77059822Y51304552D01*
X77027162Y51342596D01*
X108761153Y51342596D01*
X108781313Y51073574D01*
X108781313Y51073572D01*
X108841342Y50810567D01*
X108841348Y50810548D01*
X108939909Y50559419D01*
X108939908Y50559419D01*
X109074802Y50325778D01*
X109128494Y50258449D01*
X109128495Y50258449D01*
X109926059Y51056014D01*
X109985880Y50942034D01*
X110098605Y50814794D01*
X110238505Y50718229D01*
X110279741Y50702590D01*
X109481048Y49903898D01*
X109663683Y49779380D01*
X109663685Y49779379D01*
X109906739Y49662331D01*
X109906737Y49662331D01*
X110164537Y49582810D01*
X110164543Y49582808D01*
X110431301Y49542601D01*
X110431310Y49542600D01*
X110701090Y49542600D01*
X110701098Y49542601D01*
X110967856Y49582808D01*
X110967862Y49582810D01*
X111225661Y49662331D01*
X111468721Y49779382D01*
X111651350Y49903898D01*
X110852657Y50702590D01*
X110893895Y50718229D01*
X111033795Y50814794D01*
X111146520Y50942034D01*
X111206339Y51056013D01*
X112003903Y50258449D01*
X112003904Y50258450D01*
X112057593Y50325772D01*
X112057600Y50325783D01*
X112192490Y50559419D01*
X112291051Y50810548D01*
X112291057Y50810567D01*
X112351086Y51073572D01*
X112351086Y51073574D01*
X112371247Y51342596D01*
X112371247Y51342605D01*
X112351086Y51611627D01*
X112351086Y51611629D01*
X112291057Y51874634D01*
X112291051Y51874653D01*
X112192490Y52125782D01*
X112192491Y52125782D01*
X112057597Y52359423D01*
X112003904Y52426753D01*
X111206339Y51629188D01*
X111146520Y51743166D01*
X111033795Y51870406D01*
X110893895Y51966971D01*
X110852657Y51982611D01*
X111651350Y52781304D01*
X111468717Y52905821D01*
X111468716Y52905822D01*
X111225660Y53022870D01*
X111225662Y53022870D01*
X110967862Y53102391D01*
X110967856Y53102393D01*
X110701098Y53142600D01*
X110431301Y53142600D01*
X110164543Y53102393D01*
X110164537Y53102391D01*
X109906738Y53022870D01*
X109663685Y52905822D01*
X109663676Y52905817D01*
X109481048Y52781304D01*
X110279742Y51982611D01*
X110238505Y51966971D01*
X110098605Y51870406D01*
X109985880Y51743166D01*
X109926060Y51629188D01*
X109128495Y52426752D01*
X109074800Y52359420D01*
X108939909Y52125782D01*
X108841348Y51874653D01*
X108841342Y51874634D01*
X108781313Y51611629D01*
X108781313Y51611627D01*
X108761153Y51342605D01*
X108761153Y51342596D01*
X77027162Y51342596D01*
X77019867Y51351094D01*
X77019863Y51351098D01*
X76992698Y51372126D01*
X76986811Y51377310D01*
X74458580Y53905540D01*
X74340407Y54001898D01*
X74160049Y54096109D01*
X73964418Y54152087D01*
X73964417Y54152088D01*
X73964416Y54152088D01*
X73761525Y54167538D01*
X73761522Y54167538D01*
X73559678Y54141832D01*
X73559670Y54141830D01*
X73367129Y54076017D01*
X73367117Y54076011D01*
X73191778Y53972794D01*
X73191771Y53972789D01*
X73040787Y53836380D01*
X73040787Y53836379D01*
X72920353Y53672372D01*
X72920349Y53672365D01*
X72835397Y53487475D01*
X72835393Y53487463D01*
X72789396Y53289255D01*
X72784242Y53085842D01*
X20165100Y53085842D01*
X20165100Y55516255D01*
X20164799Y55528526D01*
X20164343Y55540927D01*
X20136909Y55682168D01*
X20113961Y55748162D01*
X20047845Y55875952D01*
X19473032Y56680690D01*
X19473029Y56680694D01*
X19410258Y56752976D01*
X19410255Y56752979D01*
X19410252Y56752982D01*
X19376388Y56785223D01*
X19376373Y56785235D01*
X19301129Y56844363D01*
X19301124Y56844366D01*
X19301123Y56844367D01*
X19191121Y56894605D01*
X19138319Y56940360D01*
X19118635Y57007400D01*
X19138320Y57074439D01*
X19191125Y57120193D01*
X19228292Y57130566D01*
X19314669Y57140623D01*
X19370123Y57153714D01*
X19480048Y57193558D01*
X19893320Y57400194D01*
X20004969Y57476191D01*
X20025617Y57494730D01*
X108765700Y57494730D01*
X108765701Y57494724D01*
X108772108Y57435117D01*
X108822402Y57300272D01*
X108822406Y57300265D01*
X108908652Y57185056D01*
X108908655Y57185053D01*
X109023864Y57098807D01*
X109023871Y57098803D01*
X109158717Y57048509D01*
X109158716Y57048509D01*
X109165644Y57047765D01*
X109218327Y57042100D01*
X111914072Y57042101D01*
X111973683Y57048509D01*
X112108531Y57098804D01*
X112223746Y57185054D01*
X112309996Y57300269D01*
X112360291Y57435117D01*
X112366700Y57494727D01*
X112366699Y60190472D01*
X112360291Y60250083D01*
X112309996Y60384931D01*
X112309995Y60384932D01*
X112309993Y60384936D01*
X112223747Y60500145D01*
X112223744Y60500148D01*
X112108535Y60586394D01*
X112108528Y60586398D01*
X111973682Y60636692D01*
X111973683Y60636692D01*
X111914083Y60643099D01*
X111914081Y60643100D01*
X111914073Y60643100D01*
X111914064Y60643100D01*
X109218329Y60643100D01*
X109218323Y60643099D01*
X109158716Y60636692D01*
X109023871Y60586398D01*
X109023864Y60586394D01*
X108908655Y60500148D01*
X108908652Y60500145D01*
X108822406Y60384936D01*
X108822402Y60384929D01*
X108772108Y60250083D01*
X108765701Y60190484D01*
X108765701Y60190477D01*
X108765700Y60190465D01*
X108765700Y57494730D01*
X20025617Y57494730D01*
X20053830Y57520061D01*
X20141367Y57622900D01*
X20201138Y57753777D01*
X20220823Y57820816D01*
X20220824Y57820820D01*
X20241300Y57963236D01*
X20241300Y64424238D01*
X20230633Y64527536D01*
X20220277Y64577145D01*
X20188727Y64676083D01*
X20188726Y64676085D01*
X20112987Y64798409D01*
X20068124Y64851977D01*
X20068123Y64851978D01*
X19960981Y64948017D01*
X19283628Y65399584D01*
X19281558Y65400938D01*
X19280047Y65401926D01*
X19278091Y65403195D01*
X19276591Y65404168D01*
X19145718Y65463937D01*
X19078681Y65483622D01*
X19078675Y65483624D01*
X18981646Y65497574D01*
X18936256Y65504100D01*
X4261923Y65504100D01*
X4213764Y65500218D01*
X4180963Y65497574D01*
X4180959Y65497574D01*
X4180954Y65497573D01*
X4141742Y65491210D01*
X4062858Y65471796D01*
X3859973Y65404168D01*
X3398327Y65250287D01*
X3385642Y65245678D01*
X3367067Y65238364D01*
X3342300Y65227841D01*
X3342295Y65227839D01*
X3221262Y65150055D01*
X3221251Y65150047D01*
X3168459Y65104303D01*
X3074233Y64995562D01*
X3074230Y64995558D01*
X3014464Y64864692D01*
X2994778Y64797651D01*
X2994776Y64797646D01*
X2974300Y64655225D01*
X2974300Y58206962D01*
X2984966Y58103670D01*
X2984969Y58103654D01*
X2995322Y58054057D01*
X2995326Y58054045D01*
X3015775Y57989920D01*
X3026874Y57955117D01*
X3026875Y57955115D01*
X3026877Y57955111D01*
X3102613Y57832791D01*
X3102618Y57832785D01*
X3147468Y57779233D01*
X3147472Y57779229D01*
X3147478Y57779222D01*
X3235311Y57700492D01*
X3254619Y57683185D01*
X3626720Y57435118D01*
X3931979Y57231612D01*
X3935553Y57229274D01*
X3939008Y57227033D01*
X4069885Y57167262D01*
X4116021Y57153715D01*
X4139202Y57146908D01*
X4197980Y57109132D01*
X4227004Y57045576D01*
X4217060Y56976418D01*
X4171304Y56923615D01*
X4144992Y56910810D01*
X4125805Y56904138D01*
X4094245Y56893164D01*
X4094240Y56893162D01*
X4094237Y56893162D01*
X3966448Y56827047D01*
X3161711Y56252234D01*
X3089424Y56189459D01*
X3089421Y56189456D01*
X3057180Y56155591D01*
X3057165Y56155574D01*
X2998037Y56080330D01*
X2998034Y56080325D01*
X2938263Y55949450D01*
X2918578Y55882412D01*
X2918576Y55882407D01*
X2898100Y55739986D01*
X2898100Y49266162D01*
X164461Y49266162D01*
X129977Y69011797D01*
X1033015Y69011797D01*
X1053338Y68662873D01*
X1053339Y68662862D01*
X1114028Y68318673D01*
X1114030Y68318666D01*
X1214274Y67983828D01*
X1352707Y67662905D01*
X1352713Y67662892D01*
X1527470Y67360203D01*
X1736184Y67079851D01*
X1736189Y67079845D01*
X1775271Y67038421D01*
X1976042Y66825617D01*
X2122827Y66702450D01*
X2243786Y66600953D01*
X2243794Y66600947D01*
X2535803Y66408889D01*
X2535807Y66408887D01*
X2848149Y66252023D01*
X3176589Y66132481D01*
X3516686Y66051877D01*
X3863841Y66011300D01*
X3863848Y66011300D01*
X4213352Y66011300D01*
X4213359Y66011300D01*
X4560514Y66051877D01*
X4900611Y66132481D01*
X5229051Y66252023D01*
X5541393Y66408887D01*
X5833411Y66600951D01*
X6101158Y66825617D01*
X6341012Y67079847D01*
X6354494Y67097956D01*
X99970600Y67097956D01*
X99977001Y67038428D01*
X99977003Y67038421D01*
X100027245Y66903714D01*
X100027249Y66903707D01*
X100113409Y66788613D01*
X100113412Y66788610D01*
X100228506Y66702450D01*
X100228513Y66702446D01*
X100363220Y66652204D01*
X100363227Y66652202D01*
X100422755Y66645801D01*
X100422772Y66645800D01*
X101070600Y66645800D01*
X101070600Y67560299D01*
X101178285Y67511120D01*
X101284837Y67495800D01*
X101356363Y67495800D01*
X101462915Y67511120D01*
X101570600Y67560299D01*
X101570600Y66645800D01*
X102218428Y66645800D01*
X102218444Y66645801D01*
X102277972Y66652202D01*
X102277979Y66652204D01*
X102412686Y66702446D01*
X102412693Y66702450D01*
X102527787Y66788610D01*
X102527790Y66788613D01*
X102613950Y66903707D01*
X102613954Y66903714D01*
X102663022Y67035271D01*
X102704893Y67091205D01*
X102770357Y67115622D01*
X102838630Y67100770D01*
X102866885Y67079619D01*
X102989199Y66957305D01*
X103065735Y66903714D01*
X103182765Y66821768D01*
X103182767Y66821767D01*
X103182770Y66821765D01*
X103396937Y66721897D01*
X103625192Y66660737D01*
X103795919Y66645800D01*
X103860599Y66640141D01*
X103860600Y66640141D01*
X103860601Y66640141D01*
X103925281Y66645800D01*
X104096008Y66660737D01*
X104324263Y66721897D01*
X104538430Y66821765D01*
X104732001Y66957305D01*
X104899095Y67124399D01*
X105029025Y67309958D01*
X105083602Y67353583D01*
X105153100Y67360777D01*
X105215455Y67329254D01*
X105232175Y67309958D01*
X105362100Y67124405D01*
X105362105Y67124399D01*
X105529199Y66957305D01*
X105605735Y66903714D01*
X105722765Y66821768D01*
X105722767Y66821767D01*
X105722770Y66821765D01*
X105936937Y66721897D01*
X106165192Y66660737D01*
X106335919Y66645800D01*
X106400599Y66640141D01*
X106400600Y66640141D01*
X106400601Y66640141D01*
X106465281Y66645800D01*
X106636008Y66660737D01*
X106864263Y66721897D01*
X107078430Y66821765D01*
X107272001Y66957305D01*
X107439095Y67124399D01*
X107574635Y67317970D01*
X107674503Y67532137D01*
X107735663Y67760392D01*
X107756259Y67995800D01*
X107735663Y68231208D01*
X107674503Y68459463D01*
X107574635Y68673629D01*
X107569025Y68681642D01*
X107480130Y68808597D01*
X108881415Y68808597D01*
X108901738Y68459673D01*
X108901739Y68459662D01*
X108962428Y68115473D01*
X108962430Y68115466D01*
X109062674Y67780628D01*
X109201107Y67459705D01*
X109201113Y67459692D01*
X109375870Y67157003D01*
X109584584Y66876651D01*
X109584589Y66876645D01*
X109708463Y66745347D01*
X109824442Y66622417D01*
X110000903Y66474349D01*
X110092186Y66397753D01*
X110092194Y66397747D01*
X110384203Y66205689D01*
X110384207Y66205687D01*
X110696549Y66048823D01*
X111024989Y65929281D01*
X111365086Y65848677D01*
X111712241Y65808100D01*
X111712248Y65808100D01*
X112061752Y65808100D01*
X112061759Y65808100D01*
X112408914Y65848677D01*
X112749011Y65929281D01*
X113077451Y66048823D01*
X113389793Y66205687D01*
X113681811Y66397751D01*
X113949558Y66622417D01*
X114189412Y66876647D01*
X114398130Y67157004D01*
X114572889Y67459696D01*
X114711326Y67780629D01*
X114811569Y68115464D01*
X114847399Y68318664D01*
X114872260Y68459662D01*
X114872259Y68459662D01*
X114872262Y68459673D01*
X114892585Y68808600D01*
X114872262Y69157527D01*
X114864246Y69202991D01*
X114811571Y69501728D01*
X114811569Y69501735D01*
X114811569Y69501736D01*
X114711326Y69836571D01*
X114572889Y70157504D01*
X114398130Y70460196D01*
X114398129Y70460198D01*
X114189415Y70740550D01*
X114189410Y70740556D01*
X113997702Y70943753D01*
X113949558Y70994783D01*
X113707396Y71197981D01*
X113681813Y71219448D01*
X113681805Y71219454D01*
X113389796Y71411512D01*
X113077458Y71568374D01*
X113077452Y71568377D01*
X112749012Y71687919D01*
X112749009Y71687920D01*
X112408915Y71768523D01*
X112365519Y71773596D01*
X112061759Y71809100D01*
X111712241Y71809100D01*
X111408480Y71773596D01*
X111365085Y71768523D01*
X111365083Y71768523D01*
X111024990Y71687920D01*
X111024987Y71687919D01*
X110696547Y71568377D01*
X110696541Y71568374D01*
X110384203Y71411512D01*
X110092194Y71219454D01*
X110092186Y71219448D01*
X109824442Y70994783D01*
X109824440Y70994781D01*
X109584589Y70740556D01*
X109584584Y70740550D01*
X109375870Y70460198D01*
X109201113Y70157509D01*
X109201107Y70157496D01*
X109062674Y69836573D01*
X108962430Y69501735D01*
X108962428Y69501728D01*
X108901739Y69157539D01*
X108901738Y69157528D01*
X108881415Y68808604D01*
X108881415Y68808597D01*
X107480130Y68808597D01*
X107439094Y68867203D01*
X107272002Y69034294D01*
X107271995Y69034299D01*
X107078434Y69169833D01*
X107078430Y69169835D01*
X107007327Y69202991D01*
X106864263Y69269703D01*
X106864259Y69269704D01*
X106864255Y69269706D01*
X106636013Y69330862D01*
X106636003Y69330864D01*
X106400601Y69351459D01*
X106400599Y69351459D01*
X106165196Y69330864D01*
X106165186Y69330862D01*
X105936944Y69269706D01*
X105936935Y69269702D01*
X105722771Y69169836D01*
X105722769Y69169835D01*
X105529197Y69034295D01*
X105362105Y68867203D01*
X105232175Y68681642D01*
X105177598Y68638017D01*
X105108100Y68630823D01*
X105045745Y68662346D01*
X105029025Y68681642D01*
X104899094Y68867203D01*
X104732002Y69034294D01*
X104731995Y69034299D01*
X104538434Y69169833D01*
X104538430Y69169835D01*
X104467327Y69202991D01*
X104324263Y69269703D01*
X104324259Y69269704D01*
X104324255Y69269706D01*
X104096013Y69330862D01*
X104096003Y69330864D01*
X103860601Y69351459D01*
X103860599Y69351459D01*
X103625196Y69330864D01*
X103625186Y69330862D01*
X103396944Y69269706D01*
X103396935Y69269702D01*
X103182771Y69169836D01*
X103182769Y69169835D01*
X102989200Y69034297D01*
X102866884Y68911981D01*
X102805561Y68878497D01*
X102735869Y68883481D01*
X102679936Y68925353D01*
X102663021Y68956330D01*
X102613954Y69087887D01*
X102613950Y69087894D01*
X102527790Y69202988D01*
X102527787Y69202991D01*
X102412693Y69289151D01*
X102412686Y69289155D01*
X102277979Y69339397D01*
X102277972Y69339399D01*
X102218444Y69345800D01*
X101570600Y69345800D01*
X101570600Y68431302D01*
X101462915Y68480480D01*
X101356363Y68495800D01*
X101284837Y68495800D01*
X101178285Y68480480D01*
X101070600Y68431302D01*
X101070600Y69345800D01*
X100422755Y69345800D01*
X100363227Y69339399D01*
X100363220Y69339397D01*
X100228513Y69289155D01*
X100228506Y69289151D01*
X100113412Y69202991D01*
X100113409Y69202988D01*
X100027249Y69087894D01*
X100027245Y69087887D01*
X99977003Y68953180D01*
X99977001Y68953173D01*
X99970600Y68893645D01*
X99970600Y68245800D01*
X100886914Y68245800D01*
X100861107Y68205644D01*
X100820600Y68067689D01*
X100820600Y67923911D01*
X100861107Y67785956D01*
X100886914Y67745800D01*
X99970600Y67745800D01*
X99970600Y67097956D01*
X6354494Y67097956D01*
X6549730Y67360204D01*
X6724489Y67662896D01*
X6862926Y67983829D01*
X6963169Y68318664D01*
X6987995Y68459456D01*
X7023860Y68662862D01*
X7023859Y68662862D01*
X7023862Y68662873D01*
X7044185Y69011800D01*
X7042881Y69034196D01*
X56285453Y69034196D01*
X56305613Y68765174D01*
X56305613Y68765172D01*
X56365642Y68502167D01*
X56365648Y68502148D01*
X56464209Y68251019D01*
X56464208Y68251019D01*
X56599102Y68017378D01*
X56652794Y67950049D01*
X56652795Y67950049D01*
X57487952Y68785207D01*
X57497688Y68755244D01*
X57585686Y68616581D01*
X57705403Y68504160D01*
X57840010Y68430159D01*
X57005348Y67595498D01*
X57187983Y67470980D01*
X57187985Y67470979D01*
X57431039Y67353931D01*
X57431037Y67353931D01*
X57688837Y67274410D01*
X57688843Y67274408D01*
X57955601Y67234201D01*
X57955610Y67234200D01*
X58225390Y67234200D01*
X58225398Y67234201D01*
X58492156Y67274408D01*
X58492162Y67274410D01*
X58749961Y67353931D01*
X58993021Y67470982D01*
X59175650Y67595498D01*
X58338034Y68433114D01*
X58406129Y68460074D01*
X58538992Y68556605D01*
X58643675Y68683145D01*
X58692131Y68786121D01*
X59528203Y67950049D01*
X59528204Y67950050D01*
X59581893Y68017372D01*
X59581900Y68017383D01*
X59716790Y68251019D01*
X59815351Y68502148D01*
X59815357Y68502167D01*
X59875386Y68765172D01*
X59875386Y68765174D01*
X59895547Y69034196D01*
X59895547Y69034205D01*
X59875386Y69303227D01*
X59875386Y69303229D01*
X59815357Y69566234D01*
X59815351Y69566253D01*
X59716790Y69817382D01*
X59716791Y69817382D01*
X59581897Y70051023D01*
X59528204Y70118353D01*
X58693046Y69283196D01*
X58683312Y69313156D01*
X58595314Y69451819D01*
X58475597Y69564240D01*
X58340989Y69638242D01*
X59175650Y70472904D01*
X58993017Y70597421D01*
X58993016Y70597422D01*
X58749960Y70714470D01*
X58749962Y70714470D01*
X58492162Y70793991D01*
X58492156Y70793993D01*
X58225398Y70834200D01*
X57955601Y70834200D01*
X57688843Y70793993D01*
X57688837Y70793991D01*
X57431038Y70714470D01*
X57187985Y70597422D01*
X57187976Y70597417D01*
X57005348Y70472904D01*
X57842965Y69635287D01*
X57774871Y69608326D01*
X57642008Y69511795D01*
X57537325Y69385255D01*
X57488868Y69282279D01*
X56652795Y70118352D01*
X56599100Y70051020D01*
X56464209Y69817382D01*
X56365648Y69566253D01*
X56365642Y69566234D01*
X56305613Y69303229D01*
X56305613Y69303227D01*
X56285453Y69034205D01*
X56285453Y69034196D01*
X7042881Y69034196D01*
X7023862Y69360727D01*
X6998999Y69501735D01*
X6963171Y69704928D01*
X6963169Y69704935D01*
X6862925Y70039773D01*
X6724492Y70360696D01*
X6724489Y70360704D01*
X6549730Y70663396D01*
X6511707Y70714470D01*
X6341015Y70943750D01*
X6341010Y70943756D01*
X6225033Y71066683D01*
X6101158Y71197983D01*
X5846684Y71411512D01*
X5833413Y71422648D01*
X5833405Y71422654D01*
X5541396Y71614712D01*
X5229058Y71771574D01*
X5229052Y71771577D01*
X4900612Y71891119D01*
X4900609Y71891120D01*
X4560515Y71971723D01*
X4517119Y71976796D01*
X4213359Y72012300D01*
X3863841Y72012300D01*
X3560080Y71976796D01*
X3516685Y71971723D01*
X3516683Y71971723D01*
X3176590Y71891120D01*
X3176587Y71891119D01*
X2848147Y71771577D01*
X2848141Y71771574D01*
X2535803Y71614712D01*
X2243794Y71422654D01*
X2243786Y71422648D01*
X1976042Y71197983D01*
X1976040Y71197981D01*
X1736189Y70943756D01*
X1736184Y70943750D01*
X1527470Y70663398D01*
X1352713Y70360709D01*
X1352707Y70360696D01*
X1214274Y70039773D01*
X1114030Y69704935D01*
X1114028Y69704928D01*
X1053339Y69360739D01*
X1053338Y69360728D01*
X1033015Y69011804D01*
X1033015Y69011797D01*
X129977Y69011797D01*
X124155Y72345483D01*
X143723Y72412557D01*
X196447Y72458404D01*
X248155Y72469700D01*
X98908326Y72469700D01*
X116339153Y72469700D01*
X116406192Y72450015D01*
G37*
%TD.AperFunction*%
%TD*%
M02*
