%TF.GenerationSoftware,KiCad,Pcbnew,7.0.8*%
%TF.CreationDate,2024-04-08T22:48:43+05:30*%
%TF.ProjectId,Esp32_relay,45737033-325f-4726-956c-61792e6b6963,rev?*%
%TF.SameCoordinates,PX4046330PY7125ac8*%
%TF.FileFunction,Soldermask,Top*%
%TF.FilePolarity,Negative*%
%FSLAX46Y46*%
G04 Gerber Fmt 4.6, Leading zero omitted, Abs format (unit mm)*
G04 Created by KiCad (PCBNEW 7.0.8) date 2024-04-08 22:48:43*
%MOMM*%
%LPD*%
G01*
G04 APERTURE LIST*
G04 Aperture macros list*
%AMRoundRect*
0 Rectangle with rounded corners*
0 $1 Rounding radius*
0 $2 $3 $4 $5 $6 $7 $8 $9 X,Y pos of 4 corners*
0 Add a 4 corners polygon primitive as box body*
4,1,4,$2,$3,$4,$5,$6,$7,$8,$9,$2,$3,0*
0 Add four circle primitives for the rounded corners*
1,1,$1+$1,$2,$3*
1,1,$1+$1,$4,$5*
1,1,$1+$1,$6,$7*
1,1,$1+$1,$8,$9*
0 Add four rect primitives between the rounded corners*
20,1,$1+$1,$2,$3,$4,$5,0*
20,1,$1+$1,$4,$5,$6,$7,0*
20,1,$1+$1,$6,$7,$8,$9,0*
20,1,$1+$1,$8,$9,$2,$3,0*%
G04 Aperture macros list end*
%ADD10RoundRect,0.243750X-0.243750X-0.456250X0.243750X-0.456250X0.243750X0.456250X-0.243750X0.456250X0*%
%ADD11RoundRect,0.250000X0.450000X-0.262500X0.450000X0.262500X-0.450000X0.262500X-0.450000X-0.262500X0*%
%ADD12RoundRect,0.250000X0.475000X-0.250000X0.475000X0.250000X-0.475000X0.250000X-0.475000X-0.250000X0*%
%ADD13RoundRect,0.250000X-0.475000X0.250000X-0.475000X-0.250000X0.475000X-0.250000X0.475000X0.250000X0*%
%ADD14RoundRect,0.150000X0.150000X-0.587500X0.150000X0.587500X-0.150000X0.587500X-0.150000X-0.587500X0*%
%ADD15RoundRect,0.250000X-0.450000X0.262500X-0.450000X-0.262500X0.450000X-0.262500X0.450000X0.262500X0*%
%ADD16R,2.600000X2.000000*%
%ADD17C,2.600000*%
%ADD18C,1.500000*%
%ADD19RoundRect,0.250000X-0.625000X0.375000X-0.625000X-0.375000X0.625000X-0.375000X0.625000X0.375000X0*%
%ADD20C,5.000000*%
%ADD21RoundRect,0.102000X0.990000X-0.990000X0.990000X0.990000X-0.990000X0.990000X-0.990000X-0.990000X0*%
%ADD22C,2.184000*%
%ADD23C,2.139000*%
%ADD24R,2.600000X2.600000*%
%ADD25R,1.500000X0.900000*%
%ADD26R,0.900000X1.500000*%
%ADD27R,0.900000X0.900000*%
%ADD28RoundRect,0.250000X0.262500X0.450000X-0.262500X0.450000X-0.262500X-0.450000X0.262500X-0.450000X0*%
%ADD29RoundRect,0.250000X-0.262500X-0.450000X0.262500X-0.450000X0.262500X0.450000X-0.262500X0.450000X0*%
%ADD30R,1.700000X1.700000*%
%ADD31O,1.700000X1.700000*%
%ADD32R,2.000000X1.500000*%
%ADD33R,2.000000X3.800000*%
G04 APERTURE END LIST*
D10*
%TO.C,D8*%
X67769500Y33706200D03*
X69644500Y33706200D03*
%TD*%
D11*
%TO.C,R3*%
X48370800Y37167500D03*
X48370800Y38992500D03*
%TD*%
D12*
%TO.C,C1*%
X97627000Y34738200D03*
X97627000Y36638200D03*
%TD*%
D13*
%TO.C,C5*%
X72009000Y53096200D03*
X72009000Y51196200D03*
%TD*%
%TO.C,C3*%
X62865000Y48016200D03*
X62865000Y46116200D03*
%TD*%
D14*
%TO.C,Q3*%
X53406000Y33581100D03*
X55306000Y33581100D03*
X54356000Y35456100D03*
%TD*%
D12*
%TO.C,C2*%
X73025000Y62118200D03*
X73025000Y64018200D03*
%TD*%
D15*
%TO.C,R8*%
X73253600Y39493200D03*
X73253600Y37668200D03*
%TD*%
D16*
%TO.C,PS1*%
X15590500Y61634200D03*
D17*
X15590500Y53834200D03*
X58090500Y69034200D03*
X58090500Y46434200D03*
%TD*%
D18*
%TO.C,S1*%
X95087000Y38378200D03*
X95087000Y31878200D03*
X90587000Y38378200D03*
X90587000Y31878200D03*
%TD*%
D14*
%TO.C,Q4*%
X71262200Y33733500D03*
X73162200Y33733500D03*
X72212200Y35608500D03*
%TD*%
D19*
%TO.C,D2*%
X32461200Y38738000D03*
X32461200Y35938000D03*
%TD*%
D12*
%TO.C,C4*%
X75819000Y62118200D03*
X75819000Y64018200D03*
%TD*%
D20*
%TO.C,H2*%
X4216400Y4572000D03*
%TD*%
D21*
%TO.C,K4*%
X65678800Y16376400D03*
D22*
X77678800Y16376400D03*
D23*
X71678800Y14376400D03*
D22*
X65678800Y28576400D03*
X77678800Y28576400D03*
%TD*%
D21*
%TO.C,K3*%
X47182000Y16298800D03*
D22*
X59182000Y16298800D03*
D23*
X53182000Y14298800D03*
D22*
X47182000Y28498800D03*
X59182000Y28498800D03*
%TD*%
D24*
%TO.C,J8*%
X96266000Y6934200D03*
D17*
X88766000Y6934200D03*
%TD*%
D25*
%TO.C,IC1*%
X79655000Y64010200D03*
X79655000Y62740200D03*
X79655000Y61470200D03*
X79655000Y60200200D03*
X79655000Y58930200D03*
X79655000Y57660200D03*
X79655000Y56390200D03*
X79655000Y55120200D03*
X79655000Y53850200D03*
X79655000Y52580200D03*
X79655000Y51310200D03*
X79655000Y50040200D03*
X79655000Y48770200D03*
X79655000Y47500200D03*
D26*
X82690000Y46250200D03*
X83960000Y46250200D03*
X85230000Y46250200D03*
X86500000Y46250200D03*
X87770000Y46250200D03*
X89040000Y46250200D03*
X90310000Y46250200D03*
X91580000Y46250200D03*
X92850000Y46250200D03*
X94120000Y46250200D03*
D25*
X97155000Y47500200D03*
X97155000Y48770200D03*
X97155000Y50040200D03*
X97155000Y51310200D03*
X97155000Y52580200D03*
X97155000Y53850200D03*
X97155000Y55120200D03*
X97155000Y56390200D03*
X97155000Y57660200D03*
X97155000Y58930200D03*
X97155000Y60200200D03*
X97155000Y61470200D03*
X97155000Y62740200D03*
X97155000Y64010200D03*
D27*
X85505000Y57690200D03*
X85505000Y56290200D03*
X85505000Y54890200D03*
X86905000Y54890200D03*
X88305000Y54890200D03*
X88305000Y56290200D03*
X88305000Y57690200D03*
X86905000Y57690200D03*
X86905000Y56290200D03*
%TD*%
D24*
%TO.C,J9*%
X110363000Y19481800D03*
D17*
X110363000Y11981800D03*
%TD*%
D11*
%TO.C,R2*%
X29819600Y36882700D03*
X29819600Y38707700D03*
%TD*%
D14*
%TO.C,Q2*%
X34737000Y33708100D03*
X36637000Y33708100D03*
X35687000Y35583100D03*
%TD*%
D28*
%TO.C,R9*%
X96810500Y41588400D03*
X94985500Y41588400D03*
%TD*%
D21*
%TO.C,K2*%
X28721800Y16325600D03*
D22*
X40721800Y16325600D03*
D23*
X34721800Y14325600D03*
D22*
X28721800Y28525600D03*
X40721800Y28525600D03*
%TD*%
D20*
%TO.C,H4*%
X111836200Y4572000D03*
%TD*%
%TO.C,H1*%
X4038600Y69011800D03*
%TD*%
D24*
%TO.C,J2*%
X20457600Y6336800D03*
D17*
X12957600Y6336800D03*
%TD*%
D14*
%TO.C,Q1*%
X17714600Y33456400D03*
X19614600Y33456400D03*
X18664600Y35331400D03*
%TD*%
D10*
%TO.C,D5*%
X14175500Y33417200D03*
X16050500Y33417200D03*
%TD*%
D11*
%TO.C,R1*%
X13081000Y36973200D03*
X13081000Y38798200D03*
%TD*%
D10*
%TO.C,D7*%
X49516100Y33638000D03*
X51391100Y33638000D03*
%TD*%
D24*
%TO.C,J1*%
X6223000Y53790200D03*
D17*
X6223000Y61290200D03*
%TD*%
D19*
%TO.C,D3*%
X50656800Y38848000D03*
X50656800Y36048000D03*
%TD*%
D24*
%TO.C,J3*%
X38471800Y6423600D03*
D17*
X30971800Y6423600D03*
%TD*%
D24*
%TO.C,J7*%
X110413800Y39420800D03*
D17*
X110413800Y31920800D03*
%TD*%
D19*
%TO.C,D1*%
X15621000Y38627200D03*
X15621000Y35827200D03*
%TD*%
D10*
%TO.C,D6*%
X31193500Y33782000D03*
X33068500Y33782000D03*
%TD*%
D20*
%TO.C,H3*%
X111887000Y68808600D03*
%TD*%
D28*
%TO.C,R7*%
X57411300Y37956000D03*
X55586300Y37956000D03*
%TD*%
D24*
%TO.C,J5*%
X75428800Y6474400D03*
D17*
X67928800Y6474400D03*
%TD*%
D11*
%TO.C,R5*%
X19939000Y37481200D03*
X19939000Y39306200D03*
%TD*%
D29*
%TO.C,R10*%
X79606000Y41282400D03*
X81431000Y41282400D03*
%TD*%
D30*
%TO.C,J6*%
X101320600Y67995800D03*
D31*
X103860600Y67995800D03*
X106400600Y67995800D03*
%TD*%
D24*
%TO.C,J10*%
X110566200Y58842600D03*
D17*
X110566200Y51342600D03*
%TD*%
D32*
%TO.C,U1*%
X63017000Y55208200D03*
X63017000Y52908200D03*
D33*
X69317000Y52908200D03*
D32*
X63017000Y50608200D03*
%TD*%
D19*
%TO.C,D4*%
X69215000Y38662200D03*
X69215000Y35862200D03*
%TD*%
D28*
%TO.C,R6*%
X38529900Y38125400D03*
X36704900Y38125400D03*
%TD*%
D21*
%TO.C,K1*%
X10707600Y16242800D03*
D22*
X22707600Y16242800D03*
D23*
X16707600Y14242800D03*
D22*
X10707600Y28442800D03*
X22707600Y28442800D03*
%TD*%
D24*
%TO.C,J4*%
X56932000Y6396800D03*
D17*
X49432000Y6396800D03*
%TD*%
D18*
%TO.C,S2*%
X85856200Y38580200D03*
X85856200Y32080200D03*
X81356200Y38580200D03*
X81356200Y32080200D03*
%TD*%
D11*
%TO.C,R4*%
X66675000Y36981700D03*
X66675000Y38806700D03*
%TD*%
M02*
