M48
; DRILL file {KiCad 7.0.8} date Sun Feb 18 19:11:00 2024
; FORMAT={-:-/ absolute / inch / decimal}
; #@! TF.CreationDate,2024-02-18T19:11:00+05:30
; #@! TF.GenerationSoftware,Kicad,Pcbnew,7.0.8
; #@! TF.FileFunction,Plated,1,4,PTH
FMAT,2
INCH
; #@! TA.AperFunction,Plated,PTH,ViaDrill
T1C0.0157
; #@! TA.AperFunction,Plated,PTH,ComponentDrill
T2C0.0217
; #@! TA.AperFunction,Plated,PTH,ComponentDrill
T3C0.0256
; #@! TA.AperFunction,Plated,PTH,ComponentDrill
T4C0.0335
; #@! TA.AperFunction,Plated,PTH,ComponentDrill
T5C0.0866
%
G90
G05
T1
X4.48Y-3.895
X4.595Y-3.91
X4.6Y-3.725
X4.665Y-3.88
X4.79Y-3.585
X4.795Y-3.535
X4.828Y-3.684
X4.862Y-3.682
X4.865Y-3.8696
X4.895Y-3.702
X4.926Y-3.67
X5.0Y-3.995
X5.065Y-3.525
X5.09Y-3.49
X5.1041Y-3.8991
X5.11Y-3.945
X5.1247Y-3.61
X5.135Y-3.73
X5.205Y-3.495
X5.2537Y-3.8263
X5.255Y-3.57
X5.255Y-3.61
X5.27Y-3.975
X5.294Y-3.706
X5.38Y-3.765
X5.4Y-3.704
X5.4642Y-3.6771
X5.5Y-3.555
X5.5067Y-3.8967
X5.575Y-4.05
X5.585Y-3.63
X5.6224Y-3.6874
X5.635Y-3.93
X5.65Y-3.57
X5.67Y-4.005
X5.69Y-3.57
X5.718Y-4.114
X5.72Y-3.73
X5.752Y-4.112
X5.798Y-4.072
X5.948Y-3.976
X6.008Y-3.972
X6.13Y-3.7
T3
X5.11Y-4.08
X5.11Y-4.13
X5.16Y-4.08
X5.16Y-4.13
X5.21Y-4.08
X5.21Y-4.13
X5.26Y-4.08
X5.26Y-4.13
X5.31Y-4.08
X5.31Y-4.13
T5
X4.3658Y-3.4865
X4.3658Y-4.1459
X6.2457Y-3.5062
X6.2457Y-4.1558
T2
G00X4.2984Y-3.6674
M15
G01X4.2729Y-3.6674
M16
G05
G00X4.2984Y-3.9726
M15
G01X4.2729Y-3.9726
M16
G05
T4
G00X4.4461Y-3.6733
M15
G01X4.4244Y-3.6733
M16
G05
G00X4.4461Y-3.9667
M15
G01X4.4244Y-3.9667
M16
G05
T0
M30
