M48
; DRILL file {KiCad 7.0.8} date Mon Apr  8 22:45:31 2024
; FORMAT={-:-/ absolute / inch / decimal}
; #@! TF.CreationDate,2024-04-08T22:45:31+05:30
; #@! TF.GenerationSoftware,Kicad,Pcbnew,7.0.8
; #@! TF.FileFunction,Plated,1,2,PTH
FMAT,2
INCH
; #@! TA.AperFunction,Plated,PTH,ViaDrill
T1C0.0197
; #@! TA.AperFunction,Plated,PTH,ComponentDrill
T2C0.0394
; #@! TA.AperFunction,Plated,PTH,ComponentDrill
T3C0.0508
; #@! TA.AperFunction,Plated,PTH,ComponentDrill
T4C0.0512
; #@! TA.AperFunction,Plated,PTH,ComponentDrill
T5C0.0520
; #@! TA.AperFunction,Plated,PTH,ComponentDrill
T6C0.0551
; #@! TA.AperFunction,Plated,PTH,ComponentDrill
T7C0.0984
%
G90
G05
T1
X0.352Y1.449
X0.699Y1.462
X0.9566Y2.691
X0.9566Y2.561
X0.9566Y2.441
X0.9566Y2.311
X0.9566Y2.161
X0.9566Y2.001
X1.0266Y2.691
X1.0266Y2.561
X1.0266Y2.431
X1.0266Y2.161
X1.0366Y2.311
X1.0366Y2.001
X1.081Y1.386
X1.0866Y2.551
X1.1066Y2.691
X1.1066Y2.441
X1.1066Y2.281
X1.1066Y2.141
X1.1166Y2.011
X1.1666Y2.551
X1.1866Y2.691
X1.2166Y2.341
X1.2266Y2.431
X1.2266Y2.191
X1.2466Y2.031
X1.2766Y2.691
X1.2966Y2.581
X1.3266Y2.421
X1.3366Y2.301
X1.3366Y2.141
X1.3566Y2.021
X1.3666Y2.691
X1.376Y1.465
X1.4666Y2.691
X1.5566Y2.691
X1.6466Y2.691
X1.7366Y2.691
X1.805Y1.463
X1.8266Y2.691
X1.9266Y2.691
X2.0266Y2.691
X2.116Y1.473
X2.485Y2.253
X2.51Y1.457
X2.555Y1.813
X2.795Y2.513
X2.802Y1.474
X2.815Y1.963
X2.905Y2.093
X3.0127Y1.6253
X3.265Y1.903
X3.2666Y2.051
X3.315Y2.163
X3.3166Y2.051
X3.325Y2.223
X3.3466Y1.981
X3.365Y2.323
X3.3766Y1.931
X3.3866Y2.051
X3.415Y2.323
X3.415Y2.113
X3.4166Y1.981
X3.4566Y1.941
X3.4666Y2.051
X3.475Y2.323
X3.4866Y2.001
X3.525Y2.223
X3.525Y2.163
X3.5266Y1.951
X3.5466Y2.051
X3.5666Y2.001
X3.5866Y1.941
X3.6066Y2.051
X3.6166Y2.001
X3.6666Y2.051
X3.6666Y1.941
X3.7366Y2.051
X3.845Y1.313
X3.935Y1.633
T2
X3.203Y1.5189
X3.203Y1.263
X3.3802Y1.5189
X3.3802Y1.263
X3.5664Y1.511
X3.5664Y1.255
X3.7436Y1.511
X3.7436Y1.255
X3.989Y2.677
X4.089Y2.677
X4.189Y2.677
T3
X0.6578Y0.5607
X1.367Y0.564
X2.0938Y0.5629
X2.822Y0.566
T4
X0.6138Y2.4265
X0.6138Y2.1195
X2.287Y2.7179
X2.287Y1.8281
T5
X0.4216Y1.1198
X0.4216Y0.6395
X0.894Y1.1198
X0.894Y0.6395
X1.1308Y1.1231
X1.1308Y0.6427
X1.6032Y1.1231
X1.6032Y0.6427
X1.8576Y1.122
X1.8576Y0.6417
X2.33Y1.122
X2.33Y0.6417
X2.5858Y1.1251
X2.5858Y0.6447
X3.0582Y1.1251
X3.0582Y0.6447
T6
X0.245Y2.413
X0.245Y2.1177
X0.5101Y0.2495
X0.8054Y0.2495
X1.2194Y0.2529
X1.5146Y0.2529
X1.9461Y0.2518
X2.2414Y0.2518
X2.6744Y0.2549
X2.9696Y0.2549
X3.4947Y0.273
X3.79Y0.273
X4.345Y0.767
X4.345Y0.4717
X4.347Y1.552
X4.347Y1.2567
X4.353Y2.3166
X4.353Y2.0214
T7
X0.159Y2.717
X0.166Y0.18
X4.403Y0.18
X4.405Y2.709
T0
M30
